%TF.GenerationSoftware,KiCad,Pcbnew,9.0.6*%
%TF.CreationDate,2025-12-29T07:41:30+09:00*%
%TF.ProjectId,muon,6d756f6e-2e6b-4696-9361-645f70636258,rev?*%
%TF.SameCoordinates,Original*%
%TF.FileFunction,Drillmap*%
%TF.FilePolarity,Positive*%
%FSLAX45Y45*%
G04 Gerber Fmt 4.5, Leading zero omitted, Abs format (unit mm)*
G04 Created by KiCad (PCBNEW 9.0.6) date 2025-12-29 07:41:30*
%MOMM*%
%LPD*%
G01*
G04 APERTURE LIST*
%ADD10C,0.050000*%
%ADD11C,0.200000*%
%ADD12C,0.100000*%
G04 APERTURE END LIST*
D10*
X8172120Y-5084630D02*
G75*
G02*
X8172120Y-5915370I-264620J-415370D01*
G01*
X7769895Y-5000000D02*
X5880105Y-5000000D01*
X5880105Y-6000000D02*
X5874430Y-6000000D01*
X5868715Y-5999997D01*
X5862961Y-5999991D01*
X5857169Y-5999979D01*
X5854258Y-5999971D01*
X5851339Y-5999960D01*
X5848411Y-5999946D01*
X5845473Y-5999930D01*
X5842527Y-5999911D01*
X5839573Y-5999889D01*
X5836609Y-5999864D01*
X5833638Y-5999835D01*
X5830658Y-5999802D01*
X5827669Y-5999765D01*
X5824673Y-5999723D01*
X5821669Y-5999677D01*
X5818657Y-5999626D01*
X5815638Y-5999570D01*
X5812611Y-5999509D01*
X5809576Y-5999442D01*
X5806535Y-5999369D01*
X5803486Y-5999291D01*
X5800430Y-5999206D01*
X5797367Y-5999114D01*
X5794297Y-5999016D01*
X5791221Y-5998910D01*
X5788138Y-5998798D01*
X5785049Y-5998678D01*
X5781954Y-5998550D01*
X5778852Y-5998414D01*
X5777299Y-5998343D01*
X5775745Y-5998270D01*
X5774189Y-5998195D01*
X5772631Y-5998117D01*
X5771072Y-5998038D01*
X5769512Y-5997956D01*
X5767950Y-5997872D01*
X5766387Y-5997786D01*
X5764823Y-5997697D01*
X5763257Y-5997606D01*
X5761689Y-5997513D01*
X5760121Y-5997417D01*
X5758551Y-5997319D01*
X5756980Y-5997219D01*
X5755407Y-5997116D01*
X5753834Y-5997010D01*
X5752259Y-5996902D01*
X5750682Y-5996791D01*
X5749105Y-5996678D01*
X5747526Y-5996562D01*
X5745947Y-5996444D01*
X5744366Y-5996323D01*
X5742783Y-5996199D01*
X5741200Y-5996072D01*
X5739616Y-5995942D01*
X5738030Y-5995810D01*
X5736444Y-5995675D01*
X5734856Y-5995537D01*
X5733267Y-5995396D01*
X5731677Y-5995252D01*
X5730086Y-5995105D01*
X5728495Y-5994956D01*
X5726902Y-5994803D01*
X5725308Y-5994647D01*
X5723713Y-5994488D01*
X5722117Y-5994326D01*
X5720520Y-5994160D01*
X5718923Y-5993992D01*
X5717324Y-5993820D01*
X5715725Y-5993646D01*
X5714125Y-5993467D01*
X5712523Y-5993286D01*
X5710921Y-5993101D01*
X5709319Y-5992913D01*
X5707715Y-5992721D01*
X5706111Y-5992527D01*
X5704505Y-5992328D01*
X5702899Y-5992126D01*
X5701293Y-5991921D01*
X5699685Y-5991712D01*
X5698077Y-5991499D01*
X5696468Y-5991283D01*
X5694858Y-5991064D01*
X5693248Y-5990840D01*
X5691637Y-5990613D01*
X5690026Y-5990382D01*
X5688414Y-5990148D01*
X5686801Y-5989909D01*
X5685188Y-5989667D01*
X5683574Y-5989421D01*
X5681959Y-5989171D01*
X5680344Y-5988917D01*
X5678729Y-5988660D01*
X5677113Y-5988398D01*
X5675496Y-5988132D01*
X5673879Y-5987863D01*
X5672261Y-5987589D01*
X5670643Y-5987311D01*
X5669025Y-5987029D01*
X5667406Y-5986743D01*
X5665787Y-5986453D01*
X5664167Y-5986158D01*
X5662548Y-5985859D01*
X5660927Y-5985556D01*
X5659307Y-5985249D01*
X5657686Y-5984938D01*
X5656064Y-5984622D01*
X5654443Y-5984301D01*
X5652821Y-5983976D01*
X5651199Y-5983647D01*
X5649576Y-5983313D01*
X5647954Y-5982975D01*
X5646331Y-5982632D01*
X5644708Y-5982285D01*
X5643085Y-5981933D01*
X5641461Y-5981577D01*
X5639838Y-5981215D01*
X5638214Y-5980849D01*
X5636591Y-5980479D01*
X5634967Y-5980103D01*
X5633343Y-5979723D01*
X5631719Y-5979338D01*
X5630095Y-5978948D01*
X5628471Y-5978554D01*
X5626847Y-5978154D01*
X5625222Y-5977750D01*
X5623598Y-5977340D01*
X5621974Y-5976926D01*
X5620350Y-5976506D01*
X5618726Y-5976081D01*
X5617102Y-5975652D01*
X5615478Y-5975217D01*
X5613855Y-5974777D01*
X5612231Y-5974332D01*
X5610607Y-5973882D01*
X5608984Y-5973426D01*
X5607361Y-5972965D01*
X5605738Y-5972499D01*
X5604115Y-5972028D01*
X5602493Y-5971551D01*
X5600870Y-5971069D01*
X5599248Y-5970581D01*
X5597626Y-5970088D01*
X5596005Y-5969590D01*
X5594383Y-5969086D01*
X5592762Y-5968576D01*
X5591142Y-5968061D01*
X5589521Y-5967540D01*
X5587901Y-5967014D01*
X5586282Y-5966482D01*
X5584663Y-5965944D01*
X5583044Y-5965401D01*
X5581425Y-5964852D01*
X5579807Y-5964297D01*
X5578190Y-5963736D01*
X5576573Y-5963169D01*
X5574956Y-5962597D01*
X5573340Y-5962018D01*
X5571725Y-5961434D01*
X5570110Y-5960844D01*
X5568495Y-5960247D01*
X5566881Y-5959645D01*
X5565268Y-5959037D01*
X5563655Y-5958422D01*
X5562043Y-5957802D01*
X5560431Y-5957175D01*
X5558821Y-5956542D01*
X5557210Y-5955903D01*
X5555601Y-5955258D01*
X5553992Y-5954606D01*
X5552384Y-5953948D01*
X5550776Y-5953284D01*
X5549169Y-5952614D01*
X5547563Y-5951937D01*
X5545958Y-5951253D01*
X5544354Y-5950563D01*
X5542750Y-5949867D01*
X5541147Y-5949164D01*
X5539545Y-5948455D01*
X5537944Y-5947739D01*
X5536344Y-5947017D01*
X5534744Y-5946288D01*
X5533146Y-5945552D01*
X5531548Y-5944809D01*
X5529951Y-5944060D01*
X5528356Y-5943304D01*
X5526761Y-5942542D01*
X5525167Y-5941772D01*
X5523574Y-5940996D01*
X5521982Y-5940212D01*
X5520391Y-5939422D01*
X5518802Y-5938625D01*
X5517213Y-5937821D01*
X5515625Y-5937010D01*
X5514038Y-5936192D01*
X5512453Y-5935367D01*
X5510868Y-5934535D01*
X5509285Y-5933696D01*
X5507703Y-5932849D01*
X5506122Y-5931996D01*
X5504542Y-5931135D01*
X5502963Y-5930267D01*
X5501386Y-5929391D01*
X5499810Y-5928509D01*
X5498235Y-5927619D01*
X5496661Y-5926722D01*
X5495089Y-5925817D01*
X5493517Y-5924905D01*
X5491948Y-5923985D01*
X5490379Y-5923058D01*
X5488812Y-5922124D01*
X5487246Y-5921182D01*
X5485681Y-5920232D01*
X5484118Y-5919275D01*
X5482556Y-5918310D01*
X5480996Y-5917338D01*
X5479437Y-5916358D01*
X5477880Y-5915370D01*
X7769895Y-5000000D02*
X7775570Y-5000000D01*
X7781285Y-5000003D01*
X7787039Y-5000009D01*
X7792831Y-5000021D01*
X7795741Y-5000029D01*
X7798661Y-5000040D01*
X7801589Y-5000054D01*
X7804526Y-5000070D01*
X7807473Y-5000089D01*
X7810427Y-5000111D01*
X7813391Y-5000136D01*
X7816362Y-5000165D01*
X7819342Y-5000198D01*
X7822330Y-5000235D01*
X7825327Y-5000277D01*
X7828331Y-5000323D01*
X7831343Y-5000374D01*
X7834362Y-5000430D01*
X7837389Y-5000491D01*
X7840424Y-5000558D01*
X7843465Y-5000631D01*
X7846514Y-5000709D01*
X7849570Y-5000794D01*
X7852633Y-5000886D01*
X7855703Y-5000984D01*
X7858779Y-5001090D01*
X7861862Y-5001202D01*
X7864951Y-5001322D01*
X7868046Y-5001450D01*
X7871148Y-5001586D01*
X7872701Y-5001657D01*
X7874255Y-5001730D01*
X7875811Y-5001805D01*
X7877369Y-5001883D01*
X7878928Y-5001962D01*
X7880488Y-5002044D01*
X7882050Y-5002128D01*
X7883613Y-5002214D01*
X7885177Y-5002303D01*
X7886743Y-5002394D01*
X7888310Y-5002487D01*
X7889879Y-5002583D01*
X7891449Y-5002681D01*
X7893020Y-5002781D01*
X7894593Y-5002884D01*
X7896166Y-5002990D01*
X7897741Y-5003098D01*
X7899317Y-5003209D01*
X7900895Y-5003322D01*
X7902473Y-5003438D01*
X7904053Y-5003556D01*
X7905634Y-5003677D01*
X7907216Y-5003801D01*
X7908800Y-5003928D01*
X7910384Y-5004058D01*
X7911970Y-5004190D01*
X7913556Y-5004325D01*
X7915144Y-5004463D01*
X7916733Y-5004604D01*
X7918323Y-5004748D01*
X7919914Y-5004895D01*
X7921505Y-5005044D01*
X7923098Y-5005197D01*
X7924692Y-5005353D01*
X7926287Y-5005512D01*
X7927883Y-5005674D01*
X7929479Y-5005840D01*
X7931077Y-5006008D01*
X7932676Y-5006180D01*
X7934275Y-5006354D01*
X7935875Y-5006533D01*
X7937476Y-5006714D01*
X7939078Y-5006899D01*
X7940681Y-5007087D01*
X7942285Y-5007279D01*
X7943889Y-5007473D01*
X7945495Y-5007672D01*
X7947101Y-5007874D01*
X7948707Y-5008079D01*
X7950315Y-5008288D01*
X7951923Y-5008501D01*
X7953532Y-5008717D01*
X7955141Y-5008936D01*
X7956752Y-5009160D01*
X7958363Y-5009387D01*
X7959974Y-5009618D01*
X7961586Y-5009852D01*
X7963199Y-5010091D01*
X7964812Y-5010333D01*
X7966426Y-5010579D01*
X7968041Y-5010829D01*
X7969656Y-5011083D01*
X7971271Y-5011340D01*
X7972887Y-5011602D01*
X7974504Y-5011868D01*
X7976121Y-5012137D01*
X7977738Y-5012411D01*
X7979356Y-5012689D01*
X7980975Y-5012971D01*
X7982594Y-5013257D01*
X7984213Y-5013547D01*
X7985832Y-5013842D01*
X7987452Y-5014141D01*
X7989073Y-5014444D01*
X7990693Y-5014751D01*
X7992314Y-5015062D01*
X7993936Y-5015378D01*
X7995557Y-5015699D01*
X7997179Y-5016024D01*
X7998801Y-5016353D01*
X8000424Y-5016687D01*
X8002046Y-5017025D01*
X8003669Y-5017368D01*
X8005292Y-5017715D01*
X8006915Y-5018067D01*
X8008538Y-5018423D01*
X8010162Y-5018785D01*
X8011786Y-5019151D01*
X8013409Y-5019521D01*
X8015033Y-5019897D01*
X8016657Y-5020277D01*
X8018281Y-5020662D01*
X8019905Y-5021052D01*
X8021529Y-5021446D01*
X8023153Y-5021846D01*
X8024778Y-5022250D01*
X8026402Y-5022660D01*
X8028026Y-5023074D01*
X8029650Y-5023494D01*
X8031274Y-5023919D01*
X8032898Y-5024348D01*
X8034522Y-5024783D01*
X8036145Y-5025223D01*
X8037769Y-5025668D01*
X8039392Y-5026118D01*
X8041016Y-5026574D01*
X8042639Y-5027035D01*
X8044262Y-5027501D01*
X8045885Y-5027972D01*
X8047507Y-5028449D01*
X8049130Y-5028931D01*
X8050752Y-5029419D01*
X8052374Y-5029912D01*
X8053995Y-5030410D01*
X8055617Y-5030914D01*
X8057238Y-5031424D01*
X8058858Y-5031939D01*
X8060479Y-5032460D01*
X8062099Y-5032986D01*
X8063718Y-5033518D01*
X8065337Y-5034056D01*
X8066956Y-5034599D01*
X8068575Y-5035148D01*
X8070193Y-5035703D01*
X8071810Y-5036264D01*
X8073427Y-5036831D01*
X8075044Y-5037403D01*
X8076660Y-5037982D01*
X8078275Y-5038566D01*
X8079890Y-5039156D01*
X8081505Y-5039753D01*
X8083119Y-5040355D01*
X8084732Y-5040963D01*
X8086345Y-5041578D01*
X8087957Y-5042198D01*
X8089569Y-5042825D01*
X8091179Y-5043458D01*
X8092790Y-5044097D01*
X8094399Y-5044742D01*
X8096008Y-5045394D01*
X8097616Y-5046052D01*
X8099224Y-5046716D01*
X8100831Y-5047386D01*
X8102437Y-5048063D01*
X8104042Y-5048747D01*
X8105646Y-5049437D01*
X8107250Y-5050133D01*
X8108853Y-5050836D01*
X8110455Y-5051545D01*
X8112056Y-5052261D01*
X8113656Y-5052983D01*
X8115256Y-5053712D01*
X8116854Y-5054448D01*
X8118452Y-5055191D01*
X8120049Y-5055940D01*
X8121644Y-5056696D01*
X8123239Y-5057458D01*
X8124833Y-5058228D01*
X8126426Y-5059004D01*
X8128018Y-5059788D01*
X8129609Y-5060578D01*
X8131198Y-5061375D01*
X8132787Y-5062179D01*
X8134375Y-5062990D01*
X8135962Y-5063808D01*
X8137547Y-5064633D01*
X8139132Y-5065465D01*
X8140715Y-5066304D01*
X8142297Y-5067151D01*
X8143878Y-5068004D01*
X8145458Y-5068865D01*
X8147037Y-5069733D01*
X8148614Y-5070609D01*
X8150190Y-5071491D01*
X8151765Y-5072381D01*
X8153339Y-5073278D01*
X8154911Y-5074183D01*
X8156483Y-5075095D01*
X8158052Y-5076015D01*
X8159621Y-5076942D01*
X8161188Y-5077876D01*
X8162754Y-5078818D01*
X8164319Y-5079768D01*
X8165882Y-5080725D01*
X8167444Y-5081690D01*
X8169004Y-5082662D01*
X8170563Y-5083642D01*
X8172120Y-5084630D01*
X5880105Y-6000000D02*
X7769895Y-6000000D01*
X7769895Y-6000000D02*
X7775570Y-6000000D01*
X7781285Y-5999997D01*
X7787039Y-5999991D01*
X7792831Y-5999979D01*
X7795741Y-5999971D01*
X7798661Y-5999960D01*
X7801589Y-5999946D01*
X7804526Y-5999930D01*
X7807473Y-5999911D01*
X7810427Y-5999889D01*
X7813391Y-5999864D01*
X7816362Y-5999835D01*
X7819342Y-5999802D01*
X7822330Y-5999765D01*
X7825327Y-5999723D01*
X7828331Y-5999677D01*
X7831343Y-5999626D01*
X7834362Y-5999570D01*
X7837389Y-5999509D01*
X7840424Y-5999442D01*
X7843465Y-5999369D01*
X7846514Y-5999291D01*
X7849570Y-5999206D01*
X7852633Y-5999114D01*
X7855703Y-5999016D01*
X7858779Y-5998910D01*
X7861862Y-5998798D01*
X7864951Y-5998678D01*
X7868046Y-5998550D01*
X7871148Y-5998414D01*
X7872701Y-5998343D01*
X7874255Y-5998270D01*
X7875811Y-5998195D01*
X7877369Y-5998117D01*
X7878928Y-5998038D01*
X7880488Y-5997956D01*
X7882050Y-5997872D01*
X7883613Y-5997786D01*
X7885177Y-5997697D01*
X7886743Y-5997606D01*
X7888310Y-5997513D01*
X7889879Y-5997417D01*
X7891449Y-5997319D01*
X7893020Y-5997219D01*
X7894593Y-5997116D01*
X7896166Y-5997010D01*
X7897741Y-5996902D01*
X7899317Y-5996791D01*
X7900895Y-5996678D01*
X7902473Y-5996562D01*
X7904053Y-5996444D01*
X7905634Y-5996323D01*
X7907216Y-5996199D01*
X7908800Y-5996072D01*
X7910384Y-5995942D01*
X7911970Y-5995810D01*
X7913556Y-5995675D01*
X7915144Y-5995537D01*
X7916733Y-5995396D01*
X7918323Y-5995252D01*
X7919914Y-5995105D01*
X7921505Y-5994956D01*
X7923098Y-5994803D01*
X7924692Y-5994647D01*
X7926287Y-5994488D01*
X7927883Y-5994326D01*
X7929479Y-5994160D01*
X7931077Y-5993992D01*
X7932676Y-5993820D01*
X7934275Y-5993646D01*
X7935875Y-5993467D01*
X7937476Y-5993286D01*
X7939078Y-5993101D01*
X7940681Y-5992913D01*
X7942285Y-5992721D01*
X7943889Y-5992527D01*
X7945495Y-5992328D01*
X7947101Y-5992126D01*
X7948707Y-5991921D01*
X7950315Y-5991712D01*
X7951923Y-5991499D01*
X7953532Y-5991283D01*
X7955141Y-5991064D01*
X7956752Y-5990840D01*
X7958363Y-5990613D01*
X7959974Y-5990382D01*
X7961586Y-5990148D01*
X7963199Y-5989909D01*
X7964812Y-5989667D01*
X7966426Y-5989421D01*
X7968041Y-5989171D01*
X7969656Y-5988917D01*
X7971271Y-5988660D01*
X7972887Y-5988398D01*
X7974504Y-5988132D01*
X7976121Y-5987863D01*
X7977738Y-5987589D01*
X7979356Y-5987311D01*
X7980975Y-5987029D01*
X7982594Y-5986743D01*
X7984213Y-5986453D01*
X7985832Y-5986158D01*
X7987452Y-5985859D01*
X7989073Y-5985556D01*
X7990693Y-5985249D01*
X7992314Y-5984938D01*
X7993936Y-5984622D01*
X7995557Y-5984301D01*
X7997179Y-5983976D01*
X7998801Y-5983647D01*
X8000424Y-5983313D01*
X8002046Y-5982975D01*
X8003669Y-5982632D01*
X8005292Y-5982285D01*
X8006915Y-5981933D01*
X8008538Y-5981577D01*
X8010162Y-5981215D01*
X8011786Y-5980849D01*
X8013409Y-5980479D01*
X8015033Y-5980103D01*
X8016657Y-5979723D01*
X8018281Y-5979338D01*
X8019905Y-5978948D01*
X8021529Y-5978554D01*
X8023153Y-5978154D01*
X8024778Y-5977750D01*
X8026402Y-5977340D01*
X8028026Y-5976926D01*
X8029650Y-5976506D01*
X8031274Y-5976081D01*
X8032898Y-5975652D01*
X8034522Y-5975217D01*
X8036145Y-5974777D01*
X8037769Y-5974332D01*
X8039392Y-5973882D01*
X8041016Y-5973426D01*
X8042639Y-5972965D01*
X8044262Y-5972499D01*
X8045885Y-5972028D01*
X8047507Y-5971551D01*
X8049130Y-5971069D01*
X8050752Y-5970581D01*
X8052374Y-5970088D01*
X8053995Y-5969590D01*
X8055617Y-5969086D01*
X8057238Y-5968576D01*
X8058858Y-5968061D01*
X8060479Y-5967540D01*
X8062099Y-5967014D01*
X8063718Y-5966482D01*
X8065337Y-5965944D01*
X8066956Y-5965401D01*
X8068575Y-5964852D01*
X8070193Y-5964297D01*
X8071810Y-5963736D01*
X8073427Y-5963169D01*
X8075044Y-5962597D01*
X8076660Y-5962018D01*
X8078275Y-5961434D01*
X8079890Y-5960844D01*
X8081505Y-5960247D01*
X8083119Y-5959645D01*
X8084732Y-5959037D01*
X8086345Y-5958422D01*
X8087957Y-5957802D01*
X8089569Y-5957175D01*
X8091179Y-5956542D01*
X8092790Y-5955903D01*
X8094399Y-5955258D01*
X8096008Y-5954606D01*
X8097616Y-5953948D01*
X8099224Y-5953284D01*
X8100831Y-5952614D01*
X8102437Y-5951937D01*
X8104042Y-5951253D01*
X8105646Y-5950563D01*
X8107250Y-5949867D01*
X8108853Y-5949164D01*
X8110455Y-5948455D01*
X8112056Y-5947739D01*
X8113656Y-5947017D01*
X8115256Y-5946288D01*
X8116854Y-5945552D01*
X8118452Y-5944809D01*
X8120049Y-5944060D01*
X8121644Y-5943304D01*
X8123239Y-5942542D01*
X8124833Y-5941772D01*
X8126426Y-5940996D01*
X8128018Y-5940212D01*
X8129609Y-5939422D01*
X8131198Y-5938625D01*
X8132787Y-5937821D01*
X8134375Y-5937010D01*
X8135962Y-5936192D01*
X8137547Y-5935367D01*
X8139132Y-5934535D01*
X8140715Y-5933696D01*
X8142297Y-5932849D01*
X8143878Y-5931996D01*
X8145458Y-5931135D01*
X8147037Y-5930267D01*
X8148614Y-5929391D01*
X8150190Y-5928509D01*
X8151765Y-5927619D01*
X8153339Y-5926722D01*
X8154911Y-5925817D01*
X8156483Y-5924905D01*
X8158052Y-5923985D01*
X8159621Y-5923058D01*
X8161188Y-5922124D01*
X8162754Y-5921182D01*
X8164319Y-5920232D01*
X8165882Y-5919275D01*
X8167444Y-5918310D01*
X8169004Y-5917338D01*
X8170563Y-5916358D01*
X8172120Y-5915370D01*
X5880105Y-5000000D02*
X5874430Y-5000000D01*
X5868715Y-5000003D01*
X5862961Y-5000009D01*
X5857169Y-5000021D01*
X5854258Y-5000029D01*
X5851339Y-5000040D01*
X5848411Y-5000054D01*
X5845473Y-5000070D01*
X5842527Y-5000089D01*
X5839573Y-5000111D01*
X5836609Y-5000136D01*
X5833638Y-5000165D01*
X5830658Y-5000198D01*
X5827669Y-5000235D01*
X5824673Y-5000277D01*
X5821669Y-5000323D01*
X5818657Y-5000374D01*
X5815638Y-5000430D01*
X5812611Y-5000491D01*
X5809576Y-5000558D01*
X5806535Y-5000631D01*
X5803486Y-5000709D01*
X5800430Y-5000794D01*
X5797367Y-5000886D01*
X5794297Y-5000984D01*
X5791221Y-5001090D01*
X5788138Y-5001202D01*
X5785049Y-5001322D01*
X5781954Y-5001450D01*
X5778852Y-5001586D01*
X5777299Y-5001657D01*
X5775745Y-5001730D01*
X5774189Y-5001805D01*
X5772631Y-5001883D01*
X5771072Y-5001962D01*
X5769512Y-5002044D01*
X5767950Y-5002128D01*
X5766387Y-5002214D01*
X5764823Y-5002303D01*
X5763257Y-5002394D01*
X5761689Y-5002487D01*
X5760121Y-5002583D01*
X5758551Y-5002681D01*
X5756980Y-5002781D01*
X5755407Y-5002884D01*
X5753834Y-5002990D01*
X5752259Y-5003098D01*
X5750682Y-5003209D01*
X5749105Y-5003322D01*
X5747526Y-5003438D01*
X5745947Y-5003556D01*
X5744366Y-5003677D01*
X5742783Y-5003801D01*
X5741200Y-5003928D01*
X5739616Y-5004058D01*
X5738030Y-5004190D01*
X5736444Y-5004325D01*
X5734856Y-5004463D01*
X5733267Y-5004604D01*
X5731677Y-5004748D01*
X5730086Y-5004895D01*
X5728495Y-5005044D01*
X5726902Y-5005197D01*
X5725308Y-5005353D01*
X5723713Y-5005512D01*
X5722117Y-5005674D01*
X5720520Y-5005840D01*
X5718923Y-5006008D01*
X5717324Y-5006180D01*
X5715725Y-5006354D01*
X5714125Y-5006533D01*
X5712523Y-5006714D01*
X5710921Y-5006899D01*
X5709319Y-5007087D01*
X5707715Y-5007279D01*
X5706111Y-5007473D01*
X5704505Y-5007672D01*
X5702899Y-5007874D01*
X5701293Y-5008079D01*
X5699685Y-5008288D01*
X5698077Y-5008501D01*
X5696468Y-5008717D01*
X5694858Y-5008936D01*
X5693248Y-5009160D01*
X5691637Y-5009387D01*
X5690026Y-5009618D01*
X5688414Y-5009852D01*
X5686801Y-5010091D01*
X5685188Y-5010333D01*
X5683574Y-5010579D01*
X5681959Y-5010829D01*
X5680344Y-5011083D01*
X5678729Y-5011340D01*
X5677113Y-5011602D01*
X5675496Y-5011868D01*
X5673879Y-5012137D01*
X5672261Y-5012411D01*
X5670643Y-5012689D01*
X5669025Y-5012971D01*
X5667406Y-5013257D01*
X5665787Y-5013547D01*
X5664167Y-5013842D01*
X5662548Y-5014141D01*
X5660927Y-5014444D01*
X5659307Y-5014751D01*
X5657686Y-5015062D01*
X5656064Y-5015378D01*
X5654443Y-5015699D01*
X5652821Y-5016024D01*
X5651199Y-5016353D01*
X5649576Y-5016687D01*
X5647954Y-5017025D01*
X5646331Y-5017368D01*
X5644708Y-5017715D01*
X5643085Y-5018067D01*
X5641461Y-5018423D01*
X5639838Y-5018785D01*
X5638214Y-5019151D01*
X5636591Y-5019521D01*
X5634967Y-5019897D01*
X5633343Y-5020277D01*
X5631719Y-5020662D01*
X5630095Y-5021052D01*
X5628471Y-5021446D01*
X5626847Y-5021846D01*
X5625222Y-5022250D01*
X5623598Y-5022660D01*
X5621974Y-5023074D01*
X5620350Y-5023494D01*
X5618726Y-5023919D01*
X5617102Y-5024348D01*
X5615478Y-5024783D01*
X5613855Y-5025223D01*
X5612231Y-5025668D01*
X5610607Y-5026118D01*
X5608984Y-5026574D01*
X5607361Y-5027035D01*
X5605738Y-5027501D01*
X5604115Y-5027972D01*
X5602493Y-5028449D01*
X5600870Y-5028931D01*
X5599248Y-5029419D01*
X5597626Y-5029912D01*
X5596005Y-5030410D01*
X5594383Y-5030914D01*
X5592762Y-5031424D01*
X5591142Y-5031939D01*
X5589521Y-5032460D01*
X5587901Y-5032986D01*
X5586282Y-5033518D01*
X5584663Y-5034056D01*
X5583044Y-5034599D01*
X5581425Y-5035148D01*
X5579807Y-5035703D01*
X5578190Y-5036264D01*
X5576573Y-5036831D01*
X5574956Y-5037403D01*
X5573340Y-5037982D01*
X5571725Y-5038566D01*
X5570110Y-5039156D01*
X5568495Y-5039753D01*
X5566881Y-5040355D01*
X5565268Y-5040963D01*
X5563655Y-5041578D01*
X5562043Y-5042198D01*
X5560431Y-5042825D01*
X5558821Y-5043458D01*
X5557210Y-5044097D01*
X5555601Y-5044742D01*
X5553992Y-5045394D01*
X5552384Y-5046052D01*
X5550776Y-5046716D01*
X5549169Y-5047386D01*
X5547563Y-5048063D01*
X5545958Y-5048747D01*
X5544354Y-5049437D01*
X5542750Y-5050133D01*
X5541147Y-5050836D01*
X5539545Y-5051545D01*
X5537944Y-5052261D01*
X5536344Y-5052983D01*
X5534744Y-5053712D01*
X5533146Y-5054448D01*
X5531548Y-5055191D01*
X5529951Y-5055940D01*
X5528356Y-5056696D01*
X5526761Y-5057458D01*
X5525167Y-5058228D01*
X5523574Y-5059004D01*
X5521982Y-5059788D01*
X5520391Y-5060578D01*
X5518802Y-5061375D01*
X5517213Y-5062179D01*
X5515625Y-5062990D01*
X5514038Y-5063808D01*
X5512453Y-5064633D01*
X5510868Y-5065465D01*
X5509285Y-5066304D01*
X5507703Y-5067151D01*
X5506122Y-5068004D01*
X5504542Y-5068865D01*
X5502963Y-5069733D01*
X5501386Y-5070609D01*
X5499810Y-5071491D01*
X5498235Y-5072381D01*
X5496661Y-5073278D01*
X5495089Y-5074183D01*
X5493517Y-5075095D01*
X5491948Y-5076015D01*
X5490379Y-5076942D01*
X5488812Y-5077876D01*
X5487246Y-5078818D01*
X5485681Y-5079768D01*
X5484118Y-5080725D01*
X5482556Y-5081690D01*
X5480996Y-5082662D01*
X5479437Y-5083642D01*
X5477880Y-5084630D01*
X5477880Y-5915370D02*
G75*
G02*
X5477880Y-5084630I264620J415370D01*
G01*
D11*
D12*
X5525000Y-5145000D02*
X5555000Y-5175000D01*
X5555000Y-5145000D02*
X5525000Y-5175000D01*
X5525000Y-5825000D02*
X5555000Y-5855000D01*
X5555000Y-5825000D02*
X5525000Y-5855000D01*
X5825000Y-5245000D02*
X5855000Y-5275000D01*
X5855000Y-5245000D02*
X5825000Y-5275000D01*
X5905000Y-5165000D02*
X5935000Y-5195000D01*
X5935000Y-5165000D02*
X5905000Y-5195000D01*
X6115000Y-5335000D02*
X6145000Y-5365000D01*
X6145000Y-5335000D02*
X6115000Y-5365000D01*
X6295000Y-5345000D02*
X6325000Y-5375000D01*
X6325000Y-5345000D02*
X6295000Y-5375000D01*
X6365000Y-5505000D02*
X6395000Y-5535000D01*
X6395000Y-5505000D02*
X6365000Y-5535000D01*
X6545000Y-5705000D02*
X6575000Y-5735000D01*
X6575000Y-5705000D02*
X6545000Y-5735000D01*
X6645000Y-5175000D02*
X6675000Y-5205000D01*
X6675000Y-5175000D02*
X6645000Y-5205000D01*
X6645000Y-5355000D02*
X6675000Y-5385000D01*
X6675000Y-5355000D02*
X6645000Y-5385000D01*
X6785000Y-5765000D02*
X6815000Y-5795000D01*
X6815000Y-5765000D02*
X6785000Y-5795000D01*
X6975000Y-5715000D02*
X7005000Y-5745000D01*
X7005000Y-5715000D02*
X6975000Y-5745000D01*
X7175000Y-5725000D02*
X7205000Y-5755000D01*
X7205000Y-5725000D02*
X7175000Y-5755000D01*
X7495000Y-5725000D02*
X7525000Y-5755000D01*
X7525000Y-5725000D02*
X7495000Y-5755000D01*
X7695000Y-5725000D02*
X7725000Y-5755000D01*
X7725000Y-5725000D02*
X7695000Y-5755000D01*
X6435000Y-5400000D02*
G75*
G02*
X6385000Y-5400000I-25000J0D01*
G01*
X6385000Y-5400000D02*
G75*
G02*
X6435000Y-5400000I25000J0D01*
G01*
X7115000Y-5750000D02*
G75*
G02*
X7065000Y-5750000I-25000J0D01*
G01*
X7065000Y-5750000D02*
G75*
G02*
X7115000Y-5750000I25000J0D01*
G01*
X7635000Y-5750000D02*
G75*
G02*
X7585000Y-5750000I-25000J0D01*
G01*
X7585000Y-5750000D02*
G75*
G02*
X7635000Y-5750000I25000J0D01*
G01*
X6918000Y-5090000D02*
X6918000Y-5150000D01*
X6888000Y-5120000D02*
X6948000Y-5120000D01*
X6948000Y-5160000D02*
X6948000Y-5080000D01*
X6888000Y-5080000D02*
G75*
G02*
X6948000Y-5080000I30000J0D01*
G01*
X6888000Y-5080000D02*
X6888000Y-5160000D01*
X6888000Y-5160000D02*
G75*
G03*
X6948000Y-5160000I30000J0D01*
G01*
X6918000Y-5508000D02*
X6918000Y-5568000D01*
X6888000Y-5538000D02*
X6948000Y-5538000D01*
X6948000Y-5593000D02*
X6948000Y-5483000D01*
X6888000Y-5483000D02*
G75*
G02*
X6948000Y-5483000I30000J0D01*
G01*
X6888000Y-5483000D02*
X6888000Y-5593000D01*
X6888000Y-5593000D02*
G75*
G03*
X6948000Y-5593000I30000J0D01*
G01*
X7782000Y-5090000D02*
X7782000Y-5150000D01*
X7752000Y-5120000D02*
X7812000Y-5120000D01*
X7812000Y-5160000D02*
X7812000Y-5080000D01*
X7752000Y-5080000D02*
G75*
G02*
X7812000Y-5080000I30000J0D01*
G01*
X7752000Y-5080000D02*
X7752000Y-5160000D01*
X7752000Y-5160000D02*
G75*
G03*
X7812000Y-5160000I30000J0D01*
G01*
X7782000Y-5508000D02*
X7782000Y-5568000D01*
X7752000Y-5538000D02*
X7812000Y-5538000D01*
X7812000Y-5593000D02*
X7812000Y-5483000D01*
X7752000Y-5483000D02*
G75*
G02*
X7812000Y-5483000I30000J0D01*
G01*
X7752000Y-5483000D02*
X7752000Y-5593000D01*
X7752000Y-5593000D02*
G75*
G03*
X7812000Y-5593000I30000J0D01*
G01*
D11*
X5508277Y-6313984D02*
X5508277Y-6113984D01*
X5508277Y-6113984D02*
X5555896Y-6113984D01*
X5555896Y-6113984D02*
X5584468Y-6123508D01*
X5584468Y-6123508D02*
X5603515Y-6142555D01*
X5603515Y-6142555D02*
X5613039Y-6161603D01*
X5613039Y-6161603D02*
X5622563Y-6199698D01*
X5622563Y-6199698D02*
X5622563Y-6228269D01*
X5622563Y-6228269D02*
X5613039Y-6266365D01*
X5613039Y-6266365D02*
X5603515Y-6285412D01*
X5603515Y-6285412D02*
X5584468Y-6304460D01*
X5584468Y-6304460D02*
X5555896Y-6313984D01*
X5555896Y-6313984D02*
X5508277Y-6313984D01*
X5708277Y-6313984D02*
X5708277Y-6180650D01*
X5708277Y-6218746D02*
X5717801Y-6199698D01*
X5717801Y-6199698D02*
X5727325Y-6190174D01*
X5727325Y-6190174D02*
X5746372Y-6180650D01*
X5746372Y-6180650D02*
X5765420Y-6180650D01*
X5832087Y-6313984D02*
X5832087Y-6180650D01*
X5832087Y-6113984D02*
X5822563Y-6123508D01*
X5822563Y-6123508D02*
X5832087Y-6133031D01*
X5832087Y-6133031D02*
X5841610Y-6123508D01*
X5841610Y-6123508D02*
X5832087Y-6113984D01*
X5832087Y-6113984D02*
X5832087Y-6133031D01*
X5955896Y-6313984D02*
X5936848Y-6304460D01*
X5936848Y-6304460D02*
X5927325Y-6285412D01*
X5927325Y-6285412D02*
X5927325Y-6113984D01*
X6060658Y-6313984D02*
X6041610Y-6304460D01*
X6041610Y-6304460D02*
X6032087Y-6285412D01*
X6032087Y-6285412D02*
X6032087Y-6113984D01*
X6289229Y-6313984D02*
X6289229Y-6113984D01*
X6289229Y-6113984D02*
X6355896Y-6256841D01*
X6355896Y-6256841D02*
X6422563Y-6113984D01*
X6422563Y-6113984D02*
X6422563Y-6313984D01*
X6603515Y-6313984D02*
X6603515Y-6209222D01*
X6603515Y-6209222D02*
X6593991Y-6190174D01*
X6593991Y-6190174D02*
X6574944Y-6180650D01*
X6574944Y-6180650D02*
X6536848Y-6180650D01*
X6536848Y-6180650D02*
X6517801Y-6190174D01*
X6603515Y-6304460D02*
X6584468Y-6313984D01*
X6584468Y-6313984D02*
X6536848Y-6313984D01*
X6536848Y-6313984D02*
X6517801Y-6304460D01*
X6517801Y-6304460D02*
X6508277Y-6285412D01*
X6508277Y-6285412D02*
X6508277Y-6266365D01*
X6508277Y-6266365D02*
X6517801Y-6247317D01*
X6517801Y-6247317D02*
X6536848Y-6237793D01*
X6536848Y-6237793D02*
X6584468Y-6237793D01*
X6584468Y-6237793D02*
X6603515Y-6228269D01*
X6698753Y-6180650D02*
X6698753Y-6380650D01*
X6698753Y-6190174D02*
X6717801Y-6180650D01*
X6717801Y-6180650D02*
X6755896Y-6180650D01*
X6755896Y-6180650D02*
X6774944Y-6190174D01*
X6774944Y-6190174D02*
X6784468Y-6199698D01*
X6784468Y-6199698D02*
X6793991Y-6218746D01*
X6793991Y-6218746D02*
X6793991Y-6275888D01*
X6793991Y-6275888D02*
X6784468Y-6294936D01*
X6784468Y-6294936D02*
X6774944Y-6304460D01*
X6774944Y-6304460D02*
X6755896Y-6313984D01*
X6755896Y-6313984D02*
X6717801Y-6313984D01*
X6717801Y-6313984D02*
X6698753Y-6304460D01*
X6879706Y-6294936D02*
X6889229Y-6304460D01*
X6889229Y-6304460D02*
X6879706Y-6313984D01*
X6879706Y-6313984D02*
X6870182Y-6304460D01*
X6870182Y-6304460D02*
X6879706Y-6294936D01*
X6879706Y-6294936D02*
X6879706Y-6313984D01*
X6879706Y-6190174D02*
X6889229Y-6199698D01*
X6889229Y-6199698D02*
X6879706Y-6209222D01*
X6879706Y-6209222D02*
X6870182Y-6199698D01*
X6870182Y-6199698D02*
X6879706Y-6190174D01*
X6879706Y-6190174D02*
X6879706Y-6209222D01*
D12*
X5217500Y-6627500D02*
X5247500Y-6657500D01*
X5247500Y-6627500D02*
X5217500Y-6657500D01*
D11*
X5546372Y-6533984D02*
X5565420Y-6533984D01*
X5565420Y-6533984D02*
X5584468Y-6543508D01*
X5584468Y-6543508D02*
X5593991Y-6553031D01*
X5593991Y-6553031D02*
X5603515Y-6572079D01*
X5603515Y-6572079D02*
X5613039Y-6610174D01*
X5613039Y-6610174D02*
X5613039Y-6657793D01*
X5613039Y-6657793D02*
X5603515Y-6695888D01*
X5603515Y-6695888D02*
X5593991Y-6714936D01*
X5593991Y-6714936D02*
X5584468Y-6724460D01*
X5584468Y-6724460D02*
X5565420Y-6733984D01*
X5565420Y-6733984D02*
X5546372Y-6733984D01*
X5546372Y-6733984D02*
X5527325Y-6724460D01*
X5527325Y-6724460D02*
X5517801Y-6714936D01*
X5517801Y-6714936D02*
X5508277Y-6695888D01*
X5508277Y-6695888D02*
X5498753Y-6657793D01*
X5498753Y-6657793D02*
X5498753Y-6610174D01*
X5498753Y-6610174D02*
X5508277Y-6572079D01*
X5508277Y-6572079D02*
X5517801Y-6553031D01*
X5517801Y-6553031D02*
X5527325Y-6543508D01*
X5527325Y-6543508D02*
X5546372Y-6533984D01*
X5698753Y-6714936D02*
X5708277Y-6724460D01*
X5708277Y-6724460D02*
X5698753Y-6733984D01*
X5698753Y-6733984D02*
X5689229Y-6724460D01*
X5689229Y-6724460D02*
X5698753Y-6714936D01*
X5698753Y-6714936D02*
X5698753Y-6733984D01*
X5774944Y-6533984D02*
X5898753Y-6533984D01*
X5898753Y-6533984D02*
X5832087Y-6610174D01*
X5832087Y-6610174D02*
X5860658Y-6610174D01*
X5860658Y-6610174D02*
X5879706Y-6619698D01*
X5879706Y-6619698D02*
X5889229Y-6629222D01*
X5889229Y-6629222D02*
X5898753Y-6648269D01*
X5898753Y-6648269D02*
X5898753Y-6695888D01*
X5898753Y-6695888D02*
X5889229Y-6714936D01*
X5889229Y-6714936D02*
X5879706Y-6724460D01*
X5879706Y-6724460D02*
X5860658Y-6733984D01*
X5860658Y-6733984D02*
X5803515Y-6733984D01*
X5803515Y-6733984D02*
X5784468Y-6724460D01*
X5784468Y-6724460D02*
X5774944Y-6714936D01*
X6022563Y-6533984D02*
X6041610Y-6533984D01*
X6041610Y-6533984D02*
X6060658Y-6543508D01*
X6060658Y-6543508D02*
X6070182Y-6553031D01*
X6070182Y-6553031D02*
X6079706Y-6572079D01*
X6079706Y-6572079D02*
X6089229Y-6610174D01*
X6089229Y-6610174D02*
X6089229Y-6657793D01*
X6089229Y-6657793D02*
X6079706Y-6695888D01*
X6079706Y-6695888D02*
X6070182Y-6714936D01*
X6070182Y-6714936D02*
X6060658Y-6724460D01*
X6060658Y-6724460D02*
X6041610Y-6733984D01*
X6041610Y-6733984D02*
X6022563Y-6733984D01*
X6022563Y-6733984D02*
X6003515Y-6724460D01*
X6003515Y-6724460D02*
X5993991Y-6714936D01*
X5993991Y-6714936D02*
X5984468Y-6695888D01*
X5984468Y-6695888D02*
X5974944Y-6657793D01*
X5974944Y-6657793D02*
X5974944Y-6610174D01*
X5974944Y-6610174D02*
X5984468Y-6572079D01*
X5984468Y-6572079D02*
X5993991Y-6553031D01*
X5993991Y-6553031D02*
X6003515Y-6543508D01*
X6003515Y-6543508D02*
X6022563Y-6533984D01*
X6213039Y-6533984D02*
X6232087Y-6533984D01*
X6232087Y-6533984D02*
X6251134Y-6543508D01*
X6251134Y-6543508D02*
X6260658Y-6553031D01*
X6260658Y-6553031D02*
X6270182Y-6572079D01*
X6270182Y-6572079D02*
X6279706Y-6610174D01*
X6279706Y-6610174D02*
X6279706Y-6657793D01*
X6279706Y-6657793D02*
X6270182Y-6695888D01*
X6270182Y-6695888D02*
X6260658Y-6714936D01*
X6260658Y-6714936D02*
X6251134Y-6724460D01*
X6251134Y-6724460D02*
X6232087Y-6733984D01*
X6232087Y-6733984D02*
X6213039Y-6733984D01*
X6213039Y-6733984D02*
X6193991Y-6724460D01*
X6193991Y-6724460D02*
X6184468Y-6714936D01*
X6184468Y-6714936D02*
X6174944Y-6695888D01*
X6174944Y-6695888D02*
X6165420Y-6657793D01*
X6165420Y-6657793D02*
X6165420Y-6610174D01*
X6165420Y-6610174D02*
X6174944Y-6572079D01*
X6174944Y-6572079D02*
X6184468Y-6553031D01*
X6184468Y-6553031D02*
X6193991Y-6543508D01*
X6193991Y-6543508D02*
X6213039Y-6533984D01*
X6365420Y-6733984D02*
X6365420Y-6600650D01*
X6365420Y-6619698D02*
X6374944Y-6610174D01*
X6374944Y-6610174D02*
X6393991Y-6600650D01*
X6393991Y-6600650D02*
X6422563Y-6600650D01*
X6422563Y-6600650D02*
X6441610Y-6610174D01*
X6441610Y-6610174D02*
X6451134Y-6629222D01*
X6451134Y-6629222D02*
X6451134Y-6733984D01*
X6451134Y-6629222D02*
X6460658Y-6610174D01*
X6460658Y-6610174D02*
X6479706Y-6600650D01*
X6479706Y-6600650D02*
X6508277Y-6600650D01*
X6508277Y-6600650D02*
X6527325Y-6610174D01*
X6527325Y-6610174D02*
X6536849Y-6629222D01*
X6536849Y-6629222D02*
X6536849Y-6733984D01*
X6632087Y-6733984D02*
X6632087Y-6600650D01*
X6632087Y-6619698D02*
X6641610Y-6610174D01*
X6641610Y-6610174D02*
X6660658Y-6600650D01*
X6660658Y-6600650D02*
X6689230Y-6600650D01*
X6689230Y-6600650D02*
X6708277Y-6610174D01*
X6708277Y-6610174D02*
X6717801Y-6629222D01*
X6717801Y-6629222D02*
X6717801Y-6733984D01*
X6717801Y-6629222D02*
X6727325Y-6610174D01*
X6727325Y-6610174D02*
X6746372Y-6600650D01*
X6746372Y-6600650D02*
X6774944Y-6600650D01*
X6774944Y-6600650D02*
X6793991Y-6610174D01*
X6793991Y-6610174D02*
X6803515Y-6629222D01*
X6803515Y-6629222D02*
X6803515Y-6733984D01*
X7193991Y-6524460D02*
X7022563Y-6781603D01*
X7451134Y-6533984D02*
X7470182Y-6533984D01*
X7470182Y-6533984D02*
X7489230Y-6543508D01*
X7489230Y-6543508D02*
X7498753Y-6553031D01*
X7498753Y-6553031D02*
X7508277Y-6572079D01*
X7508277Y-6572079D02*
X7517801Y-6610174D01*
X7517801Y-6610174D02*
X7517801Y-6657793D01*
X7517801Y-6657793D02*
X7508277Y-6695888D01*
X7508277Y-6695888D02*
X7498753Y-6714936D01*
X7498753Y-6714936D02*
X7489230Y-6724460D01*
X7489230Y-6724460D02*
X7470182Y-6733984D01*
X7470182Y-6733984D02*
X7451134Y-6733984D01*
X7451134Y-6733984D02*
X7432087Y-6724460D01*
X7432087Y-6724460D02*
X7422563Y-6714936D01*
X7422563Y-6714936D02*
X7413039Y-6695888D01*
X7413039Y-6695888D02*
X7403515Y-6657793D01*
X7403515Y-6657793D02*
X7403515Y-6610174D01*
X7403515Y-6610174D02*
X7413039Y-6572079D01*
X7413039Y-6572079D02*
X7422563Y-6553031D01*
X7422563Y-6553031D02*
X7432087Y-6543508D01*
X7432087Y-6543508D02*
X7451134Y-6533984D01*
X7603515Y-6714936D02*
X7613039Y-6724460D01*
X7613039Y-6724460D02*
X7603515Y-6733984D01*
X7603515Y-6733984D02*
X7593992Y-6724460D01*
X7593992Y-6724460D02*
X7603515Y-6714936D01*
X7603515Y-6714936D02*
X7603515Y-6733984D01*
X7736849Y-6533984D02*
X7755896Y-6533984D01*
X7755896Y-6533984D02*
X7774944Y-6543508D01*
X7774944Y-6543508D02*
X7784468Y-6553031D01*
X7784468Y-6553031D02*
X7793992Y-6572079D01*
X7793992Y-6572079D02*
X7803515Y-6610174D01*
X7803515Y-6610174D02*
X7803515Y-6657793D01*
X7803515Y-6657793D02*
X7793992Y-6695888D01*
X7793992Y-6695888D02*
X7784468Y-6714936D01*
X7784468Y-6714936D02*
X7774944Y-6724460D01*
X7774944Y-6724460D02*
X7755896Y-6733984D01*
X7755896Y-6733984D02*
X7736849Y-6733984D01*
X7736849Y-6733984D02*
X7717801Y-6724460D01*
X7717801Y-6724460D02*
X7708277Y-6714936D01*
X7708277Y-6714936D02*
X7698753Y-6695888D01*
X7698753Y-6695888D02*
X7689230Y-6657793D01*
X7689230Y-6657793D02*
X7689230Y-6610174D01*
X7689230Y-6610174D02*
X7698753Y-6572079D01*
X7698753Y-6572079D02*
X7708277Y-6553031D01*
X7708277Y-6553031D02*
X7717801Y-6543508D01*
X7717801Y-6543508D02*
X7736849Y-6533984D01*
X7993992Y-6733984D02*
X7879706Y-6733984D01*
X7936849Y-6733984D02*
X7936849Y-6533984D01*
X7936849Y-6533984D02*
X7917801Y-6562555D01*
X7917801Y-6562555D02*
X7898753Y-6581603D01*
X7898753Y-6581603D02*
X7879706Y-6591127D01*
X8184468Y-6733984D02*
X8070182Y-6733984D01*
X8127325Y-6733984D02*
X8127325Y-6533984D01*
X8127325Y-6533984D02*
X8108277Y-6562555D01*
X8108277Y-6562555D02*
X8089230Y-6581603D01*
X8089230Y-6581603D02*
X8070182Y-6591127D01*
X8298753Y-6619698D02*
X8279706Y-6610174D01*
X8279706Y-6610174D02*
X8270182Y-6600650D01*
X8270182Y-6600650D02*
X8260658Y-6581603D01*
X8260658Y-6581603D02*
X8260658Y-6572079D01*
X8260658Y-6572079D02*
X8270182Y-6553031D01*
X8270182Y-6553031D02*
X8279706Y-6543508D01*
X8279706Y-6543508D02*
X8298753Y-6533984D01*
X8298753Y-6533984D02*
X8336849Y-6533984D01*
X8336849Y-6533984D02*
X8355896Y-6543508D01*
X8355896Y-6543508D02*
X8365420Y-6553031D01*
X8365420Y-6553031D02*
X8374944Y-6572079D01*
X8374944Y-6572079D02*
X8374944Y-6581603D01*
X8374944Y-6581603D02*
X8365420Y-6600650D01*
X8365420Y-6600650D02*
X8355896Y-6610174D01*
X8355896Y-6610174D02*
X8336849Y-6619698D01*
X8336849Y-6619698D02*
X8298753Y-6619698D01*
X8298753Y-6619698D02*
X8279706Y-6629222D01*
X8279706Y-6629222D02*
X8270182Y-6638746D01*
X8270182Y-6638746D02*
X8260658Y-6657793D01*
X8260658Y-6657793D02*
X8260658Y-6695888D01*
X8260658Y-6695888D02*
X8270182Y-6714936D01*
X8270182Y-6714936D02*
X8279706Y-6724460D01*
X8279706Y-6724460D02*
X8298753Y-6733984D01*
X8298753Y-6733984D02*
X8336849Y-6733984D01*
X8336849Y-6733984D02*
X8355896Y-6724460D01*
X8355896Y-6724460D02*
X8365420Y-6714936D01*
X8365420Y-6714936D02*
X8374944Y-6695888D01*
X8374944Y-6695888D02*
X8374944Y-6657793D01*
X8374944Y-6657793D02*
X8365420Y-6638746D01*
X8365420Y-6638746D02*
X8355896Y-6629222D01*
X8355896Y-6629222D02*
X8336849Y-6619698D01*
X8451135Y-6533984D02*
X8451135Y-6572079D01*
X8527325Y-6533984D02*
X8527325Y-6572079D01*
X8822563Y-6810174D02*
X8813039Y-6800650D01*
X8813039Y-6800650D02*
X8793992Y-6772079D01*
X8793992Y-6772079D02*
X8784468Y-6753031D01*
X8784468Y-6753031D02*
X8774944Y-6724460D01*
X8774944Y-6724460D02*
X8765420Y-6676841D01*
X8765420Y-6676841D02*
X8765420Y-6638746D01*
X8765420Y-6638746D02*
X8774944Y-6591127D01*
X8774944Y-6591127D02*
X8784468Y-6562555D01*
X8784468Y-6562555D02*
X8793992Y-6543508D01*
X8793992Y-6543508D02*
X8813039Y-6514936D01*
X8813039Y-6514936D02*
X8822563Y-6505412D01*
X9003516Y-6733984D02*
X8889230Y-6733984D01*
X8946373Y-6733984D02*
X8946373Y-6533984D01*
X8946373Y-6533984D02*
X8927325Y-6562555D01*
X8927325Y-6562555D02*
X8908277Y-6581603D01*
X8908277Y-6581603D02*
X8889230Y-6591127D01*
X9184468Y-6533984D02*
X9089230Y-6533984D01*
X9089230Y-6533984D02*
X9079706Y-6629222D01*
X9079706Y-6629222D02*
X9089230Y-6619698D01*
X9089230Y-6619698D02*
X9108277Y-6610174D01*
X9108277Y-6610174D02*
X9155897Y-6610174D01*
X9155897Y-6610174D02*
X9174944Y-6619698D01*
X9174944Y-6619698D02*
X9184468Y-6629222D01*
X9184468Y-6629222D02*
X9193992Y-6648269D01*
X9193992Y-6648269D02*
X9193992Y-6695888D01*
X9193992Y-6695888D02*
X9184468Y-6714936D01*
X9184468Y-6714936D02*
X9174944Y-6724460D01*
X9174944Y-6724460D02*
X9155897Y-6733984D01*
X9155897Y-6733984D02*
X9108277Y-6733984D01*
X9108277Y-6733984D02*
X9089230Y-6724460D01*
X9089230Y-6724460D02*
X9079706Y-6714936D01*
X9432087Y-6733984D02*
X9432087Y-6533984D01*
X9517801Y-6733984D02*
X9517801Y-6629222D01*
X9517801Y-6629222D02*
X9508278Y-6610174D01*
X9508278Y-6610174D02*
X9489230Y-6600650D01*
X9489230Y-6600650D02*
X9460658Y-6600650D01*
X9460658Y-6600650D02*
X9441611Y-6610174D01*
X9441611Y-6610174D02*
X9432087Y-6619698D01*
X9641611Y-6733984D02*
X9622563Y-6724460D01*
X9622563Y-6724460D02*
X9613039Y-6714936D01*
X9613039Y-6714936D02*
X9603516Y-6695888D01*
X9603516Y-6695888D02*
X9603516Y-6638746D01*
X9603516Y-6638746D02*
X9613039Y-6619698D01*
X9613039Y-6619698D02*
X9622563Y-6610174D01*
X9622563Y-6610174D02*
X9641611Y-6600650D01*
X9641611Y-6600650D02*
X9670182Y-6600650D01*
X9670182Y-6600650D02*
X9689230Y-6610174D01*
X9689230Y-6610174D02*
X9698754Y-6619698D01*
X9698754Y-6619698D02*
X9708278Y-6638746D01*
X9708278Y-6638746D02*
X9708278Y-6695888D01*
X9708278Y-6695888D02*
X9698754Y-6714936D01*
X9698754Y-6714936D02*
X9689230Y-6724460D01*
X9689230Y-6724460D02*
X9670182Y-6733984D01*
X9670182Y-6733984D02*
X9641611Y-6733984D01*
X9822563Y-6733984D02*
X9803516Y-6724460D01*
X9803516Y-6724460D02*
X9793992Y-6705412D01*
X9793992Y-6705412D02*
X9793992Y-6533984D01*
X9974944Y-6724460D02*
X9955897Y-6733984D01*
X9955897Y-6733984D02*
X9917801Y-6733984D01*
X9917801Y-6733984D02*
X9898754Y-6724460D01*
X9898754Y-6724460D02*
X9889230Y-6705412D01*
X9889230Y-6705412D02*
X9889230Y-6629222D01*
X9889230Y-6629222D02*
X9898754Y-6610174D01*
X9898754Y-6610174D02*
X9917801Y-6600650D01*
X9917801Y-6600650D02*
X9955897Y-6600650D01*
X9955897Y-6600650D02*
X9974944Y-6610174D01*
X9974944Y-6610174D02*
X9984468Y-6629222D01*
X9984468Y-6629222D02*
X9984468Y-6648269D01*
X9984468Y-6648269D02*
X9889230Y-6667317D01*
X10060659Y-6724460D02*
X10079706Y-6733984D01*
X10079706Y-6733984D02*
X10117801Y-6733984D01*
X10117801Y-6733984D02*
X10136849Y-6724460D01*
X10136849Y-6724460D02*
X10146373Y-6705412D01*
X10146373Y-6705412D02*
X10146373Y-6695888D01*
X10146373Y-6695888D02*
X10136849Y-6676841D01*
X10136849Y-6676841D02*
X10117801Y-6667317D01*
X10117801Y-6667317D02*
X10089230Y-6667317D01*
X10089230Y-6667317D02*
X10070182Y-6657793D01*
X10070182Y-6657793D02*
X10060659Y-6638746D01*
X10060659Y-6638746D02*
X10060659Y-6629222D01*
X10060659Y-6629222D02*
X10070182Y-6610174D01*
X10070182Y-6610174D02*
X10089230Y-6600650D01*
X10089230Y-6600650D02*
X10117801Y-6600650D01*
X10117801Y-6600650D02*
X10136849Y-6610174D01*
X10213040Y-6810174D02*
X10222563Y-6800650D01*
X10222563Y-6800650D02*
X10241611Y-6772079D01*
X10241611Y-6772079D02*
X10251135Y-6753031D01*
X10251135Y-6753031D02*
X10260659Y-6724460D01*
X10260659Y-6724460D02*
X10270182Y-6676841D01*
X10270182Y-6676841D02*
X10270182Y-6638746D01*
X10270182Y-6638746D02*
X10260659Y-6591127D01*
X10260659Y-6591127D02*
X10251135Y-6562555D01*
X10251135Y-6562555D02*
X10241611Y-6543508D01*
X10241611Y-6543508D02*
X10222563Y-6514936D01*
X10222563Y-6514936D02*
X10213040Y-6505412D01*
D12*
X5247500Y-6906500D02*
G75*
G02*
X5197500Y-6906500I-25000J0D01*
G01*
X5197500Y-6906500D02*
G75*
G02*
X5247500Y-6906500I25000J0D01*
G01*
D11*
X5546372Y-6797984D02*
X5565420Y-6797984D01*
X5565420Y-6797984D02*
X5584468Y-6807508D01*
X5584468Y-6807508D02*
X5593991Y-6817031D01*
X5593991Y-6817031D02*
X5603515Y-6836079D01*
X5603515Y-6836079D02*
X5613039Y-6874174D01*
X5613039Y-6874174D02*
X5613039Y-6921793D01*
X5613039Y-6921793D02*
X5603515Y-6959888D01*
X5603515Y-6959888D02*
X5593991Y-6978936D01*
X5593991Y-6978936D02*
X5584468Y-6988460D01*
X5584468Y-6988460D02*
X5565420Y-6997984D01*
X5565420Y-6997984D02*
X5546372Y-6997984D01*
X5546372Y-6997984D02*
X5527325Y-6988460D01*
X5527325Y-6988460D02*
X5517801Y-6978936D01*
X5517801Y-6978936D02*
X5508277Y-6959888D01*
X5508277Y-6959888D02*
X5498753Y-6921793D01*
X5498753Y-6921793D02*
X5498753Y-6874174D01*
X5498753Y-6874174D02*
X5508277Y-6836079D01*
X5508277Y-6836079D02*
X5517801Y-6817031D01*
X5517801Y-6817031D02*
X5527325Y-6807508D01*
X5527325Y-6807508D02*
X5546372Y-6797984D01*
X5698753Y-6978936D02*
X5708277Y-6988460D01*
X5708277Y-6988460D02*
X5698753Y-6997984D01*
X5698753Y-6997984D02*
X5689229Y-6988460D01*
X5689229Y-6988460D02*
X5698753Y-6978936D01*
X5698753Y-6978936D02*
X5698753Y-6997984D01*
X5889229Y-6797984D02*
X5793991Y-6797984D01*
X5793991Y-6797984D02*
X5784468Y-6893222D01*
X5784468Y-6893222D02*
X5793991Y-6883698D01*
X5793991Y-6883698D02*
X5813039Y-6874174D01*
X5813039Y-6874174D02*
X5860658Y-6874174D01*
X5860658Y-6874174D02*
X5879706Y-6883698D01*
X5879706Y-6883698D02*
X5889229Y-6893222D01*
X5889229Y-6893222D02*
X5898753Y-6912269D01*
X5898753Y-6912269D02*
X5898753Y-6959888D01*
X5898753Y-6959888D02*
X5889229Y-6978936D01*
X5889229Y-6978936D02*
X5879706Y-6988460D01*
X5879706Y-6988460D02*
X5860658Y-6997984D01*
X5860658Y-6997984D02*
X5813039Y-6997984D01*
X5813039Y-6997984D02*
X5793991Y-6988460D01*
X5793991Y-6988460D02*
X5784468Y-6978936D01*
X6022563Y-6797984D02*
X6041610Y-6797984D01*
X6041610Y-6797984D02*
X6060658Y-6807508D01*
X6060658Y-6807508D02*
X6070182Y-6817031D01*
X6070182Y-6817031D02*
X6079706Y-6836079D01*
X6079706Y-6836079D02*
X6089229Y-6874174D01*
X6089229Y-6874174D02*
X6089229Y-6921793D01*
X6089229Y-6921793D02*
X6079706Y-6959888D01*
X6079706Y-6959888D02*
X6070182Y-6978936D01*
X6070182Y-6978936D02*
X6060658Y-6988460D01*
X6060658Y-6988460D02*
X6041610Y-6997984D01*
X6041610Y-6997984D02*
X6022563Y-6997984D01*
X6022563Y-6997984D02*
X6003515Y-6988460D01*
X6003515Y-6988460D02*
X5993991Y-6978936D01*
X5993991Y-6978936D02*
X5984468Y-6959888D01*
X5984468Y-6959888D02*
X5974944Y-6921793D01*
X5974944Y-6921793D02*
X5974944Y-6874174D01*
X5974944Y-6874174D02*
X5984468Y-6836079D01*
X5984468Y-6836079D02*
X5993991Y-6817031D01*
X5993991Y-6817031D02*
X6003515Y-6807508D01*
X6003515Y-6807508D02*
X6022563Y-6797984D01*
X6213039Y-6797984D02*
X6232087Y-6797984D01*
X6232087Y-6797984D02*
X6251134Y-6807508D01*
X6251134Y-6807508D02*
X6260658Y-6817031D01*
X6260658Y-6817031D02*
X6270182Y-6836079D01*
X6270182Y-6836079D02*
X6279706Y-6874174D01*
X6279706Y-6874174D02*
X6279706Y-6921793D01*
X6279706Y-6921793D02*
X6270182Y-6959888D01*
X6270182Y-6959888D02*
X6260658Y-6978936D01*
X6260658Y-6978936D02*
X6251134Y-6988460D01*
X6251134Y-6988460D02*
X6232087Y-6997984D01*
X6232087Y-6997984D02*
X6213039Y-6997984D01*
X6213039Y-6997984D02*
X6193991Y-6988460D01*
X6193991Y-6988460D02*
X6184468Y-6978936D01*
X6184468Y-6978936D02*
X6174944Y-6959888D01*
X6174944Y-6959888D02*
X6165420Y-6921793D01*
X6165420Y-6921793D02*
X6165420Y-6874174D01*
X6165420Y-6874174D02*
X6174944Y-6836079D01*
X6174944Y-6836079D02*
X6184468Y-6817031D01*
X6184468Y-6817031D02*
X6193991Y-6807508D01*
X6193991Y-6807508D02*
X6213039Y-6797984D01*
X6365420Y-6997984D02*
X6365420Y-6864650D01*
X6365420Y-6883698D02*
X6374944Y-6874174D01*
X6374944Y-6874174D02*
X6393991Y-6864650D01*
X6393991Y-6864650D02*
X6422563Y-6864650D01*
X6422563Y-6864650D02*
X6441610Y-6874174D01*
X6441610Y-6874174D02*
X6451134Y-6893222D01*
X6451134Y-6893222D02*
X6451134Y-6997984D01*
X6451134Y-6893222D02*
X6460658Y-6874174D01*
X6460658Y-6874174D02*
X6479706Y-6864650D01*
X6479706Y-6864650D02*
X6508277Y-6864650D01*
X6508277Y-6864650D02*
X6527325Y-6874174D01*
X6527325Y-6874174D02*
X6536849Y-6893222D01*
X6536849Y-6893222D02*
X6536849Y-6997984D01*
X6632087Y-6997984D02*
X6632087Y-6864650D01*
X6632087Y-6883698D02*
X6641610Y-6874174D01*
X6641610Y-6874174D02*
X6660658Y-6864650D01*
X6660658Y-6864650D02*
X6689230Y-6864650D01*
X6689230Y-6864650D02*
X6708277Y-6874174D01*
X6708277Y-6874174D02*
X6717801Y-6893222D01*
X6717801Y-6893222D02*
X6717801Y-6997984D01*
X6717801Y-6893222D02*
X6727325Y-6874174D01*
X6727325Y-6874174D02*
X6746372Y-6864650D01*
X6746372Y-6864650D02*
X6774944Y-6864650D01*
X6774944Y-6864650D02*
X6793991Y-6874174D01*
X6793991Y-6874174D02*
X6803515Y-6893222D01*
X6803515Y-6893222D02*
X6803515Y-6997984D01*
X7193991Y-6788460D02*
X7022563Y-7045603D01*
X7451134Y-6797984D02*
X7470182Y-6797984D01*
X7470182Y-6797984D02*
X7489230Y-6807508D01*
X7489230Y-6807508D02*
X7498753Y-6817031D01*
X7498753Y-6817031D02*
X7508277Y-6836079D01*
X7508277Y-6836079D02*
X7517801Y-6874174D01*
X7517801Y-6874174D02*
X7517801Y-6921793D01*
X7517801Y-6921793D02*
X7508277Y-6959888D01*
X7508277Y-6959888D02*
X7498753Y-6978936D01*
X7498753Y-6978936D02*
X7489230Y-6988460D01*
X7489230Y-6988460D02*
X7470182Y-6997984D01*
X7470182Y-6997984D02*
X7451134Y-6997984D01*
X7451134Y-6997984D02*
X7432087Y-6988460D01*
X7432087Y-6988460D02*
X7422563Y-6978936D01*
X7422563Y-6978936D02*
X7413039Y-6959888D01*
X7413039Y-6959888D02*
X7403515Y-6921793D01*
X7403515Y-6921793D02*
X7403515Y-6874174D01*
X7403515Y-6874174D02*
X7413039Y-6836079D01*
X7413039Y-6836079D02*
X7422563Y-6817031D01*
X7422563Y-6817031D02*
X7432087Y-6807508D01*
X7432087Y-6807508D02*
X7451134Y-6797984D01*
X7603515Y-6978936D02*
X7613039Y-6988460D01*
X7613039Y-6988460D02*
X7603515Y-6997984D01*
X7603515Y-6997984D02*
X7593992Y-6988460D01*
X7593992Y-6988460D02*
X7603515Y-6978936D01*
X7603515Y-6978936D02*
X7603515Y-6997984D01*
X7736849Y-6797984D02*
X7755896Y-6797984D01*
X7755896Y-6797984D02*
X7774944Y-6807508D01*
X7774944Y-6807508D02*
X7784468Y-6817031D01*
X7784468Y-6817031D02*
X7793992Y-6836079D01*
X7793992Y-6836079D02*
X7803515Y-6874174D01*
X7803515Y-6874174D02*
X7803515Y-6921793D01*
X7803515Y-6921793D02*
X7793992Y-6959888D01*
X7793992Y-6959888D02*
X7784468Y-6978936D01*
X7784468Y-6978936D02*
X7774944Y-6988460D01*
X7774944Y-6988460D02*
X7755896Y-6997984D01*
X7755896Y-6997984D02*
X7736849Y-6997984D01*
X7736849Y-6997984D02*
X7717801Y-6988460D01*
X7717801Y-6988460D02*
X7708277Y-6978936D01*
X7708277Y-6978936D02*
X7698753Y-6959888D01*
X7698753Y-6959888D02*
X7689230Y-6921793D01*
X7689230Y-6921793D02*
X7689230Y-6874174D01*
X7689230Y-6874174D02*
X7698753Y-6836079D01*
X7698753Y-6836079D02*
X7708277Y-6817031D01*
X7708277Y-6817031D02*
X7717801Y-6807508D01*
X7717801Y-6807508D02*
X7736849Y-6797984D01*
X7993992Y-6997984D02*
X7879706Y-6997984D01*
X7936849Y-6997984D02*
X7936849Y-6797984D01*
X7936849Y-6797984D02*
X7917801Y-6826555D01*
X7917801Y-6826555D02*
X7898753Y-6845603D01*
X7898753Y-6845603D02*
X7879706Y-6855127D01*
X8089230Y-6997984D02*
X8127325Y-6997984D01*
X8127325Y-6997984D02*
X8146373Y-6988460D01*
X8146373Y-6988460D02*
X8155896Y-6978936D01*
X8155896Y-6978936D02*
X8174944Y-6950365D01*
X8174944Y-6950365D02*
X8184468Y-6912269D01*
X8184468Y-6912269D02*
X8184468Y-6836079D01*
X8184468Y-6836079D02*
X8174944Y-6817031D01*
X8174944Y-6817031D02*
X8165420Y-6807508D01*
X8165420Y-6807508D02*
X8146373Y-6797984D01*
X8146373Y-6797984D02*
X8108277Y-6797984D01*
X8108277Y-6797984D02*
X8089230Y-6807508D01*
X8089230Y-6807508D02*
X8079706Y-6817031D01*
X8079706Y-6817031D02*
X8070182Y-6836079D01*
X8070182Y-6836079D02*
X8070182Y-6883698D01*
X8070182Y-6883698D02*
X8079706Y-6902746D01*
X8079706Y-6902746D02*
X8089230Y-6912269D01*
X8089230Y-6912269D02*
X8108277Y-6921793D01*
X8108277Y-6921793D02*
X8146373Y-6921793D01*
X8146373Y-6921793D02*
X8165420Y-6912269D01*
X8165420Y-6912269D02*
X8174944Y-6902746D01*
X8174944Y-6902746D02*
X8184468Y-6883698D01*
X8251134Y-6797984D02*
X8384468Y-6797984D01*
X8384468Y-6797984D02*
X8298753Y-6997984D01*
X8451135Y-6797984D02*
X8451135Y-6836079D01*
X8527325Y-6797984D02*
X8527325Y-6836079D01*
X8822563Y-7074174D02*
X8813039Y-7064650D01*
X8813039Y-7064650D02*
X8793992Y-7036079D01*
X8793992Y-7036079D02*
X8784468Y-7017031D01*
X8784468Y-7017031D02*
X8774944Y-6988460D01*
X8774944Y-6988460D02*
X8765420Y-6940841D01*
X8765420Y-6940841D02*
X8765420Y-6902746D01*
X8765420Y-6902746D02*
X8774944Y-6855127D01*
X8774944Y-6855127D02*
X8784468Y-6826555D01*
X8784468Y-6826555D02*
X8793992Y-6807508D01*
X8793992Y-6807508D02*
X8813039Y-6778936D01*
X8813039Y-6778936D02*
X8822563Y-6769412D01*
X8879706Y-6797984D02*
X9003516Y-6797984D01*
X9003516Y-6797984D02*
X8936849Y-6874174D01*
X8936849Y-6874174D02*
X8965420Y-6874174D01*
X8965420Y-6874174D02*
X8984468Y-6883698D01*
X8984468Y-6883698D02*
X8993992Y-6893222D01*
X8993992Y-6893222D02*
X9003516Y-6912269D01*
X9003516Y-6912269D02*
X9003516Y-6959888D01*
X9003516Y-6959888D02*
X8993992Y-6978936D01*
X8993992Y-6978936D02*
X8984468Y-6988460D01*
X8984468Y-6988460D02*
X8965420Y-6997984D01*
X8965420Y-6997984D02*
X8908277Y-6997984D01*
X8908277Y-6997984D02*
X8889230Y-6988460D01*
X8889230Y-6988460D02*
X8879706Y-6978936D01*
X9241611Y-6997984D02*
X9241611Y-6797984D01*
X9327325Y-6997984D02*
X9327325Y-6893222D01*
X9327325Y-6893222D02*
X9317801Y-6874174D01*
X9317801Y-6874174D02*
X9298754Y-6864650D01*
X9298754Y-6864650D02*
X9270182Y-6864650D01*
X9270182Y-6864650D02*
X9251135Y-6874174D01*
X9251135Y-6874174D02*
X9241611Y-6883698D01*
X9451135Y-6997984D02*
X9432087Y-6988460D01*
X9432087Y-6988460D02*
X9422563Y-6978936D01*
X9422563Y-6978936D02*
X9413039Y-6959888D01*
X9413039Y-6959888D02*
X9413039Y-6902746D01*
X9413039Y-6902746D02*
X9422563Y-6883698D01*
X9422563Y-6883698D02*
X9432087Y-6874174D01*
X9432087Y-6874174D02*
X9451135Y-6864650D01*
X9451135Y-6864650D02*
X9479706Y-6864650D01*
X9479706Y-6864650D02*
X9498754Y-6874174D01*
X9498754Y-6874174D02*
X9508278Y-6883698D01*
X9508278Y-6883698D02*
X9517801Y-6902746D01*
X9517801Y-6902746D02*
X9517801Y-6959888D01*
X9517801Y-6959888D02*
X9508278Y-6978936D01*
X9508278Y-6978936D02*
X9498754Y-6988460D01*
X9498754Y-6988460D02*
X9479706Y-6997984D01*
X9479706Y-6997984D02*
X9451135Y-6997984D01*
X9632087Y-6997984D02*
X9613039Y-6988460D01*
X9613039Y-6988460D02*
X9603516Y-6969412D01*
X9603516Y-6969412D02*
X9603516Y-6797984D01*
X9784468Y-6988460D02*
X9765420Y-6997984D01*
X9765420Y-6997984D02*
X9727325Y-6997984D01*
X9727325Y-6997984D02*
X9708278Y-6988460D01*
X9708278Y-6988460D02*
X9698754Y-6969412D01*
X9698754Y-6969412D02*
X9698754Y-6893222D01*
X9698754Y-6893222D02*
X9708278Y-6874174D01*
X9708278Y-6874174D02*
X9727325Y-6864650D01*
X9727325Y-6864650D02*
X9765420Y-6864650D01*
X9765420Y-6864650D02*
X9784468Y-6874174D01*
X9784468Y-6874174D02*
X9793992Y-6893222D01*
X9793992Y-6893222D02*
X9793992Y-6912269D01*
X9793992Y-6912269D02*
X9698754Y-6931317D01*
X9870182Y-6988460D02*
X9889230Y-6997984D01*
X9889230Y-6997984D02*
X9927325Y-6997984D01*
X9927325Y-6997984D02*
X9946373Y-6988460D01*
X9946373Y-6988460D02*
X9955897Y-6969412D01*
X9955897Y-6969412D02*
X9955897Y-6959888D01*
X9955897Y-6959888D02*
X9946373Y-6940841D01*
X9946373Y-6940841D02*
X9927325Y-6931317D01*
X9927325Y-6931317D02*
X9898754Y-6931317D01*
X9898754Y-6931317D02*
X9879706Y-6921793D01*
X9879706Y-6921793D02*
X9870182Y-6902746D01*
X9870182Y-6902746D02*
X9870182Y-6893222D01*
X9870182Y-6893222D02*
X9879706Y-6874174D01*
X9879706Y-6874174D02*
X9898754Y-6864650D01*
X9898754Y-6864650D02*
X9927325Y-6864650D01*
X9927325Y-6864650D02*
X9946373Y-6874174D01*
X10022563Y-7074174D02*
X10032087Y-7064650D01*
X10032087Y-7064650D02*
X10051135Y-7036079D01*
X10051135Y-7036079D02*
X10060659Y-7017031D01*
X10060659Y-7017031D02*
X10070182Y-6988460D01*
X10070182Y-6988460D02*
X10079706Y-6940841D01*
X10079706Y-6940841D02*
X10079706Y-6902746D01*
X10079706Y-6902746D02*
X10070182Y-6855127D01*
X10070182Y-6855127D02*
X10060659Y-6826555D01*
X10060659Y-6826555D02*
X10051135Y-6807508D01*
X10051135Y-6807508D02*
X10032087Y-6778936D01*
X10032087Y-6778936D02*
X10022563Y-6769412D01*
D12*
X5217500Y-7140500D02*
X5217500Y-7200500D01*
X5187500Y-7170500D02*
X5247500Y-7170500D01*
D11*
X5546372Y-7061984D02*
X5565420Y-7061984D01*
X5565420Y-7061984D02*
X5584468Y-7071508D01*
X5584468Y-7071508D02*
X5593991Y-7081031D01*
X5593991Y-7081031D02*
X5603515Y-7100079D01*
X5603515Y-7100079D02*
X5613039Y-7138174D01*
X5613039Y-7138174D02*
X5613039Y-7185793D01*
X5613039Y-7185793D02*
X5603515Y-7223888D01*
X5603515Y-7223888D02*
X5593991Y-7242936D01*
X5593991Y-7242936D02*
X5584468Y-7252460D01*
X5584468Y-7252460D02*
X5565420Y-7261984D01*
X5565420Y-7261984D02*
X5546372Y-7261984D01*
X5546372Y-7261984D02*
X5527325Y-7252460D01*
X5527325Y-7252460D02*
X5517801Y-7242936D01*
X5517801Y-7242936D02*
X5508277Y-7223888D01*
X5508277Y-7223888D02*
X5498753Y-7185793D01*
X5498753Y-7185793D02*
X5498753Y-7138174D01*
X5498753Y-7138174D02*
X5508277Y-7100079D01*
X5508277Y-7100079D02*
X5517801Y-7081031D01*
X5517801Y-7081031D02*
X5527325Y-7071508D01*
X5527325Y-7071508D02*
X5546372Y-7061984D01*
X5698753Y-7242936D02*
X5708277Y-7252460D01*
X5708277Y-7252460D02*
X5698753Y-7261984D01*
X5698753Y-7261984D02*
X5689229Y-7252460D01*
X5689229Y-7252460D02*
X5698753Y-7242936D01*
X5698753Y-7242936D02*
X5698753Y-7261984D01*
X5879706Y-7061984D02*
X5841610Y-7061984D01*
X5841610Y-7061984D02*
X5822563Y-7071508D01*
X5822563Y-7071508D02*
X5813039Y-7081031D01*
X5813039Y-7081031D02*
X5793991Y-7109603D01*
X5793991Y-7109603D02*
X5784468Y-7147698D01*
X5784468Y-7147698D02*
X5784468Y-7223888D01*
X5784468Y-7223888D02*
X5793991Y-7242936D01*
X5793991Y-7242936D02*
X5803515Y-7252460D01*
X5803515Y-7252460D02*
X5822563Y-7261984D01*
X5822563Y-7261984D02*
X5860658Y-7261984D01*
X5860658Y-7261984D02*
X5879706Y-7252460D01*
X5879706Y-7252460D02*
X5889229Y-7242936D01*
X5889229Y-7242936D02*
X5898753Y-7223888D01*
X5898753Y-7223888D02*
X5898753Y-7176269D01*
X5898753Y-7176269D02*
X5889229Y-7157222D01*
X5889229Y-7157222D02*
X5879706Y-7147698D01*
X5879706Y-7147698D02*
X5860658Y-7138174D01*
X5860658Y-7138174D02*
X5822563Y-7138174D01*
X5822563Y-7138174D02*
X5803515Y-7147698D01*
X5803515Y-7147698D02*
X5793991Y-7157222D01*
X5793991Y-7157222D02*
X5784468Y-7176269D01*
X6022563Y-7061984D02*
X6041610Y-7061984D01*
X6041610Y-7061984D02*
X6060658Y-7071508D01*
X6060658Y-7071508D02*
X6070182Y-7081031D01*
X6070182Y-7081031D02*
X6079706Y-7100079D01*
X6079706Y-7100079D02*
X6089229Y-7138174D01*
X6089229Y-7138174D02*
X6089229Y-7185793D01*
X6089229Y-7185793D02*
X6079706Y-7223888D01*
X6079706Y-7223888D02*
X6070182Y-7242936D01*
X6070182Y-7242936D02*
X6060658Y-7252460D01*
X6060658Y-7252460D02*
X6041610Y-7261984D01*
X6041610Y-7261984D02*
X6022563Y-7261984D01*
X6022563Y-7261984D02*
X6003515Y-7252460D01*
X6003515Y-7252460D02*
X5993991Y-7242936D01*
X5993991Y-7242936D02*
X5984468Y-7223888D01*
X5984468Y-7223888D02*
X5974944Y-7185793D01*
X5974944Y-7185793D02*
X5974944Y-7138174D01*
X5974944Y-7138174D02*
X5984468Y-7100079D01*
X5984468Y-7100079D02*
X5993991Y-7081031D01*
X5993991Y-7081031D02*
X6003515Y-7071508D01*
X6003515Y-7071508D02*
X6022563Y-7061984D01*
X6213039Y-7061984D02*
X6232087Y-7061984D01*
X6232087Y-7061984D02*
X6251134Y-7071508D01*
X6251134Y-7071508D02*
X6260658Y-7081031D01*
X6260658Y-7081031D02*
X6270182Y-7100079D01*
X6270182Y-7100079D02*
X6279706Y-7138174D01*
X6279706Y-7138174D02*
X6279706Y-7185793D01*
X6279706Y-7185793D02*
X6270182Y-7223888D01*
X6270182Y-7223888D02*
X6260658Y-7242936D01*
X6260658Y-7242936D02*
X6251134Y-7252460D01*
X6251134Y-7252460D02*
X6232087Y-7261984D01*
X6232087Y-7261984D02*
X6213039Y-7261984D01*
X6213039Y-7261984D02*
X6193991Y-7252460D01*
X6193991Y-7252460D02*
X6184468Y-7242936D01*
X6184468Y-7242936D02*
X6174944Y-7223888D01*
X6174944Y-7223888D02*
X6165420Y-7185793D01*
X6165420Y-7185793D02*
X6165420Y-7138174D01*
X6165420Y-7138174D02*
X6174944Y-7100079D01*
X6174944Y-7100079D02*
X6184468Y-7081031D01*
X6184468Y-7081031D02*
X6193991Y-7071508D01*
X6193991Y-7071508D02*
X6213039Y-7061984D01*
X6365420Y-7261984D02*
X6365420Y-7128650D01*
X6365420Y-7147698D02*
X6374944Y-7138174D01*
X6374944Y-7138174D02*
X6393991Y-7128650D01*
X6393991Y-7128650D02*
X6422563Y-7128650D01*
X6422563Y-7128650D02*
X6441610Y-7138174D01*
X6441610Y-7138174D02*
X6451134Y-7157222D01*
X6451134Y-7157222D02*
X6451134Y-7261984D01*
X6451134Y-7157222D02*
X6460658Y-7138174D01*
X6460658Y-7138174D02*
X6479706Y-7128650D01*
X6479706Y-7128650D02*
X6508277Y-7128650D01*
X6508277Y-7128650D02*
X6527325Y-7138174D01*
X6527325Y-7138174D02*
X6536849Y-7157222D01*
X6536849Y-7157222D02*
X6536849Y-7261984D01*
X6632087Y-7261984D02*
X6632087Y-7128650D01*
X6632087Y-7147698D02*
X6641610Y-7138174D01*
X6641610Y-7138174D02*
X6660658Y-7128650D01*
X6660658Y-7128650D02*
X6689230Y-7128650D01*
X6689230Y-7128650D02*
X6708277Y-7138174D01*
X6708277Y-7138174D02*
X6717801Y-7157222D01*
X6717801Y-7157222D02*
X6717801Y-7261984D01*
X6717801Y-7157222D02*
X6727325Y-7138174D01*
X6727325Y-7138174D02*
X6746372Y-7128650D01*
X6746372Y-7128650D02*
X6774944Y-7128650D01*
X6774944Y-7128650D02*
X6793991Y-7138174D01*
X6793991Y-7138174D02*
X6803515Y-7157222D01*
X6803515Y-7157222D02*
X6803515Y-7261984D01*
X7193991Y-7052460D02*
X7022563Y-7309603D01*
X7451134Y-7061984D02*
X7470182Y-7061984D01*
X7470182Y-7061984D02*
X7489230Y-7071508D01*
X7489230Y-7071508D02*
X7498753Y-7081031D01*
X7498753Y-7081031D02*
X7508277Y-7100079D01*
X7508277Y-7100079D02*
X7517801Y-7138174D01*
X7517801Y-7138174D02*
X7517801Y-7185793D01*
X7517801Y-7185793D02*
X7508277Y-7223888D01*
X7508277Y-7223888D02*
X7498753Y-7242936D01*
X7498753Y-7242936D02*
X7489230Y-7252460D01*
X7489230Y-7252460D02*
X7470182Y-7261984D01*
X7470182Y-7261984D02*
X7451134Y-7261984D01*
X7451134Y-7261984D02*
X7432087Y-7252460D01*
X7432087Y-7252460D02*
X7422563Y-7242936D01*
X7422563Y-7242936D02*
X7413039Y-7223888D01*
X7413039Y-7223888D02*
X7403515Y-7185793D01*
X7403515Y-7185793D02*
X7403515Y-7138174D01*
X7403515Y-7138174D02*
X7413039Y-7100079D01*
X7413039Y-7100079D02*
X7422563Y-7081031D01*
X7422563Y-7081031D02*
X7432087Y-7071508D01*
X7432087Y-7071508D02*
X7451134Y-7061984D01*
X7603515Y-7242936D02*
X7613039Y-7252460D01*
X7613039Y-7252460D02*
X7603515Y-7261984D01*
X7603515Y-7261984D02*
X7593992Y-7252460D01*
X7593992Y-7252460D02*
X7603515Y-7242936D01*
X7603515Y-7242936D02*
X7603515Y-7261984D01*
X7736849Y-7061984D02*
X7755896Y-7061984D01*
X7755896Y-7061984D02*
X7774944Y-7071508D01*
X7774944Y-7071508D02*
X7784468Y-7081031D01*
X7784468Y-7081031D02*
X7793992Y-7100079D01*
X7793992Y-7100079D02*
X7803515Y-7138174D01*
X7803515Y-7138174D02*
X7803515Y-7185793D01*
X7803515Y-7185793D02*
X7793992Y-7223888D01*
X7793992Y-7223888D02*
X7784468Y-7242936D01*
X7784468Y-7242936D02*
X7774944Y-7252460D01*
X7774944Y-7252460D02*
X7755896Y-7261984D01*
X7755896Y-7261984D02*
X7736849Y-7261984D01*
X7736849Y-7261984D02*
X7717801Y-7252460D01*
X7717801Y-7252460D02*
X7708277Y-7242936D01*
X7708277Y-7242936D02*
X7698753Y-7223888D01*
X7698753Y-7223888D02*
X7689230Y-7185793D01*
X7689230Y-7185793D02*
X7689230Y-7138174D01*
X7689230Y-7138174D02*
X7698753Y-7100079D01*
X7698753Y-7100079D02*
X7708277Y-7081031D01*
X7708277Y-7081031D02*
X7717801Y-7071508D01*
X7717801Y-7071508D02*
X7736849Y-7061984D01*
X7879706Y-7081031D02*
X7889230Y-7071508D01*
X7889230Y-7071508D02*
X7908277Y-7061984D01*
X7908277Y-7061984D02*
X7955896Y-7061984D01*
X7955896Y-7061984D02*
X7974944Y-7071508D01*
X7974944Y-7071508D02*
X7984468Y-7081031D01*
X7984468Y-7081031D02*
X7993992Y-7100079D01*
X7993992Y-7100079D02*
X7993992Y-7119127D01*
X7993992Y-7119127D02*
X7984468Y-7147698D01*
X7984468Y-7147698D02*
X7870182Y-7261984D01*
X7870182Y-7261984D02*
X7993992Y-7261984D01*
X8060658Y-7061984D02*
X8184468Y-7061984D01*
X8184468Y-7061984D02*
X8117801Y-7138174D01*
X8117801Y-7138174D02*
X8146373Y-7138174D01*
X8146373Y-7138174D02*
X8165420Y-7147698D01*
X8165420Y-7147698D02*
X8174944Y-7157222D01*
X8174944Y-7157222D02*
X8184468Y-7176269D01*
X8184468Y-7176269D02*
X8184468Y-7223888D01*
X8184468Y-7223888D02*
X8174944Y-7242936D01*
X8174944Y-7242936D02*
X8165420Y-7252460D01*
X8165420Y-7252460D02*
X8146373Y-7261984D01*
X8146373Y-7261984D02*
X8089230Y-7261984D01*
X8089230Y-7261984D02*
X8070182Y-7252460D01*
X8070182Y-7252460D02*
X8060658Y-7242936D01*
X8355896Y-7061984D02*
X8317801Y-7061984D01*
X8317801Y-7061984D02*
X8298753Y-7071508D01*
X8298753Y-7071508D02*
X8289230Y-7081031D01*
X8289230Y-7081031D02*
X8270182Y-7109603D01*
X8270182Y-7109603D02*
X8260658Y-7147698D01*
X8260658Y-7147698D02*
X8260658Y-7223888D01*
X8260658Y-7223888D02*
X8270182Y-7242936D01*
X8270182Y-7242936D02*
X8279706Y-7252460D01*
X8279706Y-7252460D02*
X8298753Y-7261984D01*
X8298753Y-7261984D02*
X8336849Y-7261984D01*
X8336849Y-7261984D02*
X8355896Y-7252460D01*
X8355896Y-7252460D02*
X8365420Y-7242936D01*
X8365420Y-7242936D02*
X8374944Y-7223888D01*
X8374944Y-7223888D02*
X8374944Y-7176269D01*
X8374944Y-7176269D02*
X8365420Y-7157222D01*
X8365420Y-7157222D02*
X8355896Y-7147698D01*
X8355896Y-7147698D02*
X8336849Y-7138174D01*
X8336849Y-7138174D02*
X8298753Y-7138174D01*
X8298753Y-7138174D02*
X8279706Y-7147698D01*
X8279706Y-7147698D02*
X8270182Y-7157222D01*
X8270182Y-7157222D02*
X8260658Y-7176269D01*
X8451135Y-7061984D02*
X8451135Y-7100079D01*
X8527325Y-7061984D02*
X8527325Y-7100079D01*
X8822563Y-7338174D02*
X8813039Y-7328650D01*
X8813039Y-7328650D02*
X8793992Y-7300079D01*
X8793992Y-7300079D02*
X8784468Y-7281031D01*
X8784468Y-7281031D02*
X8774944Y-7252460D01*
X8774944Y-7252460D02*
X8765420Y-7204841D01*
X8765420Y-7204841D02*
X8765420Y-7166746D01*
X8765420Y-7166746D02*
X8774944Y-7119127D01*
X8774944Y-7119127D02*
X8784468Y-7090555D01*
X8784468Y-7090555D02*
X8793992Y-7071508D01*
X8793992Y-7071508D02*
X8813039Y-7042936D01*
X8813039Y-7042936D02*
X8822563Y-7033412D01*
X8936849Y-7061984D02*
X8955897Y-7061984D01*
X8955897Y-7061984D02*
X8974944Y-7071508D01*
X8974944Y-7071508D02*
X8984468Y-7081031D01*
X8984468Y-7081031D02*
X8993992Y-7100079D01*
X8993992Y-7100079D02*
X9003516Y-7138174D01*
X9003516Y-7138174D02*
X9003516Y-7185793D01*
X9003516Y-7185793D02*
X8993992Y-7223888D01*
X8993992Y-7223888D02*
X8984468Y-7242936D01*
X8984468Y-7242936D02*
X8974944Y-7252460D01*
X8974944Y-7252460D02*
X8955897Y-7261984D01*
X8955897Y-7261984D02*
X8936849Y-7261984D01*
X8936849Y-7261984D02*
X8917801Y-7252460D01*
X8917801Y-7252460D02*
X8908277Y-7242936D01*
X8908277Y-7242936D02*
X8898754Y-7223888D01*
X8898754Y-7223888D02*
X8889230Y-7185793D01*
X8889230Y-7185793D02*
X8889230Y-7138174D01*
X8889230Y-7138174D02*
X8898754Y-7100079D01*
X8898754Y-7100079D02*
X8908277Y-7081031D01*
X8908277Y-7081031D02*
X8917801Y-7071508D01*
X8917801Y-7071508D02*
X8936849Y-7061984D01*
X9241611Y-7261984D02*
X9241611Y-7061984D01*
X9327325Y-7261984D02*
X9327325Y-7157222D01*
X9327325Y-7157222D02*
X9317801Y-7138174D01*
X9317801Y-7138174D02*
X9298754Y-7128650D01*
X9298754Y-7128650D02*
X9270182Y-7128650D01*
X9270182Y-7128650D02*
X9251135Y-7138174D01*
X9251135Y-7138174D02*
X9241611Y-7147698D01*
X9451135Y-7261984D02*
X9432087Y-7252460D01*
X9432087Y-7252460D02*
X9422563Y-7242936D01*
X9422563Y-7242936D02*
X9413039Y-7223888D01*
X9413039Y-7223888D02*
X9413039Y-7166746D01*
X9413039Y-7166746D02*
X9422563Y-7147698D01*
X9422563Y-7147698D02*
X9432087Y-7138174D01*
X9432087Y-7138174D02*
X9451135Y-7128650D01*
X9451135Y-7128650D02*
X9479706Y-7128650D01*
X9479706Y-7128650D02*
X9498754Y-7138174D01*
X9498754Y-7138174D02*
X9508278Y-7147698D01*
X9508278Y-7147698D02*
X9517801Y-7166746D01*
X9517801Y-7166746D02*
X9517801Y-7223888D01*
X9517801Y-7223888D02*
X9508278Y-7242936D01*
X9508278Y-7242936D02*
X9498754Y-7252460D01*
X9498754Y-7252460D02*
X9479706Y-7261984D01*
X9479706Y-7261984D02*
X9451135Y-7261984D01*
X9632087Y-7261984D02*
X9613039Y-7252460D01*
X9613039Y-7252460D02*
X9603516Y-7233412D01*
X9603516Y-7233412D02*
X9603516Y-7061984D01*
X9784468Y-7252460D02*
X9765420Y-7261984D01*
X9765420Y-7261984D02*
X9727325Y-7261984D01*
X9727325Y-7261984D02*
X9708278Y-7252460D01*
X9708278Y-7252460D02*
X9698754Y-7233412D01*
X9698754Y-7233412D02*
X9698754Y-7157222D01*
X9698754Y-7157222D02*
X9708278Y-7138174D01*
X9708278Y-7138174D02*
X9727325Y-7128650D01*
X9727325Y-7128650D02*
X9765420Y-7128650D01*
X9765420Y-7128650D02*
X9784468Y-7138174D01*
X9784468Y-7138174D02*
X9793992Y-7157222D01*
X9793992Y-7157222D02*
X9793992Y-7176269D01*
X9793992Y-7176269D02*
X9698754Y-7195317D01*
X9870182Y-7252460D02*
X9889230Y-7261984D01*
X9889230Y-7261984D02*
X9927325Y-7261984D01*
X9927325Y-7261984D02*
X9946373Y-7252460D01*
X9946373Y-7252460D02*
X9955897Y-7233412D01*
X9955897Y-7233412D02*
X9955897Y-7223888D01*
X9955897Y-7223888D02*
X9946373Y-7204841D01*
X9946373Y-7204841D02*
X9927325Y-7195317D01*
X9927325Y-7195317D02*
X9898754Y-7195317D01*
X9898754Y-7195317D02*
X9879706Y-7185793D01*
X9879706Y-7185793D02*
X9870182Y-7166746D01*
X9870182Y-7166746D02*
X9870182Y-7157222D01*
X9870182Y-7157222D02*
X9879706Y-7138174D01*
X9879706Y-7138174D02*
X9898754Y-7128650D01*
X9898754Y-7128650D02*
X9927325Y-7128650D01*
X9927325Y-7128650D02*
X9946373Y-7138174D01*
X10193992Y-7185793D02*
X10346373Y-7185793D01*
X10270182Y-7261984D02*
X10270182Y-7109603D01*
X10679706Y-7128650D02*
X10679706Y-7261984D01*
X10632087Y-7052460D02*
X10584468Y-7195317D01*
X10584468Y-7195317D02*
X10708278Y-7195317D01*
X10927325Y-7252460D02*
X10946373Y-7261984D01*
X10946373Y-7261984D02*
X10984468Y-7261984D01*
X10984468Y-7261984D02*
X11003516Y-7252460D01*
X11003516Y-7252460D02*
X11013040Y-7233412D01*
X11013040Y-7233412D02*
X11013040Y-7223888D01*
X11013040Y-7223888D02*
X11003516Y-7204841D01*
X11003516Y-7204841D02*
X10984468Y-7195317D01*
X10984468Y-7195317D02*
X10955897Y-7195317D01*
X10955897Y-7195317D02*
X10936849Y-7185793D01*
X10936849Y-7185793D02*
X10927325Y-7166746D01*
X10927325Y-7166746D02*
X10927325Y-7157222D01*
X10927325Y-7157222D02*
X10936849Y-7138174D01*
X10936849Y-7138174D02*
X10955897Y-7128650D01*
X10955897Y-7128650D02*
X10984468Y-7128650D01*
X10984468Y-7128650D02*
X11003516Y-7138174D01*
X11127325Y-7261984D02*
X11108278Y-7252460D01*
X11108278Y-7252460D02*
X11098754Y-7233412D01*
X11098754Y-7233412D02*
X11098754Y-7061984D01*
X11232087Y-7261984D02*
X11213040Y-7252460D01*
X11213040Y-7252460D02*
X11203516Y-7242936D01*
X11203516Y-7242936D02*
X11193992Y-7223888D01*
X11193992Y-7223888D02*
X11193992Y-7166746D01*
X11193992Y-7166746D02*
X11203516Y-7147698D01*
X11203516Y-7147698D02*
X11213040Y-7138174D01*
X11213040Y-7138174D02*
X11232087Y-7128650D01*
X11232087Y-7128650D02*
X11260659Y-7128650D01*
X11260659Y-7128650D02*
X11279706Y-7138174D01*
X11279706Y-7138174D02*
X11289230Y-7147698D01*
X11289230Y-7147698D02*
X11298754Y-7166746D01*
X11298754Y-7166746D02*
X11298754Y-7223888D01*
X11298754Y-7223888D02*
X11289230Y-7242936D01*
X11289230Y-7242936D02*
X11279706Y-7252460D01*
X11279706Y-7252460D02*
X11260659Y-7261984D01*
X11260659Y-7261984D02*
X11232087Y-7261984D01*
X11355897Y-7128650D02*
X11432087Y-7128650D01*
X11384468Y-7061984D02*
X11384468Y-7233412D01*
X11384468Y-7233412D02*
X11393992Y-7252460D01*
X11393992Y-7252460D02*
X11413040Y-7261984D01*
X11413040Y-7261984D02*
X11432087Y-7261984D01*
X11489230Y-7252460D02*
X11508278Y-7261984D01*
X11508278Y-7261984D02*
X11546373Y-7261984D01*
X11546373Y-7261984D02*
X11565421Y-7252460D01*
X11565421Y-7252460D02*
X11574944Y-7233412D01*
X11574944Y-7233412D02*
X11574944Y-7223888D01*
X11574944Y-7223888D02*
X11565421Y-7204841D01*
X11565421Y-7204841D02*
X11546373Y-7195317D01*
X11546373Y-7195317D02*
X11517801Y-7195317D01*
X11517801Y-7195317D02*
X11498754Y-7185793D01*
X11498754Y-7185793D02*
X11489230Y-7166746D01*
X11489230Y-7166746D02*
X11489230Y-7157222D01*
X11489230Y-7157222D02*
X11498754Y-7138174D01*
X11498754Y-7138174D02*
X11517801Y-7128650D01*
X11517801Y-7128650D02*
X11546373Y-7128650D01*
X11546373Y-7128650D02*
X11565421Y-7138174D01*
X11641611Y-7338174D02*
X11651135Y-7328650D01*
X11651135Y-7328650D02*
X11670182Y-7300079D01*
X11670182Y-7300079D02*
X11679706Y-7281031D01*
X11679706Y-7281031D02*
X11689230Y-7252460D01*
X11689230Y-7252460D02*
X11698754Y-7204841D01*
X11698754Y-7204841D02*
X11698754Y-7166746D01*
X11698754Y-7166746D02*
X11689230Y-7119127D01*
X11689230Y-7119127D02*
X11679706Y-7090555D01*
X11679706Y-7090555D02*
X11670182Y-7071508D01*
X11670182Y-7071508D02*
X11651135Y-7042936D01*
X11651135Y-7042936D02*
X11641611Y-7033412D01*
M02*
