%TF.GenerationSoftware,KiCad,Pcbnew,9.0.6*%
%TF.CreationDate,2025-12-29T00:57:43+09:00*%
%TF.ProjectId,muon,6d756f6e-2e6b-4696-9361-645f70636258,rev?*%
%TF.SameCoordinates,Original*%
%TF.FileFunction,Copper,L1,Top*%
%TF.FilePolarity,Positive*%
%FSLAX46Y46*%
G04 Gerber Fmt 4.6, Leading zero omitted, Abs format (unit mm)*
G04 Created by KiCad (PCBNEW 9.0.6) date 2025-12-29 00:57:43*
%MOMM*%
%LPD*%
G01*
G04 APERTURE LIST*
G04 Aperture macros list*
%AMRoundRect*
0 Rectangle with rounded corners*
0 $1 Rounding radius*
0 $2 $3 $4 $5 $6 $7 $8 $9 X,Y pos of 4 corners*
0 Add a 4 corners polygon primitive as box body*
4,1,4,$2,$3,$4,$5,$6,$7,$8,$9,$2,$3,0*
0 Add four circle primitives for the rounded corners*
1,1,$1+$1,$2,$3*
1,1,$1+$1,$4,$5*
1,1,$1+$1,$6,$7*
1,1,$1+$1,$8,$9*
0 Add four rect primitives between the rounded corners*
20,1,$1+$1,$2,$3,$4,$5,0*
20,1,$1+$1,$4,$5,$6,$7,0*
20,1,$1+$1,$6,$7,$8,$9,0*
20,1,$1+$1,$8,$9,$2,$3,0*%
G04 Aperture macros list end*
%TA.AperFunction,SMDPad,CuDef*%
%ADD10RoundRect,0.150000X-0.150000X-0.200000X0.150000X-0.200000X0.150000X0.200000X-0.150000X0.200000X0*%
%TD*%
%TA.AperFunction,SMDPad,CuDef*%
%ADD11RoundRect,0.200000X-0.200000X-0.275000X0.200000X-0.275000X0.200000X0.275000X-0.200000X0.275000X0*%
%TD*%
%TA.AperFunction,SMDPad,CuDef*%
%ADD12RoundRect,0.243750X0.243750X0.456250X-0.243750X0.456250X-0.243750X-0.456250X0.243750X-0.456250X0*%
%TD*%
%TA.AperFunction,SMDPad,CuDef*%
%ADD13RoundRect,0.075000X-0.200000X0.075000X-0.200000X-0.075000X0.200000X-0.075000X0.200000X0.075000X0*%
%TD*%
%TA.AperFunction,SMDPad,CuDef*%
%ADD14RoundRect,0.050000X0.250000X0.675000X-0.250000X0.675000X-0.250000X-0.675000X0.250000X-0.675000X0*%
%TD*%
%TA.AperFunction,SMDPad,CuDef*%
%ADD15RoundRect,0.050000X0.100000X0.675000X-0.100000X0.675000X-0.100000X-0.675000X0.100000X-0.675000X0*%
%TD*%
%TA.AperFunction,ComponentPad*%
%ADD16O,1.000000X2.100000*%
%TD*%
%TA.AperFunction,ComponentPad*%
%ADD17O,1.000000X1.800000*%
%TD*%
%TA.AperFunction,SMDPad,CuDef*%
%ADD18RoundRect,0.150000X-0.150000X-0.625000X0.150000X-0.625000X0.150000X0.625000X-0.150000X0.625000X0*%
%TD*%
%TA.AperFunction,SMDPad,CuDef*%
%ADD19RoundRect,0.250000X-0.350000X-0.650000X0.350000X-0.650000X0.350000X0.650000X-0.350000X0.650000X0*%
%TD*%
%TA.AperFunction,ViaPad*%
%ADD20C,0.600000*%
%TD*%
%TA.AperFunction,ViaPad*%
%ADD21C,1.000000*%
%TD*%
%TA.AperFunction,Conductor*%
%ADD22C,0.400000*%
%TD*%
%TA.AperFunction,Conductor*%
%ADD23C,0.200000*%
%TD*%
G04 APERTURE END LIST*
D10*
%TO.P,D1,1,K*%
%TO.N,+5V*%
X60600000Y-52600000D03*
%TO.P,D1,2,A*%
%TO.N,GND*%
X59200000Y-52600000D03*
%TD*%
D11*
%TO.P,R2,1*%
%TO.N,Net-(J1-CC1)*%
X65875000Y-52700000D03*
%TO.P,R2,2*%
%TO.N,GND*%
X67525000Y-52700000D03*
%TD*%
%TO.P,R1,1*%
%TO.N,Net-(J1-CC2)*%
X65875000Y-54500000D03*
%TO.P,R1,2*%
%TO.N,GND*%
X67525000Y-54500000D03*
%TD*%
D12*
%TO.P,F1,1*%
%TO.N,VBUS*%
X64137500Y-52600000D03*
%TO.P,F1,2*%
%TO.N,+5V*%
X62262500Y-52600000D03*
%TD*%
D13*
%TO.P,U1,1,D1+*%
%TO.N,D+*%
X66415000Y-56100000D03*
%TO.P,U1,2,D1-*%
%TO.N,D-*%
X66415000Y-56600000D03*
%TO.P,U1,3,GND*%
%TO.N,GND*%
X66415000Y-57100000D03*
%TO.P,U1,4,D2+*%
%TO.N,unconnected-(U1-D2+-Pad4)*%
X66415000Y-57600000D03*
%TO.P,U1,5,D2-*%
%TO.N,unconnected-(U1-D2--Pad5)*%
X66415000Y-58100000D03*
%TO.P,U1,6,NC*%
%TO.N,unconnected-(U1-NC-Pad6)*%
X67185000Y-58100000D03*
%TO.P,U1,7,NC*%
%TO.N,unconnected-(U1-NC-Pad7)*%
X67185000Y-57600000D03*
%TO.P,U1,8,GND*%
%TO.N,GND*%
X67185000Y-57100000D03*
%TO.P,U1,9,NC*%
%TO.N,unconnected-(U1-NC-Pad9)*%
X67185000Y-56600000D03*
%TO.P,U1,10,NC*%
%TO.N,unconnected-(U1-NC-Pad10)*%
X67185000Y-56100000D03*
%TD*%
D14*
%TO.P,J1,A1,GND*%
%TO.N,GND*%
X76725000Y-56100000D03*
%TO.P,J1,A4,VBUS*%
%TO.N,VBUS*%
X75950000Y-56100000D03*
D15*
%TO.P,J1,A5,CC1*%
%TO.N,Net-(J1-CC1)*%
X74750000Y-56100000D03*
%TO.P,J1,A6,D+*%
%TO.N,D+*%
X73750000Y-56100000D03*
%TO.P,J1,A7,D-*%
%TO.N,D-*%
X73250000Y-56100000D03*
%TO.P,J1,A8,SBU1*%
%TO.N,unconnected-(J1-SBU1-PadA8)*%
X72250000Y-56100000D03*
D14*
%TO.P,J1,A9,VBUS*%
%TO.N,VBUS*%
X71050000Y-56100000D03*
%TO.P,J1,A12,GND*%
%TO.N,GND*%
X70275000Y-56100000D03*
D15*
%TO.P,J1,B5,CC2*%
%TO.N,Net-(J1-CC2)*%
X71750000Y-56100000D03*
%TO.P,J1,B6,D+*%
%TO.N,D+*%
X72750000Y-56100000D03*
%TO.P,J1,B7,D-*%
%TO.N,D-*%
X74250000Y-56100000D03*
%TO.P,J1,B8,SBU2*%
%TO.N,unconnected-(J1-SBU2-PadB8)*%
X75250000Y-56100000D03*
D16*
%TO.P,J1,S1,SHIELD*%
%TO.N,GND*%
X77820000Y-55380000D03*
D17*
X77820000Y-51200000D03*
D16*
X69180000Y-55380000D03*
D17*
X69180000Y-51200000D03*
%TD*%
D18*
%TO.P,J2,1,Pin_1*%
%TO.N,+5V*%
X60000000Y-54925000D03*
%TO.P,J2,2,Pin_2*%
%TO.N,D-*%
X61000000Y-54925000D03*
%TO.P,J2,3,Pin_3*%
%TO.N,D+*%
X62000000Y-54925000D03*
%TO.P,J2,4,Pin_4*%
%TO.N,GND*%
X63000000Y-54925000D03*
D19*
%TO.P,J2,MP,MountPin*%
X58700000Y-58800000D03*
X64300000Y-58800000D03*
%TD*%
D20*
%TO.N,GND*%
X63800000Y-55200000D03*
X68000000Y-57800000D03*
X69900000Y-57300000D03*
X65600000Y-57200000D03*
X63100000Y-53600000D03*
X77100000Y-57400000D03*
X61300000Y-53500000D03*
X58400000Y-52600000D03*
X59200000Y-51800000D03*
X55400000Y-51600000D03*
X55400000Y-58400000D03*
D21*
%TO.N,VBUS*%
X76100000Y-57500000D03*
X64100000Y-54000000D03*
X70900000Y-57500000D03*
D20*
%TO.N,Net-(J1-CC2)*%
X71900000Y-57400000D03*
X66600000Y-53700000D03*
%TO.N,Net-(J1-CC1)*%
X75100000Y-57400000D03*
X66600000Y-51900000D03*
%TD*%
D22*
%TO.N,+5V*%
X60000000Y-53850000D02*
X60600000Y-53250000D01*
X60000000Y-54925000D02*
X60000000Y-53850000D01*
X60600000Y-52600000D02*
X62262500Y-52600000D01*
X60600000Y-53250000D02*
X60600000Y-52600000D01*
%TO.N,VBUS*%
X71050000Y-57350000D02*
X70900000Y-57500000D01*
X64100000Y-52537500D02*
X64137500Y-52500000D01*
X71050000Y-56100000D02*
X71050000Y-57350000D01*
X64100000Y-54000000D02*
X64100000Y-52537500D01*
X75950000Y-57350000D02*
X76100000Y-57500000D01*
X75950000Y-56100000D02*
X75950000Y-57350000D01*
D23*
%TO.N,Net-(J1-CC2)*%
X71750000Y-57150000D02*
X71750000Y-56100000D01*
X65875000Y-54500000D02*
X65875000Y-54425000D01*
X71900000Y-57300000D02*
X71750000Y-57150000D01*
X65875000Y-54425000D02*
X66600000Y-53700000D01*
X71900000Y-57400000D02*
X71900000Y-57300000D01*
%TO.N,D-*%
X72100000Y-58700000D02*
X73200000Y-57600000D01*
X73500000Y-55000000D02*
X74000000Y-55000000D01*
X66000000Y-56600000D02*
X67700000Y-56600000D01*
X73250000Y-55250000D02*
X73500000Y-55000000D01*
X69800000Y-58700000D02*
X72100000Y-58700000D01*
X65900000Y-56500000D02*
X66000000Y-56600000D01*
X74000000Y-55000000D02*
X74250000Y-55250000D01*
X73250000Y-56100000D02*
X73250000Y-55250000D01*
X73200000Y-57600000D02*
X73700000Y-57600000D01*
X74250000Y-55250000D02*
X74250000Y-56100000D01*
X73700000Y-57600000D02*
X74250000Y-57050000D01*
X62100000Y-56500000D02*
X65900000Y-56500000D01*
X67700000Y-56600000D02*
X69800000Y-58700000D01*
X74250000Y-57050000D02*
X74250000Y-56100000D01*
X61000000Y-54925000D02*
X61000000Y-55400000D01*
X61000000Y-55400000D02*
X62100000Y-56500000D01*
%TO.N,D+*%
X73750000Y-56950000D02*
X73500000Y-57200000D01*
X67800000Y-56100000D02*
X70000000Y-58300000D01*
X62000000Y-55800000D02*
X62300000Y-56100000D01*
X72750000Y-56950000D02*
X73000000Y-57200000D01*
X62300000Y-56100000D02*
X67800000Y-56100000D01*
X70000000Y-58300000D02*
X71900000Y-58300000D01*
X62000000Y-54925000D02*
X62000000Y-55800000D01*
X72750000Y-56100000D02*
X72750000Y-56950000D01*
X73500000Y-57200000D02*
X73000000Y-57200000D01*
X71900000Y-58300000D02*
X73000000Y-57200000D01*
X73750000Y-56100000D02*
X73750000Y-56950000D01*
%TO.N,Net-(J1-CC1)*%
X65875000Y-52700000D02*
X65875000Y-52625000D01*
X65875000Y-52625000D02*
X66600000Y-51900000D01*
X75000000Y-57400000D02*
X74750000Y-57150000D01*
X74750000Y-57150000D02*
X74750000Y-56100000D01*
X75100000Y-57400000D02*
X75000000Y-57400000D01*
%TD*%
%TA.AperFunction,Conductor*%
%TO.N,GND*%
G36*
X77698458Y-50500501D02*
G01*
X78155514Y-50502126D01*
X78157934Y-50502159D01*
X78625580Y-50513295D01*
X78630276Y-50513497D01*
X79102707Y-50543057D01*
X79109586Y-50543683D01*
X79588614Y-50600812D01*
X79595077Y-50601756D01*
X79825175Y-50641607D01*
X79830106Y-50642565D01*
X80063569Y-50692908D01*
X80068994Y-50694206D01*
X80300420Y-50755124D01*
X80306246Y-50756811D01*
X80535308Y-50829271D01*
X80541426Y-50831385D01*
X80767788Y-50916354D01*
X80774197Y-50918967D01*
X80997662Y-51017485D01*
X81004259Y-51020629D01*
X81185392Y-51113630D01*
X81224650Y-51133787D01*
X81231331Y-51137482D01*
X81450786Y-51267815D01*
X81458793Y-51272997D01*
X81777736Y-51497268D01*
X81786681Y-51504188D01*
X82085624Y-51758079D01*
X82093894Y-51765779D01*
X82368470Y-52045855D01*
X82375991Y-52054262D01*
X82623913Y-52358195D01*
X82630640Y-52367257D01*
X82780356Y-52589410D01*
X82849833Y-52692502D01*
X82855719Y-52702159D01*
X83044358Y-53046004D01*
X83049340Y-53056156D01*
X83205874Y-53415769D01*
X83209910Y-53426333D01*
X83333028Y-53798706D01*
X83336085Y-53809594D01*
X83424766Y-54191640D01*
X83426818Y-54202762D01*
X83480323Y-54591295D01*
X83481353Y-54602557D01*
X83499237Y-54994346D01*
X83499237Y-55005654D01*
X83481353Y-55397442D01*
X83480323Y-55408704D01*
X83426818Y-55797237D01*
X83424766Y-55808359D01*
X83336085Y-56190405D01*
X83333028Y-56201293D01*
X83209910Y-56573666D01*
X83205874Y-56584230D01*
X83049340Y-56943843D01*
X83044358Y-56953995D01*
X82855719Y-57297840D01*
X82849833Y-57307497D01*
X82630647Y-57632733D01*
X82623906Y-57641813D01*
X82375996Y-57945732D01*
X82368460Y-57954154D01*
X82325611Y-57997863D01*
X82093900Y-58234215D01*
X82085624Y-58241920D01*
X81786688Y-58495805D01*
X81777743Y-58502726D01*
X81458784Y-58727007D01*
X81450777Y-58732188D01*
X81231331Y-58862516D01*
X81224650Y-58866211D01*
X81004268Y-58979364D01*
X80997653Y-58982517D01*
X80774209Y-59081026D01*
X80767764Y-59083654D01*
X80668437Y-59120937D01*
X80541459Y-59168600D01*
X80535289Y-59170733D01*
X80306244Y-59243187D01*
X80300411Y-59244876D01*
X80068996Y-59305791D01*
X80063569Y-59307090D01*
X79830129Y-59357428D01*
X79825152Y-59358395D01*
X79595084Y-59398241D01*
X79588607Y-59399187D01*
X79109616Y-59456312D01*
X79102676Y-59456943D01*
X78630324Y-59486498D01*
X78625532Y-59486705D01*
X78157979Y-59497838D01*
X78155468Y-59497872D01*
X77698458Y-59499499D01*
X77698017Y-59499500D01*
X58801983Y-59499500D01*
X58801542Y-59499499D01*
X58344530Y-59497872D01*
X58342019Y-59497838D01*
X57874464Y-59486704D01*
X57869673Y-59486497D01*
X57397323Y-59456943D01*
X57390382Y-59456312D01*
X56911391Y-59399187D01*
X56904914Y-59398241D01*
X56674846Y-59358395D01*
X56669869Y-59357428D01*
X56436424Y-59307089D01*
X56430997Y-59305790D01*
X56199592Y-59244878D01*
X56193758Y-59243189D01*
X56037426Y-59193736D01*
X55964701Y-59170730D01*
X55958550Y-59168605D01*
X55784640Y-59103325D01*
X55732224Y-59083650D01*
X55725780Y-59081022D01*
X55502358Y-58982524D01*
X55495741Y-58979370D01*
X55275349Y-58866211D01*
X55268669Y-58862517D01*
X55049221Y-58732188D01*
X55041214Y-58727007D01*
X54722256Y-58502726D01*
X54713311Y-58495805D01*
X54414375Y-58241920D01*
X54406099Y-58234215D01*
X54374650Y-58202136D01*
X54300585Y-58126587D01*
X54267711Y-58064938D01*
X54273387Y-57995299D01*
X54315810Y-57939783D01*
X54381513Y-57916016D01*
X54416721Y-57918890D01*
X54500800Y-57938081D01*
X54832896Y-57975499D01*
X54832897Y-57975500D01*
X54832900Y-57975500D01*
X55167103Y-57975500D01*
X55167103Y-57975499D01*
X55499200Y-57938081D01*
X55825022Y-57863714D01*
X56140469Y-57753335D01*
X56441573Y-57608330D01*
X56617381Y-57497863D01*
X65939500Y-57497863D01*
X65939500Y-57702129D01*
X65955486Y-57782498D01*
X65960159Y-57793780D01*
X65958714Y-57794378D01*
X65975436Y-57847788D01*
X65959482Y-57905938D01*
X65960159Y-57906219D01*
X65957926Y-57911609D01*
X65956950Y-57915168D01*
X65955550Y-57917345D01*
X65955484Y-57917505D01*
X65939500Y-57997863D01*
X65939500Y-58202129D01*
X65955485Y-58282495D01*
X66016375Y-58373624D01*
X66029999Y-58382727D01*
X66107505Y-58434515D01*
X66107508Y-58434515D01*
X66107509Y-58434516D01*
X66134533Y-58439891D01*
X66187867Y-58450500D01*
X66642132Y-58450499D01*
X66722495Y-58434515D01*
X66731109Y-58428758D01*
X66797783Y-58407881D01*
X66865163Y-58426364D01*
X66868890Y-58428759D01*
X66877505Y-58434515D01*
X66877506Y-58434516D01*
X66930957Y-58445147D01*
X66957867Y-58450500D01*
X67412132Y-58450499D01*
X67492495Y-58434515D01*
X67583624Y-58373624D01*
X67644515Y-58282495D01*
X67660500Y-58202133D01*
X67660499Y-57997868D01*
X67644515Y-57917505D01*
X67644513Y-57917502D01*
X67639841Y-57906222D01*
X67641285Y-57905623D01*
X67624563Y-57852211D01*
X67640517Y-57794056D01*
X67639842Y-57793777D01*
X67642070Y-57788396D01*
X67643049Y-57784831D01*
X67644452Y-57782647D01*
X67644516Y-57782493D01*
X67659469Y-57707314D01*
X67660500Y-57702133D01*
X67660499Y-57497868D01*
X67644515Y-57417505D01*
X67615799Y-57374529D01*
X67583624Y-57326375D01*
X67528329Y-57289429D01*
X67492495Y-57265485D01*
X67492493Y-57265484D01*
X67492490Y-57265483D01*
X67412135Y-57249500D01*
X66957870Y-57249500D01*
X66877503Y-57265485D01*
X66877499Y-57265487D01*
X66868887Y-57271242D01*
X66859190Y-57274277D01*
X66851510Y-57280933D01*
X66826406Y-57284542D01*
X66802209Y-57292118D01*
X66792410Y-57289429D01*
X66782351Y-57290876D01*
X66743704Y-57276066D01*
X66734829Y-57273632D01*
X66733506Y-57272159D01*
X66731110Y-57271241D01*
X66722495Y-57265485D01*
X66722492Y-57265483D01*
X66642135Y-57249500D01*
X66187870Y-57249500D01*
X66107504Y-57265485D01*
X66016375Y-57326375D01*
X65955485Y-57417505D01*
X65955483Y-57417509D01*
X65939500Y-57497863D01*
X56617381Y-57497863D01*
X56724549Y-57430525D01*
X56985838Y-57222154D01*
X57222154Y-56985838D01*
X57430525Y-56724549D01*
X57608330Y-56441573D01*
X57753335Y-56140469D01*
X57863714Y-55825022D01*
X57938081Y-55499200D01*
X57975500Y-55167100D01*
X57975500Y-54832900D01*
X57938081Y-54500800D01*
X57884658Y-54266739D01*
X59499500Y-54266739D01*
X59499500Y-55583260D01*
X59509426Y-55651391D01*
X59560803Y-55756485D01*
X59643514Y-55839196D01*
X59643515Y-55839196D01*
X59643517Y-55839198D01*
X59748607Y-55890573D01*
X59782673Y-55895536D01*
X59816739Y-55900500D01*
X59816740Y-55900500D01*
X60183261Y-55900500D01*
X60205971Y-55897191D01*
X60251393Y-55890573D01*
X60356483Y-55839198D01*
X60375702Y-55819979D01*
X60412319Y-55783363D01*
X60473642Y-55749878D01*
X60543334Y-55754862D01*
X60587681Y-55783363D01*
X60643514Y-55839196D01*
X60643515Y-55839196D01*
X60643517Y-55839198D01*
X60748607Y-55890573D01*
X60782673Y-55895536D01*
X60816739Y-55900500D01*
X60816740Y-55900500D01*
X61024167Y-55900500D01*
X61091206Y-55920185D01*
X61111848Y-55936819D01*
X61859540Y-56684511D01*
X61915489Y-56740460D01*
X61915491Y-56740461D01*
X61915495Y-56740464D01*
X61984004Y-56780017D01*
X61984011Y-56780021D01*
X62060438Y-56800500D01*
X62139562Y-56800500D01*
X65724167Y-56800500D01*
X65791206Y-56820185D01*
X65811848Y-56836819D01*
X65815489Y-56840460D01*
X65815491Y-56840461D01*
X65815495Y-56840464D01*
X65865341Y-56869242D01*
X65884011Y-56880021D01*
X65960438Y-56900500D01*
X66018983Y-56900500D01*
X66086022Y-56920185D01*
X66087850Y-56921382D01*
X66107505Y-56934515D01*
X66107507Y-56934515D01*
X66107507Y-56934516D01*
X66154400Y-56943843D01*
X66187867Y-56950500D01*
X66642132Y-56950499D01*
X66722495Y-56934515D01*
X66731106Y-56928760D01*
X66740805Y-56925723D01*
X66748489Y-56919066D01*
X66773587Y-56915457D01*
X66797782Y-56907881D01*
X66807584Y-56910569D01*
X66817648Y-56909123D01*
X66840711Y-56919656D01*
X66865163Y-56926363D01*
X66868879Y-56928751D01*
X66877505Y-56934515D01*
X66877506Y-56934515D01*
X66877507Y-56934516D01*
X66924400Y-56943843D01*
X66957867Y-56950500D01*
X67412132Y-56950499D01*
X67492495Y-56934515D01*
X67492497Y-56934513D01*
X67498716Y-56931938D01*
X67568186Y-56924471D01*
X67630665Y-56955747D01*
X67633848Y-56958819D01*
X69559540Y-58884511D01*
X69615489Y-58940460D01*
X69615491Y-58940461D01*
X69615495Y-58940464D01*
X69682873Y-58979364D01*
X69684011Y-58980021D01*
X69760438Y-59000500D01*
X69760440Y-59000500D01*
X72139560Y-59000500D01*
X72139562Y-59000500D01*
X72215989Y-58980021D01*
X72284511Y-58940460D01*
X72340460Y-58884511D01*
X73288152Y-57936819D01*
X73349475Y-57903334D01*
X73375833Y-57900500D01*
X73739560Y-57900500D01*
X73739562Y-57900500D01*
X73815989Y-57880021D01*
X73884511Y-57840460D01*
X73940460Y-57784511D01*
X74362320Y-57362649D01*
X74370263Y-57358312D01*
X74375689Y-57351065D01*
X74400448Y-57341830D01*
X74423641Y-57329166D01*
X74432670Y-57329811D01*
X74441153Y-57326648D01*
X74466973Y-57332264D01*
X74493332Y-57334150D01*
X74502385Y-57339968D01*
X74509426Y-57341500D01*
X74537680Y-57362651D01*
X74563456Y-57388427D01*
X74596941Y-57449750D01*
X74598714Y-57459920D01*
X74599500Y-57465891D01*
X74599500Y-57465892D01*
X74616554Y-57529539D01*
X74633608Y-57593187D01*
X74659151Y-57637428D01*
X74699500Y-57707314D01*
X74792686Y-57800500D01*
X74882252Y-57852211D01*
X74906810Y-57866390D01*
X74906814Y-57866392D01*
X75034108Y-57900500D01*
X75034110Y-57900500D01*
X75165890Y-57900500D01*
X75165892Y-57900500D01*
X75293186Y-57866392D01*
X75332481Y-57843705D01*
X75343528Y-57837327D01*
X75411427Y-57820853D01*
X75477455Y-57843705D01*
X75508631Y-57875821D01*
X75555888Y-57946545D01*
X75653454Y-58044111D01*
X75653458Y-58044114D01*
X75768182Y-58120771D01*
X75768195Y-58120778D01*
X75895667Y-58173578D01*
X75895672Y-58173580D01*
X75895676Y-58173580D01*
X75895677Y-58173581D01*
X76031004Y-58200500D01*
X76031007Y-58200500D01*
X76168995Y-58200500D01*
X76260041Y-58182389D01*
X76304328Y-58173580D01*
X76431811Y-58120775D01*
X76546542Y-58044114D01*
X76644114Y-57946542D01*
X76720775Y-57831811D01*
X76773580Y-57704328D01*
X76792675Y-57608331D01*
X76800500Y-57568995D01*
X76800500Y-57431004D01*
X76773581Y-57295677D01*
X76773580Y-57295676D01*
X76773580Y-57295672D01*
X76772108Y-57292118D01*
X76720778Y-57168195D01*
X76720771Y-57168182D01*
X76644114Y-57053458D01*
X76644111Y-57053454D01*
X76546544Y-56955887D01*
X76528518Y-56943843D01*
X76503229Y-56926945D01*
X76458426Y-56873335D01*
X76449935Y-56805742D01*
X76449903Y-56805739D01*
X76449917Y-56805595D01*
X76449718Y-56804010D01*
X76450500Y-56799674D01*
X76450500Y-55528856D01*
X76470185Y-55461817D01*
X76522989Y-55416062D01*
X76542395Y-55409085D01*
X76602485Y-55392984D01*
X76728015Y-55320509D01*
X76830509Y-55218015D01*
X76902984Y-55092485D01*
X76940500Y-54952475D01*
X76940500Y-54874038D01*
X79899500Y-54874038D01*
X79899500Y-55125962D01*
X79906016Y-55167100D01*
X79938910Y-55374785D01*
X80016760Y-55614383D01*
X80093750Y-55765483D01*
X80124092Y-55825033D01*
X80131132Y-55838848D01*
X80279201Y-56042649D01*
X80279205Y-56042654D01*
X80457345Y-56220794D01*
X80457350Y-56220798D01*
X80635117Y-56349952D01*
X80661155Y-56368870D01*
X80803837Y-56441570D01*
X80885616Y-56483239D01*
X80885618Y-56483239D01*
X80885621Y-56483241D01*
X81125215Y-56561090D01*
X81374038Y-56600500D01*
X81374039Y-56600500D01*
X81625961Y-56600500D01*
X81625962Y-56600500D01*
X81874785Y-56561090D01*
X82114379Y-56483241D01*
X82338845Y-56368870D01*
X82542656Y-56220793D01*
X82720793Y-56042656D01*
X82868870Y-55838845D01*
X82983241Y-55614379D01*
X83061090Y-55374785D01*
X83100500Y-55125962D01*
X83100500Y-54874038D01*
X83061090Y-54625215D01*
X82983241Y-54385621D01*
X82983239Y-54385618D01*
X82983239Y-54385616D01*
X82922668Y-54266740D01*
X82868870Y-54161155D01*
X82824801Y-54100499D01*
X82720798Y-53957350D01*
X82720794Y-53957345D01*
X82542654Y-53779205D01*
X82542649Y-53779201D01*
X82338848Y-53631132D01*
X82338847Y-53631131D01*
X82338845Y-53631130D01*
X82268747Y-53595413D01*
X82114383Y-53516760D01*
X81874785Y-53438910D01*
X81838298Y-53433131D01*
X81625962Y-53399500D01*
X81374038Y-53399500D01*
X81249626Y-53419205D01*
X81125214Y-53438910D01*
X80885616Y-53516760D01*
X80661151Y-53631132D01*
X80457350Y-53779201D01*
X80457345Y-53779205D01*
X80279205Y-53957345D01*
X80279201Y-53957350D01*
X80131132Y-54161151D01*
X80016760Y-54385616D01*
X79938910Y-54625214D01*
X79927144Y-54699500D01*
X79899500Y-54874038D01*
X76940500Y-54874038D01*
X76940500Y-54807525D01*
X76902984Y-54667515D01*
X76878561Y-54625214D01*
X76830511Y-54541988D01*
X76830506Y-54541982D01*
X76728017Y-54439493D01*
X76728011Y-54439488D01*
X76602488Y-54367017D01*
X76602489Y-54367017D01*
X76591006Y-54363940D01*
X76462475Y-54329500D01*
X76317525Y-54329500D01*
X76188993Y-54363940D01*
X76177511Y-54367017D01*
X76051988Y-54439488D01*
X76051982Y-54439493D01*
X75949493Y-54541982D01*
X75949488Y-54541988D01*
X75877017Y-54667511D01*
X75877016Y-54667515D01*
X75839500Y-54807525D01*
X75839500Y-54952475D01*
X75857166Y-55018408D01*
X75855504Y-55088256D01*
X75816342Y-55146119D01*
X75760908Y-55172250D01*
X75749259Y-55174500D01*
X75675326Y-55174500D01*
X75602260Y-55189034D01*
X75573084Y-55208527D01*
X75548516Y-55213273D01*
X75537636Y-55212238D01*
X75527209Y-55215503D01*
X75503469Y-55208989D01*
X75478960Y-55206659D01*
X75470367Y-55199907D01*
X75459829Y-55197016D01*
X75456113Y-55194628D01*
X75450720Y-55191025D01*
X75447740Y-55189034D01*
X75447739Y-55189033D01*
X75447740Y-55189033D01*
X75374676Y-55174500D01*
X75374674Y-55174500D01*
X75125326Y-55174500D01*
X75125324Y-55174500D01*
X75052259Y-55189033D01*
X75047452Y-55191025D01*
X74977983Y-55198494D01*
X74952548Y-55191025D01*
X74947740Y-55189033D01*
X74874676Y-55174500D01*
X74874674Y-55174500D01*
X74625326Y-55174500D01*
X74624989Y-55174500D01*
X74557950Y-55154815D01*
X74517602Y-55112500D01*
X74490462Y-55065492D01*
X74490458Y-55065487D01*
X74184512Y-54759541D01*
X74184504Y-54759535D01*
X74115995Y-54719982D01*
X74115990Y-54719979D01*
X74090513Y-54713152D01*
X74039562Y-54699500D01*
X73460438Y-54699500D01*
X73422224Y-54709739D01*
X73384009Y-54719979D01*
X73384004Y-54719982D01*
X73315495Y-54759535D01*
X73315487Y-54759541D01*
X73009541Y-55065487D01*
X73009537Y-55065492D01*
X72982398Y-55112500D01*
X72931831Y-55160715D01*
X72875011Y-55174500D01*
X72625324Y-55174500D01*
X72552259Y-55189033D01*
X72547452Y-55191025D01*
X72477983Y-55198494D01*
X72452548Y-55191025D01*
X72447740Y-55189033D01*
X72374676Y-55174500D01*
X72374674Y-55174500D01*
X72125326Y-55174500D01*
X72125324Y-55174500D01*
X72052259Y-55189033D01*
X72047452Y-55191025D01*
X71977983Y-55198494D01*
X71952548Y-55191025D01*
X71947740Y-55189033D01*
X71874676Y-55174500D01*
X71874674Y-55174500D01*
X71625326Y-55174500D01*
X71625324Y-55174500D01*
X71552260Y-55189033D01*
X71543887Y-55194628D01*
X71477209Y-55215503D01*
X71451484Y-55213273D01*
X71426915Y-55208527D01*
X71397740Y-55189034D01*
X71324674Y-55174500D01*
X71250741Y-55174500D01*
X71239092Y-55172250D01*
X71218161Y-55161448D01*
X71195569Y-55154815D01*
X71187693Y-55145726D01*
X71177002Y-55140209D01*
X71165233Y-55119805D01*
X71149814Y-55102011D01*
X71148102Y-55090105D01*
X71142092Y-55079686D01*
X71143221Y-55056163D01*
X71139870Y-55032853D01*
X71142830Y-55018416D01*
X71160500Y-54952475D01*
X71160500Y-54807525D01*
X71122984Y-54667515D01*
X71098561Y-54625214D01*
X71050511Y-54541988D01*
X71050506Y-54541982D01*
X70948017Y-54439493D01*
X70948011Y-54439488D01*
X70822488Y-54367017D01*
X70822489Y-54367017D01*
X70811006Y-54363940D01*
X70682475Y-54329500D01*
X70537525Y-54329500D01*
X70408993Y-54363940D01*
X70397511Y-54367017D01*
X70271988Y-54439488D01*
X70271982Y-54439493D01*
X70169493Y-54541982D01*
X70169488Y-54541988D01*
X70097017Y-54667511D01*
X70097016Y-54667515D01*
X70059500Y-54807525D01*
X70059500Y-54952475D01*
X70095883Y-55088256D01*
X70097017Y-55092488D01*
X70169488Y-55218011D01*
X70169490Y-55218013D01*
X70169491Y-55218015D01*
X70271985Y-55320509D01*
X70271986Y-55320510D01*
X70271988Y-55320511D01*
X70397511Y-55392982D01*
X70397512Y-55392982D01*
X70397515Y-55392984D01*
X70457596Y-55409082D01*
X70517253Y-55445445D01*
X70547783Y-55508292D01*
X70549500Y-55528856D01*
X70549500Y-56799676D01*
X70550097Y-56805739D01*
X70548939Y-56805852D01*
X70543268Y-56869242D01*
X70500406Y-56924420D01*
X70496770Y-56926944D01*
X70453461Y-56955883D01*
X70453454Y-56955888D01*
X70355888Y-57053454D01*
X70355885Y-57053458D01*
X70279228Y-57168182D01*
X70279221Y-57168195D01*
X70226421Y-57295667D01*
X70226418Y-57295677D01*
X70199500Y-57431004D01*
X70199500Y-57431007D01*
X70199500Y-57568993D01*
X70199500Y-57568995D01*
X70199499Y-57568995D01*
X70226418Y-57704322D01*
X70226421Y-57704332D01*
X70268665Y-57806319D01*
X70276134Y-57875788D01*
X70244858Y-57938267D01*
X70184769Y-57973919D01*
X70114944Y-57971425D01*
X70066423Y-57941452D01*
X67984512Y-55859541D01*
X67984507Y-55859537D01*
X67975065Y-55854086D01*
X67975064Y-55854086D01*
X67915991Y-55819980D01*
X67915990Y-55819979D01*
X67890513Y-55813152D01*
X67839562Y-55799500D01*
X67839560Y-55799500D01*
X67581017Y-55799500D01*
X67513978Y-55779815D01*
X67512127Y-55778603D01*
X67512124Y-55778601D01*
X67492495Y-55765485D01*
X67492492Y-55765484D01*
X67492492Y-55765483D01*
X67412135Y-55749500D01*
X66957870Y-55749500D01*
X66877503Y-55765485D01*
X66877499Y-55765487D01*
X66868887Y-55771242D01*
X66802209Y-55792118D01*
X66734829Y-55773632D01*
X66731110Y-55771241D01*
X66722495Y-55765485D01*
X66722492Y-55765483D01*
X66642135Y-55749500D01*
X66187870Y-55749500D01*
X66107503Y-55765485D01*
X66107500Y-55765486D01*
X66087875Y-55778601D01*
X66021198Y-55799480D01*
X66018983Y-55799500D01*
X62612370Y-55799500D01*
X62545331Y-55779815D01*
X62499576Y-55727011D01*
X62489632Y-55657853D01*
X62489665Y-55657623D01*
X62495965Y-55614383D01*
X62500500Y-55583260D01*
X62500500Y-54266740D01*
X62490573Y-54198607D01*
X62439198Y-54093517D01*
X62439196Y-54093515D01*
X62439196Y-54093514D01*
X62414677Y-54068995D01*
X63399499Y-54068995D01*
X63426418Y-54204322D01*
X63426421Y-54204332D01*
X63479221Y-54331804D01*
X63479228Y-54331817D01*
X63555885Y-54446541D01*
X63555888Y-54446545D01*
X63653454Y-54544111D01*
X63653458Y-54544114D01*
X63768182Y-54620771D01*
X63768195Y-54620778D01*
X63895667Y-54673578D01*
X63895672Y-54673580D01*
X63895676Y-54673580D01*
X63895677Y-54673581D01*
X64031004Y-54700500D01*
X64031007Y-54700500D01*
X64168995Y-54700500D01*
X64260041Y-54682389D01*
X64304328Y-54673580D01*
X64431811Y-54620775D01*
X64546542Y-54544114D01*
X64644114Y-54446542D01*
X64720775Y-54331811D01*
X64773580Y-54204328D01*
X64794233Y-54100499D01*
X64800500Y-54068995D01*
X64800500Y-53931004D01*
X64773581Y-53795677D01*
X64773580Y-53795676D01*
X64773580Y-53795672D01*
X64766758Y-53779201D01*
X64720778Y-53668195D01*
X64720771Y-53668182D01*
X64647623Y-53558709D01*
X64626745Y-53492032D01*
X64645229Y-53424651D01*
X64677092Y-53390048D01*
X64698929Y-53373931D01*
X64732684Y-53328196D01*
X64778455Y-53266179D01*
X64822686Y-53139774D01*
X64825500Y-53109764D01*
X64825500Y-52393475D01*
X65274500Y-52393475D01*
X65274500Y-53006517D01*
X65276665Y-53020185D01*
X65289354Y-53100304D01*
X65346950Y-53213342D01*
X65346952Y-53213344D01*
X65346954Y-53213347D01*
X65436652Y-53303045D01*
X65436654Y-53303046D01*
X65436658Y-53303050D01*
X65549696Y-53360646D01*
X65549698Y-53360647D01*
X65643475Y-53375499D01*
X65643481Y-53375500D01*
X66007194Y-53375499D01*
X66025092Y-53380754D01*
X66043743Y-53381008D01*
X66057918Y-53390392D01*
X66074233Y-53395183D01*
X66086449Y-53409281D01*
X66102002Y-53419578D01*
X66108853Y-53435137D01*
X66119988Y-53447987D01*
X66122642Y-53466451D01*
X66130160Y-53483522D01*
X66128560Y-53507610D01*
X66129932Y-53517146D01*
X66129681Y-53518813D01*
X66128662Y-53525269D01*
X66099500Y-53634108D01*
X66099500Y-53710218D01*
X66097987Y-53719814D01*
X66087030Y-53742967D01*
X66079815Y-53767539D01*
X66072334Y-53774020D01*
X66068100Y-53782969D01*
X66046365Y-53796522D01*
X66027011Y-53813294D01*
X66015434Y-53815812D01*
X66008814Y-53819941D01*
X65997183Y-53819782D01*
X65975500Y-53824500D01*
X65643482Y-53824500D01*
X65562519Y-53837323D01*
X65549696Y-53839354D01*
X65436658Y-53896950D01*
X65436657Y-53896951D01*
X65436652Y-53896954D01*
X65346954Y-53986652D01*
X65346951Y-53986657D01*
X65346950Y-53986658D01*
X65332054Y-54015893D01*
X65289352Y-54099698D01*
X65274500Y-54193475D01*
X65274500Y-54806517D01*
X65278679Y-54832900D01*
X65289354Y-54900304D01*
X65346950Y-55013342D01*
X65346952Y-55013344D01*
X65346954Y-55013347D01*
X65436652Y-55103045D01*
X65436654Y-55103046D01*
X65436658Y-55103050D01*
X65538252Y-55154815D01*
X65549698Y-55160647D01*
X65643475Y-55175499D01*
X65643481Y-55175500D01*
X66106518Y-55175499D01*
X66200304Y-55160646D01*
X66313342Y-55103050D01*
X66403050Y-55013342D01*
X66460646Y-54900304D01*
X66460646Y-54900302D01*
X66460647Y-54900301D01*
X66475340Y-54807527D01*
X66475500Y-54806519D01*
X66475499Y-54324499D01*
X66495183Y-54257461D01*
X66547987Y-54211706D01*
X66599499Y-54200500D01*
X66665890Y-54200500D01*
X66665892Y-54200500D01*
X66793186Y-54166392D01*
X66907314Y-54100500D01*
X67000500Y-54007314D01*
X67066392Y-53893186D01*
X67100500Y-53765892D01*
X67100500Y-53634108D01*
X67066392Y-53506814D01*
X67000500Y-53392686D01*
X66907314Y-53299500D01*
X66849599Y-53266178D01*
X66793187Y-53233608D01*
X66717570Y-53213347D01*
X66665892Y-53199500D01*
X66590121Y-53199500D01*
X66523082Y-53179815D01*
X66477327Y-53127011D01*
X66467383Y-53057853D01*
X66467648Y-53056103D01*
X66475499Y-53006525D01*
X66475500Y-53006519D01*
X66475499Y-52524499D01*
X66495183Y-52457461D01*
X66547987Y-52411706D01*
X66599499Y-52400500D01*
X66665890Y-52400500D01*
X66665892Y-52400500D01*
X66793186Y-52366392D01*
X66907314Y-52300500D01*
X67000500Y-52207314D01*
X67066392Y-52093186D01*
X67100500Y-51965892D01*
X67100500Y-51834108D01*
X67066392Y-51706814D01*
X67063794Y-51702315D01*
X67057563Y-51691521D01*
X67000500Y-51592686D01*
X66907314Y-51499500D01*
X66833434Y-51456845D01*
X66793187Y-51433608D01*
X66729539Y-51416554D01*
X66665892Y-51399500D01*
X66534108Y-51399500D01*
X66406812Y-51433608D01*
X66292686Y-51499500D01*
X66292683Y-51499502D01*
X66199502Y-51592683D01*
X66199500Y-51592686D01*
X66133608Y-51706812D01*
X66099500Y-51834108D01*
X66099500Y-51900500D01*
X66079815Y-51967539D01*
X66027011Y-52013294D01*
X65975500Y-52024500D01*
X65643482Y-52024500D01*
X65562519Y-52037323D01*
X65549696Y-52039354D01*
X65436658Y-52096950D01*
X65436657Y-52096951D01*
X65436652Y-52096954D01*
X65346954Y-52186652D01*
X65346951Y-52186657D01*
X65346950Y-52186658D01*
X65343205Y-52194008D01*
X65289352Y-52299698D01*
X65274500Y-52393475D01*
X64825500Y-52393475D01*
X64825500Y-52090236D01*
X64822686Y-52060226D01*
X64822684Y-52060222D01*
X64822684Y-52060218D01*
X64778455Y-51933821D01*
X64778454Y-51933819D01*
X64698930Y-51826069D01*
X64591180Y-51746545D01*
X64591178Y-51746544D01*
X64464781Y-51702315D01*
X64464769Y-51702313D01*
X64434768Y-51699500D01*
X64434764Y-51699500D01*
X63840236Y-51699500D01*
X63840232Y-51699500D01*
X63810230Y-51702313D01*
X63810218Y-51702315D01*
X63683821Y-51746544D01*
X63683819Y-51746545D01*
X63576069Y-51826069D01*
X63496545Y-51933819D01*
X63496544Y-51933821D01*
X63452315Y-52060218D01*
X63452313Y-52060230D01*
X63449500Y-52090231D01*
X63449500Y-53109768D01*
X63452313Y-53139769D01*
X63452315Y-53139781D01*
X63496544Y-53266178D01*
X63496545Y-53266180D01*
X63580365Y-53379751D01*
X63604336Y-53445380D01*
X63589021Y-53513550D01*
X63568279Y-53541064D01*
X63555885Y-53553458D01*
X63479228Y-53668182D01*
X63479221Y-53668195D01*
X63426421Y-53795667D01*
X63426418Y-53795677D01*
X63399500Y-53931004D01*
X63399500Y-53931007D01*
X63399500Y-54068993D01*
X63399500Y-54068995D01*
X63399499Y-54068995D01*
X62414677Y-54068995D01*
X62356485Y-54010803D01*
X62251391Y-53959426D01*
X62183261Y-53949500D01*
X62183260Y-53949500D01*
X61816740Y-53949500D01*
X61816739Y-53949500D01*
X61748608Y-53959426D01*
X61643514Y-54010803D01*
X61587681Y-54066637D01*
X61526358Y-54100122D01*
X61456666Y-54095138D01*
X61412319Y-54066637D01*
X61356485Y-54010803D01*
X61251391Y-53959426D01*
X61183261Y-53949500D01*
X61183260Y-53949500D01*
X60816740Y-53949500D01*
X60799244Y-53952049D01*
X60777052Y-53955282D01*
X60707875Y-53945467D01*
X60654986Y-53899810D01*
X60635177Y-53832808D01*
X60654737Y-53765732D01*
X60671491Y-53744901D01*
X60920480Y-53495913D01*
X60973207Y-53404588D01*
X61000500Y-53302727D01*
X61000500Y-53197273D01*
X61000500Y-53124500D01*
X61020185Y-53057461D01*
X61072989Y-53011706D01*
X61124500Y-53000500D01*
X61451338Y-53000500D01*
X61518377Y-53020185D01*
X61564132Y-53072989D01*
X61574796Y-53112924D01*
X61577313Y-53139769D01*
X61577315Y-53139781D01*
X61621544Y-53266178D01*
X61621545Y-53266180D01*
X61701069Y-53373930D01*
X61808819Y-53453454D01*
X61808821Y-53453455D01*
X61935218Y-53497684D01*
X61935222Y-53497684D01*
X61935226Y-53497686D01*
X61950231Y-53499093D01*
X61965232Y-53500500D01*
X61965236Y-53500500D01*
X62559768Y-53500500D01*
X62573101Y-53499249D01*
X62589774Y-53497686D01*
X62589778Y-53497684D01*
X62589781Y-53497684D01*
X62660845Y-53472816D01*
X62716179Y-53453455D01*
X62823930Y-53373930D01*
X62903455Y-53266179D01*
X62947686Y-53139774D01*
X62950500Y-53109764D01*
X62950500Y-52090236D01*
X62947686Y-52060226D01*
X62947684Y-52060222D01*
X62947684Y-52060218D01*
X62903455Y-51933821D01*
X62903454Y-51933819D01*
X62823930Y-51826069D01*
X62716180Y-51746545D01*
X62716178Y-51746544D01*
X62589781Y-51702315D01*
X62589769Y-51702313D01*
X62559768Y-51699500D01*
X62559764Y-51699500D01*
X61965236Y-51699500D01*
X61965232Y-51699500D01*
X61935230Y-51702313D01*
X61935218Y-51702315D01*
X61808821Y-51746544D01*
X61808819Y-51746545D01*
X61701069Y-51826069D01*
X61621545Y-51933819D01*
X61621544Y-51933821D01*
X61577315Y-52060218D01*
X61577313Y-52060230D01*
X61574796Y-52087076D01*
X61548939Y-52151985D01*
X61492095Y-52192611D01*
X61451338Y-52199500D01*
X61096543Y-52199500D01*
X61029504Y-52179815D01*
X61008866Y-52163185D01*
X60956483Y-52110802D01*
X60851393Y-52059427D01*
X60851391Y-52059426D01*
X60783261Y-52049500D01*
X60783260Y-52049500D01*
X60416740Y-52049500D01*
X60416739Y-52049500D01*
X60348608Y-52059426D01*
X60243514Y-52110803D01*
X60160803Y-52193514D01*
X60109426Y-52298608D01*
X60099500Y-52366739D01*
X60099500Y-52833260D01*
X60109426Y-52901392D01*
X60109426Y-52901393D01*
X60160112Y-53005074D01*
X60171870Y-53073947D01*
X60144527Y-53138244D01*
X60136392Y-53147214D01*
X59679522Y-53604084D01*
X59679518Y-53604090D01*
X59626792Y-53695412D01*
X59626793Y-53695413D01*
X59599500Y-53797273D01*
X59599500Y-54003456D01*
X59579815Y-54070495D01*
X59563181Y-54091137D01*
X59560803Y-54093514D01*
X59509426Y-54198608D01*
X59499500Y-54266739D01*
X57884658Y-54266739D01*
X57863714Y-54174978D01*
X57753335Y-53859531D01*
X57608330Y-53558427D01*
X57430525Y-53275451D01*
X57222154Y-53014162D01*
X56985838Y-52777846D01*
X56724549Y-52569475D01*
X56441573Y-52391670D01*
X56441570Y-52391668D01*
X56140472Y-52246666D01*
X55825033Y-52136289D01*
X55825025Y-52136286D01*
X55573353Y-52078844D01*
X55499200Y-52061919D01*
X55499196Y-52061918D01*
X55499187Y-52061917D01*
X55167104Y-52024500D01*
X55167100Y-52024500D01*
X54832900Y-52024500D01*
X54832895Y-52024500D01*
X54500812Y-52061917D01*
X54500795Y-52061919D01*
X54416725Y-52081108D01*
X54416707Y-52081106D01*
X54416691Y-52081116D01*
X54379798Y-52078844D01*
X54346986Y-52076834D01*
X54346972Y-52076824D01*
X54346953Y-52076823D01*
X54316081Y-52054186D01*
X54290629Y-52035535D01*
X54290623Y-52035519D01*
X54290607Y-52035508D01*
X54277187Y-52000587D01*
X54265546Y-51970323D01*
X54265549Y-51970305D01*
X54265543Y-51970289D01*
X54272791Y-51935300D01*
X54279701Y-51901903D01*
X54279714Y-51901884D01*
X54279717Y-51901872D01*
X54300580Y-51873417D01*
X54406115Y-51765768D01*
X54414375Y-51758079D01*
X54474737Y-51706814D01*
X54713331Y-51504177D01*
X54722250Y-51497277D01*
X55041220Y-51272986D01*
X55049196Y-51267825D01*
X55268677Y-51137476D01*
X55275340Y-51133791D01*
X55495751Y-51020623D01*
X55502348Y-51017478D01*
X55725794Y-50918970D01*
X55732198Y-50916358D01*
X55958584Y-50831381D01*
X55964667Y-50829279D01*
X56193779Y-50756802D01*
X56199571Y-50755125D01*
X56431009Y-50694205D01*
X56436412Y-50692911D01*
X56669901Y-50642563D01*
X56674814Y-50641609D01*
X56904926Y-50601755D01*
X56911378Y-50600812D01*
X57390411Y-50543683D01*
X57397294Y-50543057D01*
X57869675Y-50513500D01*
X57874463Y-50513294D01*
X58342065Y-50502159D01*
X58344482Y-50502126D01*
X58801542Y-50500501D01*
X58801983Y-50500500D01*
X77698017Y-50500500D01*
X77698458Y-50500501D01*
G37*
%TD.AperFunction*%
%TD*%
M02*
