%TF.GenerationSoftware,KiCad,Pcbnew,9.0.6*%
%TF.CreationDate,2025-12-29T00:57:43+09:00*%
%TF.ProjectId,muon,6d756f6e-2e6b-4696-9361-645f70636258,rev?*%
%TF.SameCoordinates,Original*%
%TF.FileFunction,Copper,L2,Bot*%
%TF.FilePolarity,Positive*%
%FSLAX46Y46*%
G04 Gerber Fmt 4.6, Leading zero omitted, Abs format (unit mm)*
G04 Created by KiCad (PCBNEW 9.0.6) date 2025-12-29 00:57:43*
%MOMM*%
%LPD*%
G01*
G04 APERTURE LIST*
%TA.AperFunction,ComponentPad*%
%ADD10O,1.000000X2.100000*%
%TD*%
%TA.AperFunction,ComponentPad*%
%ADD11O,1.000000X1.800000*%
%TD*%
%TA.AperFunction,ViaPad*%
%ADD12C,0.600000*%
%TD*%
%TA.AperFunction,ViaPad*%
%ADD13C,1.000000*%
%TD*%
%TA.AperFunction,Conductor*%
%ADD14C,0.400000*%
%TD*%
%TA.AperFunction,Conductor*%
%ADD15C,0.200000*%
%TD*%
G04 APERTURE END LIST*
D10*
%TO.P,J1,S1,SHIELD*%
%TO.N,GND*%
X77820000Y-55380000D03*
D11*
X77820000Y-51200000D03*
D10*
X69180000Y-55380000D03*
D11*
X69180000Y-51200000D03*
%TD*%
D12*
%TO.N,GND*%
X63800000Y-55200000D03*
X68000000Y-57800000D03*
X69900000Y-57300000D03*
X65600000Y-57200000D03*
X63100000Y-53600000D03*
X77100000Y-57400000D03*
X61300000Y-53500000D03*
X58400000Y-52600000D03*
X59200000Y-51800000D03*
X55400000Y-51600000D03*
X55400000Y-58400000D03*
D13*
%TO.N,VBUS*%
X76100000Y-57500000D03*
X64100000Y-54000000D03*
X70900000Y-57500000D03*
D12*
%TO.N,Net-(J1-CC2)*%
X71900000Y-57400000D03*
X66600000Y-53700000D03*
%TO.N,Net-(J1-CC1)*%
X75100000Y-57400000D03*
X66600000Y-51900000D03*
%TD*%
D14*
%TO.N,VBUS*%
X70900000Y-57500000D02*
X70900000Y-57400000D01*
X66950000Y-54400000D02*
X64500000Y-54400000D01*
X71600000Y-54500000D02*
X71000000Y-53900000D01*
X75500000Y-58100000D02*
X71500000Y-58100000D01*
X71600000Y-56700000D02*
X71600000Y-54500000D01*
X71500000Y-58100000D02*
X70900000Y-57500000D01*
X67450000Y-53900000D02*
X66950000Y-54400000D01*
X64500000Y-54400000D02*
X64100000Y-54000000D01*
X71000000Y-53900000D02*
X67450000Y-53900000D01*
X70900000Y-57400000D02*
X71600000Y-56700000D01*
X76100000Y-57500000D02*
X75500000Y-58100000D01*
D15*
%TO.N,Net-(J1-CC2)*%
X66600000Y-53700000D02*
X66900000Y-53700000D01*
X66900000Y-53700000D02*
X67200000Y-53400000D01*
X67200000Y-53400000D02*
X71250000Y-53400000D01*
X72100000Y-57200000D02*
X71900000Y-57400000D01*
X72100000Y-54250000D02*
X72100000Y-57200000D01*
X71250000Y-53400000D02*
X72100000Y-54250000D01*
%TO.N,Net-(J1-CC1)*%
X72500000Y-54050000D02*
X71450000Y-53000000D01*
X67200000Y-53000000D02*
X66600000Y-52400000D01*
X72900000Y-57600000D02*
X72500000Y-57200000D01*
X75100000Y-57400000D02*
X74900000Y-57600000D01*
X72500000Y-57200000D02*
X72500000Y-54050000D01*
X66600000Y-52400000D02*
X66600000Y-51900000D01*
X74900000Y-57600000D02*
X72900000Y-57600000D01*
X71450000Y-53000000D02*
X67200000Y-53000000D01*
%TD*%
%TA.AperFunction,Conductor*%
%TO.N,GND*%
G36*
X77698458Y-50500501D02*
G01*
X78155514Y-50502126D01*
X78157934Y-50502159D01*
X78625580Y-50513295D01*
X78630276Y-50513497D01*
X79102707Y-50543057D01*
X79109586Y-50543683D01*
X79588614Y-50600812D01*
X79595077Y-50601756D01*
X79825175Y-50641607D01*
X79830106Y-50642565D01*
X80063569Y-50692908D01*
X80068994Y-50694206D01*
X80300420Y-50755124D01*
X80306246Y-50756811D01*
X80535308Y-50829271D01*
X80541426Y-50831385D01*
X80767788Y-50916354D01*
X80774197Y-50918967D01*
X80997662Y-51017485D01*
X81004259Y-51020629D01*
X81185392Y-51113630D01*
X81224650Y-51133787D01*
X81231331Y-51137482D01*
X81450786Y-51267815D01*
X81458793Y-51272997D01*
X81777736Y-51497268D01*
X81786681Y-51504188D01*
X82085624Y-51758079D01*
X82093894Y-51765779D01*
X82368470Y-52045855D01*
X82375991Y-52054262D01*
X82623913Y-52358195D01*
X82630640Y-52367257D01*
X82766923Y-52569477D01*
X82849833Y-52692502D01*
X82855719Y-52702159D01*
X83044358Y-53046004D01*
X83049340Y-53056156D01*
X83205874Y-53415769D01*
X83209910Y-53426333D01*
X83333028Y-53798706D01*
X83336085Y-53809594D01*
X83424766Y-54191640D01*
X83426818Y-54202762D01*
X83480323Y-54591295D01*
X83481353Y-54602557D01*
X83499237Y-54994346D01*
X83499237Y-55005654D01*
X83481353Y-55397442D01*
X83480323Y-55408704D01*
X83426818Y-55797237D01*
X83424766Y-55808359D01*
X83336085Y-56190405D01*
X83333028Y-56201293D01*
X83209910Y-56573666D01*
X83205874Y-56584230D01*
X83049340Y-56943843D01*
X83044358Y-56953995D01*
X82855719Y-57297840D01*
X82849833Y-57307497D01*
X82630647Y-57632733D01*
X82623906Y-57641813D01*
X82375996Y-57945732D01*
X82368460Y-57954154D01*
X82280271Y-58044111D01*
X82093900Y-58234215D01*
X82085624Y-58241920D01*
X81786688Y-58495805D01*
X81777743Y-58502726D01*
X81458784Y-58727007D01*
X81450777Y-58732188D01*
X81231331Y-58862516D01*
X81224650Y-58866211D01*
X81004268Y-58979364D01*
X80997653Y-58982517D01*
X80774209Y-59081026D01*
X80767764Y-59083654D01*
X80668437Y-59120937D01*
X80541459Y-59168600D01*
X80535289Y-59170733D01*
X80306244Y-59243187D01*
X80300411Y-59244876D01*
X80068996Y-59305791D01*
X80063569Y-59307090D01*
X79830129Y-59357428D01*
X79825152Y-59358395D01*
X79595084Y-59398241D01*
X79588607Y-59399187D01*
X79109616Y-59456312D01*
X79102676Y-59456943D01*
X78630324Y-59486498D01*
X78625532Y-59486705D01*
X78157979Y-59497838D01*
X78155468Y-59497872D01*
X77698458Y-59499499D01*
X77698017Y-59499500D01*
X58801983Y-59499500D01*
X58801542Y-59499499D01*
X58344530Y-59497872D01*
X58342019Y-59497838D01*
X57874464Y-59486704D01*
X57869673Y-59486497D01*
X57397323Y-59456943D01*
X57390382Y-59456312D01*
X56911391Y-59399187D01*
X56904914Y-59398241D01*
X56674846Y-59358395D01*
X56669869Y-59357428D01*
X56436424Y-59307089D01*
X56430997Y-59305790D01*
X56199592Y-59244878D01*
X56193758Y-59243189D01*
X56037426Y-59193736D01*
X55964701Y-59170730D01*
X55958550Y-59168605D01*
X55784640Y-59103325D01*
X55732224Y-59083650D01*
X55725780Y-59081022D01*
X55502358Y-58982524D01*
X55495741Y-58979370D01*
X55275349Y-58866211D01*
X55268669Y-58862517D01*
X55049221Y-58732188D01*
X55041214Y-58727007D01*
X54722256Y-58502726D01*
X54713311Y-58495805D01*
X54414375Y-58241920D01*
X54406099Y-58234215D01*
X54300585Y-58126587D01*
X54267711Y-58064938D01*
X54273387Y-57995299D01*
X54315810Y-57939783D01*
X54381513Y-57916016D01*
X54416721Y-57918890D01*
X54500800Y-57938081D01*
X54832896Y-57975499D01*
X54832897Y-57975500D01*
X54832900Y-57975500D01*
X55167103Y-57975500D01*
X55167103Y-57975499D01*
X55499200Y-57938081D01*
X55825022Y-57863714D01*
X56140469Y-57753335D01*
X56441573Y-57608330D01*
X56724549Y-57430525D01*
X56985838Y-57222154D01*
X57222154Y-56985838D01*
X57430525Y-56724549D01*
X57608330Y-56441573D01*
X57753335Y-56140469D01*
X57863714Y-55825022D01*
X57938081Y-55499200D01*
X57975500Y-55167100D01*
X57975500Y-54832900D01*
X57938081Y-54500800D01*
X57863714Y-54174978D01*
X57826629Y-54068995D01*
X63399499Y-54068995D01*
X63426418Y-54204322D01*
X63426421Y-54204332D01*
X63479221Y-54331804D01*
X63479228Y-54331817D01*
X63555885Y-54446541D01*
X63555888Y-54446545D01*
X63653454Y-54544111D01*
X63653458Y-54544114D01*
X63768182Y-54620771D01*
X63768195Y-54620778D01*
X63895667Y-54673578D01*
X63895672Y-54673580D01*
X63895676Y-54673580D01*
X63895677Y-54673581D01*
X64031004Y-54700500D01*
X64031007Y-54700500D01*
X64168991Y-54700500D01*
X64168993Y-54700500D01*
X64168994Y-54700499D01*
X64172565Y-54700148D01*
X64174421Y-54700500D01*
X64175085Y-54700500D01*
X64175085Y-54700625D01*
X64241212Y-54713167D01*
X64246863Y-54716736D01*
X64247049Y-54716416D01*
X64254085Y-54720478D01*
X64254087Y-54720480D01*
X64345413Y-54773207D01*
X64447273Y-54800500D01*
X64447275Y-54800500D01*
X67002725Y-54800500D01*
X67002727Y-54800500D01*
X67104588Y-54773207D01*
X67195913Y-54720480D01*
X67579573Y-54336818D01*
X67640896Y-54303334D01*
X67667254Y-54300500D01*
X70111614Y-54300500D01*
X70178653Y-54320185D01*
X70224408Y-54372989D01*
X70234352Y-54442147D01*
X70205327Y-54505703D01*
X70199295Y-54512181D01*
X70169493Y-54541982D01*
X70169488Y-54541988D01*
X70097017Y-54667511D01*
X70097016Y-54667515D01*
X70059500Y-54807525D01*
X70059500Y-54952475D01*
X70097016Y-55092485D01*
X70097017Y-55092488D01*
X70169488Y-55218011D01*
X70169490Y-55218013D01*
X70169491Y-55218015D01*
X70271985Y-55320509D01*
X70271986Y-55320510D01*
X70271988Y-55320511D01*
X70397511Y-55392982D01*
X70397512Y-55392982D01*
X70397515Y-55392984D01*
X70537525Y-55430500D01*
X70537528Y-55430500D01*
X70682472Y-55430500D01*
X70682475Y-55430500D01*
X70822485Y-55392984D01*
X70948015Y-55320509D01*
X70987819Y-55280705D01*
X71049142Y-55247220D01*
X71118834Y-55252204D01*
X71174767Y-55294076D01*
X71199184Y-55359540D01*
X71199500Y-55368386D01*
X71199500Y-56482745D01*
X71179815Y-56549784D01*
X71163181Y-56570426D01*
X70970426Y-56763181D01*
X70909103Y-56796666D01*
X70882745Y-56799500D01*
X70831005Y-56799500D01*
X70695677Y-56826418D01*
X70695667Y-56826421D01*
X70568195Y-56879221D01*
X70568182Y-56879228D01*
X70453458Y-56955885D01*
X70453454Y-56955888D01*
X70355888Y-57053454D01*
X70355885Y-57053458D01*
X70279228Y-57168182D01*
X70279221Y-57168195D01*
X70226421Y-57295667D01*
X70226418Y-57295677D01*
X70199500Y-57431004D01*
X70199500Y-57431007D01*
X70199500Y-57568993D01*
X70199500Y-57568995D01*
X70199499Y-57568995D01*
X70226418Y-57704322D01*
X70226421Y-57704332D01*
X70279221Y-57831804D01*
X70279228Y-57831817D01*
X70355885Y-57946541D01*
X70355888Y-57946545D01*
X70453454Y-58044111D01*
X70453458Y-58044114D01*
X70568182Y-58120771D01*
X70568195Y-58120778D01*
X70695667Y-58173578D01*
X70695672Y-58173580D01*
X70695676Y-58173580D01*
X70695677Y-58173581D01*
X70831004Y-58200500D01*
X70831007Y-58200500D01*
X70968987Y-58200500D01*
X70968993Y-58200500D01*
X70968998Y-58200498D01*
X70969900Y-58200410D01*
X70970375Y-58200500D01*
X70975085Y-58200500D01*
X70975085Y-58201393D01*
X71038547Y-58213427D01*
X71069739Y-58236132D01*
X71254087Y-58420480D01*
X71345412Y-58473207D01*
X71447273Y-58500500D01*
X71447275Y-58500500D01*
X75552725Y-58500500D01*
X75552727Y-58500500D01*
X75654588Y-58473207D01*
X75745913Y-58420480D01*
X75930261Y-58236130D01*
X75991582Y-58202647D01*
X76024915Y-58200710D01*
X76024915Y-58200500D01*
X76028547Y-58200500D01*
X76030097Y-58200410D01*
X76031003Y-58200499D01*
X76031007Y-58200500D01*
X76031011Y-58200500D01*
X76168995Y-58200500D01*
X76260041Y-58182389D01*
X76304328Y-58173580D01*
X76431811Y-58120775D01*
X76546542Y-58044114D01*
X76644114Y-57946542D01*
X76720775Y-57831811D01*
X76773580Y-57704328D01*
X76792675Y-57608331D01*
X76800500Y-57568995D01*
X76800500Y-57431004D01*
X76773581Y-57295677D01*
X76773580Y-57295676D01*
X76773580Y-57295672D01*
X76768883Y-57284332D01*
X76720778Y-57168195D01*
X76720771Y-57168182D01*
X76644114Y-57053458D01*
X76644111Y-57053454D01*
X76546545Y-56955888D01*
X76546541Y-56955885D01*
X76431817Y-56879228D01*
X76431804Y-56879221D01*
X76304332Y-56826421D01*
X76304322Y-56826418D01*
X76168995Y-56799500D01*
X76168993Y-56799500D01*
X76031007Y-56799500D01*
X76031005Y-56799500D01*
X75895677Y-56826418D01*
X75895667Y-56826421D01*
X75768195Y-56879221D01*
X75768182Y-56879228D01*
X75653458Y-56955885D01*
X75596259Y-57013084D01*
X75534935Y-57046568D01*
X75465243Y-57041583D01*
X75420897Y-57013083D01*
X75407316Y-56999502D01*
X75407314Y-56999500D01*
X75331771Y-56955885D01*
X75293187Y-56933608D01*
X75229539Y-56916554D01*
X75165892Y-56899500D01*
X75034108Y-56899500D01*
X74906812Y-56933608D01*
X74792686Y-56999500D01*
X74792683Y-56999502D01*
X74699502Y-57092683D01*
X74699500Y-57092686D01*
X74633608Y-57206812D01*
X74633401Y-57207588D01*
X74633046Y-57208169D01*
X74630500Y-57214318D01*
X74629541Y-57213920D01*
X74597039Y-57267250D01*
X74534193Y-57297782D01*
X74513625Y-57299500D01*
X73075833Y-57299500D01*
X73046392Y-57290855D01*
X73016406Y-57284332D01*
X73011390Y-57280577D01*
X73008794Y-57279815D01*
X72988152Y-57263181D01*
X72836819Y-57111848D01*
X72803334Y-57050525D01*
X72800500Y-57024167D01*
X72800500Y-54807525D01*
X75839500Y-54807525D01*
X75839500Y-54952475D01*
X75877016Y-55092485D01*
X75877017Y-55092488D01*
X75949488Y-55218011D01*
X75949490Y-55218013D01*
X75949491Y-55218015D01*
X76051985Y-55320509D01*
X76051986Y-55320510D01*
X76051988Y-55320511D01*
X76177511Y-55392982D01*
X76177512Y-55392982D01*
X76177515Y-55392984D01*
X76317525Y-55430500D01*
X76317528Y-55430500D01*
X76462472Y-55430500D01*
X76462475Y-55430500D01*
X76602485Y-55392984D01*
X76728015Y-55320509D01*
X76830509Y-55218015D01*
X76902984Y-55092485D01*
X76940500Y-54952475D01*
X76940500Y-54874038D01*
X79899500Y-54874038D01*
X79899500Y-55125961D01*
X79938910Y-55374785D01*
X80016760Y-55614383D01*
X80095413Y-55768747D01*
X80124092Y-55825033D01*
X80131132Y-55838848D01*
X80279201Y-56042649D01*
X80279205Y-56042654D01*
X80457345Y-56220794D01*
X80457350Y-56220798D01*
X80635117Y-56349952D01*
X80661155Y-56368870D01*
X80803837Y-56441570D01*
X80885616Y-56483239D01*
X80885618Y-56483239D01*
X80885621Y-56483241D01*
X81125215Y-56561090D01*
X81374038Y-56600500D01*
X81374039Y-56600500D01*
X81625961Y-56600500D01*
X81625962Y-56600500D01*
X81874785Y-56561090D01*
X82114379Y-56483241D01*
X82115353Y-56482745D01*
X82120048Y-56480352D01*
X82338845Y-56368870D01*
X82542656Y-56220793D01*
X82720793Y-56042656D01*
X82868870Y-55838845D01*
X82983241Y-55614379D01*
X83061090Y-55374785D01*
X83100500Y-55125962D01*
X83100500Y-54874038D01*
X83061090Y-54625215D01*
X82983241Y-54385621D01*
X82983239Y-54385618D01*
X82983239Y-54385616D01*
X82939870Y-54300500D01*
X82868870Y-54161155D01*
X82759368Y-54010438D01*
X82720798Y-53957350D01*
X82720794Y-53957345D01*
X82542654Y-53779205D01*
X82542649Y-53779201D01*
X82338848Y-53631132D01*
X82338847Y-53631131D01*
X82338845Y-53631130D01*
X82268747Y-53595413D01*
X82114383Y-53516760D01*
X81874785Y-53438910D01*
X81838298Y-53433131D01*
X81625962Y-53399500D01*
X81374038Y-53399500D01*
X81249626Y-53419205D01*
X81125214Y-53438910D01*
X80885616Y-53516760D01*
X80661151Y-53631132D01*
X80457350Y-53779201D01*
X80457345Y-53779205D01*
X80279205Y-53957345D01*
X80279201Y-53957350D01*
X80131132Y-54161151D01*
X80016760Y-54385616D01*
X79938910Y-54625214D01*
X79899500Y-54874038D01*
X76940500Y-54874038D01*
X76940500Y-54807525D01*
X76902984Y-54667515D01*
X76878561Y-54625214D01*
X76830511Y-54541988D01*
X76830506Y-54541982D01*
X76728017Y-54439493D01*
X76728011Y-54439488D01*
X76602488Y-54367017D01*
X76602489Y-54367017D01*
X76591006Y-54363940D01*
X76462475Y-54329500D01*
X76317525Y-54329500D01*
X76188993Y-54363940D01*
X76177511Y-54367017D01*
X76051988Y-54439488D01*
X76051982Y-54439493D01*
X75949493Y-54541982D01*
X75949488Y-54541988D01*
X75877017Y-54667511D01*
X75877016Y-54667515D01*
X75839500Y-54807525D01*
X72800500Y-54807525D01*
X72800500Y-54010439D01*
X72789964Y-53971119D01*
X72780021Y-53934011D01*
X72768039Y-53913257D01*
X72740464Y-53865495D01*
X72740458Y-53865487D01*
X71634512Y-52759541D01*
X71634504Y-52759535D01*
X71565995Y-52719982D01*
X71565990Y-52719979D01*
X71540513Y-52713152D01*
X71489562Y-52699500D01*
X71489560Y-52699500D01*
X67375833Y-52699500D01*
X67308794Y-52679815D01*
X67288152Y-52663181D01*
X67004073Y-52379102D01*
X66970588Y-52317779D01*
X66975572Y-52248087D01*
X66996950Y-52214838D01*
X66995551Y-52213765D01*
X67000495Y-52207321D01*
X67000497Y-52207316D01*
X67000500Y-52207314D01*
X67066392Y-52093186D01*
X67100500Y-51965892D01*
X67100500Y-51834108D01*
X67066392Y-51706814D01*
X67000500Y-51592686D01*
X66907314Y-51499500D01*
X66833434Y-51456845D01*
X66793187Y-51433608D01*
X66729539Y-51416554D01*
X66665892Y-51399500D01*
X66534108Y-51399500D01*
X66406812Y-51433608D01*
X66292686Y-51499500D01*
X66292683Y-51499502D01*
X66199502Y-51592683D01*
X66199500Y-51592686D01*
X66133608Y-51706812D01*
X66099500Y-51834108D01*
X66099500Y-51965892D01*
X66115204Y-52024500D01*
X66133608Y-52093187D01*
X66166554Y-52150250D01*
X66199500Y-52207314D01*
X66199502Y-52207316D01*
X66263181Y-52270995D01*
X66296666Y-52332318D01*
X66299500Y-52358676D01*
X66299500Y-52439562D01*
X66313152Y-52490513D01*
X66319979Y-52515990D01*
X66319980Y-52515991D01*
X66350859Y-52569475D01*
X66350860Y-52569477D01*
X66359537Y-52584507D01*
X66359541Y-52584512D01*
X66763022Y-52987993D01*
X66796507Y-53049316D01*
X66791523Y-53119008D01*
X66749651Y-53174941D01*
X66684187Y-53199358D01*
X66674019Y-53199055D01*
X66674019Y-53199500D01*
X66534108Y-53199500D01*
X66406812Y-53233608D01*
X66292686Y-53299500D01*
X66292683Y-53299502D01*
X66199502Y-53392683D01*
X66199500Y-53392686D01*
X66133608Y-53506812D01*
X66130943Y-53516759D01*
X66099500Y-53634108D01*
X66099500Y-53765892D01*
X66111210Y-53809594D01*
X66120270Y-53843407D01*
X66118607Y-53913257D01*
X66079444Y-53971119D01*
X66015216Y-53998623D01*
X66000495Y-53999500D01*
X64915888Y-53999500D01*
X64848849Y-53979815D01*
X64803094Y-53927011D01*
X64794271Y-53899691D01*
X64776349Y-53809594D01*
X64773580Y-53795672D01*
X64761245Y-53765892D01*
X64720778Y-53668195D01*
X64720771Y-53668182D01*
X64644114Y-53553458D01*
X64644111Y-53553454D01*
X64546545Y-53455888D01*
X64546541Y-53455885D01*
X64431817Y-53379228D01*
X64431804Y-53379221D01*
X64304332Y-53326421D01*
X64304322Y-53326418D01*
X64168995Y-53299500D01*
X64168993Y-53299500D01*
X64031007Y-53299500D01*
X64031005Y-53299500D01*
X63895677Y-53326418D01*
X63895667Y-53326421D01*
X63768195Y-53379221D01*
X63768182Y-53379228D01*
X63653458Y-53455885D01*
X63653454Y-53455888D01*
X63555888Y-53553454D01*
X63555885Y-53553458D01*
X63479228Y-53668182D01*
X63479221Y-53668195D01*
X63426421Y-53795667D01*
X63426418Y-53795677D01*
X63399500Y-53931004D01*
X63399500Y-53931007D01*
X63399500Y-54068993D01*
X63399500Y-54068995D01*
X63399499Y-54068995D01*
X57826629Y-54068995D01*
X57753335Y-53859531D01*
X57608330Y-53558427D01*
X57430525Y-53275451D01*
X57222154Y-53014162D01*
X56985838Y-52777846D01*
X56724549Y-52569475D01*
X56441573Y-52391670D01*
X56441570Y-52391668D01*
X56140472Y-52246666D01*
X55825033Y-52136289D01*
X55825025Y-52136286D01*
X55573353Y-52078844D01*
X55499200Y-52061919D01*
X55499196Y-52061918D01*
X55499187Y-52061917D01*
X55167104Y-52024500D01*
X55167100Y-52024500D01*
X54832900Y-52024500D01*
X54832895Y-52024500D01*
X54500812Y-52061917D01*
X54500795Y-52061919D01*
X54416725Y-52081108D01*
X54416707Y-52081106D01*
X54416691Y-52081116D01*
X54379798Y-52078844D01*
X54346986Y-52076834D01*
X54346972Y-52076824D01*
X54346953Y-52076823D01*
X54316081Y-52054186D01*
X54290629Y-52035535D01*
X54290623Y-52035519D01*
X54290607Y-52035508D01*
X54277187Y-52000587D01*
X54265546Y-51970323D01*
X54265549Y-51970305D01*
X54265543Y-51970289D01*
X54272791Y-51935300D01*
X54279701Y-51901903D01*
X54279714Y-51901884D01*
X54279717Y-51901872D01*
X54300580Y-51873417D01*
X54406115Y-51765768D01*
X54414375Y-51758079D01*
X54474737Y-51706814D01*
X54713331Y-51504177D01*
X54722250Y-51497277D01*
X55041220Y-51272986D01*
X55049196Y-51267825D01*
X55268677Y-51137476D01*
X55275340Y-51133791D01*
X55495751Y-51020623D01*
X55502348Y-51017478D01*
X55725794Y-50918970D01*
X55732198Y-50916358D01*
X55958584Y-50831381D01*
X55964667Y-50829279D01*
X56193779Y-50756802D01*
X56199571Y-50755125D01*
X56431009Y-50694205D01*
X56436412Y-50692911D01*
X56669901Y-50642563D01*
X56674814Y-50641609D01*
X56904926Y-50601755D01*
X56911378Y-50600812D01*
X57390411Y-50543683D01*
X57397294Y-50543057D01*
X57869675Y-50513500D01*
X57874463Y-50513294D01*
X58342065Y-50502159D01*
X58344482Y-50502126D01*
X58801542Y-50500501D01*
X58801983Y-50500500D01*
X77698017Y-50500500D01*
X77698458Y-50500501D01*
G37*
%TD.AperFunction*%
%TD*%
M02*
