%TF.GenerationSoftware,KiCad,Pcbnew,9.0.6*%
%TF.CreationDate,2025-12-29T07:21:27+09:00*%
%TF.ProjectId,muon,6d756f6e-2e6b-4696-9361-645f70636258,rev?*%
%TF.SameCoordinates,Original*%
%TF.FileFunction,Legend,Top*%
%TF.FilePolarity,Positive*%
%FSLAX46Y46*%
G04 Gerber Fmt 4.6, Leading zero omitted, Abs format (unit mm)*
G04 Created by KiCad (PCBNEW 9.0.6) date 2025-12-29 07:21:27*
%MOMM*%
%LPD*%
G01*
G04 APERTURE LIST*
G04 Aperture macros list*
%AMRoundRect*
0 Rectangle with rounded corners*
0 $1 Rounding radius*
0 $2 $3 $4 $5 $6 $7 $8 $9 X,Y pos of 4 corners*
0 Add a 4 corners polygon primitive as box body*
4,1,4,$2,$3,$4,$5,$6,$7,$8,$9,$2,$3,0*
0 Add four circle primitives for the rounded corners*
1,1,$1+$1,$2,$3*
1,1,$1+$1,$4,$5*
1,1,$1+$1,$6,$7*
1,1,$1+$1,$8,$9*
0 Add four rect primitives between the rounded corners*
20,1,$1+$1,$2,$3,$4,$5,0*
20,1,$1+$1,$4,$5,$6,$7,0*
20,1,$1+$1,$6,$7,$8,$9,0*
20,1,$1+$1,$8,$9,$2,$3,0*%
G04 Aperture macros list end*
%ADD10C,0.400000*%
%ADD11C,0.100000*%
%ADD12C,0.200000*%
%ADD13C,0.180000*%
%ADD14C,0.120000*%
%ADD15C,2.625000*%
%ADD16RoundRect,0.150000X-0.150000X-0.200000X0.150000X-0.200000X0.150000X0.200000X-0.150000X0.200000X0*%
%ADD17RoundRect,0.200000X-0.275000X0.200000X-0.275000X-0.200000X0.275000X-0.200000X0.275000X0.200000X0*%
%ADD18C,2.700000*%
%ADD19RoundRect,0.243750X0.243750X0.456250X-0.243750X0.456250X-0.243750X-0.456250X0.243750X-0.456250X0*%
%ADD20RoundRect,0.075000X-0.075000X-0.200000X0.075000X-0.200000X0.075000X0.200000X-0.075000X0.200000X0*%
%ADD21C,0.600000*%
%ADD22RoundRect,0.050000X0.250000X0.525000X-0.250000X0.525000X-0.250000X-0.525000X0.250000X-0.525000X0*%
%ADD23RoundRect,0.050000X0.100000X0.525000X-0.100000X0.525000X-0.100000X-0.525000X0.100000X-0.525000X0*%
%ADD24O,1.000000X2.100000*%
%ADD25O,1.000000X1.800000*%
%ADD26RoundRect,0.150000X-0.150000X-0.575000X0.150000X-0.575000X0.150000X0.575000X-0.150000X0.575000X0*%
%ADD27RoundRect,0.250000X-0.350000X-0.650000X0.350000X-0.650000X0.350000X0.650000X-0.350000X0.650000X0*%
G04 APERTURE END LIST*
D10*
X72400000Y-54900000D02*
G75*
G02*
X72000000Y-54900000I-200000J0D01*
G01*
X72000000Y-54900000D02*
G75*
G02*
X72400000Y-54900000I200000J0D01*
G01*
D11*
X64600000Y-51450000D02*
G75*
G02*
X64600001Y-55050001I1900000J-1800000D01*
G01*
D10*
X73300000Y-54900000D02*
G75*
G02*
X72900000Y-54900000I-200000J0D01*
G01*
X72900000Y-54900000D02*
G75*
G02*
X73300000Y-54900000I200000J0D01*
G01*
X75500000Y-54900000D02*
G75*
G02*
X75100000Y-54900000I-200000J0D01*
G01*
X75100000Y-54900000D02*
G75*
G02*
X75500000Y-54900000I200000J0D01*
G01*
X74100000Y-54900000D02*
G75*
G02*
X73700000Y-54900000I-200000J0D01*
G01*
X73700000Y-54900000D02*
G75*
G02*
X74100000Y-54900000I200000J0D01*
G01*
D12*
G36*
X83007299Y-60780758D02*
G01*
X83042875Y-60786379D01*
X83473500Y-60875900D01*
X83473500Y-61023948D01*
X83416951Y-61012188D01*
X83441511Y-61043993D01*
X83466136Y-61088575D01*
X83473902Y-61113061D01*
X83479162Y-61143198D01*
X83480918Y-61177107D01*
X83480711Y-61189051D01*
X83472765Y-61245026D01*
X83454721Y-61287160D01*
X83441983Y-61304209D01*
X83426788Y-61318670D01*
X83409402Y-61330334D01*
X83389982Y-61339051D01*
X83366690Y-61345173D01*
X83341077Y-61347852D01*
X83310230Y-61346826D01*
X83276652Y-61341641D01*
X83225249Y-61325356D01*
X83200590Y-61312512D01*
X83178041Y-61296813D01*
X83156770Y-61277456D01*
X83137617Y-61254978D01*
X83114069Y-61216188D01*
X83102590Y-61187698D01*
X83094341Y-61157068D01*
X83088944Y-61121361D01*
X83087168Y-61083189D01*
X83087168Y-61080167D01*
X83194220Y-61080167D01*
X83198097Y-61119013D01*
X83211969Y-61153633D01*
X83222639Y-61167052D01*
X83235837Y-61177952D01*
X83252916Y-61186866D01*
X83272970Y-61192824D01*
X83307560Y-61194577D01*
X83331698Y-61184542D01*
X83341288Y-61174401D01*
X83348427Y-61160943D01*
X83353651Y-61140856D01*
X83355402Y-61116162D01*
X83354993Y-61102467D01*
X83346151Y-61057119D01*
X83327100Y-61023564D01*
X83312490Y-61009515D01*
X83294492Y-60997785D01*
X83269737Y-60987044D01*
X83240986Y-60979215D01*
X83194220Y-60969488D01*
X83194220Y-61080167D01*
X83087168Y-61080167D01*
X83087168Y-60947232D01*
X83035456Y-60936515D01*
X83017635Y-60933610D01*
X82980581Y-60934817D01*
X82955128Y-60946990D01*
X82945239Y-60957915D01*
X82937933Y-60971927D01*
X82932639Y-60992334D01*
X82930877Y-61017024D01*
X82935940Y-61055328D01*
X82953024Y-61090224D01*
X82976382Y-61113184D01*
X82992465Y-61121916D01*
X83010891Y-61127538D01*
X83014573Y-61128307D01*
X83014573Y-61270365D01*
X83009627Y-61269321D01*
X83007235Y-61268812D01*
X82952038Y-61250021D01*
X82927431Y-61236176D01*
X82904873Y-61219413D01*
X82883580Y-61198932D01*
X82864437Y-61175348D01*
X82837068Y-61127381D01*
X82825594Y-61096806D01*
X82817284Y-61064198D01*
X82812058Y-61028437D01*
X82810307Y-60990756D01*
X82811278Y-60960471D01*
X82821364Y-60898106D01*
X82840841Y-60851404D01*
X82869383Y-60816494D01*
X82881232Y-60807037D01*
X82900457Y-60795632D01*
X82921883Y-60787190D01*
X82947014Y-60781518D01*
X82974617Y-60779271D01*
X83007299Y-60780758D01*
G37*
G36*
X82818935Y-60588378D02*
G01*
X83473500Y-60724445D01*
X83473500Y-60572826D01*
X82818935Y-60436758D01*
X82818935Y-60588378D01*
G37*
G36*
X82603568Y-60546008D02*
G01*
X82729084Y-60572111D01*
X82729084Y-60416864D01*
X82603568Y-60390761D01*
X82603568Y-60546008D01*
G37*
G36*
X82834593Y-59793903D02*
G01*
X82880429Y-59801647D01*
X83188065Y-59865614D01*
X83213993Y-59871514D01*
X83295800Y-59898337D01*
X83360907Y-59932866D01*
X83412005Y-59974699D01*
X83429593Y-59994637D01*
X83446473Y-60018893D01*
X83460399Y-60045188D01*
X83471782Y-60074744D01*
X83480004Y-60106513D01*
X83485310Y-60142826D01*
X83487073Y-60181658D01*
X83482833Y-60239030D01*
X83468395Y-60290780D01*
X83444997Y-60329334D01*
X83429703Y-60344691D01*
X83412005Y-60357403D01*
X83399651Y-60364169D01*
X83375251Y-60374027D01*
X83347979Y-60380897D01*
X83315275Y-60384907D01*
X83279123Y-60385325D01*
X83235711Y-60381621D01*
X83188065Y-60373505D01*
X82880429Y-60309538D01*
X82849472Y-60302295D01*
X82772971Y-60275768D01*
X82711851Y-60241372D01*
X82663853Y-60199464D01*
X82648481Y-60181242D01*
X82631152Y-60155950D01*
X82616861Y-60128869D01*
X82605376Y-60099258D01*
X82597081Y-60067727D01*
X82591807Y-60032545D01*
X82591469Y-60025367D01*
X82735239Y-60025367D01*
X82736903Y-60046314D01*
X82749108Y-60079990D01*
X82759820Y-60093951D01*
X82773377Y-60105546D01*
X82814810Y-60126666D01*
X82854525Y-60139914D01*
X82903840Y-60151928D01*
X83173282Y-60207927D01*
X83197135Y-60212578D01*
X83266583Y-60220374D01*
X83304954Y-60216060D01*
X83320059Y-60208991D01*
X83329991Y-60200102D01*
X83337354Y-60188510D01*
X83342554Y-60172012D01*
X83344301Y-60151983D01*
X83342723Y-60131633D01*
X83330531Y-60097702D01*
X83319342Y-60082972D01*
X83304954Y-60070375D01*
X83269141Y-60051210D01*
X83226852Y-60036768D01*
X83173282Y-60023774D01*
X82903840Y-59967775D01*
X82877065Y-59962604D01*
X82809561Y-59955369D01*
X82773377Y-59959862D01*
X82759095Y-59966944D01*
X82749364Y-59976001D01*
X82742098Y-59987872D01*
X82736976Y-60004733D01*
X82735239Y-60025367D01*
X82591469Y-60025367D01*
X82590049Y-59995197D01*
X82593964Y-59939802D01*
X82608152Y-59887059D01*
X82631314Y-59847751D01*
X82646410Y-59832125D01*
X82663853Y-59819178D01*
X82675580Y-59812541D01*
X82699435Y-59802487D01*
X82726048Y-59795410D01*
X82757764Y-59791184D01*
X82792765Y-59790517D01*
X82834593Y-59793903D01*
G37*
G36*
X83429206Y-59718885D02*
G01*
X83457465Y-59683348D01*
X83476557Y-59636299D01*
X83486241Y-59573771D01*
X83487073Y-59545613D01*
X83485296Y-59510650D01*
X83479892Y-59476459D01*
X83471236Y-59444655D01*
X83459069Y-59413847D01*
X83456299Y-59408007D01*
X83439885Y-59378480D01*
X83420711Y-59351492D01*
X83374962Y-59305546D01*
X83368921Y-59300736D01*
X83341978Y-59282080D01*
X83313046Y-59266368D01*
X83248916Y-59243660D01*
X83234831Y-59240450D01*
X83211421Y-59235614D01*
X83176299Y-59230070D01*
X83144133Y-59228722D01*
X83117094Y-59231115D01*
X83092172Y-59236924D01*
X83087168Y-59238582D01*
X83066011Y-59247889D01*
X83047354Y-59260166D01*
X83032197Y-59274459D01*
X83019365Y-59291523D01*
X83010891Y-59307055D01*
X82980222Y-59258499D01*
X82939505Y-59218743D01*
X82913695Y-59200902D01*
X82885957Y-59186425D01*
X82838609Y-59171262D01*
X82820144Y-59167416D01*
X82787266Y-59162368D01*
X82756671Y-59161294D01*
X82729835Y-59163840D01*
X82704986Y-59169761D01*
X82682737Y-59178660D01*
X82662317Y-59190585D01*
X82652807Y-59197641D01*
X82636384Y-59213033D01*
X82622446Y-59230921D01*
X82601858Y-59274639D01*
X82591179Y-59331373D01*
X82590049Y-59360306D01*
X82591801Y-59397417D01*
X82597036Y-59432585D01*
X82605360Y-59464663D01*
X82616866Y-59494856D01*
X82631204Y-59522596D01*
X82648539Y-59548456D01*
X82651598Y-59552428D01*
X82671518Y-59575038D01*
X82693835Y-59595068D01*
X82745698Y-59627472D01*
X82808184Y-59649752D01*
X82822617Y-59653050D01*
X82843500Y-59657391D01*
X82843500Y-59509343D01*
X82822617Y-59505002D01*
X82801086Y-59498755D01*
X82781925Y-59489541D01*
X82754913Y-59466809D01*
X82743892Y-59450972D01*
X82736052Y-59433191D01*
X82730348Y-59395532D01*
X82732130Y-59375207D01*
X82737571Y-59357881D01*
X82745208Y-59345697D01*
X82755697Y-59336093D01*
X82757386Y-59334972D01*
X82771526Y-59328041D01*
X82787826Y-59324078D01*
X82828277Y-59325690D01*
X82832454Y-59326509D01*
X82850918Y-59330356D01*
X82874361Y-59336967D01*
X82895068Y-59346381D01*
X82912848Y-59358238D01*
X82927919Y-59372403D01*
X82928404Y-59372946D01*
X82939734Y-59388249D01*
X82947945Y-59405260D01*
X82955398Y-59444963D01*
X82955497Y-59450707D01*
X82955497Y-59492857D01*
X83095796Y-59522038D01*
X83095796Y-59478734D01*
X83097555Y-59454334D01*
X83102830Y-59433887D01*
X83110304Y-59419133D01*
X83120452Y-59407112D01*
X83125307Y-59403006D01*
X83152870Y-59390557D01*
X83191951Y-59389021D01*
X83212685Y-59392290D01*
X83234831Y-59396906D01*
X83260954Y-59404138D01*
X83284189Y-59414483D01*
X83302051Y-59426230D01*
X83317263Y-59440485D01*
X83330470Y-59458037D01*
X83340163Y-59477156D01*
X83345818Y-59496336D01*
X83348016Y-59516796D01*
X83348038Y-59519125D01*
X83346254Y-59544176D01*
X83340799Y-59564636D01*
X83324627Y-59587654D01*
X83312724Y-59595381D01*
X83298732Y-59600069D01*
X83263615Y-59600099D01*
X83255714Y-59598645D01*
X83236040Y-59594578D01*
X83236040Y-59744989D01*
X83263133Y-59750594D01*
X83297367Y-59755914D01*
X83328959Y-59757059D01*
X83355283Y-59754466D01*
X83379436Y-59748397D01*
X83400079Y-59739544D01*
X83418814Y-59727603D01*
X83429206Y-59718885D01*
G37*
G36*
X83295117Y-59130816D02*
G01*
X83473500Y-59167910D01*
X83473500Y-58997056D01*
X83295117Y-58959962D01*
X83295117Y-59130816D01*
G37*
G36*
X83414478Y-58807518D02*
G01*
X83431808Y-58790429D01*
X83446524Y-58770909D01*
X83468071Y-58724559D01*
X83479453Y-58665543D01*
X83480918Y-58631113D01*
X83479160Y-58592396D01*
X83473886Y-58555946D01*
X83465603Y-58523328D01*
X83454137Y-58492705D01*
X83439905Y-58464758D01*
X83422653Y-58438653D01*
X83418160Y-58432782D01*
X83397126Y-58408855D01*
X83373936Y-58387941D01*
X83322289Y-58355678D01*
X83260685Y-58334063D01*
X83248350Y-58331281D01*
X83239722Y-58329522D01*
X83239722Y-58475097D01*
X83247141Y-58476636D01*
X83268570Y-58482860D01*
X83287146Y-58491972D01*
X83316324Y-58517730D01*
X83317263Y-58518896D01*
X83328219Y-58535516D01*
X83336174Y-58554022D01*
X83343069Y-58597176D01*
X83343092Y-58600064D01*
X83341348Y-58622685D01*
X83336171Y-58642192D01*
X83328566Y-58657154D01*
X83318264Y-58669440D01*
X83311109Y-58675297D01*
X83283451Y-58686314D01*
X83239843Y-58687488D01*
X83205266Y-58682111D01*
X83087168Y-58657546D01*
X83054710Y-58649014D01*
X83026544Y-58637797D01*
X83004741Y-58625322D01*
X82986514Y-58610673D01*
X82972763Y-58595072D01*
X82962156Y-58577610D01*
X82950554Y-58537984D01*
X82949342Y-58518182D01*
X82951066Y-58496049D01*
X82956095Y-58477189D01*
X82963578Y-58462508D01*
X82973581Y-58450593D01*
X82976435Y-58448059D01*
X83002943Y-58434888D01*
X83038385Y-58433615D01*
X83049030Y-58435420D01*
X83056394Y-58436959D01*
X83056394Y-58291384D01*
X83044084Y-58288801D01*
X83009074Y-58283341D01*
X82976588Y-58282031D01*
X82949323Y-58284480D01*
X82924247Y-58290429D01*
X82902900Y-58299153D01*
X82883536Y-58310976D01*
X82873065Y-58319411D01*
X82856528Y-58336482D01*
X82842403Y-58356212D01*
X82821670Y-58403758D01*
X82811221Y-58464593D01*
X82810307Y-58491693D01*
X82812056Y-58529027D01*
X82817264Y-58564427D01*
X82825608Y-58597086D01*
X82837125Y-58627991D01*
X82869313Y-58684487D01*
X82877956Y-58695960D01*
X82920006Y-58737947D01*
X82974356Y-58772078D01*
X83043630Y-58798590D01*
X83084695Y-58808727D01*
X83206530Y-58834061D01*
X83250034Y-58841314D01*
X83289818Y-58844172D01*
X83322283Y-58842962D01*
X83351656Y-58838152D01*
X83375627Y-58830634D01*
X83396969Y-58820094D01*
X83414478Y-58807518D01*
G37*
G36*
X83041261Y-57648265D02*
G01*
X83084695Y-57655504D01*
X83206530Y-57680838D01*
X83246188Y-57690567D01*
X83316858Y-57717253D01*
X83372233Y-57751409D01*
X83414478Y-57792670D01*
X83421962Y-57802368D01*
X83439468Y-57829070D01*
X83453898Y-57857565D01*
X83465512Y-57888628D01*
X83473884Y-57921473D01*
X83479160Y-57957528D01*
X83480918Y-57995398D01*
X83479453Y-58029828D01*
X83468071Y-58088844D01*
X83446524Y-58135194D01*
X83431808Y-58154714D01*
X83414478Y-58171802D01*
X83396969Y-58184379D01*
X83375627Y-58194918D01*
X83351656Y-58202437D01*
X83322283Y-58207246D01*
X83289818Y-58208456D01*
X83250034Y-58205598D01*
X83206530Y-58198346D01*
X83084695Y-58173011D01*
X83043630Y-58162874D01*
X82974356Y-58136363D01*
X82920006Y-58102232D01*
X82877956Y-58060244D01*
X82869313Y-58048771D01*
X82837125Y-57992276D01*
X82825608Y-57961371D01*
X82817264Y-57928711D01*
X82812056Y-57893312D01*
X82811661Y-57884884D01*
X82949342Y-57884884D01*
X82950359Y-57902778D01*
X82961527Y-57941995D01*
X82971961Y-57959315D01*
X82985566Y-57974788D01*
X83003781Y-57989408D01*
X83025643Y-58001872D01*
X83054184Y-58013187D01*
X83087168Y-58021831D01*
X83205266Y-58046396D01*
X83250907Y-58052255D01*
X83291044Y-58047994D01*
X83318334Y-58033724D01*
X83328558Y-58022407D01*
X83336086Y-58008407D01*
X83341337Y-57989312D01*
X83343092Y-57966767D01*
X83342257Y-57950796D01*
X83331527Y-57911995D01*
X83321266Y-57894812D01*
X83307803Y-57879454D01*
X83289600Y-57864852D01*
X83267676Y-57852384D01*
X83238768Y-57840957D01*
X83205266Y-57832183D01*
X83087168Y-57807618D01*
X83042157Y-57801698D01*
X83001502Y-57805572D01*
X82974088Y-57819395D01*
X82963872Y-57830403D01*
X82956349Y-57844064D01*
X82951097Y-57862758D01*
X82949342Y-57884884D01*
X82811661Y-57884884D01*
X82810307Y-57855978D01*
X82811959Y-57820764D01*
X82823906Y-57762497D01*
X82846028Y-57716577D01*
X82860768Y-57697573D01*
X82877956Y-57681112D01*
X82894656Y-57669367D01*
X82916041Y-57658883D01*
X82940060Y-57651388D01*
X82969303Y-57646619D01*
X83001687Y-57645420D01*
X83041261Y-57648265D01*
G37*
G36*
X82818935Y-57465086D02*
G01*
X83473500Y-57601153D01*
X83473500Y-57448270D01*
X83065022Y-57363365D01*
X83038969Y-57356140D01*
X83016144Y-57345990D01*
X82997927Y-57334009D01*
X82982465Y-57319523D01*
X82980117Y-57316818D01*
X82966486Y-57297886D01*
X82956644Y-57277616D01*
X82951228Y-57258064D01*
X82949343Y-57237332D01*
X82949342Y-57237024D01*
X82951101Y-57216422D01*
X82956376Y-57198718D01*
X82964097Y-57185302D01*
X82974645Y-57174201D01*
X82978853Y-57170968D01*
X83008277Y-57158868D01*
X83048983Y-57158446D01*
X83065022Y-57161187D01*
X83473500Y-57246091D01*
X83473500Y-57093263D01*
X83061340Y-57007588D01*
X83037687Y-57000887D01*
X83016322Y-56991195D01*
X82980899Y-56963797D01*
X82980117Y-56962965D01*
X82967595Y-56947006D01*
X82958396Y-56929610D01*
X82949608Y-56890741D01*
X82949342Y-56881962D01*
X82951101Y-56861353D01*
X82956376Y-56843643D01*
X82964089Y-56830246D01*
X82974625Y-56819189D01*
X82978853Y-56815962D01*
X83008277Y-56803861D01*
X83048983Y-56803439D01*
X83065022Y-56806180D01*
X83473500Y-56891085D01*
X83473500Y-56738201D01*
X83046557Y-56649449D01*
X83009519Y-56643535D01*
X82975280Y-56641800D01*
X82946497Y-56643873D01*
X82920108Y-56649446D01*
X82897684Y-56657803D01*
X82877390Y-56669217D01*
X82874274Y-56671376D01*
X82856623Y-56686151D01*
X82841736Y-56703398D01*
X82821016Y-56743966D01*
X82811054Y-56795808D01*
X82810307Y-56816951D01*
X82812058Y-56847365D01*
X82817282Y-56877262D01*
X82838166Y-56935700D01*
X82873643Y-56992778D01*
X82892739Y-57015832D01*
X82872273Y-57027630D01*
X82854657Y-57041950D01*
X82840429Y-57058086D01*
X82828905Y-57076507D01*
X82814038Y-57120429D01*
X82810307Y-57162341D01*
X82817341Y-57215955D01*
X82828772Y-57249279D01*
X82843586Y-57279579D01*
X82861614Y-57307758D01*
X82877956Y-57328139D01*
X82818935Y-57315884D01*
X82818935Y-57465086D01*
G37*
D13*
G36*
X68240688Y-61506977D02*
G01*
X68307800Y-61521849D01*
X68364461Y-61547709D01*
X68389550Y-61564848D01*
X68412475Y-61584790D01*
X68441964Y-61620582D01*
X68457386Y-61647314D01*
X68470251Y-61677215D01*
X68481159Y-61712714D01*
X68489112Y-61751901D01*
X68494361Y-61798427D01*
X68496116Y-61849342D01*
X68496116Y-62026516D01*
X68496076Y-62034433D01*
X68489127Y-62123924D01*
X68471822Y-62194421D01*
X68445715Y-62249603D01*
X68411211Y-62292331D01*
X68382427Y-62316198D01*
X68355834Y-62332962D01*
X68326984Y-62346831D01*
X68294505Y-62358225D01*
X68259683Y-62366464D01*
X68220427Y-62371741D01*
X68178698Y-62373500D01*
X67877217Y-62373500D01*
X67877217Y-62229573D01*
X68043344Y-62229573D01*
X68182380Y-62229573D01*
X68227884Y-62224175D01*
X68265401Y-62207818D01*
X68280955Y-62195489D01*
X68294322Y-62180334D01*
X68306225Y-62160994D01*
X68316603Y-62135865D01*
X68324218Y-62106589D01*
X68329493Y-62068581D01*
X68331252Y-62025307D01*
X68331252Y-61857970D01*
X68327642Y-61794811D01*
X68314660Y-61737332D01*
X68294322Y-61697997D01*
X68270046Y-61673331D01*
X68252557Y-61662462D01*
X68232787Y-61654525D01*
X68208944Y-61649300D01*
X68182380Y-61647549D01*
X68043344Y-61647549D01*
X68043344Y-62229573D01*
X67877217Y-62229573D01*
X67877217Y-61503568D01*
X68183589Y-61503568D01*
X68240688Y-61506977D01*
G37*
G36*
X68750611Y-61686951D02*
G01*
X68750611Y-62373500D01*
X68915530Y-62373500D01*
X68915530Y-61503568D01*
X68750611Y-61503568D01*
X68604212Y-61614301D01*
X68604212Y-61792739D01*
X68750611Y-61686951D01*
G37*
G36*
X82073500Y-61259752D02*
G01*
X81720361Y-61424616D01*
X81720361Y-61547660D01*
X82073500Y-61547660D01*
X82073500Y-61713787D01*
X81203568Y-61713787D01*
X81203568Y-61391423D01*
X81347549Y-61391423D01*
X81347549Y-61547660D01*
X81583799Y-61547660D01*
X81583799Y-61391423D01*
X81582821Y-61371422D01*
X81572827Y-61331088D01*
X81553024Y-61301573D01*
X81545841Y-61295091D01*
X81529637Y-61284368D01*
X81510901Y-61276495D01*
X81488323Y-61271332D01*
X81463228Y-61269589D01*
X81449225Y-61270196D01*
X81411065Y-61279962D01*
X81394323Y-61289782D01*
X81379532Y-61302837D01*
X81373123Y-61310217D01*
X81362356Y-61326434D01*
X81354455Y-61344715D01*
X81349291Y-61366645D01*
X81347549Y-61391423D01*
X81203568Y-61391423D01*
X81203568Y-61382796D01*
X81204865Y-61349123D01*
X81216512Y-61282963D01*
X81239429Y-61227160D01*
X81255162Y-61202426D01*
X81273745Y-61179793D01*
X81291701Y-61162357D01*
X81313881Y-61145374D01*
X81337977Y-61131376D01*
X81364963Y-61120007D01*
X81394044Y-61111795D01*
X81427417Y-61106488D01*
X81463228Y-61104725D01*
X81504822Y-61107140D01*
X81561591Y-61120276D01*
X81608418Y-61144073D01*
X81630743Y-61161565D01*
X81650574Y-61181567D01*
X81667983Y-61204171D01*
X81683223Y-61229992D01*
X81695796Y-61258543D01*
X82073500Y-61069005D01*
X82073500Y-61259752D01*
G37*
G36*
X81943092Y-60972010D02*
G01*
X82073500Y-60972010D01*
X82073500Y-60467526D01*
X81928309Y-60467526D01*
X81928309Y-60764061D01*
X81647766Y-60547540D01*
X81613467Y-60522979D01*
X81579452Y-60502834D01*
X81549342Y-60488464D01*
X81520014Y-60478025D01*
X81489171Y-60471057D01*
X81444763Y-60467526D01*
X81423826Y-60467526D01*
X81392964Y-60469303D01*
X81363408Y-60474707D01*
X81336712Y-60483238D01*
X81311196Y-60495194D01*
X81305728Y-60498301D01*
X81283097Y-60513588D01*
X81262885Y-60531437D01*
X81228534Y-60575647D01*
X81222032Y-60586888D01*
X81209416Y-60613617D01*
X81199874Y-60642223D01*
X81190380Y-60704818D01*
X81190049Y-60719768D01*
X81191777Y-60754589D01*
X81196837Y-60787575D01*
X81205055Y-60818480D01*
X81216241Y-60847011D01*
X81220823Y-60856385D01*
X81235988Y-60881919D01*
X81253718Y-60904580D01*
X81273033Y-60923464D01*
X81294826Y-60939760D01*
X81303255Y-60944972D01*
X81353487Y-60966327D01*
X81410867Y-60975416D01*
X81425090Y-60975747D01*
X81454600Y-60975747D01*
X81454600Y-60815774D01*
X81434927Y-60815774D01*
X81410439Y-60814037D01*
X81388971Y-60808919D01*
X81371910Y-60801354D01*
X81357386Y-60791154D01*
X81345800Y-60778776D01*
X81337512Y-60764497D01*
X81330434Y-60730748D01*
X81330348Y-60725923D01*
X81332108Y-60704984D01*
X81337398Y-60686570D01*
X81345301Y-60671988D01*
X81356154Y-60659504D01*
X81356177Y-60659483D01*
X81385488Y-60641846D01*
X81425337Y-60634899D01*
X81428772Y-60634863D01*
X81445972Y-60634863D01*
X81490871Y-60641900D01*
X81540213Y-60664365D01*
X81567807Y-60682893D01*
X81943092Y-60972010D01*
G37*
G36*
X65973500Y-61168747D02*
G01*
X65620361Y-61333611D01*
X65620361Y-61456655D01*
X65973500Y-61456655D01*
X65973500Y-61622782D01*
X65103568Y-61622782D01*
X65103568Y-61300418D01*
X65247549Y-61300418D01*
X65247549Y-61456655D01*
X65483799Y-61456655D01*
X65483799Y-61300418D01*
X65482821Y-61280417D01*
X65472827Y-61240083D01*
X65453024Y-61210568D01*
X65445841Y-61204086D01*
X65429637Y-61193363D01*
X65410901Y-61185490D01*
X65388323Y-61180327D01*
X65363228Y-61178584D01*
X65349225Y-61179191D01*
X65311065Y-61188957D01*
X65294323Y-61198777D01*
X65279532Y-61211832D01*
X65273123Y-61219212D01*
X65262356Y-61235429D01*
X65254455Y-61253710D01*
X65249291Y-61275640D01*
X65247549Y-61300418D01*
X65103568Y-61300418D01*
X65103568Y-61291791D01*
X65104865Y-61258118D01*
X65116512Y-61191958D01*
X65139429Y-61136155D01*
X65155162Y-61111421D01*
X65173745Y-61088788D01*
X65191701Y-61071352D01*
X65213881Y-61054369D01*
X65237977Y-61040371D01*
X65264963Y-61029002D01*
X65294044Y-61020790D01*
X65327417Y-61015483D01*
X65363228Y-61013720D01*
X65404822Y-61016135D01*
X65461591Y-61029271D01*
X65508418Y-61053068D01*
X65530743Y-61070560D01*
X65550574Y-61090562D01*
X65567983Y-61113166D01*
X65583223Y-61138987D01*
X65595796Y-61167538D01*
X65973500Y-60978000D01*
X65973500Y-61168747D01*
G37*
G36*
X65286951Y-60749388D02*
G01*
X65973500Y-60749388D01*
X65973500Y-60584469D01*
X65103568Y-60584469D01*
X65103568Y-60749388D01*
X65214301Y-60895787D01*
X65392739Y-60895787D01*
X65286951Y-60749388D01*
G37*
D12*
G36*
X68089506Y-56747549D02*
G01*
X68475838Y-56747549D01*
X68475838Y-56603568D01*
X67923379Y-56603568D01*
X67923379Y-57473500D01*
X68089506Y-57473500D01*
X68089506Y-57114206D01*
X68420498Y-57114206D01*
X68420498Y-56970280D01*
X68089506Y-56970280D01*
X68089506Y-56747549D01*
G37*
G36*
X68704449Y-56786951D02*
G01*
X68704449Y-57473500D01*
X68869368Y-57473500D01*
X68869368Y-56603568D01*
X68704449Y-56603568D01*
X68558050Y-56714301D01*
X68558050Y-56892739D01*
X68704449Y-56786951D01*
G37*
D13*
G36*
X78621418Y-60993989D02*
G01*
X78653030Y-61008197D01*
X78685881Y-61018972D01*
X78754393Y-61030107D01*
X78780182Y-61030918D01*
X78818137Y-61029160D01*
X78854604Y-61023884D01*
X78888417Y-61015427D01*
X78920695Y-61003673D01*
X78941364Y-60993989D01*
X78969634Y-60977499D01*
X78995149Y-60958438D01*
X79017285Y-60937472D01*
X79036950Y-60913978D01*
X79053306Y-60889410D01*
X79068155Y-60860991D01*
X79079636Y-60831294D01*
X79092425Y-60768705D01*
X79093918Y-60736801D01*
X79093918Y-60153568D01*
X78927845Y-60153568D01*
X78927845Y-60730701D01*
X78926060Y-60761476D01*
X78920605Y-60789294D01*
X78912625Y-60811244D01*
X78901565Y-60830660D01*
X78888442Y-60846326D01*
X78871808Y-60860497D01*
X78853185Y-60871636D01*
X78810441Y-60884730D01*
X78780182Y-60886937D01*
X78753008Y-60885178D01*
X78728406Y-60879899D01*
X78707944Y-60871884D01*
X78689675Y-60860856D01*
X78673130Y-60846326D01*
X78650543Y-60812674D01*
X78637649Y-60767971D01*
X78634991Y-60730701D01*
X78634991Y-60153568D01*
X78468864Y-60153568D01*
X78468864Y-60736801D01*
X78470623Y-60771372D01*
X78475902Y-60804409D01*
X78484367Y-60834992D01*
X78496135Y-60864265D01*
X78509475Y-60889410D01*
X78527226Y-60915835D01*
X78547494Y-60939574D01*
X78594652Y-60978487D01*
X78621418Y-60993989D01*
G37*
G36*
X79358964Y-60336951D02*
G01*
X79358964Y-61023500D01*
X79523883Y-61023500D01*
X79523883Y-60153568D01*
X79358964Y-60153568D01*
X79212565Y-60264301D01*
X79212565Y-60442739D01*
X79358964Y-60336951D01*
G37*
D12*
G36*
X78003832Y-57428309D02*
G01*
X78003832Y-57573500D01*
X78109675Y-57573500D01*
X78143036Y-57571741D01*
X78173578Y-57566463D01*
X78199328Y-57558428D01*
X78222585Y-57547367D01*
X78256074Y-57521842D01*
X78271390Y-57504038D01*
X78284025Y-57483937D01*
X78301365Y-57436317D01*
X78307786Y-57374179D01*
X78307786Y-56703568D01*
X78141658Y-56703568D01*
X78141658Y-57347141D01*
X78139853Y-57375106D01*
X78134247Y-57396130D01*
X78125667Y-57409900D01*
X78115690Y-57418243D01*
X78102955Y-57424091D01*
X78071536Y-57428309D01*
X78003832Y-57428309D01*
G37*
G36*
X78580911Y-56886951D02*
G01*
X78580911Y-57573500D01*
X78745830Y-57573500D01*
X78745830Y-56703568D01*
X78580911Y-56703568D01*
X78434512Y-56814301D01*
X78434512Y-56992739D01*
X78580911Y-56886951D01*
G37*
D13*
G36*
X76212827Y-57628309D02*
G01*
X76212827Y-57773500D01*
X76318670Y-57773500D01*
X76352031Y-57771741D01*
X76382573Y-57766463D01*
X76408323Y-57758428D01*
X76431580Y-57747367D01*
X76465069Y-57721842D01*
X76480385Y-57704038D01*
X76493020Y-57683937D01*
X76510360Y-57636317D01*
X76516781Y-57574179D01*
X76516781Y-56903568D01*
X76350653Y-56903568D01*
X76350653Y-57547141D01*
X76348848Y-57575106D01*
X76343242Y-57596130D01*
X76334662Y-57609900D01*
X76324685Y-57618243D01*
X76311950Y-57624091D01*
X76280531Y-57628309D01*
X76212827Y-57628309D01*
G37*
G36*
X76658289Y-57643092D02*
G01*
X76658289Y-57773500D01*
X77162773Y-57773500D01*
X77162773Y-57628309D01*
X76866238Y-57628309D01*
X77082759Y-57347766D01*
X77107320Y-57313467D01*
X77127465Y-57279452D01*
X77141835Y-57249342D01*
X77152274Y-57220014D01*
X77159243Y-57189171D01*
X77162773Y-57144763D01*
X77162773Y-57123826D01*
X77160996Y-57092964D01*
X77155592Y-57063408D01*
X77147061Y-57036712D01*
X77135105Y-57011196D01*
X77131998Y-57005728D01*
X77116711Y-56983097D01*
X77098862Y-56962885D01*
X77054652Y-56928534D01*
X77043412Y-56922032D01*
X77016682Y-56909416D01*
X76988076Y-56899874D01*
X76925481Y-56890380D01*
X76910531Y-56890049D01*
X76875710Y-56891777D01*
X76842724Y-56896837D01*
X76811819Y-56905055D01*
X76783289Y-56916241D01*
X76773914Y-56920823D01*
X76748380Y-56935988D01*
X76725719Y-56953718D01*
X76706835Y-56973033D01*
X76690539Y-56994826D01*
X76685327Y-57003255D01*
X76663972Y-57053487D01*
X76654883Y-57110867D01*
X76654553Y-57125090D01*
X76654553Y-57154600D01*
X76814526Y-57154600D01*
X76814526Y-57134927D01*
X76816262Y-57110439D01*
X76821381Y-57088971D01*
X76828945Y-57071910D01*
X76839145Y-57057386D01*
X76851523Y-57045800D01*
X76865803Y-57037512D01*
X76899551Y-57030434D01*
X76904376Y-57030348D01*
X76925315Y-57032108D01*
X76943729Y-57037398D01*
X76958311Y-57045301D01*
X76970795Y-57056154D01*
X76970817Y-57056177D01*
X76988454Y-57085488D01*
X76995400Y-57125337D01*
X76995436Y-57128772D01*
X76995436Y-57145972D01*
X76988399Y-57190871D01*
X76965934Y-57240213D01*
X76947406Y-57267807D01*
X76658289Y-57643092D01*
G37*
D14*
%TO.C,D1*%
X67700000Y-60000000D02*
X69660000Y-60000000D01*
X67700000Y-61200000D02*
X69660000Y-61200000D01*
X69660000Y-61200000D02*
X69660000Y-60000000D01*
%TO.C,R2*%
X81177500Y-58762742D02*
X81177500Y-59237258D01*
X82222500Y-58762742D02*
X82222500Y-59237258D01*
%TO.C,R1*%
X65077500Y-58762742D02*
X65077500Y-59237258D01*
X66122500Y-58762742D02*
X66122500Y-59237258D01*
%TO.C,F1*%
X68658578Y-57790000D02*
X68141422Y-57790000D01*
X68658578Y-59210000D02*
X68141422Y-59210000D01*
%TO.C,U1*%
X77590000Y-58700000D02*
X77590000Y-59490000D01*
X80410000Y-58700000D02*
X80410000Y-59700000D01*
X77590000Y-60100000D02*
X77310000Y-59820000D01*
X77590000Y-59820000D01*
X77590000Y-60100000D01*
G36*
X77590000Y-60100000D02*
G01*
X77310000Y-59820000D01*
X77590000Y-59820000D01*
X77590000Y-60100000D01*
G37*
%TO.C,J2*%
X70890000Y-58140000D02*
X71940000Y-58140000D01*
X70890000Y-60640000D02*
X70890000Y-58140000D01*
X71940000Y-58140000D02*
X71940000Y-57150000D01*
X72060000Y-62610000D02*
X75940000Y-62610000D01*
X77110000Y-58140000D02*
X76060000Y-58140000D01*
X77110000Y-60640000D02*
X77110000Y-58140000D01*
%TD*%
%LPC*%
D15*
X82812500Y-53250000D02*
G75*
G02*
X80187500Y-53250000I-1312500J0D01*
G01*
X80187500Y-53250000D02*
G75*
G02*
X82812500Y-53250000I1312500J0D01*
G01*
D16*
%TO.C,D1*%
X69100000Y-60600000D03*
X67700000Y-60600000D03*
%TD*%
D17*
%TO.C,R2*%
X81700000Y-58175000D03*
X81700000Y-59825000D03*
%TD*%
%TO.C,R1*%
X65600000Y-58175000D03*
X65600000Y-59825000D03*
%TD*%
D18*
%TO.C,MH1*%
X81500000Y-53250000D03*
%TD*%
%TO.C,MH2*%
X66500000Y-53250000D03*
%TD*%
D19*
%TO.C,F1*%
X69337500Y-58500000D03*
X67462500Y-58500000D03*
%TD*%
D20*
%TO.C,U1*%
X78000000Y-59585000D03*
X78500000Y-59585000D03*
X79000000Y-59585000D03*
X79500000Y-59585000D03*
X80000000Y-59585000D03*
X80000000Y-58815000D03*
X79500000Y-58815000D03*
X79000000Y-58815000D03*
X78500000Y-58815000D03*
X78000000Y-58815000D03*
%TD*%
D21*
%TO.C,J1*%
X76890000Y-54880000D03*
X71110000Y-54880000D03*
D22*
X77200000Y-55950000D03*
X76400000Y-55950000D03*
D23*
X75250000Y-55950000D03*
X74250000Y-55950000D03*
X73750000Y-55950000D03*
X72750000Y-55950000D03*
D22*
X71600000Y-55950000D03*
X70800000Y-55950000D03*
D23*
X72250000Y-55950000D03*
X73250000Y-55950000D03*
X74750000Y-55950000D03*
X75750000Y-55950000D03*
D24*
X78320000Y-55380000D03*
D25*
X78320000Y-51200000D03*
D24*
X69680000Y-55380000D03*
D25*
X69680000Y-51200000D03*
%TD*%
D26*
%TO.C,J2*%
X72500000Y-57975000D03*
X73500000Y-57975000D03*
X74500000Y-57975000D03*
X75500000Y-57975000D03*
D27*
X71200000Y-61800000D03*
X76800000Y-61800000D03*
%TD*%
%LPD*%
M02*
