%TF.GenerationSoftware,KiCad,Pcbnew,9.0.6*%
%TF.CreationDate,2025-12-29T07:21:27+09:00*%
%TF.ProjectId,muon,6d756f6e-2e6b-4696-9361-645f70636258,rev?*%
%TF.SameCoordinates,Original*%
%TF.FileFunction,Soldermask,Top*%
%TF.FilePolarity,Negative*%
%FSLAX46Y46*%
G04 Gerber Fmt 4.6, Leading zero omitted, Abs format (unit mm)*
G04 Created by KiCad (PCBNEW 9.0.6) date 2025-12-29 07:21:27*
%MOMM*%
%LPD*%
G01*
G04 APERTURE LIST*
G04 Aperture macros list*
%AMRoundRect*
0 Rectangle with rounded corners*
0 $1 Rounding radius*
0 $2 $3 $4 $5 $6 $7 $8 $9 X,Y pos of 4 corners*
0 Add a 4 corners polygon primitive as box body*
4,1,4,$2,$3,$4,$5,$6,$7,$8,$9,$2,$3,0*
0 Add four circle primitives for the rounded corners*
1,1,$1+$1,$2,$3*
1,1,$1+$1,$4,$5*
1,1,$1+$1,$6,$7*
1,1,$1+$1,$8,$9*
0 Add four rect primitives between the rounded corners*
20,1,$1+$1,$2,$3,$4,$5,0*
20,1,$1+$1,$4,$5,$6,$7,0*
20,1,$1+$1,$6,$7,$8,$9,0*
20,1,$1+$1,$8,$9,$2,$3,0*%
G04 Aperture macros list end*
%ADD10C,2.625000*%
%ADD11RoundRect,0.150000X-0.150000X-0.200000X0.150000X-0.200000X0.150000X0.200000X-0.150000X0.200000X0*%
%ADD12RoundRect,0.200000X-0.275000X0.200000X-0.275000X-0.200000X0.275000X-0.200000X0.275000X0.200000X0*%
%ADD13C,2.700000*%
%ADD14RoundRect,0.243750X0.243750X0.456250X-0.243750X0.456250X-0.243750X-0.456250X0.243750X-0.456250X0*%
%ADD15RoundRect,0.075000X-0.075000X-0.200000X0.075000X-0.200000X0.075000X0.200000X-0.075000X0.200000X0*%
%ADD16C,0.600000*%
%ADD17RoundRect,0.050000X0.250000X0.525000X-0.250000X0.525000X-0.250000X-0.525000X0.250000X-0.525000X0*%
%ADD18RoundRect,0.050000X0.100000X0.525000X-0.100000X0.525000X-0.100000X-0.525000X0.100000X-0.525000X0*%
%ADD19O,1.000000X2.100000*%
%ADD20O,1.000000X1.800000*%
%ADD21RoundRect,0.150000X-0.150000X-0.575000X0.150000X-0.575000X0.150000X0.575000X-0.150000X0.575000X0*%
%ADD22RoundRect,0.250000X-0.350000X-0.650000X0.350000X-0.650000X0.350000X0.650000X-0.350000X0.650000X0*%
G04 APERTURE END LIST*
D10*
X82812500Y-53250000D02*
G75*
G02*
X80187500Y-53250000I-1312500J0D01*
G01*
X80187500Y-53250000D02*
G75*
G02*
X82812500Y-53250000I1312500J0D01*
G01*
D11*
%TO.C,D1*%
X69100000Y-60600000D03*
X67700000Y-60600000D03*
%TD*%
D12*
%TO.C,R2*%
X81700000Y-58175000D03*
X81700000Y-59825000D03*
%TD*%
%TO.C,R1*%
X65600000Y-58175000D03*
X65600000Y-59825000D03*
%TD*%
D13*
%TO.C,MH1*%
X81500000Y-53250000D03*
%TD*%
%TO.C,MH2*%
X66500000Y-53250000D03*
%TD*%
D14*
%TO.C,F1*%
X69337500Y-58500000D03*
X67462500Y-58500000D03*
%TD*%
D15*
%TO.C,U1*%
X78000000Y-59585000D03*
X78500000Y-59585000D03*
X79000000Y-59585000D03*
X79500000Y-59585000D03*
X80000000Y-59585000D03*
X80000000Y-58815000D03*
X79500000Y-58815000D03*
X79000000Y-58815000D03*
X78500000Y-58815000D03*
X78000000Y-58815000D03*
%TD*%
D16*
%TO.C,J1*%
X76890000Y-54880000D03*
X71110000Y-54880000D03*
D17*
X77200000Y-55950000D03*
X76400000Y-55950000D03*
D18*
X75250000Y-55950000D03*
X74250000Y-55950000D03*
X73750000Y-55950000D03*
X72750000Y-55950000D03*
D17*
X71600000Y-55950000D03*
X70800000Y-55950000D03*
D18*
X72250000Y-55950000D03*
X73250000Y-55950000D03*
X74750000Y-55950000D03*
X75750000Y-55950000D03*
D19*
X78320000Y-55380000D03*
D20*
X78320000Y-51200000D03*
D19*
X69680000Y-55380000D03*
D20*
X69680000Y-51200000D03*
%TD*%
D21*
%TO.C,J2*%
X72500000Y-57975000D03*
X73500000Y-57975000D03*
X74500000Y-57975000D03*
X75500000Y-57975000D03*
D22*
X71200000Y-61800000D03*
X76800000Y-61800000D03*
%TD*%
M02*
