%TF.GenerationSoftware,KiCad,Pcbnew,9.0.6*%
%TF.CreationDate,2026-01-06T08:42:05+09:00*%
%TF.ProjectId,muon,6d756f6e-2e6b-4696-9361-645f70636258,rev?*%
%TF.SameCoordinates,Original*%
%TF.FileFunction,Profile,NP*%
%FSLAX46Y46*%
G04 Gerber Fmt 4.6, Leading zero omitted, Abs format (unit mm)*
G04 Created by KiCad (PCBNEW 9.0.6) date 2026-01-06 08:42:05*
%MOMM*%
%LPD*%
G01*
G04 APERTURE LIST*
%ADD10C,0.050000*%
%TA.AperFunction,Profile*%
%ADD11C,0.050000*%
%TD*%
G04 APERTURE END LIST*
D10*
X64000000Y-52362500D02*
X64000003Y-52329918D01*
X64000022Y-52297377D01*
X64000073Y-52264876D01*
X64000173Y-52232415D01*
X64000338Y-52199994D01*
X64000450Y-52183799D01*
X64000584Y-52167614D01*
X64000743Y-52151439D01*
X64000928Y-52135274D01*
X64001141Y-52119120D01*
X64001385Y-52102975D01*
X64001661Y-52086841D01*
X64001972Y-52070717D01*
X64002320Y-52054603D01*
X64002705Y-52038500D01*
X64003132Y-52022406D01*
X64003601Y-52006323D01*
X64004115Y-51990250D01*
X64004675Y-51974188D01*
X64005284Y-51958136D01*
X64005944Y-51942094D01*
X64006656Y-51926062D01*
X64007424Y-51910041D01*
X64008248Y-51894030D01*
X64009131Y-51878029D01*
X64010075Y-51862038D01*
X64011081Y-51846059D01*
X64012153Y-51830089D01*
X64013292Y-51814130D01*
X64014499Y-51798181D01*
X64015778Y-51782242D01*
X64017129Y-51766315D01*
X64018556Y-51750397D01*
X64020060Y-51734490D01*
X64020842Y-51726540D01*
X64021643Y-51718593D01*
X64022465Y-51710649D01*
X64023307Y-51702707D01*
X64024170Y-51694768D01*
X64025055Y-51686831D01*
X64025960Y-51678898D01*
X64026887Y-51670966D01*
X64027836Y-51663038D01*
X64028807Y-51655112D01*
X64029800Y-51647188D01*
X64030816Y-51639267D01*
X64031855Y-51631349D01*
X64032916Y-51623434D01*
X64034001Y-51615521D01*
X64035110Y-51607611D01*
X64036243Y-51599703D01*
X64037399Y-51591798D01*
X64038580Y-51583896D01*
X64039786Y-51575996D01*
X64041016Y-51568099D01*
X64042272Y-51560205D01*
X64043552Y-51552313D01*
X64044859Y-51544424D01*
X64046191Y-51536538D01*
X64047550Y-51528654D01*
X64048935Y-51520773D01*
X64050346Y-51512894D01*
X64051785Y-51505019D01*
X64053250Y-51497145D01*
X64054743Y-51489275D01*
X64056264Y-51481407D01*
X64057812Y-51473542D01*
X64059389Y-51465679D01*
X64060994Y-51457820D01*
X64062627Y-51449962D01*
X64064290Y-51442108D01*
X64065982Y-51434256D01*
X64067703Y-51426407D01*
X64069454Y-51418560D01*
X64071234Y-51410717D01*
X64073045Y-51402876D01*
X64074887Y-51395037D01*
X64076759Y-51387201D01*
X64078662Y-51379368D01*
X64080596Y-51371538D01*
X64082562Y-51363710D01*
X64084559Y-51355885D01*
X64086588Y-51348063D01*
X64088650Y-51340243D01*
X82659757Y-50088650D02*
X82665957Y-50090308D01*
X82672197Y-50091998D01*
X82678352Y-50093686D01*
X82684543Y-50095405D01*
X82690656Y-50097124D01*
X82696802Y-50098873D01*
X82702875Y-50100622D01*
X82708979Y-50102401D01*
X82715013Y-50104181D01*
X82721078Y-50105991D01*
X82727075Y-50107803D01*
X82733101Y-50109644D01*
X82739064Y-50111487D01*
X82745053Y-50113360D01*
X82750982Y-50115234D01*
X82756936Y-50117139D01*
X82762832Y-50119045D01*
X82768753Y-50120981D01*
X82774617Y-50122920D01*
X82780504Y-50124888D01*
X82786338Y-50126859D01*
X82792193Y-50128859D01*
X82797996Y-50130863D01*
X82803820Y-50132895D01*
X82809594Y-50134931D01*
X82815388Y-50136995D01*
X82821132Y-50139064D01*
X82826896Y-50141161D01*
X82832612Y-50143262D01*
X82838347Y-50145391D01*
X82844035Y-50147525D01*
X82849740Y-50149687D01*
X82855401Y-50151853D01*
X82861078Y-50154047D01*
X82866712Y-50156246D01*
X82872361Y-50158473D01*
X82877968Y-50160705D01*
X82883590Y-50162965D01*
X82889170Y-50165229D01*
X82894764Y-50167521D01*
X82900318Y-50169819D01*
X82905886Y-50172144D01*
X82911414Y-50174474D01*
X82916955Y-50176831D01*
X82922457Y-50179194D01*
X82927971Y-50181585D01*
X82933448Y-50183980D01*
X82938936Y-50186403D01*
X82944388Y-50188832D01*
X82949850Y-50191288D01*
X82955277Y-50193749D01*
X82960713Y-50196237D01*
X82966115Y-50198732D01*
X82971526Y-50201253D01*
X82976902Y-50203780D01*
X82982288Y-50206334D01*
X82987640Y-50208894D01*
X82993000Y-50211480D01*
X82998328Y-50214073D01*
X83003663Y-50216692D01*
X83008966Y-50219318D01*
X83014277Y-50221970D01*
X83019556Y-50224628D01*
X83024841Y-50227313D01*
X83030096Y-50230004D01*
X83035357Y-50232722D01*
X83040588Y-50235446D01*
X83045825Y-50238196D01*
X83051031Y-50240953D01*
X83056244Y-50243736D01*
X83061426Y-50246526D01*
X83066615Y-50249342D01*
X83071774Y-50252165D01*
X83076938Y-50255013D01*
X83082073Y-50257869D01*
X83087213Y-50260750D01*
X83092325Y-50263638D01*
X83097441Y-50266552D01*
X83102529Y-50269474D01*
X83107622Y-50272421D01*
X83112687Y-50275375D01*
X83117755Y-50278354D01*
X83122797Y-50281342D01*
X83127842Y-50284354D01*
X83132860Y-50287374D01*
X83137881Y-50290419D01*
X83142876Y-50293472D01*
X83147874Y-50296551D01*
X83152846Y-50299637D01*
X83157821Y-50302748D01*
X83162770Y-50305866D01*
X83167721Y-50309011D01*
X83172647Y-50312162D01*
X83177575Y-50315339D01*
X83182478Y-50318524D01*
X83187383Y-50321734D01*
X83192263Y-50324952D01*
X83197145Y-50328195D01*
X83202002Y-50331446D01*
X83206861Y-50334722D01*
X83211695Y-50338006D01*
X83216531Y-50341315D01*
X83221343Y-50344632D01*
X83226156Y-50347974D01*
X83230945Y-50351325D01*
X83235735Y-50354700D01*
X83240502Y-50358083D01*
X83245269Y-50361492D01*
X83250013Y-50364909D01*
X83254757Y-50368350D01*
X83259479Y-50371800D01*
X83264201Y-50375275D01*
X83268900Y-50378759D01*
X83273599Y-50382267D01*
X83278276Y-50385784D01*
X83282953Y-50389325D01*
X83288736Y-50393740D01*
X65523723Y-50048404D02*
X65537403Y-50046033D01*
X65551199Y-50043723D01*
X65565115Y-50041474D01*
X65579156Y-50039285D01*
X65593326Y-50037157D01*
X65607632Y-50035088D01*
X65622078Y-50033080D01*
X65636670Y-50031132D01*
X65651415Y-50029244D01*
X65666320Y-50027416D01*
X65681391Y-50025647D01*
X65696636Y-50023938D01*
X65712064Y-50022289D01*
X65727684Y-50020699D01*
X65743505Y-50019169D01*
X65759539Y-50017698D01*
X65775796Y-50016286D01*
X65792291Y-50014933D01*
X65809036Y-50013640D01*
X65826047Y-50012405D01*
X65843341Y-50011230D01*
X65860938Y-50010113D01*
X65878859Y-50009056D01*
X65897128Y-50008057D01*
X65915772Y-50007117D01*
X65934823Y-50006236D01*
X65954316Y-50005414D01*
X65974295Y-50004651D01*
X65994808Y-50003946D01*
X66015914Y-50003299D01*
X66037685Y-50002711D01*
X66060207Y-50002182D01*
X66083590Y-50001711D01*
X66107975Y-50001298D01*
X66133547Y-50000943D01*
X66160560Y-50000645D01*
X66189383Y-50000406D01*
X66220582Y-50000223D01*
X66255126Y-50000096D01*
X66294952Y-50000024D01*
X66345338Y-50000000D01*
X66362500Y-50000000D01*
D11*
X84000000Y-61137500D02*
X84000000Y-52362500D01*
D10*
X83288736Y-50393740D02*
X83293384Y-50397317D01*
X83298026Y-50400914D01*
X83302650Y-50404522D01*
X83307268Y-50408151D01*
X83311868Y-50411792D01*
X83316461Y-50415453D01*
X83321036Y-50419126D01*
X83325605Y-50422818D01*
X83330155Y-50426522D01*
X83334699Y-50430246D01*
X83339224Y-50433981D01*
X83343742Y-50437736D01*
X83348241Y-50441501D01*
X83352734Y-50445287D01*
X83357208Y-50449083D01*
X83361674Y-50452900D01*
X83366121Y-50456726D01*
X83370561Y-50460573D01*
X83374982Y-50464430D01*
X83379396Y-50468306D01*
X83383790Y-50472193D01*
X83388176Y-50476099D01*
X83392544Y-50480015D01*
X83396903Y-50483951D01*
X83401243Y-50487897D01*
X83405575Y-50491862D01*
X83409888Y-50495836D01*
X83414192Y-50499831D01*
X83418476Y-50503834D01*
X83422753Y-50507857D01*
X83427009Y-50511889D01*
X83431257Y-50515941D01*
X83435486Y-50520002D01*
X83439705Y-50524082D01*
X83443905Y-50528170D01*
X83448096Y-50532278D01*
X83452268Y-50536395D01*
X83456430Y-50540531D01*
X83460572Y-50544676D01*
X83464705Y-50548840D01*
X83468819Y-50553012D01*
X83472922Y-50557203D01*
X83477007Y-50561403D01*
X83481081Y-50565621D01*
X83485136Y-50569848D01*
X83489180Y-50574093D01*
X83493205Y-50578347D01*
X83497220Y-50582619D01*
X83501215Y-50586900D01*
X83505200Y-50591199D01*
X83509165Y-50595506D01*
X83513120Y-50599831D01*
X83517055Y-50604165D01*
X83520979Y-50608517D01*
X83524884Y-50612876D01*
X83528778Y-50617254D01*
X83532652Y-50621640D01*
X83536515Y-50626044D01*
X83540359Y-50630455D01*
X83544192Y-50634885D01*
X83548004Y-50639322D01*
X83551806Y-50643777D01*
X83555588Y-50648240D01*
X83559358Y-50652721D01*
X83563109Y-50657209D01*
X83566849Y-50661714D01*
X83570568Y-50666228D01*
X83574276Y-50670759D01*
X83577965Y-50675297D01*
X83581641Y-50679853D01*
X83585298Y-50684416D01*
X83588943Y-50688997D01*
X83592569Y-50693585D01*
X83596182Y-50698190D01*
X83599776Y-50702802D01*
X83603358Y-50707432D01*
X83606920Y-50712069D01*
X83610470Y-50716723D01*
X83614000Y-50721384D01*
X83617518Y-50726063D01*
X83621016Y-50730748D01*
X83624502Y-50735451D01*
X83627967Y-50740160D01*
X83631421Y-50744887D01*
X83634855Y-50749620D01*
X83638277Y-50754370D01*
X83641678Y-50759127D01*
X83645067Y-50763902D01*
X83648436Y-50768682D01*
X83651793Y-50773480D01*
X83655130Y-50778284D01*
X83658454Y-50783105D01*
X83661758Y-50787933D01*
X83665050Y-50792778D01*
X83668322Y-50797629D01*
X83671581Y-50802497D01*
X83674820Y-50807371D01*
X83678046Y-50812262D01*
X83681252Y-50817159D01*
X83684445Y-50822073D01*
X83687619Y-50826994D01*
X83690779Y-50831931D01*
X83693920Y-50836874D01*
X83697047Y-50841834D01*
X83700155Y-50846800D01*
X83703249Y-50851783D01*
X83706324Y-50856772D01*
X83709385Y-50861777D01*
X83712426Y-50866789D01*
X83715455Y-50871817D01*
X83718463Y-50876851D01*
X83721458Y-50881901D01*
X83726314Y-50890176D01*
X65340243Y-63411350D02*
X65334043Y-63409692D01*
X65327803Y-63408002D01*
X65321648Y-63406314D01*
X65315457Y-63404595D01*
X65309344Y-63402876D01*
X65303198Y-63401127D01*
X65297125Y-63399378D01*
X65291021Y-63397599D01*
X65284987Y-63395819D01*
X65278922Y-63394009D01*
X65272925Y-63392197D01*
X65266899Y-63390356D01*
X65260936Y-63388513D01*
X65254947Y-63386640D01*
X65249018Y-63384766D01*
X65243064Y-63382861D01*
X65237168Y-63380955D01*
X65231247Y-63379019D01*
X65225383Y-63377080D01*
X65219496Y-63375112D01*
X65213662Y-63373141D01*
X65207807Y-63371141D01*
X65202004Y-63369137D01*
X65196180Y-63367105D01*
X65190406Y-63365069D01*
X65184612Y-63363005D01*
X65178868Y-63360936D01*
X65173104Y-63358839D01*
X65167388Y-63356738D01*
X65161653Y-63354609D01*
X65155965Y-63352475D01*
X65150260Y-63350313D01*
X65144599Y-63348147D01*
X65138922Y-63345953D01*
X65133288Y-63343754D01*
X65127639Y-63341527D01*
X65122032Y-63339295D01*
X65116410Y-63337035D01*
X65110830Y-63334771D01*
X65105236Y-63332479D01*
X65099682Y-63330181D01*
X65094114Y-63327856D01*
X65088586Y-63325526D01*
X65083045Y-63323169D01*
X65077543Y-63320806D01*
X65072029Y-63318415D01*
X65066552Y-63316020D01*
X65061064Y-63313597D01*
X65055612Y-63311168D01*
X65050150Y-63308712D01*
X65044723Y-63306251D01*
X65039287Y-63303763D01*
X65033885Y-63301268D01*
X65028474Y-63298747D01*
X65023098Y-63296220D01*
X65017712Y-63293666D01*
X65012360Y-63291106D01*
X65007000Y-63288520D01*
X65001672Y-63285927D01*
X64996337Y-63283308D01*
X64991034Y-63280682D01*
X64985723Y-63278030D01*
X64980444Y-63275372D01*
X64975159Y-63272687D01*
X64969904Y-63269996D01*
X64964643Y-63267278D01*
X64959412Y-63264554D01*
X64954175Y-63261804D01*
X64948969Y-63259047D01*
X64943756Y-63256264D01*
X64938574Y-63253474D01*
X64933385Y-63250658D01*
X64928226Y-63247835D01*
X64923062Y-63244987D01*
X64917927Y-63242131D01*
X64912787Y-63239250D01*
X64907675Y-63236362D01*
X64902559Y-63233448D01*
X64897471Y-63230526D01*
X64892378Y-63227579D01*
X64887313Y-63224625D01*
X64882245Y-63221646D01*
X64877203Y-63218658D01*
X64872158Y-63215646D01*
X64867140Y-63212626D01*
X64862119Y-63209581D01*
X64857124Y-63206528D01*
X64852126Y-63203449D01*
X64847154Y-63200363D01*
X64842179Y-63197252D01*
X64837230Y-63194134D01*
X64832279Y-63190989D01*
X64827353Y-63187838D01*
X64822425Y-63184661D01*
X64817522Y-63181476D01*
X64812617Y-63178266D01*
X64807737Y-63175048D01*
X64802855Y-63171805D01*
X64797998Y-63168554D01*
X64793139Y-63165278D01*
X64788305Y-63161994D01*
X64783469Y-63158685D01*
X64778657Y-63155368D01*
X64773844Y-63152026D01*
X64769055Y-63148675D01*
X64764265Y-63145300D01*
X64759498Y-63141917D01*
X64754731Y-63138508D01*
X64749987Y-63135091D01*
X64745243Y-63131650D01*
X64740521Y-63128200D01*
X64735799Y-63124725D01*
X64731100Y-63121241D01*
X64726401Y-63117733D01*
X64721724Y-63114216D01*
X64717047Y-63110675D01*
X64711264Y-63106260D01*
X83109824Y-63226314D02*
X83099704Y-63232169D01*
X83089542Y-63237957D01*
X83079335Y-63243678D01*
X83069086Y-63249332D01*
X83058791Y-63254920D01*
X83048453Y-63260441D01*
X83038069Y-63265895D01*
X83027640Y-63271284D01*
X83017165Y-63276606D01*
X83006644Y-63281863D01*
X82996076Y-63287054D01*
X82985461Y-63292179D01*
X82974799Y-63297239D01*
X82964088Y-63302234D01*
X82953328Y-63307163D01*
X82942519Y-63312028D01*
X82931661Y-63316827D01*
X82920752Y-63321562D01*
X82909791Y-63326232D01*
X82898780Y-63330837D01*
X82887716Y-63335378D01*
X82876599Y-63339855D01*
X82865429Y-63344267D01*
X82854204Y-63348615D01*
X82842925Y-63352899D01*
X82831589Y-63357119D01*
X82820197Y-63361275D01*
X82808748Y-63365368D01*
X82797240Y-63369396D01*
X82785673Y-63373362D01*
X82774046Y-63377263D01*
X82762358Y-63381101D01*
X82750608Y-63384876D01*
X82738795Y-63388588D01*
X82726917Y-63392236D01*
X82714973Y-63395822D01*
X82702963Y-63399344D01*
X82690885Y-63402804D01*
X82678737Y-63406200D01*
X82666518Y-63409534D01*
X82654226Y-63412806D01*
X82641860Y-63416015D01*
X82629417Y-63419162D01*
X82616897Y-63422246D01*
X82604296Y-63425269D01*
X82591613Y-63428230D01*
X82578846Y-63431128D01*
X82565991Y-63433966D01*
X82553046Y-63436741D01*
X82540009Y-63439456D01*
X82526875Y-63442109D01*
X82513642Y-63444702D01*
X82500305Y-63447234D01*
X82486860Y-63449706D01*
X82476277Y-63451596D01*
X81637500Y-50000000D02*
X81670082Y-50000003D01*
X81702623Y-50000022D01*
X81735124Y-50000073D01*
X81767585Y-50000173D01*
X81800006Y-50000338D01*
X81816201Y-50000450D01*
X81832386Y-50000584D01*
X81848561Y-50000743D01*
X81864726Y-50000928D01*
X81880880Y-50001141D01*
X81897025Y-50001385D01*
X81913159Y-50001661D01*
X81929283Y-50001972D01*
X81945397Y-50002320D01*
X81961500Y-50002705D01*
X81977594Y-50003132D01*
X81993677Y-50003601D01*
X82009750Y-50004115D01*
X82025812Y-50004675D01*
X82041864Y-50005284D01*
X82057906Y-50005944D01*
X82073938Y-50006656D01*
X82089959Y-50007424D01*
X82105970Y-50008248D01*
X82121971Y-50009131D01*
X82137962Y-50010075D01*
X82153942Y-50011081D01*
X82169911Y-50012153D01*
X82185870Y-50013292D01*
X82201819Y-50014499D01*
X82217758Y-50015778D01*
X82233685Y-50017129D01*
X82249603Y-50018556D01*
X82265510Y-50020060D01*
X82273460Y-50020842D01*
X82281407Y-50021643D01*
X82289351Y-50022465D01*
X82297293Y-50023307D01*
X82305232Y-50024170D01*
X82313169Y-50025055D01*
X82321102Y-50025960D01*
X82329034Y-50026887D01*
X82336962Y-50027836D01*
X82344888Y-50028807D01*
X82352812Y-50029800D01*
X82360733Y-50030816D01*
X82368651Y-50031855D01*
X82376566Y-50032916D01*
X82384479Y-50034001D01*
X82392389Y-50035110D01*
X82400297Y-50036243D01*
X82408202Y-50037399D01*
X82416104Y-50038580D01*
X82424004Y-50039786D01*
X82431901Y-50041016D01*
X82439795Y-50042272D01*
X82447687Y-50043552D01*
X82455576Y-50044859D01*
X82463462Y-50046191D01*
X82471346Y-50047550D01*
X82479227Y-50048935D01*
X82487106Y-50050346D01*
X82494981Y-50051785D01*
X82502855Y-50053250D01*
X82510725Y-50054743D01*
X82518593Y-50056264D01*
X82526458Y-50057812D01*
X82534321Y-50059389D01*
X82542180Y-50060994D01*
X82550038Y-50062627D01*
X82557892Y-50064290D01*
X82565744Y-50065982D01*
X82573593Y-50067703D01*
X82581440Y-50069454D01*
X82589283Y-50071234D01*
X82597124Y-50073045D01*
X82604963Y-50074887D01*
X82612799Y-50076759D01*
X82620632Y-50078662D01*
X82628462Y-50080596D01*
X82636290Y-50082562D01*
X82644115Y-50084559D01*
X82651937Y-50086588D01*
X82659757Y-50088650D01*
X66362500Y-63500000D02*
X66329918Y-63499997D01*
X66297377Y-63499978D01*
X66264876Y-63499927D01*
X66232415Y-63499827D01*
X66199994Y-63499662D01*
X66183799Y-63499550D01*
X66167614Y-63499416D01*
X66151439Y-63499257D01*
X66135274Y-63499072D01*
X66119120Y-63498859D01*
X66102975Y-63498615D01*
X66086841Y-63498339D01*
X66070717Y-63498028D01*
X66054603Y-63497680D01*
X66038500Y-63497295D01*
X66022406Y-63496868D01*
X66006323Y-63496399D01*
X65990250Y-63495885D01*
X65974188Y-63495325D01*
X65958136Y-63494716D01*
X65942094Y-63494056D01*
X65926062Y-63493344D01*
X65910041Y-63492576D01*
X65894030Y-63491752D01*
X65878029Y-63490869D01*
X65862038Y-63489925D01*
X65846059Y-63488919D01*
X65830089Y-63487847D01*
X65814130Y-63486708D01*
X65798181Y-63485501D01*
X65782242Y-63484222D01*
X65766315Y-63482871D01*
X65750397Y-63481444D01*
X65734490Y-63479940D01*
X65726540Y-63479158D01*
X65718593Y-63478357D01*
X65710649Y-63477535D01*
X65702707Y-63476693D01*
X65694768Y-63475830D01*
X65686831Y-63474945D01*
X65678898Y-63474040D01*
X65670966Y-63473113D01*
X65663038Y-63472164D01*
X65655112Y-63471193D01*
X65647188Y-63470200D01*
X65639267Y-63469184D01*
X65631349Y-63468145D01*
X65623434Y-63467084D01*
X65615521Y-63465999D01*
X65607611Y-63464890D01*
X65599703Y-63463757D01*
X65591798Y-63462601D01*
X65583896Y-63461420D01*
X65575996Y-63460214D01*
X65568099Y-63458984D01*
X65560205Y-63457728D01*
X65552313Y-63456448D01*
X65544424Y-63455141D01*
X65536538Y-63453809D01*
X65528654Y-63452450D01*
X65520773Y-63451065D01*
X65512894Y-63449654D01*
X65505019Y-63448215D01*
X65497145Y-63446750D01*
X65489275Y-63445257D01*
X65481407Y-63443736D01*
X65473542Y-63442188D01*
X65465679Y-63440611D01*
X65457820Y-63439006D01*
X65449962Y-63437373D01*
X65442108Y-63435710D01*
X65434256Y-63434018D01*
X65426407Y-63432297D01*
X65418560Y-63430546D01*
X65410717Y-63428766D01*
X65402876Y-63426955D01*
X65395037Y-63425113D01*
X65387201Y-63423241D01*
X65379368Y-63421338D01*
X65371538Y-63419404D01*
X65363710Y-63417438D01*
X65355885Y-63415441D01*
X65348063Y-63413412D01*
X65340243Y-63411350D01*
X83726314Y-50890176D02*
X83732169Y-50900296D01*
X83737957Y-50910458D01*
X83743678Y-50920665D01*
X83749332Y-50930914D01*
X83754920Y-50941209D01*
X83760441Y-50951547D01*
X83765895Y-50961931D01*
X83771284Y-50972360D01*
X83776606Y-50982835D01*
X83781863Y-50993356D01*
X83787054Y-51003924D01*
X83792179Y-51014539D01*
X83797239Y-51025201D01*
X83802234Y-51035912D01*
X83807163Y-51046672D01*
X83812028Y-51057481D01*
X83816827Y-51068339D01*
X83821562Y-51079248D01*
X83826232Y-51090209D01*
X83830837Y-51101220D01*
X83835378Y-51112284D01*
X83839855Y-51123401D01*
X83844267Y-51134571D01*
X83848615Y-51145796D01*
X83852899Y-51157075D01*
X83857119Y-51168411D01*
X83861275Y-51179803D01*
X83865368Y-51191252D01*
X83869396Y-51202760D01*
X83873362Y-51214327D01*
X83877263Y-51225954D01*
X83881101Y-51237642D01*
X83884876Y-51249392D01*
X83888588Y-51261205D01*
X83892236Y-51273083D01*
X83895822Y-51285027D01*
X83899344Y-51297037D01*
X83902804Y-51309115D01*
X83906200Y-51321263D01*
X83909534Y-51333482D01*
X83912806Y-51345774D01*
X83916015Y-51358140D01*
X83919162Y-51370583D01*
X83922246Y-51383103D01*
X83925269Y-51395704D01*
X83928230Y-51408387D01*
X83931128Y-51421154D01*
X83933966Y-51434009D01*
X83936741Y-51446954D01*
X83939456Y-51459991D01*
X83942109Y-51473125D01*
X83944702Y-51486358D01*
X83947234Y-51499695D01*
X83949706Y-51513140D01*
X83951596Y-51523723D01*
X64711264Y-63106260D02*
X64706616Y-63102683D01*
X64701974Y-63099086D01*
X64697350Y-63095478D01*
X64692732Y-63091849D01*
X64688132Y-63088208D01*
X64683539Y-63084547D01*
X64678964Y-63080874D01*
X64674395Y-63077182D01*
X64669845Y-63073478D01*
X64665301Y-63069754D01*
X64660776Y-63066019D01*
X64656258Y-63062264D01*
X64651759Y-63058499D01*
X64647266Y-63054713D01*
X64642792Y-63050917D01*
X64638326Y-63047100D01*
X64633879Y-63043274D01*
X64629439Y-63039427D01*
X64625018Y-63035570D01*
X64620604Y-63031694D01*
X64616210Y-63027807D01*
X64611824Y-63023901D01*
X64607456Y-63019985D01*
X64603097Y-63016049D01*
X64598757Y-63012103D01*
X64594425Y-63008138D01*
X64590112Y-63004164D01*
X64585808Y-63000169D01*
X64581524Y-62996166D01*
X64577247Y-62992143D01*
X64572991Y-62988111D01*
X64568743Y-62984059D01*
X64564514Y-62979998D01*
X64560295Y-62975918D01*
X64556095Y-62971830D01*
X64551904Y-62967722D01*
X64547732Y-62963605D01*
X64543570Y-62959469D01*
X64539428Y-62955324D01*
X64535295Y-62951160D01*
X64531181Y-62946988D01*
X64527078Y-62942797D01*
X64522993Y-62938597D01*
X64518919Y-62934379D01*
X64514864Y-62930152D01*
X64510820Y-62925907D01*
X64506795Y-62921653D01*
X64502780Y-62917381D01*
X64498785Y-62913100D01*
X64494800Y-62908801D01*
X64490835Y-62904494D01*
X64486880Y-62900169D01*
X64482945Y-62895835D01*
X64479021Y-62891483D01*
X64475116Y-62887124D01*
X64471222Y-62882746D01*
X64467348Y-62878360D01*
X64463485Y-62873956D01*
X64459641Y-62869545D01*
X64455808Y-62865115D01*
X64451996Y-62860678D01*
X64448194Y-62856223D01*
X64444412Y-62851760D01*
X64440642Y-62847279D01*
X64436891Y-62842791D01*
X64433151Y-62838286D01*
X64429432Y-62833772D01*
X64425724Y-62829241D01*
X64422035Y-62824703D01*
X64418359Y-62820147D01*
X64414702Y-62815584D01*
X64411057Y-62811003D01*
X64407431Y-62806415D01*
X64403818Y-62801810D01*
X64400224Y-62797198D01*
X64396642Y-62792568D01*
X64393080Y-62787931D01*
X64389530Y-62783277D01*
X64386000Y-62778616D01*
X64382482Y-62773937D01*
X64378984Y-62769252D01*
X64375498Y-62764549D01*
X64372033Y-62759840D01*
X64368579Y-62755113D01*
X64365145Y-62750380D01*
X64361723Y-62745630D01*
X64358322Y-62740873D01*
X64354933Y-62736098D01*
X64351564Y-62731318D01*
X64348207Y-62726520D01*
X64344870Y-62721716D01*
X64341546Y-62716895D01*
X64338242Y-62712067D01*
X64334950Y-62707222D01*
X64331678Y-62702371D01*
X64328419Y-62697503D01*
X64325180Y-62692629D01*
X64321954Y-62687738D01*
X64318748Y-62682841D01*
X64315555Y-62677927D01*
X64312381Y-62673006D01*
X64309221Y-62668069D01*
X64306080Y-62663126D01*
X64302953Y-62658166D01*
X64299845Y-62653200D01*
X64296751Y-62648217D01*
X64293676Y-62643228D01*
X64290615Y-62638223D01*
X64287574Y-62633211D01*
X64284545Y-62628183D01*
X64281537Y-62623149D01*
X64278542Y-62618099D01*
X64273686Y-62609824D01*
X83606260Y-62788736D02*
X83602683Y-62793384D01*
X83599086Y-62798026D01*
X83595478Y-62802650D01*
X83591849Y-62807268D01*
X83588208Y-62811868D01*
X83584547Y-62816461D01*
X83580874Y-62821036D01*
X83577182Y-62825605D01*
X83573478Y-62830155D01*
X83569754Y-62834699D01*
X83566019Y-62839224D01*
X83562264Y-62843742D01*
X83558499Y-62848241D01*
X83554713Y-62852734D01*
X83550917Y-62857208D01*
X83547100Y-62861674D01*
X83543274Y-62866121D01*
X83539427Y-62870561D01*
X83535570Y-62874982D01*
X83531694Y-62879396D01*
X83527807Y-62883790D01*
X83523901Y-62888176D01*
X83519985Y-62892544D01*
X83516049Y-62896903D01*
X83512103Y-62901243D01*
X83508138Y-62905575D01*
X83504164Y-62909888D01*
X83500169Y-62914192D01*
X83496166Y-62918476D01*
X83492143Y-62922753D01*
X83488111Y-62927009D01*
X83484059Y-62931257D01*
X83479998Y-62935486D01*
X83475918Y-62939705D01*
X83471830Y-62943905D01*
X83467722Y-62948096D01*
X83463605Y-62952268D01*
X83459469Y-62956430D01*
X83455324Y-62960572D01*
X83451160Y-62964705D01*
X83446988Y-62968819D01*
X83442797Y-62972922D01*
X83438597Y-62977007D01*
X83434379Y-62981081D01*
X83430152Y-62985136D01*
X83425907Y-62989180D01*
X83421653Y-62993205D01*
X83417381Y-62997220D01*
X83413100Y-63001215D01*
X83408801Y-63005200D01*
X83404494Y-63009165D01*
X83400169Y-63013120D01*
X83395835Y-63017055D01*
X83391483Y-63020979D01*
X83387124Y-63024884D01*
X83382746Y-63028778D01*
X83378360Y-63032652D01*
X83373956Y-63036515D01*
X83369545Y-63040359D01*
X83365115Y-63044192D01*
X83360678Y-63048004D01*
X83356223Y-63051806D01*
X83351760Y-63055588D01*
X83347279Y-63059358D01*
X83342791Y-63063109D01*
X83338286Y-63066849D01*
X83333772Y-63070568D01*
X83329241Y-63074276D01*
X83324703Y-63077965D01*
X83320147Y-63081641D01*
X83315584Y-63085298D01*
X83311003Y-63088943D01*
X83306415Y-63092569D01*
X83301810Y-63096182D01*
X83297198Y-63099776D01*
X83292568Y-63103358D01*
X83287931Y-63106920D01*
X83283277Y-63110470D01*
X83278616Y-63114000D01*
X83273937Y-63117518D01*
X83269252Y-63121016D01*
X83264549Y-63124502D01*
X83259840Y-63127967D01*
X83255113Y-63131421D01*
X83250380Y-63134855D01*
X83245630Y-63138277D01*
X83240873Y-63141678D01*
X83236098Y-63145067D01*
X83231318Y-63148436D01*
X83226520Y-63151793D01*
X83221716Y-63155130D01*
X83216895Y-63158454D01*
X83212067Y-63161758D01*
X83207222Y-63165050D01*
X83202371Y-63168322D01*
X83197503Y-63171581D01*
X83192629Y-63174820D01*
X83187738Y-63178046D01*
X83182841Y-63181252D01*
X83177927Y-63184445D01*
X83173006Y-63187619D01*
X83168069Y-63190779D01*
X83163126Y-63193920D01*
X83158166Y-63197047D01*
X83153200Y-63200155D01*
X83148217Y-63203249D01*
X83143228Y-63206324D01*
X83138223Y-63209385D01*
X83133211Y-63212426D01*
X83128183Y-63215455D01*
X83123149Y-63218463D01*
X83118099Y-63221458D01*
X83109824Y-63226314D01*
X64048404Y-61976277D02*
X64046033Y-61962597D01*
X64043723Y-61948801D01*
X64041474Y-61934885D01*
X64039285Y-61920844D01*
X64037157Y-61906674D01*
X64035088Y-61892368D01*
X64033080Y-61877922D01*
X64031132Y-61863330D01*
X64029244Y-61848585D01*
X64027416Y-61833680D01*
X64025647Y-61818609D01*
X64023938Y-61803364D01*
X64022289Y-61787936D01*
X64020699Y-61772316D01*
X64019169Y-61756495D01*
X64017698Y-61740461D01*
X64016286Y-61724204D01*
X64014933Y-61707709D01*
X64013640Y-61690964D01*
X64012405Y-61673953D01*
X64011230Y-61656659D01*
X64010113Y-61639062D01*
X64009056Y-61621141D01*
X64008057Y-61602872D01*
X64007117Y-61584228D01*
X64006236Y-61565177D01*
X64005414Y-61545684D01*
X64004651Y-61525705D01*
X64003946Y-61505192D01*
X64003299Y-61484086D01*
X64002711Y-61462315D01*
X64002182Y-61439793D01*
X64001711Y-61416410D01*
X64001298Y-61392025D01*
X64000943Y-61366453D01*
X64000645Y-61339440D01*
X64000406Y-61310617D01*
X64000223Y-61279418D01*
X64000096Y-61244874D01*
X64000024Y-61205048D01*
X64000000Y-61154662D01*
X64000000Y-61137500D01*
X64890176Y-50273686D02*
X64900296Y-50267831D01*
X64910458Y-50262043D01*
X64920665Y-50256322D01*
X64930914Y-50250668D01*
X64941209Y-50245080D01*
X64951547Y-50239559D01*
X64961931Y-50234105D01*
X64972360Y-50228716D01*
X64982835Y-50223394D01*
X64993356Y-50218137D01*
X65003924Y-50212946D01*
X65014539Y-50207821D01*
X65025201Y-50202761D01*
X65035912Y-50197766D01*
X65046672Y-50192837D01*
X65057481Y-50187972D01*
X65068339Y-50183173D01*
X65079248Y-50178438D01*
X65090209Y-50173768D01*
X65101220Y-50169163D01*
X65112284Y-50164622D01*
X65123401Y-50160145D01*
X65134571Y-50155733D01*
X65145796Y-50151385D01*
X65157075Y-50147101D01*
X65168411Y-50142881D01*
X65179803Y-50138725D01*
X65191252Y-50134632D01*
X65202760Y-50130604D01*
X65214327Y-50126638D01*
X65225954Y-50122737D01*
X65237642Y-50118899D01*
X65249392Y-50115124D01*
X65261205Y-50111412D01*
X65273083Y-50107764D01*
X65285027Y-50104178D01*
X65297037Y-50100656D01*
X65309115Y-50097196D01*
X65321263Y-50093800D01*
X65333482Y-50090466D01*
X65345774Y-50087194D01*
X65358140Y-50083985D01*
X65370583Y-50080838D01*
X65383103Y-50077754D01*
X65395704Y-50074731D01*
X65408387Y-50071770D01*
X65421154Y-50068872D01*
X65434009Y-50066034D01*
X65446954Y-50063259D01*
X65459991Y-50060544D01*
X65473125Y-50057891D01*
X65486358Y-50055298D01*
X65499695Y-50052766D01*
X65513140Y-50050294D01*
X65523723Y-50048404D01*
D11*
X66362500Y-63500000D02*
X81637500Y-63500000D01*
D10*
X64088650Y-51340243D02*
X64090308Y-51334043D01*
X64091998Y-51327803D01*
X64093686Y-51321648D01*
X64095405Y-51315457D01*
X64097124Y-51309344D01*
X64098873Y-51303198D01*
X64100622Y-51297125D01*
X64102401Y-51291021D01*
X64104181Y-51284987D01*
X64105991Y-51278922D01*
X64107803Y-51272925D01*
X64109644Y-51266899D01*
X64111487Y-51260936D01*
X64113360Y-51254947D01*
X64115234Y-51249018D01*
X64117139Y-51243064D01*
X64119045Y-51237168D01*
X64120981Y-51231247D01*
X64122920Y-51225383D01*
X64124888Y-51219496D01*
X64126859Y-51213662D01*
X64128859Y-51207807D01*
X64130863Y-51202004D01*
X64132895Y-51196180D01*
X64134931Y-51190406D01*
X64136995Y-51184612D01*
X64139064Y-51178868D01*
X64141161Y-51173104D01*
X64143262Y-51167388D01*
X64145391Y-51161653D01*
X64147525Y-51155965D01*
X64149687Y-51150260D01*
X64151853Y-51144599D01*
X64154047Y-51138922D01*
X64156246Y-51133288D01*
X64158473Y-51127639D01*
X64160705Y-51122032D01*
X64162965Y-51116410D01*
X64165229Y-51110830D01*
X64167521Y-51105236D01*
X64169819Y-51099682D01*
X64172144Y-51094114D01*
X64174474Y-51088586D01*
X64176831Y-51083045D01*
X64179194Y-51077543D01*
X64181585Y-51072029D01*
X64183980Y-51066552D01*
X64186403Y-51061064D01*
X64188832Y-51055612D01*
X64191288Y-51050150D01*
X64193749Y-51044723D01*
X64196237Y-51039287D01*
X64198732Y-51033885D01*
X64201253Y-51028474D01*
X64203780Y-51023098D01*
X64206334Y-51017712D01*
X64208894Y-51012360D01*
X64211480Y-51007000D01*
X64214073Y-51001672D01*
X64216692Y-50996337D01*
X64219318Y-50991034D01*
X64221970Y-50985723D01*
X64224628Y-50980444D01*
X64227313Y-50975159D01*
X64230004Y-50969904D01*
X64232722Y-50964643D01*
X64235446Y-50959412D01*
X64238196Y-50954175D01*
X64240953Y-50948969D01*
X64243736Y-50943756D01*
X64246526Y-50938574D01*
X64249342Y-50933385D01*
X64252165Y-50928226D01*
X64255013Y-50923062D01*
X64257869Y-50917927D01*
X64260750Y-50912787D01*
X64263638Y-50907675D01*
X64266552Y-50902559D01*
X64269474Y-50897471D01*
X64272421Y-50892378D01*
X64275375Y-50887313D01*
X64278354Y-50882245D01*
X64281342Y-50877203D01*
X64284354Y-50872158D01*
X64287374Y-50867140D01*
X64290419Y-50862119D01*
X64293472Y-50857124D01*
X64296551Y-50852126D01*
X64299637Y-50847154D01*
X64302748Y-50842179D01*
X64305866Y-50837230D01*
X64309011Y-50832279D01*
X64312162Y-50827353D01*
X64315339Y-50822425D01*
X64318524Y-50817522D01*
X64321734Y-50812617D01*
X64324952Y-50807737D01*
X64328195Y-50802855D01*
X64331446Y-50797998D01*
X64334722Y-50793139D01*
X64338006Y-50788305D01*
X64341315Y-50783469D01*
X64344632Y-50778657D01*
X64347974Y-50773844D01*
X64351325Y-50769055D01*
X64354700Y-50764265D01*
X64358083Y-50759498D01*
X64361492Y-50754731D01*
X64364909Y-50749987D01*
X64368350Y-50745243D01*
X64371800Y-50740521D01*
X64375275Y-50735799D01*
X64378759Y-50731100D01*
X64382267Y-50726401D01*
X64385784Y-50721724D01*
X64389325Y-50717047D01*
X64393740Y-50711264D01*
X84000000Y-61137500D02*
X83999997Y-61170082D01*
X83999978Y-61202623D01*
X83999927Y-61235124D01*
X83999827Y-61267585D01*
X83999662Y-61300006D01*
X83999550Y-61316201D01*
X83999416Y-61332386D01*
X83999257Y-61348561D01*
X83999072Y-61364726D01*
X83998859Y-61380880D01*
X83998615Y-61397025D01*
X83998339Y-61413159D01*
X83998028Y-61429283D01*
X83997680Y-61445397D01*
X83997295Y-61461500D01*
X83996868Y-61477594D01*
X83996399Y-61493677D01*
X83995885Y-61509750D01*
X83995325Y-61525812D01*
X83994716Y-61541864D01*
X83994056Y-61557906D01*
X83993344Y-61573938D01*
X83992576Y-61589959D01*
X83991752Y-61605970D01*
X83990869Y-61621971D01*
X83989925Y-61637962D01*
X83988919Y-61653942D01*
X83987847Y-61669911D01*
X83986708Y-61685870D01*
X83985501Y-61701819D01*
X83984222Y-61717758D01*
X83982871Y-61733685D01*
X83981444Y-61749603D01*
X83979940Y-61765510D01*
X83979158Y-61773460D01*
X83978357Y-61781407D01*
X83977535Y-61789351D01*
X83976693Y-61797293D01*
X83975830Y-61805232D01*
X83974945Y-61813169D01*
X83974040Y-61821102D01*
X83973113Y-61829034D01*
X83972164Y-61836962D01*
X83971193Y-61844888D01*
X83970200Y-61852812D01*
X83969184Y-61860733D01*
X83968145Y-61868651D01*
X83967084Y-61876566D01*
X83965999Y-61884479D01*
X83964890Y-61892389D01*
X83963757Y-61900297D01*
X83962601Y-61908202D01*
X83961420Y-61916104D01*
X83960214Y-61924004D01*
X83958984Y-61931901D01*
X83957728Y-61939795D01*
X83956448Y-61947687D01*
X83955141Y-61955576D01*
X83953809Y-61963462D01*
X83952450Y-61971346D01*
X83951065Y-61979227D01*
X83949654Y-61987106D01*
X83948215Y-61994981D01*
X83946750Y-62002855D01*
X83945257Y-62010725D01*
X83943736Y-62018593D01*
X83942188Y-62026458D01*
X83940611Y-62034321D01*
X83939006Y-62042180D01*
X83937373Y-62050038D01*
X83935710Y-62057892D01*
X83934018Y-62065744D01*
X83932297Y-62073593D01*
X83930546Y-62081440D01*
X83928766Y-62089283D01*
X83926955Y-62097124D01*
X83925113Y-62104963D01*
X83923241Y-62112799D01*
X83921338Y-62120632D01*
X83919404Y-62128462D01*
X83917438Y-62136290D01*
X83915441Y-62144115D01*
X83913412Y-62151937D01*
X83911350Y-62159757D01*
X64273686Y-62609824D02*
X64267831Y-62599704D01*
X64262043Y-62589542D01*
X64256322Y-62579335D01*
X64250668Y-62569086D01*
X64245080Y-62558791D01*
X64239559Y-62548453D01*
X64234105Y-62538069D01*
X64228716Y-62527640D01*
X64223394Y-62517165D01*
X64218137Y-62506644D01*
X64212946Y-62496076D01*
X64207821Y-62485461D01*
X64202761Y-62474799D01*
X64197766Y-62464088D01*
X64192837Y-62453328D01*
X64187972Y-62442519D01*
X64183173Y-62431661D01*
X64178438Y-62420752D01*
X64173768Y-62409791D01*
X64169163Y-62398780D01*
X64164622Y-62387716D01*
X64160145Y-62376599D01*
X64155733Y-62365429D01*
X64151385Y-62354204D01*
X64147101Y-62342925D01*
X64142881Y-62331589D01*
X64138725Y-62320197D01*
X64134632Y-62308748D01*
X64130604Y-62297240D01*
X64126638Y-62285673D01*
X64122737Y-62274046D01*
X64118899Y-62262358D01*
X64115124Y-62250608D01*
X64111412Y-62238795D01*
X64107764Y-62226917D01*
X64104178Y-62214973D01*
X64100656Y-62202963D01*
X64097196Y-62190885D01*
X64093800Y-62178737D01*
X64090466Y-62166518D01*
X64087194Y-62154226D01*
X64083985Y-62141860D01*
X64080838Y-62129417D01*
X64077754Y-62116897D01*
X64074731Y-62104296D01*
X64071770Y-62091613D01*
X64068872Y-62078846D01*
X64066034Y-62065991D01*
X64063259Y-62053046D01*
X64060544Y-62040009D01*
X64057891Y-62026875D01*
X64055298Y-62013642D01*
X64052766Y-62000305D01*
X64050294Y-61986860D01*
X64048404Y-61976277D01*
X83951596Y-51523723D02*
X83953967Y-51537403D01*
X83956277Y-51551199D01*
X83958526Y-51565115D01*
X83960715Y-51579156D01*
X83962843Y-51593326D01*
X83964912Y-51607632D01*
X83966920Y-51622078D01*
X83968868Y-51636670D01*
X83970756Y-51651415D01*
X83972584Y-51666320D01*
X83974353Y-51681391D01*
X83976062Y-51696636D01*
X83977711Y-51712064D01*
X83979301Y-51727684D01*
X83980831Y-51743505D01*
X83982302Y-51759539D01*
X83983714Y-51775796D01*
X83985067Y-51792291D01*
X83986360Y-51809036D01*
X83987595Y-51826047D01*
X83988770Y-51843341D01*
X83989887Y-51860938D01*
X83990944Y-51878859D01*
X83991943Y-51897128D01*
X83992883Y-51915772D01*
X83993764Y-51934823D01*
X83994586Y-51954316D01*
X83995349Y-51974295D01*
X83996054Y-51994808D01*
X83996701Y-52015914D01*
X83997289Y-52037685D01*
X83997818Y-52060207D01*
X83998289Y-52083590D01*
X83998702Y-52107975D01*
X83999057Y-52133547D01*
X83999355Y-52160560D01*
X83999594Y-52189383D01*
X83999777Y-52220582D01*
X83999904Y-52255126D01*
X83999976Y-52294952D01*
X84000000Y-52345338D01*
X84000000Y-52362500D01*
X83911350Y-62159757D02*
X83909692Y-62165957D01*
X83908002Y-62172197D01*
X83906314Y-62178352D01*
X83904595Y-62184543D01*
X83902876Y-62190656D01*
X83901127Y-62196802D01*
X83899378Y-62202875D01*
X83897599Y-62208979D01*
X83895819Y-62215013D01*
X83894009Y-62221078D01*
X83892197Y-62227075D01*
X83890356Y-62233101D01*
X83888513Y-62239064D01*
X83886640Y-62245053D01*
X83884766Y-62250982D01*
X83882861Y-62256936D01*
X83880955Y-62262832D01*
X83879019Y-62268753D01*
X83877080Y-62274617D01*
X83875112Y-62280504D01*
X83873141Y-62286338D01*
X83871141Y-62292193D01*
X83869137Y-62297996D01*
X83867105Y-62303820D01*
X83865069Y-62309594D01*
X83863005Y-62315388D01*
X83860936Y-62321132D01*
X83858839Y-62326896D01*
X83856738Y-62332612D01*
X83854609Y-62338347D01*
X83852475Y-62344035D01*
X83850313Y-62349740D01*
X83848147Y-62355401D01*
X83845953Y-62361078D01*
X83843754Y-62366712D01*
X83841527Y-62372361D01*
X83839295Y-62377968D01*
X83837035Y-62383590D01*
X83834771Y-62389170D01*
X83832479Y-62394764D01*
X83830181Y-62400318D01*
X83827856Y-62405886D01*
X83825526Y-62411414D01*
X83823169Y-62416955D01*
X83820806Y-62422457D01*
X83818415Y-62427971D01*
X83816020Y-62433448D01*
X83813597Y-62438936D01*
X83811168Y-62444388D01*
X83808712Y-62449850D01*
X83806251Y-62455277D01*
X83803763Y-62460713D01*
X83801268Y-62466115D01*
X83798747Y-62471526D01*
X83796220Y-62476902D01*
X83793666Y-62482288D01*
X83791106Y-62487640D01*
X83788520Y-62493000D01*
X83785927Y-62498328D01*
X83783308Y-62503663D01*
X83780682Y-62508966D01*
X83778030Y-62514277D01*
X83775372Y-62519556D01*
X83772687Y-62524841D01*
X83769996Y-62530096D01*
X83767278Y-62535357D01*
X83764554Y-62540588D01*
X83761804Y-62545825D01*
X83759047Y-62551031D01*
X83756264Y-62556244D01*
X83753474Y-62561426D01*
X83750658Y-62566615D01*
X83747835Y-62571774D01*
X83744987Y-62576938D01*
X83742131Y-62582073D01*
X83739250Y-62587213D01*
X83736362Y-62592325D01*
X83733448Y-62597441D01*
X83730526Y-62602529D01*
X83727579Y-62607622D01*
X83724625Y-62612687D01*
X83721646Y-62617755D01*
X83718658Y-62622797D01*
X83715646Y-62627842D01*
X83712626Y-62632860D01*
X83709581Y-62637881D01*
X83706528Y-62642876D01*
X83703449Y-62647874D01*
X83700363Y-62652846D01*
X83697252Y-62657821D01*
X83694134Y-62662770D01*
X83690989Y-62667721D01*
X83687838Y-62672647D01*
X83684661Y-62677575D01*
X83681476Y-62682478D01*
X83678266Y-62687383D01*
X83675048Y-62692263D01*
X83671805Y-62697145D01*
X83668554Y-62702002D01*
X83665278Y-62706861D01*
X83661994Y-62711695D01*
X83658685Y-62716531D01*
X83655368Y-62721343D01*
X83652026Y-62726156D01*
X83648675Y-62730945D01*
X83645300Y-62735735D01*
X83641917Y-62740502D01*
X83638508Y-62745269D01*
X83635091Y-62750013D01*
X83631650Y-62754757D01*
X83628200Y-62759479D01*
X83624725Y-62764201D01*
X83621241Y-62768900D01*
X83617733Y-62773599D01*
X83614216Y-62778276D01*
X83610675Y-62782953D01*
X83606260Y-62788736D01*
D11*
X81637500Y-50000000D02*
X66362500Y-50000000D01*
D10*
X64393740Y-50711264D02*
X64397317Y-50706616D01*
X64400914Y-50701974D01*
X64404522Y-50697350D01*
X64408151Y-50692732D01*
X64411792Y-50688132D01*
X64415453Y-50683539D01*
X64419126Y-50678964D01*
X64422818Y-50674395D01*
X64426522Y-50669845D01*
X64430246Y-50665301D01*
X64433981Y-50660776D01*
X64437736Y-50656258D01*
X64441501Y-50651759D01*
X64445287Y-50647266D01*
X64449083Y-50642792D01*
X64452900Y-50638326D01*
X64456726Y-50633879D01*
X64460573Y-50629439D01*
X64464430Y-50625018D01*
X64468306Y-50620604D01*
X64472193Y-50616210D01*
X64476099Y-50611824D01*
X64480015Y-50607456D01*
X64483951Y-50603097D01*
X64487897Y-50598757D01*
X64491862Y-50594425D01*
X64495836Y-50590112D01*
X64499831Y-50585808D01*
X64503834Y-50581524D01*
X64507857Y-50577247D01*
X64511889Y-50572991D01*
X64515941Y-50568743D01*
X64520002Y-50564514D01*
X64524082Y-50560295D01*
X64528170Y-50556095D01*
X64532278Y-50551904D01*
X64536395Y-50547732D01*
X64540531Y-50543570D01*
X64544676Y-50539428D01*
X64548840Y-50535295D01*
X64553012Y-50531181D01*
X64557203Y-50527078D01*
X64561403Y-50522993D01*
X64565621Y-50518919D01*
X64569848Y-50514864D01*
X64574093Y-50510820D01*
X64578347Y-50506795D01*
X64582619Y-50502780D01*
X64586900Y-50498785D01*
X64591199Y-50494800D01*
X64595506Y-50490835D01*
X64599831Y-50486880D01*
X64604165Y-50482945D01*
X64608517Y-50479021D01*
X64612876Y-50475116D01*
X64617254Y-50471222D01*
X64621640Y-50467348D01*
X64626044Y-50463485D01*
X64630455Y-50459641D01*
X64634885Y-50455808D01*
X64639322Y-50451996D01*
X64643777Y-50448194D01*
X64648240Y-50444412D01*
X64652721Y-50440642D01*
X64657209Y-50436891D01*
X64661714Y-50433151D01*
X64666228Y-50429432D01*
X64670759Y-50425724D01*
X64675297Y-50422035D01*
X64679853Y-50418359D01*
X64684416Y-50414702D01*
X64688997Y-50411057D01*
X64693585Y-50407431D01*
X64698190Y-50403818D01*
X64702802Y-50400224D01*
X64707432Y-50396642D01*
X64712069Y-50393080D01*
X64716723Y-50389530D01*
X64721384Y-50386000D01*
X64726063Y-50382482D01*
X64730748Y-50378984D01*
X64735451Y-50375498D01*
X64740160Y-50372033D01*
X64744887Y-50368579D01*
X64749620Y-50365145D01*
X64754370Y-50361723D01*
X64759127Y-50358322D01*
X64763902Y-50354933D01*
X64768682Y-50351564D01*
X64773480Y-50348207D01*
X64778284Y-50344870D01*
X64783105Y-50341546D01*
X64787933Y-50338242D01*
X64792778Y-50334950D01*
X64797629Y-50331678D01*
X64802497Y-50328419D01*
X64807371Y-50325180D01*
X64812262Y-50321954D01*
X64817159Y-50318748D01*
X64822073Y-50315555D01*
X64826994Y-50312381D01*
X64831931Y-50309221D01*
X64836874Y-50306080D01*
X64841834Y-50302953D01*
X64846800Y-50299845D01*
X64851783Y-50296751D01*
X64856772Y-50293676D01*
X64861777Y-50290615D01*
X64866789Y-50287574D01*
X64871817Y-50284545D01*
X64876851Y-50281537D01*
X64881901Y-50278542D01*
X64890176Y-50273686D01*
X82476277Y-63451596D02*
X82462597Y-63453967D01*
X82448801Y-63456277D01*
X82434885Y-63458526D01*
X82420844Y-63460715D01*
X82406674Y-63462843D01*
X82392368Y-63464912D01*
X82377922Y-63466920D01*
X82363330Y-63468868D01*
X82348585Y-63470756D01*
X82333680Y-63472584D01*
X82318609Y-63474353D01*
X82303364Y-63476062D01*
X82287936Y-63477711D01*
X82272316Y-63479301D01*
X82256495Y-63480831D01*
X82240461Y-63482302D01*
X82224204Y-63483714D01*
X82207709Y-63485067D01*
X82190964Y-63486360D01*
X82173953Y-63487595D01*
X82156659Y-63488770D01*
X82139062Y-63489887D01*
X82121141Y-63490944D01*
X82102872Y-63491943D01*
X82084228Y-63492883D01*
X82065177Y-63493764D01*
X82045684Y-63494586D01*
X82025705Y-63495349D01*
X82005192Y-63496054D01*
X81984086Y-63496701D01*
X81962315Y-63497289D01*
X81939793Y-63497818D01*
X81916410Y-63498289D01*
X81892025Y-63498702D01*
X81866453Y-63499057D01*
X81839440Y-63499355D01*
X81810617Y-63499594D01*
X81779418Y-63499777D01*
X81744874Y-63499904D01*
X81705048Y-63499976D01*
X81654662Y-63500000D01*
X81637500Y-63500000D01*
D11*
X64000000Y-52362500D02*
X64000000Y-61137500D01*
M02*
