%TF.GenerationSoftware,KiCad,Pcbnew,9.0.6*%
%TF.CreationDate,2025-12-29T07:21:27+09:00*%
%TF.ProjectId,muon,6d756f6e-2e6b-4696-9361-645f70636258,rev?*%
%TF.SameCoordinates,Original*%
%TF.FileFunction,Copper,L1,Top*%
%TF.FilePolarity,Positive*%
%FSLAX46Y46*%
G04 Gerber Fmt 4.6, Leading zero omitted, Abs format (unit mm)*
G04 Created by KiCad (PCBNEW 9.0.6) date 2025-12-29 07:21:27*
%MOMM*%
%LPD*%
G01*
G04 APERTURE LIST*
G04 Aperture macros list*
%AMRoundRect*
0 Rectangle with rounded corners*
0 $1 Rounding radius*
0 $2 $3 $4 $5 $6 $7 $8 $9 X,Y pos of 4 corners*
0 Add a 4 corners polygon primitive as box body*
4,1,4,$2,$3,$4,$5,$6,$7,$8,$9,$2,$3,0*
0 Add four circle primitives for the rounded corners*
1,1,$1+$1,$2,$3*
1,1,$1+$1,$4,$5*
1,1,$1+$1,$6,$7*
1,1,$1+$1,$8,$9*
0 Add four rect primitives between the rounded corners*
20,1,$1+$1,$2,$3,$4,$5,0*
20,1,$1+$1,$4,$5,$6,$7,0*
20,1,$1+$1,$6,$7,$8,$9,0*
20,1,$1+$1,$8,$9,$2,$3,0*%
G04 Aperture macros list end*
%TA.AperFunction,SMDPad,CuDef*%
%ADD10RoundRect,0.150000X-0.150000X-0.200000X0.150000X-0.200000X0.150000X0.200000X-0.150000X0.200000X0*%
%TD*%
%TA.AperFunction,SMDPad,CuDef*%
%ADD11RoundRect,0.200000X-0.275000X0.200000X-0.275000X-0.200000X0.275000X-0.200000X0.275000X0.200000X0*%
%TD*%
%TA.AperFunction,SMDPad,CuDef*%
%ADD12RoundRect,0.243750X0.243750X0.456250X-0.243750X0.456250X-0.243750X-0.456250X0.243750X-0.456250X0*%
%TD*%
%TA.AperFunction,SMDPad,CuDef*%
%ADD13RoundRect,0.075000X-0.075000X-0.200000X0.075000X-0.200000X0.075000X0.200000X-0.075000X0.200000X0*%
%TD*%
%TA.AperFunction,SMDPad,CuDef*%
%ADD14RoundRect,0.050000X0.250000X0.525000X-0.250000X0.525000X-0.250000X-0.525000X0.250000X-0.525000X0*%
%TD*%
%TA.AperFunction,SMDPad,CuDef*%
%ADD15RoundRect,0.050000X0.100000X0.525000X-0.100000X0.525000X-0.100000X-0.525000X0.100000X-0.525000X0*%
%TD*%
%TA.AperFunction,ComponentPad*%
%ADD16O,1.000000X2.100000*%
%TD*%
%TA.AperFunction,ComponentPad*%
%ADD17O,1.000000X1.800000*%
%TD*%
%TA.AperFunction,SMDPad,CuDef*%
%ADD18RoundRect,0.150000X-0.150000X-0.575000X0.150000X-0.575000X0.150000X0.575000X-0.150000X0.575000X0*%
%TD*%
%TA.AperFunction,SMDPad,CuDef*%
%ADD19RoundRect,0.250000X-0.350000X-0.650000X0.350000X-0.650000X0.350000X0.650000X-0.350000X0.650000X0*%
%TD*%
%TA.AperFunction,ViaPad*%
%ADD20C,0.600000*%
%TD*%
%TA.AperFunction,ViaPad*%
%ADD21C,1.000000*%
%TD*%
%TA.AperFunction,Conductor*%
%ADD22C,0.400000*%
%TD*%
%TA.AperFunction,Conductor*%
%ADD23C,0.200000*%
%TD*%
G04 APERTURE END LIST*
D10*
%TO.P,D1,1,K*%
%TO.N,+5V*%
X69100000Y-60600000D03*
%TO.P,D1,2,A*%
%TO.N,GND*%
X67700000Y-60600000D03*
%TD*%
D11*
%TO.P,R2,1*%
%TO.N,Net-(J1-CC1)*%
X81700000Y-58175000D03*
%TO.P,R2,2*%
%TO.N,GND*%
X81700000Y-59825000D03*
%TD*%
%TO.P,R1,1*%
%TO.N,Net-(J1-CC2)*%
X65600000Y-58175000D03*
%TO.P,R1,2*%
%TO.N,GND*%
X65600000Y-59825000D03*
%TD*%
D12*
%TO.P,F1,1*%
%TO.N,VBUS*%
X69337500Y-58500000D03*
%TO.P,F1,2*%
%TO.N,+5V*%
X67462500Y-58500000D03*
%TD*%
D13*
%TO.P,U1,1,D1+*%
%TO.N,D+*%
X78000000Y-59585000D03*
%TO.P,U1,2,D1-*%
%TO.N,D-*%
X78500000Y-59585000D03*
%TO.P,U1,3,GND*%
%TO.N,GND*%
X79000000Y-59585000D03*
%TO.P,U1,4,D2+*%
%TO.N,unconnected-(U1-D2+-Pad4)*%
X79500000Y-59585000D03*
%TO.P,U1,5,D2-*%
%TO.N,unconnected-(U1-D2--Pad5)*%
X80000000Y-59585000D03*
%TO.P,U1,6,NC*%
%TO.N,unconnected-(U1-NC-Pad6)*%
X80000000Y-58815000D03*
%TO.P,U1,7,NC*%
%TO.N,unconnected-(U1-NC-Pad7)*%
X79500000Y-58815000D03*
%TO.P,U1,8,GND*%
%TO.N,GND*%
X79000000Y-58815000D03*
%TO.P,U1,9,NC*%
%TO.N,unconnected-(U1-NC-Pad9)*%
X78500000Y-58815000D03*
%TO.P,U1,10,NC*%
%TO.N,unconnected-(U1-NC-Pad10)*%
X78000000Y-58815000D03*
%TD*%
D14*
%TO.P,J1,A1,GND*%
%TO.N,GND*%
X77200000Y-55950000D03*
%TO.P,J1,A4,VBUS*%
%TO.N,VBUS*%
X76400000Y-55950000D03*
D15*
%TO.P,J1,A5,CC1*%
%TO.N,Net-(J1-CC1)*%
X75250000Y-55950000D03*
%TO.P,J1,A6,D+*%
%TO.N,D+*%
X74250000Y-55950000D03*
%TO.P,J1,A7,D-*%
%TO.N,D-*%
X73750000Y-55950000D03*
%TO.P,J1,A8,SBU1*%
%TO.N,unconnected-(J1-SBU1-PadA8)*%
X72750000Y-55950000D03*
D14*
%TO.P,J1,A9,VBUS*%
%TO.N,VBUS*%
X71600000Y-55950000D03*
%TO.P,J1,A12,GND*%
%TO.N,GND*%
X70800000Y-55950000D03*
D15*
%TO.P,J1,B5,CC2*%
%TO.N,Net-(J1-CC2)*%
X72250000Y-55950000D03*
%TO.P,J1,B6,D+*%
%TO.N,D+*%
X73250000Y-55950000D03*
%TO.P,J1,B7,D-*%
%TO.N,D-*%
X74750000Y-55950000D03*
%TO.P,J1,B8,SBU2*%
%TO.N,unconnected-(J1-SBU2-PadB8)*%
X75750000Y-55950000D03*
D16*
%TO.P,J1,S1,SHIELD*%
%TO.N,GND*%
X78320000Y-55380000D03*
D17*
X78320000Y-51200000D03*
D16*
X69680000Y-55380000D03*
D17*
X69680000Y-51200000D03*
%TD*%
D18*
%TO.P,J2,1,Pin_1*%
%TO.N,+5V*%
X72500000Y-57975000D03*
%TO.P,J2,2,Pin_2*%
%TO.N,D-*%
X73500000Y-57975000D03*
%TO.P,J2,3,Pin_3*%
%TO.N,D+*%
X74500000Y-57975000D03*
%TO.P,J2,4,Pin_4*%
%TO.N,GND*%
X75500000Y-57975000D03*
D19*
%TO.P,J2,MP,MountPin*%
X71200000Y-61800000D03*
X76800000Y-61800000D03*
%TD*%
D20*
%TO.N,GND*%
X77900000Y-62000000D03*
X71500000Y-58400000D03*
X65600000Y-60700000D03*
D21*
X76500000Y-59000000D03*
D20*
X79400000Y-58000000D03*
X80700000Y-59800000D03*
X79100000Y-60350000D03*
X75500000Y-59100000D03*
X70300000Y-57400000D03*
X70100000Y-62000000D03*
X67200000Y-59800000D03*
D21*
%TO.N,VBUS*%
X76500000Y-57700000D03*
X71400000Y-57400000D03*
D20*
%TO.N,Net-(J1-CC2)*%
X65600000Y-57400000D03*
X72200000Y-54900000D03*
%TO.N,D-*%
X73900000Y-54900000D03*
X78500000Y-58050000D03*
%TO.N,D+*%
X73100000Y-54900000D03*
X77700000Y-58050000D03*
%TO.N,Net-(J1-CC1)*%
X81700000Y-57400000D03*
X75300000Y-54900000D03*
%TD*%
D22*
%TO.N,+5V*%
X72500000Y-58400000D02*
X72500000Y-57925000D01*
X67462500Y-58500000D02*
X67462500Y-58962500D01*
X69100000Y-60600000D02*
X70300000Y-60600000D01*
X67462500Y-58962500D02*
X69100000Y-60600000D01*
X70300000Y-60600000D02*
X72500000Y-58400000D01*
D23*
%TO.N,GND*%
X79400000Y-58000000D02*
X79300000Y-58100000D01*
X79000000Y-59585000D02*
X79000000Y-60250000D01*
X79300000Y-58150000D02*
X79000000Y-58450000D01*
X79000000Y-58450000D02*
X79000000Y-58815000D01*
X79000000Y-60250000D02*
X79100000Y-60350000D01*
X79300000Y-58100000D02*
X79300000Y-58150000D01*
D22*
%TO.N,VBUS*%
X71400000Y-57500000D02*
X70700000Y-58200000D01*
X71600000Y-57200000D02*
X71400000Y-57400000D01*
X76400000Y-55950000D02*
X76400000Y-57600000D01*
X71400000Y-57400000D02*
X71400000Y-57500000D01*
X69637500Y-58200000D02*
X69337500Y-58500000D01*
X76400000Y-57600000D02*
X76500000Y-57700000D01*
X71600000Y-55950000D02*
X71600000Y-57200000D01*
X70700000Y-58200000D02*
X69637500Y-58200000D01*
D23*
%TO.N,Net-(J1-CC2)*%
X65600000Y-58175000D02*
X65600000Y-57400000D01*
X72200000Y-55000000D02*
X72250000Y-55050000D01*
X72200000Y-54900000D02*
X72200000Y-55000000D01*
X72250000Y-55050000D02*
X72250000Y-56100000D01*
%TO.N,D-*%
X73750000Y-56100000D02*
X73750000Y-55250000D01*
X73500000Y-57925000D02*
X73700000Y-58125000D01*
X74200000Y-60200000D02*
X78300000Y-60200000D01*
X74500000Y-55000000D02*
X74750000Y-55250000D01*
X73700000Y-58800000D02*
X73800000Y-58900000D01*
X73750000Y-55250000D02*
X74000000Y-55000000D01*
X78500000Y-58050000D02*
X78500000Y-59585000D01*
X74000000Y-55000000D02*
X74500000Y-55000000D01*
X78300000Y-60200000D02*
X78500000Y-60000000D01*
X74750000Y-55250000D02*
X74750000Y-56100000D01*
X73800000Y-59800000D02*
X74200000Y-60200000D01*
X74000000Y-55000000D02*
X73900000Y-54900000D01*
X78500000Y-60000000D02*
X78500000Y-59585000D01*
X73700000Y-58125000D02*
X73700000Y-58800000D01*
X73800000Y-58900000D02*
X73800000Y-59800000D01*
%TO.N,D+*%
X73250000Y-55950000D02*
X73250000Y-56650000D01*
X73450000Y-56850000D02*
X74050000Y-56850000D01*
X73250000Y-55950000D02*
X73250000Y-55050000D01*
X74500000Y-59800000D02*
X74200000Y-59500000D01*
X73250000Y-56650000D02*
X73450000Y-56850000D01*
X74300000Y-58800000D02*
X74300000Y-58125000D01*
X74200000Y-58900000D02*
X74300000Y-58800000D01*
X74200000Y-59500000D02*
X74200000Y-58900000D01*
X74300000Y-58125000D02*
X74500000Y-57925000D01*
X78000000Y-58450000D02*
X78000000Y-59585000D01*
X74050000Y-56850000D02*
X74250000Y-56650000D01*
X77785000Y-59800000D02*
X74500000Y-59800000D01*
X77700000Y-58150000D02*
X78000000Y-58450000D01*
X78000000Y-59585000D02*
X77785000Y-59800000D01*
X74250000Y-56650000D02*
X74250000Y-56100000D01*
X77700000Y-58050000D02*
X77700000Y-58150000D01*
X73250000Y-55050000D02*
X73100000Y-54900000D01*
%TO.N,Net-(J1-CC1)*%
X81700000Y-57400000D02*
X81700000Y-58175000D01*
X75250000Y-54950000D02*
X75300000Y-54900000D01*
X75250000Y-56100000D02*
X75250000Y-54950000D01*
%TD*%
%TA.AperFunction,Conductor*%
%TO.N,GND*%
G36*
X75542610Y-56708773D02*
G01*
X75543248Y-56707233D01*
X75552255Y-56710962D01*
X75552260Y-56710966D01*
X75607808Y-56722015D01*
X75625315Y-56725498D01*
X75625320Y-56725498D01*
X75625326Y-56725500D01*
X75625327Y-56725500D01*
X75874673Y-56725500D01*
X75874674Y-56725500D01*
X75881179Y-56724206D01*
X75941941Y-56731393D01*
X75986874Y-56772922D01*
X75999500Y-56821302D01*
X75999500Y-57168836D01*
X75980593Y-57227027D01*
X75970504Y-57238840D01*
X75955889Y-57253454D01*
X75955885Y-57253458D01*
X75879228Y-57368182D01*
X75879222Y-57368193D01*
X75826420Y-57495670D01*
X75826420Y-57495672D01*
X75799500Y-57631004D01*
X75799500Y-57768995D01*
X75826420Y-57904327D01*
X75826420Y-57904329D01*
X75879222Y-58031806D01*
X75879228Y-58031817D01*
X75955885Y-58146541D01*
X76053458Y-58244114D01*
X76168182Y-58320771D01*
X76168193Y-58320777D01*
X76200375Y-58334107D01*
X76295672Y-58373580D01*
X76431007Y-58400500D01*
X76431008Y-58400500D01*
X76568992Y-58400500D01*
X76568993Y-58400500D01*
X76704328Y-58373580D01*
X76831811Y-58320775D01*
X76946542Y-58244114D01*
X77044114Y-58146542D01*
X77044120Y-58146531D01*
X77045160Y-58145266D01*
X77045799Y-58144856D01*
X77047553Y-58143103D01*
X77047937Y-58143487D01*
X77096684Y-58112267D01*
X77157764Y-58115856D01*
X77205070Y-58154661D01*
X77217329Y-58182431D01*
X77233609Y-58243190D01*
X77299496Y-58357309D01*
X77299498Y-58357311D01*
X77299500Y-58357314D01*
X77392686Y-58450500D01*
X77392688Y-58450501D01*
X77392690Y-58450503D01*
X77506810Y-58516390D01*
X77506811Y-58516390D01*
X77506814Y-58516392D01*
X77576124Y-58534963D01*
X77627437Y-58568286D01*
X77649364Y-58625407D01*
X77649500Y-58630589D01*
X77649500Y-59042129D01*
X77649501Y-59042136D01*
X77665484Y-59122494D01*
X77665485Y-59122496D01*
X77680521Y-59144998D01*
X77697130Y-59203886D01*
X77680521Y-59255002D01*
X77665486Y-59277501D01*
X77665486Y-59277503D01*
X77665485Y-59277505D01*
X77665485Y-59277506D01*
X77649501Y-59357860D01*
X77649500Y-59357868D01*
X77649500Y-59400500D01*
X77630593Y-59458691D01*
X77581093Y-59494655D01*
X77550500Y-59499500D01*
X74665479Y-59499500D01*
X74657881Y-59497031D01*
X74649992Y-59498281D01*
X74629336Y-59487756D01*
X74607288Y-59480593D01*
X74595475Y-59470504D01*
X74529496Y-59404525D01*
X74501719Y-59350008D01*
X74500500Y-59334521D01*
X74500500Y-59065478D01*
X74519407Y-59007287D01*
X74529490Y-58995480D01*
X74540460Y-58984511D01*
X74552660Y-58963378D01*
X74560386Y-58949999D01*
X74605857Y-58909058D01*
X74646122Y-58900500D01*
X74683257Y-58900500D01*
X74683260Y-58900500D01*
X74751393Y-58890573D01*
X74856483Y-58839198D01*
X74939198Y-58756483D01*
X74990573Y-58651393D01*
X75000500Y-58583260D01*
X75000500Y-57366740D01*
X74990573Y-57298607D01*
X74939198Y-57193517D01*
X74856483Y-57110802D01*
X74856481Y-57110801D01*
X74751395Y-57059427D01*
X74721908Y-57055131D01*
X74683260Y-57049500D01*
X74514478Y-57049500D01*
X74498542Y-57044322D01*
X74481794Y-57043949D01*
X74470175Y-57035105D01*
X74456287Y-57030593D01*
X74446438Y-57017037D01*
X74433108Y-57006891D01*
X74428906Y-56992907D01*
X74420323Y-56981093D01*
X74420323Y-56964336D01*
X74415503Y-56948293D01*
X74420323Y-56937013D01*
X74420323Y-56919907D01*
X74435702Y-56890538D01*
X74439746Y-56885224D01*
X74490460Y-56834511D01*
X74528502Y-56768619D01*
X74532312Y-56763615D01*
X74552535Y-56749599D01*
X74570821Y-56733136D01*
X74577959Y-56731981D01*
X74582602Y-56728764D01*
X74596001Y-56729062D01*
X74620789Y-56725053D01*
X74625323Y-56725499D01*
X74625326Y-56725500D01*
X74625329Y-56725500D01*
X74874673Y-56725500D01*
X74874674Y-56725500D01*
X74947740Y-56710966D01*
X74947746Y-56710961D01*
X74956752Y-56707233D01*
X74957586Y-56709248D01*
X75003880Y-56696189D01*
X75042610Y-56708773D01*
X75043248Y-56707233D01*
X75052255Y-56710962D01*
X75052260Y-56710966D01*
X75107808Y-56722015D01*
X75125315Y-56725498D01*
X75125320Y-56725498D01*
X75125326Y-56725500D01*
X75125327Y-56725500D01*
X75374673Y-56725500D01*
X75374674Y-56725500D01*
X75447740Y-56710966D01*
X75447746Y-56710961D01*
X75456752Y-56707233D01*
X75457586Y-56709248D01*
X75503880Y-56696189D01*
X75542610Y-56708773D01*
G37*
%TD.AperFunction*%
%TA.AperFunction,Conductor*%
G36*
X81925168Y-50501798D02*
G01*
X81928298Y-50501866D01*
X82151415Y-50510263D01*
X82157831Y-50510715D01*
X82358824Y-50531471D01*
X82368344Y-50532927D01*
X82557530Y-50571399D01*
X82566966Y-50573807D01*
X82660051Y-50602513D01*
X82668481Y-50605538D01*
X82781364Y-50651910D01*
X82789469Y-50655677D01*
X82863815Y-50694398D01*
X82870999Y-50698532D01*
X82948376Y-50747479D01*
X82956235Y-50752451D01*
X82961691Y-50756163D01*
X82992525Y-50778678D01*
X82997370Y-50782452D01*
X83065904Y-50839334D01*
X83071741Y-50844582D01*
X83134435Y-50905626D01*
X83139846Y-50911330D01*
X83194833Y-50974113D01*
X83199778Y-50980235D01*
X83252350Y-51050876D01*
X83256598Y-51057059D01*
X83290741Y-51111047D01*
X83295996Y-51120453D01*
X83372420Y-51276682D01*
X83377669Y-51289669D01*
X83433725Y-51462669D01*
X83436367Y-51472530D01*
X83456947Y-51569000D01*
X83458441Y-51578028D01*
X83488113Y-51828922D01*
X83488754Y-51837610D01*
X83499282Y-52192074D01*
X83499326Y-52194873D01*
X83499500Y-52318201D01*
X83499500Y-60680849D01*
X83499499Y-60681377D01*
X83498200Y-60925136D01*
X83498131Y-60928331D01*
X83489736Y-61151400D01*
X83489282Y-61157847D01*
X83468528Y-61358807D01*
X83467066Y-61368365D01*
X83428599Y-61557532D01*
X83426188Y-61566979D01*
X83397490Y-61660035D01*
X83394461Y-61668479D01*
X83348090Y-61781358D01*
X83344321Y-61789470D01*
X83305605Y-61863806D01*
X83301465Y-61871001D01*
X83247544Y-61956239D01*
X83243832Y-61961695D01*
X83221316Y-61992530D01*
X83217543Y-61997375D01*
X83160746Y-62065808D01*
X83160665Y-62065905D01*
X83155416Y-62071742D01*
X83094377Y-62134431D01*
X83088672Y-62139842D01*
X83025883Y-62194833D01*
X83019764Y-62199777D01*
X82949121Y-62252352D01*
X82942941Y-62256597D01*
X82888958Y-62290738D01*
X82879545Y-62295996D01*
X82723316Y-62372420D01*
X82710329Y-62377669D01*
X82537336Y-62433723D01*
X82527475Y-62436365D01*
X82430995Y-62456947D01*
X82421967Y-62458441D01*
X82171075Y-62488113D01*
X82162387Y-62488754D01*
X81807924Y-62499282D01*
X81805125Y-62499326D01*
X81681982Y-62499499D01*
X81681798Y-62499500D01*
X66319149Y-62499500D01*
X66318622Y-62499499D01*
X66314965Y-62499479D01*
X66074862Y-62498200D01*
X66071667Y-62498131D01*
X65848598Y-62489736D01*
X65842151Y-62489282D01*
X65641191Y-62468528D01*
X65631633Y-62467066D01*
X65442466Y-62428599D01*
X65433019Y-62426188D01*
X65339963Y-62397490D01*
X65331519Y-62394461D01*
X65218640Y-62348090D01*
X65210528Y-62344321D01*
X65136192Y-62305605D01*
X65128997Y-62301465D01*
X65043759Y-62247544D01*
X65038303Y-62243832D01*
X65007468Y-62221316D01*
X65002633Y-62217551D01*
X64934078Y-62160652D01*
X64928256Y-62155416D01*
X64865567Y-62094377D01*
X64860156Y-62088672D01*
X64805165Y-62025883D01*
X64800221Y-62019764D01*
X64755018Y-61959026D01*
X64747641Y-61949114D01*
X64743413Y-61942959D01*
X64709250Y-61888940D01*
X64704002Y-61879545D01*
X64700729Y-61872855D01*
X64627578Y-61723316D01*
X64622329Y-61710329D01*
X64566275Y-61537336D01*
X64563633Y-61527475D01*
X64543051Y-61430995D01*
X64541559Y-61421983D01*
X64511884Y-61171071D01*
X64511244Y-61162387D01*
X64511152Y-61159301D01*
X64500715Y-60807920D01*
X64500672Y-60805124D01*
X64500500Y-60681797D01*
X64500500Y-57943477D01*
X64924500Y-57943477D01*
X64924500Y-58406520D01*
X64924501Y-58406523D01*
X64939352Y-58500299D01*
X64939354Y-58500304D01*
X64996950Y-58613342D01*
X65086658Y-58703050D01*
X65199696Y-58760646D01*
X65293481Y-58775500D01*
X65906518Y-58775499D01*
X65906520Y-58775499D01*
X65906521Y-58775498D01*
X65968493Y-58765684D01*
X66000299Y-58760647D01*
X66000299Y-58760646D01*
X66000304Y-58760646D01*
X66113342Y-58703050D01*
X66203050Y-58613342D01*
X66260646Y-58500304D01*
X66275500Y-58406519D01*
X66275499Y-57990226D01*
X66774500Y-57990226D01*
X66774500Y-59009773D01*
X66777313Y-59039768D01*
X66777315Y-59039777D01*
X66821543Y-59166175D01*
X66821544Y-59166176D01*
X66821545Y-59166179D01*
X66901070Y-59273930D01*
X67008821Y-59353455D01*
X67135226Y-59397686D01*
X67165226Y-59400499D01*
X67165230Y-59400500D01*
X67165236Y-59400500D01*
X67293099Y-59400500D01*
X67351290Y-59419407D01*
X67363103Y-59429496D01*
X68570504Y-60636896D01*
X68598281Y-60691413D01*
X68599500Y-60706900D01*
X68599500Y-60833260D01*
X68606118Y-60878682D01*
X68609427Y-60901395D01*
X68644533Y-60973205D01*
X68660802Y-61006483D01*
X68743517Y-61089198D01*
X68797285Y-61115483D01*
X68848604Y-61140572D01*
X68848605Y-61140572D01*
X68848607Y-61140573D01*
X68916740Y-61150500D01*
X68916743Y-61150500D01*
X69283257Y-61150500D01*
X69283260Y-61150500D01*
X69351393Y-61140573D01*
X69456483Y-61089198D01*
X69516186Y-61029494D01*
X69570701Y-61001719D01*
X69586188Y-61000500D01*
X70352725Y-61000500D01*
X70352727Y-61000500D01*
X70454588Y-60973207D01*
X70454590Y-60973205D01*
X70454592Y-60973205D01*
X70545908Y-60920483D01*
X70545908Y-60920482D01*
X70545913Y-60920480D01*
X72536897Y-58929496D01*
X72591414Y-58901719D01*
X72606901Y-58900500D01*
X72683257Y-58900500D01*
X72683260Y-58900500D01*
X72751393Y-58890573D01*
X72856483Y-58839198D01*
X72929998Y-58765682D01*
X72984513Y-58737907D01*
X73044945Y-58747478D01*
X73070000Y-58765681D01*
X73143517Y-58839198D01*
X73197285Y-58865483D01*
X73248604Y-58890572D01*
X73248605Y-58890572D01*
X73248607Y-58890573D01*
X73316740Y-58900500D01*
X73353878Y-58900500D01*
X73369394Y-58905541D01*
X73385707Y-58905756D01*
X73395964Y-58914174D01*
X73412069Y-58919407D01*
X73434729Y-58942368D01*
X73437352Y-58946080D01*
X73459540Y-58984511D01*
X73476475Y-59001446D01*
X73481351Y-59008346D01*
X73488038Y-59029887D01*
X73498281Y-59049991D01*
X73499500Y-59065478D01*
X73499500Y-59839562D01*
X73519979Y-59915989D01*
X73519979Y-59915991D01*
X73522282Y-59919978D01*
X73522283Y-59919979D01*
X73559540Y-59984511D01*
X73559542Y-59984513D01*
X73959539Y-60384511D01*
X74015489Y-60440460D01*
X74084007Y-60480019D01*
X74084011Y-60480021D01*
X74160435Y-60500499D01*
X74160437Y-60500500D01*
X74160438Y-60500500D01*
X78339563Y-60500500D01*
X78339563Y-60500499D01*
X78415989Y-60480021D01*
X78484511Y-60440460D01*
X78512485Y-60412485D01*
X78540461Y-60384511D01*
X78640460Y-60284511D01*
X78740460Y-60184511D01*
X78780022Y-60115988D01*
X78800500Y-60039562D01*
X78800500Y-59973432D01*
X78817184Y-59918432D01*
X78834515Y-59892495D01*
X78850500Y-59812133D01*
X78850499Y-59357868D01*
X78850498Y-59357865D01*
X78850498Y-59357860D01*
X78834515Y-59277506D01*
X78834515Y-59277505D01*
X78819477Y-59254999D01*
X78815737Y-59241738D01*
X78807638Y-59230591D01*
X78807638Y-59213023D01*
X78802869Y-59196114D01*
X78807638Y-59183184D01*
X78807639Y-59169406D01*
X78819477Y-59145000D01*
X78834515Y-59122495D01*
X78850500Y-59042133D01*
X78850499Y-58587868D01*
X78850499Y-58587867D01*
X79149500Y-58587867D01*
X79149500Y-59042129D01*
X79149501Y-59042136D01*
X79165484Y-59122494D01*
X79165486Y-59122498D01*
X79180521Y-59145000D01*
X79184260Y-59158260D01*
X79192360Y-59169408D01*
X79192359Y-59186977D01*
X79197129Y-59203888D01*
X79192359Y-59218567D01*
X79192359Y-59230593D01*
X79185290Y-59240322D01*
X79180521Y-59255000D01*
X79165487Y-59277499D01*
X79165485Y-59277503D01*
X79165485Y-59277505D01*
X79165485Y-59277506D01*
X79149501Y-59357860D01*
X79149500Y-59357867D01*
X79149500Y-59812129D01*
X79149501Y-59812136D01*
X79165484Y-59892494D01*
X79165485Y-59892496D01*
X79226373Y-59983620D01*
X79226376Y-59983624D01*
X79317505Y-60044515D01*
X79397867Y-60060500D01*
X79602132Y-60060499D01*
X79682495Y-60044515D01*
X79694996Y-60036161D01*
X79753883Y-60019551D01*
X79805000Y-60036159D01*
X79817505Y-60044515D01*
X79897867Y-60060500D01*
X80102132Y-60060499D01*
X80182495Y-60044515D01*
X80273624Y-59983624D01*
X80334515Y-59892495D01*
X80350500Y-59812133D01*
X80350499Y-59357868D01*
X80350498Y-59357865D01*
X80350498Y-59357860D01*
X80334515Y-59277506D01*
X80334515Y-59277505D01*
X80319477Y-59255000D01*
X80302869Y-59196114D01*
X80319478Y-59144998D01*
X80334515Y-59122495D01*
X80350500Y-59042133D01*
X80350499Y-58587868D01*
X80334515Y-58507505D01*
X80334512Y-58507501D01*
X80273626Y-58416379D01*
X80273624Y-58416376D01*
X80273620Y-58416373D01*
X80182497Y-58355486D01*
X80182496Y-58355485D01*
X80182495Y-58355485D01*
X80102133Y-58339500D01*
X80102132Y-58339500D01*
X79897870Y-58339500D01*
X79897862Y-58339501D01*
X79817505Y-58355484D01*
X79817501Y-58355486D01*
X79804999Y-58363840D01*
X79746111Y-58380447D01*
X79695001Y-58363840D01*
X79682496Y-58355485D01*
X79682495Y-58355484D01*
X79602134Y-58339500D01*
X79397870Y-58339500D01*
X79397862Y-58339501D01*
X79317505Y-58355484D01*
X79317503Y-58355485D01*
X79226379Y-58416373D01*
X79226373Y-58416379D01*
X79165486Y-58507501D01*
X79165486Y-58507503D01*
X79165485Y-58507505D01*
X79152416Y-58573207D01*
X79149500Y-58587867D01*
X78850499Y-58587867D01*
X78849582Y-58583260D01*
X78832613Y-58497942D01*
X78834262Y-58497613D01*
X78830366Y-58448075D01*
X78856625Y-58401188D01*
X78900500Y-58357314D01*
X78900503Y-58357309D01*
X78966390Y-58243190D01*
X78966390Y-58243188D01*
X78966392Y-58243186D01*
X79000500Y-58115892D01*
X79000500Y-57984108D01*
X78989613Y-57943477D01*
X81024500Y-57943477D01*
X81024500Y-58406520D01*
X81024501Y-58406523D01*
X81039352Y-58500299D01*
X81039354Y-58500304D01*
X81096950Y-58613342D01*
X81186658Y-58703050D01*
X81299696Y-58760646D01*
X81393481Y-58775500D01*
X82006518Y-58775499D01*
X82006520Y-58775499D01*
X82006521Y-58775498D01*
X82068493Y-58765684D01*
X82100299Y-58760647D01*
X82100299Y-58760646D01*
X82100304Y-58760646D01*
X82213342Y-58703050D01*
X82303050Y-58613342D01*
X82360646Y-58500304D01*
X82375500Y-58406519D01*
X82375499Y-57943482D01*
X82369298Y-57904327D01*
X82360647Y-57849700D01*
X82360646Y-57849698D01*
X82360646Y-57849696D01*
X82303050Y-57736658D01*
X82213342Y-57646950D01*
X82213339Y-57646948D01*
X82207832Y-57641441D01*
X82209712Y-57639560D01*
X82181063Y-57600120D01*
X82179594Y-57543914D01*
X82200500Y-57465892D01*
X82200500Y-57334108D01*
X82166392Y-57206814D01*
X82166390Y-57206811D01*
X82166390Y-57206809D01*
X82100503Y-57092690D01*
X82100501Y-57092688D01*
X82100500Y-57092686D01*
X82007314Y-56999500D01*
X82007311Y-56999498D01*
X82007309Y-56999496D01*
X81893189Y-56933609D01*
X81893191Y-56933609D01*
X81842053Y-56919907D01*
X81765892Y-56899500D01*
X81634108Y-56899500D01*
X81557947Y-56919907D01*
X81506809Y-56933609D01*
X81392690Y-56999496D01*
X81299496Y-57092690D01*
X81233609Y-57206809D01*
X81228192Y-57227027D01*
X81199500Y-57334108D01*
X81199500Y-57465892D01*
X81220405Y-57543914D01*
X81217203Y-57605015D01*
X81190522Y-57639795D01*
X81192168Y-57641441D01*
X81186659Y-57646949D01*
X81186658Y-57646950D01*
X81143221Y-57690387D01*
X81096949Y-57736659D01*
X81039354Y-57849695D01*
X81024500Y-57943477D01*
X78989613Y-57943477D01*
X78966392Y-57856814D01*
X78966390Y-57856811D01*
X78966390Y-57856809D01*
X78900503Y-57742690D01*
X78900501Y-57742688D01*
X78900500Y-57742686D01*
X78807314Y-57649500D01*
X78807311Y-57649498D01*
X78807309Y-57649496D01*
X78693189Y-57583609D01*
X78693191Y-57583609D01*
X78643799Y-57570375D01*
X78565892Y-57549500D01*
X78434108Y-57549500D01*
X78356200Y-57570375D01*
X78306809Y-57583609D01*
X78192690Y-57649496D01*
X78192684Y-57649501D01*
X78170002Y-57672183D01*
X78115485Y-57699959D01*
X78055053Y-57690387D01*
X78029998Y-57672183D01*
X78007315Y-57649501D01*
X78007309Y-57649496D01*
X77893189Y-57583609D01*
X77893191Y-57583609D01*
X77843799Y-57570375D01*
X77765892Y-57549500D01*
X77634108Y-57549500D01*
X77556200Y-57570375D01*
X77506809Y-57583609D01*
X77392690Y-57649496D01*
X77392684Y-57649501D01*
X77366420Y-57675765D01*
X77311903Y-57703541D01*
X77251472Y-57693969D01*
X77208208Y-57650704D01*
X77199320Y-57625074D01*
X77191072Y-57583609D01*
X77173580Y-57495672D01*
X77120775Y-57368189D01*
X77120774Y-57368187D01*
X77120771Y-57368182D01*
X77044114Y-57253458D01*
X76946545Y-57155889D01*
X76946542Y-57155886D01*
X76844498Y-57087702D01*
X76806619Y-57039652D01*
X76800500Y-57005387D01*
X76800500Y-56726709D01*
X76819407Y-56668518D01*
X76829496Y-56656705D01*
X76830594Y-56655605D01*
X76830601Y-56655601D01*
X76885966Y-56572740D01*
X76900500Y-56499674D01*
X76900500Y-55523071D01*
X76919407Y-55464880D01*
X76968907Y-55428916D01*
X76973848Y-55427452D01*
X77102485Y-55392984D01*
X77102487Y-55392982D01*
X77102489Y-55392982D01*
X77228010Y-55320512D01*
X77228010Y-55320511D01*
X77228015Y-55320509D01*
X77330509Y-55218015D01*
X77355632Y-55174501D01*
X77402982Y-55092489D01*
X77402982Y-55092487D01*
X77402984Y-55092485D01*
X77440500Y-54952475D01*
X77440500Y-54807525D01*
X77402984Y-54667515D01*
X77402982Y-54667512D01*
X77402982Y-54667510D01*
X77330512Y-54541989D01*
X77330510Y-54541987D01*
X77330509Y-54541985D01*
X77228015Y-54439491D01*
X77228012Y-54439489D01*
X77228010Y-54439487D01*
X77102488Y-54367017D01*
X77102489Y-54367017D01*
X77072896Y-54359087D01*
X76962475Y-54329500D01*
X76817525Y-54329500D01*
X76755790Y-54346041D01*
X76677510Y-54367017D01*
X76551989Y-54439487D01*
X76449487Y-54541989D01*
X76377017Y-54667510D01*
X76339500Y-54807525D01*
X76339500Y-54952474D01*
X76365599Y-55049877D01*
X76362396Y-55110978D01*
X76323891Y-55158528D01*
X76269972Y-55174500D01*
X76125326Y-55174500D01*
X76125325Y-55174500D01*
X76125315Y-55174501D01*
X76052263Y-55189033D01*
X76052261Y-55189033D01*
X76052260Y-55189034D01*
X76052259Y-55189034D01*
X76043251Y-55192766D01*
X76042416Y-55190751D01*
X75996112Y-55203811D01*
X75977577Y-55201314D01*
X75960002Y-55197227D01*
X75947740Y-55189034D01*
X75874674Y-55174500D01*
X75862265Y-55174500D01*
X75851200Y-55171927D01*
X75834254Y-55161708D01*
X75815432Y-55155593D01*
X75808663Y-55146277D01*
X75798804Y-55140332D01*
X75791100Y-55122104D01*
X75779468Y-55106093D01*
X75779146Y-55093817D01*
X75774986Y-55083972D01*
X75778493Y-55068887D01*
X75777996Y-55049878D01*
X75800500Y-54965892D01*
X75800500Y-54834108D01*
X75766392Y-54706814D01*
X75766390Y-54706810D01*
X75766390Y-54706809D01*
X75700503Y-54592690D01*
X75700501Y-54592688D01*
X75700500Y-54592686D01*
X75607314Y-54499500D01*
X75607311Y-54499498D01*
X75607309Y-54499496D01*
X75493189Y-54433609D01*
X75493191Y-54433609D01*
X75443799Y-54420375D01*
X75365892Y-54399500D01*
X75234108Y-54399500D01*
X75156200Y-54420375D01*
X75106809Y-54433609D01*
X74992690Y-54499496D01*
X74899496Y-54592690D01*
X74833609Y-54706810D01*
X74831126Y-54712806D01*
X74828696Y-54711799D01*
X74801429Y-54753745D01*
X74744297Y-54775645D01*
X74689662Y-54762514D01*
X74660042Y-54745412D01*
X74660042Y-54745413D01*
X74615989Y-54719979D01*
X74615988Y-54719978D01*
X74615987Y-54719978D01*
X74539564Y-54699500D01*
X74539562Y-54699500D01*
X74419327Y-54699500D01*
X74361136Y-54680593D01*
X74333591Y-54650001D01*
X74315617Y-54618870D01*
X74300500Y-54592686D01*
X74207314Y-54499500D01*
X74207311Y-54499498D01*
X74207309Y-54499496D01*
X74093189Y-54433609D01*
X74093191Y-54433609D01*
X74043799Y-54420375D01*
X73965892Y-54399500D01*
X73834108Y-54399500D01*
X73756200Y-54420375D01*
X73706809Y-54433609D01*
X73592690Y-54499496D01*
X73592684Y-54499501D01*
X73570002Y-54522183D01*
X73515485Y-54549959D01*
X73455053Y-54540387D01*
X73429998Y-54522183D01*
X73407315Y-54499501D01*
X73407309Y-54499496D01*
X73293189Y-54433609D01*
X73293191Y-54433609D01*
X73243799Y-54420375D01*
X73165892Y-54399500D01*
X73034108Y-54399500D01*
X72956200Y-54420375D01*
X72906809Y-54433609D01*
X72792690Y-54499496D01*
X72792689Y-54499497D01*
X72792686Y-54499499D01*
X72792686Y-54499500D01*
X72720001Y-54572184D01*
X72665487Y-54599960D01*
X72605055Y-54590389D01*
X72579999Y-54572185D01*
X72507314Y-54499500D01*
X72507311Y-54499498D01*
X72507309Y-54499496D01*
X72393189Y-54433609D01*
X72393191Y-54433609D01*
X72343799Y-54420375D01*
X72265892Y-54399500D01*
X72134108Y-54399500D01*
X72056200Y-54420375D01*
X72006809Y-54433609D01*
X71892690Y-54499496D01*
X71799498Y-54592688D01*
X71775376Y-54634468D01*
X71729905Y-54675409D01*
X71669055Y-54681803D01*
X71616068Y-54651210D01*
X71603904Y-54634468D01*
X71550509Y-54541985D01*
X71448015Y-54439491D01*
X71448012Y-54439489D01*
X71448010Y-54439487D01*
X71322488Y-54367017D01*
X71322489Y-54367017D01*
X71292896Y-54359087D01*
X71182475Y-54329500D01*
X71037525Y-54329500D01*
X70975790Y-54346041D01*
X70897510Y-54367017D01*
X70771989Y-54439487D01*
X70669487Y-54541989D01*
X70597017Y-54667510D01*
X70559500Y-54807525D01*
X70559500Y-54952474D01*
X70597017Y-55092489D01*
X70669487Y-55218010D01*
X70669489Y-55218012D01*
X70669491Y-55218015D01*
X70771985Y-55320509D01*
X70771987Y-55320510D01*
X70771989Y-55320512D01*
X70897511Y-55392982D01*
X70897509Y-55392982D01*
X70897513Y-55392983D01*
X70897515Y-55392984D01*
X71026125Y-55427445D01*
X71077437Y-55460768D01*
X71099364Y-55517890D01*
X71099500Y-55523071D01*
X71099500Y-56499672D01*
X71099501Y-56499684D01*
X71114033Y-56572736D01*
X71114035Y-56572742D01*
X71145137Y-56619290D01*
X71161745Y-56678179D01*
X71140567Y-56735582D01*
X71100708Y-56765755D01*
X71068187Y-56779225D01*
X71068182Y-56779228D01*
X70953458Y-56855885D01*
X70855885Y-56953458D01*
X70779228Y-57068182D01*
X70779222Y-57068193D01*
X70726420Y-57195670D01*
X70726420Y-57195672D01*
X70699500Y-57331004D01*
X70699500Y-57468996D01*
X70716570Y-57554812D01*
X70714504Y-57572260D01*
X70717253Y-57589612D01*
X70710997Y-57601888D01*
X70709378Y-57615574D01*
X70689476Y-57644129D01*
X70563104Y-57770503D01*
X70508588Y-57798281D01*
X70493100Y-57799500D01*
X70003102Y-57799500D01*
X69944911Y-57780593D01*
X69923448Y-57759289D01*
X69898934Y-57726075D01*
X69898932Y-57726073D01*
X69898930Y-57726070D01*
X69791179Y-57646545D01*
X69791176Y-57646544D01*
X69791175Y-57646543D01*
X69664777Y-57602315D01*
X69664776Y-57602314D01*
X69664774Y-57602314D01*
X69664771Y-57602313D01*
X69664768Y-57602313D01*
X69634773Y-57599500D01*
X69634764Y-57599500D01*
X69040236Y-57599500D01*
X69040226Y-57599500D01*
X69010231Y-57602313D01*
X69010222Y-57602315D01*
X68883824Y-57646543D01*
X68883821Y-57646544D01*
X68883821Y-57646545D01*
X68879823Y-57649496D01*
X68776071Y-57726069D01*
X68776069Y-57726071D01*
X68696543Y-57833824D01*
X68652315Y-57960222D01*
X68652313Y-57960231D01*
X68649500Y-57990226D01*
X68649500Y-59009773D01*
X68652313Y-59039768D01*
X68652315Y-59039777D01*
X68696543Y-59166175D01*
X68696544Y-59166176D01*
X68696545Y-59166179D01*
X68776070Y-59273930D01*
X68883821Y-59353455D01*
X69010226Y-59397686D01*
X69040226Y-59400499D01*
X69040230Y-59400500D01*
X69040236Y-59400500D01*
X69634770Y-59400500D01*
X69634772Y-59400499D01*
X69664774Y-59397686D01*
X69791179Y-59353455D01*
X69898930Y-59273930D01*
X69978455Y-59166179D01*
X70022686Y-59039774D01*
X70025499Y-59009772D01*
X70025500Y-59009770D01*
X70025500Y-58699500D01*
X70044407Y-58641309D01*
X70093907Y-58605345D01*
X70124500Y-58600500D01*
X70752725Y-58600500D01*
X70752727Y-58600500D01*
X70854588Y-58573207D01*
X70854590Y-58573205D01*
X70854592Y-58573205D01*
X70945908Y-58520483D01*
X70945908Y-58520482D01*
X70945913Y-58520480D01*
X71223207Y-58243186D01*
X71336898Y-58129496D01*
X71391414Y-58101719D01*
X71406901Y-58100500D01*
X71468992Y-58100500D01*
X71468993Y-58100500D01*
X71604328Y-58073580D01*
X71731811Y-58020775D01*
X71845499Y-57944810D01*
X71904386Y-57928202D01*
X71961790Y-57949379D01*
X71995783Y-58000252D01*
X71999500Y-58027126D01*
X71999500Y-58293099D01*
X71980593Y-58351290D01*
X71970504Y-58363103D01*
X70163103Y-60170504D01*
X70108586Y-60198281D01*
X70093099Y-60199500D01*
X69586188Y-60199500D01*
X69527997Y-60180593D01*
X69516190Y-60170509D01*
X69456483Y-60110802D01*
X69456481Y-60110801D01*
X69351395Y-60059427D01*
X69324139Y-60055456D01*
X69283260Y-60049500D01*
X69283257Y-60049500D01*
X69156900Y-60049500D01*
X69098709Y-60030593D01*
X69086896Y-60020504D01*
X68177035Y-59110642D01*
X68149258Y-59056125D01*
X68148472Y-59031393D01*
X68150499Y-59009771D01*
X68150500Y-59009770D01*
X68150500Y-57990230D01*
X68150499Y-57990226D01*
X68149925Y-57984108D01*
X68147686Y-57960226D01*
X68103455Y-57833821D01*
X68023930Y-57726070D01*
X67916179Y-57646545D01*
X67916176Y-57646544D01*
X67916175Y-57646543D01*
X67789777Y-57602315D01*
X67789776Y-57602314D01*
X67789774Y-57602314D01*
X67789771Y-57602313D01*
X67789768Y-57602313D01*
X67759773Y-57599500D01*
X67759764Y-57599500D01*
X67165236Y-57599500D01*
X67165226Y-57599500D01*
X67135231Y-57602313D01*
X67135222Y-57602315D01*
X67008824Y-57646543D01*
X67008821Y-57646544D01*
X67008821Y-57646545D01*
X67004823Y-57649496D01*
X66901071Y-57726069D01*
X66901069Y-57726071D01*
X66821543Y-57833824D01*
X66777315Y-57960222D01*
X66777313Y-57960231D01*
X66774500Y-57990226D01*
X66275499Y-57990226D01*
X66275499Y-57943482D01*
X66269298Y-57904327D01*
X66260647Y-57849700D01*
X66260646Y-57849698D01*
X66260646Y-57849696D01*
X66203050Y-57736658D01*
X66113342Y-57646950D01*
X66113339Y-57646948D01*
X66107832Y-57641441D01*
X66109712Y-57639560D01*
X66081063Y-57600120D01*
X66079594Y-57543914D01*
X66100500Y-57465892D01*
X66100500Y-57334108D01*
X66066392Y-57206814D01*
X66066390Y-57206811D01*
X66066390Y-57206809D01*
X66000503Y-57092690D01*
X66000501Y-57092688D01*
X66000500Y-57092686D01*
X65907314Y-56999500D01*
X65907311Y-56999498D01*
X65907309Y-56999496D01*
X65793189Y-56933609D01*
X65793191Y-56933609D01*
X65742053Y-56919907D01*
X65665892Y-56899500D01*
X65534108Y-56899500D01*
X65457947Y-56919907D01*
X65406809Y-56933609D01*
X65292690Y-56999496D01*
X65199496Y-57092690D01*
X65133609Y-57206809D01*
X65128192Y-57227027D01*
X65099500Y-57334108D01*
X65099500Y-57465892D01*
X65120405Y-57543914D01*
X65117203Y-57605015D01*
X65090522Y-57639795D01*
X65092168Y-57641441D01*
X65086659Y-57646949D01*
X65086658Y-57646950D01*
X65043221Y-57690387D01*
X64996949Y-57736659D01*
X64939354Y-57849695D01*
X64924500Y-57943477D01*
X64500500Y-57943477D01*
X64500500Y-55666834D01*
X64519407Y-55608643D01*
X64568907Y-55572679D01*
X64630093Y-55572679D01*
X64661223Y-55589431D01*
X64775451Y-55680525D01*
X65058427Y-55858330D01*
X65359531Y-56003335D01*
X65359534Y-56003336D01*
X65674974Y-56113713D01*
X65674977Y-56113713D01*
X65674978Y-56113714D01*
X66000800Y-56188081D01*
X66090354Y-56198171D01*
X66332883Y-56225499D01*
X66332899Y-56225499D01*
X66332900Y-56225500D01*
X66332901Y-56225500D01*
X66667099Y-56225500D01*
X66667100Y-56225500D01*
X66667101Y-56225499D01*
X66667116Y-56225499D01*
X66879794Y-56201534D01*
X66999200Y-56188081D01*
X67325022Y-56113714D01*
X67640469Y-56003335D01*
X67941573Y-55858330D01*
X68224549Y-55680525D01*
X68485838Y-55472154D01*
X68722154Y-55235838D01*
X68930525Y-54974549D01*
X69108330Y-54691573D01*
X69253335Y-54390469D01*
X69363714Y-54075022D01*
X69438081Y-53749200D01*
X69452100Y-53624780D01*
X69475499Y-53417116D01*
X69475500Y-53417099D01*
X69475500Y-53124034D01*
X79899500Y-53124034D01*
X79899500Y-53375965D01*
X79938908Y-53624780D01*
X80016759Y-53864379D01*
X80124086Y-54075022D01*
X80131130Y-54088845D01*
X80279207Y-54292656D01*
X80457344Y-54470793D01*
X80661155Y-54618870D01*
X80885621Y-54733241D01*
X81125215Y-54811090D01*
X81125216Y-54811090D01*
X81125219Y-54811091D01*
X81374035Y-54850500D01*
X81374038Y-54850500D01*
X81625965Y-54850500D01*
X81874780Y-54811091D01*
X81874781Y-54811090D01*
X81874785Y-54811090D01*
X82114379Y-54733241D01*
X82338845Y-54618870D01*
X82542656Y-54470793D01*
X82720793Y-54292656D01*
X82868870Y-54088845D01*
X82983241Y-53864379D01*
X83061090Y-53624785D01*
X83093982Y-53417116D01*
X83100500Y-53375965D01*
X83100500Y-53124034D01*
X83061091Y-52875219D01*
X83061090Y-52875215D01*
X82983241Y-52635621D01*
X82868870Y-52411155D01*
X82720793Y-52207344D01*
X82542656Y-52029207D01*
X82338845Y-51881130D01*
X82338844Y-51881129D01*
X82338842Y-51881128D01*
X82114379Y-51766759D01*
X81874780Y-51688908D01*
X81625965Y-51649500D01*
X81625962Y-51649500D01*
X81374038Y-51649500D01*
X81374035Y-51649500D01*
X81125219Y-51688908D01*
X80885620Y-51766759D01*
X80661157Y-51881128D01*
X80457345Y-52029206D01*
X80279206Y-52207345D01*
X80131128Y-52411157D01*
X80016759Y-52635620D01*
X79938908Y-52875219D01*
X79899500Y-53124034D01*
X69475500Y-53124034D01*
X69475500Y-53082900D01*
X69475499Y-53082883D01*
X69438081Y-52750803D01*
X69438080Y-52750797D01*
X69363713Y-52424974D01*
X69253336Y-52109534D01*
X69214652Y-52029207D01*
X69108330Y-51808427D01*
X69082148Y-51766759D01*
X68960708Y-51573487D01*
X68930525Y-51525451D01*
X68722154Y-51264162D01*
X68485838Y-51027846D01*
X68224549Y-50819475D01*
X68007867Y-50683325D01*
X67968656Y-50636357D01*
X67964540Y-50575310D01*
X67997092Y-50523503D01*
X68053879Y-50500724D01*
X68060539Y-50500500D01*
X81680851Y-50500500D01*
X81681377Y-50500500D01*
X81925168Y-50501798D01*
G37*
%TD.AperFunction*%
%TD*%
M02*
