%TF.GenerationSoftware,KiCad,Pcbnew,9.0.6*%
%TF.CreationDate,2025-12-29T07:21:27+09:00*%
%TF.ProjectId,muon,6d756f6e-2e6b-4696-9361-645f70636258,rev?*%
%TF.SameCoordinates,Original*%
%TF.FileFunction,Legend,Bot*%
%TF.FilePolarity,Positive*%
%FSLAX46Y46*%
G04 Gerber Fmt 4.6, Leading zero omitted, Abs format (unit mm)*
G04 Created by KiCad (PCBNEW 9.0.6) date 2025-12-29 07:21:27*
%MOMM*%
%LPD*%
G01*
G04 APERTURE LIST*
%ADD10C,0.100000*%
%ADD11C,0.168750*%
%ADD12C,0.250000*%
%ADD13C,0.350000*%
%ADD14C,2.625000*%
%ADD15C,2.700000*%
%ADD16C,0.600000*%
%ADD17O,1.000000X2.100000*%
%ADD18O,1.000000X1.800000*%
G04 APERTURE END LIST*
D10*
X64600001Y-51449999D02*
G75*
G02*
X64600000Y-55050000I1899999J-1800001D01*
G01*
D11*
G36*
X74497671Y-61831351D02*
G01*
X73885326Y-61831351D01*
X73807378Y-61828019D01*
X73733258Y-61817910D01*
X73667661Y-61802195D01*
X73605709Y-61780276D01*
X73575748Y-61766752D01*
X73521069Y-61736393D01*
X73471346Y-61701093D01*
X73427690Y-61661958D01*
X73388735Y-61618114D01*
X73360901Y-61579561D01*
X73333675Y-61532105D01*
X73312309Y-61481579D01*
X73286688Y-61369973D01*
X73282932Y-61304552D01*
X73457903Y-61304552D01*
X73461194Y-61359478D01*
X73471022Y-61410506D01*
X73486433Y-61455561D01*
X73507675Y-61497074D01*
X73566536Y-61568662D01*
X73573478Y-61574917D01*
X73655617Y-61629458D01*
X73755750Y-61663728D01*
X73877206Y-61676538D01*
X73883056Y-61676562D01*
X74292008Y-61676562D01*
X74164978Y-61073504D01*
X73737451Y-61073504D01*
X73673897Y-61076841D01*
X73618382Y-61086989D01*
X73576620Y-61101456D01*
X73540633Y-61121330D01*
X73527248Y-61131292D01*
X73502877Y-61156352D01*
X73483762Y-61185608D01*
X73461298Y-61256698D01*
X73457903Y-61304552D01*
X73282932Y-61304552D01*
X73282269Y-61292995D01*
X73285534Y-61241041D01*
X73295180Y-61192973D01*
X73310551Y-61149586D01*
X73331591Y-61109552D01*
X73335413Y-61103533D01*
X73389350Y-61044316D01*
X73465014Y-60999988D01*
X73490305Y-60990331D01*
X73433535Y-60970094D01*
X73381007Y-60943991D01*
X73335449Y-60913819D01*
X73293830Y-60878077D01*
X73243056Y-60819341D01*
X73211004Y-60771137D01*
X73185452Y-60720569D01*
X73166876Y-60669074D01*
X73154643Y-60615511D01*
X73150758Y-60567551D01*
X73323959Y-60567551D01*
X73327272Y-60621173D01*
X73337260Y-60670573D01*
X73352621Y-60712832D01*
X73373885Y-60751548D01*
X73432803Y-60817284D01*
X73444075Y-60826358D01*
X73534628Y-60879575D01*
X73641852Y-60911625D01*
X73751382Y-60921089D01*
X74132576Y-60921089D01*
X74010189Y-60352601D01*
X73596593Y-60352601D01*
X73533001Y-60355902D01*
X73477895Y-60365806D01*
X73436369Y-60379995D01*
X73401386Y-60399302D01*
X73375137Y-60421408D01*
X73354319Y-60447780D01*
X73329193Y-60511937D01*
X73323959Y-60567551D01*
X73150758Y-60567551D01*
X73148325Y-60537522D01*
X73151640Y-60481854D01*
X73161636Y-60430960D01*
X73176847Y-60388178D01*
X73197870Y-60349327D01*
X73254613Y-60285629D01*
X73334382Y-60238252D01*
X73438610Y-60208028D01*
X73564191Y-60197812D01*
X74151047Y-60197812D01*
X74497671Y-61831351D01*
G37*
G36*
X72524525Y-60396561D02*
G01*
X72829460Y-61831351D01*
X72660843Y-61831351D01*
X72311949Y-60197812D01*
X72485209Y-60197812D01*
X72810988Y-60415032D01*
X72850304Y-60609137D01*
X72524525Y-60396561D01*
G37*
D12*
G36*
X77077514Y-53593385D02*
G01*
X77251946Y-54432500D01*
X77054811Y-54432500D01*
X76833765Y-53369249D01*
X77030900Y-53369249D01*
X77234079Y-53504590D01*
X77279417Y-53722681D01*
X77077514Y-53593385D01*
G37*
G36*
X76735030Y-53692590D02*
G01*
X76780636Y-53912158D01*
X76571815Y-53912158D01*
X76526209Y-53692590D01*
X76735030Y-53692590D01*
G37*
G36*
X76843505Y-54214476D02*
G01*
X76888842Y-54432500D01*
X76680021Y-54432500D01*
X76634683Y-54214476D01*
X76843505Y-54214476D01*
G37*
G36*
X76212405Y-53593385D02*
G01*
X76386838Y-54432500D01*
X76189703Y-54432500D01*
X75968657Y-53369249D01*
X76165792Y-53369249D01*
X76368971Y-53504590D01*
X76414309Y-53722681D01*
X76212405Y-53593385D01*
G37*
G36*
X75587620Y-54021976D02*
G01*
X75598318Y-54083994D01*
X75603602Y-54141065D01*
X75603704Y-54188799D01*
X75599313Y-54232431D01*
X75591309Y-54268959D01*
X75579508Y-54302025D01*
X75564948Y-54329966D01*
X75547037Y-54354853D01*
X75502505Y-54394596D01*
X75444269Y-54423130D01*
X75368894Y-54440305D01*
X75297392Y-54444590D01*
X75244918Y-54442435D01*
X75195130Y-54435949D01*
X75150326Y-54425750D01*
X75107925Y-54411588D01*
X75069174Y-54394083D01*
X75032657Y-54372815D01*
X75004747Y-54352840D01*
X74973293Y-54325552D01*
X74945173Y-54295368D01*
X74899410Y-54227184D01*
X74865757Y-54145671D01*
X74851741Y-54091158D01*
X74849591Y-54080613D01*
X75043771Y-54080613D01*
X75046256Y-54092636D01*
X75055484Y-54126463D01*
X75068478Y-54157291D01*
X75084196Y-54183448D01*
X75103181Y-54206400D01*
X75116647Y-54218976D01*
X75163292Y-54247232D01*
X75221210Y-54262094D01*
X75255480Y-54264112D01*
X75289439Y-54261963D01*
X75318676Y-54255515D01*
X75340622Y-54246247D01*
X75358982Y-54233626D01*
X75381552Y-54205476D01*
X75396624Y-54159493D01*
X75399023Y-54092789D01*
X75388403Y-54018954D01*
X75340581Y-53788840D01*
X75327019Y-53733966D01*
X75310814Y-53686271D01*
X75293295Y-53647684D01*
X75273797Y-53615173D01*
X75255480Y-53591840D01*
X75235374Y-53572647D01*
X75212875Y-53557191D01*
X75161298Y-53537451D01*
X75106169Y-53531726D01*
X75073244Y-53533862D01*
X75044335Y-53540216D01*
X75021530Y-53549620D01*
X75002167Y-53562403D01*
X74985268Y-53579817D01*
X74966198Y-53618379D01*
X74961170Y-53668015D01*
X74966529Y-53709180D01*
X74968409Y-53718181D01*
X74771342Y-53718181D01*
X74769126Y-53707636D01*
X74761235Y-53659005D01*
X74758485Y-53613683D01*
X74760505Y-53575361D01*
X74766885Y-53539823D01*
X74776787Y-53509266D01*
X74790552Y-53481157D01*
X74815001Y-53447499D01*
X74837979Y-53424914D01*
X74863974Y-53405413D01*
X74925403Y-53375597D01*
X75001777Y-53358168D01*
X75067749Y-53354204D01*
X75120600Y-53356353D01*
X75170459Y-53362801D01*
X75215088Y-53372918D01*
X75257018Y-53386920D01*
X75294974Y-53404144D01*
X75330414Y-53424996D01*
X75392983Y-53476800D01*
X75446220Y-53543423D01*
X75490662Y-53627110D01*
X75525888Y-53731040D01*
X75536976Y-53778362D01*
X75587620Y-54021976D01*
G37*
G36*
X74818963Y-54432500D02*
G01*
X74611552Y-54432500D01*
X74505429Y-54226499D01*
X74147967Y-54226499D01*
X74127549Y-54432500D01*
X73918727Y-54432500D01*
X73970909Y-54058045D01*
X74165901Y-54058045D01*
X74417508Y-54058045D01*
X74207678Y-53650477D01*
X74165901Y-54058045D01*
X73970909Y-54058045D01*
X74066897Y-53369249D01*
X74228702Y-53369249D01*
X74818963Y-54432500D01*
G37*
G36*
X73804812Y-54432500D02*
G01*
X73387035Y-54432500D01*
X73339444Y-54430357D01*
X73294293Y-54423955D01*
X73253160Y-54413788D01*
X73214466Y-54399735D01*
X73179206Y-54382347D01*
X73146417Y-54361340D01*
X73135159Y-54352840D01*
X73082142Y-54300264D01*
X73040788Y-54235072D01*
X73011268Y-54156118D01*
X73004386Y-54127226D01*
X72999491Y-54095505D01*
X73195701Y-54095505D01*
X73198699Y-54113726D01*
X73207539Y-54145568D01*
X73219982Y-54173624D01*
X73234873Y-54196512D01*
X73252954Y-54216335D01*
X73255858Y-54218976D01*
X73297044Y-54244175D01*
X73349405Y-54255798D01*
X73369639Y-54256590D01*
X73569661Y-54256590D01*
X73512099Y-53979863D01*
X73312077Y-53979863D01*
X73278146Y-53982064D01*
X73249941Y-53988879D01*
X73231436Y-53997940D01*
X73216750Y-54010366D01*
X73213341Y-54014453D01*
X73197263Y-54049372D01*
X73195701Y-54095505D01*
X72999491Y-54095505D01*
X72998017Y-54085950D01*
X72996776Y-54047615D01*
X73000127Y-54015999D01*
X73007799Y-53986943D01*
X73010498Y-53979863D01*
X73023702Y-53953331D01*
X73040766Y-53929472D01*
X73060175Y-53910022D01*
X73083195Y-53893376D01*
X73098285Y-53885090D01*
X73064344Y-53867056D01*
X73033583Y-53845621D01*
X72984101Y-53796363D01*
X72945278Y-53735115D01*
X72921985Y-53667180D01*
X72921636Y-53665522D01*
X72920482Y-53658218D01*
X73119556Y-53658218D01*
X73122733Y-53677545D01*
X73130869Y-53706064D01*
X73142636Y-53730919D01*
X73157009Y-53751129D01*
X73174676Y-53768604D01*
X73177407Y-53770840D01*
X73220466Y-53794098D01*
X73275381Y-53803638D01*
X73287225Y-53803886D01*
X73475493Y-53803886D01*
X73421760Y-53545226D01*
X73233491Y-53545226D01*
X73202623Y-53547354D01*
X73176705Y-53553652D01*
X73157641Y-53562676D01*
X73142265Y-53574821D01*
X73137712Y-53579817D01*
X73127650Y-53595285D01*
X73121233Y-53613313D01*
X73119556Y-53658218D01*
X72920482Y-53658218D01*
X72914644Y-53621274D01*
X72912812Y-53580531D01*
X72915625Y-53546690D01*
X72922707Y-53515656D01*
X72933201Y-53489182D01*
X72947463Y-53465113D01*
X72961668Y-53447499D01*
X72983275Y-53427049D01*
X73008073Y-53409604D01*
X73067506Y-53383930D01*
X73143563Y-53370653D01*
X73182176Y-53369249D01*
X73583766Y-53369249D01*
X73804812Y-54432500D01*
G37*
G36*
X72663850Y-53369249D02*
G01*
X72884896Y-54432500D01*
X72231833Y-54432500D01*
X72195295Y-54256590D01*
X72649745Y-54256590D01*
X72465238Y-53369249D01*
X72663850Y-53369249D01*
G37*
G36*
X71708738Y-53545226D02*
G01*
X71246900Y-53545226D01*
X71210294Y-53369249D01*
X71870745Y-53369249D01*
X72091791Y-54432500D01*
X71431340Y-54432500D01*
X71394801Y-54256590D01*
X71856640Y-54256590D01*
X71800018Y-53984363D01*
X71405883Y-53984363D01*
X71369277Y-53808386D01*
X71763412Y-53808386D01*
X71708738Y-53545226D01*
G37*
G36*
X71205122Y-54355862D02*
G01*
X71159802Y-54394709D01*
X71100715Y-54422292D01*
X71024425Y-54438306D01*
X70962583Y-54441567D01*
X70908600Y-54439405D01*
X70857298Y-54432866D01*
X70811544Y-54422652D01*
X70768255Y-54408434D01*
X70729212Y-54391033D01*
X70692505Y-54369854D01*
X70674370Y-54357340D01*
X70642778Y-54331553D01*
X70614516Y-54302835D01*
X70590048Y-54271794D01*
X70568821Y-54237883D01*
X70536028Y-54160921D01*
X70523379Y-54112181D01*
X70516445Y-54068291D01*
X70514612Y-54027756D01*
X70517395Y-53993723D01*
X70524434Y-53962467D01*
X70534906Y-53935681D01*
X70549134Y-53911328D01*
X70587941Y-53870639D01*
X70642967Y-53838503D01*
X70718603Y-53815032D01*
X70728909Y-53812953D01*
X70835167Y-53793340D01*
X70869198Y-53784653D01*
X70897204Y-53773124D01*
X70932760Y-53746727D01*
X70943463Y-53731858D01*
X70950306Y-53714734D01*
X70952383Y-53673658D01*
X70950022Y-53659544D01*
X70941989Y-53631382D01*
X70930187Y-53606199D01*
X70915470Y-53585015D01*
X70897352Y-53566536D01*
X70889639Y-53560272D01*
X70867322Y-53545943D01*
X70842357Y-53535222D01*
X70783782Y-53524627D01*
X70767463Y-53524203D01*
X70731075Y-53526409D01*
X70700478Y-53533252D01*
X70680046Y-53542399D01*
X70663496Y-53554973D01*
X70659862Y-53558794D01*
X70641696Y-53592018D01*
X70636200Y-53639721D01*
X70639174Y-53671567D01*
X70449428Y-53671567D01*
X70445299Y-53624799D01*
X70445977Y-53581512D01*
X70450866Y-53544677D01*
X70459846Y-53510808D01*
X70472068Y-53481582D01*
X70487933Y-53454999D01*
X70502087Y-53436953D01*
X70523693Y-53415553D01*
X70548222Y-53397390D01*
X70606181Y-53370723D01*
X70679947Y-53356338D01*
X70727700Y-53354204D01*
X70775672Y-53356342D01*
X70821554Y-53362712D01*
X70864384Y-53372979D01*
X70905126Y-53387171D01*
X70943380Y-53405037D01*
X70979502Y-53426633D01*
X71000263Y-53441454D01*
X71032279Y-53468514D01*
X71060648Y-53498276D01*
X71084643Y-53529747D01*
X71105184Y-53563866D01*
X71135763Y-53639973D01*
X71144336Y-53674590D01*
X71150982Y-53717131D01*
X71152571Y-53756528D01*
X71149589Y-53789774D01*
X71142363Y-53820386D01*
X71131679Y-53846775D01*
X71117220Y-53870824D01*
X71077714Y-53911299D01*
X71021575Y-53943501D01*
X70944331Y-53967162D01*
X70925036Y-53970862D01*
X70829861Y-53987385D01*
X70794936Y-53995168D01*
X70766502Y-54006271D01*
X70747611Y-54018215D01*
X70733409Y-54032521D01*
X70718652Y-54065656D01*
X70718023Y-54111458D01*
X70720984Y-54128771D01*
X70729519Y-54159308D01*
X70741693Y-54186088D01*
X70756197Y-54207491D01*
X70773850Y-54225688D01*
X70817538Y-54251996D01*
X70875852Y-54266340D01*
X70916305Y-54268613D01*
X70956319Y-54266463D01*
X70990179Y-54260015D01*
X71014402Y-54251018D01*
X71034053Y-54238834D01*
X71041168Y-54232544D01*
X71061600Y-54200217D01*
X71070864Y-54151560D01*
X71069982Y-54109226D01*
X71256773Y-54109226D01*
X71261581Y-54159031D01*
X71261451Y-54204769D01*
X71257023Y-54242949D01*
X71248473Y-54277872D01*
X71236730Y-54307650D01*
X71221358Y-54334671D01*
X71205122Y-54355862D01*
G37*
G36*
X75136402Y-55204353D02*
G01*
X75185756Y-55210801D01*
X75230024Y-55220931D01*
X75271649Y-55234954D01*
X75309398Y-55252223D01*
X75344669Y-55273136D01*
X75407049Y-55325150D01*
X75460200Y-55392097D01*
X75504589Y-55476211D01*
X75539736Y-55580625D01*
X75550410Y-55626362D01*
X75601053Y-55869976D01*
X75611897Y-55932701D01*
X75617294Y-55990362D01*
X75617470Y-56038405D01*
X75613139Y-56082272D01*
X75605195Y-56118860D01*
X75593452Y-56151941D01*
X75578978Y-56179794D01*
X75561158Y-56204566D01*
X75516889Y-56243956D01*
X75458990Y-56272055D01*
X75383969Y-56288731D01*
X75316736Y-56292590D01*
X75266516Y-56290440D01*
X75218466Y-56283994D01*
X75174154Y-56273700D01*
X75131861Y-56259407D01*
X75092299Y-56241484D01*
X75054681Y-56219708D01*
X75018046Y-56193317D01*
X74962377Y-56137865D01*
X74915159Y-56066110D01*
X74875985Y-55974464D01*
X74847912Y-55869976D01*
X74797268Y-55626362D01*
X74785953Y-55561256D01*
X74785225Y-55553633D01*
X74984276Y-55553633D01*
X74996552Y-55636840D01*
X75044375Y-55866954D01*
X75057729Y-55920688D01*
X75074004Y-55967360D01*
X75091066Y-56003237D01*
X75110496Y-56033608D01*
X75127259Y-56053476D01*
X75149035Y-56073036D01*
X75173024Y-56088640D01*
X75226144Y-56107647D01*
X75273347Y-56112112D01*
X75308591Y-56109940D01*
X75338708Y-56103328D01*
X75360274Y-56094105D01*
X75378091Y-56081481D01*
X75398277Y-56054953D01*
X75411976Y-56008652D01*
X75412927Y-55940012D01*
X75401837Y-55866954D01*
X75354014Y-55636840D01*
X75339847Y-55579174D01*
X75322946Y-55528979D01*
X75305399Y-55490174D01*
X75285863Y-55457970D01*
X75270055Y-55438362D01*
X75249795Y-55419574D01*
X75227021Y-55404403D01*
X75174494Y-55385035D01*
X75121080Y-55379726D01*
X75088652Y-55381885D01*
X75060625Y-55388406D01*
X75039624Y-55397768D01*
X75021945Y-55410577D01*
X74999709Y-55439840D01*
X74985914Y-55485294D01*
X74984276Y-55553633D01*
X74785225Y-55553633D01*
X74780284Y-55501879D01*
X74780042Y-55453819D01*
X74784377Y-55410307D01*
X74792248Y-55374982D01*
X74803912Y-55343357D01*
X74829710Y-55301476D01*
X74851745Y-55277854D01*
X74876736Y-55257435D01*
X74935388Y-55226319D01*
X75008456Y-55207537D01*
X75084138Y-55202204D01*
X75136402Y-55204353D01*
G37*
G36*
X73750743Y-55217249D02*
G01*
X73947945Y-55217249D01*
X74086442Y-55883477D01*
X74330325Y-55217249D01*
X74528937Y-55217249D01*
X74749983Y-56280500D01*
X74551371Y-56280500D01*
X74413477Y-55617295D01*
X74168990Y-56280500D01*
X73971789Y-56280500D01*
X73750743Y-55217249D01*
G37*
G36*
X73553138Y-55217249D02*
G01*
X73774184Y-56280500D01*
X73121121Y-56280500D01*
X73084583Y-56104590D01*
X73539033Y-56104590D01*
X73354526Y-55217249D01*
X73553138Y-55217249D01*
G37*
G36*
X72472357Y-55842908D02*
G01*
X72039266Y-55217249D01*
X72256954Y-55217249D01*
X72532069Y-55648863D01*
X72626237Y-55217249D01*
X72842446Y-55217249D01*
X72669761Y-55844386D01*
X72760436Y-56280500D01*
X72563301Y-56280500D01*
X72472357Y-55842908D01*
G37*
D13*
G36*
X81904417Y-60197338D02*
G01*
X82244586Y-61833750D01*
X81862377Y-61833750D01*
X81650114Y-60812555D01*
X81632052Y-60747422D01*
X81606677Y-60690361D01*
X81576724Y-60644818D01*
X81540509Y-60606163D01*
X81533748Y-60600293D01*
X81486418Y-60566215D01*
X81435741Y-60541611D01*
X81386862Y-60528072D01*
X81335032Y-60523357D01*
X81334262Y-60523356D01*
X81282758Y-60527752D01*
X81238499Y-60540942D01*
X81204957Y-60560243D01*
X81177204Y-60586613D01*
X81169124Y-60597133D01*
X81138872Y-60670692D01*
X81137817Y-60772458D01*
X81144669Y-60812555D01*
X81356931Y-61833750D01*
X80974859Y-61833750D01*
X80760673Y-60803350D01*
X80743920Y-60744219D01*
X80719690Y-60690806D01*
X80651194Y-60602248D01*
X80649115Y-60600293D01*
X80609219Y-60568989D01*
X80565729Y-60545990D01*
X80468556Y-60524021D01*
X80446608Y-60523356D01*
X80395086Y-60527752D01*
X80350810Y-60540942D01*
X80317316Y-60560224D01*
X80289674Y-60586562D01*
X80281606Y-60597133D01*
X80251355Y-60670692D01*
X80250299Y-60772458D01*
X80257151Y-60812555D01*
X80469414Y-61833750D01*
X80087204Y-61833750D01*
X79865325Y-60766393D01*
X79850541Y-60673798D01*
X79846202Y-60588200D01*
X79851385Y-60516244D01*
X79865318Y-60450271D01*
X79886210Y-60394212D01*
X79914745Y-60343476D01*
X79920142Y-60335686D01*
X79957080Y-60291559D01*
X80000198Y-60254340D01*
X80101618Y-60202541D01*
X80231222Y-60177636D01*
X80284079Y-60175768D01*
X80360114Y-60180146D01*
X80434858Y-60193206D01*
X80580953Y-60245416D01*
X80723648Y-60334108D01*
X80781281Y-60381848D01*
X80810777Y-60330684D01*
X80846578Y-60286643D01*
X80886918Y-60251073D01*
X80932971Y-60222263D01*
X81042774Y-60185095D01*
X81147554Y-60175768D01*
X81281590Y-60193353D01*
X81364900Y-60221930D01*
X81440651Y-60258965D01*
X81511096Y-60304037D01*
X81562049Y-60344891D01*
X81531412Y-60197338D01*
X81904417Y-60197338D01*
G37*
G36*
X79563761Y-61172508D02*
G01*
X79582067Y-61282040D01*
X79589389Y-61381994D01*
X79586561Y-61463911D01*
X79574780Y-61538021D01*
X79556141Y-61599004D01*
X79529986Y-61653433D01*
X79498285Y-61698925D01*
X79459834Y-61738528D01*
X79363237Y-61799782D01*
X79233909Y-61838776D01*
X79070269Y-61852297D01*
X78969378Y-61847887D01*
X78875238Y-61834602D01*
X78793404Y-61814111D01*
X78717434Y-61785742D01*
X78650314Y-61751218D01*
X78588525Y-61709384D01*
X78556580Y-61683036D01*
X78455182Y-61570085D01*
X78372999Y-61424963D01*
X78309625Y-61239801D01*
X78294034Y-61172508D01*
X78091389Y-60197338D01*
X78473461Y-60197338D01*
X78672260Y-61153961D01*
X78697175Y-61252158D01*
X78727108Y-61333381D01*
X78779009Y-61421590D01*
X78844176Y-61474330D01*
X78937749Y-61503490D01*
X78998690Y-61507731D01*
X79055809Y-61503417D01*
X79103074Y-61490801D01*
X79136850Y-61472855D01*
X79162358Y-61448996D01*
X79181002Y-61415407D01*
X79196301Y-61319895D01*
X79180983Y-61170297D01*
X79177705Y-61153961D01*
X78978907Y-60197338D01*
X79361116Y-60197338D01*
X79563761Y-61172508D01*
G37*
G36*
X77191556Y-60180140D02*
G01*
X77280054Y-60193161D01*
X77361703Y-60214020D01*
X77438967Y-60242812D01*
X77580204Y-60323284D01*
X77608887Y-60344891D01*
X77713855Y-60450016D01*
X77799183Y-60585891D01*
X77865462Y-60759077D01*
X77890805Y-60861739D01*
X77954140Y-61166325D01*
X77972272Y-61275086D01*
X77979417Y-61374545D01*
X77976392Y-61455709D01*
X77964368Y-61529141D01*
X77945572Y-61589068D01*
X77919224Y-61642423D01*
X77887782Y-61686196D01*
X77845061Y-61729521D01*
X77796261Y-61766312D01*
X77680385Y-61820179D01*
X77532845Y-61848634D01*
X77446771Y-61852297D01*
X77352096Y-61847900D01*
X77261958Y-61834711D01*
X77179845Y-61813780D01*
X77102190Y-61784747D01*
X77030951Y-61748671D01*
X76964195Y-61704906D01*
X76939952Y-61686196D01*
X76836798Y-61580582D01*
X76751408Y-61442146D01*
X76684694Y-61265471D01*
X76660370Y-61166325D01*
X76597035Y-60861739D01*
X76579312Y-60755394D01*
X76962520Y-60755394D01*
X76977321Y-60867922D01*
X77038733Y-61163165D01*
X77060669Y-61246922D01*
X77089237Y-61319192D01*
X77120406Y-61374002D01*
X77156910Y-61419508D01*
X77195305Y-61453166D01*
X77238263Y-61478818D01*
X77335267Y-61505644D01*
X77375193Y-61507731D01*
X77431556Y-61503343D01*
X77479294Y-61490215D01*
X77514293Y-61471396D01*
X77542586Y-61445836D01*
X77578262Y-61377611D01*
X77588913Y-61277269D01*
X77574266Y-61163165D01*
X77512854Y-60867922D01*
X77491244Y-60785461D01*
X77462956Y-60714108D01*
X77431796Y-60659452D01*
X77395246Y-60613915D01*
X77356563Y-60579902D01*
X77313263Y-60553819D01*
X77215221Y-60525898D01*
X77170487Y-60523356D01*
X77115171Y-60527744D01*
X77068435Y-60540872D01*
X77034284Y-60559680D01*
X77006763Y-60585221D01*
X76972206Y-60653757D01*
X76962520Y-60755394D01*
X76579312Y-60755394D01*
X76578939Y-60753153D01*
X76571825Y-60654218D01*
X76574823Y-60573257D01*
X76586745Y-60500150D01*
X76605482Y-60440103D01*
X76631693Y-60386640D01*
X76661057Y-60344891D01*
X76702210Y-60301922D01*
X76749720Y-60265070D01*
X76864518Y-60209766D01*
X77010186Y-60179898D01*
X77098221Y-60175768D01*
X77191556Y-60180140D01*
G37*
G36*
X76120990Y-60197338D02*
G01*
X76461160Y-61833750D01*
X76078950Y-61833750D01*
X75866688Y-60812555D01*
X75848626Y-60747422D01*
X75823251Y-60690361D01*
X75793298Y-60644818D01*
X75757083Y-60606163D01*
X75750321Y-60600293D01*
X75702991Y-60566215D01*
X75652315Y-60541611D01*
X75603436Y-60528072D01*
X75551606Y-60523357D01*
X75550836Y-60523356D01*
X75501820Y-60527676D01*
X75458803Y-60540328D01*
X75423744Y-60559688D01*
X75394720Y-60585783D01*
X75383224Y-60600293D01*
X75354709Y-60670866D01*
X75354097Y-60770694D01*
X75361243Y-60812555D01*
X75573505Y-61833750D01*
X75191433Y-61833750D01*
X74969553Y-60766393D01*
X74954158Y-60670861D01*
X74949307Y-60582800D01*
X74954084Y-60509229D01*
X74967644Y-60442013D01*
X74987776Y-60386124D01*
X75015303Y-60335686D01*
X75049135Y-60292150D01*
X75089250Y-60255321D01*
X75185579Y-60203368D01*
X75309930Y-60177884D01*
X75364128Y-60175768D01*
X75498002Y-60192610D01*
X75580786Y-60218770D01*
X75703411Y-60284272D01*
X75778623Y-60344891D01*
X75747986Y-60197338D01*
X76120990Y-60197338D01*
G37*
%LPC*%
G36*
X66990000Y-61130000D02*
G01*
X67220000Y-61130000D01*
X67220000Y-61360000D01*
X66990000Y-61360000D01*
X66990000Y-61130000D01*
G37*
G36*
X66530000Y-60210000D02*
G01*
X66760000Y-60210000D01*
X66760000Y-60440000D01*
X66530000Y-60440000D01*
X66530000Y-60210000D01*
G37*
G36*
X66530000Y-61130000D02*
G01*
X66760000Y-61130000D01*
X66760000Y-61360000D01*
X66530000Y-61360000D01*
X66530000Y-61130000D01*
G37*
G36*
X66760000Y-60670000D02*
G01*
X66990000Y-60670000D01*
X66990000Y-60900000D01*
X66760000Y-60900000D01*
X66760000Y-60670000D01*
G37*
G36*
X65840000Y-61590000D02*
G01*
X66070000Y-61590000D01*
X66070000Y-61820000D01*
X65840000Y-61820000D01*
X65840000Y-61590000D01*
G37*
D14*
X82812500Y-53250000D02*
G75*
G02*
X80187500Y-53250000I-1312500J0D01*
G01*
X80187500Y-53250000D02*
G75*
G02*
X82812500Y-53250000I1312500J0D01*
G01*
G36*
X67220000Y-61590000D02*
G01*
X67450000Y-61590000D01*
X67450000Y-61820000D01*
X67220000Y-61820000D01*
X67220000Y-61590000D01*
G37*
G36*
X66070000Y-61130000D02*
G01*
X66300000Y-61130000D01*
X66300000Y-61360000D01*
X66070000Y-61360000D01*
X66070000Y-61130000D01*
G37*
G36*
X66300000Y-60670000D02*
G01*
X66530000Y-60670000D01*
X66530000Y-60900000D01*
X66300000Y-60900000D01*
X66300000Y-60670000D01*
G37*
D15*
%TO.C,MH1*%
X81500000Y-53250000D03*
%TD*%
%TO.C,MH2*%
X66500000Y-53250000D03*
%TD*%
D16*
%TO.C,J1*%
X76890000Y-54880000D03*
X71110000Y-54880000D03*
D17*
X78320000Y-55380000D03*
D18*
X78320000Y-51200000D03*
D17*
X69680000Y-55380000D03*
D18*
X69680000Y-51200000D03*
%TD*%
%LPD*%
M02*
