M48
; DRILL file {KiCad 9.0.6} date 2025-12-29T07:21:29+0900
; FORMAT={-:-/ absolute / metric / decimal}
; #@! TF.CreationDate,2025-12-29T07:21:29+09:00
; #@! TF.GenerationSoftware,Kicad,Pcbnew,9.0.6
; #@! TF.FileFunction,Plated,1,2,PTH
FMAT,2
METRIC
; #@! TA.AperFunction,Plated,PTH,ViaDrill
T1C0.300
; #@! TA.AperFunction,Plated,PTH,ViaDrill
T2C0.500
; #@! TA.AperFunction,Plated,PTH,ComponentDrill
T3C0.600
%
G90
G05
T1
X65.6Y-57.4
X65.6Y-60.7
X67.2Y-59.8
X70.1Y-62.0
X70.3Y-57.4
X71.5Y-58.4
X72.2Y-54.9
X73.1Y-54.9
X73.9Y-54.9
X75.3Y-54.9
X75.5Y-59.1
X77.7Y-58.05
X77.9Y-62.0
X78.5Y-58.05
X79.1Y-60.35
X79.4Y-58.0
X80.7Y-59.8
X81.7Y-57.4
T2
X71.4Y-57.4
X76.5Y-57.7
X76.5Y-59.0
T3
G00X69.68Y-51.6
M15
G01X69.68Y-50.8
M16
G05
G00X69.68Y-55.93
M15
G01X69.68Y-54.83
M16
G05
G00X78.32Y-51.6
M15
G01X78.32Y-50.8
M16
G05
G00X78.32Y-55.93
M15
G01X78.32Y-54.83
M16
G05
M30
