%TF.GenerationSoftware,KiCad,Pcbnew,9.0.6*%
%TF.CreationDate,2026-01-06T08:34:59+09:00*%
%TF.ProjectId,muon,6d756f6e-2e6b-4696-9361-645f70636258,rev?*%
%TF.SameCoordinates,Original*%
%TF.FileFunction,Legend,Top*%
%TF.FilePolarity,Positive*%
%FSLAX46Y46*%
G04 Gerber Fmt 4.6, Leading zero omitted, Abs format (unit mm)*
G04 Created by KiCad (PCBNEW 9.0.6) date 2026-01-06 08:34:59*
%MOMM*%
%LPD*%
G01*
G04 APERTURE LIST*
G04 Aperture macros list*
%AMRoundRect*
0 Rectangle with rounded corners*
0 $1 Rounding radius*
0 $2 $3 $4 $5 $6 $7 $8 $9 X,Y pos of 4 corners*
0 Add a 4 corners polygon primitive as box body*
4,1,4,$2,$3,$4,$5,$6,$7,$8,$9,$2,$3,0*
0 Add four circle primitives for the rounded corners*
1,1,$1+$1,$2,$3*
1,1,$1+$1,$4,$5*
1,1,$1+$1,$6,$7*
1,1,$1+$1,$8,$9*
0 Add four rect primitives between the rounded corners*
20,1,$1+$1,$2,$3,$4,$5,0*
20,1,$1+$1,$4,$5,$6,$7,0*
20,1,$1+$1,$6,$7,$8,$9,0*
20,1,$1+$1,$8,$9,$2,$3,0*%
G04 Aperture macros list end*
%ADD10C,0.200000*%
%ADD11C,0.400000*%
%ADD12C,0.100000*%
%ADD13C,0.180000*%
%ADD14C,0.120000*%
%ADD15C,2.625000*%
%ADD16RoundRect,0.150000X0.200000X-0.150000X0.200000X0.150000X-0.200000X0.150000X-0.200000X-0.150000X0*%
%ADD17RoundRect,0.200000X-0.275000X0.200000X-0.275000X-0.200000X0.275000X-0.200000X0.275000X0.200000X0*%
%ADD18RoundRect,0.200000X0.275000X-0.200000X0.275000X0.200000X-0.275000X0.200000X-0.275000X-0.200000X0*%
%ADD19C,2.700000*%
%ADD20RoundRect,0.243750X-0.456250X0.243750X-0.456250X-0.243750X0.456250X-0.243750X0.456250X0.243750X0*%
%ADD21RoundRect,0.075000X0.200000X-0.075000X0.200000X0.075000X-0.200000X0.075000X-0.200000X-0.075000X0*%
%ADD22C,0.600000*%
%ADD23RoundRect,0.050000X0.250000X0.525000X-0.250000X0.525000X-0.250000X-0.525000X0.250000X-0.525000X0*%
%ADD24RoundRect,0.050000X0.100000X0.525000X-0.100000X0.525000X-0.100000X-0.525000X0.100000X-0.525000X0*%
%ADD25O,1.000000X2.100000*%
%ADD26O,1.000000X1.800000*%
%ADD27RoundRect,0.150000X-0.150000X-0.575000X0.150000X-0.575000X0.150000X0.575000X-0.150000X0.575000X0*%
%ADD28RoundRect,0.250000X-0.350000X-0.650000X0.350000X-0.650000X0.350000X0.650000X-0.350000X0.650000X0*%
G04 APERTURE END LIST*
D10*
G36*
X65396999Y-61289732D02*
G01*
X65436528Y-61295978D01*
X65915000Y-61395446D01*
X65915000Y-61559943D01*
X65852168Y-61546876D01*
X65879457Y-61582215D01*
X65906817Y-61631751D01*
X65915447Y-61658957D01*
X65921291Y-61692442D01*
X65923243Y-61730119D01*
X65923012Y-61743390D01*
X65914184Y-61805585D01*
X65894135Y-61852400D01*
X65879981Y-61871344D01*
X65863098Y-61887412D01*
X65843780Y-61900372D01*
X65822202Y-61910058D01*
X65796323Y-61916860D01*
X65767863Y-61919836D01*
X65733589Y-61918696D01*
X65696280Y-61912935D01*
X65639165Y-61894840D01*
X65611766Y-61880570D01*
X65586713Y-61863126D01*
X65563078Y-61841618D01*
X65541796Y-61816642D01*
X65515632Y-61773543D01*
X65502877Y-61741887D01*
X65493713Y-61707854D01*
X65487716Y-61668179D01*
X65485743Y-61625767D01*
X65485743Y-61622408D01*
X65604689Y-61622408D01*
X65608996Y-61665570D01*
X65624410Y-61704037D01*
X65636265Y-61718948D01*
X65650930Y-61731058D01*
X65669906Y-61740963D01*
X65692189Y-61747583D01*
X65730622Y-61749531D01*
X65757442Y-61738380D01*
X65768098Y-61727113D01*
X65776030Y-61712159D01*
X65781834Y-61689841D01*
X65783780Y-61662403D01*
X65783326Y-61647186D01*
X65773501Y-61596800D01*
X65752334Y-61559516D01*
X65736100Y-61543907D01*
X65716102Y-61530873D01*
X65688596Y-61518939D01*
X65656652Y-61510240D01*
X65604689Y-61499432D01*
X65604689Y-61622408D01*
X65485743Y-61622408D01*
X65485743Y-61474702D01*
X65428285Y-61462796D01*
X65408483Y-61459567D01*
X65367312Y-61460908D01*
X65339032Y-61474434D01*
X65328043Y-61486573D01*
X65319926Y-61502141D01*
X65314043Y-61524816D01*
X65312086Y-61552249D01*
X65317711Y-61594809D01*
X65336693Y-61633582D01*
X65362647Y-61659094D01*
X65380516Y-61668796D01*
X65400990Y-61675043D01*
X65405081Y-61675897D01*
X65405081Y-61833739D01*
X65399586Y-61832579D01*
X65396928Y-61832014D01*
X65335597Y-61811135D01*
X65308256Y-61795752D01*
X65283193Y-61777126D01*
X65259534Y-61754369D01*
X65238264Y-61728165D01*
X65207854Y-61674869D01*
X65195104Y-61640896D01*
X65185871Y-61604665D01*
X65180065Y-61564931D01*
X65178119Y-61523062D01*
X65179198Y-61489413D01*
X65190405Y-61420119D01*
X65212046Y-61368227D01*
X65243759Y-61329439D01*
X65256925Y-61318930D01*
X65278286Y-61306258D01*
X65302092Y-61296878D01*
X65330016Y-61290576D01*
X65360686Y-61288080D01*
X65396999Y-61289732D01*
G37*
G36*
X65187705Y-61075976D02*
G01*
X65915000Y-61227162D01*
X65915000Y-61058696D01*
X65187705Y-60907509D01*
X65187705Y-61075976D01*
G37*
G36*
X64948408Y-61028898D02*
G01*
X65087871Y-61057902D01*
X65087871Y-60885405D01*
X64948408Y-60856402D01*
X64948408Y-61028898D01*
G37*
G36*
X65205103Y-60193226D02*
G01*
X65256032Y-60201831D01*
X65597850Y-60272905D01*
X65626659Y-60279460D01*
X65717556Y-60309264D01*
X65789897Y-60347629D01*
X65846673Y-60394111D01*
X65866214Y-60416264D01*
X65884970Y-60443215D01*
X65900443Y-60472432D01*
X65913092Y-60505272D01*
X65922226Y-60540571D01*
X65928123Y-60580919D01*
X65930081Y-60624066D01*
X65925370Y-60687811D01*
X65909328Y-60745312D01*
X65883330Y-60788149D01*
X65866337Y-60805213D01*
X65846673Y-60819338D01*
X65832946Y-60826855D01*
X65805834Y-60837809D01*
X65775532Y-60845442D01*
X65739195Y-60849897D01*
X65699026Y-60850362D01*
X65650790Y-60846246D01*
X65597850Y-60837229D01*
X65256032Y-60766154D01*
X65221635Y-60758107D01*
X65136634Y-60728632D01*
X65068723Y-60690414D01*
X65015392Y-60643849D01*
X64998313Y-60623603D01*
X64979057Y-60595501D01*
X64963179Y-60565411D01*
X64950418Y-60532510D01*
X64941201Y-60497476D01*
X64935341Y-60458384D01*
X64934965Y-60450409D01*
X65094710Y-60450409D01*
X65096559Y-60473683D01*
X65110120Y-60511100D01*
X65122022Y-60526613D01*
X65137086Y-60539497D01*
X65183122Y-60562962D01*
X65227250Y-60577683D01*
X65282044Y-60591032D01*
X65581425Y-60653253D01*
X65607928Y-60658420D01*
X65685093Y-60667083D01*
X65727726Y-60662290D01*
X65744510Y-60654435D01*
X65755546Y-60644558D01*
X65763727Y-60631679D01*
X65769504Y-60613347D01*
X65771446Y-60591093D01*
X65769692Y-60568482D01*
X65756145Y-60530780D01*
X65743713Y-60514414D01*
X65727726Y-60500418D01*
X65687935Y-60479123D01*
X65640946Y-60463077D01*
X65581425Y-60448638D01*
X65282044Y-60386417D01*
X65252295Y-60380671D01*
X65177290Y-60372632D01*
X65137086Y-60377625D01*
X65121217Y-60385494D01*
X65110404Y-60395557D01*
X65102332Y-60408747D01*
X65096640Y-60427482D01*
X65094710Y-60450409D01*
X64934965Y-60450409D01*
X64933387Y-60416887D01*
X64937738Y-60355336D01*
X64953503Y-60296733D01*
X64979237Y-60253057D01*
X64996011Y-60235695D01*
X65015392Y-60221309D01*
X65028422Y-60213936D01*
X65054928Y-60202763D01*
X65084498Y-60194901D01*
X65119738Y-60190205D01*
X65158628Y-60189464D01*
X65205103Y-60193226D01*
G37*
G36*
X65865785Y-60109873D02*
G01*
X65897183Y-60070387D01*
X65918397Y-60018110D01*
X65929157Y-59948635D01*
X65930081Y-59917349D01*
X65928107Y-59878501D01*
X65922102Y-59840511D01*
X65912484Y-59805173D01*
X65898966Y-59770942D01*
X65895887Y-59764453D01*
X65877650Y-59731645D01*
X65856345Y-59701658D01*
X65805514Y-59650608D01*
X65798801Y-59645262D01*
X65768864Y-59624534D01*
X65736718Y-59607076D01*
X65665462Y-59581845D01*
X65649813Y-59578279D01*
X65623801Y-59572905D01*
X65584777Y-59566745D01*
X65549036Y-59565248D01*
X65518993Y-59567906D01*
X65491302Y-59574361D01*
X65485743Y-59576203D01*
X65462234Y-59586544D01*
X65441505Y-59600185D01*
X65424664Y-59616066D01*
X65410406Y-59635026D01*
X65400990Y-59652284D01*
X65366913Y-59598333D01*
X65321673Y-59554160D01*
X65292994Y-59534337D01*
X65262174Y-59518251D01*
X65209565Y-59501403D01*
X65189049Y-59497129D01*
X65152518Y-59491521D01*
X65118523Y-59490327D01*
X65088705Y-59493156D01*
X65061095Y-59499735D01*
X65036375Y-59509623D01*
X65013685Y-59522873D01*
X65003119Y-59530712D01*
X64984871Y-59547815D01*
X64969384Y-59567691D01*
X64946508Y-59616266D01*
X64934643Y-59679304D01*
X64933387Y-59711452D01*
X64935335Y-59752686D01*
X64941151Y-59791762D01*
X64950400Y-59827404D01*
X64963184Y-59860952D01*
X64979116Y-59891774D01*
X64998377Y-59920507D01*
X65001775Y-59924920D01*
X65023909Y-59950043D01*
X65048706Y-59972298D01*
X65106331Y-60008303D01*
X65175760Y-60033059D01*
X65191796Y-60036723D01*
X65215000Y-60041546D01*
X65215000Y-59877049D01*
X65191796Y-59872225D01*
X65167873Y-59865284D01*
X65146583Y-59855047D01*
X65116570Y-59829788D01*
X65104325Y-59812192D01*
X65095613Y-59792435D01*
X65089275Y-59750592D01*
X65091256Y-59728008D01*
X65097301Y-59708758D01*
X65105787Y-59695220D01*
X65117441Y-59684548D01*
X65119317Y-59683303D01*
X65135029Y-59675601D01*
X65153140Y-59671198D01*
X65198086Y-59672989D01*
X65202726Y-59673900D01*
X65223243Y-59678174D01*
X65249290Y-59685519D01*
X65272297Y-59695980D01*
X65292054Y-59709154D01*
X65308799Y-59724893D01*
X65309338Y-59725496D01*
X65321926Y-59742500D01*
X65331050Y-59761400D01*
X65339331Y-59805515D01*
X65339441Y-59811897D01*
X65339441Y-59858731D01*
X65495329Y-59891154D01*
X65495329Y-59843038D01*
X65497283Y-59815927D01*
X65503145Y-59793209D01*
X65511448Y-59776815D01*
X65522725Y-59763459D01*
X65528119Y-59758896D01*
X65558745Y-59745064D01*
X65602168Y-59743357D01*
X65625205Y-59746990D01*
X65649813Y-59752119D01*
X65678838Y-59760154D01*
X65704654Y-59771649D01*
X65724501Y-59784701D01*
X65741404Y-59800540D01*
X65756078Y-59820042D01*
X65766848Y-59841285D01*
X65773131Y-59862596D01*
X65775573Y-59885330D01*
X65775598Y-59887918D01*
X65773615Y-59915752D01*
X65767554Y-59938485D01*
X65749586Y-59964060D01*
X65736360Y-59972646D01*
X65720814Y-59977855D01*
X65681794Y-59977888D01*
X65673016Y-59976272D01*
X65651156Y-59971754D01*
X65651156Y-60138877D01*
X65681259Y-60145105D01*
X65719297Y-60151016D01*
X65754399Y-60152288D01*
X65783648Y-60149407D01*
X65810485Y-60142664D01*
X65833421Y-60132828D01*
X65854238Y-60119559D01*
X65865785Y-60109873D01*
G37*
G36*
X65716796Y-59456463D02*
G01*
X65915000Y-59497679D01*
X65915000Y-59307841D01*
X65716796Y-59266625D01*
X65716796Y-59456463D01*
G37*
G36*
X65849420Y-59097242D02*
G01*
X65868676Y-59078255D01*
X65885027Y-59056567D01*
X65908968Y-59005066D01*
X65921615Y-58939493D01*
X65923243Y-58901238D01*
X65921289Y-58858219D01*
X65915429Y-58817718D01*
X65906225Y-58781476D01*
X65893486Y-58747451D01*
X65877672Y-58716398D01*
X65858504Y-58687393D01*
X65853511Y-58680869D01*
X65830140Y-58654284D01*
X65804373Y-58631046D01*
X65746988Y-58595199D01*
X65678539Y-58571181D01*
X65664834Y-58568090D01*
X65655247Y-58566136D01*
X65655247Y-58727886D01*
X65663490Y-58729596D01*
X65687300Y-58736512D01*
X65707940Y-58746636D01*
X65740360Y-58775256D01*
X65741404Y-58776552D01*
X65753577Y-58795018D01*
X65762415Y-58815581D01*
X65770077Y-58863530D01*
X65770102Y-58866738D01*
X65768164Y-58891873D01*
X65762412Y-58913548D01*
X65753962Y-58930171D01*
X65742515Y-58943822D01*
X65734565Y-58950330D01*
X65703835Y-58962571D01*
X65655382Y-58963876D01*
X65616962Y-58957902D01*
X65485743Y-58930608D01*
X65449678Y-58921128D01*
X65418382Y-58908664D01*
X65394157Y-58894803D01*
X65373904Y-58878526D01*
X65358625Y-58861192D01*
X65346840Y-58841789D01*
X65333949Y-58797761D01*
X65332602Y-58775758D01*
X65334517Y-58751166D01*
X65340106Y-58730211D01*
X65348420Y-58713899D01*
X65359535Y-58700659D01*
X65362705Y-58697844D01*
X65392159Y-58683209D01*
X65431539Y-58681795D01*
X65443367Y-58683800D01*
X65451549Y-58685510D01*
X65451549Y-58523760D01*
X65437871Y-58520890D01*
X65398971Y-58514824D01*
X65362876Y-58513369D01*
X65332581Y-58516089D01*
X65304719Y-58522700D01*
X65281000Y-58532393D01*
X65259484Y-58545530D01*
X65247850Y-58554901D01*
X65229476Y-58573869D01*
X65213781Y-58595791D01*
X65190744Y-58648621D01*
X65179135Y-58716215D01*
X65178119Y-58746327D01*
X65180062Y-58787809D01*
X65185849Y-58827141D01*
X65195120Y-58863430D01*
X65207916Y-58897769D01*
X65243681Y-58960541D01*
X65253285Y-58973289D01*
X65300007Y-59019942D01*
X65360396Y-59057865D01*
X65437367Y-59087323D01*
X65482995Y-59098586D01*
X65618367Y-59126735D01*
X65666704Y-59134794D01*
X65710909Y-59137969D01*
X65746982Y-59136625D01*
X65779618Y-59131281D01*
X65806252Y-59122927D01*
X65829965Y-59111217D01*
X65849420Y-59097242D01*
G37*
G36*
X65434734Y-57809184D02*
G01*
X65482995Y-57817227D01*
X65618367Y-57845376D01*
X65662431Y-57856186D01*
X65740954Y-57885837D01*
X65802481Y-57923788D01*
X65849420Y-57969634D01*
X65857736Y-57980409D01*
X65877187Y-58010078D01*
X65893221Y-58041740D01*
X65906124Y-58076254D01*
X65915427Y-58112748D01*
X65921289Y-58152809D01*
X65923243Y-58194887D01*
X65921615Y-58233143D01*
X65908968Y-58298716D01*
X65885027Y-58350216D01*
X65868676Y-58371905D01*
X65849420Y-58390892D01*
X65829965Y-58404866D01*
X65806252Y-58416576D01*
X65779618Y-58424930D01*
X65746982Y-58430274D01*
X65710909Y-58431619D01*
X65666704Y-58428443D01*
X65618367Y-58420385D01*
X65482995Y-58392236D01*
X65437367Y-58380972D01*
X65360396Y-58351515D01*
X65300007Y-58313591D01*
X65253285Y-58266939D01*
X65243681Y-58254191D01*
X65207916Y-58191419D01*
X65195120Y-58157079D01*
X65185849Y-58120791D01*
X65180062Y-58081458D01*
X65179623Y-58072094D01*
X65332602Y-58072094D01*
X65333732Y-58091976D01*
X65346142Y-58135550D01*
X65357734Y-58154795D01*
X65372851Y-58171987D01*
X65393090Y-58188232D01*
X65417381Y-58202080D01*
X65449094Y-58214653D01*
X65485743Y-58224257D01*
X65616962Y-58251552D01*
X65667675Y-58258061D01*
X65712271Y-58253328D01*
X65742594Y-58237472D01*
X65753953Y-58224897D01*
X65762318Y-58209342D01*
X65768152Y-58188125D01*
X65770102Y-58163075D01*
X65769175Y-58145330D01*
X65757252Y-58102217D01*
X65745851Y-58083125D01*
X65730892Y-58066060D01*
X65710667Y-58049836D01*
X65686307Y-58035983D01*
X65654187Y-58023286D01*
X65616962Y-58013537D01*
X65485743Y-57986243D01*
X65435730Y-57979665D01*
X65390558Y-57983969D01*
X65360098Y-57999328D01*
X65348746Y-58011560D01*
X65340387Y-58026738D01*
X65334553Y-58047509D01*
X65332602Y-58072094D01*
X65179623Y-58072094D01*
X65178119Y-58039976D01*
X65179955Y-58000849D01*
X65193229Y-57936108D01*
X65217808Y-57885087D01*
X65234187Y-57863971D01*
X65253285Y-57845681D01*
X65271840Y-57832630D01*
X65295601Y-57820981D01*
X65322289Y-57812653D01*
X65354781Y-57807355D01*
X65390763Y-57806022D01*
X65434734Y-57809184D01*
G37*
G36*
X65187705Y-57605651D02*
G01*
X65915000Y-57756838D01*
X65915000Y-57586967D01*
X65461135Y-57492628D01*
X65432187Y-57484600D01*
X65406827Y-57473323D01*
X65386585Y-57460010D01*
X65369405Y-57443915D01*
X65366796Y-57440910D01*
X65351651Y-57419874D01*
X65340716Y-57397351D01*
X65334698Y-57375627D01*
X65332603Y-57352592D01*
X65332602Y-57352249D01*
X65334556Y-57329358D01*
X65340418Y-57309688D01*
X65348997Y-57294781D01*
X65360717Y-57282446D01*
X65365392Y-57278854D01*
X65398085Y-57265410D01*
X65443314Y-57264940D01*
X65461135Y-57267986D01*
X65915000Y-57362324D01*
X65915000Y-57192515D01*
X65457044Y-57097321D01*
X65430764Y-57089875D01*
X65407025Y-57079106D01*
X65367665Y-57048663D01*
X65366796Y-57047740D01*
X65352884Y-57030008D01*
X65342662Y-57010679D01*
X65332898Y-56967491D01*
X65332602Y-56957736D01*
X65334556Y-56934838D01*
X65340418Y-56915159D01*
X65348988Y-56900274D01*
X65360694Y-56887988D01*
X65365392Y-56884402D01*
X65398085Y-56870957D01*
X65443314Y-56870488D01*
X65461135Y-56873533D01*
X65915000Y-56967872D01*
X65915000Y-56798001D01*
X65440619Y-56699388D01*
X65399465Y-56692818D01*
X65361422Y-56690889D01*
X65329441Y-56693193D01*
X65300120Y-56699385D01*
X65275205Y-56708671D01*
X65252656Y-56721353D01*
X65249193Y-56723752D01*
X65229582Y-56740168D01*
X65213040Y-56759332D01*
X65190018Y-56804407D01*
X65178949Y-56862009D01*
X65178119Y-56885501D01*
X65180065Y-56919295D01*
X65185869Y-56952514D01*
X65209074Y-57017445D01*
X65248492Y-57080865D01*
X65269710Y-57106480D01*
X65246970Y-57119589D01*
X65227396Y-57135501D01*
X65211588Y-57153430D01*
X65198783Y-57173898D01*
X65182264Y-57222699D01*
X65178119Y-57269268D01*
X65185935Y-57328840D01*
X65198635Y-57365866D01*
X65215095Y-57399533D01*
X65235127Y-57430842D01*
X65253285Y-57453488D01*
X65187705Y-57439872D01*
X65187705Y-57605651D01*
G37*
D11*
X73900000Y-54100000D02*
G75*
G02*
X73500000Y-54100000I-200000J0D01*
G01*
X73500000Y-54100000D02*
G75*
G02*
X73900000Y-54100000I200000J0D01*
G01*
X72300000Y-54800000D02*
G75*
G02*
X71900000Y-54800000I-200000J0D01*
G01*
X71900000Y-54800000D02*
G75*
G02*
X72300000Y-54800000I200000J0D01*
G01*
X73500000Y-54800000D02*
G75*
G02*
X73100000Y-54800000I-200000J0D01*
G01*
X73100000Y-54800000D02*
G75*
G02*
X73500000Y-54800000I200000J0D01*
G01*
X74300000Y-54800000D02*
G75*
G02*
X73900000Y-54800000I-200000J0D01*
G01*
X73900000Y-54800000D02*
G75*
G02*
X74300000Y-54800000I200000J0D01*
G01*
X75500000Y-54800000D02*
G75*
G02*
X75100000Y-54800000I-200000J0D01*
G01*
X75100000Y-54800000D02*
G75*
G02*
X75500000Y-54800000I200000J0D01*
G01*
D12*
X64600000Y-51200000D02*
G75*
G02*
X64600001Y-54800001I1900000J-1800000D01*
G01*
D13*
G36*
X69634433Y-60803923D02*
G01*
X69723924Y-60810872D01*
X69794421Y-60828177D01*
X69849603Y-60854284D01*
X69892331Y-60888788D01*
X69916198Y-60917572D01*
X69932962Y-60944165D01*
X69946831Y-60973015D01*
X69958225Y-61005494D01*
X69966464Y-61040316D01*
X69971741Y-61079572D01*
X69973500Y-61121301D01*
X69973500Y-61422782D01*
X69103568Y-61422782D01*
X69103568Y-61117619D01*
X69247549Y-61117619D01*
X69247549Y-61256655D01*
X69829573Y-61256655D01*
X69829573Y-61117619D01*
X69824175Y-61072115D01*
X69807818Y-61034598D01*
X69795489Y-61019044D01*
X69780334Y-61005677D01*
X69760994Y-60993774D01*
X69735865Y-60983396D01*
X69706589Y-60975781D01*
X69668581Y-60970506D01*
X69625307Y-60968747D01*
X69457970Y-60968747D01*
X69394811Y-60972357D01*
X69337332Y-60985339D01*
X69297997Y-61005677D01*
X69273331Y-61029953D01*
X69262462Y-61047442D01*
X69254525Y-61067212D01*
X69249300Y-61091055D01*
X69247549Y-61117619D01*
X69103568Y-61117619D01*
X69103568Y-61116410D01*
X69106977Y-61059311D01*
X69121849Y-60992199D01*
X69147709Y-60935538D01*
X69164848Y-60910449D01*
X69184790Y-60887524D01*
X69220582Y-60858035D01*
X69247314Y-60842613D01*
X69277215Y-60829748D01*
X69312714Y-60818840D01*
X69351901Y-60810887D01*
X69398427Y-60805638D01*
X69449342Y-60803883D01*
X69626516Y-60803883D01*
X69634433Y-60803923D01*
G37*
G36*
X69286951Y-60549388D02*
G01*
X69973500Y-60549388D01*
X69973500Y-60384469D01*
X69103568Y-60384469D01*
X69103568Y-60549388D01*
X69214301Y-60695787D01*
X69392739Y-60695787D01*
X69286951Y-60549388D01*
G37*
G36*
X80673500Y-61059752D02*
G01*
X80320361Y-61224616D01*
X80320361Y-61347660D01*
X80673500Y-61347660D01*
X80673500Y-61513787D01*
X79803568Y-61513787D01*
X79803568Y-61191423D01*
X79947549Y-61191423D01*
X79947549Y-61347660D01*
X80183799Y-61347660D01*
X80183799Y-61191423D01*
X80182821Y-61171422D01*
X80172827Y-61131088D01*
X80153024Y-61101573D01*
X80145841Y-61095091D01*
X80129637Y-61084368D01*
X80110901Y-61076495D01*
X80088323Y-61071332D01*
X80063228Y-61069589D01*
X80049225Y-61070196D01*
X80011065Y-61079962D01*
X79994323Y-61089782D01*
X79979532Y-61102837D01*
X79973123Y-61110217D01*
X79962356Y-61126434D01*
X79954455Y-61144715D01*
X79949291Y-61166645D01*
X79947549Y-61191423D01*
X79803568Y-61191423D01*
X79803568Y-61182796D01*
X79804865Y-61149123D01*
X79816512Y-61082963D01*
X79839429Y-61027160D01*
X79855162Y-61002426D01*
X79873745Y-60979793D01*
X79891701Y-60962357D01*
X79913881Y-60945374D01*
X79937977Y-60931376D01*
X79964963Y-60920007D01*
X79994044Y-60911795D01*
X80027417Y-60906488D01*
X80063228Y-60904725D01*
X80104822Y-60907140D01*
X80161591Y-60920276D01*
X80208418Y-60944073D01*
X80230743Y-60961565D01*
X80250574Y-60981567D01*
X80267983Y-61004171D01*
X80283223Y-61029992D01*
X80295796Y-61058543D01*
X80673500Y-60869005D01*
X80673500Y-61059752D01*
G37*
G36*
X80543092Y-60772010D02*
G01*
X80673500Y-60772010D01*
X80673500Y-60267526D01*
X80528309Y-60267526D01*
X80528309Y-60564061D01*
X80247766Y-60347540D01*
X80213467Y-60322979D01*
X80179452Y-60302834D01*
X80149342Y-60288464D01*
X80120014Y-60278025D01*
X80089171Y-60271057D01*
X80044763Y-60267526D01*
X80023826Y-60267526D01*
X79992964Y-60269303D01*
X79963408Y-60274707D01*
X79936712Y-60283238D01*
X79911196Y-60295194D01*
X79905728Y-60298301D01*
X79883097Y-60313588D01*
X79862885Y-60331437D01*
X79828534Y-60375647D01*
X79822032Y-60386888D01*
X79809416Y-60413617D01*
X79799874Y-60442223D01*
X79790380Y-60504818D01*
X79790049Y-60519768D01*
X79791777Y-60554589D01*
X79796837Y-60587575D01*
X79805055Y-60618480D01*
X79816241Y-60647011D01*
X79820823Y-60656385D01*
X79835988Y-60681919D01*
X79853718Y-60704580D01*
X79873033Y-60723464D01*
X79894826Y-60739760D01*
X79903255Y-60744972D01*
X79953487Y-60766327D01*
X80010867Y-60775416D01*
X80025090Y-60775747D01*
X80054600Y-60775747D01*
X80054600Y-60615774D01*
X80034927Y-60615774D01*
X80010439Y-60614037D01*
X79988971Y-60608919D01*
X79971910Y-60601354D01*
X79957386Y-60591154D01*
X79945800Y-60578776D01*
X79937512Y-60564497D01*
X79930434Y-60530748D01*
X79930348Y-60525923D01*
X79932108Y-60504984D01*
X79937398Y-60486570D01*
X79945301Y-60471988D01*
X79956154Y-60459504D01*
X79956177Y-60459483D01*
X79985488Y-60441846D01*
X80025337Y-60434899D01*
X80028772Y-60434863D01*
X80045972Y-60434863D01*
X80090871Y-60441900D01*
X80140213Y-60464365D01*
X80167807Y-60482893D01*
X80543092Y-60772010D01*
G37*
G36*
X80673500Y-57768747D02*
G01*
X80320361Y-57933611D01*
X80320361Y-58056655D01*
X80673500Y-58056655D01*
X80673500Y-58222782D01*
X79803568Y-58222782D01*
X79803568Y-57900418D01*
X79947549Y-57900418D01*
X79947549Y-58056655D01*
X80183799Y-58056655D01*
X80183799Y-57900418D01*
X80182821Y-57880417D01*
X80172827Y-57840083D01*
X80153024Y-57810568D01*
X80145841Y-57804086D01*
X80129637Y-57793363D01*
X80110901Y-57785490D01*
X80088323Y-57780327D01*
X80063228Y-57778584D01*
X80049225Y-57779191D01*
X80011065Y-57788957D01*
X79994323Y-57798777D01*
X79979532Y-57811832D01*
X79973123Y-57819212D01*
X79962356Y-57835429D01*
X79954455Y-57853710D01*
X79949291Y-57875640D01*
X79947549Y-57900418D01*
X79803568Y-57900418D01*
X79803568Y-57891791D01*
X79804865Y-57858118D01*
X79816512Y-57791958D01*
X79839429Y-57736155D01*
X79855162Y-57711421D01*
X79873745Y-57688788D01*
X79891701Y-57671352D01*
X79913881Y-57654369D01*
X79937977Y-57640371D01*
X79964963Y-57629002D01*
X79994044Y-57620790D01*
X80027417Y-57615483D01*
X80063228Y-57613720D01*
X80104822Y-57616135D01*
X80161591Y-57629271D01*
X80208418Y-57653068D01*
X80230743Y-57670560D01*
X80250574Y-57690562D01*
X80267983Y-57713166D01*
X80283223Y-57738987D01*
X80295796Y-57767538D01*
X80673500Y-57578000D01*
X80673500Y-57768747D01*
G37*
G36*
X79986951Y-57349388D02*
G01*
X80673500Y-57349388D01*
X80673500Y-57184469D01*
X79803568Y-57184469D01*
X79803568Y-57349388D01*
X79914301Y-57495787D01*
X80092739Y-57495787D01*
X79986951Y-57349388D01*
G37*
D10*
G36*
X67347549Y-60410493D02*
G01*
X67347549Y-60024161D01*
X67203568Y-60024161D01*
X67203568Y-60576620D01*
X68073500Y-60576620D01*
X68073500Y-60410493D01*
X67714206Y-60410493D01*
X67714206Y-60079501D01*
X67570280Y-60079501D01*
X67570280Y-60410493D01*
X67347549Y-60410493D01*
G37*
G36*
X67386951Y-59795550D02*
G01*
X68073500Y-59795550D01*
X68073500Y-59630631D01*
X67203568Y-59630631D01*
X67203568Y-59795550D01*
X67314301Y-59941949D01*
X67492739Y-59941949D01*
X67386951Y-59795550D01*
G37*
D13*
G36*
X78121418Y-61843989D02*
G01*
X78153030Y-61858197D01*
X78185881Y-61868972D01*
X78254393Y-61880107D01*
X78280182Y-61880918D01*
X78318137Y-61879160D01*
X78354604Y-61873884D01*
X78388417Y-61865427D01*
X78420695Y-61853673D01*
X78441364Y-61843989D01*
X78469634Y-61827499D01*
X78495149Y-61808438D01*
X78517285Y-61787472D01*
X78536950Y-61763978D01*
X78553306Y-61739410D01*
X78568155Y-61710991D01*
X78579636Y-61681294D01*
X78592425Y-61618705D01*
X78593918Y-61586801D01*
X78593918Y-61003568D01*
X78427845Y-61003568D01*
X78427845Y-61580701D01*
X78426060Y-61611476D01*
X78420605Y-61639294D01*
X78412625Y-61661244D01*
X78401565Y-61680660D01*
X78388442Y-61696326D01*
X78371808Y-61710497D01*
X78353185Y-61721636D01*
X78310441Y-61734730D01*
X78280182Y-61736937D01*
X78253008Y-61735178D01*
X78228406Y-61729899D01*
X78207944Y-61721884D01*
X78189675Y-61710856D01*
X78173130Y-61696326D01*
X78150543Y-61662674D01*
X78137649Y-61617971D01*
X78134991Y-61580701D01*
X78134991Y-61003568D01*
X77968864Y-61003568D01*
X77968864Y-61586801D01*
X77970623Y-61621372D01*
X77975902Y-61654409D01*
X77984367Y-61684992D01*
X77996135Y-61714265D01*
X78009475Y-61739410D01*
X78027226Y-61765835D01*
X78047494Y-61789574D01*
X78094652Y-61828487D01*
X78121418Y-61843989D01*
G37*
G36*
X78858964Y-61186951D02*
G01*
X78858964Y-61873500D01*
X79023883Y-61873500D01*
X79023883Y-61003568D01*
X78858964Y-61003568D01*
X78712565Y-61114301D01*
X78712565Y-61292739D01*
X78858964Y-61186951D01*
G37*
D10*
G36*
X79003832Y-56228309D02*
G01*
X79003832Y-56373500D01*
X79109675Y-56373500D01*
X79143036Y-56371741D01*
X79173578Y-56366463D01*
X79199328Y-56358428D01*
X79222585Y-56347367D01*
X79256074Y-56321842D01*
X79271390Y-56304038D01*
X79284025Y-56283937D01*
X79301365Y-56236317D01*
X79307786Y-56174179D01*
X79307786Y-55503568D01*
X79141658Y-55503568D01*
X79141658Y-56147141D01*
X79139853Y-56175106D01*
X79134247Y-56196130D01*
X79125667Y-56209900D01*
X79115690Y-56218243D01*
X79102955Y-56224091D01*
X79071536Y-56228309D01*
X79003832Y-56228309D01*
G37*
G36*
X79580911Y-55686951D02*
G01*
X79580911Y-56373500D01*
X79745830Y-56373500D01*
X79745830Y-55503568D01*
X79580911Y-55503568D01*
X79434512Y-55614301D01*
X79434512Y-55792739D01*
X79580911Y-55686951D01*
G37*
D13*
G36*
X76212827Y-58128309D02*
G01*
X76212827Y-58273500D01*
X76318670Y-58273500D01*
X76352031Y-58271741D01*
X76382573Y-58266463D01*
X76408323Y-58258428D01*
X76431580Y-58247367D01*
X76465069Y-58221842D01*
X76480385Y-58204038D01*
X76493020Y-58183937D01*
X76510360Y-58136317D01*
X76516781Y-58074179D01*
X76516781Y-57403568D01*
X76350653Y-57403568D01*
X76350653Y-58047141D01*
X76348848Y-58075106D01*
X76343242Y-58096130D01*
X76334662Y-58109900D01*
X76324685Y-58118243D01*
X76311950Y-58124091D01*
X76280531Y-58128309D01*
X76212827Y-58128309D01*
G37*
G36*
X76658289Y-58143092D02*
G01*
X76658289Y-58273500D01*
X77162773Y-58273500D01*
X77162773Y-58128309D01*
X76866238Y-58128309D01*
X77082759Y-57847766D01*
X77107320Y-57813467D01*
X77127465Y-57779452D01*
X77141835Y-57749342D01*
X77152274Y-57720014D01*
X77159243Y-57689171D01*
X77162773Y-57644763D01*
X77162773Y-57623826D01*
X77160996Y-57592964D01*
X77155592Y-57563408D01*
X77147061Y-57536712D01*
X77135105Y-57511196D01*
X77131998Y-57505728D01*
X77116711Y-57483097D01*
X77098862Y-57462885D01*
X77054652Y-57428534D01*
X77043412Y-57422032D01*
X77016682Y-57409416D01*
X76988076Y-57399874D01*
X76925481Y-57390380D01*
X76910531Y-57390049D01*
X76875710Y-57391777D01*
X76842724Y-57396837D01*
X76811819Y-57405055D01*
X76783289Y-57416241D01*
X76773914Y-57420823D01*
X76748380Y-57435988D01*
X76725719Y-57453718D01*
X76706835Y-57473033D01*
X76690539Y-57494826D01*
X76685327Y-57503255D01*
X76663972Y-57553487D01*
X76654883Y-57610867D01*
X76654553Y-57625090D01*
X76654553Y-57654600D01*
X76814526Y-57654600D01*
X76814526Y-57634927D01*
X76816262Y-57610439D01*
X76821381Y-57588971D01*
X76828945Y-57571910D01*
X76839145Y-57557386D01*
X76851523Y-57545800D01*
X76865803Y-57537512D01*
X76899551Y-57530434D01*
X76904376Y-57530348D01*
X76925315Y-57532108D01*
X76943729Y-57537398D01*
X76958311Y-57545301D01*
X76970795Y-57556154D01*
X76970817Y-57556177D01*
X76988454Y-57585488D01*
X76995400Y-57625337D01*
X76995436Y-57628772D01*
X76995436Y-57645972D01*
X76988399Y-57690871D01*
X76965934Y-57740213D01*
X76947406Y-57767807D01*
X76658289Y-58143092D01*
G37*
D14*
%TO.C,D1*%
X69000000Y-59800000D02*
X69000000Y-57840000D01*
X70200000Y-57840000D02*
X69000000Y-57840000D01*
X70200000Y-59800000D02*
X70200000Y-57840000D01*
%TO.C,R2*%
X81077500Y-60662742D02*
X81077500Y-61137258D01*
X82122500Y-60662742D02*
X82122500Y-61137258D01*
%TO.C,R1*%
X81077500Y-57937258D02*
X81077500Y-57462742D01*
X82122500Y-57937258D02*
X82122500Y-57462742D01*
%TO.C,F1*%
X66990000Y-57641422D02*
X66990000Y-58158578D01*
X68410000Y-57641422D02*
X68410000Y-58158578D01*
%TO.C,U1*%
X78000000Y-57890000D02*
X79000000Y-57890000D01*
X78000000Y-60710000D02*
X78790000Y-60710000D01*
X79120000Y-60990000D02*
X79120000Y-60710000D01*
X79400000Y-60710000D01*
X79120000Y-60990000D01*
G36*
X79120000Y-60990000D02*
G01*
X79120000Y-60710000D01*
X79400000Y-60710000D01*
X79120000Y-60990000D01*
G37*
%TO.C,J2*%
X70890000Y-58640000D02*
X71940000Y-58640000D01*
X70890000Y-61140000D02*
X70890000Y-58640000D01*
X71940000Y-58640000D02*
X71940000Y-57650000D01*
X72060000Y-63110000D02*
X75940000Y-63110000D01*
X77110000Y-58640000D02*
X76060000Y-58640000D01*
X77110000Y-61140000D02*
X77110000Y-58640000D01*
%TD*%
%LPC*%
D15*
X82812500Y-53000000D02*
G75*
G02*
X80187500Y-53000000I-1312500J0D01*
G01*
X80187500Y-53000000D02*
G75*
G02*
X82812500Y-53000000I1312500J0D01*
G01*
D16*
%TO.C,D1*%
X69600000Y-58400000D03*
X69600000Y-59800000D03*
%TD*%
D17*
%TO.C,R2*%
X81600000Y-60075000D03*
X81600000Y-61725000D03*
%TD*%
D18*
%TO.C,R1*%
X81600000Y-58525000D03*
X81600000Y-56875000D03*
%TD*%
D19*
%TO.C,MH1*%
X81500000Y-53000000D03*
%TD*%
%TO.C,MH2*%
X66500000Y-53000000D03*
%TD*%
D20*
%TO.C,F1*%
X67700000Y-56962500D03*
X67700000Y-58837500D03*
%TD*%
D21*
%TO.C,U1*%
X78885000Y-60300000D03*
X78885000Y-59800000D03*
X78885000Y-59300000D03*
X78885000Y-58800000D03*
X78885000Y-58300000D03*
X78115000Y-58300000D03*
X78115000Y-58800000D03*
X78115000Y-59300000D03*
X78115000Y-59800000D03*
X78115000Y-60300000D03*
%TD*%
D22*
%TO.C,J1*%
X76890000Y-54880000D03*
X71110000Y-54880000D03*
D23*
X77200000Y-55950000D03*
X76400000Y-55950000D03*
D24*
X75250000Y-55950000D03*
X74250000Y-55950000D03*
X73750000Y-55950000D03*
X72750000Y-55950000D03*
D23*
X71600000Y-55950000D03*
X70800000Y-55950000D03*
D24*
X72250000Y-55950000D03*
X73250000Y-55950000D03*
X74750000Y-55950000D03*
X75750000Y-55950000D03*
D25*
X78320000Y-55380000D03*
D26*
X78320000Y-51200000D03*
D25*
X69680000Y-55380000D03*
D26*
X69680000Y-51200000D03*
%TD*%
D27*
%TO.C,J2*%
X72500000Y-58475000D03*
X73500000Y-58475000D03*
X74500000Y-58475000D03*
X75500000Y-58475000D03*
D28*
X71200000Y-62300000D03*
X76800000Y-62300000D03*
%TD*%
%LPD*%
M02*
