%TF.GenerationSoftware,KiCad,Pcbnew,9.0.6*%
%TF.CreationDate,2026-01-06T08:42:05+09:00*%
%TF.ProjectId,muon,6d756f6e-2e6b-4696-9361-645f70636258,rev?*%
%TF.SameCoordinates,Original*%
%TF.FileFunction,Legend,Top*%
%TF.FilePolarity,Positive*%
%FSLAX46Y46*%
G04 Gerber Fmt 4.6, Leading zero omitted, Abs format (unit mm)*
G04 Created by KiCad (PCBNEW 9.0.6) date 2026-01-06 08:42:05*
%MOMM*%
%LPD*%
G01*
G04 APERTURE LIST*
G04 Aperture macros list*
%AMRoundRect*
0 Rectangle with rounded corners*
0 $1 Rounding radius*
0 $2 $3 $4 $5 $6 $7 $8 $9 X,Y pos of 4 corners*
0 Add a 4 corners polygon primitive as box body*
4,1,4,$2,$3,$4,$5,$6,$7,$8,$9,$2,$3,0*
0 Add four circle primitives for the rounded corners*
1,1,$1+$1,$2,$3*
1,1,$1+$1,$4,$5*
1,1,$1+$1,$6,$7*
1,1,$1+$1,$8,$9*
0 Add four rect primitives between the rounded corners*
20,1,$1+$1,$2,$3,$4,$5,0*
20,1,$1+$1,$4,$5,$6,$7,0*
20,1,$1+$1,$6,$7,$8,$9,0*
20,1,$1+$1,$8,$9,$2,$3,0*%
G04 Aperture macros list end*
%ADD10C,0.200000*%
%ADD11C,0.400000*%
%ADD12C,0.100000*%
%ADD13C,0.180000*%
%ADD14C,0.120000*%
%ADD15C,2.625000*%
%ADD16RoundRect,0.150000X0.200000X-0.150000X0.200000X0.150000X-0.200000X0.150000X-0.200000X-0.150000X0*%
%ADD17RoundRect,0.200000X-0.275000X0.200000X-0.275000X-0.200000X0.275000X-0.200000X0.275000X0.200000X0*%
%ADD18RoundRect,0.200000X0.275000X-0.200000X0.275000X0.200000X-0.275000X0.200000X-0.275000X-0.200000X0*%
%ADD19C,2.700000*%
%ADD20RoundRect,0.243750X-0.456250X0.243750X-0.456250X-0.243750X0.456250X-0.243750X0.456250X0.243750X0*%
%ADD21RoundRect,0.075000X0.200000X-0.075000X0.200000X0.075000X-0.200000X0.075000X-0.200000X-0.075000X0*%
%ADD22C,0.600000*%
%ADD23RoundRect,0.050000X0.250000X0.525000X-0.250000X0.525000X-0.250000X-0.525000X0.250000X-0.525000X0*%
%ADD24RoundRect,0.050000X0.100000X0.525000X-0.100000X0.525000X-0.100000X-0.525000X0.100000X-0.525000X0*%
%ADD25O,1.000000X2.100000*%
%ADD26O,1.000000X1.800000*%
%ADD27RoundRect,0.150000X-0.150000X-0.575000X0.150000X-0.575000X0.150000X0.575000X-0.150000X0.575000X0*%
%ADD28RoundRect,0.250000X-0.350000X-0.650000X0.350000X-0.650000X0.350000X0.650000X-0.350000X0.650000X0*%
G04 APERTURE END LIST*
D10*
G36*
X66107163Y-59909349D02*
G01*
X66161142Y-59914504D01*
X66220329Y-59924790D01*
X66441796Y-59970830D01*
X66536785Y-59996351D01*
X66620100Y-60031964D01*
X66685332Y-60074889D01*
X66735743Y-60125497D01*
X66759735Y-60158801D01*
X66779531Y-60193000D01*
X66795824Y-60228965D01*
X66808818Y-60267413D01*
X66818176Y-60307697D01*
X66824037Y-60351379D01*
X66825990Y-60397034D01*
X66822483Y-60458154D01*
X66807323Y-60526355D01*
X66781778Y-60578990D01*
X66745969Y-60619235D01*
X66723449Y-60635435D01*
X66698128Y-60648593D01*
X66668055Y-60659269D01*
X66634793Y-60666490D01*
X66594913Y-60670428D01*
X66551238Y-60670268D01*
X66498819Y-60665362D01*
X66441796Y-60655504D01*
X66220329Y-60609464D01*
X66178750Y-60599761D01*
X66083828Y-60567808D01*
X66007361Y-60527455D01*
X65946500Y-60479136D01*
X65899215Y-60422427D01*
X65880203Y-60390362D01*
X65864503Y-60356045D01*
X65851755Y-60318204D01*
X65842547Y-60277961D01*
X65836685Y-60233093D01*
X65836112Y-60219164D01*
X65996114Y-60219164D01*
X66000941Y-60267722D01*
X66018548Y-60315474D01*
X66032340Y-60336178D01*
X66049420Y-60354596D01*
X66067246Y-60368967D01*
X66096522Y-60386727D01*
X66131799Y-60402679D01*
X66177431Y-60418043D01*
X66229855Y-60430922D01*
X66439049Y-60474398D01*
X66505466Y-60484480D01*
X66567866Y-60483615D01*
X66609958Y-60471161D01*
X66634073Y-60452810D01*
X66645550Y-60436613D01*
X66653935Y-60417008D01*
X66659945Y-60389628D01*
X66661920Y-60357588D01*
X66657861Y-60314677D01*
X66640582Y-60266386D01*
X66626396Y-60244577D01*
X66608614Y-60224781D01*
X66590553Y-60209543D01*
X66562942Y-60191879D01*
X66530327Y-60176367D01*
X66487898Y-60161573D01*
X66439049Y-60149432D01*
X66229855Y-60105957D01*
X66154212Y-60094797D01*
X66092086Y-60096286D01*
X66050764Y-60108827D01*
X66024161Y-60129041D01*
X66012517Y-60145113D01*
X66004005Y-60164205D01*
X65998078Y-60189684D01*
X65996114Y-60219164D01*
X65836112Y-60219164D01*
X65834731Y-60185580D01*
X65839579Y-60116778D01*
X65856654Y-60050353D01*
X65884941Y-59997033D01*
X65903504Y-59974314D01*
X65924979Y-59954282D01*
X65963052Y-59930830D01*
X65991802Y-59920226D01*
X66023916Y-59913071D01*
X66063472Y-59909129D01*
X66107163Y-59909349D01*
G37*
G36*
X65848408Y-58973403D02*
G01*
X65848408Y-59152677D01*
X66454070Y-59278585D01*
X65848408Y-59500296D01*
X65848408Y-59680852D01*
X66815000Y-59881803D01*
X66815000Y-59701247D01*
X66212086Y-59575889D01*
X66815000Y-59353628D01*
X66815000Y-59174354D01*
X65848408Y-58973403D01*
G37*
G36*
X65848408Y-58793762D02*
G01*
X66815000Y-58994713D01*
X66815000Y-58401020D01*
X66655081Y-58367803D01*
X66655081Y-58780940D01*
X65848408Y-58613206D01*
X65848408Y-58793762D01*
G37*
G36*
X66417189Y-57811235D02*
G01*
X65848408Y-57417515D01*
X65848408Y-57615413D01*
X66240785Y-57865518D01*
X65848408Y-57951125D01*
X65848408Y-58147679D01*
X66418532Y-57990692D01*
X66815000Y-58073124D01*
X66815000Y-57893911D01*
X66417189Y-57811235D01*
G37*
G36*
X82897000Y-61289732D02*
G01*
X82936529Y-61295978D01*
X83415000Y-61395446D01*
X83415000Y-61559943D01*
X83352168Y-61546876D01*
X83379457Y-61582215D01*
X83406817Y-61631751D01*
X83415447Y-61658957D01*
X83421291Y-61692442D01*
X83423243Y-61730119D01*
X83423012Y-61743390D01*
X83414184Y-61805585D01*
X83394135Y-61852400D01*
X83379981Y-61871344D01*
X83363098Y-61887412D01*
X83343780Y-61900372D01*
X83322202Y-61910058D01*
X83296323Y-61916860D01*
X83267863Y-61919836D01*
X83233589Y-61918696D01*
X83196280Y-61912935D01*
X83139165Y-61894840D01*
X83111766Y-61880570D01*
X83086713Y-61863126D01*
X83063078Y-61841618D01*
X83041796Y-61816642D01*
X83015632Y-61773543D01*
X83002877Y-61741887D01*
X82993714Y-61707854D01*
X82987717Y-61668179D01*
X82985744Y-61625767D01*
X82985744Y-61622408D01*
X83104689Y-61622408D01*
X83108996Y-61665570D01*
X83124410Y-61704037D01*
X83136265Y-61718948D01*
X83150930Y-61731058D01*
X83169906Y-61740963D01*
X83192189Y-61747583D01*
X83230622Y-61749531D01*
X83257442Y-61738380D01*
X83268098Y-61727113D01*
X83276030Y-61712159D01*
X83281834Y-61689841D01*
X83283780Y-61662403D01*
X83283326Y-61647186D01*
X83273501Y-61596800D01*
X83252334Y-61559516D01*
X83236100Y-61543907D01*
X83216102Y-61530873D01*
X83188596Y-61518939D01*
X83156652Y-61510240D01*
X83104689Y-61499432D01*
X83104689Y-61622408D01*
X82985744Y-61622408D01*
X82985744Y-61474702D01*
X82928286Y-61462796D01*
X82908484Y-61459567D01*
X82867313Y-61460908D01*
X82839033Y-61474434D01*
X82828044Y-61486573D01*
X82819927Y-61502141D01*
X82814044Y-61524816D01*
X82812087Y-61552249D01*
X82817712Y-61594809D01*
X82836694Y-61633582D01*
X82862648Y-61659094D01*
X82880517Y-61668796D01*
X82900991Y-61675043D01*
X82905082Y-61675897D01*
X82905082Y-61833739D01*
X82899587Y-61832579D01*
X82896929Y-61832014D01*
X82835598Y-61811135D01*
X82808257Y-61795752D01*
X82783194Y-61777126D01*
X82759535Y-61754369D01*
X82738265Y-61728165D01*
X82707855Y-61674869D01*
X82695105Y-61640896D01*
X82685872Y-61604665D01*
X82680066Y-61564931D01*
X82678120Y-61523062D01*
X82679199Y-61489413D01*
X82690406Y-61420119D01*
X82712047Y-61368227D01*
X82743760Y-61329439D01*
X82756926Y-61318930D01*
X82778287Y-61306258D01*
X82802093Y-61296878D01*
X82830017Y-61290576D01*
X82860687Y-61288080D01*
X82897000Y-61289732D01*
G37*
G36*
X82687706Y-61075976D02*
G01*
X83415000Y-61227162D01*
X83415000Y-61058696D01*
X82687706Y-60907509D01*
X82687706Y-61075976D01*
G37*
G36*
X82448409Y-61028898D02*
G01*
X82587872Y-61057902D01*
X82587872Y-60885405D01*
X82448409Y-60856402D01*
X82448409Y-61028898D01*
G37*
G36*
X82705104Y-60193226D02*
G01*
X82756033Y-60201831D01*
X83097850Y-60272905D01*
X83126659Y-60279460D01*
X83217556Y-60309264D01*
X83289897Y-60347629D01*
X83346673Y-60394111D01*
X83366214Y-60416264D01*
X83384970Y-60443215D01*
X83400443Y-60472432D01*
X83413092Y-60505272D01*
X83422226Y-60540571D01*
X83428123Y-60580919D01*
X83430081Y-60624066D01*
X83425370Y-60687811D01*
X83409328Y-60745312D01*
X83383330Y-60788149D01*
X83366337Y-60805213D01*
X83346673Y-60819338D01*
X83332946Y-60826855D01*
X83305834Y-60837809D01*
X83275532Y-60845442D01*
X83239195Y-60849897D01*
X83199026Y-60850362D01*
X83150790Y-60846246D01*
X83097850Y-60837229D01*
X82756033Y-60766154D01*
X82721636Y-60758107D01*
X82636635Y-60728632D01*
X82568724Y-60690414D01*
X82515393Y-60643849D01*
X82498314Y-60623603D01*
X82479058Y-60595501D01*
X82463180Y-60565411D01*
X82450419Y-60532510D01*
X82441202Y-60497476D01*
X82435342Y-60458384D01*
X82434966Y-60450409D01*
X82594711Y-60450409D01*
X82596560Y-60473683D01*
X82610121Y-60511100D01*
X82622023Y-60526613D01*
X82637087Y-60539497D01*
X82683123Y-60562962D01*
X82727251Y-60577683D01*
X82782045Y-60591032D01*
X83081425Y-60653253D01*
X83107928Y-60658420D01*
X83185093Y-60667083D01*
X83227726Y-60662290D01*
X83244510Y-60654435D01*
X83255546Y-60644558D01*
X83263727Y-60631679D01*
X83269504Y-60613347D01*
X83271446Y-60591093D01*
X83269692Y-60568482D01*
X83256145Y-60530780D01*
X83243713Y-60514414D01*
X83227726Y-60500418D01*
X83187935Y-60479123D01*
X83140946Y-60463077D01*
X83081425Y-60448638D01*
X82782045Y-60386417D01*
X82752296Y-60380671D01*
X82677291Y-60372632D01*
X82637087Y-60377625D01*
X82621218Y-60385494D01*
X82610405Y-60395557D01*
X82602333Y-60408747D01*
X82596641Y-60427482D01*
X82594711Y-60450409D01*
X82434966Y-60450409D01*
X82433388Y-60416887D01*
X82437739Y-60355336D01*
X82453504Y-60296733D01*
X82479238Y-60253057D01*
X82496012Y-60235695D01*
X82515393Y-60221309D01*
X82528423Y-60213936D01*
X82554929Y-60202763D01*
X82584499Y-60194901D01*
X82619739Y-60190205D01*
X82658629Y-60189464D01*
X82705104Y-60193226D01*
G37*
G36*
X83365785Y-60109873D02*
G01*
X83397183Y-60070387D01*
X83418397Y-60018110D01*
X83429157Y-59948635D01*
X83430081Y-59917349D01*
X83428107Y-59878501D01*
X83422102Y-59840511D01*
X83412484Y-59805173D01*
X83398966Y-59770942D01*
X83395887Y-59764453D01*
X83377650Y-59731645D01*
X83356345Y-59701658D01*
X83305514Y-59650608D01*
X83298801Y-59645262D01*
X83268864Y-59624534D01*
X83236718Y-59607076D01*
X83165462Y-59581845D01*
X83149813Y-59578279D01*
X83123801Y-59572905D01*
X83084777Y-59566745D01*
X83049036Y-59565248D01*
X83018993Y-59567906D01*
X82991303Y-59574361D01*
X82985744Y-59576203D01*
X82962235Y-59586544D01*
X82941506Y-59600185D01*
X82924665Y-59616066D01*
X82910407Y-59635026D01*
X82900991Y-59652284D01*
X82866914Y-59598333D01*
X82821674Y-59554160D01*
X82792995Y-59534337D01*
X82762175Y-59518251D01*
X82709566Y-59501403D01*
X82689050Y-59497129D01*
X82652519Y-59491521D01*
X82618524Y-59490327D01*
X82588706Y-59493156D01*
X82561096Y-59499735D01*
X82536376Y-59509623D01*
X82513686Y-59522873D01*
X82503120Y-59530712D01*
X82484872Y-59547815D01*
X82469385Y-59567691D01*
X82446509Y-59616266D01*
X82434644Y-59679304D01*
X82433388Y-59711452D01*
X82435336Y-59752686D01*
X82441152Y-59791762D01*
X82450401Y-59827404D01*
X82463185Y-59860952D01*
X82479117Y-59891774D01*
X82498378Y-59920507D01*
X82501776Y-59924920D01*
X82523910Y-59950043D01*
X82548707Y-59972298D01*
X82606332Y-60008303D01*
X82675761Y-60033059D01*
X82691797Y-60036723D01*
X82715000Y-60041546D01*
X82715000Y-59877049D01*
X82691797Y-59872225D01*
X82667874Y-59865284D01*
X82646584Y-59855047D01*
X82616571Y-59829788D01*
X82604326Y-59812192D01*
X82595614Y-59792435D01*
X82589276Y-59750592D01*
X82591257Y-59728008D01*
X82597302Y-59708758D01*
X82605788Y-59695220D01*
X82617442Y-59684548D01*
X82619318Y-59683303D01*
X82635030Y-59675601D01*
X82653141Y-59671198D01*
X82698087Y-59672989D01*
X82702727Y-59673900D01*
X82723244Y-59678174D01*
X82749291Y-59685519D01*
X82772298Y-59695980D01*
X82792055Y-59709154D01*
X82808800Y-59724893D01*
X82809339Y-59725496D01*
X82821927Y-59742500D01*
X82831051Y-59761400D01*
X82839332Y-59805515D01*
X82839442Y-59811897D01*
X82839442Y-59858731D01*
X82995330Y-59891154D01*
X82995330Y-59843038D01*
X82997284Y-59815927D01*
X83003145Y-59793209D01*
X83011448Y-59776815D01*
X83022725Y-59763459D01*
X83028119Y-59758896D01*
X83058745Y-59745064D01*
X83102168Y-59743357D01*
X83125205Y-59746990D01*
X83149813Y-59752119D01*
X83178838Y-59760154D01*
X83204654Y-59771649D01*
X83224501Y-59784701D01*
X83241404Y-59800540D01*
X83256078Y-59820042D01*
X83266848Y-59841285D01*
X83273131Y-59862596D01*
X83275573Y-59885330D01*
X83275598Y-59887918D01*
X83273615Y-59915752D01*
X83267554Y-59938485D01*
X83249586Y-59964060D01*
X83236360Y-59972646D01*
X83220814Y-59977855D01*
X83181794Y-59977888D01*
X83173016Y-59976272D01*
X83151156Y-59971754D01*
X83151156Y-60138877D01*
X83181259Y-60145105D01*
X83219297Y-60151016D01*
X83254399Y-60152288D01*
X83283648Y-60149407D01*
X83310485Y-60142664D01*
X83333421Y-60132828D01*
X83354238Y-60119559D01*
X83365785Y-60109873D01*
G37*
G36*
X83216796Y-59456463D02*
G01*
X83415000Y-59497679D01*
X83415000Y-59307841D01*
X83216796Y-59266625D01*
X83216796Y-59456463D01*
G37*
G36*
X83349420Y-59097242D02*
G01*
X83368676Y-59078255D01*
X83385027Y-59056567D01*
X83408968Y-59005066D01*
X83421615Y-58939493D01*
X83423243Y-58901238D01*
X83421289Y-58858219D01*
X83415429Y-58817718D01*
X83406225Y-58781476D01*
X83393486Y-58747451D01*
X83377672Y-58716398D01*
X83358504Y-58687393D01*
X83353511Y-58680869D01*
X83330140Y-58654284D01*
X83304373Y-58631046D01*
X83246988Y-58595199D01*
X83178539Y-58571181D01*
X83164834Y-58568090D01*
X83155247Y-58566136D01*
X83155247Y-58727886D01*
X83163490Y-58729596D01*
X83187300Y-58736512D01*
X83207940Y-58746636D01*
X83240360Y-58775256D01*
X83241404Y-58776552D01*
X83253577Y-58795018D01*
X83262415Y-58815581D01*
X83270077Y-58863530D01*
X83270102Y-58866738D01*
X83268164Y-58891873D01*
X83262412Y-58913548D01*
X83253962Y-58930171D01*
X83242515Y-58943822D01*
X83234565Y-58950330D01*
X83203835Y-58962571D01*
X83155382Y-58963876D01*
X83116962Y-58957902D01*
X82985744Y-58930608D01*
X82949679Y-58921128D01*
X82918383Y-58908664D01*
X82894158Y-58894803D01*
X82873905Y-58878526D01*
X82858626Y-58861192D01*
X82846841Y-58841789D01*
X82833950Y-58797761D01*
X82832603Y-58775758D01*
X82834518Y-58751166D01*
X82840107Y-58730211D01*
X82848421Y-58713899D01*
X82859536Y-58700659D01*
X82862706Y-58697844D01*
X82892160Y-58683209D01*
X82931540Y-58681795D01*
X82943368Y-58683800D01*
X82951550Y-58685510D01*
X82951550Y-58523760D01*
X82937872Y-58520890D01*
X82898972Y-58514824D01*
X82862877Y-58513369D01*
X82832582Y-58516089D01*
X82804720Y-58522700D01*
X82781001Y-58532393D01*
X82759485Y-58545530D01*
X82747851Y-58554901D01*
X82729477Y-58573869D01*
X82713782Y-58595791D01*
X82690745Y-58648621D01*
X82679136Y-58716215D01*
X82678120Y-58746327D01*
X82680063Y-58787809D01*
X82685850Y-58827141D01*
X82695121Y-58863430D01*
X82707917Y-58897769D01*
X82743682Y-58960541D01*
X82753286Y-58973289D01*
X82800008Y-59019942D01*
X82860397Y-59057865D01*
X82937368Y-59087323D01*
X82982996Y-59098586D01*
X83118367Y-59126735D01*
X83166704Y-59134794D01*
X83210909Y-59137969D01*
X83246982Y-59136625D01*
X83279618Y-59131281D01*
X83306252Y-59122927D01*
X83329965Y-59111217D01*
X83349420Y-59097242D01*
G37*
G36*
X82934735Y-57809184D02*
G01*
X82982996Y-57817227D01*
X83118367Y-57845376D01*
X83162431Y-57856186D01*
X83240954Y-57885837D01*
X83302481Y-57923788D01*
X83349420Y-57969634D01*
X83357736Y-57980409D01*
X83377187Y-58010078D01*
X83393221Y-58041740D01*
X83406124Y-58076254D01*
X83415427Y-58112748D01*
X83421289Y-58152809D01*
X83423243Y-58194887D01*
X83421615Y-58233143D01*
X83408968Y-58298716D01*
X83385027Y-58350216D01*
X83368676Y-58371905D01*
X83349420Y-58390892D01*
X83329965Y-58404866D01*
X83306252Y-58416576D01*
X83279618Y-58424930D01*
X83246982Y-58430274D01*
X83210909Y-58431619D01*
X83166704Y-58428443D01*
X83118367Y-58420385D01*
X82982996Y-58392236D01*
X82937368Y-58380972D01*
X82860397Y-58351515D01*
X82800008Y-58313591D01*
X82753286Y-58266939D01*
X82743682Y-58254191D01*
X82707917Y-58191419D01*
X82695121Y-58157079D01*
X82685850Y-58120791D01*
X82680063Y-58081458D01*
X82679624Y-58072094D01*
X82832603Y-58072094D01*
X82833733Y-58091976D01*
X82846143Y-58135550D01*
X82857735Y-58154795D01*
X82872852Y-58171987D01*
X82893091Y-58188232D01*
X82917382Y-58202080D01*
X82949095Y-58214653D01*
X82985744Y-58224257D01*
X83116962Y-58251552D01*
X83167675Y-58258061D01*
X83212271Y-58253328D01*
X83242594Y-58237472D01*
X83253953Y-58224897D01*
X83262318Y-58209342D01*
X83268152Y-58188125D01*
X83270102Y-58163075D01*
X83269175Y-58145330D01*
X83257252Y-58102217D01*
X83245851Y-58083125D01*
X83230892Y-58066060D01*
X83210667Y-58049836D01*
X83186307Y-58035983D01*
X83154187Y-58023286D01*
X83116962Y-58013537D01*
X82985744Y-57986243D01*
X82935731Y-57979665D01*
X82890559Y-57983969D01*
X82860099Y-57999328D01*
X82848747Y-58011560D01*
X82840388Y-58026738D01*
X82834554Y-58047509D01*
X82832603Y-58072094D01*
X82679624Y-58072094D01*
X82678120Y-58039976D01*
X82679956Y-58000849D01*
X82693230Y-57936108D01*
X82717809Y-57885087D01*
X82734188Y-57863971D01*
X82753286Y-57845681D01*
X82771841Y-57832630D01*
X82795602Y-57820981D01*
X82822290Y-57812653D01*
X82854782Y-57807355D01*
X82890764Y-57806022D01*
X82934735Y-57809184D01*
G37*
G36*
X82687706Y-57605651D02*
G01*
X83415000Y-57756838D01*
X83415000Y-57586967D01*
X82961136Y-57492628D01*
X82932188Y-57484600D01*
X82906828Y-57473323D01*
X82886586Y-57460010D01*
X82869406Y-57443915D01*
X82866797Y-57440910D01*
X82851652Y-57419874D01*
X82840717Y-57397351D01*
X82834699Y-57375627D01*
X82832604Y-57352592D01*
X82832603Y-57352249D01*
X82834557Y-57329358D01*
X82840419Y-57309688D01*
X82848998Y-57294781D01*
X82860718Y-57282446D01*
X82865393Y-57278854D01*
X82898086Y-57265410D01*
X82943315Y-57264940D01*
X82961136Y-57267986D01*
X83415000Y-57362324D01*
X83415000Y-57192515D01*
X82957045Y-57097321D01*
X82930765Y-57089875D01*
X82907026Y-57079106D01*
X82867666Y-57048663D01*
X82866797Y-57047740D01*
X82852885Y-57030008D01*
X82842663Y-57010679D01*
X82832899Y-56967491D01*
X82832603Y-56957736D01*
X82834557Y-56934838D01*
X82840419Y-56915159D01*
X82848989Y-56900274D01*
X82860695Y-56887988D01*
X82865393Y-56884402D01*
X82898086Y-56870957D01*
X82943315Y-56870488D01*
X82961136Y-56873533D01*
X83415000Y-56967872D01*
X83415000Y-56798001D01*
X82940620Y-56699389D01*
X82899466Y-56692819D01*
X82861423Y-56690890D01*
X82829442Y-56693194D01*
X82800121Y-56699386D01*
X82775206Y-56708671D01*
X82752657Y-56721353D01*
X82749194Y-56723752D01*
X82729583Y-56740168D01*
X82713041Y-56759332D01*
X82690019Y-56804407D01*
X82678950Y-56862009D01*
X82678120Y-56885501D01*
X82680066Y-56919295D01*
X82685870Y-56952514D01*
X82709075Y-57017445D01*
X82748493Y-57080865D01*
X82769711Y-57106480D01*
X82746971Y-57119589D01*
X82727397Y-57135501D01*
X82711589Y-57153430D01*
X82698784Y-57173898D01*
X82682265Y-57222699D01*
X82678120Y-57269268D01*
X82685936Y-57328840D01*
X82698636Y-57365866D01*
X82715096Y-57399533D01*
X82735128Y-57430842D01*
X82753286Y-57453488D01*
X82687706Y-57439872D01*
X82687706Y-57605651D01*
G37*
D11*
X73900000Y-54100000D02*
G75*
G02*
X73500000Y-54100000I-200000J0D01*
G01*
X73500000Y-54100000D02*
G75*
G02*
X73900000Y-54100000I200000J0D01*
G01*
X75500000Y-54800000D02*
G75*
G02*
X75100000Y-54800000I-200000J0D01*
G01*
X75100000Y-54800000D02*
G75*
G02*
X75500000Y-54800000I200000J0D01*
G01*
D12*
X64600000Y-51200000D02*
G75*
G02*
X64600001Y-54800001I1900000J-1800000D01*
G01*
D11*
X73500000Y-54800000D02*
G75*
G02*
X73100000Y-54800000I-200000J0D01*
G01*
X73100000Y-54800000D02*
G75*
G02*
X73500000Y-54800000I200000J0D01*
G01*
X72300000Y-54800000D02*
G75*
G02*
X71900000Y-54800000I-200000J0D01*
G01*
X71900000Y-54800000D02*
G75*
G02*
X72300000Y-54800000I200000J0D01*
G01*
X74300000Y-54800000D02*
G75*
G02*
X73900000Y-54800000I-200000J0D01*
G01*
X73900000Y-54800000D02*
G75*
G02*
X74300000Y-54800000I200000J0D01*
G01*
D10*
G36*
X64752168Y-61997739D02*
G01*
X65515000Y-62156314D01*
X65515000Y-61977101D01*
X64548408Y-61776150D01*
X64548408Y-61955363D01*
X64671446Y-62140072D01*
X64869710Y-62181288D01*
X64752168Y-61997739D01*
G37*
G36*
X64842355Y-61686391D02*
G01*
X65041962Y-61727851D01*
X65041962Y-61538013D01*
X64842355Y-61496553D01*
X64842355Y-61686391D01*
G37*
G36*
X65316796Y-61785004D02*
G01*
X65515000Y-61826220D01*
X65515000Y-61636382D01*
X65316796Y-61595166D01*
X65316796Y-61785004D01*
G37*
G36*
X64752168Y-61211277D02*
G01*
X65515000Y-61369852D01*
X65515000Y-61190639D01*
X64548408Y-60989688D01*
X64548408Y-61168901D01*
X64671446Y-61353610D01*
X64869710Y-61394826D01*
X64752168Y-61211277D01*
G37*
G36*
X65141796Y-60643291D02*
G01*
X65198176Y-60653016D01*
X65250059Y-60657819D01*
X65293453Y-60657913D01*
X65333119Y-60653921D01*
X65366327Y-60646644D01*
X65396386Y-60635916D01*
X65421788Y-60622680D01*
X65444412Y-60606397D01*
X65480542Y-60565913D01*
X65506482Y-60512971D01*
X65522095Y-60444449D01*
X65525990Y-60379447D01*
X65524032Y-60331744D01*
X65518135Y-60286482D01*
X65508864Y-60245750D01*
X65495989Y-60207205D01*
X65480076Y-60171976D01*
X65460741Y-60138779D01*
X65442581Y-60113406D01*
X65417774Y-60084811D01*
X65390335Y-60059248D01*
X65328349Y-60017645D01*
X65254246Y-59987052D01*
X65204689Y-59974310D01*
X65195102Y-59972356D01*
X65195102Y-60148882D01*
X65206032Y-60151141D01*
X65236785Y-60159531D01*
X65264810Y-60171343D01*
X65288589Y-60185632D01*
X65309455Y-60202891D01*
X65320887Y-60215133D01*
X65346574Y-60257538D01*
X65360085Y-60310191D01*
X65361920Y-60341346D01*
X65359966Y-60372217D01*
X65354105Y-60398796D01*
X65345679Y-60418747D01*
X65334205Y-60435438D01*
X65308614Y-60455956D01*
X65266812Y-60469658D01*
X65206172Y-60471839D01*
X65139049Y-60462185D01*
X64929855Y-60418709D01*
X64879969Y-60406381D01*
X64836610Y-60391649D01*
X64801531Y-60375722D01*
X64771976Y-60357997D01*
X64750764Y-60341346D01*
X64733315Y-60323067D01*
X64719264Y-60302613D01*
X64701319Y-60255725D01*
X64696114Y-60205608D01*
X64698056Y-60175676D01*
X64703833Y-60149395D01*
X64712382Y-60128663D01*
X64724003Y-60111060D01*
X64739834Y-60095698D01*
X64774890Y-60078362D01*
X64820014Y-60073791D01*
X64857437Y-60078662D01*
X64865619Y-60080372D01*
X64865619Y-59901220D01*
X64856032Y-59899205D01*
X64811822Y-59892032D01*
X64770621Y-59889532D01*
X64735783Y-59891368D01*
X64703475Y-59897168D01*
X64675696Y-59906170D01*
X64650142Y-59918683D01*
X64619544Y-59940909D01*
X64599012Y-59961799D01*
X64581284Y-59985430D01*
X64554179Y-60041275D01*
X64538335Y-60110706D01*
X64534731Y-60170681D01*
X64536685Y-60218727D01*
X64542547Y-60264053D01*
X64551744Y-60304626D01*
X64564473Y-60342743D01*
X64580130Y-60377249D01*
X64599087Y-60409467D01*
X64646182Y-60466348D01*
X64706748Y-60514745D01*
X64782827Y-60555147D01*
X64877309Y-60587171D01*
X64920329Y-60597251D01*
X65141796Y-60643291D01*
G37*
G36*
X65515000Y-59315953D02*
G01*
X65327726Y-59334515D01*
X65327726Y-59659481D01*
X65515000Y-59755956D01*
X65515000Y-59944512D01*
X64548408Y-59407910D01*
X64548408Y-59388798D01*
X64804070Y-59388798D01*
X65174586Y-59579552D01*
X65174586Y-59350819D01*
X64804070Y-59388798D01*
X64548408Y-59388798D01*
X64548408Y-59260815D01*
X65515000Y-59126115D01*
X65515000Y-59315953D01*
G37*
G36*
X64777522Y-58213312D02*
G01*
X64817747Y-58219669D01*
X64819255Y-58219986D01*
X64881013Y-58241162D01*
X64936693Y-58276455D01*
X64981474Y-58321439D01*
X65000960Y-58349403D01*
X65017355Y-58380259D01*
X65024887Y-58366541D01*
X65040020Y-58345614D01*
X65057702Y-58327969D01*
X65079392Y-58312456D01*
X65103511Y-58300452D01*
X65109948Y-58297999D01*
X65136363Y-58291025D01*
X65165105Y-58287978D01*
X65199954Y-58289106D01*
X65237479Y-58294896D01*
X65263744Y-58301153D01*
X65335520Y-58327989D01*
X65394785Y-58365583D01*
X65442581Y-58413781D01*
X65450309Y-58424015D01*
X65469406Y-58453823D01*
X65485214Y-58485878D01*
X65497989Y-58521054D01*
X65507232Y-58558448D01*
X65513052Y-58599494D01*
X65515000Y-58642759D01*
X65515000Y-59022556D01*
X64548408Y-58821605D01*
X64548408Y-58503174D01*
X64708387Y-58503174D01*
X64708387Y-58674327D01*
X64943532Y-58723176D01*
X64943532Y-58574615D01*
X65103511Y-58574615D01*
X65103511Y-58756454D01*
X65355081Y-58808783D01*
X65355081Y-58626944D01*
X65354362Y-58608550D01*
X65343795Y-58560949D01*
X65320887Y-58523507D01*
X65318487Y-58520867D01*
X65300466Y-58504429D01*
X65279659Y-58490893D01*
X65254153Y-58479581D01*
X65225205Y-58471544D01*
X65208641Y-58468819D01*
X65166701Y-58470239D01*
X65134958Y-58484856D01*
X65131242Y-58487954D01*
X65119946Y-58501305D01*
X65111708Y-58518128D01*
X65105513Y-58543769D01*
X65103511Y-58574615D01*
X64943532Y-58574615D01*
X64943532Y-58552022D01*
X64943308Y-58541255D01*
X64934634Y-58491333D01*
X64913490Y-58452188D01*
X64911458Y-58449705D01*
X64895572Y-58433645D01*
X64877199Y-58420578D01*
X64854603Y-58409881D01*
X64828677Y-58402485D01*
X64811107Y-58399596D01*
X64770284Y-58401120D01*
X64753896Y-58406954D01*
X64739834Y-58416101D01*
X64735292Y-58420241D01*
X64724251Y-58434219D01*
X64716047Y-58451550D01*
X64710322Y-58475111D01*
X64708387Y-58503174D01*
X64548408Y-58503174D01*
X64548408Y-58456523D01*
X64549685Y-58421420D01*
X64561754Y-58352278D01*
X64585094Y-58298248D01*
X64600954Y-58275705D01*
X64619544Y-58256061D01*
X64635557Y-58243148D01*
X64657438Y-58230183D01*
X64681505Y-58220643D01*
X64709718Y-58214204D01*
X64740483Y-58211647D01*
X64777522Y-58213312D01*
G37*
G36*
X64548408Y-57985318D02*
G01*
X65515000Y-58186269D01*
X65515000Y-57592575D01*
X65355081Y-57559358D01*
X65355081Y-57972495D01*
X64548408Y-57804761D01*
X64548408Y-57985318D01*
G37*
G36*
X64708387Y-57117035D02*
G01*
X64708387Y-56697181D01*
X64548408Y-56663903D01*
X64548408Y-57264313D01*
X65515000Y-57465264D01*
X65515000Y-56864854D01*
X65355081Y-56831637D01*
X65355081Y-57251490D01*
X65107602Y-57200016D01*
X65107602Y-56841712D01*
X64947623Y-56808434D01*
X64947623Y-57166738D01*
X64708387Y-57117035D01*
G37*
G36*
X65445329Y-56659201D02*
G01*
X65480644Y-56618001D01*
X65505720Y-56564286D01*
X65520279Y-56494931D01*
X65523243Y-56438711D01*
X65521277Y-56389636D01*
X65515332Y-56342998D01*
X65506047Y-56301403D01*
X65493122Y-56262050D01*
X65477302Y-56226556D01*
X65458049Y-56193186D01*
X65446673Y-56176700D01*
X65423230Y-56147980D01*
X65397123Y-56122287D01*
X65368904Y-56100044D01*
X65338076Y-56080746D01*
X65268110Y-56050934D01*
X65223801Y-56039435D01*
X65183901Y-56033132D01*
X65147051Y-56031465D01*
X65116112Y-56033995D01*
X65087697Y-56040394D01*
X65063346Y-56049914D01*
X65041208Y-56062849D01*
X65004217Y-56098128D01*
X64975002Y-56148151D01*
X64953666Y-56216911D01*
X64951775Y-56226281D01*
X64933946Y-56322879D01*
X64926048Y-56353816D01*
X64915567Y-56379276D01*
X64891570Y-56411600D01*
X64878052Y-56421329D01*
X64862486Y-56427551D01*
X64825143Y-56429439D01*
X64812313Y-56427293D01*
X64786711Y-56419990D01*
X64763817Y-56409261D01*
X64744559Y-56395881D01*
X64727760Y-56379411D01*
X64722065Y-56372399D01*
X64709039Y-56352111D01*
X64699292Y-56329416D01*
X64689661Y-56276165D01*
X64689275Y-56261330D01*
X64691281Y-56228250D01*
X64697502Y-56200435D01*
X64705817Y-56181860D01*
X64717248Y-56166814D01*
X64720722Y-56163511D01*
X64750926Y-56146996D01*
X64794291Y-56142000D01*
X64823243Y-56144704D01*
X64823243Y-55972207D01*
X64780727Y-55968454D01*
X64741374Y-55969070D01*
X64707888Y-55973514D01*
X64677098Y-55981678D01*
X64650529Y-55992789D01*
X64626363Y-56007212D01*
X64609958Y-56020079D01*
X64590502Y-56039721D01*
X64573991Y-56062020D01*
X64549748Y-56114710D01*
X64536671Y-56181770D01*
X64534731Y-56225182D01*
X64536675Y-56268793D01*
X64542466Y-56310503D01*
X64551799Y-56349440D01*
X64564701Y-56386478D01*
X64580943Y-56421255D01*
X64600575Y-56454092D01*
X64614049Y-56472966D01*
X64638649Y-56502071D01*
X64665705Y-56527862D01*
X64694315Y-56549675D01*
X64725333Y-56568349D01*
X64794521Y-56596148D01*
X64825990Y-56603941D01*
X64864665Y-56609983D01*
X64900480Y-56611428D01*
X64930704Y-56608717D01*
X64958532Y-56602148D01*
X64982522Y-56592435D01*
X65004386Y-56579291D01*
X65041181Y-56543376D01*
X65070455Y-56492340D01*
X65091966Y-56422118D01*
X65095329Y-56404578D01*
X65110350Y-56318055D01*
X65117425Y-56286305D01*
X65127519Y-56260456D01*
X65138378Y-56243283D01*
X65151383Y-56230372D01*
X65181505Y-56216956D01*
X65223144Y-56216384D01*
X65238883Y-56219076D01*
X65266643Y-56226836D01*
X65290989Y-56237902D01*
X65310446Y-56251088D01*
X65326989Y-56267136D01*
X65350906Y-56306852D01*
X65363945Y-56359865D01*
X65366011Y-56396640D01*
X65364057Y-56433017D01*
X65358196Y-56463799D01*
X65350016Y-56485819D01*
X65338940Y-56503684D01*
X65333222Y-56510152D01*
X65303833Y-56528727D01*
X65259600Y-56537149D01*
X65221114Y-56536347D01*
X65221114Y-56706157D01*
X65266391Y-56710528D01*
X65307972Y-56710410D01*
X65342680Y-56706384D01*
X65374429Y-56698612D01*
X65401500Y-56687936D01*
X65426064Y-56673962D01*
X65445329Y-56659201D01*
G37*
D13*
G36*
X69834433Y-60803923D02*
G01*
X69923924Y-60810872D01*
X69994421Y-60828177D01*
X70049603Y-60854284D01*
X70092331Y-60888788D01*
X70116198Y-60917572D01*
X70132962Y-60944165D01*
X70146831Y-60973015D01*
X70158225Y-61005494D01*
X70166464Y-61040316D01*
X70171741Y-61079572D01*
X70173500Y-61121301D01*
X70173500Y-61422782D01*
X69303568Y-61422782D01*
X69303568Y-61117619D01*
X69447549Y-61117619D01*
X69447549Y-61256655D01*
X70029573Y-61256655D01*
X70029573Y-61117619D01*
X70024175Y-61072115D01*
X70007818Y-61034598D01*
X69995489Y-61019044D01*
X69980334Y-61005677D01*
X69960994Y-60993774D01*
X69935865Y-60983396D01*
X69906589Y-60975781D01*
X69868581Y-60970506D01*
X69825307Y-60968747D01*
X69657970Y-60968747D01*
X69594811Y-60972357D01*
X69537332Y-60985339D01*
X69497997Y-61005677D01*
X69473331Y-61029953D01*
X69462462Y-61047442D01*
X69454525Y-61067212D01*
X69449300Y-61091055D01*
X69447549Y-61117619D01*
X69303568Y-61117619D01*
X69303568Y-61116410D01*
X69306977Y-61059311D01*
X69321849Y-60992199D01*
X69347709Y-60935538D01*
X69364848Y-60910449D01*
X69384790Y-60887524D01*
X69420582Y-60858035D01*
X69447314Y-60842613D01*
X69477215Y-60829748D01*
X69512714Y-60818840D01*
X69551901Y-60810887D01*
X69598427Y-60805638D01*
X69649342Y-60803883D01*
X69826516Y-60803883D01*
X69834433Y-60803923D01*
G37*
G36*
X69486951Y-60549388D02*
G01*
X70173500Y-60549388D01*
X70173500Y-60384469D01*
X69303568Y-60384469D01*
X69303568Y-60549388D01*
X69414301Y-60695787D01*
X69592739Y-60695787D01*
X69486951Y-60549388D01*
G37*
G36*
X80673500Y-61059752D02*
G01*
X80320361Y-61224616D01*
X80320361Y-61347660D01*
X80673500Y-61347660D01*
X80673500Y-61513787D01*
X79803568Y-61513787D01*
X79803568Y-61191423D01*
X79947549Y-61191423D01*
X79947549Y-61347660D01*
X80183799Y-61347660D01*
X80183799Y-61191423D01*
X80182821Y-61171422D01*
X80172827Y-61131088D01*
X80153024Y-61101573D01*
X80145841Y-61095091D01*
X80129637Y-61084368D01*
X80110901Y-61076495D01*
X80088323Y-61071332D01*
X80063228Y-61069589D01*
X80049225Y-61070196D01*
X80011065Y-61079962D01*
X79994323Y-61089782D01*
X79979532Y-61102837D01*
X79973123Y-61110217D01*
X79962356Y-61126434D01*
X79954455Y-61144715D01*
X79949291Y-61166645D01*
X79947549Y-61191423D01*
X79803568Y-61191423D01*
X79803568Y-61182796D01*
X79804865Y-61149123D01*
X79816512Y-61082963D01*
X79839429Y-61027160D01*
X79855162Y-61002426D01*
X79873745Y-60979793D01*
X79891701Y-60962357D01*
X79913881Y-60945374D01*
X79937977Y-60931376D01*
X79964963Y-60920007D01*
X79994044Y-60911795D01*
X80027417Y-60906488D01*
X80063228Y-60904725D01*
X80104822Y-60907140D01*
X80161591Y-60920276D01*
X80208418Y-60944073D01*
X80230743Y-60961565D01*
X80250574Y-60981567D01*
X80267983Y-61004171D01*
X80283223Y-61029992D01*
X80295796Y-61058543D01*
X80673500Y-60869005D01*
X80673500Y-61059752D01*
G37*
G36*
X80543092Y-60772010D02*
G01*
X80673500Y-60772010D01*
X80673500Y-60267526D01*
X80528309Y-60267526D01*
X80528309Y-60564061D01*
X80247766Y-60347540D01*
X80213467Y-60322979D01*
X80179452Y-60302834D01*
X80149342Y-60288464D01*
X80120014Y-60278025D01*
X80089171Y-60271057D01*
X80044763Y-60267526D01*
X80023826Y-60267526D01*
X79992964Y-60269303D01*
X79963408Y-60274707D01*
X79936712Y-60283238D01*
X79911196Y-60295194D01*
X79905728Y-60298301D01*
X79883097Y-60313588D01*
X79862885Y-60331437D01*
X79828534Y-60375647D01*
X79822032Y-60386888D01*
X79809416Y-60413617D01*
X79799874Y-60442223D01*
X79790380Y-60504818D01*
X79790049Y-60519768D01*
X79791777Y-60554589D01*
X79796837Y-60587575D01*
X79805055Y-60618480D01*
X79816241Y-60647011D01*
X79820823Y-60656385D01*
X79835988Y-60681919D01*
X79853718Y-60704580D01*
X79873033Y-60723464D01*
X79894826Y-60739760D01*
X79903255Y-60744972D01*
X79953487Y-60766327D01*
X80010867Y-60775416D01*
X80025090Y-60775747D01*
X80054600Y-60775747D01*
X80054600Y-60615774D01*
X80034927Y-60615774D01*
X80010439Y-60614037D01*
X79988971Y-60608919D01*
X79971910Y-60601354D01*
X79957386Y-60591154D01*
X79945800Y-60578776D01*
X79937512Y-60564497D01*
X79930434Y-60530748D01*
X79930348Y-60525923D01*
X79932108Y-60504984D01*
X79937398Y-60486570D01*
X79945301Y-60471988D01*
X79956154Y-60459504D01*
X79956177Y-60459483D01*
X79985488Y-60441846D01*
X80025337Y-60434899D01*
X80028772Y-60434863D01*
X80045972Y-60434863D01*
X80090871Y-60441900D01*
X80140213Y-60464365D01*
X80167807Y-60482893D01*
X80543092Y-60772010D01*
G37*
G36*
X80673500Y-57768747D02*
G01*
X80320361Y-57933611D01*
X80320361Y-58056655D01*
X80673500Y-58056655D01*
X80673500Y-58222782D01*
X79803568Y-58222782D01*
X79803568Y-57900418D01*
X79947549Y-57900418D01*
X79947549Y-58056655D01*
X80183799Y-58056655D01*
X80183799Y-57900418D01*
X80182821Y-57880417D01*
X80172827Y-57840083D01*
X80153024Y-57810568D01*
X80145841Y-57804086D01*
X80129637Y-57793363D01*
X80110901Y-57785490D01*
X80088323Y-57780327D01*
X80063228Y-57778584D01*
X80049225Y-57779191D01*
X80011065Y-57788957D01*
X79994323Y-57798777D01*
X79979532Y-57811832D01*
X79973123Y-57819212D01*
X79962356Y-57835429D01*
X79954455Y-57853710D01*
X79949291Y-57875640D01*
X79947549Y-57900418D01*
X79803568Y-57900418D01*
X79803568Y-57891791D01*
X79804865Y-57858118D01*
X79816512Y-57791958D01*
X79839429Y-57736155D01*
X79855162Y-57711421D01*
X79873745Y-57688788D01*
X79891701Y-57671352D01*
X79913881Y-57654369D01*
X79937977Y-57640371D01*
X79964963Y-57629002D01*
X79994044Y-57620790D01*
X80027417Y-57615483D01*
X80063228Y-57613720D01*
X80104822Y-57616135D01*
X80161591Y-57629271D01*
X80208418Y-57653068D01*
X80230743Y-57670560D01*
X80250574Y-57690562D01*
X80267983Y-57713166D01*
X80283223Y-57738987D01*
X80295796Y-57767538D01*
X80673500Y-57578000D01*
X80673500Y-57768747D01*
G37*
G36*
X79986951Y-57349388D02*
G01*
X80673500Y-57349388D01*
X80673500Y-57184469D01*
X79803568Y-57184469D01*
X79803568Y-57349388D01*
X79914301Y-57495787D01*
X80092739Y-57495787D01*
X79986951Y-57349388D01*
G37*
D10*
G36*
X67547549Y-60410493D02*
G01*
X67547549Y-60024161D01*
X67403568Y-60024161D01*
X67403568Y-60576620D01*
X68273500Y-60576620D01*
X68273500Y-60410493D01*
X67914206Y-60410493D01*
X67914206Y-60079501D01*
X67770280Y-60079501D01*
X67770280Y-60410493D01*
X67547549Y-60410493D01*
G37*
G36*
X67586951Y-59795550D02*
G01*
X68273500Y-59795550D01*
X68273500Y-59630631D01*
X67403568Y-59630631D01*
X67403568Y-59795550D01*
X67514301Y-59941949D01*
X67692739Y-59941949D01*
X67586951Y-59795550D01*
G37*
D13*
G36*
X78121418Y-61843989D02*
G01*
X78153030Y-61858197D01*
X78185881Y-61868972D01*
X78254393Y-61880107D01*
X78280182Y-61880918D01*
X78318137Y-61879160D01*
X78354604Y-61873884D01*
X78388417Y-61865427D01*
X78420695Y-61853673D01*
X78441364Y-61843989D01*
X78469634Y-61827499D01*
X78495149Y-61808438D01*
X78517285Y-61787472D01*
X78536950Y-61763978D01*
X78553306Y-61739410D01*
X78568155Y-61710991D01*
X78579636Y-61681294D01*
X78592425Y-61618705D01*
X78593918Y-61586801D01*
X78593918Y-61003568D01*
X78427845Y-61003568D01*
X78427845Y-61580701D01*
X78426060Y-61611476D01*
X78420605Y-61639294D01*
X78412625Y-61661244D01*
X78401565Y-61680660D01*
X78388442Y-61696326D01*
X78371808Y-61710497D01*
X78353185Y-61721636D01*
X78310441Y-61734730D01*
X78280182Y-61736937D01*
X78253008Y-61735178D01*
X78228406Y-61729899D01*
X78207944Y-61721884D01*
X78189675Y-61710856D01*
X78173130Y-61696326D01*
X78150543Y-61662674D01*
X78137649Y-61617971D01*
X78134991Y-61580701D01*
X78134991Y-61003568D01*
X77968864Y-61003568D01*
X77968864Y-61586801D01*
X77970623Y-61621372D01*
X77975902Y-61654409D01*
X77984367Y-61684992D01*
X77996135Y-61714265D01*
X78009475Y-61739410D01*
X78027226Y-61765835D01*
X78047494Y-61789574D01*
X78094652Y-61828487D01*
X78121418Y-61843989D01*
G37*
G36*
X78858964Y-61186951D02*
G01*
X78858964Y-61873500D01*
X79023883Y-61873500D01*
X79023883Y-61003568D01*
X78858964Y-61003568D01*
X78712565Y-61114301D01*
X78712565Y-61292739D01*
X78858964Y-61186951D01*
G37*
D10*
G36*
X79003832Y-56228309D02*
G01*
X79003832Y-56373500D01*
X79109675Y-56373500D01*
X79143036Y-56371741D01*
X79173578Y-56366463D01*
X79199328Y-56358428D01*
X79222585Y-56347367D01*
X79256074Y-56321842D01*
X79271390Y-56304038D01*
X79284025Y-56283937D01*
X79301365Y-56236317D01*
X79307786Y-56174179D01*
X79307786Y-55503568D01*
X79141658Y-55503568D01*
X79141658Y-56147141D01*
X79139853Y-56175106D01*
X79134247Y-56196130D01*
X79125667Y-56209900D01*
X79115690Y-56218243D01*
X79102955Y-56224091D01*
X79071536Y-56228309D01*
X79003832Y-56228309D01*
G37*
G36*
X79580911Y-55686951D02*
G01*
X79580911Y-56373500D01*
X79745830Y-56373500D01*
X79745830Y-55503568D01*
X79580911Y-55503568D01*
X79434512Y-55614301D01*
X79434512Y-55792739D01*
X79580911Y-55686951D01*
G37*
D13*
G36*
X76212827Y-58128309D02*
G01*
X76212827Y-58273500D01*
X76318670Y-58273500D01*
X76352031Y-58271741D01*
X76382573Y-58266463D01*
X76408323Y-58258428D01*
X76431580Y-58247367D01*
X76465069Y-58221842D01*
X76480385Y-58204038D01*
X76493020Y-58183937D01*
X76510360Y-58136317D01*
X76516781Y-58074179D01*
X76516781Y-57403568D01*
X76350653Y-57403568D01*
X76350653Y-58047141D01*
X76348848Y-58075106D01*
X76343242Y-58096130D01*
X76334662Y-58109900D01*
X76324685Y-58118243D01*
X76311950Y-58124091D01*
X76280531Y-58128309D01*
X76212827Y-58128309D01*
G37*
G36*
X76658289Y-58143092D02*
G01*
X76658289Y-58273500D01*
X77162773Y-58273500D01*
X77162773Y-58128309D01*
X76866238Y-58128309D01*
X77082759Y-57847766D01*
X77107320Y-57813467D01*
X77127465Y-57779452D01*
X77141835Y-57749342D01*
X77152274Y-57720014D01*
X77159243Y-57689171D01*
X77162773Y-57644763D01*
X77162773Y-57623826D01*
X77160996Y-57592964D01*
X77155592Y-57563408D01*
X77147061Y-57536712D01*
X77135105Y-57511196D01*
X77131998Y-57505728D01*
X77116711Y-57483097D01*
X77098862Y-57462885D01*
X77054652Y-57428534D01*
X77043412Y-57422032D01*
X77016682Y-57409416D01*
X76988076Y-57399874D01*
X76925481Y-57390380D01*
X76910531Y-57390049D01*
X76875710Y-57391777D01*
X76842724Y-57396837D01*
X76811819Y-57405055D01*
X76783289Y-57416241D01*
X76773914Y-57420823D01*
X76748380Y-57435988D01*
X76725719Y-57453718D01*
X76706835Y-57473033D01*
X76690539Y-57494826D01*
X76685327Y-57503255D01*
X76663972Y-57553487D01*
X76654883Y-57610867D01*
X76654553Y-57625090D01*
X76654553Y-57654600D01*
X76814526Y-57654600D01*
X76814526Y-57634927D01*
X76816262Y-57610439D01*
X76821381Y-57588971D01*
X76828945Y-57571910D01*
X76839145Y-57557386D01*
X76851523Y-57545800D01*
X76865803Y-57537512D01*
X76899551Y-57530434D01*
X76904376Y-57530348D01*
X76925315Y-57532108D01*
X76943729Y-57537398D01*
X76958311Y-57545301D01*
X76970795Y-57556154D01*
X76970817Y-57556177D01*
X76988454Y-57585488D01*
X76995400Y-57625337D01*
X76995436Y-57628772D01*
X76995436Y-57645972D01*
X76988399Y-57690871D01*
X76965934Y-57740213D01*
X76947406Y-57767807D01*
X76658289Y-58143092D01*
G37*
D14*
%TO.C,D1*%
X69200000Y-59800000D02*
X69200000Y-57840000D01*
X70400000Y-57840000D02*
X69200000Y-57840000D01*
X70400000Y-59800000D02*
X70400000Y-57840000D01*
%TO.C,R2*%
X81077500Y-60662742D02*
X81077500Y-61137258D01*
X82122500Y-60662742D02*
X82122500Y-61137258D01*
%TO.C,R1*%
X81077500Y-57937258D02*
X81077500Y-57462742D01*
X82122500Y-57937258D02*
X82122500Y-57462742D01*
%TO.C,F1*%
X67190000Y-57641422D02*
X67190000Y-58158578D01*
X68610000Y-57641422D02*
X68610000Y-58158578D01*
%TO.C,U1*%
X78000000Y-57890000D02*
X79000000Y-57890000D01*
X78000000Y-60710000D02*
X78790000Y-60710000D01*
X79120000Y-60990000D02*
X79120000Y-60710000D01*
X79400000Y-60710000D01*
X79120000Y-60990000D01*
G36*
X79120000Y-60990000D02*
G01*
X79120000Y-60710000D01*
X79400000Y-60710000D01*
X79120000Y-60990000D01*
G37*
%TO.C,J2*%
X70890000Y-58640000D02*
X71940000Y-58640000D01*
X70890000Y-61140000D02*
X70890000Y-58640000D01*
X71940000Y-58640000D02*
X71940000Y-57650000D01*
X72060000Y-63110000D02*
X75940000Y-63110000D01*
X77110000Y-58640000D02*
X76060000Y-58640000D01*
X77110000Y-61140000D02*
X77110000Y-58640000D01*
%TD*%
%LPC*%
D15*
X82812500Y-53000000D02*
G75*
G02*
X80187500Y-53000000I-1312500J0D01*
G01*
X80187500Y-53000000D02*
G75*
G02*
X82812500Y-53000000I1312500J0D01*
G01*
D16*
%TO.C,D1*%
X69800000Y-58400000D03*
X69800000Y-59800000D03*
%TD*%
D17*
%TO.C,R2*%
X81600000Y-60075000D03*
X81600000Y-61725000D03*
%TD*%
D18*
%TO.C,R1*%
X81600000Y-58525000D03*
X81600000Y-56875000D03*
%TD*%
D19*
%TO.C,MH1*%
X81500000Y-53000000D03*
%TD*%
%TO.C,MH2*%
X66500000Y-53000000D03*
%TD*%
D20*
%TO.C,F1*%
X67900000Y-56962500D03*
X67900000Y-58837500D03*
%TD*%
D21*
%TO.C,U1*%
X78885000Y-60300000D03*
X78885000Y-59800000D03*
X78885000Y-59300000D03*
X78885000Y-58800000D03*
X78885000Y-58300000D03*
X78115000Y-58300000D03*
X78115000Y-58800000D03*
X78115000Y-59300000D03*
X78115000Y-59800000D03*
X78115000Y-60300000D03*
%TD*%
D22*
%TO.C,J1*%
X76890000Y-54880000D03*
X71110000Y-54880000D03*
D23*
X77200000Y-55950000D03*
X76400000Y-55950000D03*
D24*
X75250000Y-55950000D03*
X74250000Y-55950000D03*
X73750000Y-55950000D03*
X72750000Y-55950000D03*
D23*
X71600000Y-55950000D03*
X70800000Y-55950000D03*
D24*
X72250000Y-55950000D03*
X73250000Y-55950000D03*
X74750000Y-55950000D03*
X75750000Y-55950000D03*
D25*
X78320000Y-55380000D03*
D26*
X78320000Y-51200000D03*
D25*
X69680000Y-55380000D03*
D26*
X69680000Y-51200000D03*
%TD*%
D27*
%TO.C,J2*%
X72500000Y-58475000D03*
X73500000Y-58475000D03*
X74500000Y-58475000D03*
X75500000Y-58475000D03*
D28*
X71200000Y-62300000D03*
X76800000Y-62300000D03*
%TD*%
%LPD*%
M02*
