%TF.GenerationSoftware,KiCad,Pcbnew,9.0.6*%
%TF.CreationDate,2025-12-29T07:21:27+09:00*%
%TF.ProjectId,muon,6d756f6e-2e6b-4696-9361-645f70636258,rev?*%
%TF.SameCoordinates,Original*%
%TF.FileFunction,Copper,L2,Bot*%
%TF.FilePolarity,Positive*%
%FSLAX46Y46*%
G04 Gerber Fmt 4.6, Leading zero omitted, Abs format (unit mm)*
G04 Created by KiCad (PCBNEW 9.0.6) date 2025-12-29 07:21:27*
%MOMM*%
%LPD*%
G01*
G04 APERTURE LIST*
%TA.AperFunction,ComponentPad*%
%ADD10O,1.000000X2.100000*%
%TD*%
%TA.AperFunction,ComponentPad*%
%ADD11O,1.000000X1.800000*%
%TD*%
%TA.AperFunction,ViaPad*%
%ADD12C,0.600000*%
%TD*%
%TA.AperFunction,ViaPad*%
%ADD13C,1.000000*%
%TD*%
%TA.AperFunction,Conductor*%
%ADD14C,0.400000*%
%TD*%
%TA.AperFunction,Conductor*%
%ADD15C,0.200000*%
%TD*%
G04 APERTURE END LIST*
D10*
%TO.P,J1,S1,SHIELD*%
%TO.N,GND*%
X78320000Y-55380000D03*
D11*
X78320000Y-51200000D03*
D10*
X69680000Y-55380000D03*
D11*
X69680000Y-51200000D03*
%TD*%
D12*
%TO.N,GND*%
X77900000Y-62000000D03*
X71500000Y-58400000D03*
X65600000Y-60700000D03*
D13*
X76500000Y-59000000D03*
D12*
X79400000Y-58000000D03*
X80700000Y-59800000D03*
X79100000Y-60350000D03*
X75500000Y-59100000D03*
X70300000Y-57400000D03*
X70100000Y-62000000D03*
X67200000Y-59800000D03*
D13*
%TO.N,VBUS*%
X76500000Y-57700000D03*
X71400000Y-57400000D03*
D12*
%TO.N,Net-(J1-CC2)*%
X65600000Y-57400000D03*
X72200000Y-54900000D03*
%TO.N,D-*%
X73900000Y-54900000D03*
X78500000Y-58050000D03*
%TO.N,D+*%
X73100000Y-54900000D03*
X77700000Y-58050000D03*
%TO.N,Net-(J1-CC1)*%
X81700000Y-57400000D03*
X75300000Y-54900000D03*
%TD*%
D14*
%TO.N,VBUS*%
X71400000Y-57400000D02*
X76200000Y-57400000D01*
X76200000Y-57400000D02*
X76500000Y-57700000D01*
D15*
%TO.N,Net-(J1-CC2)*%
X65600000Y-57400000D02*
X69400000Y-57400000D01*
X69400000Y-57400000D02*
X71100000Y-55700000D01*
X71500000Y-55700000D02*
X72200000Y-55000000D01*
X72200000Y-55000000D02*
X72200000Y-54900000D01*
X71100000Y-55700000D02*
X71500000Y-55700000D01*
%TO.N,D-*%
X73900000Y-55200000D02*
X73900000Y-54900000D01*
X77100000Y-56500000D02*
X75200000Y-56500000D01*
X75200000Y-56500000D02*
X73900000Y-55200000D01*
X78500000Y-58050000D02*
X78500000Y-57900000D01*
X78500000Y-57900000D02*
X77100000Y-56500000D01*
%TO.N,D+*%
X77700000Y-57700000D02*
X76900000Y-56900000D01*
X75000000Y-56900000D02*
X73100000Y-55000000D01*
X77700000Y-58050000D02*
X77700000Y-57700000D01*
X73100000Y-55000000D02*
X73100000Y-54900000D01*
X76900000Y-56900000D02*
X75000000Y-56900000D01*
%TO.N,Net-(J1-CC1)*%
X77300000Y-56100000D02*
X76500000Y-56100000D01*
X78600000Y-57400000D02*
X77300000Y-56100000D01*
X76500000Y-56100000D02*
X75300000Y-54900000D01*
X81700000Y-57400000D02*
X78600000Y-57400000D01*
%TD*%
%TA.AperFunction,Conductor*%
%TO.N,GND*%
G36*
X81925168Y-50501798D02*
G01*
X81928298Y-50501866D01*
X82151415Y-50510263D01*
X82157831Y-50510715D01*
X82358824Y-50531471D01*
X82368344Y-50532927D01*
X82557530Y-50571399D01*
X82566966Y-50573807D01*
X82660051Y-50602513D01*
X82668481Y-50605538D01*
X82781364Y-50651910D01*
X82789469Y-50655677D01*
X82863815Y-50694398D01*
X82870999Y-50698532D01*
X82948376Y-50747479D01*
X82956235Y-50752451D01*
X82961691Y-50756163D01*
X82992525Y-50778678D01*
X82997370Y-50782452D01*
X83065904Y-50839334D01*
X83071741Y-50844582D01*
X83134435Y-50905626D01*
X83139846Y-50911330D01*
X83194833Y-50974113D01*
X83199778Y-50980235D01*
X83252350Y-51050876D01*
X83256598Y-51057059D01*
X83290741Y-51111047D01*
X83295996Y-51120453D01*
X83372420Y-51276682D01*
X83377669Y-51289669D01*
X83433725Y-51462669D01*
X83436367Y-51472530D01*
X83456947Y-51569000D01*
X83458441Y-51578028D01*
X83488113Y-51828922D01*
X83488754Y-51837610D01*
X83499282Y-52192074D01*
X83499326Y-52194873D01*
X83499500Y-52318201D01*
X83499500Y-60680849D01*
X83499499Y-60681377D01*
X83498200Y-60925136D01*
X83498131Y-60928331D01*
X83489736Y-61151400D01*
X83489282Y-61157847D01*
X83468528Y-61358807D01*
X83467066Y-61368365D01*
X83428599Y-61557532D01*
X83426188Y-61566979D01*
X83397490Y-61660035D01*
X83394461Y-61668479D01*
X83348090Y-61781358D01*
X83344321Y-61789470D01*
X83305605Y-61863806D01*
X83301465Y-61871001D01*
X83247544Y-61956239D01*
X83243832Y-61961695D01*
X83221316Y-61992530D01*
X83217543Y-61997375D01*
X83160746Y-62065808D01*
X83160665Y-62065905D01*
X83155416Y-62071742D01*
X83094377Y-62134431D01*
X83088672Y-62139842D01*
X83025883Y-62194833D01*
X83019764Y-62199777D01*
X82949121Y-62252352D01*
X82942941Y-62256597D01*
X82888958Y-62290738D01*
X82879545Y-62295996D01*
X82723316Y-62372420D01*
X82710329Y-62377669D01*
X82537336Y-62433723D01*
X82527475Y-62436365D01*
X82430995Y-62456947D01*
X82421967Y-62458441D01*
X82171075Y-62488113D01*
X82162387Y-62488754D01*
X81807924Y-62499282D01*
X81805125Y-62499326D01*
X81681982Y-62499499D01*
X81681798Y-62499500D01*
X66319149Y-62499500D01*
X66318622Y-62499499D01*
X66314965Y-62499479D01*
X66074862Y-62498200D01*
X66071667Y-62498131D01*
X65848598Y-62489736D01*
X65842151Y-62489282D01*
X65641191Y-62468528D01*
X65631633Y-62467066D01*
X65442466Y-62428599D01*
X65433019Y-62426188D01*
X65339963Y-62397490D01*
X65331519Y-62394461D01*
X65218640Y-62348090D01*
X65210528Y-62344321D01*
X65136192Y-62305605D01*
X65128997Y-62301465D01*
X65043759Y-62247544D01*
X65038303Y-62243832D01*
X65007468Y-62221316D01*
X65002633Y-62217551D01*
X64934078Y-62160652D01*
X64928256Y-62155416D01*
X64865567Y-62094377D01*
X64860156Y-62088672D01*
X64805165Y-62025883D01*
X64800221Y-62019764D01*
X64755018Y-61959026D01*
X64747641Y-61949114D01*
X64743413Y-61942959D01*
X64709250Y-61888940D01*
X64704002Y-61879545D01*
X64700729Y-61872855D01*
X64627578Y-61723316D01*
X64622329Y-61710329D01*
X64566275Y-61537336D01*
X64563633Y-61527475D01*
X64543051Y-61430995D01*
X64541559Y-61421983D01*
X64511884Y-61171071D01*
X64511244Y-61162387D01*
X64511152Y-61159301D01*
X64500715Y-60807920D01*
X64500672Y-60805124D01*
X64500500Y-60681797D01*
X64500500Y-57334108D01*
X65099500Y-57334108D01*
X65099500Y-57465892D01*
X65129579Y-57578151D01*
X65133609Y-57593190D01*
X65199496Y-57707309D01*
X65199498Y-57707311D01*
X65199500Y-57707314D01*
X65292686Y-57800500D01*
X65292688Y-57800501D01*
X65292690Y-57800503D01*
X65406810Y-57866390D01*
X65406808Y-57866390D01*
X65406812Y-57866391D01*
X65406814Y-57866392D01*
X65534108Y-57900500D01*
X65534110Y-57900500D01*
X65665890Y-57900500D01*
X65665892Y-57900500D01*
X65793186Y-57866392D01*
X65793188Y-57866390D01*
X65793190Y-57866390D01*
X65907309Y-57800503D01*
X65907309Y-57800502D01*
X65907314Y-57800500D01*
X65978319Y-57729494D01*
X66032834Y-57701719D01*
X66048321Y-57700500D01*
X69439563Y-57700500D01*
X69439563Y-57700499D01*
X69515989Y-57680021D01*
X69584511Y-57640460D01*
X69640460Y-57584511D01*
X71195475Y-56029496D01*
X71249992Y-56001719D01*
X71265479Y-56000500D01*
X71539563Y-56000500D01*
X71539563Y-56000499D01*
X71615989Y-55980021D01*
X71684511Y-55940460D01*
X71740460Y-55884511D01*
X72195475Y-55429496D01*
X72249992Y-55401719D01*
X72265479Y-55400500D01*
X72265890Y-55400500D01*
X72265892Y-55400500D01*
X72393186Y-55366392D01*
X72393188Y-55366390D01*
X72393190Y-55366390D01*
X72507309Y-55300503D01*
X72507309Y-55300502D01*
X72507314Y-55300500D01*
X72579998Y-55227815D01*
X72634513Y-55200040D01*
X72694945Y-55209611D01*
X72720000Y-55227814D01*
X72792686Y-55300500D01*
X72792688Y-55300501D01*
X72792690Y-55300503D01*
X72906810Y-55366390D01*
X72906808Y-55366390D01*
X72906812Y-55366391D01*
X72906814Y-55366392D01*
X73034108Y-55400500D01*
X73034521Y-55400500D01*
X73034801Y-55400591D01*
X73040542Y-55401347D01*
X73040401Y-55402410D01*
X73092712Y-55419407D01*
X73104525Y-55429496D01*
X74505525Y-56830496D01*
X74533302Y-56885013D01*
X74523731Y-56945445D01*
X74480466Y-56988710D01*
X74435521Y-56999500D01*
X72027795Y-56999500D01*
X71969604Y-56980593D01*
X71945478Y-56955500D01*
X71944114Y-56953458D01*
X71924264Y-56933608D01*
X71846550Y-56855893D01*
X71846541Y-56855885D01*
X71731817Y-56779228D01*
X71731806Y-56779222D01*
X71604328Y-56726420D01*
X71468995Y-56699500D01*
X71468993Y-56699500D01*
X71331007Y-56699500D01*
X71331004Y-56699500D01*
X71195672Y-56726420D01*
X71195670Y-56726420D01*
X71068193Y-56779222D01*
X71068182Y-56779228D01*
X70953458Y-56855885D01*
X70855885Y-56953458D01*
X70779228Y-57068182D01*
X70779222Y-57068193D01*
X70726420Y-57195670D01*
X70726420Y-57195672D01*
X70699500Y-57331004D01*
X70699500Y-57331007D01*
X70699500Y-57468993D01*
X70724204Y-57593190D01*
X70726420Y-57604327D01*
X70726420Y-57604329D01*
X70779222Y-57731806D01*
X70779228Y-57731817D01*
X70855885Y-57846541D01*
X70953458Y-57944114D01*
X71068182Y-58020771D01*
X71068193Y-58020777D01*
X71115283Y-58040282D01*
X71195672Y-58073580D01*
X71331007Y-58100500D01*
X71331008Y-58100500D01*
X71468992Y-58100500D01*
X71468993Y-58100500D01*
X71604328Y-58073580D01*
X71731811Y-58020775D01*
X71846542Y-57944114D01*
X71944114Y-57846542D01*
X71945478Y-57844499D01*
X71946362Y-57843802D01*
X71947202Y-57842780D01*
X71947426Y-57842964D01*
X71993527Y-57806620D01*
X72027795Y-57800500D01*
X75724520Y-57800500D01*
X75782711Y-57819407D01*
X75818675Y-57868907D01*
X75821618Y-57880186D01*
X75826420Y-57904327D01*
X75826420Y-57904329D01*
X75879222Y-58031806D01*
X75879228Y-58031817D01*
X75955885Y-58146541D01*
X76053458Y-58244114D01*
X76168182Y-58320771D01*
X76168193Y-58320777D01*
X76215283Y-58340282D01*
X76295672Y-58373580D01*
X76431007Y-58400500D01*
X76431008Y-58400500D01*
X76568992Y-58400500D01*
X76568993Y-58400500D01*
X76704328Y-58373580D01*
X76831811Y-58320775D01*
X76946542Y-58244114D01*
X77044114Y-58146542D01*
X77044120Y-58146531D01*
X77045160Y-58145266D01*
X77045799Y-58144856D01*
X77047553Y-58143103D01*
X77047937Y-58143487D01*
X77096684Y-58112267D01*
X77157764Y-58115856D01*
X77205070Y-58154661D01*
X77217329Y-58182431D01*
X77233609Y-58243190D01*
X77299496Y-58357309D01*
X77299498Y-58357311D01*
X77299500Y-58357314D01*
X77392686Y-58450500D01*
X77392688Y-58450501D01*
X77392690Y-58450503D01*
X77506810Y-58516390D01*
X77506808Y-58516390D01*
X77506812Y-58516391D01*
X77506814Y-58516392D01*
X77634108Y-58550500D01*
X77634110Y-58550500D01*
X77765890Y-58550500D01*
X77765892Y-58550500D01*
X77893186Y-58516392D01*
X77893188Y-58516390D01*
X77893190Y-58516390D01*
X78007309Y-58450503D01*
X78007309Y-58450502D01*
X78007314Y-58450500D01*
X78029998Y-58427815D01*
X78084513Y-58400040D01*
X78144945Y-58409611D01*
X78170000Y-58427814D01*
X78192686Y-58450500D01*
X78192688Y-58450501D01*
X78192690Y-58450503D01*
X78306810Y-58516390D01*
X78306808Y-58516390D01*
X78306812Y-58516391D01*
X78306814Y-58516392D01*
X78434108Y-58550500D01*
X78434110Y-58550500D01*
X78565890Y-58550500D01*
X78565892Y-58550500D01*
X78693186Y-58516392D01*
X78693188Y-58516390D01*
X78693190Y-58516390D01*
X78807309Y-58450503D01*
X78807309Y-58450502D01*
X78807314Y-58450500D01*
X78900500Y-58357314D01*
X78921598Y-58320771D01*
X78966390Y-58243190D01*
X78966390Y-58243188D01*
X78966392Y-58243186D01*
X79000500Y-58115892D01*
X79000500Y-57984108D01*
X78966392Y-57856814D01*
X78961882Y-57849002D01*
X78949159Y-57789154D01*
X78974044Y-57733258D01*
X79027031Y-57702664D01*
X79047617Y-57700500D01*
X81251679Y-57700500D01*
X81309870Y-57719407D01*
X81321676Y-57729490D01*
X81392686Y-57800500D01*
X81392688Y-57800501D01*
X81392690Y-57800503D01*
X81506810Y-57866390D01*
X81506808Y-57866390D01*
X81506812Y-57866391D01*
X81506814Y-57866392D01*
X81634108Y-57900500D01*
X81634110Y-57900500D01*
X81765890Y-57900500D01*
X81765892Y-57900500D01*
X81893186Y-57866392D01*
X81893188Y-57866390D01*
X81893190Y-57866390D01*
X82007309Y-57800503D01*
X82007309Y-57800502D01*
X82007314Y-57800500D01*
X82100500Y-57707314D01*
X82116259Y-57680019D01*
X82166390Y-57593190D01*
X82166390Y-57593188D01*
X82166392Y-57593186D01*
X82200500Y-57465892D01*
X82200500Y-57334108D01*
X82166392Y-57206814D01*
X82166390Y-57206811D01*
X82166390Y-57206809D01*
X82100503Y-57092690D01*
X82100501Y-57092688D01*
X82100500Y-57092686D01*
X82007314Y-56999500D01*
X82007311Y-56999498D01*
X82007309Y-56999496D01*
X81893189Y-56933609D01*
X81893191Y-56933609D01*
X81843799Y-56920375D01*
X81765892Y-56899500D01*
X81634108Y-56899500D01*
X81556200Y-56920375D01*
X81506809Y-56933609D01*
X81392690Y-56999496D01*
X81392689Y-56999497D01*
X81392686Y-56999499D01*
X81392686Y-56999500D01*
X81321680Y-57070505D01*
X81267166Y-57098281D01*
X81251679Y-57099500D01*
X78765479Y-57099500D01*
X78707288Y-57080593D01*
X78695475Y-57070504D01*
X77484511Y-55859540D01*
X77482420Y-55858333D01*
X77482415Y-55858328D01*
X77482415Y-55858330D01*
X77415989Y-55819979D01*
X77415988Y-55819978D01*
X77415987Y-55819978D01*
X77339564Y-55799500D01*
X77339562Y-55799500D01*
X76665479Y-55799500D01*
X76607288Y-55780593D01*
X76595475Y-55770504D01*
X75829496Y-55004525D01*
X75826782Y-54999199D01*
X75821811Y-54995884D01*
X75814783Y-54975649D01*
X75801719Y-54950008D01*
X75800580Y-54938500D01*
X75800500Y-54936511D01*
X75800500Y-54834108D01*
X75793377Y-54807525D01*
X76339500Y-54807525D01*
X76339500Y-54952474D01*
X76377017Y-55092489D01*
X76449487Y-55218010D01*
X76449489Y-55218012D01*
X76449491Y-55218015D01*
X76551985Y-55320509D01*
X76551987Y-55320510D01*
X76551989Y-55320512D01*
X76677511Y-55392982D01*
X76677512Y-55392982D01*
X76677515Y-55392984D01*
X76817525Y-55430500D01*
X76817526Y-55430500D01*
X76962474Y-55430500D01*
X76962475Y-55430500D01*
X77102485Y-55392984D01*
X77102487Y-55392982D01*
X77102489Y-55392982D01*
X77228010Y-55320512D01*
X77228010Y-55320511D01*
X77228015Y-55320509D01*
X77330509Y-55218015D01*
X77340887Y-55200040D01*
X77402982Y-55092489D01*
X77402982Y-55092487D01*
X77402984Y-55092485D01*
X77440500Y-54952475D01*
X77440500Y-54807525D01*
X77402984Y-54667515D01*
X77402982Y-54667512D01*
X77402982Y-54667510D01*
X77330512Y-54541989D01*
X77330510Y-54541987D01*
X77330509Y-54541985D01*
X77228015Y-54439491D01*
X77228012Y-54439489D01*
X77228010Y-54439487D01*
X77102488Y-54367017D01*
X77102489Y-54367017D01*
X77072896Y-54359087D01*
X76962475Y-54329500D01*
X76817525Y-54329500D01*
X76755790Y-54346041D01*
X76677510Y-54367017D01*
X76551989Y-54439487D01*
X76449487Y-54541989D01*
X76377017Y-54667510D01*
X76339500Y-54807525D01*
X75793377Y-54807525D01*
X75766392Y-54706814D01*
X75766390Y-54706811D01*
X75766390Y-54706809D01*
X75700503Y-54592690D01*
X75700501Y-54592688D01*
X75700500Y-54592686D01*
X75607314Y-54499500D01*
X75607311Y-54499498D01*
X75607309Y-54499496D01*
X75493189Y-54433609D01*
X75493191Y-54433609D01*
X75443799Y-54420375D01*
X75365892Y-54399500D01*
X75234108Y-54399500D01*
X75156200Y-54420375D01*
X75106809Y-54433609D01*
X74992690Y-54499496D01*
X74899496Y-54592690D01*
X74833609Y-54706809D01*
X74833608Y-54706814D01*
X74799500Y-54834108D01*
X74799500Y-54965892D01*
X74809852Y-55004525D01*
X74833609Y-55093190D01*
X74899496Y-55207309D01*
X74899498Y-55207311D01*
X74899500Y-55207314D01*
X74992686Y-55300500D01*
X74992688Y-55300501D01*
X74992690Y-55300503D01*
X75106810Y-55366390D01*
X75106808Y-55366390D01*
X75106812Y-55366391D01*
X75106814Y-55366392D01*
X75234108Y-55400500D01*
X75234110Y-55400500D01*
X75334521Y-55400500D01*
X75392712Y-55419407D01*
X75404525Y-55429496D01*
X76005525Y-56030496D01*
X76033302Y-56085013D01*
X76023731Y-56145445D01*
X75980466Y-56188710D01*
X75935521Y-56199500D01*
X75365479Y-56199500D01*
X75307288Y-56180593D01*
X75295475Y-56170504D01*
X74365849Y-55240878D01*
X74338072Y-55186361D01*
X74347643Y-55125929D01*
X74350097Y-55121408D01*
X74366392Y-55093186D01*
X74400500Y-54965892D01*
X74400500Y-54834108D01*
X74366392Y-54706814D01*
X74366390Y-54706811D01*
X74366390Y-54706809D01*
X74300503Y-54592690D01*
X74300501Y-54592688D01*
X74300500Y-54592686D01*
X74207314Y-54499500D01*
X74207311Y-54499498D01*
X74207309Y-54499496D01*
X74093189Y-54433609D01*
X74093191Y-54433609D01*
X74043799Y-54420375D01*
X73965892Y-54399500D01*
X73834108Y-54399500D01*
X73756200Y-54420375D01*
X73706809Y-54433609D01*
X73592690Y-54499496D01*
X73592684Y-54499501D01*
X73570002Y-54522183D01*
X73515485Y-54549959D01*
X73455053Y-54540387D01*
X73429998Y-54522183D01*
X73407315Y-54499501D01*
X73407309Y-54499496D01*
X73293189Y-54433609D01*
X73293191Y-54433609D01*
X73243799Y-54420375D01*
X73165892Y-54399500D01*
X73034108Y-54399500D01*
X72956200Y-54420375D01*
X72906809Y-54433609D01*
X72792690Y-54499496D01*
X72792689Y-54499497D01*
X72792686Y-54499499D01*
X72792686Y-54499500D01*
X72720001Y-54572184D01*
X72665487Y-54599960D01*
X72605055Y-54590389D01*
X72579999Y-54572185D01*
X72507314Y-54499500D01*
X72507311Y-54499498D01*
X72507309Y-54499496D01*
X72393189Y-54433609D01*
X72393191Y-54433609D01*
X72343799Y-54420375D01*
X72265892Y-54399500D01*
X72134108Y-54399500D01*
X72056200Y-54420375D01*
X72006809Y-54433609D01*
X71892690Y-54499496D01*
X71799498Y-54592688D01*
X71775376Y-54634468D01*
X71729905Y-54675409D01*
X71669055Y-54681803D01*
X71616068Y-54651210D01*
X71603904Y-54634468D01*
X71550509Y-54541985D01*
X71448015Y-54439491D01*
X71448012Y-54439489D01*
X71448010Y-54439487D01*
X71322488Y-54367017D01*
X71322489Y-54367017D01*
X71292896Y-54359087D01*
X71182475Y-54329500D01*
X71037525Y-54329500D01*
X70975790Y-54346041D01*
X70897510Y-54367017D01*
X70771989Y-54439487D01*
X70669487Y-54541989D01*
X70597017Y-54667510D01*
X70559500Y-54807525D01*
X70559500Y-54952474D01*
X70597017Y-55092489D01*
X70669487Y-55218010D01*
X70669489Y-55218012D01*
X70669491Y-55218015D01*
X70771985Y-55320509D01*
X70771987Y-55320510D01*
X70771989Y-55320512D01*
X70839370Y-55359415D01*
X70880311Y-55404885D01*
X70886706Y-55465735D01*
X70859874Y-55515155D01*
X69304525Y-57070504D01*
X69250008Y-57098281D01*
X69234521Y-57099500D01*
X66048321Y-57099500D01*
X65990130Y-57080593D01*
X65978323Y-57070509D01*
X65907314Y-56999500D01*
X65907311Y-56999498D01*
X65907309Y-56999496D01*
X65793189Y-56933609D01*
X65793191Y-56933609D01*
X65743799Y-56920375D01*
X65665892Y-56899500D01*
X65534108Y-56899500D01*
X65456200Y-56920375D01*
X65406809Y-56933609D01*
X65292690Y-56999496D01*
X65199496Y-57092690D01*
X65133609Y-57206809D01*
X65133608Y-57206814D01*
X65099500Y-57334108D01*
X64500500Y-57334108D01*
X64500500Y-55666834D01*
X64519407Y-55608643D01*
X64568907Y-55572679D01*
X64630093Y-55572679D01*
X64661223Y-55589431D01*
X64775451Y-55680525D01*
X64918652Y-55770504D01*
X65058423Y-55858328D01*
X65058427Y-55858330D01*
X65359531Y-56003335D01*
X65359534Y-56003336D01*
X65674974Y-56113713D01*
X65674977Y-56113713D01*
X65674978Y-56113714D01*
X66000800Y-56188081D01*
X66090354Y-56198171D01*
X66332883Y-56225499D01*
X66332899Y-56225499D01*
X66332900Y-56225500D01*
X66332901Y-56225500D01*
X66667099Y-56225500D01*
X66667100Y-56225500D01*
X66667101Y-56225499D01*
X66667116Y-56225499D01*
X66897854Y-56199500D01*
X66999200Y-56188081D01*
X67325022Y-56113714D01*
X67640469Y-56003335D01*
X67941573Y-55858330D01*
X68224549Y-55680525D01*
X68485838Y-55472154D01*
X68722154Y-55235838D01*
X68930525Y-54974549D01*
X69108330Y-54691573D01*
X69253335Y-54390469D01*
X69363714Y-54075022D01*
X69438081Y-53749200D01*
X69452100Y-53624780D01*
X69475499Y-53417116D01*
X69475500Y-53417099D01*
X69475500Y-53124034D01*
X79899500Y-53124034D01*
X79899500Y-53375965D01*
X79938908Y-53624780D01*
X80016759Y-53864379D01*
X80124086Y-54075022D01*
X80131130Y-54088845D01*
X80279207Y-54292656D01*
X80457344Y-54470793D01*
X80661155Y-54618870D01*
X80885621Y-54733241D01*
X81125215Y-54811090D01*
X81125216Y-54811090D01*
X81125219Y-54811091D01*
X81374035Y-54850500D01*
X81374038Y-54850500D01*
X81625965Y-54850500D01*
X81874780Y-54811091D01*
X81874781Y-54811090D01*
X81874785Y-54811090D01*
X82114379Y-54733241D01*
X82338845Y-54618870D01*
X82542656Y-54470793D01*
X82720793Y-54292656D01*
X82868870Y-54088845D01*
X82983241Y-53864379D01*
X83061090Y-53624785D01*
X83093982Y-53417116D01*
X83100500Y-53375965D01*
X83100500Y-53124034D01*
X83061091Y-52875219D01*
X83061090Y-52875215D01*
X82983241Y-52635621D01*
X82868870Y-52411155D01*
X82720793Y-52207344D01*
X82542656Y-52029207D01*
X82338845Y-51881130D01*
X82338844Y-51881129D01*
X82338842Y-51881128D01*
X82114379Y-51766759D01*
X81874780Y-51688908D01*
X81625965Y-51649500D01*
X81625962Y-51649500D01*
X81374038Y-51649500D01*
X81374035Y-51649500D01*
X81125219Y-51688908D01*
X80885620Y-51766759D01*
X80661157Y-51881128D01*
X80457345Y-52029206D01*
X80279206Y-52207345D01*
X80131128Y-52411157D01*
X80016759Y-52635620D01*
X79938908Y-52875219D01*
X79899500Y-53124034D01*
X69475500Y-53124034D01*
X69475500Y-53082900D01*
X69475499Y-53082883D01*
X69438081Y-52750803D01*
X69438080Y-52750797D01*
X69363713Y-52424974D01*
X69253336Y-52109534D01*
X69214652Y-52029207D01*
X69108330Y-51808427D01*
X69082148Y-51766759D01*
X68960708Y-51573487D01*
X68930525Y-51525451D01*
X68722154Y-51264162D01*
X68485838Y-51027846D01*
X68224549Y-50819475D01*
X68007867Y-50683325D01*
X67968656Y-50636357D01*
X67964540Y-50575310D01*
X67997092Y-50523503D01*
X68053879Y-50500724D01*
X68060539Y-50500500D01*
X81680851Y-50500500D01*
X81681377Y-50500500D01*
X81925168Y-50501798D01*
G37*
%TD.AperFunction*%
%TD*%
M02*
