M48
; DRILL file {KiCad 9.0.6} date 2026-01-06T09:51:17+0900
; FORMAT={-:-/ absolute / metric / decimal}
; #@! TF.CreationDate,2026-01-06T09:51:17+09:00
; #@! TF.GenerationSoftware,Kicad,Pcbnew,9.0.6
; #@! TF.FileFunction,Plated,1,2,PTH
FMAT,2
METRIC
; #@! TA.AperFunction,Plated,PTH,ViaDrill
T1C0.300
; #@! TA.AperFunction,Plated,PTH,ViaDrill
T2C0.500
; #@! TA.AperFunction,Plated,PTH,ComponentDrill
T3C0.600
%
G90
G05
T1
X69.0Y-59.8
X70.4Y-57.7
X70.6Y-59.8
X72.1Y-54.8
X73.0Y-57.3
X73.3Y-54.8
X73.7Y-54.1
X73.8Y-62.7
X74.1Y-54.8
X75.3Y-54.8
X77.0Y-57.5
X77.4Y-59.3
X79.6Y-57.5
X79.6Y-59.3
X79.7Y-60.1
X79.7Y-60.9
X80.7Y-58.0
X82.5Y-58.5
X82.5Y-60.1
T2
X69.3Y-57.3
X75.2Y-59.8
X76.4Y-59.8
T3
G00X69.68Y-51.6
M15
G01X69.68Y-50.8
M16
G05
G00X69.68Y-55.93
M15
G01X69.68Y-54.83
M16
G05
G00X78.32Y-51.6
M15
G01X78.32Y-50.8
M16
G05
G00X78.32Y-55.93
M15
G01X78.32Y-54.83
M16
G05
M30
