  0
SECTION
  2
HEADER
  9
$ANGBASE
  50
0.0
  9
$ANGDIR
  70
1
  9
$MEASUREMENT
  70
1
  0
ENDSEC
  0
SECTION
  2
TABLES
  0
TABLE
  2
LTYPE
  70
4
  0
LTYPE
  5
40F
  2
CONTINUOUS
  70
0
  3
Solid line
  72
65
  73
0
  40
0.0
  0
LTYPE
  5
410
  2
DASHDOT
 70
0
  3
Dash Dot ____ _ ____ _
 72
65
 73
4
 40
2.0
 49
1.25
 49
-0.25
 49
0.25
 49
-0.25
  0
LTYPE
  5
411
  2
DASHED
 70
0
  3
Dashed __ __ __ __ __
 72
65
 73
2
 40
0.75
 49
0.5
 49
-0.25
  0
LTYPE
  5
43B
  2
DOTTED
 70
0
  3
Dotted .  .  .  .
 72
65
 73
2
 40
0.2
 49
0.0
 49
-0.2
  0
ENDTAB
  0
TABLE
  2
STYLE
  70
4
  0
STYLE
  2
KICAD
  70
0
  40
0
  41
1
  42
1
  50
0
  71
0
  3
isocp.shx
  0
STYLE
  2
KICADB
  70
0
  40
0
  41
1
  42
1
  50
0
  71
0
  3
isocp.shx
  0
STYLE
  2
KICADI
  70
0
  40
0
  41
1
  42
1
  50
15
  71
0
  3
isocp.shx
  0
STYLE
  2
KICADBI
  70
0
  40
0
  41
1
  42
1
  50
15
  71
0
  3
isocp.shx
  0
ENDTAB
  0
TABLE
  2
LAYER
  70
1
  0
LAYER
  2
BLACK
  70
0
  62
7
  6
CONTINUOUS
  0
ENDTAB
  0
ENDSEC
  0
SECTION
  2
ENTITIES
0
LINE
8
BLACK
6
CONTINUOUS
10
59.0456709999999987
20
-57.8940300000000008
11
59.126776999999997
21
-57.9482229999999987
0
LINE
8
BLACK
6
CONTINUOUS
10
59.126776999999997
20
-57.9482229999999987
11
59.180969999999995
21
-58.0293289999999971
0
LINE
8
BLACK
6
CONTINUOUS
10
59.180969999999995
20
-58.0293289999999971
11
59.1999999999999957
21
-58.125
0
LINE
8
BLACK
6
CONTINUOUS
10
59.1999999999999957
20
-58.125
11
59.1999999999999957
21
-59.4249999999999972
0
LINE
8
BLACK
6
CONTINUOUS
10
59.1999999999999957
20
-59.4249999999999972
11
59.180969999999995
21
-59.5206710000000001
0
LINE
8
BLACK
6
CONTINUOUS
10
59.180969999999995
20
-59.5206710000000001
11
59.126776999999997
21
-59.6017769999999985
0
LINE
8
BLACK
6
CONTINUOUS
10
59.126776999999997
20
-59.6017769999999985
11
59.0456709999999987
21
-59.6559699999999964
0
LINE
8
BLACK
6
CONTINUOUS
10
59.0456709999999987
20
-59.6559699999999964
11
58.9499999999999957
21
-59.6749999999999972
0
LINE
8
BLACK
6
CONTINUOUS
10
58.9499999999999957
20
-59.6749999999999972
11
58.25
21
-59.6749999999999972
0
LINE
8
BLACK
6
CONTINUOUS
10
58.25
20
-59.6749999999999972
11
58.1543289999999971
21
-59.6559699999999964
0
LINE
8
BLACK
6
CONTINUOUS
10
58.1543289999999971
20
-59.6559699999999964
11
58.0732229999999987
21
-59.6017769999999985
0
LINE
8
BLACK
6
CONTINUOUS
10
58.0732229999999987
20
-59.6017769999999985
11
58.0190300000000008
21
-59.5206710000000001
0
LINE
8
BLACK
6
CONTINUOUS
10
58.0190300000000008
20
-59.5206710000000001
11
58.
21
-59.4249999999999972
0
LINE
8
BLACK
6
CONTINUOUS
10
58.
20
-59.4249999999999972
11
58.
21
-58.125
0
LINE
8
BLACK
6
CONTINUOUS
10
58.
20
-58.125
11
58.0190300000000008
21
-58.0293289999999971
0
LINE
8
BLACK
6
CONTINUOUS
10
58.0190300000000008
20
-58.0293289999999971
11
58.0732229999999987
21
-57.9482229999999987
0
LINE
8
BLACK
6
CONTINUOUS
10
58.0732229999999987
20
-57.9482229999999987
11
58.1543289999999971
21
-57.8940300000000008
0
LINE
8
BLACK
6
CONTINUOUS
10
58.1543289999999971
20
-57.8940300000000008
11
58.25
21
-57.875
0
LINE
8
BLACK
6
CONTINUOUS
10
58.25
20
-57.875
11
58.9499999999999957
21
-57.875
0
LINE
8
BLACK
6
CONTINUOUS
10
58.9499999999999957
20
-57.875
11
59.0456709999999987
21
-57.8940300000000008
0
LINE
8
BLACK
6
CONTINUOUS
10
64.645670999999993
20
-57.8940300000000008
11
64.7267769999999985
21
-57.9482229999999987
0
LINE
8
BLACK
6
CONTINUOUS
10
64.7267769999999985
20
-57.9482229999999987
11
64.7809699999999964
21
-58.0293289999999971
0
LINE
8
BLACK
6
CONTINUOUS
10
64.7809699999999964
20
-58.0293289999999971
11
64.7999999999999972
21
-58.125
0
LINE
8
BLACK
6
CONTINUOUS
10
64.7999999999999972
20
-58.125
11
64.7999999999999972
21
-59.4249999999999972
0
LINE
8
BLACK
6
CONTINUOUS
10
64.7999999999999972
20
-59.4249999999999972
11
64.7809699999999964
21
-59.5206710000000001
0
LINE
8
BLACK
6
CONTINUOUS
10
64.7809699999999964
20
-59.5206710000000001
11
64.7267769999999985
21
-59.6017769999999985
0
LINE
8
BLACK
6
CONTINUOUS
10
64.7267769999999985
20
-59.6017769999999985
11
64.645670999999993
21
-59.6559699999999964
0
LINE
8
BLACK
6
CONTINUOUS
10
64.645670999999993
20
-59.6559699999999964
11
64.5499999999999972
21
-59.6749999999999972
0
LINE
8
BLACK
6
CONTINUOUS
10
64.5499999999999972
20
-59.6749999999999972
11
63.8499999999999943
21
-59.6749999999999972
0
LINE
8
BLACK
6
CONTINUOUS
10
63.8499999999999943
20
-59.6749999999999972
11
63.7543289999999985
21
-59.6559699999999964
0
LINE
8
BLACK
6
CONTINUOUS
10
63.7543289999999985
20
-59.6559699999999964
11
63.6732230000000001
21
-59.6017769999999985
0
LINE
8
BLACK
6
CONTINUOUS
10
63.6732230000000001
20
-59.6017769999999985
11
63.6190299999999951
21
-59.5206710000000001
0
LINE
8
BLACK
6
CONTINUOUS
10
63.6190299999999951
20
-59.5206710000000001
11
63.5999999999999943
21
-59.4249999999999972
0
LINE
8
BLACK
6
CONTINUOUS
10
63.5999999999999943
20
-59.4249999999999972
11
63.5999999999999943
21
-58.125
0
LINE
8
BLACK
6
CONTINUOUS
10
63.5999999999999943
20
-58.125
11
63.6190299999999951
21
-58.0293289999999971
0
LINE
8
BLACK
6
CONTINUOUS
10
63.6190299999999951
20
-58.0293289999999971
11
63.6732230000000001
21
-57.9482229999999987
0
LINE
8
BLACK
6
CONTINUOUS
10
63.6732230000000001
20
-57.9482229999999987
11
63.7543289999999985
21
-57.8940300000000008
0
LINE
8
BLACK
6
CONTINUOUS
10
63.7543289999999985
20
-57.8940300000000008
11
63.8499999999999943
21
-57.875
0
LINE
8
BLACK
6
CONTINUOUS
10
63.8499999999999943
20
-57.875
11
64.5499999999999972
21
-57.875
0
LINE
8
BLACK
6
CONTINUOUS
10
64.5499999999999972
20
-57.875
11
64.645670999999993
21
-57.8940300000000008
0
LINE
8
BLACK
6
CONTINUOUS
10
66.5437009999999987
20
-57.9557089999999988
11
66.5680329999999998
21
-57.9719669999999994
0
LINE
8
BLACK
6
CONTINUOUS
10
66.5680329999999998
20
-57.9719669999999994
11
66.5842909999999932
21
-57.9962990000000005
0
LINE
8
BLACK
6
CONTINUOUS
10
66.5842909999999932
20
-57.9962990000000005
11
66.5900000000000034
21
-58.0249999999999986
0
LINE
8
BLACK
6
CONTINUOUS
10
66.5900000000000034
20
-58.0249999999999986
11
66.5900000000000034
21
-58.1749999999999972
0
LINE
8
BLACK
6
CONTINUOUS
10
66.5900000000000034
20
-58.1749999999999972
11
66.5842909999999932
21
-58.2037009999999952
0
LINE
8
BLACK
6
CONTINUOUS
10
66.5842909999999932
20
-58.2037009999999952
11
66.5680329999999998
21
-58.2280329999999964
0
LINE
8
BLACK
6
CONTINUOUS
10
66.5680329999999998
20
-58.2280329999999964
11
66.5437009999999987
21
-58.2442909999999969
0
LINE
8
BLACK
6
CONTINUOUS
10
66.5437009999999987
20
-58.2442909999999969
11
66.5150000000000006
21
-58.25
0
LINE
8
BLACK
6
CONTINUOUS
10
66.5150000000000006
20
-58.25
11
66.1149999999999949
21
-58.25
0
LINE
8
BLACK
6
CONTINUOUS
10
66.1149999999999949
20
-58.25
11
66.0862989999999968
21
-58.2442909999999969
0
LINE
8
BLACK
6
CONTINUOUS
10
66.0862989999999968
20
-58.2442909999999969
11
66.0619669999999957
21
-58.2280329999999964
0
LINE
8
BLACK
6
CONTINUOUS
10
66.0619669999999957
20
-58.2280329999999964
11
66.0457090000000022
21
-58.2037009999999952
0
LINE
8
BLACK
6
CONTINUOUS
10
66.0457090000000022
20
-58.2037009999999952
11
66.039999999999992
21
-58.1749999999999972
0
LINE
8
BLACK
6
CONTINUOUS
10
66.039999999999992
20
-58.1749999999999972
11
66.039999999999992
21
-58.0249999999999986
0
LINE
8
BLACK
6
CONTINUOUS
10
66.039999999999992
20
-58.0249999999999986
11
66.0457090000000022
21
-57.9962990000000005
0
LINE
8
BLACK
6
CONTINUOUS
10
66.0457090000000022
20
-57.9962990000000005
11
66.0619669999999957
21
-57.9719669999999994
0
LINE
8
BLACK
6
CONTINUOUS
10
66.0619669999999957
20
-57.9719669999999994
11
66.0862989999999968
21
-57.9557089999999988
0
LINE
8
BLACK
6
CONTINUOUS
10
66.0862989999999968
20
-57.9557089999999988
11
66.1149999999999949
21
-57.9499999999999957
0
LINE
8
BLACK
6
CONTINUOUS
10
66.1149999999999949
20
-57.9499999999999957
11
66.5150000000000006
21
-57.9499999999999957
0
LINE
8
BLACK
6
CONTINUOUS
10
66.5150000000000006
20
-57.9499999999999957
11
66.5437009999999987
21
-57.9557089999999988
0
LINE
8
BLACK
6
CONTINUOUS
10
67.3137009999999947
20
-57.9557089999999988
11
67.3380329999999958
21
-57.9719669999999994
0
LINE
8
BLACK
6
CONTINUOUS
10
67.3380329999999958
20
-57.9719669999999994
11
67.3542910000000035
21
-57.9962990000000005
0
LINE
8
BLACK
6
CONTINUOUS
10
67.3542910000000035
20
-57.9962990000000005
11
67.3599999999999994
21
-58.0249999999999986
0
LINE
8
BLACK
6
CONTINUOUS
10
67.3599999999999994
20
-58.0249999999999986
11
67.3599999999999994
21
-58.1749999999999972
0
LINE
8
BLACK
6
CONTINUOUS
10
67.3599999999999994
20
-58.1749999999999972
11
67.3542910000000035
21
-58.2037009999999952
0
LINE
8
BLACK
6
CONTINUOUS
10
67.3542910000000035
20
-58.2037009999999952
11
67.3380329999999958
21
-58.2280329999999964
0
LINE
8
BLACK
6
CONTINUOUS
10
67.3380329999999958
20
-58.2280329999999964
11
67.3137009999999947
21
-58.2442909999999969
0
LINE
8
BLACK
6
CONTINUOUS
10
67.3137009999999947
20
-58.2442909999999969
11
67.2849999999999966
21
-58.25
0
LINE
8
BLACK
6
CONTINUOUS
10
67.2849999999999966
20
-58.25
11
66.8849999999999909
21
-58.25
0
LINE
8
BLACK
6
CONTINUOUS
10
66.8849999999999909
20
-58.25
11
66.8562989999999928
21
-58.2442909999999969
0
LINE
8
BLACK
6
CONTINUOUS
10
66.8562989999999928
20
-58.2442909999999969
11
66.8319669999999917
21
-58.2280329999999964
0
LINE
8
BLACK
6
CONTINUOUS
10
66.8319669999999917
20
-58.2280329999999964
11
66.8157089999999982
21
-58.2037009999999952
0
LINE
8
BLACK
6
CONTINUOUS
10
66.8157089999999982
20
-58.2037009999999952
11
66.8100000000000023
21
-58.1749999999999972
0
LINE
8
BLACK
6
CONTINUOUS
10
66.8100000000000023
20
-58.1749999999999972
11
66.8100000000000023
21
-58.0249999999999986
0
LINE
8
BLACK
6
CONTINUOUS
10
66.8100000000000023
20
-58.0249999999999986
11
66.8157089999999982
21
-57.9962990000000005
0
LINE
8
BLACK
6
CONTINUOUS
10
66.8157089999999982
20
-57.9962990000000005
11
66.8319669999999917
21
-57.9719669999999994
0
LINE
8
BLACK
6
CONTINUOUS
10
66.8319669999999917
20
-57.9719669999999994
11
66.8562989999999928
21
-57.9557089999999988
0
LINE
8
BLACK
6
CONTINUOUS
10
66.8562989999999928
20
-57.9557089999999988
11
66.8849999999999909
21
-57.9499999999999957
0
LINE
8
BLACK
6
CONTINUOUS
10
66.8849999999999909
20
-57.9499999999999957
11
67.2849999999999966
21
-57.9499999999999957
0
LINE
8
BLACK
6
CONTINUOUS
10
67.2849999999999966
20
-57.9499999999999957
11
67.3137009999999947
21
-57.9557089999999988
0
LINE
8
BLACK
6
CONTINUOUS
10
66.5437009999999987
20
-57.4557089999999988
11
66.5680329999999998
21
-57.4719669999999994
0
LINE
8
BLACK
6
CONTINUOUS
10
66.5680329999999998
20
-57.4719669999999994
11
66.5842909999999932
21
-57.4962990000000005
0
LINE
8
BLACK
6
CONTINUOUS
10
66.5842909999999932
20
-57.4962990000000005
11
66.5900000000000034
21
-57.5249999999999986
0
LINE
8
BLACK
6
CONTINUOUS
10
66.5900000000000034
20
-57.5249999999999986
11
66.5900000000000034
21
-57.6749999999999972
0
LINE
8
BLACK
6
CONTINUOUS
10
66.5900000000000034
20
-57.6749999999999972
11
66.5842909999999932
21
-57.7037009999999952
0
LINE
8
BLACK
6
CONTINUOUS
10
66.5842909999999932
20
-57.7037009999999952
11
66.5680329999999998
21
-57.7280329999999964
0
LINE
8
BLACK
6
CONTINUOUS
10
66.5680329999999998
20
-57.7280329999999964
11
66.5437009999999987
21
-57.7442909999999969
0
LINE
8
BLACK
6
CONTINUOUS
10
66.5437009999999987
20
-57.7442909999999969
11
66.5150000000000006
21
-57.75
0
LINE
8
BLACK
6
CONTINUOUS
10
66.5150000000000006
20
-57.75
11
66.1149999999999949
21
-57.75
0
LINE
8
BLACK
6
CONTINUOUS
10
66.1149999999999949
20
-57.75
11
66.0862989999999968
21
-57.7442909999999969
0
LINE
8
BLACK
6
CONTINUOUS
10
66.0862989999999968
20
-57.7442909999999969
11
66.0619669999999957
21
-57.7280329999999964
0
LINE
8
BLACK
6
CONTINUOUS
10
66.0619669999999957
20
-57.7280329999999964
11
66.0457090000000022
21
-57.7037009999999952
0
LINE
8
BLACK
6
CONTINUOUS
10
66.0457090000000022
20
-57.7037009999999952
11
66.039999999999992
21
-57.6749999999999972
0
LINE
8
BLACK
6
CONTINUOUS
10
66.039999999999992
20
-57.6749999999999972
11
66.039999999999992
21
-57.5249999999999986
0
LINE
8
BLACK
6
CONTINUOUS
10
66.039999999999992
20
-57.5249999999999986
11
66.0457090000000022
21
-57.4962990000000005
0
LINE
8
BLACK
6
CONTINUOUS
10
66.0457090000000022
20
-57.4962990000000005
11
66.0619669999999957
21
-57.4719669999999994
0
LINE
8
BLACK
6
CONTINUOUS
10
66.0619669999999957
20
-57.4719669999999994
11
66.0862989999999968
21
-57.4557089999999988
0
LINE
8
BLACK
6
CONTINUOUS
10
66.0862989999999968
20
-57.4557089999999988
11
66.1149999999999949
21
-57.4499999999999957
0
LINE
8
BLACK
6
CONTINUOUS
10
66.1149999999999949
20
-57.4499999999999957
11
66.5150000000000006
21
-57.4499999999999957
0
LINE
8
BLACK
6
CONTINUOUS
10
66.5150000000000006
20
-57.4499999999999957
11
66.5437009999999987
21
-57.4557089999999988
0
LINE
8
BLACK
6
CONTINUOUS
10
67.3137009999999947
20
-57.4557089999999988
11
67.3380329999999958
21
-57.4719669999999994
0
LINE
8
BLACK
6
CONTINUOUS
10
67.3380329999999958
20
-57.4719669999999994
11
67.3542910000000035
21
-57.4962990000000005
0
LINE
8
BLACK
6
CONTINUOUS
10
67.3542910000000035
20
-57.4962990000000005
11
67.3599999999999994
21
-57.5249999999999986
0
LINE
8
BLACK
6
CONTINUOUS
10
67.3599999999999994
20
-57.5249999999999986
11
67.3599999999999994
21
-57.6749999999999972
0
LINE
8
BLACK
6
CONTINUOUS
10
67.3599999999999994
20
-57.6749999999999972
11
67.3542910000000035
21
-57.7037009999999952
0
LINE
8
BLACK
6
CONTINUOUS
10
67.3542910000000035
20
-57.7037009999999952
11
67.3380329999999958
21
-57.7280329999999964
0
LINE
8
BLACK
6
CONTINUOUS
10
67.3380329999999958
20
-57.7280329999999964
11
67.3137009999999947
21
-57.7442909999999969
0
LINE
8
BLACK
6
CONTINUOUS
10
67.3137009999999947
20
-57.7442909999999969
11
67.2849999999999966
21
-57.75
0
LINE
8
BLACK
6
CONTINUOUS
10
67.2849999999999966
20
-57.75
11
66.8849999999999909
21
-57.75
0
LINE
8
BLACK
6
CONTINUOUS
10
66.8849999999999909
20
-57.75
11
66.8562989999999928
21
-57.7442909999999969
0
LINE
8
BLACK
6
CONTINUOUS
10
66.8562989999999928
20
-57.7442909999999969
11
66.8319669999999917
21
-57.7280329999999964
0
LINE
8
BLACK
6
CONTINUOUS
10
66.8319669999999917
20
-57.7280329999999964
11
66.8157089999999982
21
-57.7037009999999952
0
LINE
8
BLACK
6
CONTINUOUS
10
66.8157089999999982
20
-57.7037009999999952
11
66.8100000000000023
21
-57.6749999999999972
0
LINE
8
BLACK
6
CONTINUOUS
10
66.8100000000000023
20
-57.6749999999999972
11
66.8100000000000023
21
-57.5249999999999986
0
LINE
8
BLACK
6
CONTINUOUS
10
66.8100000000000023
20
-57.5249999999999986
11
66.8157089999999982
21
-57.4962990000000005
0
LINE
8
BLACK
6
CONTINUOUS
10
66.8157089999999982
20
-57.4962990000000005
11
66.8319669999999917
21
-57.4719669999999994
0
LINE
8
BLACK
6
CONTINUOUS
10
66.8319669999999917
20
-57.4719669999999994
11
66.8562989999999928
21
-57.4557089999999988
0
LINE
8
BLACK
6
CONTINUOUS
10
66.8562989999999928
20
-57.4557089999999988
11
66.8849999999999909
21
-57.4499999999999957
0
LINE
8
BLACK
6
CONTINUOUS
10
66.8849999999999909
20
-57.4499999999999957
11
67.2849999999999966
21
-57.4499999999999957
0
LINE
8
BLACK
6
CONTINUOUS
10
67.2849999999999966
20
-57.4499999999999957
11
67.3137009999999947
21
-57.4557089999999988
0
LINE
8
BLACK
6
CONTINUOUS
10
66.5437009999999987
20
-56.9557089999999988
11
66.5680329999999998
21
-56.9719669999999994
0
LINE
8
BLACK
6
CONTINUOUS
10
66.5680329999999998
20
-56.9719669999999994
11
66.5842909999999932
21
-56.9962990000000005
0
LINE
8
BLACK
6
CONTINUOUS
10
66.5842909999999932
20
-56.9962990000000005
11
66.5900000000000034
21
-57.0249999999999986
0
LINE
8
BLACK
6
CONTINUOUS
10
66.5900000000000034
20
-57.0249999999999986
11
66.5900000000000034
21
-57.1749999999999972
0
LINE
8
BLACK
6
CONTINUOUS
10
66.5900000000000034
20
-57.1749999999999972
11
66.5842909999999932
21
-57.2037009999999952
0
LINE
8
BLACK
6
CONTINUOUS
10
66.5842909999999932
20
-57.2037009999999952
11
66.5680329999999998
21
-57.2280329999999964
0
LINE
8
BLACK
6
CONTINUOUS
10
66.5680329999999998
20
-57.2280329999999964
11
66.5437009999999987
21
-57.2442909999999969
0
LINE
8
BLACK
6
CONTINUOUS
10
66.5437009999999987
20
-57.2442909999999969
11
66.5150000000000006
21
-57.25
0
LINE
8
BLACK
6
CONTINUOUS
10
66.5150000000000006
20
-57.25
11
66.1149999999999949
21
-57.25
0
LINE
8
BLACK
6
CONTINUOUS
10
66.1149999999999949
20
-57.25
11
66.0862989999999968
21
-57.2442909999999969
0
LINE
8
BLACK
6
CONTINUOUS
10
66.0862989999999968
20
-57.2442909999999969
11
66.0619669999999957
21
-57.2280329999999964
0
LINE
8
BLACK
6
CONTINUOUS
10
66.0619669999999957
20
-57.2280329999999964
11
66.0457090000000022
21
-57.2037009999999952
0
LINE
8
BLACK
6
CONTINUOUS
10
66.0457090000000022
20
-57.2037009999999952
11
66.039999999999992
21
-57.1749999999999972
0
LINE
8
BLACK
6
CONTINUOUS
10
66.039999999999992
20
-57.1749999999999972
11
66.039999999999992
21
-57.0249999999999986
0
LINE
8
BLACK
6
CONTINUOUS
10
66.039999999999992
20
-57.0249999999999986
11
66.0457090000000022
21
-56.9962990000000005
0
LINE
8
BLACK
6
CONTINUOUS
10
66.0457090000000022
20
-56.9962990000000005
11
66.0619669999999957
21
-56.9719669999999994
0
LINE
8
BLACK
6
CONTINUOUS
10
66.0619669999999957
20
-56.9719669999999994
11
66.0862989999999968
21
-56.9557089999999988
0
LINE
8
BLACK
6
CONTINUOUS
10
66.0862989999999968
20
-56.9557089999999988
11
66.1149999999999949
21
-56.9499999999999957
0
LINE
8
BLACK
6
CONTINUOUS
10
66.1149999999999949
20
-56.9499999999999957
11
66.5150000000000006
21
-56.9499999999999957
0
LINE
8
BLACK
6
CONTINUOUS
10
66.5150000000000006
20
-56.9499999999999957
11
66.5437009999999987
21
-56.9557089999999988
0
LINE
8
BLACK
6
CONTINUOUS
10
67.3137009999999947
20
-56.9557089999999988
11
67.3380329999999958
21
-56.9719669999999994
0
LINE
8
BLACK
6
CONTINUOUS
10
67.3380329999999958
20
-56.9719669999999994
11
67.3542910000000035
21
-56.9962990000000005
0
LINE
8
BLACK
6
CONTINUOUS
10
67.3542910000000035
20
-56.9962990000000005
11
67.3599999999999994
21
-57.0249999999999986
0
LINE
8
BLACK
6
CONTINUOUS
10
67.3599999999999994
20
-57.0249999999999986
11
67.3599999999999994
21
-57.1749999999999972
0
LINE
8
BLACK
6
CONTINUOUS
10
67.3599999999999994
20
-57.1749999999999972
11
67.3542910000000035
21
-57.2037009999999952
0
LINE
8
BLACK
6
CONTINUOUS
10
67.3542910000000035
20
-57.2037009999999952
11
67.3380329999999958
21
-57.2280329999999964
0
LINE
8
BLACK
6
CONTINUOUS
10
67.3380329999999958
20
-57.2280329999999964
11
67.3137009999999947
21
-57.2442909999999969
0
LINE
8
BLACK
6
CONTINUOUS
10
67.3137009999999947
20
-57.2442909999999969
11
67.2849999999999966
21
-57.25
0
LINE
8
BLACK
6
CONTINUOUS
10
67.2849999999999966
20
-57.25
11
66.8849999999999909
21
-57.25
0
LINE
8
BLACK
6
CONTINUOUS
10
66.8849999999999909
20
-57.25
11
66.8562989999999928
21
-57.2442909999999969
0
LINE
8
BLACK
6
CONTINUOUS
10
66.8562989999999928
20
-57.2442909999999969
11
66.8319669999999917
21
-57.2280329999999964
0
LINE
8
BLACK
6
CONTINUOUS
10
66.8319669999999917
20
-57.2280329999999964
11
66.8157089999999982
21
-57.2037009999999952
0
LINE
8
BLACK
6
CONTINUOUS
10
66.8157089999999982
20
-57.2037009999999952
11
66.8100000000000023
21
-57.1749999999999972
0
LINE
8
BLACK
6
CONTINUOUS
10
66.8100000000000023
20
-57.1749999999999972
11
66.8100000000000023
21
-57.0249999999999986
0
LINE
8
BLACK
6
CONTINUOUS
10
66.8100000000000023
20
-57.0249999999999986
11
66.8157089999999982
21
-56.9962990000000005
0
LINE
8
BLACK
6
CONTINUOUS
10
66.8157089999999982
20
-56.9962990000000005
11
66.8319669999999917
21
-56.9719669999999994
0
LINE
8
BLACK
6
CONTINUOUS
10
66.8319669999999917
20
-56.9719669999999994
11
66.8562989999999928
21
-56.9557089999999988
0
LINE
8
BLACK
6
CONTINUOUS
10
66.8562989999999928
20
-56.9557089999999988
11
66.8849999999999909
21
-56.9499999999999957
0
LINE
8
BLACK
6
CONTINUOUS
10
66.8849999999999909
20
-56.9499999999999957
11
67.2849999999999966
21
-56.9499999999999957
0
LINE
8
BLACK
6
CONTINUOUS
10
67.2849999999999966
20
-56.9499999999999957
11
67.3137009999999947
21
-56.9557089999999988
0
LINE
8
BLACK
6
CONTINUOUS
10
70.5441339999999997
20
-55.3788059999999973
11
70.5603550000000013
21
-55.3896449999999945
0
LINE
8
BLACK
6
CONTINUOUS
10
70.5603550000000013
20
-55.3896449999999945
11
70.5711939999999913
21
-55.4058659999999961
0
LINE
8
BLACK
6
CONTINUOUS
10
70.5711939999999913
20
-55.4058659999999961
11
70.5750000000000028
21
-55.4249999999999972
0
LINE
8
BLACK
6
CONTINUOUS
10
70.5750000000000028
20
-55.4249999999999972
11
70.5750000000000028
21
-56.7749999999999986
0
LINE
8
BLACK
6
CONTINUOUS
10
70.5750000000000028
20
-56.7749999999999986
11
70.5711939999999913
21
-56.7941339999999997
0
LINE
8
BLACK
6
CONTINUOUS
10
70.5711939999999913
20
-56.7941339999999997
11
70.5603550000000013
21
-56.8103549999999942
0
LINE
8
BLACK
6
CONTINUOUS
10
70.5603550000000013
20
-56.8103549999999942
11
70.5441339999999997
21
-56.8211939999999984
0
LINE
8
BLACK
6
CONTINUOUS
10
70.5441339999999997
20
-56.8211939999999984
11
70.5249999999999915
21
-56.8249999999999957
0
LINE
8
BLACK
6
CONTINUOUS
10
70.5249999999999915
20
-56.8249999999999957
11
70.0249999999999915
21
-56.8249999999999957
0
LINE
8
BLACK
6
CONTINUOUS
10
70.0249999999999915
20
-56.8249999999999957
11
70.0058659999999975
21
-56.8211939999999984
0
LINE
8
BLACK
6
CONTINUOUS
10
70.0058659999999975
20
-56.8211939999999984
11
69.9896449999999959
21
-56.8103549999999942
0
LINE
8
BLACK
6
CONTINUOUS
10
69.9896449999999959
20
-56.8103549999999942
11
69.9788059999999916
21
-56.7941339999999997
0
LINE
8
BLACK
6
CONTINUOUS
10
69.9788059999999916
20
-56.7941339999999997
11
69.9749999999999943
21
-56.7749999999999986
0
LINE
8
BLACK
6
CONTINUOUS
10
69.9749999999999943
20
-56.7749999999999986
11
69.9749999999999943
21
-55.4249999999999972
0
LINE
8
BLACK
6
CONTINUOUS
10
69.9749999999999943
20
-55.4249999999999972
11
69.9788059999999916
21
-55.4058659999999961
0
LINE
8
BLACK
6
CONTINUOUS
10
69.9788059999999916
20
-55.4058659999999961
11
69.9896449999999959
21
-55.3896449999999945
0
LINE
8
BLACK
6
CONTINUOUS
10
69.9896449999999959
20
-55.3896449999999945
11
70.0058659999999975
21
-55.3788059999999973
0
LINE
8
BLACK
6
CONTINUOUS
10
70.0058659999999975
20
-55.3788059999999973
11
70.0249999999999915
21
-55.375
0
LINE
8
BLACK
6
CONTINUOUS
10
70.0249999999999915
20
-55.375
11
70.5249999999999915
21
-55.375
0
LINE
8
BLACK
6
CONTINUOUS
10
70.5249999999999915
20
-55.375
11
70.5441339999999997
21
-55.3788059999999973
0
LINE
8
BLACK
6
CONTINUOUS
10
71.3191339999999911
20
-55.3788059999999973
11
71.3353549999999927
21
-55.3896449999999945
0
LINE
8
BLACK
6
CONTINUOUS
10
71.3353549999999927
20
-55.3896449999999945
11
71.346193999999997
21
-55.4058659999999961
0
LINE
8
BLACK
6
CONTINUOUS
10
71.346193999999997
20
-55.4058659999999961
11
71.3499999999999943
21
-55.4249999999999972
0
LINE
8
BLACK
6
CONTINUOUS
10
71.3499999999999943
20
-55.4249999999999972
11
71.3499999999999943
21
-56.7749999999999986
0
LINE
8
BLACK
6
CONTINUOUS
10
71.3499999999999943
20
-56.7749999999999986
11
71.346193999999997
21
-56.7941339999999997
0
LINE
8
BLACK
6
CONTINUOUS
10
71.346193999999997
20
-56.7941339999999997
11
71.3353549999999927
21
-56.8103549999999942
0
LINE
8
BLACK
6
CONTINUOUS
10
71.3353549999999927
20
-56.8103549999999942
11
71.3191339999999911
21
-56.8211939999999984
0
LINE
8
BLACK
6
CONTINUOUS
10
71.3191339999999911
20
-56.8211939999999984
11
71.2999999999999972
21
-56.8249999999999957
0
LINE
8
BLACK
6
CONTINUOUS
10
71.2999999999999972
20
-56.8249999999999957
11
70.7999999999999972
21
-56.8249999999999957
0
LINE
8
BLACK
6
CONTINUOUS
10
70.7999999999999972
20
-56.8249999999999957
11
70.7808660000000032
21
-56.8211939999999984
0
LINE
8
BLACK
6
CONTINUOUS
10
70.7808660000000032
20
-56.8211939999999984
11
70.7646450000000016
21
-56.8103549999999942
0
LINE
8
BLACK
6
CONTINUOUS
10
70.7646450000000016
20
-56.8103549999999942
11
70.7538059999999973
21
-56.7941339999999997
0
LINE
8
BLACK
6
CONTINUOUS
10
70.7538059999999973
20
-56.7941339999999997
11
70.75
21
-56.7749999999999986
0
LINE
8
BLACK
6
CONTINUOUS
10
70.75
20
-56.7749999999999986
11
70.75
21
-55.4249999999999972
0
LINE
8
BLACK
6
CONTINUOUS
10
70.75
20
-55.4249999999999972
11
70.7538059999999973
21
-55.4058659999999961
0
LINE
8
BLACK
6
CONTINUOUS
10
70.7538059999999973
20
-55.4058659999999961
11
70.7646450000000016
21
-55.3896449999999945
0
LINE
8
BLACK
6
CONTINUOUS
10
70.7646450000000016
20
-55.3896449999999945
11
70.7808660000000032
21
-55.3788059999999973
0
LINE
8
BLACK
6
CONTINUOUS
10
70.7808660000000032
20
-55.3788059999999973
11
70.7999999999999972
21
-55.375
0
LINE
8
BLACK
6
CONTINUOUS
10
70.7999999999999972
20
-55.375
11
71.2999999999999972
21
-55.375
0
LINE
8
BLACK
6
CONTINUOUS
10
71.2999999999999972
20
-55.375
11
71.3191339999999911
21
-55.3788059999999973
0
LINE
8
BLACK
6
CONTINUOUS
10
71.8691340000000025
20
-55.3788059999999973
11
71.8853549999999899
21
-55.3896449999999945
0
LINE
8
BLACK
6
CONTINUOUS
10
71.8853549999999899
20
-55.3896449999999945
11
71.8961939999999942
21
-55.4058659999999961
0
LINE
8
BLACK
6
CONTINUOUS
10
71.8961939999999942
20
-55.4058659999999961
11
71.8999999999999915
21
-55.4249999999999972
0
LINE
8
BLACK
6
CONTINUOUS
10
71.8999999999999915
20
-55.4249999999999972
11
71.8999999999999915
21
-56.7749999999999986
0
LINE
8
BLACK
6
CONTINUOUS
10
71.8999999999999915
20
-56.7749999999999986
11
71.8961939999999942
21
-56.7941339999999997
0
LINE
8
BLACK
6
CONTINUOUS
10
71.8961939999999942
20
-56.7941339999999997
11
71.8853549999999899
21
-56.8103549999999942
0
LINE
8
BLACK
6
CONTINUOUS
10
71.8853549999999899
20
-56.8103549999999942
11
71.8691340000000025
21
-56.8211939999999984
0
LINE
8
BLACK
6
CONTINUOUS
10
71.8691340000000025
20
-56.8211939999999984
11
71.8499999999999943
21
-56.8249999999999957
0
LINE
8
BLACK
6
CONTINUOUS
10
71.8499999999999943
20
-56.8249999999999957
11
71.6499999999999915
21
-56.8249999999999957
0
LINE
8
BLACK
6
CONTINUOUS
10
71.6499999999999915
20
-56.8249999999999957
11
71.6308659999999975
21
-56.8211939999999984
0
LINE
8
BLACK
6
CONTINUOUS
10
71.6308659999999975
20
-56.8211939999999984
11
71.6146449999999959
21
-56.8103549999999942
0
LINE
8
BLACK
6
CONTINUOUS
10
71.6146449999999959
20
-56.8103549999999942
11
71.6038059999999916
21
-56.7941339999999997
0
LINE
8
BLACK
6
CONTINUOUS
10
71.6038059999999916
20
-56.7941339999999997
11
71.5999999999999943
21
-56.7749999999999986
0
LINE
8
BLACK
6
CONTINUOUS
10
71.5999999999999943
20
-56.7749999999999986
11
71.5999999999999943
21
-55.4249999999999972
0
LINE
8
BLACK
6
CONTINUOUS
10
71.5999999999999943
20
-55.4249999999999972
11
71.6038059999999916
21
-55.4058659999999961
0
LINE
8
BLACK
6
CONTINUOUS
10
71.6038059999999916
20
-55.4058659999999961
11
71.6146449999999959
21
-55.3896449999999945
0
LINE
8
BLACK
6
CONTINUOUS
10
71.6146449999999959
20
-55.3896449999999945
11
71.6308659999999975
21
-55.3788059999999973
0
LINE
8
BLACK
6
CONTINUOUS
10
71.6308659999999975
20
-55.3788059999999973
11
71.6499999999999915
21
-55.375
0
LINE
8
BLACK
6
CONTINUOUS
10
71.6499999999999915
20
-55.375
11
71.8499999999999943
21
-55.375
0
LINE
8
BLACK
6
CONTINUOUS
10
71.8499999999999943
20
-55.375
11
71.8691340000000025
21
-55.3788059999999973
0
LINE
8
BLACK
6
CONTINUOUS
10
72.3691340000000025
20
-55.3788059999999973
11
72.3853549999999899
21
-55.3896449999999945
0
LINE
8
BLACK
6
CONTINUOUS
10
72.3853549999999899
20
-55.3896449999999945
11
72.3961939999999942
21
-55.4058659999999961
0
LINE
8
BLACK
6
CONTINUOUS
10
72.3961939999999942
20
-55.4058659999999961
11
72.3999999999999915
21
-55.4249999999999972
0
LINE
8
BLACK
6
CONTINUOUS
10
72.3999999999999915
20
-55.4249999999999972
11
72.3999999999999915
21
-56.7749999999999986
0
LINE
8
BLACK
6
CONTINUOUS
10
72.3999999999999915
20
-56.7749999999999986
11
72.3961939999999942
21
-56.7941339999999997
0
LINE
8
BLACK
6
CONTINUOUS
10
72.3961939999999942
20
-56.7941339999999997
11
72.3853549999999899
21
-56.8103549999999942
0
LINE
8
BLACK
6
CONTINUOUS
10
72.3853549999999899
20
-56.8103549999999942
11
72.3691340000000025
21
-56.8211939999999984
0
LINE
8
BLACK
6
CONTINUOUS
10
72.3691340000000025
20
-56.8211939999999984
11
72.3499999999999943
21
-56.8249999999999957
0
LINE
8
BLACK
6
CONTINUOUS
10
72.3499999999999943
20
-56.8249999999999957
11
72.1499999999999915
21
-56.8249999999999957
0
LINE
8
BLACK
6
CONTINUOUS
10
72.1499999999999915
20
-56.8249999999999957
11
72.1308659999999975
21
-56.8211939999999984
0
LINE
8
BLACK
6
CONTINUOUS
10
72.1308659999999975
20
-56.8211939999999984
11
72.1146449999999959
21
-56.8103549999999942
0
LINE
8
BLACK
6
CONTINUOUS
10
72.1146449999999959
20
-56.8103549999999942
11
72.1038059999999916
21
-56.7941339999999997
0
LINE
8
BLACK
6
CONTINUOUS
10
72.1038059999999916
20
-56.7941339999999997
11
72.0999999999999943
21
-56.7749999999999986
0
LINE
8
BLACK
6
CONTINUOUS
10
72.0999999999999943
20
-56.7749999999999986
11
72.0999999999999943
21
-55.4249999999999972
0
LINE
8
BLACK
6
CONTINUOUS
10
72.0999999999999943
20
-55.4249999999999972
11
72.1038059999999916
21
-55.4058659999999961
0
LINE
8
BLACK
6
CONTINUOUS
10
72.1038059999999916
20
-55.4058659999999961
11
72.1146449999999959
21
-55.3896449999999945
0
LINE
8
BLACK
6
CONTINUOUS
10
72.1146449999999959
20
-55.3896449999999945
11
72.1308659999999975
21
-55.3788059999999973
0
LINE
8
BLACK
6
CONTINUOUS
10
72.1308659999999975
20
-55.3788059999999973
11
72.1499999999999915
21
-55.375
0
LINE
8
BLACK
6
CONTINUOUS
10
72.1499999999999915
20
-55.375
11
72.3499999999999943
21
-55.375
0
LINE
8
BLACK
6
CONTINUOUS
10
72.3499999999999943
20
-55.375
11
72.3691340000000025
21
-55.3788059999999973
0
LINE
8
BLACK
6
CONTINUOUS
10
72.8691340000000025
20
-55.3788059999999973
11
72.8853549999999899
21
-55.3896449999999945
0
LINE
8
BLACK
6
CONTINUOUS
10
72.8853549999999899
20
-55.3896449999999945
11
72.8961939999999942
21
-55.4058659999999961
0
LINE
8
BLACK
6
CONTINUOUS
10
72.8961939999999942
20
-55.4058659999999961
11
72.8999999999999915
21
-55.4249999999999972
0
LINE
8
BLACK
6
CONTINUOUS
10
72.8999999999999915
20
-55.4249999999999972
11
72.8999999999999915
21
-56.7749999999999986
0
LINE
8
BLACK
6
CONTINUOUS
10
72.8999999999999915
20
-56.7749999999999986
11
72.8961939999999942
21
-56.7941339999999997
0
LINE
8
BLACK
6
CONTINUOUS
10
72.8961939999999942
20
-56.7941339999999997
11
72.8853549999999899
21
-56.8103549999999942
0
LINE
8
BLACK
6
CONTINUOUS
10
72.8853549999999899
20
-56.8103549999999942
11
72.8691340000000025
21
-56.8211939999999984
0
LINE
8
BLACK
6
CONTINUOUS
10
72.8691340000000025
20
-56.8211939999999984
11
72.8499999999999943
21
-56.8249999999999957
0
LINE
8
BLACK
6
CONTINUOUS
10
72.8499999999999943
20
-56.8249999999999957
11
72.6499999999999915
21
-56.8249999999999957
0
LINE
8
BLACK
6
CONTINUOUS
10
72.6499999999999915
20
-56.8249999999999957
11
72.6308659999999975
21
-56.8211939999999984
0
LINE
8
BLACK
6
CONTINUOUS
10
72.6308659999999975
20
-56.8211939999999984
11
72.6146449999999959
21
-56.8103549999999942
0
LINE
8
BLACK
6
CONTINUOUS
10
72.6146449999999959
20
-56.8103549999999942
11
72.6038059999999916
21
-56.7941339999999997
0
LINE
8
BLACK
6
CONTINUOUS
10
72.6038059999999916
20
-56.7941339999999997
11
72.5999999999999943
21
-56.7749999999999986
0
LINE
8
BLACK
6
CONTINUOUS
10
72.5999999999999943
20
-56.7749999999999986
11
72.5999999999999943
21
-55.4249999999999972
0
LINE
8
BLACK
6
CONTINUOUS
10
72.5999999999999943
20
-55.4249999999999972
11
72.6038059999999916
21
-55.4058659999999961
0
LINE
8
BLACK
6
CONTINUOUS
10
72.6038059999999916
20
-55.4058659999999961
11
72.6146449999999959
21
-55.3896449999999945
0
LINE
8
BLACK
6
CONTINUOUS
10
72.6146449999999959
20
-55.3896449999999945
11
72.6308659999999975
21
-55.3788059999999973
0
LINE
8
BLACK
6
CONTINUOUS
10
72.6308659999999975
20
-55.3788059999999973
11
72.6499999999999915
21
-55.375
0
LINE
8
BLACK
6
CONTINUOUS
10
72.6499999999999915
20
-55.375
11
72.8499999999999943
21
-55.375
0
LINE
8
BLACK
6
CONTINUOUS
10
72.8499999999999943
20
-55.375
11
72.8691340000000025
21
-55.3788059999999973
0
LINE
8
BLACK
6
CONTINUOUS
10
73.3691340000000025
20
-55.3788059999999973
11
73.3853549999999899
21
-55.3896449999999945
0
LINE
8
BLACK
6
CONTINUOUS
10
73.3853549999999899
20
-55.3896449999999945
11
73.3961939999999942
21
-55.4058659999999961
0
LINE
8
BLACK
6
CONTINUOUS
10
73.3961939999999942
20
-55.4058659999999961
11
73.3999999999999915
21
-55.4249999999999972
0
LINE
8
BLACK
6
CONTINUOUS
10
73.3999999999999915
20
-55.4249999999999972
11
73.3999999999999915
21
-56.7749999999999986
0
LINE
8
BLACK
6
CONTINUOUS
10
73.3999999999999915
20
-56.7749999999999986
11
73.3961939999999942
21
-56.7941339999999997
0
LINE
8
BLACK
6
CONTINUOUS
10
73.3961939999999942
20
-56.7941339999999997
11
73.3853549999999899
21
-56.8103549999999942
0
LINE
8
BLACK
6
CONTINUOUS
10
73.3853549999999899
20
-56.8103549999999942
11
73.3691340000000025
21
-56.8211939999999984
0
LINE
8
BLACK
6
CONTINUOUS
10
73.3691340000000025
20
-56.8211939999999984
11
73.3499999999999943
21
-56.8249999999999957
0
LINE
8
BLACK
6
CONTINUOUS
10
73.3499999999999943
20
-56.8249999999999957
11
73.1499999999999915
21
-56.8249999999999957
0
LINE
8
BLACK
6
CONTINUOUS
10
73.1499999999999915
20
-56.8249999999999957
11
73.1308659999999975
21
-56.8211939999999984
0
LINE
8
BLACK
6
CONTINUOUS
10
73.1308659999999975
20
-56.8211939999999984
11
73.1146449999999959
21
-56.8103549999999942
0
LINE
8
BLACK
6
CONTINUOUS
10
73.1146449999999959
20
-56.8103549999999942
11
73.1038059999999916
21
-56.7941339999999997
0
LINE
8
BLACK
6
CONTINUOUS
10
73.1038059999999916
20
-56.7941339999999997
11
73.0999999999999943
21
-56.7749999999999986
0
LINE
8
BLACK
6
CONTINUOUS
10
73.0999999999999943
20
-56.7749999999999986
11
73.0999999999999943
21
-55.4249999999999972
0
LINE
8
BLACK
6
CONTINUOUS
10
73.0999999999999943
20
-55.4249999999999972
11
73.1038059999999916
21
-55.4058659999999961
0
LINE
8
BLACK
6
CONTINUOUS
10
73.1038059999999916
20
-55.4058659999999961
11
73.1146449999999959
21
-55.3896449999999945
0
LINE
8
BLACK
6
CONTINUOUS
10
73.1146449999999959
20
-55.3896449999999945
11
73.1308659999999975
21
-55.3788059999999973
0
LINE
8
BLACK
6
CONTINUOUS
10
73.1308659999999975
20
-55.3788059999999973
11
73.1499999999999915
21
-55.375
0
LINE
8
BLACK
6
CONTINUOUS
10
73.1499999999999915
20
-55.375
11
73.3499999999999943
21
-55.375
0
LINE
8
BLACK
6
CONTINUOUS
10
73.3499999999999943
20
-55.375
11
73.3691340000000025
21
-55.3788059999999973
0
LINE
8
BLACK
6
CONTINUOUS
10
73.8691340000000025
20
-55.3788059999999973
11
73.8853549999999899
21
-55.3896449999999945
0
LINE
8
BLACK
6
CONTINUOUS
10
73.8853549999999899
20
-55.3896449999999945
11
73.8961939999999942
21
-55.4058659999999961
0
LINE
8
BLACK
6
CONTINUOUS
10
73.8961939999999942
20
-55.4058659999999961
11
73.8999999999999915
21
-55.4249999999999972
0
LINE
8
BLACK
6
CONTINUOUS
10
73.8999999999999915
20
-55.4249999999999972
11
73.8999999999999915
21
-56.7749999999999986
0
LINE
8
BLACK
6
CONTINUOUS
10
73.8999999999999915
20
-56.7749999999999986
11
73.8961939999999942
21
-56.7941339999999997
0
LINE
8
BLACK
6
CONTINUOUS
10
73.8961939999999942
20
-56.7941339999999997
11
73.8853549999999899
21
-56.8103549999999942
0
LINE
8
BLACK
6
CONTINUOUS
10
73.8853549999999899
20
-56.8103549999999942
11
73.8691340000000025
21
-56.8211939999999984
0
LINE
8
BLACK
6
CONTINUOUS
10
73.8691340000000025
20
-56.8211939999999984
11
73.8499999999999943
21
-56.8249999999999957
0
LINE
8
BLACK
6
CONTINUOUS
10
73.8499999999999943
20
-56.8249999999999957
11
73.6499999999999915
21
-56.8249999999999957
0
LINE
8
BLACK
6
CONTINUOUS
10
73.6499999999999915
20
-56.8249999999999957
11
73.6308659999999975
21
-56.8211939999999984
0
LINE
8
BLACK
6
CONTINUOUS
10
73.6308659999999975
20
-56.8211939999999984
11
73.6146449999999959
21
-56.8103549999999942
0
LINE
8
BLACK
6
CONTINUOUS
10
73.6146449999999959
20
-56.8103549999999942
11
73.6038059999999916
21
-56.7941339999999997
0
LINE
8
BLACK
6
CONTINUOUS
10
73.6038059999999916
20
-56.7941339999999997
11
73.5999999999999943
21
-56.7749999999999986
0
LINE
8
BLACK
6
CONTINUOUS
10
73.5999999999999943
20
-56.7749999999999986
11
73.5999999999999943
21
-55.4249999999999972
0
LINE
8
BLACK
6
CONTINUOUS
10
73.5999999999999943
20
-55.4249999999999972
11
73.6038059999999916
21
-55.4058659999999961
0
LINE
8
BLACK
6
CONTINUOUS
10
73.6038059999999916
20
-55.4058659999999961
11
73.6146449999999959
21
-55.3896449999999945
0
LINE
8
BLACK
6
CONTINUOUS
10
73.6146449999999959
20
-55.3896449999999945
11
73.6308659999999975
21
-55.3788059999999973
0
LINE
8
BLACK
6
CONTINUOUS
10
73.6308659999999975
20
-55.3788059999999973
11
73.6499999999999915
21
-55.375
0
LINE
8
BLACK
6
CONTINUOUS
10
73.6499999999999915
20
-55.375
11
73.8499999999999943
21
-55.375
0
LINE
8
BLACK
6
CONTINUOUS
10
73.8499999999999943
20
-55.375
11
73.8691340000000025
21
-55.3788059999999973
0
LINE
8
BLACK
6
CONTINUOUS
10
74.3691340000000025
20
-55.3788059999999973
11
74.3853549999999899
21
-55.3896449999999945
0
LINE
8
BLACK
6
CONTINUOUS
10
74.3853549999999899
20
-55.3896449999999945
11
74.3961939999999942
21
-55.4058659999999961
0
LINE
8
BLACK
6
CONTINUOUS
10
74.3961939999999942
20
-55.4058659999999961
11
74.3999999999999915
21
-55.4249999999999972
0
LINE
8
BLACK
6
CONTINUOUS
10
74.3999999999999915
20
-55.4249999999999972
11
74.3999999999999915
21
-56.7749999999999986
0
LINE
8
BLACK
6
CONTINUOUS
10
74.3999999999999915
20
-56.7749999999999986
11
74.3961939999999942
21
-56.7941339999999997
0
LINE
8
BLACK
6
CONTINUOUS
10
74.3961939999999942
20
-56.7941339999999997
11
74.3853549999999899
21
-56.8103549999999942
0
LINE
8
BLACK
6
CONTINUOUS
10
74.3853549999999899
20
-56.8103549999999942
11
74.3691340000000025
21
-56.8211939999999984
0
LINE
8
BLACK
6
CONTINUOUS
10
74.3691340000000025
20
-56.8211939999999984
11
74.3499999999999943
21
-56.8249999999999957
0
LINE
8
BLACK
6
CONTINUOUS
10
74.3499999999999943
20
-56.8249999999999957
11
74.1499999999999915
21
-56.8249999999999957
0
LINE
8
BLACK
6
CONTINUOUS
10
74.1499999999999915
20
-56.8249999999999957
11
74.1308659999999975
21
-56.8211939999999984
0
LINE
8
BLACK
6
CONTINUOUS
10
74.1308659999999975
20
-56.8211939999999984
11
74.1146449999999959
21
-56.8103549999999942
0
LINE
8
BLACK
6
CONTINUOUS
10
74.1146449999999959
20
-56.8103549999999942
11
74.1038059999999916
21
-56.7941339999999997
0
LINE
8
BLACK
6
CONTINUOUS
10
74.1038059999999916
20
-56.7941339999999997
11
74.0999999999999943
21
-56.7749999999999986
0
LINE
8
BLACK
6
CONTINUOUS
10
74.0999999999999943
20
-56.7749999999999986
11
74.0999999999999943
21
-55.4249999999999972
0
LINE
8
BLACK
6
CONTINUOUS
10
74.0999999999999943
20
-55.4249999999999972
11
74.1038059999999916
21
-55.4058659999999961
0
LINE
8
BLACK
6
CONTINUOUS
10
74.1038059999999916
20
-55.4058659999999961
11
74.1146449999999959
21
-55.3896449999999945
0
LINE
8
BLACK
6
CONTINUOUS
10
74.1146449999999959
20
-55.3896449999999945
11
74.1308659999999975
21
-55.3788059999999973
0
LINE
8
BLACK
6
CONTINUOUS
10
74.1308659999999975
20
-55.3788059999999973
11
74.1499999999999915
21
-55.375
0
LINE
8
BLACK
6
CONTINUOUS
10
74.1499999999999915
20
-55.375
11
74.3499999999999943
21
-55.375
0
LINE
8
BLACK
6
CONTINUOUS
10
74.3499999999999943
20
-55.375
11
74.3691340000000025
21
-55.3788059999999973
0
LINE
8
BLACK
6
CONTINUOUS
10
74.8691340000000025
20
-55.3788059999999973
11
74.8853549999999899
21
-55.3896449999999945
0
LINE
8
BLACK
6
CONTINUOUS
10
74.8853549999999899
20
-55.3896449999999945
11
74.8961939999999942
21
-55.4058659999999961
0
LINE
8
BLACK
6
CONTINUOUS
10
74.8961939999999942
20
-55.4058659999999961
11
74.8999999999999915
21
-55.4249999999999972
0
LINE
8
BLACK
6
CONTINUOUS
10
74.8999999999999915
20
-55.4249999999999972
11
74.8999999999999915
21
-56.7749999999999986
0
LINE
8
BLACK
6
CONTINUOUS
10
74.8999999999999915
20
-56.7749999999999986
11
74.8961939999999942
21
-56.7941339999999997
0
LINE
8
BLACK
6
CONTINUOUS
10
74.8961939999999942
20
-56.7941339999999997
11
74.8853549999999899
21
-56.8103549999999942
0
LINE
8
BLACK
6
CONTINUOUS
10
74.8853549999999899
20
-56.8103549999999942
11
74.8691340000000025
21
-56.8211939999999984
0
LINE
8
BLACK
6
CONTINUOUS
10
74.8691340000000025
20
-56.8211939999999984
11
74.8499999999999943
21
-56.8249999999999957
0
LINE
8
BLACK
6
CONTINUOUS
10
74.8499999999999943
20
-56.8249999999999957
11
74.6499999999999915
21
-56.8249999999999957
0
LINE
8
BLACK
6
CONTINUOUS
10
74.6499999999999915
20
-56.8249999999999957
11
74.6308659999999975
21
-56.8211939999999984
0
LINE
8
BLACK
6
CONTINUOUS
10
74.6308659999999975
20
-56.8211939999999984
11
74.6146449999999959
21
-56.8103549999999942
0
LINE
8
BLACK
6
CONTINUOUS
10
74.6146449999999959
20
-56.8103549999999942
11
74.6038059999999916
21
-56.7941339999999997
0
LINE
8
BLACK
6
CONTINUOUS
10
74.6038059999999916
20
-56.7941339999999997
11
74.5999999999999943
21
-56.7749999999999986
0
LINE
8
BLACK
6
CONTINUOUS
10
74.5999999999999943
20
-56.7749999999999986
11
74.5999999999999943
21
-55.4249999999999972
0
LINE
8
BLACK
6
CONTINUOUS
10
74.5999999999999943
20
-55.4249999999999972
11
74.6038059999999916
21
-55.4058659999999961
0
LINE
8
BLACK
6
CONTINUOUS
10
74.6038059999999916
20
-55.4058659999999961
11
74.6146449999999959
21
-55.3896449999999945
0
LINE
8
BLACK
6
CONTINUOUS
10
74.6146449999999959
20
-55.3896449999999945
11
74.6308659999999975
21
-55.3788059999999973
0
LINE
8
BLACK
6
CONTINUOUS
10
74.6308659999999975
20
-55.3788059999999973
11
74.6499999999999915
21
-55.375
0
LINE
8
BLACK
6
CONTINUOUS
10
74.6499999999999915
20
-55.375
11
74.8499999999999943
21
-55.375
0
LINE
8
BLACK
6
CONTINUOUS
10
74.8499999999999943
20
-55.375
11
74.8691340000000025
21
-55.3788059999999973
0
LINE
8
BLACK
6
CONTINUOUS
10
75.3691340000000025
20
-55.3788059999999973
11
75.3853549999999899
21
-55.3896449999999945
0
LINE
8
BLACK
6
CONTINUOUS
10
75.3853549999999899
20
-55.3896449999999945
11
75.3961939999999942
21
-55.4058659999999961
0
LINE
8
BLACK
6
CONTINUOUS
10
75.3961939999999942
20
-55.4058659999999961
11
75.3999999999999915
21
-55.4249999999999972
0
LINE
8
BLACK
6
CONTINUOUS
10
75.3999999999999915
20
-55.4249999999999972
11
75.3999999999999915
21
-56.7749999999999986
0
LINE
8
BLACK
6
CONTINUOUS
10
75.3999999999999915
20
-56.7749999999999986
11
75.3961939999999942
21
-56.7941339999999997
0
LINE
8
BLACK
6
CONTINUOUS
10
75.3961939999999942
20
-56.7941339999999997
11
75.3853549999999899
21
-56.8103549999999942
0
LINE
8
BLACK
6
CONTINUOUS
10
75.3853549999999899
20
-56.8103549999999942
11
75.3691340000000025
21
-56.8211939999999984
0
LINE
8
BLACK
6
CONTINUOUS
10
75.3691340000000025
20
-56.8211939999999984
11
75.3499999999999943
21
-56.8249999999999957
0
LINE
8
BLACK
6
CONTINUOUS
10
75.3499999999999943
20
-56.8249999999999957
11
75.1499999999999915
21
-56.8249999999999957
0
LINE
8
BLACK
6
CONTINUOUS
10
75.1499999999999915
20
-56.8249999999999957
11
75.1308659999999975
21
-56.8211939999999984
0
LINE
8
BLACK
6
CONTINUOUS
10
75.1308659999999975
20
-56.8211939999999984
11
75.1146449999999959
21
-56.8103549999999942
0
LINE
8
BLACK
6
CONTINUOUS
10
75.1146449999999959
20
-56.8103549999999942
11
75.1038059999999916
21
-56.7941339999999997
0
LINE
8
BLACK
6
CONTINUOUS
10
75.1038059999999916
20
-56.7941339999999997
11
75.0999999999999943
21
-56.7749999999999986
0
LINE
8
BLACK
6
CONTINUOUS
10
75.0999999999999943
20
-56.7749999999999986
11
75.0999999999999943
21
-55.4249999999999972
0
LINE
8
BLACK
6
CONTINUOUS
10
75.0999999999999943
20
-55.4249999999999972
11
75.1038059999999916
21
-55.4058659999999961
0
LINE
8
BLACK
6
CONTINUOUS
10
75.1038059999999916
20
-55.4058659999999961
11
75.1146449999999959
21
-55.3896449999999945
0
LINE
8
BLACK
6
CONTINUOUS
10
75.1146449999999959
20
-55.3896449999999945
11
75.1308659999999975
21
-55.3788059999999973
0
LINE
8
BLACK
6
CONTINUOUS
10
75.1308659999999975
20
-55.3788059999999973
11
75.1499999999999915
21
-55.375
0
LINE
8
BLACK
6
CONTINUOUS
10
75.1499999999999915
20
-55.375
11
75.3499999999999943
21
-55.375
0
LINE
8
BLACK
6
CONTINUOUS
10
75.3499999999999943
20
-55.375
11
75.3691340000000025
21
-55.3788059999999973
0
LINE
8
BLACK
6
CONTINUOUS
10
76.2191339999999968
20
-55.3788059999999973
11
76.2353549999999984
21
-55.3896449999999945
0
LINE
8
BLACK
6
CONTINUOUS
10
76.2353549999999984
20
-55.3896449999999945
11
76.2461940000000027
21
-55.4058659999999961
0
LINE
8
BLACK
6
CONTINUOUS
10
76.2461940000000027
20
-55.4058659999999961
11
76.25
21
-55.4249999999999972
0
LINE
8
BLACK
6
CONTINUOUS
10
76.25
20
-55.4249999999999972
11
76.25
21
-56.7749999999999986
0
LINE
8
BLACK
6
CONTINUOUS
10
76.25
20
-56.7749999999999986
11
76.2461940000000027
21
-56.7941339999999997
0
LINE
8
BLACK
6
CONTINUOUS
10
76.2461940000000027
20
-56.7941339999999997
11
76.2353549999999984
21
-56.8103549999999942
0
LINE
8
BLACK
6
CONTINUOUS
10
76.2353549999999984
20
-56.8103549999999942
11
76.2191339999999968
21
-56.8211939999999984
0
LINE
8
BLACK
6
CONTINUOUS
10
76.2191339999999968
20
-56.8211939999999984
11
76.2000000000000028
21
-56.8249999999999957
0
LINE
8
BLACK
6
CONTINUOUS
10
76.2000000000000028
20
-56.8249999999999957
11
75.7000000000000028
21
-56.8249999999999957
0
LINE
8
BLACK
6
CONTINUOUS
10
75.7000000000000028
20
-56.8249999999999957
11
75.6808659999999946
21
-56.8211939999999984
0
LINE
8
BLACK
6
CONTINUOUS
10
75.6808659999999946
20
-56.8211939999999984
11
75.664644999999993
21
-56.8103549999999942
0
LINE
8
BLACK
6
CONTINUOUS
10
75.664644999999993
20
-56.8103549999999942
11
75.653806000000003
21
-56.7941339999999997
0
LINE
8
BLACK
6
CONTINUOUS
10
75.653806000000003
20
-56.7941339999999997
11
75.6499999999999915
21
-56.7749999999999986
0
LINE
8
BLACK
6
CONTINUOUS
10
75.6499999999999915
20
-56.7749999999999986
11
75.6499999999999915
21
-55.4249999999999972
0
LINE
8
BLACK
6
CONTINUOUS
10
75.6499999999999915
20
-55.4249999999999972
11
75.653806000000003
21
-55.4058659999999961
0
LINE
8
BLACK
6
CONTINUOUS
10
75.653806000000003
20
-55.4058659999999961
11
75.664644999999993
21
-55.3896449999999945
0
LINE
8
BLACK
6
CONTINUOUS
10
75.664644999999993
20
-55.3896449999999945
11
75.6808659999999946
21
-55.3788059999999973
0
LINE
8
BLACK
6
CONTINUOUS
10
75.6808659999999946
20
-55.3788059999999973
11
75.7000000000000028
21
-55.375
0
LINE
8
BLACK
6
CONTINUOUS
10
75.7000000000000028
20
-55.375
11
76.2000000000000028
21
-55.375
0
LINE
8
BLACK
6
CONTINUOUS
10
76.2000000000000028
20
-55.375
11
76.2191339999999968
21
-55.3788059999999973
0
LINE
8
BLACK
6
CONTINUOUS
10
76.9941340000000025
20
-55.3788059999999973
11
77.0103549999999899
21
-55.3896449999999945
0
LINE
8
BLACK
6
CONTINUOUS
10
77.0103549999999899
20
-55.3896449999999945
11
77.0211939999999942
21
-55.4058659999999961
0
LINE
8
BLACK
6
CONTINUOUS
10
77.0211939999999942
20
-55.4058659999999961
11
77.0249999999999915
21
-55.4249999999999972
0
LINE
8
BLACK
6
CONTINUOUS
10
77.0249999999999915
20
-55.4249999999999972
11
77.0249999999999915
21
-56.7749999999999986
0
LINE
8
BLACK
6
CONTINUOUS
10
77.0249999999999915
20
-56.7749999999999986
11
77.0211939999999942
21
-56.7941339999999997
0
LINE
8
BLACK
6
CONTINUOUS
10
77.0211939999999942
20
-56.7941339999999997
11
77.0103549999999899
21
-56.8103549999999942
0
LINE
8
BLACK
6
CONTINUOUS
10
77.0103549999999899
20
-56.8103549999999942
11
76.9941340000000025
21
-56.8211939999999984
0
LINE
8
BLACK
6
CONTINUOUS
10
76.9941340000000025
20
-56.8211939999999984
11
76.9749999999999943
21
-56.8249999999999957
0
LINE
8
BLACK
6
CONTINUOUS
10
76.9749999999999943
20
-56.8249999999999957
11
76.4749999999999943
21
-56.8249999999999957
0
LINE
8
BLACK
6
CONTINUOUS
10
76.4749999999999943
20
-56.8249999999999957
11
76.4558660000000003
21
-56.8211939999999984
0
LINE
8
BLACK
6
CONTINUOUS
10
76.4558660000000003
20
-56.8211939999999984
11
76.4396449999999987
21
-56.8103549999999942
0
LINE
8
BLACK
6
CONTINUOUS
10
76.4396449999999987
20
-56.8103549999999942
11
76.4288059999999945
21
-56.7941339999999997
0
LINE
8
BLACK
6
CONTINUOUS
10
76.4288059999999945
20
-56.7941339999999997
11
76.4249999999999972
21
-56.7749999999999986
0
LINE
8
BLACK
6
CONTINUOUS
10
76.4249999999999972
20
-56.7749999999999986
11
76.4249999999999972
21
-55.4249999999999972
0
LINE
8
BLACK
6
CONTINUOUS
10
76.4249999999999972
20
-55.4249999999999972
11
76.4288059999999945
21
-55.4058659999999961
0
LINE
8
BLACK
6
CONTINUOUS
10
76.4288059999999945
20
-55.4058659999999961
11
76.4396449999999987
21
-55.3896449999999945
0
LINE
8
BLACK
6
CONTINUOUS
10
76.4396449999999987
20
-55.3896449999999945
11
76.4558660000000003
21
-55.3788059999999973
0
LINE
8
BLACK
6
CONTINUOUS
10
76.4558660000000003
20
-55.3788059999999973
11
76.4749999999999943
21
-55.375
0
LINE
8
BLACK
6
CONTINUOUS
10
76.4749999999999943
20
-55.375
11
76.9749999999999943
21
-55.375
0
LINE
8
BLACK
6
CONTINUOUS
10
76.9749999999999943
20
-55.375
11
76.9941340000000025
21
-55.3788059999999973
0
LINE
8
BLACK
6
CONTINUOUS
10
66.5437009999999987
20
-56.4557089999999988
11
66.5680329999999998
21
-56.4719669999999994
0
LINE
8
BLACK
6
CONTINUOUS
10
66.5680329999999998
20
-56.4719669999999994
11
66.5842909999999932
21
-56.4962990000000005
0
LINE
8
BLACK
6
CONTINUOUS
10
66.5842909999999932
20
-56.4962990000000005
11
66.5900000000000034
21
-56.5249999999999986
0
LINE
8
BLACK
6
CONTINUOUS
10
66.5900000000000034
20
-56.5249999999999986
11
66.5900000000000034
21
-56.6749999999999972
0
LINE
8
BLACK
6
CONTINUOUS
10
66.5900000000000034
20
-56.6749999999999972
11
66.5842909999999932
21
-56.7037009999999952
0
LINE
8
BLACK
6
CONTINUOUS
10
66.5842909999999932
20
-56.7037009999999952
11
66.5680329999999998
21
-56.7280329999999964
0
LINE
8
BLACK
6
CONTINUOUS
10
66.5680329999999998
20
-56.7280329999999964
11
66.5437009999999987
21
-56.7442909999999969
0
LINE
8
BLACK
6
CONTINUOUS
10
66.5437009999999987
20
-56.7442909999999969
11
66.5150000000000006
21
-56.75
0
LINE
8
BLACK
6
CONTINUOUS
10
66.5150000000000006
20
-56.75
11
66.1149999999999949
21
-56.75
0
LINE
8
BLACK
6
CONTINUOUS
10
66.1149999999999949
20
-56.75
11
66.0862989999999968
21
-56.7442909999999969
0
LINE
8
BLACK
6
CONTINUOUS
10
66.0862989999999968
20
-56.7442909999999969
11
66.0619669999999957
21
-56.7280329999999964
0
LINE
8
BLACK
6
CONTINUOUS
10
66.0619669999999957
20
-56.7280329999999964
11
66.0457090000000022
21
-56.7037009999999952
0
LINE
8
BLACK
6
CONTINUOUS
10
66.0457090000000022
20
-56.7037009999999952
11
66.039999999999992
21
-56.6749999999999972
0
LINE
8
BLACK
6
CONTINUOUS
10
66.039999999999992
20
-56.6749999999999972
11
66.039999999999992
21
-56.5249999999999986
0
LINE
8
BLACK
6
CONTINUOUS
10
66.039999999999992
20
-56.5249999999999986
11
66.0457090000000022
21
-56.4962990000000005
0
LINE
8
BLACK
6
CONTINUOUS
10
66.0457090000000022
20
-56.4962990000000005
11
66.0619669999999957
21
-56.4719669999999994
0
LINE
8
BLACK
6
CONTINUOUS
10
66.0619669999999957
20
-56.4719669999999994
11
66.0862989999999968
21
-56.4557089999999988
0
LINE
8
BLACK
6
CONTINUOUS
10
66.0862989999999968
20
-56.4557089999999988
11
66.1149999999999949
21
-56.4499999999999957
0
LINE
8
BLACK
6
CONTINUOUS
10
66.1149999999999949
20
-56.4499999999999957
11
66.5150000000000006
21
-56.4499999999999957
0
LINE
8
BLACK
6
CONTINUOUS
10
66.5150000000000006
20
-56.4499999999999957
11
66.5437009999999987
21
-56.4557089999999988
0
LINE
8
BLACK
6
CONTINUOUS
10
67.3137009999999947
20
-56.4557089999999988
11
67.3380329999999958
21
-56.4719669999999994
0
LINE
8
BLACK
6
CONTINUOUS
10
67.3380329999999958
20
-56.4719669999999994
11
67.3542910000000035
21
-56.4962990000000005
0
LINE
8
BLACK
6
CONTINUOUS
10
67.3542910000000035
20
-56.4962990000000005
11
67.3599999999999994
21
-56.5249999999999986
0
LINE
8
BLACK
6
CONTINUOUS
10
67.3599999999999994
20
-56.5249999999999986
11
67.3599999999999994
21
-56.6749999999999972
0
LINE
8
BLACK
6
CONTINUOUS
10
67.3599999999999994
20
-56.6749999999999972
11
67.3542910000000035
21
-56.7037009999999952
0
LINE
8
BLACK
6
CONTINUOUS
10
67.3542910000000035
20
-56.7037009999999952
11
67.3380329999999958
21
-56.7280329999999964
0
LINE
8
BLACK
6
CONTINUOUS
10
67.3380329999999958
20
-56.7280329999999964
11
67.3137009999999947
21
-56.7442909999999969
0
LINE
8
BLACK
6
CONTINUOUS
10
67.3137009999999947
20
-56.7442909999999969
11
67.2849999999999966
21
-56.75
0
LINE
8
BLACK
6
CONTINUOUS
10
67.2849999999999966
20
-56.75
11
66.8849999999999909
21
-56.75
0
LINE
8
BLACK
6
CONTINUOUS
10
66.8849999999999909
20
-56.75
11
66.8562989999999928
21
-56.7442909999999969
0
LINE
8
BLACK
6
CONTINUOUS
10
66.8562989999999928
20
-56.7442909999999969
11
66.8319669999999917
21
-56.7280329999999964
0
LINE
8
BLACK
6
CONTINUOUS
10
66.8319669999999917
20
-56.7280329999999964
11
66.8157089999999982
21
-56.7037009999999952
0
LINE
8
BLACK
6
CONTINUOUS
10
66.8157089999999982
20
-56.7037009999999952
11
66.8100000000000023
21
-56.6749999999999972
0
LINE
8
BLACK
6
CONTINUOUS
10
66.8100000000000023
20
-56.6749999999999972
11
66.8100000000000023
21
-56.5249999999999986
0
LINE
8
BLACK
6
CONTINUOUS
10
66.8100000000000023
20
-56.5249999999999986
11
66.8157089999999982
21
-56.4962990000000005
0
LINE
8
BLACK
6
CONTINUOUS
10
66.8157089999999982
20
-56.4962990000000005
11
66.8319669999999917
21
-56.4719669999999994
0
LINE
8
BLACK
6
CONTINUOUS
10
66.8319669999999917
20
-56.4719669999999994
11
66.8562989999999928
21
-56.4557089999999988
0
LINE
8
BLACK
6
CONTINUOUS
10
66.8562989999999928
20
-56.4557089999999988
11
66.8849999999999909
21
-56.4499999999999957
0
LINE
8
BLACK
6
CONTINUOUS
10
66.8849999999999909
20
-56.4499999999999957
11
67.2849999999999966
21
-56.4499999999999957
0
LINE
8
BLACK
6
CONTINUOUS
10
67.2849999999999966
20
-56.4499999999999957
11
67.3137009999999947
21
-56.4557089999999988
0
LINE
8
BLACK
6
CONTINUOUS
10
66.5437009999999987
20
-55.9557089999999988
11
66.5680329999999998
21
-55.9719669999999994
0
LINE
8
BLACK
6
CONTINUOUS
10
66.5680329999999998
20
-55.9719669999999994
11
66.5842909999999932
21
-55.9962990000000005
0
LINE
8
BLACK
6
CONTINUOUS
10
66.5842909999999932
20
-55.9962990000000005
11
66.5900000000000034
21
-56.0249999999999986
0
LINE
8
BLACK
6
CONTINUOUS
10
66.5900000000000034
20
-56.0249999999999986
11
66.5900000000000034
21
-56.1749999999999972
0
LINE
8
BLACK
6
CONTINUOUS
10
66.5900000000000034
20
-56.1749999999999972
11
66.5842909999999932
21
-56.2037009999999952
0
LINE
8
BLACK
6
CONTINUOUS
10
66.5842909999999932
20
-56.2037009999999952
11
66.5680329999999998
21
-56.2280329999999964
0
LINE
8
BLACK
6
CONTINUOUS
10
66.5680329999999998
20
-56.2280329999999964
11
66.5437009999999987
21
-56.2442909999999969
0
LINE
8
BLACK
6
CONTINUOUS
10
66.5437009999999987
20
-56.2442909999999969
11
66.5150000000000006
21
-56.25
0
LINE
8
BLACK
6
CONTINUOUS
10
66.5150000000000006
20
-56.25
11
66.1149999999999949
21
-56.25
0
LINE
8
BLACK
6
CONTINUOUS
10
66.1149999999999949
20
-56.25
11
66.0862989999999968
21
-56.2442909999999969
0
LINE
8
BLACK
6
CONTINUOUS
10
66.0862989999999968
20
-56.2442909999999969
11
66.0619669999999957
21
-56.2280329999999964
0
LINE
8
BLACK
6
CONTINUOUS
10
66.0619669999999957
20
-56.2280329999999964
11
66.0457090000000022
21
-56.2037009999999952
0
LINE
8
BLACK
6
CONTINUOUS
10
66.0457090000000022
20
-56.2037009999999952
11
66.039999999999992
21
-56.1749999999999972
0
LINE
8
BLACK
6
CONTINUOUS
10
66.039999999999992
20
-56.1749999999999972
11
66.039999999999992
21
-56.0249999999999986
0
LINE
8
BLACK
6
CONTINUOUS
10
66.039999999999992
20
-56.0249999999999986
11
66.0457090000000022
21
-55.9962990000000005
0
LINE
8
BLACK
6
CONTINUOUS
10
66.0457090000000022
20
-55.9962990000000005
11
66.0619669999999957
21
-55.9719669999999994
0
LINE
8
BLACK
6
CONTINUOUS
10
66.0619669999999957
20
-55.9719669999999994
11
66.0862989999999968
21
-55.9557089999999988
0
LINE
8
BLACK
6
CONTINUOUS
10
66.0862989999999968
20
-55.9557089999999988
11
66.1149999999999949
21
-55.9499999999999957
0
LINE
8
BLACK
6
CONTINUOUS
10
66.1149999999999949
20
-55.9499999999999957
11
66.5150000000000006
21
-55.9499999999999957
0
LINE
8
BLACK
6
CONTINUOUS
10
66.5150000000000006
20
-55.9499999999999957
11
66.5437009999999987
21
-55.9557089999999988
0
LINE
8
BLACK
6
CONTINUOUS
10
67.3137009999999947
20
-55.9557089999999988
11
67.3380329999999958
21
-55.9719669999999994
0
LINE
8
BLACK
6
CONTINUOUS
10
67.3380329999999958
20
-55.9719669999999994
11
67.3542910000000035
21
-55.9962990000000005
0
LINE
8
BLACK
6
CONTINUOUS
10
67.3542910000000035
20
-55.9962990000000005
11
67.3599999999999994
21
-56.0249999999999986
0
LINE
8
BLACK
6
CONTINUOUS
10
67.3599999999999994
20
-56.0249999999999986
11
67.3599999999999994
21
-56.1749999999999972
0
LINE
8
BLACK
6
CONTINUOUS
10
67.3599999999999994
20
-56.1749999999999972
11
67.3542910000000035
21
-56.2037009999999952
0
LINE
8
BLACK
6
CONTINUOUS
10
67.3542910000000035
20
-56.2037009999999952
11
67.3380329999999958
21
-56.2280329999999964
0
LINE
8
BLACK
6
CONTINUOUS
10
67.3380329999999958
20
-56.2280329999999964
11
67.3137009999999947
21
-56.2442909999999969
0
LINE
8
BLACK
6
CONTINUOUS
10
67.3137009999999947
20
-56.2442909999999969
11
67.2849999999999966
21
-56.25
0
LINE
8
BLACK
6
CONTINUOUS
10
67.2849999999999966
20
-56.25
11
66.8849999999999909
21
-56.25
0
LINE
8
BLACK
6
CONTINUOUS
10
66.8849999999999909
20
-56.25
11
66.8562989999999928
21
-56.2442909999999969
0
LINE
8
BLACK
6
CONTINUOUS
10
66.8562989999999928
20
-56.2442909999999969
11
66.8319669999999917
21
-56.2280329999999964
0
LINE
8
BLACK
6
CONTINUOUS
10
66.8319669999999917
20
-56.2280329999999964
11
66.8157089999999982
21
-56.2037009999999952
0
LINE
8
BLACK
6
CONTINUOUS
10
66.8157089999999982
20
-56.2037009999999952
11
66.8100000000000023
21
-56.1749999999999972
0
LINE
8
BLACK
6
CONTINUOUS
10
66.8100000000000023
20
-56.1749999999999972
11
66.8100000000000023
21
-56.0249999999999986
0
LINE
8
BLACK
6
CONTINUOUS
10
66.8100000000000023
20
-56.0249999999999986
11
66.8157089999999982
21
-55.9962990000000005
0
LINE
8
BLACK
6
CONTINUOUS
10
66.8157089999999982
20
-55.9962990000000005
11
66.8319669999999917
21
-55.9719669999999994
0
LINE
8
BLACK
6
CONTINUOUS
10
66.8319669999999917
20
-55.9719669999999994
11
66.8562989999999928
21
-55.9557089999999988
0
LINE
8
BLACK
6
CONTINUOUS
10
66.8562989999999928
20
-55.9557089999999988
11
66.8849999999999909
21
-55.9499999999999957
0
LINE
8
BLACK
6
CONTINUOUS
10
66.8849999999999909
20
-55.9499999999999957
11
67.2849999999999966
21
-55.9499999999999957
0
LINE
8
BLACK
6
CONTINUOUS
10
67.2849999999999966
20
-55.9499999999999957
11
67.3137009999999947
21
-55.9557089999999988
0
LINE
8
BLACK
6
CONTINUOUS
10
60.1074029999999979
20
-54.136417999999999
11
60.1560659999999956
21
-54.1689340000000001
0
LINE
8
BLACK
6
CONTINUOUS
10
60.1560659999999956
20
-54.1689340000000001
11
60.1885819999999967
21
-54.2175969999999978
0
LINE
8
BLACK
6
CONTINUOUS
10
60.1885819999999967
20
-54.2175969999999978
11
60.1999999999999957
21
-54.2749999999999986
0
LINE
8
BLACK
6
CONTINUOUS
10
60.1999999999999957
20
-54.2749999999999986
11
60.1999999999999957
21
-55.5249999999999986
0
LINE
8
BLACK
6
CONTINUOUS
10
60.1999999999999957
20
-55.5249999999999986
11
60.1885819999999967
21
-55.5824029999999993
0
LINE
8
BLACK
6
CONTINUOUS
10
60.1885819999999967
20
-55.5824029999999993
11
60.1560659999999956
21
-55.631065999999997
0
LINE
8
BLACK
6
CONTINUOUS
10
60.1560659999999956
20
-55.631065999999997
11
60.1074029999999979
21
-55.6635819999999981
0
LINE
8
BLACK
6
CONTINUOUS
10
60.1074029999999979
20
-55.6635819999999981
11
60.0499999999999972
21
-55.6749999999999972
0
LINE
8
BLACK
6
CONTINUOUS
10
60.0499999999999972
20
-55.6749999999999972
11
59.75
21
-55.6749999999999972
0
LINE
8
BLACK
6
CONTINUOUS
10
59.75
20
-55.6749999999999972
11
59.6925969999999992
21
-55.6635819999999981
0
LINE
8
BLACK
6
CONTINUOUS
10
59.6925969999999992
20
-55.6635819999999981
11
59.6439339999999945
21
-55.631065999999997
0
LINE
8
BLACK
6
CONTINUOUS
10
59.6439339999999945
20
-55.631065999999997
11
59.6114180000000005
21
-55.5824029999999993
0
LINE
8
BLACK
6
CONTINUOUS
10
59.6114180000000005
20
-55.5824029999999993
11
59.5999999999999943
21
-55.5249999999999986
0
LINE
8
BLACK
6
CONTINUOUS
10
59.5999999999999943
20
-55.5249999999999986
11
59.5999999999999943
21
-54.2749999999999986
0
LINE
8
BLACK
6
CONTINUOUS
10
59.5999999999999943
20
-54.2749999999999986
11
59.6114180000000005
21
-54.2175969999999978
0
LINE
8
BLACK
6
CONTINUOUS
10
59.6114180000000005
20
-54.2175969999999978
11
59.6439339999999945
21
-54.1689340000000001
0
LINE
8
BLACK
6
CONTINUOUS
10
59.6439339999999945
20
-54.1689340000000001
11
59.6925969999999992
21
-54.136417999999999
0
LINE
8
BLACK
6
CONTINUOUS
10
59.6925969999999992
20
-54.136417999999999
11
59.75
21
-54.125
0
LINE
8
BLACK
6
CONTINUOUS
10
59.75
20
-54.125
11
60.0499999999999972
21
-54.125
0
LINE
8
BLACK
6
CONTINUOUS
10
60.0499999999999972
20
-54.125
11
60.1074029999999979
21
-54.136417999999999
0
LINE
8
BLACK
6
CONTINUOUS
10
61.1074029999999979
20
-54.136417999999999
11
61.1560659999999956
21
-54.1689340000000001
0
LINE
8
BLACK
6
CONTINUOUS
10
61.1560659999999956
20
-54.1689340000000001
11
61.1885819999999967
21
-54.2175969999999978
0
LINE
8
BLACK
6
CONTINUOUS
10
61.1885819999999967
20
-54.2175969999999978
11
61.1999999999999957
21
-54.2749999999999986
0
LINE
8
BLACK
6
CONTINUOUS
10
61.1999999999999957
20
-54.2749999999999986
11
61.1999999999999957
21
-55.5249999999999986
0
LINE
8
BLACK
6
CONTINUOUS
10
61.1999999999999957
20
-55.5249999999999986
11
61.1885819999999967
21
-55.5824029999999993
0
LINE
8
BLACK
6
CONTINUOUS
10
61.1885819999999967
20
-55.5824029999999993
11
61.1560659999999956
21
-55.631065999999997
0
LINE
8
BLACK
6
CONTINUOUS
10
61.1560659999999956
20
-55.631065999999997
11
61.1074029999999979
21
-55.6635819999999981
0
LINE
8
BLACK
6
CONTINUOUS
10
61.1074029999999979
20
-55.6635819999999981
11
61.0499999999999972
21
-55.6749999999999972
0
LINE
8
BLACK
6
CONTINUOUS
10
61.0499999999999972
20
-55.6749999999999972
11
60.75
21
-55.6749999999999972
0
LINE
8
BLACK
6
CONTINUOUS
10
60.75
20
-55.6749999999999972
11
60.6925969999999992
21
-55.6635819999999981
0
LINE
8
BLACK
6
CONTINUOUS
10
60.6925969999999992
20
-55.6635819999999981
11
60.6439339999999945
21
-55.631065999999997
0
LINE
8
BLACK
6
CONTINUOUS
10
60.6439339999999945
20
-55.631065999999997
11
60.6114180000000005
21
-55.5824029999999993
0
LINE
8
BLACK
6
CONTINUOUS
10
60.6114180000000005
20
-55.5824029999999993
11
60.5999999999999943
21
-55.5249999999999986
0
LINE
8
BLACK
6
CONTINUOUS
10
60.5999999999999943
20
-55.5249999999999986
11
60.5999999999999943
21
-54.2749999999999986
0
LINE
8
BLACK
6
CONTINUOUS
10
60.5999999999999943
20
-54.2749999999999986
11
60.6114180000000005
21
-54.2175969999999978
0
LINE
8
BLACK
6
CONTINUOUS
10
60.6114180000000005
20
-54.2175969999999978
11
60.6439339999999945
21
-54.1689340000000001
0
LINE
8
BLACK
6
CONTINUOUS
10
60.6439339999999945
20
-54.1689340000000001
11
60.6925969999999992
21
-54.136417999999999
0
LINE
8
BLACK
6
CONTINUOUS
10
60.6925969999999992
20
-54.136417999999999
11
60.75
21
-54.125
0
LINE
8
BLACK
6
CONTINUOUS
10
60.75
20
-54.125
11
61.0499999999999972
21
-54.125
0
LINE
8
BLACK
6
CONTINUOUS
10
61.0499999999999972
20
-54.125
11
61.1074029999999979
21
-54.136417999999999
0
LINE
8
BLACK
6
CONTINUOUS
10
62.1074029999999979
20
-54.136417999999999
11
62.1560659999999956
21
-54.1689340000000001
0
LINE
8
BLACK
6
CONTINUOUS
10
62.1560659999999956
20
-54.1689340000000001
11
62.1885819999999967
21
-54.2175969999999978
0
LINE
8
BLACK
6
CONTINUOUS
10
62.1885819999999967
20
-54.2175969999999978
11
62.1999999999999957
21
-54.2749999999999986
0
LINE
8
BLACK
6
CONTINUOUS
10
62.1999999999999957
20
-54.2749999999999986
11
62.1999999999999957
21
-55.5249999999999986
0
LINE
8
BLACK
6
CONTINUOUS
10
62.1999999999999957
20
-55.5249999999999986
11
62.1885819999999967
21
-55.5824029999999993
0
LINE
8
BLACK
6
CONTINUOUS
10
62.1885819999999967
20
-55.5824029999999993
11
62.1560659999999956
21
-55.631065999999997
0
LINE
8
BLACK
6
CONTINUOUS
10
62.1560659999999956
20
-55.631065999999997
11
62.1074029999999979
21
-55.6635819999999981
0
LINE
8
BLACK
6
CONTINUOUS
10
62.1074029999999979
20
-55.6635819999999981
11
62.0499999999999972
21
-55.6749999999999972
0
LINE
8
BLACK
6
CONTINUOUS
10
62.0499999999999972
20
-55.6749999999999972
11
61.75
21
-55.6749999999999972
0
LINE
8
BLACK
6
CONTINUOUS
10
61.75
20
-55.6749999999999972
11
61.6925969999999992
21
-55.6635819999999981
0
LINE
8
BLACK
6
CONTINUOUS
10
61.6925969999999992
20
-55.6635819999999981
11
61.6439339999999945
21
-55.631065999999997
0
LINE
8
BLACK
6
CONTINUOUS
10
61.6439339999999945
20
-55.631065999999997
11
61.6114180000000005
21
-55.5824029999999993
0
LINE
8
BLACK
6
CONTINUOUS
10
61.6114180000000005
20
-55.5824029999999993
11
61.5999999999999943
21
-55.5249999999999986
0
LINE
8
BLACK
6
CONTINUOUS
10
61.5999999999999943
20
-55.5249999999999986
11
61.5999999999999943
21
-54.2749999999999986
0
LINE
8
BLACK
6
CONTINUOUS
10
61.5999999999999943
20
-54.2749999999999986
11
61.6114180000000005
21
-54.2175969999999978
0
LINE
8
BLACK
6
CONTINUOUS
10
61.6114180000000005
20
-54.2175969999999978
11
61.6439339999999945
21
-54.1689340000000001
0
LINE
8
BLACK
6
CONTINUOUS
10
61.6439339999999945
20
-54.1689340000000001
11
61.6925969999999992
21
-54.136417999999999
0
LINE
8
BLACK
6
CONTINUOUS
10
61.6925969999999992
20
-54.136417999999999
11
61.75
21
-54.125
0
LINE
8
BLACK
6
CONTINUOUS
10
61.75
20
-54.125
11
62.0499999999999972
21
-54.125
0
LINE
8
BLACK
6
CONTINUOUS
10
62.0499999999999972
20
-54.125
11
62.1074029999999979
21
-54.136417999999999
0
LINE
8
BLACK
6
CONTINUOUS
10
63.1074029999999979
20
-54.136417999999999
11
63.1560659999999956
21
-54.1689340000000001
0
LINE
8
BLACK
6
CONTINUOUS
10
63.1560659999999956
20
-54.1689340000000001
11
63.1885819999999967
21
-54.2175969999999978
0
LINE
8
BLACK
6
CONTINUOUS
10
63.1885819999999967
20
-54.2175969999999978
11
63.1999999999999957
21
-54.2749999999999986
0
LINE
8
BLACK
6
CONTINUOUS
10
63.1999999999999957
20
-54.2749999999999986
11
63.1999999999999957
21
-55.5249999999999986
0
LINE
8
BLACK
6
CONTINUOUS
10
63.1999999999999957
20
-55.5249999999999986
11
63.1885819999999967
21
-55.5824029999999993
0
LINE
8
BLACK
6
CONTINUOUS
10
63.1885819999999967
20
-55.5824029999999993
11
63.1560659999999956
21
-55.631065999999997
0
LINE
8
BLACK
6
CONTINUOUS
10
63.1560659999999956
20
-55.631065999999997
11
63.1074029999999979
21
-55.6635819999999981
0
LINE
8
BLACK
6
CONTINUOUS
10
63.1074029999999979
20
-55.6635819999999981
11
63.0499999999999972
21
-55.6749999999999972
0
LINE
8
BLACK
6
CONTINUOUS
10
63.0499999999999972
20
-55.6749999999999972
11
62.75
21
-55.6749999999999972
0
LINE
8
BLACK
6
CONTINUOUS
10
62.75
20
-55.6749999999999972
11
62.6925969999999992
21
-55.6635819999999981
0
LINE
8
BLACK
6
CONTINUOUS
10
62.6925969999999992
20
-55.6635819999999981
11
62.6439339999999945
21
-55.631065999999997
0
LINE
8
BLACK
6
CONTINUOUS
10
62.6439339999999945
20
-55.631065999999997
11
62.6114180000000005
21
-55.5824029999999993
0
LINE
8
BLACK
6
CONTINUOUS
10
62.6114180000000005
20
-55.5824029999999993
11
62.5999999999999943
21
-55.5249999999999986
0
LINE
8
BLACK
6
CONTINUOUS
10
62.5999999999999943
20
-55.5249999999999986
11
62.5999999999999943
21
-54.2749999999999986
0
LINE
8
BLACK
6
CONTINUOUS
10
62.5999999999999943
20
-54.2749999999999986
11
62.6114180000000005
21
-54.2175969999999978
0
LINE
8
BLACK
6
CONTINUOUS
10
62.6114180000000005
20
-54.2175969999999978
11
62.6439339999999945
21
-54.1689340000000001
0
LINE
8
BLACK
6
CONTINUOUS
10
62.6439339999999945
20
-54.1689340000000001
11
62.6925969999999992
21
-54.136417999999999
0
LINE
8
BLACK
6
CONTINUOUS
10
62.6925969999999992
20
-54.136417999999999
11
62.75
21
-54.125
0
LINE
8
BLACK
6
CONTINUOUS
10
62.75
20
-54.125
11
63.0499999999999972
21
-54.125
0
LINE
8
BLACK
6
CONTINUOUS
10
63.0499999999999972
20
-54.125
11
63.1074029999999979
21
-54.136417999999999
0
LINE
8
BLACK
6
CONTINUOUS
10
66.1515369999999905
20
-54.0402239999999949
11
66.2164209999999969
21
-54.0835790000000003
0
LINE
8
BLACK
6
CONTINUOUS
10
66.2164209999999969
20
-54.0835790000000003
11
66.2597760000000022
21
-54.1484629999999996
0
LINE
8
BLACK
6
CONTINUOUS
10
66.2597760000000022
20
-54.1484629999999996
11
66.2749999999999915
21
-54.2249999999999943
0
LINE
8
BLACK
6
CONTINUOUS
10
66.2749999999999915
20
-54.2249999999999943
11
66.2749999999999915
21
-54.7749999999999986
0
LINE
8
BLACK
6
CONTINUOUS
10
66.2749999999999915
20
-54.7749999999999986
11
66.2597760000000022
21
-54.8515370000000004
0
LINE
8
BLACK
6
CONTINUOUS
10
66.2597760000000022
20
-54.8515370000000004
11
66.2164209999999969
21
-54.9164209999999997
0
LINE
8
BLACK
6
CONTINUOUS
10
66.2164209999999969
20
-54.9164209999999997
11
66.1515369999999905
21
-54.959775999999998
0
LINE
8
BLACK
6
CONTINUOUS
10
66.1515369999999905
20
-54.959775999999998
11
66.0750000000000028
21
-54.9749999999999943
0
LINE
8
BLACK
6
CONTINUOUS
10
66.0750000000000028
20
-54.9749999999999943
11
65.6749999999999972
21
-54.9749999999999943
0
LINE
8
BLACK
6
CONTINUOUS
10
65.6749999999999972
20
-54.9749999999999943
11
65.5984629999999953
21
-54.959775999999998
0
LINE
8
BLACK
6
CONTINUOUS
10
65.5984629999999953
20
-54.959775999999998
11
65.5335790000000031
21
-54.9164209999999997
0
LINE
8
BLACK
6
CONTINUOUS
10
65.5335790000000031
20
-54.9164209999999997
11
65.4902239999999978
21
-54.8515370000000004
0
LINE
8
BLACK
6
CONTINUOUS
10
65.4902239999999978
20
-54.8515370000000004
11
65.4749999999999943
21
-54.7749999999999986
0
LINE
8
BLACK
6
CONTINUOUS
10
65.4749999999999943
20
-54.7749999999999986
11
65.4749999999999943
21
-54.2249999999999943
0
LINE
8
BLACK
6
CONTINUOUS
10
65.4749999999999943
20
-54.2249999999999943
11
65.4902239999999978
21
-54.1484629999999996
0
LINE
8
BLACK
6
CONTINUOUS
10
65.4902239999999978
20
-54.1484629999999996
11
65.5335790000000031
21
-54.0835790000000003
0
LINE
8
BLACK
6
CONTINUOUS
10
65.5335790000000031
20
-54.0835790000000003
11
65.5984629999999953
21
-54.0402239999999949
0
LINE
8
BLACK
6
CONTINUOUS
10
65.5984629999999953
20
-54.0402239999999949
11
65.6749999999999972
21
-54.0249999999999986
0
LINE
8
BLACK
6
CONTINUOUS
10
65.6749999999999972
20
-54.0249999999999986
11
66.0750000000000028
21
-54.0249999999999986
0
LINE
8
BLACK
6
CONTINUOUS
10
66.0750000000000028
20
-54.0249999999999986
11
66.1515369999999905
21
-54.0402239999999949
0
LINE
8
BLACK
6
CONTINUOUS
10
67.8015369999999962
20
-54.0402239999999949
11
67.8664210000000026
21
-54.0835790000000003
0
LINE
8
BLACK
6
CONTINUOUS
10
67.8664210000000026
20
-54.0835790000000003
11
67.9097759999999937
21
-54.1484629999999996
0
LINE
8
BLACK
6
CONTINUOUS
10
67.9097759999999937
20
-54.1484629999999996
11
67.9249999999999972
21
-54.2249999999999943
0
LINE
8
BLACK
6
CONTINUOUS
10
67.9249999999999972
20
-54.2249999999999943
11
67.9249999999999972
21
-54.7749999999999986
0
LINE
8
BLACK
6
CONTINUOUS
10
67.9249999999999972
20
-54.7749999999999986
11
67.9097759999999937
21
-54.8515370000000004
0
LINE
8
BLACK
6
CONTINUOUS
10
67.9097759999999937
20
-54.8515370000000004
11
67.8664210000000026
21
-54.9164209999999997
0
LINE
8
BLACK
6
CONTINUOUS
10
67.8664210000000026
20
-54.9164209999999997
11
67.8015369999999962
21
-54.959775999999998
0
LINE
8
BLACK
6
CONTINUOUS
10
67.8015369999999962
20
-54.959775999999998
11
67.7249999999999943
21
-54.9749999999999943
0
LINE
8
BLACK
6
CONTINUOUS
10
67.7249999999999943
20
-54.9749999999999943
11
67.3250000000000028
21
-54.9749999999999943
0
LINE
8
BLACK
6
CONTINUOUS
10
67.3250000000000028
20
-54.9749999999999943
11
67.248463000000001
21
-54.959775999999998
0
LINE
8
BLACK
6
CONTINUOUS
10
67.248463000000001
20
-54.959775999999998
11
67.1835789999999946
21
-54.9164209999999997
0
LINE
8
BLACK
6
CONTINUOUS
10
67.1835789999999946
20
-54.9164209999999997
11
67.1402240000000035
21
-54.8515370000000004
0
LINE
8
BLACK
6
CONTINUOUS
10
67.1402240000000035
20
-54.8515370000000004
11
67.125
21
-54.7749999999999986
0
LINE
8
BLACK
6
CONTINUOUS
10
67.125
20
-54.7749999999999986
11
67.125
21
-54.2249999999999943
0
LINE
8
BLACK
6
CONTINUOUS
10
67.125
20
-54.2249999999999943
11
67.1402240000000035
21
-54.1484629999999996
0
LINE
8
BLACK
6
CONTINUOUS
10
67.1402240000000035
20
-54.1484629999999996
11
67.1835789999999946
21
-54.0835790000000003
0
LINE
8
BLACK
6
CONTINUOUS
10
67.1835789999999946
20
-54.0835790000000003
11
67.248463000000001
21
-54.0402239999999949
0
LINE
8
BLACK
6
CONTINUOUS
10
67.248463000000001
20
-54.0402239999999949
11
67.3250000000000028
21
-54.0249999999999986
0
LINE
8
BLACK
6
CONTINUOUS
10
67.3250000000000028
20
-54.0249999999999986
11
67.7249999999999943
21
-54.0249999999999986
0
LINE
8
BLACK
6
CONTINUOUS
10
67.7249999999999943
20
-54.0249999999999986
11
67.8015369999999962
21
-54.0402239999999949
0
LINE
8
BLACK
6
CONTINUOUS
10
62.5995289999999969
20
-51.9185540000000003
11
62.6786069999999995
21
-51.9713929999999991
0
LINE
8
BLACK
6
CONTINUOUS
10
62.6786069999999995
20
-51.9713929999999991
11
62.7314459999999983
21
-52.0504709999999946
0
LINE
8
BLACK
6
CONTINUOUS
10
62.7314459999999983
20
-52.0504709999999946
11
62.75
21
-52.1437499999999972
0
LINE
8
BLACK
6
CONTINUOUS
10
62.75
20
-52.1437499999999972
11
62.75
21
-53.0562499999999986
0
LINE
8
BLACK
6
CONTINUOUS
10
62.75
20
-53.0562499999999986
11
62.7314459999999983
21
-53.1495290000000011
0
LINE
8
BLACK
6
CONTINUOUS
10
62.7314459999999983
20
-53.1495290000000011
11
62.6786069999999995
21
-53.2286069999999967
0
LINE
8
BLACK
6
CONTINUOUS
10
62.6786069999999995
20
-53.2286069999999967
11
62.5995289999999969
21
-53.2814459999999954
0
LINE
8
BLACK
6
CONTINUOUS
10
62.5995289999999969
20
-53.2814459999999954
11
62.5062499999999943
21
-53.2999999999999972
0
LINE
8
BLACK
6
CONTINUOUS
10
62.5062499999999943
20
-53.2999999999999972
11
62.0187499999999972
21
-53.2999999999999972
0
LINE
8
BLACK
6
CONTINUOUS
10
62.0187499999999972
20
-53.2999999999999972
11
61.9254709999999946
21
-53.2814459999999954
0
LINE
8
BLACK
6
CONTINUOUS
10
61.9254709999999946
20
-53.2814459999999954
11
61.8463929999999991
21
-53.2286069999999967
0
LINE
8
BLACK
6
CONTINUOUS
10
61.8463929999999991
20
-53.2286069999999967
11
61.7935540000000003
21
-53.1495290000000011
0
LINE
8
BLACK
6
CONTINUOUS
10
61.7935540000000003
20
-53.1495290000000011
11
61.7749999999999986
21
-53.0562499999999986
0
LINE
8
BLACK
6
CONTINUOUS
10
61.7749999999999986
20
-53.0562499999999986
11
61.7749999999999986
21
-52.1437499999999972
0
LINE
8
BLACK
6
CONTINUOUS
10
61.7749999999999986
20
-52.1437499999999972
11
61.7935540000000003
21
-52.0504709999999946
0
LINE
8
BLACK
6
CONTINUOUS
10
61.7935540000000003
20
-52.0504709999999946
11
61.8463929999999991
21
-51.9713929999999991
0
LINE
8
BLACK
6
CONTINUOUS
10
61.8463929999999991
20
-51.9713929999999991
11
61.9254709999999946
21
-51.9185540000000003
0
LINE
8
BLACK
6
CONTINUOUS
10
61.9254709999999946
20
-51.9185540000000003
11
62.0187499999999972
21
-51.8999999999999986
0
LINE
8
BLACK
6
CONTINUOUS
10
62.0187499999999972
20
-51.8999999999999986
11
62.5062499999999943
21
-51.8999999999999986
0
LINE
8
BLACK
6
CONTINUOUS
10
62.5062499999999943
20
-51.8999999999999986
11
62.5995289999999969
21
-51.9185540000000003
0
LINE
8
BLACK
6
CONTINUOUS
10
64.474529000000004
20
-51.9185540000000003
11
64.5536069999999995
21
-51.9713929999999991
0
LINE
8
BLACK
6
CONTINUOUS
10
64.5536069999999995
20
-51.9713929999999991
11
64.6064459999999912
21
-52.0504709999999946
0
LINE
8
BLACK
6
CONTINUOUS
10
64.6064459999999912
20
-52.0504709999999946
11
64.625
21
-52.1437499999999972
0
LINE
8
BLACK
6
CONTINUOUS
10
64.625
20
-52.1437499999999972
11
64.625
21
-53.0562499999999986
0
LINE
8
BLACK
6
CONTINUOUS
10
64.625
20
-53.0562499999999986
11
64.6064459999999912
21
-53.1495290000000011
0
LINE
8
BLACK
6
CONTINUOUS
10
64.6064459999999912
20
-53.1495290000000011
11
64.5536069999999995
21
-53.2286069999999967
0
LINE
8
BLACK
6
CONTINUOUS
10
64.5536069999999995
20
-53.2286069999999967
11
64.474529000000004
21
-53.2814459999999954
0
LINE
8
BLACK
6
CONTINUOUS
10
64.474529000000004
20
-53.2814459999999954
11
64.3812499999999943
21
-53.2999999999999972
0
LINE
8
BLACK
6
CONTINUOUS
10
64.3812499999999943
20
-53.2999999999999972
11
63.8937499999999972
21
-53.2999999999999972
0
LINE
8
BLACK
6
CONTINUOUS
10
63.8937499999999972
20
-53.2999999999999972
11
63.8004709999999946
21
-53.2814459999999954
0
LINE
8
BLACK
6
CONTINUOUS
10
63.8004709999999946
20
-53.2814459999999954
11
63.7213929999999991
21
-53.2286069999999967
0
LINE
8
BLACK
6
CONTINUOUS
10
63.7213929999999991
20
-53.2286069999999967
11
63.6685540000000003
21
-53.1495290000000011
0
LINE
8
BLACK
6
CONTINUOUS
10
63.6685540000000003
20
-53.1495290000000011
11
63.6499999999999986
21
-53.0562499999999986
0
LINE
8
BLACK
6
CONTINUOUS
10
63.6499999999999986
20
-53.0562499999999986
11
63.6499999999999986
21
-52.1437499999999972
0
LINE
8
BLACK
6
CONTINUOUS
10
63.6499999999999986
20
-52.1437499999999972
11
63.6685540000000003
21
-52.0504709999999946
0
LINE
8
BLACK
6
CONTINUOUS
10
63.6685540000000003
20
-52.0504709999999946
11
63.7213929999999991
21
-51.9713929999999991
0
LINE
8
BLACK
6
CONTINUOUS
10
63.7213929999999991
20
-51.9713929999999991
11
63.8004709999999946
21
-51.9185540000000003
0
LINE
8
BLACK
6
CONTINUOUS
10
63.8004709999999946
20
-51.9185540000000003
11
63.8937499999999972
21
-51.8999999999999986
0
LINE
8
BLACK
6
CONTINUOUS
10
63.8937499999999972
20
-51.8999999999999986
11
64.3812499999999943
21
-51.8999999999999986
0
LINE
8
BLACK
6
CONTINUOUS
10
64.3812499999999943
20
-51.8999999999999986
11
64.474529000000004
21
-51.9185540000000003
0
LINE
8
BLACK
6
CONTINUOUS
10
66.1515369999999905
20
-52.2402239999999978
11
66.2164209999999969
21
-52.283578999999996
0
LINE
8
BLACK
6
CONTINUOUS
10
66.2164209999999969
20
-52.283578999999996
11
66.2597760000000022
21
-52.3484629999999953
0
LINE
8
BLACK
6
CONTINUOUS
10
66.2597760000000022
20
-52.3484629999999953
11
66.2749999999999915
21
-52.4249999999999972
0
LINE
8
BLACK
6
CONTINUOUS
10
66.2749999999999915
20
-52.4249999999999972
11
66.2749999999999915
21
-52.9749999999999943
0
LINE
8
BLACK
6
CONTINUOUS
10
66.2749999999999915
20
-52.9749999999999943
11
66.2597760000000022
21
-53.0515369999999962
0
LINE
8
BLACK
6
CONTINUOUS
10
66.2597760000000022
20
-53.0515369999999962
11
66.2164209999999969
21
-53.1164209999999954
0
LINE
8
BLACK
6
CONTINUOUS
10
66.2164209999999969
20
-53.1164209999999954
11
66.1515369999999905
21
-53.1597760000000008
0
LINE
8
BLACK
6
CONTINUOUS
10
66.1515369999999905
20
-53.1597760000000008
11
66.0750000000000028
21
-53.1749999999999972
0
LINE
8
BLACK
6
CONTINUOUS
10
66.0750000000000028
20
-53.1749999999999972
11
65.6749999999999972
21
-53.1749999999999972
0
LINE
8
BLACK
6
CONTINUOUS
10
65.6749999999999972
20
-53.1749999999999972
11
65.5984629999999953
21
-53.1597760000000008
0
LINE
8
BLACK
6
CONTINUOUS
10
65.5984629999999953
20
-53.1597760000000008
11
65.5335790000000031
21
-53.1164209999999954
0
LINE
8
BLACK
6
CONTINUOUS
10
65.5335790000000031
20
-53.1164209999999954
11
65.4902239999999978
21
-53.0515369999999962
0
LINE
8
BLACK
6
CONTINUOUS
10
65.4902239999999978
20
-53.0515369999999962
11
65.4749999999999943
21
-52.9749999999999943
0
LINE
8
BLACK
6
CONTINUOUS
10
65.4749999999999943
20
-52.9749999999999943
11
65.4749999999999943
21
-52.4249999999999972
0
LINE
8
BLACK
6
CONTINUOUS
10
65.4749999999999943
20
-52.4249999999999972
11
65.4902239999999978
21
-52.3484629999999953
0
LINE
8
BLACK
6
CONTINUOUS
10
65.4902239999999978
20
-52.3484629999999953
11
65.5335790000000031
21
-52.283578999999996
0
LINE
8
BLACK
6
CONTINUOUS
10
65.5335790000000031
20
-52.283578999999996
11
65.5984629999999953
21
-52.2402239999999978
0
LINE
8
BLACK
6
CONTINUOUS
10
65.5984629999999953
20
-52.2402239999999978
11
65.6749999999999972
21
-52.2249999999999943
0
LINE
8
BLACK
6
CONTINUOUS
10
65.6749999999999972
20
-52.2249999999999943
11
66.0750000000000028
21
-52.2249999999999943
0
LINE
8
BLACK
6
CONTINUOUS
10
66.0750000000000028
20
-52.2249999999999943
11
66.1515369999999905
21
-52.2402239999999978
0
LINE
8
BLACK
6
CONTINUOUS
10
67.8015369999999962
20
-52.2402239999999978
11
67.8664210000000026
21
-52.283578999999996
0
LINE
8
BLACK
6
CONTINUOUS
10
67.8664210000000026
20
-52.283578999999996
11
67.9097759999999937
21
-52.3484629999999953
0
LINE
8
BLACK
6
CONTINUOUS
10
67.9097759999999937
20
-52.3484629999999953
11
67.9249999999999972
21
-52.4249999999999972
0
LINE
8
BLACK
6
CONTINUOUS
10
67.9249999999999972
20
-52.4249999999999972
11
67.9249999999999972
21
-52.9749999999999943
0
LINE
8
BLACK
6
CONTINUOUS
10
67.9249999999999972
20
-52.9749999999999943
11
67.9097759999999937
21
-53.0515369999999962
0
LINE
8
BLACK
6
CONTINUOUS
10
67.9097759999999937
20
-53.0515369999999962
11
67.8664210000000026
21
-53.1164209999999954
0
LINE
8
BLACK
6
CONTINUOUS
10
67.8664210000000026
20
-53.1164209999999954
11
67.8015369999999962
21
-53.1597760000000008
0
LINE
8
BLACK
6
CONTINUOUS
10
67.8015369999999962
20
-53.1597760000000008
11
67.7249999999999943
21
-53.1749999999999972
0
LINE
8
BLACK
6
CONTINUOUS
10
67.7249999999999943
20
-53.1749999999999972
11
67.3250000000000028
21
-53.1749999999999972
0
LINE
8
BLACK
6
CONTINUOUS
10
67.3250000000000028
20
-53.1749999999999972
11
67.248463000000001
21
-53.1597760000000008
0
LINE
8
BLACK
6
CONTINUOUS
10
67.248463000000001
20
-53.1597760000000008
11
67.1835789999999946
21
-53.1164209999999954
0
LINE
8
BLACK
6
CONTINUOUS
10
67.1835789999999946
20
-53.1164209999999954
11
67.1402240000000035
21
-53.0515369999999962
0
LINE
8
BLACK
6
CONTINUOUS
10
67.1402240000000035
20
-53.0515369999999962
11
67.125
21
-52.9749999999999943
0
LINE
8
BLACK
6
CONTINUOUS
10
67.125
20
-52.9749999999999943
11
67.125
21
-52.4249999999999972
0
LINE
8
BLACK
6
CONTINUOUS
10
67.125
20
-52.4249999999999972
11
67.1402240000000035
21
-52.3484629999999953
0
LINE
8
BLACK
6
CONTINUOUS
10
67.1402240000000035
20
-52.3484629999999953
11
67.1835789999999946
21
-52.283578999999996
0
LINE
8
BLACK
6
CONTINUOUS
10
67.1835789999999946
20
-52.283578999999996
11
67.248463000000001
21
-52.2402239999999978
0
LINE
8
BLACK
6
CONTINUOUS
10
67.248463000000001
20
-52.2402239999999978
11
67.3250000000000028
21
-52.2249999999999943
0
LINE
8
BLACK
6
CONTINUOUS
10
67.3250000000000028
20
-52.2249999999999943
11
67.7249999999999943
21
-52.2249999999999943
0
LINE
8
BLACK
6
CONTINUOUS
10
67.7249999999999943
20
-52.2249999999999943
11
67.8015369999999962
21
-52.2402239999999978
0
LINE
8
BLACK
6
CONTINUOUS
10
59.4074029999999951
20
-52.261417999999999
11
59.4560659999999999
21
-52.2939340000000001
0
LINE
8
BLACK
6
CONTINUOUS
10
59.4560659999999999
20
-52.2939340000000001
11
59.4885819999999939
21
-52.3425969999999978
0
LINE
8
BLACK
6
CONTINUOUS
10
59.4885819999999939
20
-52.3425969999999978
11
59.5
21
-52.3999999999999986
0
LINE
8
BLACK
6
CONTINUOUS
10
59.5
20
-52.3999999999999986
11
59.5
21
-52.7999999999999972
0
LINE
8
BLACK
6
CONTINUOUS
10
59.5
20
-52.7999999999999972
11
59.4885819999999939
21
-52.8574029999999979
0
LINE
8
BLACK
6
CONTINUOUS
10
59.4885819999999939
20
-52.8574029999999979
11
59.4560659999999999
21
-52.9060659999999956
0
LINE
8
BLACK
6
CONTINUOUS
10
59.4560659999999999
20
-52.9060659999999956
11
59.4074029999999951
21
-52.9385819999999967
0
LINE
8
BLACK
6
CONTINUOUS
10
59.4074029999999951
20
-52.9385819999999967
11
59.3499999999999943
21
-52.9499999999999957
0
LINE
8
BLACK
6
CONTINUOUS
10
59.3499999999999943
20
-52.9499999999999957
11
59.0499999999999972
21
-52.9499999999999957
0
LINE
8
BLACK
6
CONTINUOUS
10
59.0499999999999972
20
-52.9499999999999957
11
58.9925969999999964
21
-52.9385819999999967
0
LINE
8
BLACK
6
CONTINUOUS
10
58.9925969999999964
20
-52.9385819999999967
11
58.9439339999999987
21
-52.9060659999999956
0
LINE
8
BLACK
6
CONTINUOUS
10
58.9439339999999987
20
-52.9060659999999956
11
58.9114179999999976
21
-52.8574029999999979
0
LINE
8
BLACK
6
CONTINUOUS
10
58.9114179999999976
20
-52.8574029999999979
11
58.8999999999999986
21
-52.7999999999999972
0
LINE
8
BLACK
6
CONTINUOUS
10
58.8999999999999986
20
-52.7999999999999972
11
58.8999999999999986
21
-52.3999999999999986
0
LINE
8
BLACK
6
CONTINUOUS
10
58.8999999999999986
20
-52.3999999999999986
11
58.9114179999999976
21
-52.3425969999999978
0
LINE
8
BLACK
6
CONTINUOUS
10
58.9114179999999976
20
-52.3425969999999978
11
58.9439339999999987
21
-52.2939340000000001
0
LINE
8
BLACK
6
CONTINUOUS
10
58.9439339999999987
20
-52.2939340000000001
11
58.9925969999999964
21
-52.261417999999999
0
LINE
8
BLACK
6
CONTINUOUS
10
58.9925969999999964
20
-52.261417999999999
11
59.0499999999999972
21
-52.25
0
LINE
8
BLACK
6
CONTINUOUS
10
59.0499999999999972
20
-52.25
11
59.3499999999999943
21
-52.25
0
LINE
8
BLACK
6
CONTINUOUS
10
59.3499999999999943
20
-52.25
11
59.4074029999999951
21
-52.261417999999999
0
LINE
8
BLACK
6
CONTINUOUS
10
60.8074030000000008
20
-52.261417999999999
11
60.8560659999999984
21
-52.2939340000000001
0
LINE
8
BLACK
6
CONTINUOUS
10
60.8560659999999984
20
-52.2939340000000001
11
60.8885819999999995
21
-52.3425969999999978
0
LINE
8
BLACK
6
CONTINUOUS
10
60.8885819999999995
20
-52.3425969999999978
11
60.8999999999999986
21
-52.3999999999999986
0
LINE
8
BLACK
6
CONTINUOUS
10
60.8999999999999986
20
-52.3999999999999986
11
60.8999999999999986
21
-52.7999999999999972
0
LINE
8
BLACK
6
CONTINUOUS
10
60.8999999999999986
20
-52.7999999999999972
11
60.8885819999999995
21
-52.8574029999999979
0
LINE
8
BLACK
6
CONTINUOUS
10
60.8885819999999995
20
-52.8574029999999979
11
60.8560659999999984
21
-52.9060659999999956
0
LINE
8
BLACK
6
CONTINUOUS
10
60.8560659999999984
20
-52.9060659999999956
11
60.8074030000000008
21
-52.9385819999999967
0
LINE
8
BLACK
6
CONTINUOUS
10
60.8074030000000008
20
-52.9385819999999967
11
60.75
21
-52.9499999999999957
0
LINE
8
BLACK
6
CONTINUOUS
10
60.75
20
-52.9499999999999957
11
60.4499999999999957
21
-52.9499999999999957
0
LINE
8
BLACK
6
CONTINUOUS
10
60.4499999999999957
20
-52.9499999999999957
11
60.392596999999995
21
-52.9385819999999967
0
LINE
8
BLACK
6
CONTINUOUS
10
60.392596999999995
20
-52.9385819999999967
11
60.3439339999999973
21
-52.9060659999999956
0
LINE
8
BLACK
6
CONTINUOUS
10
60.3439339999999973
20
-52.9060659999999956
11
60.3114179999999962
21
-52.8574029999999979
0
LINE
8
BLACK
6
CONTINUOUS
10
60.3114179999999962
20
-52.8574029999999979
11
60.2999999999999972
21
-52.7999999999999972
0
LINE
8
BLACK
6
CONTINUOUS
10
60.2999999999999972
20
-52.7999999999999972
11
60.2999999999999972
21
-52.3999999999999986
0
LINE
8
BLACK
6
CONTINUOUS
10
60.2999999999999972
20
-52.3999999999999986
11
60.3114179999999962
21
-52.3425969999999978
0
LINE
8
BLACK
6
CONTINUOUS
10
60.3114179999999962
20
-52.3425969999999978
11
60.3439339999999973
21
-52.2939340000000001
0
LINE
8
BLACK
6
CONTINUOUS
10
60.3439339999999973
20
-52.2939340000000001
11
60.392596999999995
21
-52.261417999999999
0
LINE
8
BLACK
6
CONTINUOUS
10
60.392596999999995
20
-52.261417999999999
11
60.4499999999999957
21
-52.25
0
LINE
8
BLACK
6
CONTINUOUS
10
60.4499999999999957
20
-52.25
11
60.75
21
-52.25
0
LINE
8
BLACK
6
CONTINUOUS
10
60.75
20
-52.25
11
60.8074030000000008
21
-52.261417999999999
0
LINE
8
BLACK
6
CONTINUOUS
10
78.6989949999999965
20
-49.9750079999999954
11
78.6990399999999966
21
-49.9749999999999943
0
LINE
8
BLACK
6
CONTINUOUS
10
78.6990399999999966
20
-49.9749999999999943
11
79.1637130000000013
21
-49.9766529999999989
0
LINE
8
BLACK
6
CONTINUOUS
10
79.1637130000000013
20
-49.9766529999999989
11
79.1639649999999904
21
-49.976703999999998
0
LINE
8
BLACK
6
CONTINUOUS
10
79.1639649999999904
20
-49.976703999999998
11
79.1642190000000028
21
-49.9766599999999954
0
LINE
8
BLACK
6
CONTINUOUS
10
79.1642190000000028
20
-49.9766599999999954
11
79.6501030000000014
21
-49.9882299999999944
0
LINE
8
BLACK
6
CONTINUOUS
10
79.6501030000000014
20
-49.9882299999999944
11
79.6505829999999975
21
-49.9883369999999942
0
LINE
8
BLACK
6
CONTINUOUS
10
79.6505829999999975
20
-49.9883369999999942
11
79.6510689999999926
21
-49.9882719999999949
0
LINE
8
BLACK
6
CONTINUOUS
10
79.6510689999999926
20
-49.9882719999999949
11
80.1530029999999982
21
-50.019677999999999
0
LINE
8
BLACK
6
CONTINUOUS
10
80.1530029999999982
20
-50.019677999999999
11
80.1536909999999949
21
-50.0198599999999942
0
LINE
8
BLACK
6
CONTINUOUS
10
80.1536909999999949
20
-50.0198599999999942
11
80.1544019999999904
21
-50.0198049999999981
0
LINE
8
BLACK
6
CONTINUOUS
10
80.1544019999999904
20
-50.0198049999999981
11
80.6672229999999928
21
-50.0809639999999945
0
LINE
8
BLACK
6
CONTINUOUS
10
80.6672229999999928
20
-50.0809639999999945
11
80.6678599999999904
21
-50.0811709999999977
0
LINE
8
BLACK
6
CONTINUOUS
10
80.6678599999999904
20
-50.0811709999999977
11
80.6685289999999924
21
-50.0811549999999954
0
LINE
8
BLACK
6
CONTINUOUS
10
80.6685289999999924
20
-50.0811549999999954
11
80.9274099999999947
21
-50.1259909999999991
0
LINE
8
BLACK
6
CONTINUOUS
10
80.9274099999999947
20
-50.1259909999999991
11
80.9278939999999949
21
-50.1261769999999984
0
LINE
8
BLACK
6
CONTINUOUS
10
80.9278939999999949
20
-50.1261769999999984
11
80.9284139999999894
21
-50.126185999999997
0
LINE
8
BLACK
6
CONTINUOUS
10
80.9284139999999894
20
-50.126185999999997
11
81.1880809999999968
21
-50.1821789999999979
0
LINE
8
BLACK
6
CONTINUOUS
10
81.1880809999999968
20
-50.1821789999999979
11
81.1886049999999955
21
-50.1824060000000003
0
LINE
8
BLACK
6
CONTINUOUS
10
81.1886049999999955
20
-50.1824060000000003
11
81.1891760000000033
21
-50.1824409999999972
0
LINE
8
BLACK
6
CONTINUOUS
10
81.1891760000000033
20
-50.1824409999999972
11
81.4489849999999933
21
-50.2508300000000006
0
LINE
8
BLACK
6
CONTINUOUS
10
81.4489849999999933
20
-50.2508300000000006
11
81.4495440000000031
21
-50.2511019999999959
0
LINE
8
BLACK
6
CONTINUOUS
10
81.4495440000000031
20
-50.2511019999999959
11
81.4501609999999943
21
-50.2511709999999994
0
LINE
8
BLACK
6
CONTINUOUS
10
81.4501609999999943
20
-50.2511709999999994
11
81.7094659999999919
21
-50.3331979999999959
0
LINE
8
BLACK
6
CONTINUOUS
10
81.7094659999999919
20
-50.3331979999999959
11
81.710053000000002
21
-50.33352
0
LINE
8
BLACK
6
CONTINUOUS
10
81.710053000000002
20
-50.33352
11
81.7107120000000009
21
-50.3336289999999948
0
LINE
8
BLACK
6
CONTINUOUS
10
81.7107120000000009
20
-50.3336289999999948
11
81.9688680000000005
21
-50.4305319999999995
0
LINE
8
BLACK
6
CONTINUOUS
10
81.9688680000000005
20
-50.4305319999999995
11
81.9694709999999986
21
-50.4309060000000002
0
LINE
8
BLACK
6
CONTINUOUS
10
81.9694709999999986
20
-50.4309060000000002
11
81.9701669999999893
21
-50.4310609999999997
0
LINE
8
BLACK
6
CONTINUOUS
10
81.9701669999999893
20
-50.4310609999999997
11
82.2265289999999993
21
-50.544081999999996
0
LINE
8
BLACK
6
CONTINUOUS
10
82.2265289999999993
20
-50.544081999999996
11
82.2271399999999915
21
-50.5445099999999954
0
LINE
8
BLACK
6
CONTINUOUS
10
82.2271399999999915
20
-50.5445099999999954
11
82.2278629999999993
21
-50.5447169999999986
0
LINE
8
BLACK
6
CONTINUOUS
10
82.2278629999999993
20
-50.5447169999999986
11
82.4817850000000021
21
-50.6750919999999994
0
LINE
8
BLACK
6
CONTINUOUS
10
82.4817850000000021
20
-50.6750919999999994
11
82.4823959999999943
21
-50.675576999999997
0
LINE
8
BLACK
6
CONTINUOUS
10
82.4823959999999943
20
-50.675576999999997
11
82.4831319999999977
21
-50.6758369999999942
0
LINE
8
BLACK
6
CONTINUOUS
10
82.4831319999999977
20
-50.6758369999999942
11
82.7339699999999993
21
-50.8248079999999973
0
LINE
8
BLACK
6
CONTINUOUS
10
82.7339699999999993
20
-50.8248079999999973
11
82.7343400000000031
21
-50.825140999999995
0
LINE
8
BLACK
6
CONTINUOUS
10
82.7343400000000031
20
-50.825140999999995
11
82.7346369999999922
21
-50.8252179999999996
0
LINE
8
BLACK
6
CONTINUOUS
10
82.7346369999999922
20
-50.8252179999999996
11
82.7346359999999947
21
-50.825218999999997
0
LINE
8
BLACK
6
CONTINUOUS
10
82.7346359999999947
20
-50.825218999999997
11
83.0883709999999951
21
-51.0729079999999982
0
LINE
8
BLACK
6
CONTINUOUS
10
83.0883709999999951
20
-51.0729079999999982
11
83.4191730000000007
21
-51.3504839999999945
0
LINE
8
BLACK
6
CONTINUOUS
10
83.4191730000000007
20
-51.3504839999999945
11
83.7245229999999907
21
-51.6558339999999987
0
LINE
8
BLACK
6
CONTINUOUS
10
83.7245229999999907
20
-51.6558339999999987
11
84.0020979999999895
21
-51.9866369999999947
0
LINE
8
BLACK
6
CONTINUOUS
10
84.0020979999999895
20
-51.9866369999999947
11
84.2497860000000003
21
-52.340371999999995
0
LINE
8
BLACK
6
CONTINUOUS
10
84.2497860000000003
20
-52.340371999999995
11
84.4657009999999957
21
-52.7143489999999986
0
LINE
8
BLACK
6
CONTINUOUS
10
84.4657009999999957
20
-52.7143489999999986
11
84.6482010000000002
21
-53.1057209999999955
0
LINE
8
BLACK
6
CONTINUOUS
10
84.6482010000000002
20
-53.1057209999999955
11
84.795895999999999
21
-53.5115089999999967
0
LINE
8
BLACK
6
CONTINUOUS
10
84.795895999999999
20
-53.5115089999999967
11
84.907662000000002
21
-53.9286259999999942
0
LINE
8
BLACK
6
CONTINUOUS
10
84.907662000000002
20
-53.9286259999999942
11
84.9826479999999975
21
-54.3538969999999964
0
LINE
8
BLACK
6
CONTINUOUS
10
84.9826479999999975
20
-54.3538969999999964
11
85.0202850000000012
21
-54.784084
0
LINE
8
BLACK
6
CONTINUOUS
10
85.0202850000000012
20
-54.784084
11
85.0202850000000012
21
-55.215916
0
LINE
8
BLACK
6
CONTINUOUS
10
85.0202850000000012
20
-55.215916
11
84.9826479999999975
21
-55.6461029999999965
0
LINE
8
BLACK
6
CONTINUOUS
10
84.9826479999999975
20
-55.6461029999999965
11
84.907662000000002
21
-56.0713739999999987
0
LINE
8
BLACK
6
CONTINUOUS
10
84.907662000000002
20
-56.0713739999999987
11
84.795895999999999
21
-56.4884909999999962
0
LINE
8
BLACK
6
CONTINUOUS
10
84.795895999999999
20
-56.4884909999999962
11
84.6482010000000002
21
-56.8942789999999974
0
LINE
8
BLACK
6
CONTINUOUS
10
84.6482010000000002
20
-56.8942789999999974
11
84.4657009999999957
21
-57.2856509999999943
0
LINE
8
BLACK
6
CONTINUOUS
10
84.4657009999999957
20
-57.2856509999999943
11
84.2497860000000003
21
-57.6596279999999979
0
LINE
8
BLACK
6
CONTINUOUS
10
84.2497860000000003
20
-57.6596279999999979
11
84.0020979999999895
21
-58.0133629999999982
0
LINE
8
BLACK
6
CONTINUOUS
10
84.0020979999999895
20
-58.0133629999999982
11
83.7245229999999907
21
-58.3441659999999942
0
LINE
8
BLACK
6
CONTINUOUS
10
83.7245229999999907
20
-58.3441659999999942
11
83.4191730000000007
21
-58.6495159999999984
0
LINE
8
BLACK
6
CONTINUOUS
10
83.4191730000000007
20
-58.6495159999999984
11
83.0883709999999951
21
-58.9270919999999947
0
LINE
8
BLACK
6
CONTINUOUS
10
83.0883709999999951
20
-58.9270919999999947
11
82.7346359999999947
21
-59.1747809999999959
0
LINE
8
BLACK
6
CONTINUOUS
10
82.7346359999999947
20
-59.1747809999999959
11
82.7346369999999922
21
-59.1747820000000004
0
LINE
8
BLACK
6
CONTINUOUS
10
82.7346369999999922
20
-59.1747820000000004
11
82.7343400000000031
21
-59.1748580000000004
0
LINE
8
BLACK
6
CONTINUOUS
10
82.7343400000000031
20
-59.1748580000000004
11
82.7339699999999993
21
-59.1751919999999956
0
LINE
8
BLACK
6
CONTINUOUS
10
82.7339699999999993
20
-59.1751919999999956
11
82.4831319999999977
21
-59.3241629999999986
0
LINE
8
BLACK
6
CONTINUOUS
10
82.4831319999999977
20
-59.3241629999999986
11
82.4823959999999943
21
-59.3244219999999984
0
LINE
8
BLACK
6
CONTINUOUS
10
82.4823959999999943
20
-59.3244219999999984
11
82.4817850000000021
21
-59.3249080000000006
0
LINE
8
BLACK
6
CONTINUOUS
10
82.4817850000000021
20
-59.3249080000000006
11
82.2278629999999993
21
-59.4552829999999943
0
LINE
8
BLACK
6
CONTINUOUS
10
82.2278629999999993
20
-59.4552829999999943
11
82.2271399999999915
21
-59.455489
0
LINE
8
BLACK
6
CONTINUOUS
10
82.2271399999999915
20
-59.455489
11
82.2265289999999993
21
-59.4559179999999969
0
LINE
8
BLACK
6
CONTINUOUS
10
82.2265289999999993
20
-59.4559179999999969
11
81.9701669999999893
21
-59.5689390000000003
0
LINE
8
BLACK
6
CONTINUOUS
10
81.9701669999999893
20
-59.5689390000000003
11
81.9694709999999986
21
-59.5690929999999952
0
LINE
8
BLACK
6
CONTINUOUS
10
81.9694709999999986
20
-59.5690929999999952
11
81.9688680000000005
21
-59.5694680000000005
0
LINE
8
BLACK
6
CONTINUOUS
10
81.9688680000000005
20
-59.5694680000000005
11
81.7107120000000009
21
-59.666370999999998
0
LINE
8
BLACK
6
CONTINUOUS
10
81.7107120000000009
20
-59.666370999999998
11
81.710053000000002
21
-59.6664789999999954
0
LINE
8
BLACK
6
CONTINUOUS
10
81.710053000000002
20
-59.6664789999999954
11
81.7094659999999919
21
-59.666801999999997
0
LINE
8
BLACK
6
CONTINUOUS
10
81.7094659999999919
20
-59.666801999999997
11
81.4501609999999943
21
-59.7488290000000006
0
LINE
8
BLACK
6
CONTINUOUS
10
81.4501609999999943
20
-59.7488290000000006
11
81.4495440000000031
21
-59.7488969999999995
0
LINE
8
BLACK
6
CONTINUOUS
10
81.4495440000000031
20
-59.7488969999999995
11
81.4489849999999933
21
-59.7491699999999994
0
LINE
8
BLACK
6
CONTINUOUS
10
81.4489849999999933
20
-59.7491699999999994
11
81.1891760000000033
21
-59.8175589999999957
0
LINE
8
BLACK
6
CONTINUOUS
10
81.1891760000000033
20
-59.8175589999999957
11
81.1886049999999955
21
-59.8175929999999951
0
LINE
8
BLACK
6
CONTINUOUS
10
81.1886049999999955
20
-59.8175929999999951
11
81.1880809999999968
21
-59.817820999999995
0
LINE
8
BLACK
6
CONTINUOUS
10
81.1880809999999968
20
-59.817820999999995
11
80.9284139999999894
21
-59.8738139999999959
0
LINE
8
BLACK
6
CONTINUOUS
10
80.9284139999999894
20
-59.8738139999999959
11
80.9278939999999949
21
-59.873821999999997
0
LINE
8
BLACK
6
CONTINUOUS
10
80.9278939999999949
20
-59.873821999999997
11
80.9274099999999947
21
-59.8740089999999938
0
LINE
8
BLACK
6
CONTINUOUS
10
80.9274099999999947
20
-59.8740089999999938
11
80.6685289999999924
21
-59.9188449999999975
0
LINE
8
BLACK
6
CONTINUOUS
10
80.6685289999999924
20
-59.9188449999999975
11
80.6678599999999904
21
-59.9188279999999978
0
LINE
8
BLACK
6
CONTINUOUS
10
80.6678599999999904
20
-59.9188279999999978
11
80.6672229999999928
21
-59.9190359999999984
0
LINE
8
BLACK
6
CONTINUOUS
10
80.6672229999999928
20
-59.9190359999999984
11
80.1544019999999904
21
-59.9801949999999948
0
LINE
8
BLACK
6
CONTINUOUS
10
80.1544019999999904
20
-59.9801949999999948
11
80.1536909999999949
21
-59.9801389999999941
0
LINE
8
BLACK
6
CONTINUOUS
10
80.1536909999999949
20
-59.9801389999999941
11
80.1530029999999982
21
-59.9803219999999939
0
LINE
8
BLACK
6
CONTINUOUS
10
80.1530029999999982
20
-59.9803219999999939
11
79.6510689999999926
21
-60.011727999999998
0
LINE
8
BLACK
6
CONTINUOUS
10
79.6510689999999926
20
-60.011727999999998
11
79.6505829999999975
21
-60.0116619999999941
0
LINE
8
BLACK
6
CONTINUOUS
10
79.6505829999999975
20
-60.0116619999999941
11
79.6501030000000014
21
-60.0117699999999985
0
LINE
8
BLACK
6
CONTINUOUS
10
79.6501030000000014
20
-60.0117699999999985
11
79.1642190000000028
21
-60.0233399999999975
0
LINE
8
BLACK
6
CONTINUOUS
10
79.1642190000000028
20
-60.0233399999999975
11
79.1639649999999904
21
-60.0232949999999974
0
LINE
8
BLACK
6
CONTINUOUS
10
79.1639649999999904
20
-60.0232949999999974
11
79.1637130000000013
21
-60.023346999999994
0
LINE
8
BLACK
6
CONTINUOUS
10
79.1637130000000013
20
-60.023346999999994
11
78.6990399999999966
21
-60.0249999999999986
0
LINE
8
BLACK
6
CONTINUOUS
10
78.6990399999999966
20
-60.0249999999999986
11
78.6989949999999965
21
-60.024991
0
LINE
8
BLACK
6
CONTINUOUS
10
78.6989949999999965
20
-60.024991
11
78.6989509999999939
21
-60.0249999999999986
0
LINE
8
BLACK
6
CONTINUOUS
10
78.6989509999999939
20
-60.0249999999999986
11
57.801048999999999
21
-60.0249999999999986
0
LINE
8
BLACK
6
CONTINUOUS
10
57.801048999999999
20
-60.0249999999999986
11
57.8010039999999989
21
-60.024991
0
LINE
8
BLACK
6
CONTINUOUS
10
57.8010039999999989
20
-60.024991
11
57.8009599999999963
21
-60.0249999999999986
0
LINE
8
BLACK
6
CONTINUOUS
10
57.8009599999999963
20
-60.0249999999999986
11
57.3362869999999987
21
-60.023346999999994
0
LINE
8
BLACK
6
CONTINUOUS
10
57.3362869999999987
20
-60.023346999999994
11
57.3360339999999979
21
-60.0232949999999974
0
LINE
8
BLACK
6
CONTINUOUS
10
57.3360339999999979
20
-60.0232949999999974
11
57.3357809999999972
21
-60.0233399999999975
0
LINE
8
BLACK
6
CONTINUOUS
10
57.3357809999999972
20
-60.0233399999999975
11
56.8498969999999986
21
-60.0117699999999985
0
LINE
8
BLACK
6
CONTINUOUS
10
56.8498969999999986
20
-60.0117699999999985
11
56.849415999999998
21
-60.0116619999999941
0
LINE
8
BLACK
6
CONTINUOUS
10
56.849415999999998
20
-60.0116619999999941
11
56.8489310000000003
21
-60.011727999999998
0
LINE
8
BLACK
6
CONTINUOUS
10
56.8489310000000003
20
-60.011727999999998
11
56.3469979999999993
21
-59.9803219999999939
0
LINE
8
BLACK
6
CONTINUOUS
10
56.3469979999999993
20
-59.9803219999999939
11
56.346308999999998
21
-59.9801389999999941
0
LINE
8
BLACK
6
CONTINUOUS
10
56.346308999999998
20
-59.9801389999999941
11
56.3455979999999954
21
-59.9801949999999948
0
LINE
8
BLACK
6
CONTINUOUS
10
56.3455979999999954
20
-59.9801949999999948
11
55.8327759999999955
21
-59.9190359999999984
0
LINE
8
BLACK
6
CONTINUOUS
10
55.8327759999999955
20
-59.9190359999999984
11
55.8321380000000005
21
-59.9188279999999978
0
LINE
8
BLACK
6
CONTINUOUS
10
55.8321380000000005
20
-59.9188279999999978
11
55.8314710000000005
21
-59.9188449999999975
0
LINE
8
BLACK
6
CONTINUOUS
10
55.8314710000000005
20
-59.9188449999999975
11
55.5725899999999982
21
-59.8740089999999938
0
LINE
8
BLACK
6
CONTINUOUS
10
55.5725899999999982
20
-59.8740089999999938
11
55.5721050000000005
21
-59.873821999999997
0
LINE
8
BLACK
6
CONTINUOUS
10
55.5721050000000005
20
-59.873821999999997
11
55.5715859999999964
21
-59.8738139999999959
0
LINE
8
BLACK
6
CONTINUOUS
10
55.5715859999999964
20
-59.8738139999999959
11
55.3119179999999986
21
-59.817820999999995
0
LINE
8
BLACK
6
CONTINUOUS
10
55.3119179999999986
20
-59.817820999999995
11
55.3113929999999954
21
-59.8175929999999951
0
LINE
8
BLACK
6
CONTINUOUS
10
55.3113929999999954
20
-59.8175929999999951
11
55.3108239999999967
21
-59.8175589999999957
0
LINE
8
BLACK
6
CONTINUOUS
10
55.3108239999999967
20
-59.8175589999999957
11
55.0510149999999996
21
-59.7491689999999949
0
LINE
8
BLACK
6
CONTINUOUS
10
55.0510149999999996
20
-59.7491689999999949
11
55.0504569999999944
21
-59.7488969999999995
0
LINE
8
BLACK
6
CONTINUOUS
10
55.0504569999999944
20
-59.7488969999999995
11
55.0498389999999986
21
-59.7488290000000006
0
LINE
8
BLACK
6
CONTINUOUS
10
55.0498389999999986
20
-59.7488290000000006
11
54.790534000000001
21
-59.666801999999997
0
LINE
8
BLACK
6
CONTINUOUS
10
54.790534000000001
20
-59.666801999999997
11
54.7899460000000005
21
-59.6664789999999954
0
LINE
8
BLACK
6
CONTINUOUS
10
54.7899460000000005
20
-59.6664789999999954
11
54.7892879999999991
21
-59.666370999999998
0
LINE
8
BLACK
6
CONTINUOUS
10
54.7892879999999991
20
-59.666370999999998
11
54.5311319999999995
21
-59.5694680000000005
0
LINE
8
BLACK
6
CONTINUOUS
10
54.5311319999999995
20
-59.5694680000000005
11
54.5305279999999968
21
-59.5690929999999952
0
LINE
8
BLACK
6
CONTINUOUS
10
54.5305279999999968
20
-59.5690929999999952
11
54.5298329999999964
21
-59.5689390000000003
0
LINE
8
BLACK
6
CONTINUOUS
10
54.5298329999999964
20
-59.5689390000000003
11
54.2734710000000007
21
-59.4559189999999944
0
LINE
8
BLACK
6
CONTINUOUS
10
54.2734710000000007
20
-59.4559189999999944
11
54.2728569999999948
21
-59.4554879999999955
0
LINE
8
BLACK
6
CONTINUOUS
10
54.2728569999999948
20
-59.4554879999999955
11
54.2721370000000007
21
-59.4552829999999943
0
LINE
8
BLACK
6
CONTINUOUS
10
54.2721370000000007
20
-59.4552829999999943
11
54.0182149999999979
21
-59.3249080000000006
0
LINE
8
BLACK
6
CONTINUOUS
10
54.0182149999999979
20
-59.3249080000000006
11
54.017602999999994
21
-59.3244219999999984
0
LINE
8
BLACK
6
CONTINUOUS
10
54.017602999999994
20
-59.3244219999999984
11
54.0168679999999952
21
-59.3241629999999986
0
LINE
8
BLACK
6
CONTINUOUS
10
54.0168679999999952
20
-59.3241629999999986
11
53.7660300000000007
21
-59.1751919999999956
0
LINE
8
BLACK
6
CONTINUOUS
10
53.7660300000000007
20
-59.1751919999999956
11
53.7656589999999994
21
-59.1748580000000004
0
LINE
8
BLACK
6
CONTINUOUS
10
53.7656589999999994
20
-59.1748580000000004
11
53.7653630000000007
21
-59.1747820000000004
0
LINE
8
BLACK
6
CONTINUOUS
10
53.7653630000000007
20
-59.1747820000000004
11
53.7653639999999982
21
-59.1747809999999959
0
LINE
8
BLACK
6
CONTINUOUS
10
53.7653639999999982
20
-59.1747809999999959
11
53.4116289999999978
21
-58.9270919999999947
0
LINE
8
BLACK
6
CONTINUOUS
10
53.4116289999999978
20
-58.9270919999999947
11
53.0808269999999993
21
-58.6495159999999984
0
LINE
8
BLACK
6
CONTINUOUS
10
53.0808269999999993
20
-58.6495159999999984
11
52.7754769999999951
21
-58.3441659999999942
0
LINE
8
BLACK
6
CONTINUOUS
10
52.7754769999999951
20
-58.3441659999999942
11
52.4979019999999963
21
-58.0133629999999982
0
LINE
8
BLACK
6
CONTINUOUS
10
52.4979019999999963
20
-58.0133629999999982
11
52.2502139999999997
21
-57.6596279999999979
0
LINE
8
BLACK
6
CONTINUOUS
10
52.2502139999999997
20
-57.6596279999999979
11
52.0342989999999972
21
-57.2856509999999943
0
LINE
8
BLACK
6
CONTINUOUS
10
52.0342989999999972
20
-57.2856509999999943
11
51.8517989999999998
21
-56.8942789999999974
0
LINE
8
BLACK
6
CONTINUOUS
10
51.8517989999999998
20
-56.8942789999999974
11
51.704104000000001
21
-56.4884909999999962
0
LINE
8
BLACK
6
CONTINUOUS
10
51.704104000000001
20
-56.4884909999999962
11
51.592337999999998
21
-56.0713739999999987
0
LINE
8
BLACK
6
CONTINUOUS
10
51.592337999999998
20
-56.0713739999999987
11
51.5173519999999954
21
-55.6461029999999965
0
LINE
8
BLACK
6
CONTINUOUS
10
51.5173519999999954
20
-55.6461029999999965
11
51.4797149999999988
21
-55.215916
0
LINE
8
BLACK
6
CONTINUOUS
10
51.4797149999999988
20
-55.215916
11
51.4797149999999988
21
-54.784084
0
LINE
8
BLACK
6
CONTINUOUS
10
51.4797149999999988
20
-54.784084
11
51.5173519999999954
21
-54.3538969999999964
0
LINE
8
BLACK
6
CONTINUOUS
10
51.5173519999999954
20
-54.3538969999999964
11
51.592337999999998
21
-53.9286259999999942
0
LINE
8
BLACK
6
CONTINUOUS
10
51.592337999999998
20
-53.9286259999999942
11
51.704104000000001
21
-53.5115089999999967
0
LINE
8
BLACK
6
CONTINUOUS
10
51.704104000000001
20
-53.5115089999999967
11
51.8517989999999998
21
-53.1057209999999955
0
LINE
8
BLACK
6
CONTINUOUS
10
51.8517989999999998
20
-53.1057209999999955
11
52.0342989999999972
21
-52.7143489999999986
0
LINE
8
BLACK
6
CONTINUOUS
10
52.0342989999999972
20
-52.7143489999999986
11
52.2502139999999997
21
-52.340371999999995
0
LINE
8
BLACK
6
CONTINUOUS
10
52.2502139999999997
20
-52.340371999999995
11
52.4979019999999963
21
-51.9866369999999947
0
LINE
8
BLACK
6
CONTINUOUS
10
52.4979019999999963
20
-51.9866369999999947
11
52.7754769999999951
21
-51.6558339999999987
0
LINE
8
BLACK
6
CONTINUOUS
10
52.7754769999999951
20
-51.6558339999999987
11
53.0808269999999993
21
-51.3504839999999945
0
LINE
8
BLACK
6
CONTINUOUS
10
53.0808269999999993
20
-51.3504839999999945
11
53.4116289999999978
21
-51.0729079999999982
0
LINE
8
BLACK
6
CONTINUOUS
10
53.4116289999999978
20
-51.0729079999999982
11
53.7653639999999982
21
-50.825218999999997
0
LINE
8
BLACK
6
CONTINUOUS
10
53.7653639999999982
20
-50.825218999999997
11
53.7653630000000007
21
-50.8252179999999996
0
LINE
8
BLACK
6
CONTINUOUS
10
53.7653630000000007
20
-50.8252179999999996
11
53.7656589999999994
21
-50.825140999999995
0
LINE
8
BLACK
6
CONTINUOUS
10
53.7656589999999994
20
-50.825140999999995
11
53.7660300000000007
21
-50.8248079999999973
0
LINE
8
BLACK
6
CONTINUOUS
10
53.7660300000000007
20
-50.8248079999999973
11
54.0168679999999952
21
-50.6758369999999942
0
LINE
8
BLACK
6
CONTINUOUS
10
54.0168679999999952
20
-50.6758369999999942
11
54.017602999999994
21
-50.675576999999997
0
LINE
8
BLACK
6
CONTINUOUS
10
54.017602999999994
20
-50.675576999999997
11
54.0182149999999979
21
-50.6750919999999994
0
LINE
8
BLACK
6
CONTINUOUS
10
54.0182149999999979
20
-50.6750919999999994
11
54.2721370000000007
21
-50.5447169999999986
0
LINE
8
BLACK
6
CONTINUOUS
10
54.2721370000000007
20
-50.5447169999999986
11
54.2728569999999948
21
-50.544511
0
LINE
8
BLACK
6
CONTINUOUS
10
54.2728569999999948
20
-50.544511
11
54.2734710000000007
21
-50.5440809999999985
0
LINE
8
BLACK
6
CONTINUOUS
10
54.2734710000000007
20
-50.5440809999999985
11
54.5298329999999964
21
-50.4310609999999997
0
LINE
8
BLACK
6
CONTINUOUS
10
54.5298329999999964
20
-50.4310609999999997
11
54.5305279999999968
21
-50.4309060000000002
0
LINE
8
BLACK
6
CONTINUOUS
10
54.5305279999999968
20
-50.4309060000000002
11
54.5311319999999995
21
-50.4305319999999995
0
LINE
8
BLACK
6
CONTINUOUS
10
54.5311319999999995
20
-50.4305319999999995
11
54.7892879999999991
21
-50.3336289999999948
0
LINE
8
BLACK
6
CONTINUOUS
10
54.7892879999999991
20
-50.3336289999999948
11
54.7899460000000005
21
-50.33352
0
LINE
8
BLACK
6
CONTINUOUS
10
54.7899460000000005
20
-50.33352
11
54.790534000000001
21
-50.3331979999999959
0
LINE
8
BLACK
6
CONTINUOUS
10
54.790534000000001
20
-50.3331979999999959
11
55.0498389999999986
21
-50.2511709999999994
0
LINE
8
BLACK
6
CONTINUOUS
10
55.0498389999999986
20
-50.2511709999999994
11
55.0504569999999944
21
-50.2511019999999959
0
LINE
8
BLACK
6
CONTINUOUS
10
55.0504569999999944
20
-50.2511019999999959
11
55.0510149999999996
21
-50.250830999999998
0
LINE
8
BLACK
6
CONTINUOUS
10
55.0510149999999996
20
-50.250830999999998
11
55.3108239999999967
21
-50.1824409999999972
0
LINE
8
BLACK
6
CONTINUOUS
10
55.3108239999999967
20
-50.1824409999999972
11
55.3113929999999954
21
-50.1824060000000003
0
LINE
8
BLACK
6
CONTINUOUS
10
55.3113929999999954
20
-50.1824060000000003
11
55.3119179999999986
21
-50.1821789999999979
0
LINE
8
BLACK
6
CONTINUOUS
10
55.3119179999999986
20
-50.1821789999999979
11
55.5715859999999964
21
-50.126185999999997
0
LINE
8
BLACK
6
CONTINUOUS
10
55.5715859999999964
20
-50.126185999999997
11
55.5721050000000005
21
-50.1261769999999984
0
LINE
8
BLACK
6
CONTINUOUS
10
55.5721050000000005
20
-50.1261769999999984
11
55.5725899999999982
21
-50.1259909999999991
0
LINE
8
BLACK
6
CONTINUOUS
10
55.5725899999999982
20
-50.1259909999999991
11
55.8314710000000005
21
-50.0811549999999954
0
LINE
8
BLACK
6
CONTINUOUS
10
55.8314710000000005
20
-50.0811549999999954
11
55.8321380000000005
21
-50.0811709999999977
0
LINE
8
BLACK
6
CONTINUOUS
10
55.8321380000000005
20
-50.0811709999999977
11
55.8327759999999955
21
-50.0809639999999945
0
LINE
8
BLACK
6
CONTINUOUS
10
55.8327759999999955
20
-50.0809639999999945
11
56.3455979999999954
21
-50.0198049999999981
0
LINE
8
BLACK
6
CONTINUOUS
10
56.3455979999999954
20
-50.0198049999999981
11
56.346308999999998
21
-50.0198599999999942
0
LINE
8
BLACK
6
CONTINUOUS
10
56.346308999999998
20
-50.0198599999999942
11
56.3469979999999993
21
-50.019677999999999
0
LINE
8
BLACK
6
CONTINUOUS
10
56.3469979999999993
20
-50.019677999999999
11
56.8489310000000003
21
-49.9882719999999949
0
LINE
8
BLACK
6
CONTINUOUS
10
56.8489310000000003
20
-49.9882719999999949
11
56.849415999999998
21
-49.9883369999999942
0
LINE
8
BLACK
6
CONTINUOUS
10
56.849415999999998
20
-49.9883369999999942
11
56.8498969999999986
21
-49.9882299999999944
0
LINE
8
BLACK
6
CONTINUOUS
10
56.8498969999999986
20
-49.9882299999999944
11
57.3357809999999972
21
-49.9766599999999954
0
LINE
8
BLACK
6
CONTINUOUS
10
57.3357809999999972
20
-49.9766599999999954
11
57.3360339999999979
21
-49.976703999999998
0
LINE
8
BLACK
6
CONTINUOUS
10
57.3360339999999979
20
-49.976703999999998
11
57.3362869999999987
21
-49.9766529999999989
0
LINE
8
BLACK
6
CONTINUOUS
10
57.3362869999999987
20
-49.9766529999999989
11
57.8009599999999963
21
-49.9749999999999943
0
LINE
8
BLACK
6
CONTINUOUS
10
57.8009599999999963
20
-49.9749999999999943
11
57.8010039999999989
21
-49.9750079999999954
0
LINE
8
BLACK
6
CONTINUOUS
10
57.8010039999999989
20
-49.9750079999999954
11
57.801048999999999
21
-49.9749999999999943
0
LINE
8
BLACK
6
CONTINUOUS
10
57.801048999999999
20
-49.9749999999999943
11
78.6989509999999939
21
-49.9749999999999943
0
LINE
8
BLACK
6
CONTINUOUS
10
78.6989509999999939
20
-49.9749999999999943
11
78.6989949999999965
21
-49.9750079999999954
0
LINE
8
BLACK
6
CONTINUOUS
10
57.8011379999999946
20
-50.0249999999999986
11
57.3367140000000006
21
-50.0266519999999986
0
LINE
8
BLACK
6
CONTINUOUS
10
57.3367140000000006
20
-50.0266519999999986
11
56.8515639999999962
21
-50.0382040000000003
0
LINE
8
BLACK
6
CONTINUOUS
10
56.8515639999999962
20
-50.0382040000000003
11
56.3508220000000009
21
-50.0695359999999994
0
LINE
8
BLACK
6
CONTINUOUS
10
56.3508220000000009
20
-50.0695359999999994
11
55.8393469999999965
21
-50.1305339999999973
0
LINE
8
BLACK
6
CONTINUOUS
10
55.8393469999999965
20
-50.1305339999999973
11
55.5816230000000004
21
-50.1751699999999943
0
LINE
8
BLACK
6
CONTINUOUS
10
55.5816230000000004
20
-50.1751699999999943
11
55.3230239999999966
21
-50.2309319999999957
0
LINE
8
BLACK
6
CONTINUOUS
10
55.3230239999999966
20
-50.2309319999999957
11
55.0643449999999959
21
-50.2990239999999957
0
LINE
8
BLACK
6
CONTINUOUS
10
55.0643449999999959
20
-50.2990239999999957
11
54.8062350000000009
21
-50.3806729999999945
0
LINE
8
BLACK
6
CONTINUOUS
10
54.8062350000000009
20
-50.3806729999999945
11
54.5493549999999985
21
-50.4770970000000005
0
LINE
8
BLACK
6
CONTINUOUS
10
54.5493549999999985
20
-50.4770970000000005
11
54.2943149999999974
21
-50.5895349999999979
0
LINE
8
BLACK
6
CONTINUOUS
10
54.2943149999999974
20
-50.5895349999999979
11
54.0417360000000002
21
-50.7192209999999974
0
LINE
8
BLACK
6
CONTINUOUS
10
54.0417360000000002
20
-50.7192209999999974
11
53.7919300000000007
21
-50.8675779999999946
0
LINE
8
BLACK
6
CONTINUOUS
10
53.7919300000000007
20
-50.8675779999999946
11
53.6117959999999982
21
-50.9823379999999986
0
LINE
8
BLACK
6
CONTINUOUS
10
53.6117959999999982
20
-50.9823379999999986
11
53.2723389999999952
21
-51.2428129999999982
0
LINE
8
BLACK
6
CONTINUOUS
10
53.2723389999999952
20
-51.2428129999999982
11
52.9568749999999966
21
-51.531881999999996
0
LINE
8
BLACK
6
CONTINUOUS
10
52.9568749999999966
20
-51.531881999999996
11
52.6678069999999963
21
-51.8473459999999946
0
LINE
8
BLACK
6
CONTINUOUS
10
52.6678069999999963
20
-51.8473459999999946
11
52.4073319999999967
21
-52.1868029999999976
0
LINE
8
BLACK
6
CONTINUOUS
10
52.4073319999999967
20
-52.1868029999999976
11
52.1774349999999956
21
-52.5476710000000011
0
LINE
8
BLACK
6
CONTINUOUS
10
52.1774349999999956
20
-52.5476710000000011
11
51.9798639999999992
21
-52.9272019999999941
0
LINE
8
BLACK
6
CONTINUOUS
10
51.9798639999999992
20
-52.9272019999999941
11
51.8161229999999975
21
-53.3225079999999991
0
LINE
8
BLACK
6
CONTINUOUS
10
51.8161229999999975
20
-53.3225079999999991
11
51.6874579999999995
21
-53.7305810000000008
0
LINE
8
BLACK
6
CONTINUOUS
10
51.6874579999999995
20
-53.7305810000000008
11
51.5948489999999964
21
-54.1483149999999966
0
LINE
8
BLACK
6
CONTINUOUS
10
51.5948489999999964
20
-54.1483149999999966
11
51.5389999999999944
21
-54.5725309999999979
0
LINE
8
BLACK
6
CONTINUOUS
10
51.5389999999999944
20
-54.5725309999999979
11
51.5203360000000004
21
-55.
0
LINE
8
BLACK
6
CONTINUOUS
10
51.5203360000000004
20
-55.
11
51.5389999999999944
21
-55.427468999999995
0
LINE
8
BLACK
6
CONTINUOUS
10
51.5389999999999944
20
-55.427468999999995
11
51.5948489999999964
21
-55.8516849999999963
0
LINE
8
BLACK
6
CONTINUOUS
10
51.5948489999999964
20
-55.8516849999999963
11
51.6874579999999995
21
-56.2694189999999992
0
LINE
8
BLACK
6
CONTINUOUS
10
51.6874579999999995
20
-56.2694189999999992
11
51.8161229999999975
21
-56.6774920000000009
0
LINE
8
BLACK
6
CONTINUOUS
10
51.8161229999999975
20
-56.6774920000000009
11
51.9798639999999992
21
-57.0727979999999988
0
LINE
8
BLACK
6
CONTINUOUS
10
51.9798639999999992
20
-57.0727979999999988
11
52.1774349999999956
21
-57.4523289999999989
0
LINE
8
BLACK
6
CONTINUOUS
10
52.1774349999999956
20
-57.4523289999999989
11
52.4073319999999967
21
-57.8131969999999953
0
LINE
8
BLACK
6
CONTINUOUS
10
52.4073319999999967
20
-57.8131969999999953
11
52.6678069999999963
21
-58.1526539999999983
0
LINE
8
BLACK
6
CONTINUOUS
10
52.6678069999999963
20
-58.1526539999999983
11
52.9568749999999966
21
-58.4681179999999969
0
LINE
8
BLACK
6
CONTINUOUS
10
52.9568749999999966
20
-58.4681179999999969
11
53.2723389999999952
21
-58.7571869999999947
0
LINE
8
BLACK
6
CONTINUOUS
10
53.2723389999999952
20
-58.7571869999999947
11
53.6117959999999982
21
-59.0176619999999943
0
LINE
8
BLACK
6
CONTINUOUS
10
53.6117959999999982
20
-59.0176619999999943
11
53.7919300000000007
21
-59.1324210000000008
0
LINE
8
BLACK
6
CONTINUOUS
10
53.7919300000000007
20
-59.1324210000000008
11
54.0417360000000002
21
-59.280777999999998
0
LINE
8
BLACK
6
CONTINUOUS
10
54.0417360000000002
20
-59.280777999999998
11
54.2943149999999974
21
-59.4104639999999975
0
LINE
8
BLACK
6
CONTINUOUS
10
54.2943149999999974
20
-59.4104639999999975
11
54.5493549999999985
21
-59.5229019999999949
0
LINE
8
BLACK
6
CONTINUOUS
10
54.5493549999999985
20
-59.5229019999999949
11
54.8062350000000009
21
-59.6193259999999938
0
LINE
8
BLACK
6
CONTINUOUS
10
54.8062350000000009
20
-59.6193259999999938
11
55.0643449999999959
21
-59.7009749999999997
0
LINE
8
BLACK
6
CONTINUOUS
10
55.0643449999999959
20
-59.7009749999999997
11
55.3230239999999966
21
-59.7690669999999997
0
LINE
8
BLACK
6
CONTINUOUS
10
55.3230239999999966
20
-59.7690669999999997
11
55.5816230000000004
21
-59.824828999999994
0
LINE
8
BLACK
6
CONTINUOUS
10
55.5816230000000004
20
-59.824828999999994
11
55.8393469999999965
21
-59.8694649999999982
0
LINE
8
BLACK
6
CONTINUOUS
10
55.8393469999999965
20
-59.8694649999999982
11
56.3508220000000009
21
-59.930462999999996
0
LINE
8
BLACK
6
CONTINUOUS
10
56.3508220000000009
20
-59.930462999999996
11
56.8515639999999962
21
-59.9617949999999951
0
LINE
8
BLACK
6
CONTINUOUS
10
56.8515639999999962
20
-59.9617949999999951
11
57.3367140000000006
21
-59.9733469999999969
0
LINE
8
BLACK
6
CONTINUOUS
10
57.3367140000000006
20
-59.9733469999999969
11
57.8011379999999946
21
-59.9749999999999943
0
LINE
8
BLACK
6
CONTINUOUS
10
57.8011379999999946
20
-59.9749999999999943
11
78.6988619999999912
21
-59.9749999999999943
0
LINE
8
BLACK
6
CONTINUOUS
10
78.6988619999999912
20
-59.9749999999999943
11
79.1632850000000019
21
-59.9733469999999969
0
LINE
8
BLACK
6
CONTINUOUS
10
79.1632850000000019
20
-59.9733469999999969
11
79.6484370000000013
21
-59.9617949999999951
0
LINE
8
BLACK
6
CONTINUOUS
10
79.6484370000000013
20
-59.9617949999999951
11
80.1491749999999996
21
-59.9304640000000006
0
LINE
8
BLACK
6
CONTINUOUS
10
80.1491749999999996
20
-59.9304640000000006
11
80.6606519999999989
21
-59.8694649999999982
0
LINE
8
BLACK
6
CONTINUOUS
10
80.6606519999999989
20
-59.8694649999999982
11
80.9183709999999934
21
-59.8248299999999986
0
LINE
8
BLACK
6
CONTINUOUS
10
80.9183709999999934
20
-59.8248299999999986
11
81.1769960000000026
21
-59.7690619999999981
0
LINE
8
BLACK
6
CONTINUOUS
10
81.1769960000000026
20
-59.7690619999999981
11
81.4356539999999995
21
-59.7009749999999997
0
LINE
8
BLACK
6
CONTINUOUS
10
81.4356539999999995
20
-59.7009749999999997
11
81.6937640000000016
21
-59.6193259999999938
0
LINE
8
BLACK
6
CONTINUOUS
10
81.6937640000000016
20
-59.6193259999999938
11
81.9506289999999922
21
-59.5229079999999939
0
LINE
8
BLACK
6
CONTINUOUS
10
81.9506289999999922
20
-59.5229079999999939
11
82.2056839999999909
21
-59.4104639999999975
0
LINE
8
BLACK
6
CONTINUOUS
10
82.2056839999999909
20
-59.4104639999999975
11
82.4582630000000023
21
-59.280777999999998
0
LINE
8
BLACK
6
CONTINUOUS
10
82.4582630000000023
20
-59.280777999999998
11
82.7080689999999947
21
-59.1324210000000008
0
LINE
8
BLACK
6
CONTINUOUS
10
82.7080689999999947
20
-59.1324210000000008
11
82.8882040000000018
21
-59.0176619999999943
0
LINE
8
BLACK
6
CONTINUOUS
10
82.8882040000000018
20
-59.0176619999999943
11
83.2276609999999977
21
-58.7571869999999947
0
LINE
8
BLACK
6
CONTINUOUS
10
83.2276609999999977
20
-58.7571869999999947
11
83.5431249999999892
21
-58.4681179999999969
0
LINE
8
BLACK
6
CONTINUOUS
10
83.5431249999999892
20
-58.4681179999999969
11
83.8321929999999895
21
-58.1526539999999983
0
LINE
8
BLACK
6
CONTINUOUS
10
83.8321929999999895
20
-58.1526539999999983
11
84.0926679999999891
21
-57.8131969999999953
0
LINE
8
BLACK
6
CONTINUOUS
10
84.0926679999999891
20
-57.8131969999999953
11
84.3225649999999973
21
-57.4523289999999989
0
LINE
8
BLACK
6
CONTINUOUS
10
84.3225649999999973
20
-57.4523289999999989
11
84.5201359999999937
21
-57.0727979999999988
0
LINE
8
BLACK
6
CONTINUOUS
10
84.5201359999999937
20
-57.0727979999999988
11
84.6838769999999954
21
-56.6774920000000009
0
LINE
8
BLACK
6
CONTINUOUS
10
84.6838769999999954
20
-56.6774920000000009
11
84.8125419999999934
21
-56.2694189999999992
0
LINE
8
BLACK
6
CONTINUOUS
10
84.8125419999999934
20
-56.2694189999999992
11
84.9051509999999894
21
-55.8516849999999963
0
LINE
8
BLACK
6
CONTINUOUS
10
84.9051509999999894
20
-55.8516849999999963
11
84.9609999999999985
21
-55.427468999999995
0
LINE
8
BLACK
6
CONTINUOUS
10
84.9609999999999985
20
-55.427468999999995
11
84.9796639999999996
21
-55.
0
LINE
8
BLACK
6
CONTINUOUS
10
84.9796639999999996
20
-55.
11
84.9609999999999985
21
-54.5725309999999979
0
LINE
8
BLACK
6
CONTINUOUS
10
84.9609999999999985
20
-54.5725309999999979
11
84.9051509999999894
21
-54.1483149999999966
0
LINE
8
BLACK
6
CONTINUOUS
10
84.9051509999999894
20
-54.1483149999999966
11
84.8125419999999934
21
-53.7305810000000008
0
LINE
8
BLACK
6
CONTINUOUS
10
84.8125419999999934
20
-53.7305810000000008
11
84.6838769999999954
21
-53.3225079999999991
0
LINE
8
BLACK
6
CONTINUOUS
10
84.6838769999999954
20
-53.3225079999999991
11
84.5201359999999937
21
-52.9272019999999941
0
LINE
8
BLACK
6
CONTINUOUS
10
84.5201359999999937
20
-52.9272019999999941
11
84.3225649999999973
21
-52.5476710000000011
0
LINE
8
BLACK
6
CONTINUOUS
10
84.3225649999999973
20
-52.5476710000000011
11
84.0926679999999891
21
-52.1868029999999976
0
LINE
8
BLACK
6
CONTINUOUS
10
84.0926679999999891
20
-52.1868029999999976
11
83.8321929999999895
21
-51.8473459999999946
0
LINE
8
BLACK
6
CONTINUOUS
10
83.8321929999999895
20
-51.8473459999999946
11
83.5431249999999892
21
-51.531881999999996
0
LINE
8
BLACK
6
CONTINUOUS
10
83.5431249999999892
20
-51.531881999999996
11
83.2276609999999977
21
-51.2428129999999982
0
LINE
8
BLACK
6
CONTINUOUS
10
83.2276609999999977
20
-51.2428129999999982
11
82.8882040000000018
21
-50.9823379999999986
0
LINE
8
BLACK
6
CONTINUOUS
10
82.8882040000000018
20
-50.9823379999999986
11
82.7080689999999947
21
-50.8675779999999946
0
LINE
8
BLACK
6
CONTINUOUS
10
82.7080689999999947
20
-50.8675779999999946
11
82.4582630000000023
21
-50.7192209999999974
0
LINE
8
BLACK
6
CONTINUOUS
10
82.4582630000000023
20
-50.7192209999999974
11
82.2056839999999909
21
-50.5895349999999979
0
LINE
8
BLACK
6
CONTINUOUS
10
82.2056839999999909
20
-50.5895349999999979
11
81.9506289999999922
21
-50.4770909999999944
0
LINE
8
BLACK
6
CONTINUOUS
10
81.9506289999999922
20
-50.4770909999999944
11
81.6937640000000016
21
-50.3806729999999945
0
LINE
8
BLACK
6
CONTINUOUS
10
81.6937640000000016
20
-50.3806729999999945
11
81.4356539999999995
21
-50.2990239999999957
0
LINE
8
BLACK
6
CONTINUOUS
10
81.4356539999999995
20
-50.2990239999999957
11
81.1769960000000026
21
-50.2309369999999973
0
LINE
8
BLACK
6
CONTINUOUS
10
81.1769960000000026
20
-50.2309369999999973
11
80.9183709999999934
21
-50.1751689999999968
0
LINE
8
BLACK
6
CONTINUOUS
10
80.9183709999999934
20
-50.1751689999999968
11
80.6606519999999989
21
-50.1305339999999973
0
LINE
8
BLACK
6
CONTINUOUS
10
80.6606519999999989
20
-50.1305339999999973
11
80.1491749999999996
21
-50.0695349999999948
0
LINE
8
BLACK
6
CONTINUOUS
10
80.1491749999999996
20
-50.0695349999999948
11
79.6484370000000013
21
-50.0382040000000003
0
LINE
8
BLACK
6
CONTINUOUS
10
79.6484370000000013
20
-50.0382040000000003
11
79.1632850000000019
21
-50.0266519999999986
0
LINE
8
BLACK
6
CONTINUOUS
10
79.1632850000000019
20
-50.0266519999999986
11
78.6988619999999912
21
-50.0249999999999986
0
LINE
8
BLACK
6
CONTINUOUS
10
78.6988619999999912
20
-50.0249999999999986
11
57.8011379999999946
21
-50.0249999999999986
  0
ENDSEC
  0
EOF
