%TF.GenerationSoftware,KiCad,Pcbnew,9.0.6*%
%TF.CreationDate,2025-12-27T03:33:34+09:00*%
%TF.ProjectId,muon,6d756f6e-2e6b-4696-9361-645f70636258,rev?*%
%TF.SameCoordinates,Original*%
%TF.FileFunction,Legend,Top*%
%TF.FilePolarity,Positive*%
%FSLAX46Y46*%
G04 Gerber Fmt 4.6, Leading zero omitted, Abs format (unit mm)*
G04 Created by KiCad (PCBNEW 9.0.6) date 2025-12-27 03:33:34*
%MOMM*%
%LPD*%
G01*
G04 APERTURE LIST*
G04 Aperture macros list*
%AMRoundRect*
0 Rectangle with rounded corners*
0 $1 Rounding radius*
0 $2 $3 $4 $5 $6 $7 $8 $9 X,Y pos of 4 corners*
0 Add a 4 corners polygon primitive as box body*
4,1,4,$2,$3,$4,$5,$6,$7,$8,$9,$2,$3,0*
0 Add four circle primitives for the rounded corners*
1,1,$1+$1,$2,$3*
1,1,$1+$1,$4,$5*
1,1,$1+$1,$6,$7*
1,1,$1+$1,$8,$9*
0 Add four rect primitives between the rounded corners*
20,1,$1+$1,$2,$3,$4,$5,0*
20,1,$1+$1,$4,$5,$6,$7,0*
20,1,$1+$1,$6,$7,$8,$9,0*
20,1,$1+$1,$8,$9,$2,$3,0*%
G04 Aperture macros list end*
%ADD10C,0.167500*%
%ADD11C,0.250000*%
%ADD12C,0.100000*%
%ADD13C,0.180000*%
%ADD14C,0.200000*%
%ADD15C,0.120000*%
%ADD16C,3.125000*%
%ADD17RoundRect,0.150000X-0.150000X-0.200000X0.150000X-0.200000X0.150000X0.200000X-0.150000X0.200000X0*%
%ADD18RoundRect,0.200000X-0.200000X-0.275000X0.200000X-0.275000X0.200000X0.275000X-0.200000X0.275000X0*%
%ADD19C,3.200000*%
%ADD20RoundRect,0.243750X0.243750X0.456250X-0.243750X0.456250X-0.243750X-0.456250X0.243750X-0.456250X0*%
%ADD21RoundRect,0.075000X-0.200000X0.075000X-0.200000X-0.075000X0.200000X-0.075000X0.200000X0.075000X0*%
%ADD22C,0.600000*%
%ADD23RoundRect,0.050000X0.250000X0.675000X-0.250000X0.675000X-0.250000X-0.675000X0.250000X-0.675000X0*%
%ADD24RoundRect,0.050000X0.100000X0.675000X-0.100000X0.675000X-0.100000X-0.675000X0.100000X-0.675000X0*%
%ADD25O,1.000000X2.100000*%
%ADD26O,1.000000X1.800000*%
%ADD27RoundRect,0.150000X-0.150000X-0.625000X0.150000X-0.625000X0.150000X0.625000X-0.150000X0.625000X0*%
%ADD28RoundRect,0.250000X-0.350000X-0.650000X0.350000X-0.650000X0.350000X0.650000X-0.350000X0.650000X0*%
G04 APERTURE END LIST*
D10*
G36*
X71915285Y-58053165D02*
G01*
X71949763Y-58064784D01*
X71980952Y-58080945D01*
X72006337Y-58099895D01*
X72028209Y-58122977D01*
X72048739Y-58153602D01*
X72065228Y-58189031D01*
X72092720Y-58055335D01*
X72220934Y-58055335D01*
X72017608Y-59006100D01*
X71892994Y-59006100D01*
X71920486Y-58877885D01*
X71874669Y-58930010D01*
X71843123Y-58955878D01*
X71808961Y-58977170D01*
X71771211Y-58994287D01*
X71730761Y-59006634D01*
X71685138Y-59014522D01*
X71636566Y-59017145D01*
X71582728Y-59013059D01*
X71511157Y-58991807D01*
X71479807Y-58974561D01*
X71451486Y-58952997D01*
X71416579Y-58912976D01*
X71400516Y-58882482D01*
X71388830Y-58847788D01*
X71380886Y-58804089D01*
X71378256Y-58755153D01*
X71380198Y-58725861D01*
X71511952Y-58725861D01*
X71514027Y-58762565D01*
X71529951Y-58821803D01*
X71560301Y-58863851D01*
X71582134Y-58879927D01*
X71607991Y-58891852D01*
X71641739Y-58900302D01*
X71680504Y-58903577D01*
X71750992Y-58895780D01*
X71816438Y-58870019D01*
X71845954Y-58849821D01*
X71872866Y-58824783D01*
X71894566Y-58799163D01*
X71919766Y-58761879D01*
X71940997Y-58720619D01*
X71959467Y-58671714D01*
X71973588Y-58617775D01*
X72008444Y-58451023D01*
X72017608Y-58357583D01*
X72016525Y-58329217D01*
X72002302Y-58261123D01*
X71973588Y-58211041D01*
X71957761Y-58195809D01*
X71934196Y-58179919D01*
X71907002Y-58168256D01*
X71873701Y-58160538D01*
X71836210Y-58157939D01*
X71829447Y-58158013D01*
X71758182Y-58169145D01*
X71726325Y-58181753D01*
X71696916Y-58199046D01*
X71668818Y-58222096D01*
X71643388Y-58250237D01*
X71618894Y-58286381D01*
X71597517Y-58328452D01*
X71577599Y-58381582D01*
X71561454Y-58441859D01*
X71522916Y-58621375D01*
X71522349Y-58623840D01*
X71514560Y-58672262D01*
X71511952Y-58725861D01*
X71380198Y-58725861D01*
X71382142Y-58696539D01*
X71392902Y-58626939D01*
X71435040Y-58432695D01*
X71442695Y-58400483D01*
X71481103Y-58288009D01*
X71529588Y-58201795D01*
X71587064Y-58137729D01*
X71591115Y-58134243D01*
X71664711Y-58084833D01*
X71704696Y-58067346D01*
X71746704Y-58054760D01*
X71792219Y-58046907D01*
X71839892Y-58044289D01*
X71915285Y-58053165D01*
G37*
G36*
X72500599Y-58055335D02*
G01*
X72300873Y-59006100D01*
X72425487Y-59006100D01*
X72628813Y-58055335D01*
X72500599Y-58055335D01*
G37*
G36*
X72566547Y-57731077D02*
G01*
X72529891Y-57899629D01*
X72665469Y-57899629D01*
X72702125Y-57731077D01*
X72566547Y-57731077D01*
G37*
G36*
X73375503Y-57699550D02*
G01*
X73447805Y-57722261D01*
X73504465Y-57760369D01*
X73537577Y-57801544D01*
X73553681Y-57833305D01*
X73565422Y-57869054D01*
X73573277Y-57912934D01*
X73575895Y-57961895D01*
X73574830Y-57994308D01*
X73557567Y-58099273D01*
X73449481Y-58610411D01*
X73409331Y-58748360D01*
X73361810Y-58848195D01*
X73306621Y-58921905D01*
X73288779Y-58938952D01*
X73256508Y-58964147D01*
X73221322Y-58985003D01*
X73182260Y-59001816D01*
X73140074Y-59014012D01*
X73092282Y-59021816D01*
X73040947Y-59024427D01*
X72961476Y-59017508D01*
X72888271Y-58994080D01*
X72857466Y-58976437D01*
X72830257Y-58954879D01*
X72795686Y-58912781D01*
X72779415Y-58880829D01*
X72767601Y-58844930D01*
X72759658Y-58800614D01*
X72757027Y-58751471D01*
X72757074Y-58744685D01*
X72758153Y-58729543D01*
X72896205Y-58729543D01*
X72897187Y-58756978D01*
X72909964Y-58818043D01*
X72936543Y-58859557D01*
X72942018Y-58865030D01*
X72962555Y-58880201D01*
X72987425Y-58891432D01*
X73019828Y-58899103D01*
X73057475Y-58901695D01*
X73121482Y-58894308D01*
X73178703Y-58870067D01*
X73202959Y-58851460D01*
X73224145Y-58828465D01*
X73232704Y-58817135D01*
X73255770Y-58778606D01*
X73276813Y-58730820D01*
X73298549Y-58664119D01*
X73317585Y-58584801D01*
X73414707Y-58134129D01*
X73421606Y-58100389D01*
X73430297Y-58038464D01*
X73433035Y-57983905D01*
X73432423Y-57962497D01*
X73420312Y-57898749D01*
X73394579Y-57855609D01*
X73392786Y-57853865D01*
X73372495Y-57838749D01*
X73347654Y-57827615D01*
X73313644Y-57819770D01*
X73273647Y-57817153D01*
X73214113Y-57823510D01*
X73155866Y-57846939D01*
X73130767Y-57865520D01*
X73108777Y-57888583D01*
X73098629Y-57901913D01*
X73074543Y-57941476D01*
X73052482Y-57989896D01*
X73029860Y-58055983D01*
X73009855Y-58134129D01*
X72914533Y-58584801D01*
X72907492Y-58618122D01*
X72898925Y-58676756D01*
X72896205Y-58729543D01*
X72758153Y-58729543D01*
X72761590Y-58681297D01*
X72773473Y-58610411D01*
X72883441Y-58099273D01*
X72885578Y-58089996D01*
X72925023Y-57960582D01*
X72972768Y-57863347D01*
X73028101Y-57791543D01*
X73042836Y-57777335D01*
X73074296Y-57752487D01*
X73108854Y-57731939D01*
X73147978Y-57715166D01*
X73190436Y-57703015D01*
X73239315Y-57695158D01*
X73291975Y-57692539D01*
X73375503Y-57699550D01*
G37*
G36*
X73660826Y-58775281D02*
G01*
X73663444Y-58817973D01*
X73671295Y-58856871D01*
X73683254Y-58889498D01*
X73699711Y-58918740D01*
X73737820Y-58960361D01*
X73795630Y-58995946D01*
X73872700Y-59018105D01*
X73953992Y-59024427D01*
X74005091Y-59021800D01*
X74053469Y-59013880D01*
X74096946Y-59001407D01*
X74138053Y-58984061D01*
X74211972Y-58935692D01*
X74219584Y-58929187D01*
X74252463Y-58897835D01*
X74281482Y-58862939D01*
X74328157Y-58782234D01*
X74359899Y-58684932D01*
X74362526Y-58672677D01*
X74375830Y-58598048D01*
X74380772Y-58543468D01*
X74380854Y-58537100D01*
X74378239Y-58495577D01*
X74370410Y-58457250D01*
X74347880Y-58403403D01*
X74330578Y-58378399D01*
X74309655Y-58357337D01*
X74256387Y-58325722D01*
X74248958Y-58322809D01*
X74292909Y-58301469D01*
X74332859Y-58275694D01*
X74391818Y-58220205D01*
X74419392Y-58183207D01*
X74442382Y-58143099D01*
X74472412Y-58059017D01*
X74487293Y-57986155D01*
X74492540Y-57938085D01*
X74489921Y-57897996D01*
X74482063Y-57860969D01*
X74469881Y-57828988D01*
X74453056Y-57799834D01*
X74415628Y-57758487D01*
X74355198Y-57720456D01*
X74279911Y-57698191D01*
X74208620Y-57692539D01*
X74155214Y-57695635D01*
X74105520Y-57703935D01*
X74062120Y-57716513D01*
X74022039Y-57733708D01*
X73986526Y-57754676D01*
X73954124Y-57779942D01*
X73898940Y-57843023D01*
X73855270Y-57925447D01*
X73823625Y-58031344D01*
X73822096Y-58038807D01*
X73953992Y-58038807D01*
X73967254Y-57988313D01*
X73984543Y-57944234D01*
X74003655Y-57909923D01*
X74026085Y-57880887D01*
X74049992Y-57858586D01*
X74076804Y-57840893D01*
X74137824Y-57819629D01*
X74186610Y-57815353D01*
X74223516Y-57818007D01*
X74256454Y-57826107D01*
X74282103Y-57837959D01*
X74304398Y-57854369D01*
X74305742Y-57855609D01*
X74322954Y-57875336D01*
X74335910Y-57898133D01*
X74349115Y-57953332D01*
X74349680Y-57969177D01*
X74336834Y-58060817D01*
X74325828Y-58102500D01*
X74310021Y-58140213D01*
X74291223Y-58171122D01*
X74268038Y-58198736D01*
X74250758Y-58214723D01*
X74220806Y-58236441D01*
X74188549Y-58253245D01*
X74154874Y-58264830D01*
X74119191Y-58271527D01*
X74087688Y-58273307D01*
X74023540Y-58273307D01*
X73994248Y-58396039D01*
X74067560Y-58396039D01*
X74106720Y-58398655D01*
X74141165Y-58406494D01*
X74168020Y-58418007D01*
X74190822Y-58433732D01*
X74197656Y-58440059D01*
X74214806Y-58460930D01*
X74227734Y-58485094D01*
X74240939Y-58543916D01*
X74241594Y-58562791D01*
X74225066Y-58680041D01*
X74214465Y-58722159D01*
X74199225Y-58760585D01*
X74180488Y-58793529D01*
X74157600Y-58822950D01*
X74137190Y-58843111D01*
X74108103Y-58865180D01*
X74076746Y-58882268D01*
X74008900Y-58901255D01*
X73972320Y-58903577D01*
X73930821Y-58900959D01*
X73895127Y-58893104D01*
X73868227Y-58881790D01*
X73845574Y-58866377D01*
X73844024Y-58865039D01*
X73827328Y-58846964D01*
X73814604Y-58825406D01*
X73800978Y-58770819D01*
X73800086Y-58749671D01*
X73807368Y-58685523D01*
X73669990Y-58685523D01*
X73663352Y-58726997D01*
X73660826Y-58775281D01*
G37*
G36*
X74591380Y-58833947D02*
G01*
X74556524Y-59006100D01*
X74721476Y-59006100D01*
X74758050Y-58833947D01*
X74591380Y-58833947D01*
G37*
G36*
X75039597Y-58736825D02*
G01*
X75042215Y-58784617D01*
X75050064Y-58827618D01*
X75061854Y-58862931D01*
X75078035Y-58894395D01*
X75097638Y-58920992D01*
X75121259Y-58944213D01*
X75127555Y-58949315D01*
X75193274Y-58987418D01*
X75275365Y-59010370D01*
X75363855Y-59017145D01*
X75419004Y-59014527D01*
X75470598Y-59006669D01*
X75516196Y-58994408D01*
X75558712Y-58977451D01*
X75597135Y-58956466D01*
X75632738Y-58931039D01*
X75635011Y-58929187D01*
X75665576Y-58900883D01*
X75691826Y-58869341D01*
X75730919Y-58797713D01*
X75753486Y-58711896D01*
X75755943Y-58692887D01*
X75635011Y-58692887D01*
X75624243Y-58735814D01*
X75608952Y-58773945D01*
X75590856Y-58804794D01*
X75568765Y-58831804D01*
X75550735Y-58848593D01*
X75523685Y-58867741D01*
X75493280Y-58882805D01*
X75420849Y-58900841D01*
X75373019Y-58903577D01*
X75328824Y-58900989D01*
X75289821Y-58893340D01*
X75258326Y-58881891D01*
X75231314Y-58866390D01*
X75224677Y-58861439D01*
X75192971Y-58824728D01*
X75174161Y-58770099D01*
X75169693Y-58716697D01*
X75172519Y-58666135D01*
X75181828Y-58611638D01*
X75182539Y-58608611D01*
X75217313Y-58440059D01*
X75234197Y-58377879D01*
X75254644Y-58324080D01*
X75275639Y-58283718D01*
X75299537Y-58249838D01*
X75329081Y-58220205D01*
X75359081Y-58198940D01*
X75391752Y-58182182D01*
X75465935Y-58161774D01*
X75521443Y-58157939D01*
X75564398Y-58160558D01*
X75601960Y-58168412D01*
X75630720Y-58179805D01*
X75654975Y-58195343D01*
X75662503Y-58201877D01*
X75691984Y-58243946D01*
X75706704Y-58302767D01*
X75708323Y-58335655D01*
X75706441Y-58368629D01*
X75829255Y-58368629D01*
X75831055Y-58320927D01*
X75828437Y-58272464D01*
X75820578Y-58228487D01*
X75808708Y-58191970D01*
X75792393Y-58159260D01*
X75754143Y-58112119D01*
X75695801Y-58074118D01*
X75619709Y-58050344D01*
X75528807Y-58042489D01*
X75472992Y-58045108D01*
X75420783Y-58052962D01*
X75374738Y-58065203D01*
X75331906Y-58082123D01*
X75293530Y-58102940D01*
X75258151Y-58128134D01*
X75196624Y-58191321D01*
X75145862Y-58274021D01*
X75105933Y-58380218D01*
X75092781Y-58432695D01*
X75052443Y-58615893D01*
X75039896Y-58717958D01*
X75039597Y-58736825D01*
G37*
G36*
X76547347Y-58047460D02*
G01*
X76629365Y-58069117D01*
X76695662Y-58106637D01*
X76696419Y-58107245D01*
X76719973Y-58129602D01*
X76739522Y-58155429D01*
X76755756Y-58186308D01*
X76767575Y-58221011D01*
X76775437Y-58263218D01*
X76778056Y-58309963D01*
X76774169Y-58366512D01*
X76763410Y-58432695D01*
X76721272Y-58626939D01*
X76709672Y-58674842D01*
X76670942Y-58781721D01*
X76622105Y-58863264D01*
X76563766Y-58923705D01*
X76557071Y-58929138D01*
X76480254Y-58976985D01*
X76437355Y-58994234D01*
X76391910Y-59006675D01*
X76341801Y-59014527D01*
X76288928Y-59017145D01*
X76209134Y-59011093D01*
X76128975Y-58988656D01*
X76065392Y-58951197D01*
X76063560Y-58949774D01*
X76040470Y-58928258D01*
X76021267Y-58903102D01*
X76005192Y-58872545D01*
X75993467Y-58837921D01*
X75985615Y-58795296D01*
X75982998Y-58747789D01*
X75983291Y-58729100D01*
X75984141Y-58722179D01*
X76114894Y-58722179D01*
X76118100Y-58768429D01*
X76135093Y-58823477D01*
X76148817Y-58844360D01*
X76166196Y-58861439D01*
X76172302Y-58866040D01*
X76198741Y-58881756D01*
X76228939Y-58893340D01*
X76265649Y-58900989D01*
X76307256Y-58903577D01*
X76352870Y-58900393D01*
X76390131Y-58892452D01*
X76424952Y-58879785D01*
X76458083Y-58862000D01*
X76488654Y-58839429D01*
X76516112Y-58810979D01*
X76539254Y-58777068D01*
X76559452Y-58736576D01*
X76578981Y-58682353D01*
X76594858Y-58619575D01*
X76631514Y-58440059D01*
X76632225Y-58437032D01*
X76641534Y-58382779D01*
X76644360Y-58333773D01*
X76641181Y-58290883D01*
X76623269Y-58235454D01*
X76608602Y-58213568D01*
X76590085Y-58195304D01*
X76566039Y-58179790D01*
X76537594Y-58168414D01*
X76500323Y-58160558D01*
X76457480Y-58157939D01*
X76404846Y-58161705D01*
X76333063Y-58182137D01*
X76301466Y-58198910D01*
X76272482Y-58220205D01*
X76244611Y-58248873D01*
X76220780Y-58283133D01*
X76199707Y-58324080D01*
X76179380Y-58377879D01*
X76162514Y-58440059D01*
X76125858Y-58621375D01*
X76114894Y-58722179D01*
X75984141Y-58722179D01*
X75995844Y-58626939D01*
X76037982Y-58432695D01*
X76049526Y-58385576D01*
X76088354Y-58279450D01*
X76137701Y-58197652D01*
X76197370Y-58135929D01*
X76204666Y-58130024D01*
X76241795Y-58104027D01*
X76281563Y-58082596D01*
X76324986Y-58065381D01*
X76371086Y-58052959D01*
X76422039Y-58045107D01*
X76475808Y-58042489D01*
X76547347Y-58047460D01*
G37*
G36*
X77094377Y-58055335D02*
G01*
X76894651Y-59006100D01*
X77021065Y-59006100D01*
X77151161Y-58399721D01*
X77164370Y-58350931D01*
X77182143Y-58307132D01*
X77202069Y-58272349D01*
X77226012Y-58241731D01*
X77248283Y-58220205D01*
X77276840Y-58198407D01*
X77307743Y-58181372D01*
X77376510Y-58161235D01*
X77422317Y-58157939D01*
X77461607Y-58160531D01*
X77496310Y-58168203D01*
X77524450Y-58179745D01*
X77548643Y-58195410D01*
X77554213Y-58200077D01*
X77585001Y-58241069D01*
X77600384Y-58297403D01*
X77601833Y-58324609D01*
X77590869Y-58399721D01*
X77462655Y-59006100D01*
X77590869Y-59006100D01*
X77720965Y-58394239D01*
X77734184Y-58347466D01*
X77752020Y-58305190D01*
X77772309Y-58270940D01*
X77796733Y-58240542D01*
X77818005Y-58220205D01*
X77846670Y-58198365D01*
X77877747Y-58181308D01*
X77946836Y-58161272D01*
X77993921Y-58157939D01*
X78033211Y-58160531D01*
X78067914Y-58168203D01*
X78096054Y-58179745D01*
X78120247Y-58195410D01*
X78125817Y-58200077D01*
X78155335Y-58239754D01*
X78170105Y-58295274D01*
X78171637Y-58324609D01*
X78162473Y-58399721D01*
X78032377Y-59006100D01*
X78160591Y-59006100D01*
X78292569Y-58381393D01*
X78305116Y-58299131D01*
X78305333Y-58286153D01*
X78302727Y-58243799D01*
X78294961Y-58205142D01*
X78283010Y-58172217D01*
X78266621Y-58142700D01*
X78235703Y-58106637D01*
X78178967Y-58070412D01*
X78106389Y-58049507D01*
X78036059Y-58044289D01*
X77987319Y-58046907D01*
X77941061Y-58054760D01*
X77898821Y-58067266D01*
X77858796Y-58084621D01*
X77785677Y-58133487D01*
X77719083Y-58203677D01*
X77708123Y-58170489D01*
X77692622Y-58140831D01*
X77673668Y-58116008D01*
X77650615Y-58094592D01*
X77636689Y-58084627D01*
X77576073Y-58057352D01*
X77496360Y-58044822D01*
X77473619Y-58044289D01*
X77384377Y-58054414D01*
X77319713Y-58075463D01*
X77280018Y-58096762D01*
X77243315Y-58122852D01*
X77195181Y-58170703D01*
X77222591Y-58055335D01*
X77094377Y-58055335D01*
G37*
D11*
G36*
X58281988Y-50802168D02*
G01*
X58123413Y-51565000D01*
X58302626Y-51565000D01*
X58503577Y-50598408D01*
X58324364Y-50598408D01*
X58139655Y-50721446D01*
X58098439Y-50919710D01*
X58281988Y-50802168D01*
G37*
G36*
X58593336Y-50892355D02*
G01*
X58551876Y-51091962D01*
X58741714Y-51091962D01*
X58783174Y-50892355D01*
X58593336Y-50892355D01*
G37*
G36*
X58494723Y-51366796D02*
G01*
X58453507Y-51565000D01*
X58643345Y-51565000D01*
X58684561Y-51366796D01*
X58494723Y-51366796D01*
G37*
G36*
X59068450Y-50802168D02*
G01*
X58909875Y-51565000D01*
X59089088Y-51565000D01*
X59290039Y-50598408D01*
X59110826Y-50598408D01*
X58926117Y-50721446D01*
X58884901Y-50919710D01*
X59068450Y-50802168D01*
G37*
G36*
X59636436Y-51191796D02*
G01*
X59626711Y-51248176D01*
X59621908Y-51300059D01*
X59621814Y-51343453D01*
X59625806Y-51383119D01*
X59633083Y-51416327D01*
X59643811Y-51446386D01*
X59657047Y-51471788D01*
X59673330Y-51494412D01*
X59713814Y-51530542D01*
X59766756Y-51556482D01*
X59835278Y-51572095D01*
X59900280Y-51575990D01*
X59947983Y-51574032D01*
X59993245Y-51568135D01*
X60033977Y-51558864D01*
X60072522Y-51545989D01*
X60107751Y-51530076D01*
X60140948Y-51510741D01*
X60166321Y-51492581D01*
X60194916Y-51467774D01*
X60220479Y-51440335D01*
X60262082Y-51378349D01*
X60292675Y-51304246D01*
X60305417Y-51254689D01*
X60307371Y-51245102D01*
X60130845Y-51245102D01*
X60128586Y-51256032D01*
X60120196Y-51286785D01*
X60108384Y-51314810D01*
X60094095Y-51338589D01*
X60076836Y-51359455D01*
X60064594Y-51370887D01*
X60022189Y-51396574D01*
X59969536Y-51410085D01*
X59938381Y-51411920D01*
X59907510Y-51409966D01*
X59880931Y-51404105D01*
X59860980Y-51395679D01*
X59844289Y-51384205D01*
X59823771Y-51358614D01*
X59810069Y-51316812D01*
X59807888Y-51256172D01*
X59817542Y-51189049D01*
X59861018Y-50979855D01*
X59873346Y-50929969D01*
X59888078Y-50886610D01*
X59904005Y-50851531D01*
X59921730Y-50821976D01*
X59938381Y-50800764D01*
X59956660Y-50783315D01*
X59977114Y-50769264D01*
X60024002Y-50751319D01*
X60074119Y-50746114D01*
X60104051Y-50748056D01*
X60130332Y-50753833D01*
X60151064Y-50762382D01*
X60168667Y-50774003D01*
X60184029Y-50789834D01*
X60201365Y-50824890D01*
X60205936Y-50870014D01*
X60201065Y-50907437D01*
X60199355Y-50915619D01*
X60378507Y-50915619D01*
X60380522Y-50906032D01*
X60387695Y-50861822D01*
X60390195Y-50820621D01*
X60388359Y-50785783D01*
X60382559Y-50753475D01*
X60373557Y-50725696D01*
X60361044Y-50700142D01*
X60338818Y-50669544D01*
X60317928Y-50649012D01*
X60294297Y-50631284D01*
X60238452Y-50604179D01*
X60169021Y-50588335D01*
X60109046Y-50584731D01*
X60061000Y-50586685D01*
X60015674Y-50592547D01*
X59975101Y-50601744D01*
X59936984Y-50614473D01*
X59902478Y-50630130D01*
X59870260Y-50649087D01*
X59813379Y-50696182D01*
X59764982Y-50756748D01*
X59724580Y-50832827D01*
X59692556Y-50927309D01*
X59682476Y-50970329D01*
X59636436Y-51191796D01*
G37*
G36*
X61153612Y-51565000D02*
G01*
X60963774Y-51565000D01*
X60945212Y-51377726D01*
X60620246Y-51377726D01*
X60523771Y-51565000D01*
X60335215Y-51565000D01*
X60524195Y-51224586D01*
X60700175Y-51224586D01*
X60928908Y-51224586D01*
X60890929Y-50854070D01*
X60700175Y-51224586D01*
X60524195Y-51224586D01*
X60871817Y-50598408D01*
X61018912Y-50598408D01*
X61153612Y-51565000D01*
G37*
G36*
X61858307Y-50599685D02*
G01*
X61927449Y-50611754D01*
X61981479Y-50635094D01*
X62004022Y-50650954D01*
X62023666Y-50669544D01*
X62036579Y-50685557D01*
X62049544Y-50707438D01*
X62059084Y-50731505D01*
X62065523Y-50759718D01*
X62068080Y-50790483D01*
X62066415Y-50827522D01*
X62060058Y-50867747D01*
X62059741Y-50869255D01*
X62038565Y-50931013D01*
X62003272Y-50986693D01*
X61958288Y-51031474D01*
X61930324Y-51050960D01*
X61899468Y-51067355D01*
X61913186Y-51074887D01*
X61934113Y-51090020D01*
X61951758Y-51107702D01*
X61967271Y-51129392D01*
X61979275Y-51153511D01*
X61981728Y-51159948D01*
X61988702Y-51186363D01*
X61991749Y-51215105D01*
X61990621Y-51249954D01*
X61984831Y-51287479D01*
X61978574Y-51313744D01*
X61951738Y-51385520D01*
X61914144Y-51444785D01*
X61865946Y-51492581D01*
X61855712Y-51500309D01*
X61825904Y-51519406D01*
X61793849Y-51535214D01*
X61758673Y-51547989D01*
X61721279Y-51557232D01*
X61680233Y-51563052D01*
X61636968Y-51565000D01*
X61257171Y-51565000D01*
X61290418Y-51405081D01*
X61470944Y-51405081D01*
X61652783Y-51405081D01*
X61671177Y-51404362D01*
X61718778Y-51393795D01*
X61756220Y-51370887D01*
X61758860Y-51368487D01*
X61775298Y-51350466D01*
X61788834Y-51329659D01*
X61800146Y-51304153D01*
X61808183Y-51275205D01*
X61810908Y-51258641D01*
X61809488Y-51216701D01*
X61794871Y-51184958D01*
X61791773Y-51181242D01*
X61778422Y-51169946D01*
X61761599Y-51161708D01*
X61735958Y-51155513D01*
X61705112Y-51153511D01*
X61523273Y-51153511D01*
X61470944Y-51405081D01*
X61290418Y-51405081D01*
X61375977Y-50993532D01*
X61556551Y-50993532D01*
X61727705Y-50993532D01*
X61738472Y-50993308D01*
X61788394Y-50984634D01*
X61827539Y-50963490D01*
X61830022Y-50961458D01*
X61846082Y-50945572D01*
X61859149Y-50927199D01*
X61869846Y-50904603D01*
X61877242Y-50878677D01*
X61880131Y-50861107D01*
X61878607Y-50820284D01*
X61872773Y-50803896D01*
X61863626Y-50789834D01*
X61859486Y-50785292D01*
X61845508Y-50774251D01*
X61828177Y-50766047D01*
X61804616Y-50760322D01*
X61776553Y-50758387D01*
X61605400Y-50758387D01*
X61556551Y-50993532D01*
X61375977Y-50993532D01*
X61458122Y-50598408D01*
X61823204Y-50598408D01*
X61858307Y-50599685D01*
G37*
G36*
X62294409Y-50598408D02*
G01*
X62093458Y-51565000D01*
X62687152Y-51565000D01*
X62720369Y-51405081D01*
X62307232Y-51405081D01*
X62474966Y-50598408D01*
X62294409Y-50598408D01*
G37*
G36*
X63162692Y-50758387D02*
G01*
X63582546Y-50758387D01*
X63615824Y-50598408D01*
X63015414Y-50598408D01*
X62814463Y-51565000D01*
X63414873Y-51565000D01*
X63448090Y-51405081D01*
X63028237Y-51405081D01*
X63079711Y-51157602D01*
X63438015Y-51157602D01*
X63471293Y-50997623D01*
X63112989Y-50997623D01*
X63162692Y-50758387D01*
G37*
G36*
X63620526Y-51495329D02*
G01*
X63661726Y-51530644D01*
X63715441Y-51555720D01*
X63784796Y-51570279D01*
X63841016Y-51573243D01*
X63890091Y-51571277D01*
X63936729Y-51565332D01*
X63978324Y-51556047D01*
X64017677Y-51543122D01*
X64053171Y-51527302D01*
X64086541Y-51508049D01*
X64103027Y-51496673D01*
X64131747Y-51473230D01*
X64157440Y-51447123D01*
X64179683Y-51418904D01*
X64198981Y-51388076D01*
X64228793Y-51318110D01*
X64240292Y-51273801D01*
X64246595Y-51233901D01*
X64248262Y-51197051D01*
X64245732Y-51166112D01*
X64239333Y-51137697D01*
X64229813Y-51113346D01*
X64216878Y-51091208D01*
X64181599Y-51054217D01*
X64131576Y-51025002D01*
X64062816Y-51003666D01*
X64053446Y-51001775D01*
X63956848Y-50983946D01*
X63925911Y-50976048D01*
X63900451Y-50965567D01*
X63868127Y-50941570D01*
X63858398Y-50928052D01*
X63852176Y-50912486D01*
X63850288Y-50875143D01*
X63852434Y-50862313D01*
X63859737Y-50836711D01*
X63870466Y-50813817D01*
X63883846Y-50794559D01*
X63900316Y-50777760D01*
X63907328Y-50772065D01*
X63927616Y-50759039D01*
X63950311Y-50749292D01*
X64003562Y-50739661D01*
X64018397Y-50739275D01*
X64051477Y-50741281D01*
X64079292Y-50747502D01*
X64097867Y-50755817D01*
X64112913Y-50767248D01*
X64116216Y-50770722D01*
X64132731Y-50800926D01*
X64137727Y-50844291D01*
X64135023Y-50873243D01*
X64307520Y-50873243D01*
X64311273Y-50830727D01*
X64310657Y-50791374D01*
X64306213Y-50757888D01*
X64298049Y-50727098D01*
X64286938Y-50700529D01*
X64272515Y-50676363D01*
X64259648Y-50659958D01*
X64240006Y-50640502D01*
X64217707Y-50623991D01*
X64165017Y-50599748D01*
X64097957Y-50586671D01*
X64054545Y-50584731D01*
X64010934Y-50586675D01*
X63969224Y-50592466D01*
X63930287Y-50601799D01*
X63893249Y-50614701D01*
X63858472Y-50630943D01*
X63825635Y-50650575D01*
X63806761Y-50664049D01*
X63777656Y-50688649D01*
X63751865Y-50715705D01*
X63730052Y-50744315D01*
X63711378Y-50775333D01*
X63683579Y-50844521D01*
X63675786Y-50875990D01*
X63669744Y-50914665D01*
X63668299Y-50950480D01*
X63671010Y-50980704D01*
X63677579Y-51008532D01*
X63687292Y-51032522D01*
X63700436Y-51054386D01*
X63736351Y-51091181D01*
X63787387Y-51120455D01*
X63857609Y-51141966D01*
X63875149Y-51145329D01*
X63961672Y-51160350D01*
X63993422Y-51167425D01*
X64019271Y-51177519D01*
X64036444Y-51188378D01*
X64049355Y-51201383D01*
X64062771Y-51231505D01*
X64063343Y-51273144D01*
X64060651Y-51288883D01*
X64052891Y-51316643D01*
X64041825Y-51340989D01*
X64028639Y-51360446D01*
X64012591Y-51376989D01*
X63972875Y-51400906D01*
X63919862Y-51413945D01*
X63883087Y-51416011D01*
X63846710Y-51414057D01*
X63815928Y-51408196D01*
X63793908Y-51400016D01*
X63776043Y-51388940D01*
X63769575Y-51383222D01*
X63751000Y-51353833D01*
X63742578Y-51309600D01*
X63743380Y-51271114D01*
X63573570Y-51271114D01*
X63569199Y-51316391D01*
X63569317Y-51357972D01*
X63573343Y-51392680D01*
X63581115Y-51424429D01*
X63591791Y-51451500D01*
X63605765Y-51476064D01*
X63620526Y-51495329D01*
G37*
G36*
X65231965Y-50589579D02*
G01*
X65298391Y-50606654D01*
X65351711Y-50634941D01*
X65374430Y-50653504D01*
X65394461Y-50674979D01*
X65417914Y-50713052D01*
X65428517Y-50741802D01*
X65435673Y-50773916D01*
X65439615Y-50813472D01*
X65439394Y-50857163D01*
X65434240Y-50911142D01*
X65423954Y-50970329D01*
X65377914Y-51191796D01*
X65352393Y-51286785D01*
X65316780Y-51370100D01*
X65273855Y-51435332D01*
X65223247Y-51485743D01*
X65189942Y-51509735D01*
X65155744Y-51529531D01*
X65119779Y-51545824D01*
X65081330Y-51558818D01*
X65041047Y-51568176D01*
X64997365Y-51574037D01*
X64951710Y-51575990D01*
X64890590Y-51572483D01*
X64822389Y-51557323D01*
X64769754Y-51531778D01*
X64729509Y-51495969D01*
X64713309Y-51473449D01*
X64700151Y-51448128D01*
X64689475Y-51418055D01*
X64682254Y-51384793D01*
X64678316Y-51344913D01*
X64678476Y-51301238D01*
X64682760Y-51255466D01*
X64864264Y-51255466D01*
X64865129Y-51317866D01*
X64877582Y-51359958D01*
X64895934Y-51384073D01*
X64912131Y-51395550D01*
X64931736Y-51403935D01*
X64959115Y-51409945D01*
X64991155Y-51411920D01*
X65034067Y-51407861D01*
X65082358Y-51390582D01*
X65104166Y-51376396D01*
X65123962Y-51358614D01*
X65139201Y-51340553D01*
X65156865Y-51312942D01*
X65172376Y-51280327D01*
X65187171Y-51237898D01*
X65199311Y-51189049D01*
X65242787Y-50979855D01*
X65253947Y-50904212D01*
X65252458Y-50842086D01*
X65239917Y-50800764D01*
X65219702Y-50774161D01*
X65203631Y-50762517D01*
X65184538Y-50754005D01*
X65159060Y-50748078D01*
X65129580Y-50746114D01*
X65081022Y-50750941D01*
X65033269Y-50768548D01*
X65012566Y-50782340D01*
X64994147Y-50799420D01*
X64979777Y-50817246D01*
X64962017Y-50846522D01*
X64946065Y-50881799D01*
X64930701Y-50927431D01*
X64917821Y-50979855D01*
X64874346Y-51189049D01*
X64864264Y-51255466D01*
X64682760Y-51255466D01*
X64683382Y-51248819D01*
X64693240Y-51191796D01*
X64739280Y-50970329D01*
X64748983Y-50928750D01*
X64780935Y-50833828D01*
X64821288Y-50757361D01*
X64869607Y-50696500D01*
X64926317Y-50649215D01*
X64958381Y-50630203D01*
X64992698Y-50614503D01*
X65030540Y-50601755D01*
X65070783Y-50592547D01*
X65115651Y-50586685D01*
X65163163Y-50584731D01*
X65231965Y-50589579D01*
G37*
G36*
X66375341Y-50598408D02*
G01*
X66196066Y-50598408D01*
X66070159Y-51204070D01*
X65848448Y-50598408D01*
X65667891Y-50598408D01*
X65466940Y-51565000D01*
X65647497Y-51565000D01*
X65772855Y-50962086D01*
X65995116Y-51565000D01*
X66174390Y-51565000D01*
X66375341Y-50598408D01*
G37*
G36*
X66554981Y-50598408D02*
G01*
X66354030Y-51565000D01*
X66947724Y-51565000D01*
X66980941Y-51405081D01*
X66567804Y-51405081D01*
X66735538Y-50598408D01*
X66554981Y-50598408D01*
G37*
G36*
X67537509Y-51167189D02*
G01*
X67931229Y-50598408D01*
X67733331Y-50598408D01*
X67483226Y-50990785D01*
X67397619Y-50598408D01*
X67201065Y-50598408D01*
X67358052Y-51168532D01*
X67275620Y-51565000D01*
X67454833Y-51565000D01*
X67537509Y-51167189D01*
G37*
D12*
X53030000Y-52250000D02*
G75*
G02*
X53030003Y-57750002I1470000J-2750000D01*
G01*
D13*
G36*
X58584433Y-53553923D02*
G01*
X58673924Y-53560872D01*
X58744421Y-53578177D01*
X58799603Y-53604284D01*
X58842331Y-53638788D01*
X58866198Y-53667572D01*
X58882962Y-53694165D01*
X58896831Y-53723015D01*
X58908225Y-53755494D01*
X58916464Y-53790316D01*
X58921741Y-53829572D01*
X58923500Y-53871301D01*
X58923500Y-54172782D01*
X58053568Y-54172782D01*
X58053568Y-53867619D01*
X58197549Y-53867619D01*
X58197549Y-54006655D01*
X58779573Y-54006655D01*
X58779573Y-53867619D01*
X58774175Y-53822115D01*
X58757818Y-53784598D01*
X58745489Y-53769044D01*
X58730334Y-53755677D01*
X58710994Y-53743774D01*
X58685865Y-53733396D01*
X58656589Y-53725781D01*
X58618581Y-53720506D01*
X58575307Y-53718747D01*
X58407970Y-53718747D01*
X58344811Y-53722357D01*
X58287332Y-53735339D01*
X58247997Y-53755677D01*
X58223331Y-53779953D01*
X58212462Y-53797442D01*
X58204525Y-53817212D01*
X58199300Y-53841055D01*
X58197549Y-53867619D01*
X58053568Y-53867619D01*
X58053568Y-53866410D01*
X58056977Y-53809311D01*
X58071849Y-53742199D01*
X58097709Y-53685538D01*
X58114848Y-53660449D01*
X58134790Y-53637524D01*
X58170582Y-53608035D01*
X58197314Y-53592613D01*
X58227215Y-53579748D01*
X58262714Y-53568840D01*
X58301901Y-53560887D01*
X58348427Y-53555638D01*
X58399342Y-53553883D01*
X58576516Y-53553883D01*
X58584433Y-53553923D01*
G37*
G36*
X58236951Y-53299388D02*
G01*
X58923500Y-53299388D01*
X58923500Y-53134469D01*
X58053568Y-53134469D01*
X58053568Y-53299388D01*
X58164301Y-53445787D01*
X58342739Y-53445787D01*
X58236951Y-53299388D01*
G37*
G36*
X68538468Y-52254865D02*
G01*
X68604628Y-52266512D01*
X68660431Y-52289429D01*
X68685165Y-52305162D01*
X68707798Y-52323745D01*
X68725234Y-52341701D01*
X68742217Y-52363881D01*
X68756215Y-52387977D01*
X68767584Y-52414963D01*
X68775796Y-52444044D01*
X68781103Y-52477417D01*
X68782866Y-52513228D01*
X68780451Y-52554822D01*
X68767315Y-52611591D01*
X68743518Y-52658418D01*
X68726026Y-52680743D01*
X68706024Y-52700574D01*
X68683420Y-52717983D01*
X68657599Y-52733223D01*
X68629048Y-52745796D01*
X68818586Y-53123500D01*
X68627839Y-53123500D01*
X68462975Y-52770361D01*
X68339931Y-52770361D01*
X68339931Y-53123500D01*
X68173804Y-53123500D01*
X68173804Y-52633799D01*
X68339931Y-52633799D01*
X68496168Y-52633799D01*
X68516169Y-52632821D01*
X68556503Y-52622827D01*
X68586018Y-52603024D01*
X68592500Y-52595841D01*
X68603223Y-52579637D01*
X68611096Y-52560901D01*
X68616259Y-52538323D01*
X68618002Y-52513228D01*
X68617395Y-52499225D01*
X68607629Y-52461065D01*
X68597809Y-52444323D01*
X68584754Y-52429532D01*
X68577374Y-52423123D01*
X68561157Y-52412356D01*
X68542876Y-52404455D01*
X68520946Y-52399291D01*
X68496168Y-52397549D01*
X68339931Y-52397549D01*
X68339931Y-52633799D01*
X68173804Y-52633799D01*
X68173804Y-52253568D01*
X68504795Y-52253568D01*
X68538468Y-52254865D01*
G37*
G36*
X68915581Y-52993092D02*
G01*
X68915581Y-53123500D01*
X69420065Y-53123500D01*
X69420065Y-52978309D01*
X69123530Y-52978309D01*
X69340051Y-52697766D01*
X69364612Y-52663467D01*
X69384757Y-52629452D01*
X69399127Y-52599342D01*
X69409566Y-52570014D01*
X69416534Y-52539171D01*
X69420065Y-52494763D01*
X69420065Y-52473826D01*
X69418288Y-52442964D01*
X69412884Y-52413408D01*
X69404353Y-52386712D01*
X69392397Y-52361196D01*
X69389290Y-52355728D01*
X69374003Y-52333097D01*
X69356154Y-52312885D01*
X69311944Y-52278534D01*
X69300703Y-52272032D01*
X69273974Y-52259416D01*
X69245368Y-52249874D01*
X69182773Y-52240380D01*
X69167823Y-52240049D01*
X69133002Y-52241777D01*
X69100016Y-52246837D01*
X69069111Y-52255055D01*
X69040580Y-52266241D01*
X69031206Y-52270823D01*
X69005672Y-52285988D01*
X68983011Y-52303718D01*
X68964127Y-52323033D01*
X68947831Y-52344826D01*
X68942619Y-52353255D01*
X68921264Y-52403487D01*
X68912175Y-52460867D01*
X68911844Y-52475090D01*
X68911844Y-52504600D01*
X69071817Y-52504600D01*
X69071817Y-52484927D01*
X69073554Y-52460439D01*
X69078672Y-52438971D01*
X69086237Y-52421910D01*
X69096437Y-52407386D01*
X69108815Y-52395800D01*
X69123094Y-52387512D01*
X69156843Y-52380434D01*
X69161668Y-52380348D01*
X69182607Y-52382108D01*
X69201021Y-52387398D01*
X69215603Y-52395301D01*
X69228087Y-52406154D01*
X69228108Y-52406177D01*
X69245745Y-52435488D01*
X69252692Y-52475337D01*
X69252728Y-52478772D01*
X69252728Y-52495972D01*
X69245691Y-52540871D01*
X69223226Y-52590213D01*
X69204698Y-52617807D01*
X68915581Y-52993092D01*
G37*
G36*
X68538468Y-53354865D02*
G01*
X68604628Y-53366512D01*
X68660431Y-53389429D01*
X68685165Y-53405162D01*
X68707798Y-53423745D01*
X68725234Y-53441701D01*
X68742217Y-53463881D01*
X68756215Y-53487977D01*
X68767584Y-53514963D01*
X68775796Y-53544044D01*
X68781103Y-53577417D01*
X68782866Y-53613228D01*
X68780451Y-53654822D01*
X68767315Y-53711591D01*
X68743518Y-53758418D01*
X68726026Y-53780743D01*
X68706024Y-53800574D01*
X68683420Y-53817983D01*
X68657599Y-53833223D01*
X68629048Y-53845796D01*
X68818586Y-54223500D01*
X68627839Y-54223500D01*
X68462975Y-53870361D01*
X68339931Y-53870361D01*
X68339931Y-54223500D01*
X68173804Y-54223500D01*
X68173804Y-53733799D01*
X68339931Y-53733799D01*
X68496168Y-53733799D01*
X68516169Y-53732821D01*
X68556503Y-53722827D01*
X68586018Y-53703024D01*
X68592500Y-53695841D01*
X68603223Y-53679637D01*
X68611096Y-53660901D01*
X68616259Y-53638323D01*
X68618002Y-53613228D01*
X68617395Y-53599225D01*
X68607629Y-53561065D01*
X68597809Y-53544323D01*
X68584754Y-53529532D01*
X68577374Y-53523123D01*
X68561157Y-53512356D01*
X68542876Y-53504455D01*
X68520946Y-53499291D01*
X68496168Y-53497549D01*
X68339931Y-53497549D01*
X68339931Y-53733799D01*
X68173804Y-53733799D01*
X68173804Y-53353568D01*
X68504795Y-53353568D01*
X68538468Y-53354865D01*
G37*
G36*
X69047198Y-53536951D02*
G01*
X69047198Y-54223500D01*
X69212117Y-54223500D01*
X69212117Y-53353568D01*
X69047198Y-53353568D01*
X68900799Y-53464301D01*
X68900799Y-53642739D01*
X69047198Y-53536951D01*
G37*
D14*
G36*
X63839931Y-53747549D02*
G01*
X64226263Y-53747549D01*
X64226263Y-53603568D01*
X63673804Y-53603568D01*
X63673804Y-54473500D01*
X63839931Y-54473500D01*
X63839931Y-54114206D01*
X64170923Y-54114206D01*
X64170923Y-53970280D01*
X63839931Y-53970280D01*
X63839931Y-53747549D01*
G37*
G36*
X64454874Y-53786951D02*
G01*
X64454874Y-54473500D01*
X64619793Y-54473500D01*
X64619793Y-53603568D01*
X64454874Y-53603568D01*
X64308475Y-53714301D01*
X64308475Y-53892739D01*
X64454874Y-53786951D01*
G37*
D13*
G36*
X68543989Y-58378581D02*
G01*
X68558197Y-58346969D01*
X68568972Y-58314118D01*
X68580107Y-58245606D01*
X68580918Y-58219817D01*
X68579160Y-58181862D01*
X68573884Y-58145395D01*
X68565427Y-58111582D01*
X68553673Y-58079304D01*
X68543989Y-58058635D01*
X68527499Y-58030365D01*
X68508438Y-58004850D01*
X68487472Y-57982714D01*
X68463978Y-57963049D01*
X68439410Y-57946693D01*
X68410991Y-57931844D01*
X68381294Y-57920363D01*
X68318705Y-57907574D01*
X68286801Y-57906081D01*
X67703568Y-57906081D01*
X67703568Y-58072154D01*
X68280701Y-58072154D01*
X68311476Y-58073939D01*
X68339294Y-58079394D01*
X68361244Y-58087374D01*
X68380660Y-58098434D01*
X68396326Y-58111557D01*
X68410497Y-58128191D01*
X68421636Y-58146814D01*
X68434730Y-58189558D01*
X68436937Y-58219817D01*
X68435178Y-58246991D01*
X68429899Y-58271593D01*
X68421884Y-58292055D01*
X68410856Y-58310324D01*
X68396326Y-58326869D01*
X68362674Y-58349456D01*
X68317971Y-58362350D01*
X68280701Y-58365008D01*
X67703568Y-58365008D01*
X67703568Y-58531135D01*
X68286801Y-58531135D01*
X68321372Y-58529376D01*
X68354409Y-58524097D01*
X68384992Y-58515632D01*
X68414265Y-58503864D01*
X68439410Y-58490524D01*
X68465835Y-58472773D01*
X68489574Y-58452505D01*
X68528487Y-58405347D01*
X68543989Y-58378581D01*
G37*
G36*
X67886951Y-57641035D02*
G01*
X68573500Y-57641035D01*
X68573500Y-57476116D01*
X67703568Y-57476116D01*
X67703568Y-57641035D01*
X67814301Y-57787434D01*
X67992739Y-57787434D01*
X67886951Y-57641035D01*
G37*
G36*
X67653832Y-56278309D02*
G01*
X67653832Y-56423500D01*
X67759675Y-56423500D01*
X67793036Y-56421741D01*
X67823578Y-56416463D01*
X67849328Y-56408428D01*
X67872585Y-56397367D01*
X67906074Y-56371842D01*
X67921390Y-56354038D01*
X67934025Y-56333937D01*
X67951365Y-56286317D01*
X67957786Y-56224179D01*
X67957786Y-55553568D01*
X67791658Y-55553568D01*
X67791658Y-56197141D01*
X67789853Y-56225106D01*
X67784247Y-56246130D01*
X67775667Y-56259900D01*
X67765690Y-56268243D01*
X67752955Y-56274091D01*
X67721536Y-56278309D01*
X67653832Y-56278309D01*
G37*
G36*
X68230911Y-55736951D02*
G01*
X68230911Y-56423500D01*
X68395830Y-56423500D01*
X68395830Y-55553568D01*
X68230911Y-55553568D01*
X68084512Y-55664301D01*
X68084512Y-55842739D01*
X68230911Y-55736951D01*
G37*
G36*
X64812827Y-57528309D02*
G01*
X64812827Y-57673500D01*
X64918670Y-57673500D01*
X64952031Y-57671741D01*
X64982573Y-57666463D01*
X65008323Y-57658428D01*
X65031580Y-57647367D01*
X65065069Y-57621842D01*
X65080385Y-57604038D01*
X65093020Y-57583937D01*
X65110360Y-57536317D01*
X65116781Y-57474179D01*
X65116781Y-56803568D01*
X64950653Y-56803568D01*
X64950653Y-57447141D01*
X64948848Y-57475106D01*
X64943242Y-57496130D01*
X64934662Y-57509900D01*
X64924685Y-57518243D01*
X64911950Y-57524091D01*
X64880531Y-57528309D01*
X64812827Y-57528309D01*
G37*
G36*
X65258289Y-57543092D02*
G01*
X65258289Y-57673500D01*
X65762773Y-57673500D01*
X65762773Y-57528309D01*
X65466238Y-57528309D01*
X65682759Y-57247766D01*
X65707320Y-57213467D01*
X65727465Y-57179452D01*
X65741835Y-57149342D01*
X65752274Y-57120014D01*
X65759243Y-57089171D01*
X65762773Y-57044763D01*
X65762773Y-57023826D01*
X65760996Y-56992964D01*
X65755592Y-56963408D01*
X65747061Y-56936712D01*
X65735105Y-56911196D01*
X65731998Y-56905728D01*
X65716711Y-56883097D01*
X65698862Y-56862885D01*
X65654652Y-56828534D01*
X65643412Y-56822032D01*
X65616682Y-56809416D01*
X65588076Y-56799874D01*
X65525481Y-56790380D01*
X65510531Y-56790049D01*
X65475710Y-56791777D01*
X65442724Y-56796837D01*
X65411819Y-56805055D01*
X65383289Y-56816241D01*
X65373914Y-56820823D01*
X65348380Y-56835988D01*
X65325719Y-56853718D01*
X65306835Y-56873033D01*
X65290539Y-56894826D01*
X65285327Y-56903255D01*
X65263972Y-56953487D01*
X65254883Y-57010867D01*
X65254553Y-57025090D01*
X65254553Y-57054600D01*
X65414526Y-57054600D01*
X65414526Y-57034927D01*
X65416262Y-57010439D01*
X65421381Y-56988971D01*
X65428945Y-56971910D01*
X65439145Y-56957386D01*
X65451523Y-56945800D01*
X65465803Y-56937512D01*
X65499551Y-56930434D01*
X65504376Y-56930348D01*
X65525315Y-56932108D01*
X65543729Y-56937398D01*
X65558311Y-56945301D01*
X65570795Y-56956154D01*
X65570817Y-56956177D01*
X65588454Y-56985488D01*
X65595400Y-57025337D01*
X65595436Y-57028772D01*
X65595436Y-57045972D01*
X65588399Y-57090871D01*
X65565934Y-57140213D01*
X65547406Y-57167807D01*
X65258289Y-57543092D01*
G37*
D15*
%TO.C,D1*%
X59200000Y-52000000D02*
X61160000Y-52000000D01*
X59200000Y-53200000D02*
X61160000Y-53200000D01*
X61160000Y-53200000D02*
X61160000Y-52000000D01*
%TO.C,R2*%
X66462742Y-52177500D02*
X66937258Y-52177500D01*
X66462742Y-53222500D02*
X66937258Y-53222500D01*
%TO.C,R1*%
X66462742Y-53977500D02*
X66937258Y-53977500D01*
X66462742Y-55022500D02*
X66937258Y-55022500D01*
%TO.C,F1*%
X63458578Y-51890000D02*
X62941422Y-51890000D01*
X63458578Y-53310000D02*
X62941422Y-53310000D01*
%TO.C,U1*%
X67200000Y-55690000D02*
X66410000Y-55690000D01*
X67200000Y-58510000D02*
X66200000Y-58510000D01*
X66080000Y-55690000D02*
X65800000Y-55690000D01*
X66080000Y-55410000D01*
X66080000Y-55690000D01*
G36*
X66080000Y-55690000D02*
G01*
X65800000Y-55690000D01*
X66080000Y-55410000D01*
X66080000Y-55690000D01*
G37*
%TO.C,J2*%
X58290000Y-55115000D02*
X59340000Y-55115000D01*
X58290000Y-57615000D02*
X58290000Y-55115000D01*
X59340000Y-55115000D02*
X59340000Y-54125000D01*
X59460000Y-59585000D02*
X63340000Y-59585000D01*
X64510000Y-55115000D02*
X63460000Y-55115000D01*
X64510000Y-57615000D02*
X64510000Y-55115000D01*
%TD*%
%LPC*%
D16*
X83562500Y-55000000D02*
G75*
G02*
X80437500Y-55000000I-1562500J0D01*
G01*
X80437500Y-55000000D02*
G75*
G02*
X83562500Y-55000000I1562500J0D01*
G01*
D17*
%TO.C,D1*%
X60600000Y-52600000D03*
X59200000Y-52600000D03*
%TD*%
D18*
%TO.C,R2*%
X65875000Y-52700000D03*
X67525000Y-52700000D03*
%TD*%
%TO.C,R1*%
X65875000Y-54500000D03*
X67525000Y-54500000D03*
%TD*%
D19*
%TO.C,MH1*%
X82000000Y-55000000D03*
%TD*%
%TO.C,MH2*%
X54500000Y-55000000D03*
%TD*%
D20*
%TO.C,F1*%
X64137500Y-52600000D03*
X62262500Y-52600000D03*
%TD*%
D21*
%TO.C,U1*%
X66315000Y-56100000D03*
X66315000Y-56600000D03*
X66315000Y-57100000D03*
X66315000Y-57600000D03*
X66315000Y-58100000D03*
X67085000Y-58100000D03*
X67085000Y-57600000D03*
X67085000Y-57100000D03*
X67085000Y-56600000D03*
X67085000Y-56100000D03*
%TD*%
D22*
%TO.C,J1*%
X76390000Y-54880000D03*
X70610000Y-54880000D03*
D23*
X76725000Y-56100000D03*
X75950000Y-56100000D03*
D24*
X74750000Y-56100000D03*
X73750000Y-56100000D03*
X73250000Y-56100000D03*
X72250000Y-56100000D03*
D23*
X71050000Y-56100000D03*
X70275000Y-56100000D03*
D24*
X71750000Y-56100000D03*
X72750000Y-56100000D03*
X74250000Y-56100000D03*
X75250000Y-56100000D03*
D25*
X77820000Y-55380000D03*
D26*
X77820000Y-51200000D03*
D25*
X69180000Y-55380000D03*
D26*
X69180000Y-51200000D03*
%TD*%
D27*
%TO.C,J2*%
X59900000Y-54900000D03*
X60900000Y-54900000D03*
X61900000Y-54900000D03*
X62900000Y-54900000D03*
D28*
X58600000Y-58775000D03*
X64200000Y-58775000D03*
%TD*%
%LPD*%
M02*
