%TF.GenerationSoftware,KiCad,Pcbnew,9.0.6*%
%TF.CreationDate,2025-12-27T03:33:36+09:00*%
%TF.ProjectId,muon,6d756f6e-2e6b-4696-9361-645f70636258,rev?*%
%TF.SameCoordinates,Original*%
%TF.FileFunction,Drillmap*%
%TF.FilePolarity,Positive*%
%FSLAX45Y45*%
G04 Gerber Fmt 4.5, Leading zero omitted, Abs format (unit mm)*
G04 Created by KiCad (PCBNEW 9.0.6) date 2025-12-27 03:33:36*
%MOMM*%
%LPD*%
G01*
G04 APERTURE LIST*
%ADD10C,0.050000*%
%ADD11C,0.200000*%
%ADD12C,0.100000*%
G04 APERTURE END LIST*
D10*
X7869895Y-6000000D02*
X7875570Y-6000000D01*
X7881285Y-5999997D01*
X7887039Y-5999991D01*
X7892831Y-5999979D01*
X7895741Y-5999971D01*
X7898661Y-5999960D01*
X7901589Y-5999946D01*
X7904526Y-5999930D01*
X7907473Y-5999911D01*
X7910427Y-5999889D01*
X7913391Y-5999864D01*
X7916362Y-5999835D01*
X7919342Y-5999802D01*
X7922330Y-5999765D01*
X7925327Y-5999723D01*
X7928331Y-5999677D01*
X7931343Y-5999626D01*
X7934362Y-5999570D01*
X7937389Y-5999509D01*
X7940424Y-5999442D01*
X7943465Y-5999369D01*
X7946514Y-5999291D01*
X7949570Y-5999206D01*
X7952633Y-5999114D01*
X7955703Y-5999016D01*
X7958779Y-5998910D01*
X7961862Y-5998798D01*
X7964951Y-5998678D01*
X7968046Y-5998550D01*
X7971148Y-5998414D01*
X7972701Y-5998343D01*
X7974255Y-5998270D01*
X7975811Y-5998195D01*
X7977369Y-5998117D01*
X7978928Y-5998038D01*
X7980488Y-5997956D01*
X7982050Y-5997872D01*
X7983613Y-5997786D01*
X7985177Y-5997697D01*
X7986743Y-5997606D01*
X7988310Y-5997513D01*
X7989879Y-5997417D01*
X7991449Y-5997319D01*
X7993020Y-5997219D01*
X7994593Y-5997116D01*
X7996166Y-5997010D01*
X7997741Y-5996902D01*
X7999317Y-5996791D01*
X8000895Y-5996678D01*
X8002473Y-5996562D01*
X8004053Y-5996444D01*
X8005634Y-5996323D01*
X8007216Y-5996199D01*
X8008800Y-5996072D01*
X8010384Y-5995942D01*
X8011970Y-5995810D01*
X8013556Y-5995675D01*
X8015144Y-5995537D01*
X8016733Y-5995396D01*
X8018323Y-5995252D01*
X8019914Y-5995105D01*
X8021505Y-5994956D01*
X8023098Y-5994803D01*
X8024692Y-5994647D01*
X8026287Y-5994488D01*
X8027883Y-5994326D01*
X8029479Y-5994160D01*
X8031077Y-5993992D01*
X8032676Y-5993820D01*
X8034275Y-5993646D01*
X8035875Y-5993467D01*
X8037476Y-5993286D01*
X8039078Y-5993101D01*
X8040681Y-5992913D01*
X8042285Y-5992721D01*
X8043889Y-5992527D01*
X8045495Y-5992328D01*
X8047101Y-5992126D01*
X8048707Y-5991921D01*
X8050315Y-5991712D01*
X8051923Y-5991499D01*
X8053532Y-5991283D01*
X8055141Y-5991064D01*
X8056752Y-5990840D01*
X8058363Y-5990613D01*
X8059974Y-5990382D01*
X8061586Y-5990148D01*
X8063199Y-5989909D01*
X8064812Y-5989667D01*
X8066426Y-5989421D01*
X8068041Y-5989171D01*
X8069656Y-5988917D01*
X8071271Y-5988660D01*
X8072887Y-5988398D01*
X8074504Y-5988132D01*
X8076121Y-5987863D01*
X8077738Y-5987589D01*
X8079356Y-5987311D01*
X8080975Y-5987029D01*
X8082594Y-5986743D01*
X8084213Y-5986453D01*
X8085832Y-5986158D01*
X8087452Y-5985859D01*
X8089073Y-5985556D01*
X8090693Y-5985249D01*
X8092314Y-5984938D01*
X8093936Y-5984622D01*
X8095557Y-5984301D01*
X8097179Y-5983976D01*
X8098801Y-5983647D01*
X8100424Y-5983313D01*
X8102046Y-5982975D01*
X8103669Y-5982632D01*
X8105292Y-5982285D01*
X8106915Y-5981933D01*
X8108538Y-5981577D01*
X8110162Y-5981215D01*
X8111786Y-5980849D01*
X8113409Y-5980479D01*
X8115033Y-5980103D01*
X8116657Y-5979723D01*
X8118281Y-5979338D01*
X8119905Y-5978948D01*
X8121529Y-5978554D01*
X8123153Y-5978154D01*
X8124778Y-5977750D01*
X8126402Y-5977340D01*
X8128026Y-5976926D01*
X8129650Y-5976506D01*
X8131274Y-5976081D01*
X8132898Y-5975652D01*
X8134522Y-5975217D01*
X8136145Y-5974777D01*
X8137769Y-5974332D01*
X8139392Y-5973882D01*
X8141016Y-5973426D01*
X8142639Y-5972965D01*
X8144262Y-5972499D01*
X8145885Y-5972028D01*
X8147507Y-5971551D01*
X8149130Y-5971069D01*
X8150752Y-5970581D01*
X8152374Y-5970088D01*
X8153995Y-5969590D01*
X8155617Y-5969086D01*
X8157238Y-5968576D01*
X8158858Y-5968061D01*
X8160479Y-5967540D01*
X8162099Y-5967014D01*
X8163718Y-5966482D01*
X8165337Y-5965944D01*
X8166956Y-5965401D01*
X8168575Y-5964852D01*
X8170193Y-5964297D01*
X8171810Y-5963736D01*
X8173427Y-5963169D01*
X8175044Y-5962597D01*
X8176660Y-5962018D01*
X8178275Y-5961434D01*
X8179890Y-5960844D01*
X8181505Y-5960247D01*
X8183119Y-5959645D01*
X8184732Y-5959037D01*
X8186345Y-5958422D01*
X8187957Y-5957802D01*
X8189569Y-5957175D01*
X8191179Y-5956542D01*
X8192790Y-5955903D01*
X8194399Y-5955258D01*
X8196008Y-5954606D01*
X8197616Y-5953948D01*
X8199224Y-5953284D01*
X8200831Y-5952614D01*
X8202437Y-5951937D01*
X8204042Y-5951253D01*
X8205646Y-5950563D01*
X8207250Y-5949867D01*
X8208853Y-5949164D01*
X8210455Y-5948455D01*
X8212056Y-5947739D01*
X8213656Y-5947017D01*
X8215256Y-5946288D01*
X8216854Y-5945552D01*
X8218452Y-5944809D01*
X8220049Y-5944060D01*
X8221644Y-5943304D01*
X8223239Y-5942542D01*
X8224833Y-5941772D01*
X8226426Y-5940996D01*
X8228018Y-5940212D01*
X8229609Y-5939422D01*
X8231198Y-5938625D01*
X8232787Y-5937821D01*
X8234375Y-5937010D01*
X8235962Y-5936192D01*
X8237547Y-5935367D01*
X8239132Y-5934535D01*
X8240715Y-5933696D01*
X8242297Y-5932849D01*
X8243878Y-5931996D01*
X8245458Y-5931135D01*
X8247037Y-5930267D01*
X8248614Y-5929391D01*
X8250190Y-5928509D01*
X8251765Y-5927619D01*
X8253339Y-5926722D01*
X8254911Y-5925817D01*
X8256483Y-5924905D01*
X8258052Y-5923985D01*
X8259621Y-5923058D01*
X8261188Y-5922124D01*
X8262754Y-5921182D01*
X8264319Y-5920232D01*
X8265882Y-5919275D01*
X8267444Y-5918310D01*
X8269004Y-5917338D01*
X8270563Y-5916358D01*
X8272120Y-5915370D01*
X7869895Y-5000000D02*
X7875570Y-5000000D01*
X7881285Y-5000003D01*
X7887039Y-5000009D01*
X7892831Y-5000021D01*
X7895741Y-5000029D01*
X7898661Y-5000040D01*
X7901589Y-5000054D01*
X7904526Y-5000070D01*
X7907473Y-5000089D01*
X7910427Y-5000111D01*
X7913391Y-5000136D01*
X7916362Y-5000165D01*
X7919342Y-5000198D01*
X7922330Y-5000235D01*
X7925327Y-5000277D01*
X7928331Y-5000323D01*
X7931343Y-5000374D01*
X7934362Y-5000430D01*
X7937389Y-5000491D01*
X7940424Y-5000558D01*
X7943465Y-5000631D01*
X7946514Y-5000709D01*
X7949570Y-5000794D01*
X7952633Y-5000886D01*
X7955703Y-5000984D01*
X7958779Y-5001090D01*
X7961862Y-5001202D01*
X7964951Y-5001322D01*
X7968046Y-5001450D01*
X7971148Y-5001586D01*
X7972701Y-5001657D01*
X7974255Y-5001730D01*
X7975811Y-5001805D01*
X7977369Y-5001883D01*
X7978928Y-5001962D01*
X7980488Y-5002044D01*
X7982050Y-5002128D01*
X7983613Y-5002214D01*
X7985177Y-5002303D01*
X7986743Y-5002394D01*
X7988310Y-5002487D01*
X7989879Y-5002583D01*
X7991449Y-5002681D01*
X7993020Y-5002781D01*
X7994593Y-5002884D01*
X7996166Y-5002990D01*
X7997741Y-5003098D01*
X7999317Y-5003209D01*
X8000895Y-5003322D01*
X8002473Y-5003438D01*
X8004053Y-5003556D01*
X8005634Y-5003677D01*
X8007216Y-5003801D01*
X8008800Y-5003928D01*
X8010384Y-5004058D01*
X8011970Y-5004190D01*
X8013556Y-5004325D01*
X8015144Y-5004463D01*
X8016733Y-5004604D01*
X8018323Y-5004748D01*
X8019914Y-5004895D01*
X8021505Y-5005044D01*
X8023098Y-5005197D01*
X8024692Y-5005353D01*
X8026287Y-5005512D01*
X8027883Y-5005674D01*
X8029479Y-5005840D01*
X8031077Y-5006008D01*
X8032676Y-5006180D01*
X8034275Y-5006354D01*
X8035875Y-5006533D01*
X8037476Y-5006714D01*
X8039078Y-5006899D01*
X8040681Y-5007087D01*
X8042285Y-5007279D01*
X8043889Y-5007473D01*
X8045495Y-5007672D01*
X8047101Y-5007874D01*
X8048707Y-5008079D01*
X8050315Y-5008288D01*
X8051923Y-5008501D01*
X8053532Y-5008717D01*
X8055141Y-5008936D01*
X8056752Y-5009160D01*
X8058363Y-5009387D01*
X8059974Y-5009618D01*
X8061586Y-5009852D01*
X8063199Y-5010091D01*
X8064812Y-5010333D01*
X8066426Y-5010579D01*
X8068041Y-5010829D01*
X8069656Y-5011083D01*
X8071271Y-5011340D01*
X8072887Y-5011602D01*
X8074504Y-5011868D01*
X8076121Y-5012137D01*
X8077738Y-5012411D01*
X8079356Y-5012689D01*
X8080975Y-5012971D01*
X8082594Y-5013257D01*
X8084213Y-5013547D01*
X8085832Y-5013842D01*
X8087452Y-5014141D01*
X8089073Y-5014444D01*
X8090693Y-5014751D01*
X8092314Y-5015062D01*
X8093936Y-5015378D01*
X8095557Y-5015699D01*
X8097179Y-5016024D01*
X8098801Y-5016353D01*
X8100424Y-5016687D01*
X8102046Y-5017025D01*
X8103669Y-5017368D01*
X8105292Y-5017715D01*
X8106915Y-5018067D01*
X8108538Y-5018423D01*
X8110162Y-5018785D01*
X8111786Y-5019151D01*
X8113409Y-5019521D01*
X8115033Y-5019897D01*
X8116657Y-5020277D01*
X8118281Y-5020662D01*
X8119905Y-5021052D01*
X8121529Y-5021446D01*
X8123153Y-5021846D01*
X8124778Y-5022250D01*
X8126402Y-5022660D01*
X8128026Y-5023074D01*
X8129650Y-5023494D01*
X8131274Y-5023919D01*
X8132898Y-5024348D01*
X8134522Y-5024783D01*
X8136145Y-5025223D01*
X8137769Y-5025668D01*
X8139392Y-5026118D01*
X8141016Y-5026574D01*
X8142639Y-5027035D01*
X8144262Y-5027501D01*
X8145885Y-5027972D01*
X8147507Y-5028449D01*
X8149130Y-5028931D01*
X8150752Y-5029419D01*
X8152374Y-5029912D01*
X8153995Y-5030410D01*
X8155617Y-5030914D01*
X8157238Y-5031424D01*
X8158858Y-5031939D01*
X8160479Y-5032460D01*
X8162099Y-5032986D01*
X8163718Y-5033518D01*
X8165337Y-5034056D01*
X8166956Y-5034599D01*
X8168575Y-5035148D01*
X8170193Y-5035703D01*
X8171810Y-5036264D01*
X8173427Y-5036831D01*
X8175044Y-5037403D01*
X8176660Y-5037982D01*
X8178275Y-5038566D01*
X8179890Y-5039156D01*
X8181505Y-5039753D01*
X8183119Y-5040355D01*
X8184732Y-5040963D01*
X8186345Y-5041578D01*
X8187957Y-5042198D01*
X8189569Y-5042825D01*
X8191179Y-5043458D01*
X8192790Y-5044097D01*
X8194399Y-5044742D01*
X8196008Y-5045394D01*
X8197616Y-5046052D01*
X8199224Y-5046716D01*
X8200831Y-5047386D01*
X8202437Y-5048063D01*
X8204042Y-5048747D01*
X8205646Y-5049437D01*
X8207250Y-5050133D01*
X8208853Y-5050836D01*
X8210455Y-5051545D01*
X8212056Y-5052261D01*
X8213656Y-5052983D01*
X8215256Y-5053712D01*
X8216854Y-5054448D01*
X8218452Y-5055191D01*
X8220049Y-5055940D01*
X8221644Y-5056696D01*
X8223239Y-5057458D01*
X8224833Y-5058228D01*
X8226426Y-5059004D01*
X8228018Y-5059788D01*
X8229609Y-5060578D01*
X8231198Y-5061375D01*
X8232787Y-5062179D01*
X8234375Y-5062990D01*
X8235962Y-5063808D01*
X8237547Y-5064633D01*
X8239132Y-5065465D01*
X8240715Y-5066304D01*
X8242297Y-5067151D01*
X8243878Y-5068004D01*
X8245458Y-5068865D01*
X8247037Y-5069733D01*
X8248614Y-5070609D01*
X8250190Y-5071491D01*
X8251765Y-5072381D01*
X8253339Y-5073278D01*
X8254911Y-5074183D01*
X8256483Y-5075095D01*
X8258052Y-5076015D01*
X8259621Y-5076942D01*
X8261188Y-5077876D01*
X8262754Y-5078818D01*
X8264319Y-5079768D01*
X8265882Y-5080725D01*
X8267444Y-5081690D01*
X8269004Y-5082662D01*
X8270563Y-5083642D01*
X8272120Y-5084630D01*
X5377880Y-5915370D02*
G75*
G02*
X5377880Y-5084630I264620J415370D01*
G01*
X5780105Y-6000000D02*
X7869895Y-6000000D01*
X8272120Y-5084630D02*
G75*
G02*
X8272120Y-5915370I-264620J-415370D01*
G01*
X5780105Y-6000000D02*
X5774430Y-6000000D01*
X5768715Y-5999997D01*
X5762961Y-5999991D01*
X5757169Y-5999979D01*
X5754258Y-5999971D01*
X5751339Y-5999960D01*
X5748411Y-5999946D01*
X5745473Y-5999930D01*
X5742527Y-5999911D01*
X5739573Y-5999889D01*
X5736609Y-5999864D01*
X5733638Y-5999835D01*
X5730658Y-5999802D01*
X5727669Y-5999765D01*
X5724673Y-5999723D01*
X5721669Y-5999677D01*
X5718657Y-5999626D01*
X5715638Y-5999570D01*
X5712611Y-5999509D01*
X5709576Y-5999442D01*
X5706535Y-5999369D01*
X5703486Y-5999291D01*
X5700430Y-5999206D01*
X5697367Y-5999114D01*
X5694297Y-5999016D01*
X5691221Y-5998910D01*
X5688138Y-5998798D01*
X5685049Y-5998678D01*
X5681954Y-5998550D01*
X5678852Y-5998414D01*
X5677299Y-5998343D01*
X5675745Y-5998270D01*
X5674189Y-5998195D01*
X5672631Y-5998117D01*
X5671072Y-5998038D01*
X5669512Y-5997956D01*
X5667950Y-5997872D01*
X5666387Y-5997786D01*
X5664823Y-5997697D01*
X5663257Y-5997606D01*
X5661689Y-5997513D01*
X5660121Y-5997417D01*
X5658551Y-5997319D01*
X5656980Y-5997219D01*
X5655407Y-5997116D01*
X5653834Y-5997010D01*
X5652259Y-5996902D01*
X5650682Y-5996791D01*
X5649105Y-5996678D01*
X5647526Y-5996562D01*
X5645947Y-5996444D01*
X5644366Y-5996323D01*
X5642783Y-5996199D01*
X5641200Y-5996072D01*
X5639616Y-5995942D01*
X5638030Y-5995810D01*
X5636444Y-5995675D01*
X5634856Y-5995537D01*
X5633267Y-5995396D01*
X5631677Y-5995252D01*
X5630086Y-5995105D01*
X5628495Y-5994956D01*
X5626902Y-5994803D01*
X5625308Y-5994647D01*
X5623713Y-5994488D01*
X5622117Y-5994326D01*
X5620520Y-5994160D01*
X5618923Y-5993992D01*
X5617324Y-5993820D01*
X5615725Y-5993646D01*
X5614125Y-5993467D01*
X5612523Y-5993286D01*
X5610921Y-5993101D01*
X5609319Y-5992913D01*
X5607715Y-5992721D01*
X5606111Y-5992527D01*
X5604505Y-5992328D01*
X5602899Y-5992126D01*
X5601293Y-5991921D01*
X5599685Y-5991712D01*
X5598077Y-5991499D01*
X5596468Y-5991283D01*
X5594858Y-5991064D01*
X5593248Y-5990840D01*
X5591637Y-5990613D01*
X5590026Y-5990382D01*
X5588414Y-5990148D01*
X5586801Y-5989909D01*
X5585188Y-5989667D01*
X5583574Y-5989421D01*
X5581959Y-5989171D01*
X5580344Y-5988917D01*
X5578729Y-5988660D01*
X5577113Y-5988398D01*
X5575496Y-5988132D01*
X5573879Y-5987863D01*
X5572262Y-5987589D01*
X5570644Y-5987311D01*
X5569025Y-5987029D01*
X5567406Y-5986743D01*
X5565787Y-5986453D01*
X5564168Y-5986158D01*
X5562548Y-5985859D01*
X5560927Y-5985556D01*
X5559307Y-5985249D01*
X5557686Y-5984938D01*
X5556064Y-5984622D01*
X5554443Y-5984301D01*
X5552821Y-5983976D01*
X5551199Y-5983647D01*
X5549576Y-5983313D01*
X5547954Y-5982975D01*
X5546331Y-5982632D01*
X5544708Y-5982285D01*
X5543085Y-5981933D01*
X5541462Y-5981577D01*
X5539838Y-5981215D01*
X5538214Y-5980849D01*
X5536591Y-5980479D01*
X5534967Y-5980103D01*
X5533343Y-5979723D01*
X5531719Y-5979338D01*
X5530095Y-5978948D01*
X5528471Y-5978554D01*
X5526847Y-5978154D01*
X5525222Y-5977750D01*
X5523598Y-5977340D01*
X5521974Y-5976926D01*
X5520350Y-5976506D01*
X5518726Y-5976081D01*
X5517102Y-5975652D01*
X5515478Y-5975217D01*
X5513855Y-5974777D01*
X5512231Y-5974332D01*
X5510608Y-5973882D01*
X5508984Y-5973426D01*
X5507361Y-5972965D01*
X5505738Y-5972499D01*
X5504115Y-5972028D01*
X5502493Y-5971551D01*
X5500870Y-5971069D01*
X5499248Y-5970581D01*
X5497626Y-5970088D01*
X5496005Y-5969590D01*
X5494383Y-5969086D01*
X5492762Y-5968576D01*
X5491142Y-5968061D01*
X5489521Y-5967540D01*
X5487901Y-5967014D01*
X5486282Y-5966482D01*
X5484663Y-5965944D01*
X5483044Y-5965401D01*
X5481425Y-5964852D01*
X5479807Y-5964297D01*
X5478190Y-5963736D01*
X5476573Y-5963169D01*
X5474956Y-5962597D01*
X5473340Y-5962018D01*
X5471725Y-5961434D01*
X5470110Y-5960844D01*
X5468495Y-5960247D01*
X5466881Y-5959645D01*
X5465268Y-5959037D01*
X5463655Y-5958422D01*
X5462043Y-5957802D01*
X5460431Y-5957175D01*
X5458821Y-5956542D01*
X5457210Y-5955903D01*
X5455601Y-5955258D01*
X5453992Y-5954606D01*
X5452384Y-5953948D01*
X5450776Y-5953284D01*
X5449169Y-5952614D01*
X5447563Y-5951937D01*
X5445958Y-5951253D01*
X5444354Y-5950563D01*
X5442750Y-5949867D01*
X5441147Y-5949164D01*
X5439545Y-5948455D01*
X5437944Y-5947739D01*
X5436344Y-5947017D01*
X5434744Y-5946288D01*
X5433146Y-5945552D01*
X5431548Y-5944809D01*
X5429951Y-5944060D01*
X5428356Y-5943304D01*
X5426761Y-5942542D01*
X5425167Y-5941772D01*
X5423574Y-5940996D01*
X5421982Y-5940212D01*
X5420391Y-5939422D01*
X5418802Y-5938625D01*
X5417213Y-5937821D01*
X5415625Y-5937010D01*
X5414038Y-5936192D01*
X5412453Y-5935367D01*
X5410868Y-5934535D01*
X5409285Y-5933696D01*
X5407703Y-5932849D01*
X5406122Y-5931996D01*
X5404542Y-5931135D01*
X5402963Y-5930267D01*
X5401386Y-5929391D01*
X5399810Y-5928509D01*
X5398235Y-5927619D01*
X5396661Y-5926722D01*
X5395089Y-5925817D01*
X5393517Y-5924905D01*
X5391948Y-5923985D01*
X5390379Y-5923058D01*
X5388812Y-5922124D01*
X5387246Y-5921182D01*
X5385681Y-5920232D01*
X5384118Y-5919275D01*
X5382556Y-5918310D01*
X5380996Y-5917338D01*
X5379437Y-5916358D01*
X5377880Y-5915370D01*
X7869895Y-5000000D02*
X5780105Y-5000000D01*
X5780105Y-5000000D02*
X5774430Y-5000000D01*
X5768715Y-5000003D01*
X5762961Y-5000009D01*
X5757169Y-5000021D01*
X5754258Y-5000029D01*
X5751339Y-5000040D01*
X5748411Y-5000054D01*
X5745473Y-5000070D01*
X5742527Y-5000089D01*
X5739573Y-5000111D01*
X5736609Y-5000136D01*
X5733638Y-5000165D01*
X5730658Y-5000198D01*
X5727669Y-5000235D01*
X5724673Y-5000277D01*
X5721669Y-5000323D01*
X5718657Y-5000374D01*
X5715638Y-5000430D01*
X5712611Y-5000491D01*
X5709576Y-5000558D01*
X5706535Y-5000631D01*
X5703486Y-5000709D01*
X5700430Y-5000794D01*
X5697367Y-5000886D01*
X5694297Y-5000984D01*
X5691221Y-5001090D01*
X5688138Y-5001202D01*
X5685049Y-5001322D01*
X5681954Y-5001450D01*
X5678852Y-5001586D01*
X5677299Y-5001657D01*
X5675745Y-5001730D01*
X5674189Y-5001805D01*
X5672631Y-5001883D01*
X5671072Y-5001962D01*
X5669512Y-5002044D01*
X5667950Y-5002128D01*
X5666387Y-5002214D01*
X5664823Y-5002303D01*
X5663257Y-5002394D01*
X5661689Y-5002487D01*
X5660121Y-5002583D01*
X5658551Y-5002681D01*
X5656980Y-5002781D01*
X5655407Y-5002884D01*
X5653834Y-5002990D01*
X5652259Y-5003098D01*
X5650682Y-5003209D01*
X5649105Y-5003322D01*
X5647526Y-5003438D01*
X5645947Y-5003556D01*
X5644366Y-5003677D01*
X5642783Y-5003801D01*
X5641200Y-5003928D01*
X5639616Y-5004058D01*
X5638030Y-5004190D01*
X5636444Y-5004325D01*
X5634856Y-5004463D01*
X5633267Y-5004604D01*
X5631677Y-5004748D01*
X5630086Y-5004895D01*
X5628495Y-5005044D01*
X5626902Y-5005197D01*
X5625308Y-5005353D01*
X5623713Y-5005512D01*
X5622117Y-5005674D01*
X5620520Y-5005840D01*
X5618923Y-5006008D01*
X5617324Y-5006180D01*
X5615725Y-5006354D01*
X5614125Y-5006533D01*
X5612523Y-5006714D01*
X5610921Y-5006899D01*
X5609319Y-5007087D01*
X5607715Y-5007279D01*
X5606111Y-5007473D01*
X5604505Y-5007672D01*
X5602899Y-5007874D01*
X5601293Y-5008079D01*
X5599685Y-5008288D01*
X5598077Y-5008501D01*
X5596468Y-5008717D01*
X5594858Y-5008936D01*
X5593248Y-5009160D01*
X5591637Y-5009387D01*
X5590026Y-5009618D01*
X5588414Y-5009852D01*
X5586801Y-5010091D01*
X5585188Y-5010333D01*
X5583574Y-5010579D01*
X5581959Y-5010829D01*
X5580344Y-5011083D01*
X5578729Y-5011340D01*
X5577113Y-5011602D01*
X5575496Y-5011868D01*
X5573879Y-5012137D01*
X5572262Y-5012411D01*
X5570644Y-5012689D01*
X5569025Y-5012971D01*
X5567406Y-5013257D01*
X5565787Y-5013547D01*
X5564168Y-5013842D01*
X5562548Y-5014141D01*
X5560927Y-5014444D01*
X5559307Y-5014751D01*
X5557686Y-5015062D01*
X5556064Y-5015378D01*
X5554443Y-5015699D01*
X5552821Y-5016024D01*
X5551199Y-5016353D01*
X5549576Y-5016687D01*
X5547954Y-5017025D01*
X5546331Y-5017368D01*
X5544708Y-5017715D01*
X5543085Y-5018067D01*
X5541462Y-5018423D01*
X5539838Y-5018785D01*
X5538214Y-5019151D01*
X5536591Y-5019521D01*
X5534967Y-5019897D01*
X5533343Y-5020277D01*
X5531719Y-5020662D01*
X5530095Y-5021052D01*
X5528471Y-5021446D01*
X5526847Y-5021846D01*
X5525222Y-5022250D01*
X5523598Y-5022660D01*
X5521974Y-5023074D01*
X5520350Y-5023494D01*
X5518726Y-5023919D01*
X5517102Y-5024348D01*
X5515478Y-5024783D01*
X5513855Y-5025223D01*
X5512231Y-5025668D01*
X5510608Y-5026118D01*
X5508984Y-5026574D01*
X5507361Y-5027035D01*
X5505738Y-5027501D01*
X5504115Y-5027972D01*
X5502493Y-5028449D01*
X5500870Y-5028931D01*
X5499248Y-5029419D01*
X5497626Y-5029912D01*
X5496005Y-5030410D01*
X5494383Y-5030914D01*
X5492762Y-5031424D01*
X5491142Y-5031939D01*
X5489521Y-5032460D01*
X5487901Y-5032986D01*
X5486282Y-5033518D01*
X5484663Y-5034056D01*
X5483044Y-5034599D01*
X5481425Y-5035148D01*
X5479807Y-5035703D01*
X5478190Y-5036264D01*
X5476573Y-5036831D01*
X5474956Y-5037403D01*
X5473340Y-5037982D01*
X5471725Y-5038566D01*
X5470110Y-5039156D01*
X5468495Y-5039753D01*
X5466881Y-5040355D01*
X5465268Y-5040963D01*
X5463655Y-5041578D01*
X5462043Y-5042198D01*
X5460431Y-5042825D01*
X5458821Y-5043458D01*
X5457210Y-5044097D01*
X5455601Y-5044742D01*
X5453992Y-5045394D01*
X5452384Y-5046052D01*
X5450776Y-5046716D01*
X5449169Y-5047386D01*
X5447563Y-5048063D01*
X5445958Y-5048747D01*
X5444354Y-5049437D01*
X5442750Y-5050133D01*
X5441147Y-5050836D01*
X5439545Y-5051545D01*
X5437944Y-5052261D01*
X5436344Y-5052983D01*
X5434744Y-5053712D01*
X5433146Y-5054448D01*
X5431548Y-5055191D01*
X5429951Y-5055940D01*
X5428356Y-5056696D01*
X5426761Y-5057458D01*
X5425167Y-5058228D01*
X5423574Y-5059004D01*
X5421982Y-5059788D01*
X5420391Y-5060578D01*
X5418802Y-5061375D01*
X5417213Y-5062179D01*
X5415625Y-5062990D01*
X5414038Y-5063808D01*
X5412453Y-5064633D01*
X5410868Y-5065465D01*
X5409285Y-5066304D01*
X5407703Y-5067151D01*
X5406122Y-5068004D01*
X5404542Y-5068865D01*
X5402963Y-5069733D01*
X5401386Y-5070609D01*
X5399810Y-5071491D01*
X5398235Y-5072381D01*
X5396661Y-5073278D01*
X5395089Y-5074183D01*
X5393517Y-5075095D01*
X5391948Y-5076015D01*
X5390379Y-5076942D01*
X5388812Y-5077876D01*
X5387246Y-5078818D01*
X5385681Y-5079768D01*
X5384118Y-5080725D01*
X5382556Y-5081690D01*
X5380996Y-5082662D01*
X5379437Y-5083642D01*
X5377880Y-5084630D01*
D11*
D12*
X5465000Y-5125000D02*
X5495000Y-5155000D01*
X5495000Y-5125000D02*
X5465000Y-5155000D01*
X5465000Y-5845000D02*
X5495000Y-5875000D01*
X5495000Y-5845000D02*
X5465000Y-5875000D01*
X5825000Y-5245000D02*
X5855000Y-5275000D01*
X5855000Y-5245000D02*
X5825000Y-5275000D01*
X5905000Y-5165000D02*
X5935000Y-5195000D01*
X5935000Y-5165000D02*
X5905000Y-5195000D01*
X6115000Y-5345000D02*
X6145000Y-5375000D01*
X6145000Y-5345000D02*
X6115000Y-5375000D01*
X6295000Y-5345000D02*
X6325000Y-5375000D01*
X6325000Y-5345000D02*
X6295000Y-5375000D01*
X6355000Y-5515000D02*
X6385000Y-5545000D01*
X6385000Y-5515000D02*
X6355000Y-5545000D01*
X6535000Y-5705000D02*
X6565000Y-5735000D01*
X6565000Y-5705000D02*
X6535000Y-5735000D01*
X6645000Y-5175000D02*
X6675000Y-5205000D01*
X6675000Y-5175000D02*
X6645000Y-5205000D01*
X6645000Y-5355000D02*
X6675000Y-5385000D01*
X6675000Y-5355000D02*
X6645000Y-5385000D01*
X6785000Y-5785000D02*
X6815000Y-5815000D01*
X6815000Y-5785000D02*
X6785000Y-5815000D01*
X6975000Y-5725000D02*
X7005000Y-5755000D01*
X7005000Y-5725000D02*
X6975000Y-5755000D01*
X7175000Y-5725000D02*
X7205000Y-5755000D01*
X7205000Y-5725000D02*
X7175000Y-5755000D01*
X7495000Y-5725000D02*
X7525000Y-5755000D01*
X7525000Y-5725000D02*
X7495000Y-5755000D01*
X7695000Y-5725000D02*
X7725000Y-5755000D01*
X7725000Y-5725000D02*
X7695000Y-5755000D01*
X6435000Y-5400000D02*
G75*
G02*
X6385000Y-5400000I-25000J0D01*
G01*
X6385000Y-5400000D02*
G75*
G02*
X6435000Y-5400000I25000J0D01*
G01*
X7115000Y-5750000D02*
G75*
G02*
X7065000Y-5750000I-25000J0D01*
G01*
X7065000Y-5750000D02*
G75*
G02*
X7115000Y-5750000I25000J0D01*
G01*
X7635000Y-5750000D02*
G75*
G02*
X7585000Y-5750000I-25000J0D01*
G01*
X7585000Y-5750000D02*
G75*
G02*
X7635000Y-5750000I25000J0D01*
G01*
X6918000Y-5090000D02*
X6918000Y-5150000D01*
X6888000Y-5120000D02*
X6948000Y-5120000D01*
X6948000Y-5160000D02*
X6948000Y-5080000D01*
X6888000Y-5080000D02*
G75*
G02*
X6948000Y-5080000I30000J0D01*
G01*
X6888000Y-5080000D02*
X6888000Y-5160000D01*
X6888000Y-5160000D02*
G75*
G03*
X6948000Y-5160000I30000J0D01*
G01*
X6918000Y-5508000D02*
X6918000Y-5568000D01*
X6888000Y-5538000D02*
X6948000Y-5538000D01*
X6948000Y-5593000D02*
X6948000Y-5483000D01*
X6888000Y-5483000D02*
G75*
G02*
X6948000Y-5483000I30000J0D01*
G01*
X6888000Y-5483000D02*
X6888000Y-5593000D01*
X6888000Y-5593000D02*
G75*
G03*
X6948000Y-5593000I30000J0D01*
G01*
X7782000Y-5090000D02*
X7782000Y-5150000D01*
X7752000Y-5120000D02*
X7812000Y-5120000D01*
X7812000Y-5160000D02*
X7812000Y-5080000D01*
X7752000Y-5080000D02*
G75*
G02*
X7812000Y-5080000I30000J0D01*
G01*
X7752000Y-5080000D02*
X7752000Y-5160000D01*
X7752000Y-5160000D02*
G75*
G03*
X7812000Y-5160000I30000J0D01*
G01*
X7782000Y-5508000D02*
X7782000Y-5568000D01*
X7752000Y-5538000D02*
X7812000Y-5538000D01*
X7812000Y-5593000D02*
X7812000Y-5483000D01*
X7752000Y-5483000D02*
G75*
G02*
X7812000Y-5483000I30000J0D01*
G01*
X7752000Y-5483000D02*
X7752000Y-5593000D01*
X7752000Y-5593000D02*
G75*
G03*
X7812000Y-5593000I30000J0D01*
G01*
D11*
X5408277Y-6313984D02*
X5408277Y-6113984D01*
X5408277Y-6113984D02*
X5455896Y-6113984D01*
X5455896Y-6113984D02*
X5484468Y-6123508D01*
X5484468Y-6123508D02*
X5503515Y-6142555D01*
X5503515Y-6142555D02*
X5513039Y-6161603D01*
X5513039Y-6161603D02*
X5522563Y-6199698D01*
X5522563Y-6199698D02*
X5522563Y-6228269D01*
X5522563Y-6228269D02*
X5513039Y-6266365D01*
X5513039Y-6266365D02*
X5503515Y-6285412D01*
X5503515Y-6285412D02*
X5484468Y-6304460D01*
X5484468Y-6304460D02*
X5455896Y-6313984D01*
X5455896Y-6313984D02*
X5408277Y-6313984D01*
X5608277Y-6313984D02*
X5608277Y-6180650D01*
X5608277Y-6218746D02*
X5617801Y-6199698D01*
X5617801Y-6199698D02*
X5627325Y-6190174D01*
X5627325Y-6190174D02*
X5646372Y-6180650D01*
X5646372Y-6180650D02*
X5665420Y-6180650D01*
X5732087Y-6313984D02*
X5732087Y-6180650D01*
X5732087Y-6113984D02*
X5722563Y-6123508D01*
X5722563Y-6123508D02*
X5732087Y-6133031D01*
X5732087Y-6133031D02*
X5741610Y-6123508D01*
X5741610Y-6123508D02*
X5732087Y-6113984D01*
X5732087Y-6113984D02*
X5732087Y-6133031D01*
X5855896Y-6313984D02*
X5836848Y-6304460D01*
X5836848Y-6304460D02*
X5827325Y-6285412D01*
X5827325Y-6285412D02*
X5827325Y-6113984D01*
X5960658Y-6313984D02*
X5941610Y-6304460D01*
X5941610Y-6304460D02*
X5932087Y-6285412D01*
X5932087Y-6285412D02*
X5932087Y-6113984D01*
X6189229Y-6313984D02*
X6189229Y-6113984D01*
X6189229Y-6113984D02*
X6255896Y-6256841D01*
X6255896Y-6256841D02*
X6322563Y-6113984D01*
X6322563Y-6113984D02*
X6322563Y-6313984D01*
X6503515Y-6313984D02*
X6503515Y-6209222D01*
X6503515Y-6209222D02*
X6493991Y-6190174D01*
X6493991Y-6190174D02*
X6474944Y-6180650D01*
X6474944Y-6180650D02*
X6436848Y-6180650D01*
X6436848Y-6180650D02*
X6417801Y-6190174D01*
X6503515Y-6304460D02*
X6484468Y-6313984D01*
X6484468Y-6313984D02*
X6436848Y-6313984D01*
X6436848Y-6313984D02*
X6417801Y-6304460D01*
X6417801Y-6304460D02*
X6408277Y-6285412D01*
X6408277Y-6285412D02*
X6408277Y-6266365D01*
X6408277Y-6266365D02*
X6417801Y-6247317D01*
X6417801Y-6247317D02*
X6436848Y-6237793D01*
X6436848Y-6237793D02*
X6484468Y-6237793D01*
X6484468Y-6237793D02*
X6503515Y-6228269D01*
X6598753Y-6180650D02*
X6598753Y-6380650D01*
X6598753Y-6190174D02*
X6617801Y-6180650D01*
X6617801Y-6180650D02*
X6655896Y-6180650D01*
X6655896Y-6180650D02*
X6674944Y-6190174D01*
X6674944Y-6190174D02*
X6684468Y-6199698D01*
X6684468Y-6199698D02*
X6693991Y-6218746D01*
X6693991Y-6218746D02*
X6693991Y-6275888D01*
X6693991Y-6275888D02*
X6684468Y-6294936D01*
X6684468Y-6294936D02*
X6674944Y-6304460D01*
X6674944Y-6304460D02*
X6655896Y-6313984D01*
X6655896Y-6313984D02*
X6617801Y-6313984D01*
X6617801Y-6313984D02*
X6598753Y-6304460D01*
X6779706Y-6294936D02*
X6789229Y-6304460D01*
X6789229Y-6304460D02*
X6779706Y-6313984D01*
X6779706Y-6313984D02*
X6770182Y-6304460D01*
X6770182Y-6304460D02*
X6779706Y-6294936D01*
X6779706Y-6294936D02*
X6779706Y-6313984D01*
X6779706Y-6190174D02*
X6789229Y-6199698D01*
X6789229Y-6199698D02*
X6779706Y-6209222D01*
X6779706Y-6209222D02*
X6770182Y-6199698D01*
X6770182Y-6199698D02*
X6779706Y-6190174D01*
X6779706Y-6190174D02*
X6779706Y-6209222D01*
D12*
X5117500Y-6627500D02*
X5147500Y-6657500D01*
X5147500Y-6627500D02*
X5117500Y-6657500D01*
D11*
X5446372Y-6533984D02*
X5465420Y-6533984D01*
X5465420Y-6533984D02*
X5484468Y-6543508D01*
X5484468Y-6543508D02*
X5493991Y-6553031D01*
X5493991Y-6553031D02*
X5503515Y-6572079D01*
X5503515Y-6572079D02*
X5513039Y-6610174D01*
X5513039Y-6610174D02*
X5513039Y-6657793D01*
X5513039Y-6657793D02*
X5503515Y-6695888D01*
X5503515Y-6695888D02*
X5493991Y-6714936D01*
X5493991Y-6714936D02*
X5484468Y-6724460D01*
X5484468Y-6724460D02*
X5465420Y-6733984D01*
X5465420Y-6733984D02*
X5446372Y-6733984D01*
X5446372Y-6733984D02*
X5427325Y-6724460D01*
X5427325Y-6724460D02*
X5417801Y-6714936D01*
X5417801Y-6714936D02*
X5408277Y-6695888D01*
X5408277Y-6695888D02*
X5398753Y-6657793D01*
X5398753Y-6657793D02*
X5398753Y-6610174D01*
X5398753Y-6610174D02*
X5408277Y-6572079D01*
X5408277Y-6572079D02*
X5417801Y-6553031D01*
X5417801Y-6553031D02*
X5427325Y-6543508D01*
X5427325Y-6543508D02*
X5446372Y-6533984D01*
X5598753Y-6714936D02*
X5608277Y-6724460D01*
X5608277Y-6724460D02*
X5598753Y-6733984D01*
X5598753Y-6733984D02*
X5589230Y-6724460D01*
X5589230Y-6724460D02*
X5598753Y-6714936D01*
X5598753Y-6714936D02*
X5598753Y-6733984D01*
X5674944Y-6533984D02*
X5798753Y-6533984D01*
X5798753Y-6533984D02*
X5732087Y-6610174D01*
X5732087Y-6610174D02*
X5760658Y-6610174D01*
X5760658Y-6610174D02*
X5779706Y-6619698D01*
X5779706Y-6619698D02*
X5789229Y-6629222D01*
X5789229Y-6629222D02*
X5798753Y-6648269D01*
X5798753Y-6648269D02*
X5798753Y-6695888D01*
X5798753Y-6695888D02*
X5789229Y-6714936D01*
X5789229Y-6714936D02*
X5779706Y-6724460D01*
X5779706Y-6724460D02*
X5760658Y-6733984D01*
X5760658Y-6733984D02*
X5703515Y-6733984D01*
X5703515Y-6733984D02*
X5684468Y-6724460D01*
X5684468Y-6724460D02*
X5674944Y-6714936D01*
X5922563Y-6533984D02*
X5941610Y-6533984D01*
X5941610Y-6533984D02*
X5960658Y-6543508D01*
X5960658Y-6543508D02*
X5970182Y-6553031D01*
X5970182Y-6553031D02*
X5979706Y-6572079D01*
X5979706Y-6572079D02*
X5989229Y-6610174D01*
X5989229Y-6610174D02*
X5989229Y-6657793D01*
X5989229Y-6657793D02*
X5979706Y-6695888D01*
X5979706Y-6695888D02*
X5970182Y-6714936D01*
X5970182Y-6714936D02*
X5960658Y-6724460D01*
X5960658Y-6724460D02*
X5941610Y-6733984D01*
X5941610Y-6733984D02*
X5922563Y-6733984D01*
X5922563Y-6733984D02*
X5903515Y-6724460D01*
X5903515Y-6724460D02*
X5893991Y-6714936D01*
X5893991Y-6714936D02*
X5884468Y-6695888D01*
X5884468Y-6695888D02*
X5874944Y-6657793D01*
X5874944Y-6657793D02*
X5874944Y-6610174D01*
X5874944Y-6610174D02*
X5884468Y-6572079D01*
X5884468Y-6572079D02*
X5893991Y-6553031D01*
X5893991Y-6553031D02*
X5903515Y-6543508D01*
X5903515Y-6543508D02*
X5922563Y-6533984D01*
X6113039Y-6533984D02*
X6132087Y-6533984D01*
X6132087Y-6533984D02*
X6151134Y-6543508D01*
X6151134Y-6543508D02*
X6160658Y-6553031D01*
X6160658Y-6553031D02*
X6170182Y-6572079D01*
X6170182Y-6572079D02*
X6179706Y-6610174D01*
X6179706Y-6610174D02*
X6179706Y-6657793D01*
X6179706Y-6657793D02*
X6170182Y-6695888D01*
X6170182Y-6695888D02*
X6160658Y-6714936D01*
X6160658Y-6714936D02*
X6151134Y-6724460D01*
X6151134Y-6724460D02*
X6132087Y-6733984D01*
X6132087Y-6733984D02*
X6113039Y-6733984D01*
X6113039Y-6733984D02*
X6093991Y-6724460D01*
X6093991Y-6724460D02*
X6084468Y-6714936D01*
X6084468Y-6714936D02*
X6074944Y-6695888D01*
X6074944Y-6695888D02*
X6065420Y-6657793D01*
X6065420Y-6657793D02*
X6065420Y-6610174D01*
X6065420Y-6610174D02*
X6074944Y-6572079D01*
X6074944Y-6572079D02*
X6084468Y-6553031D01*
X6084468Y-6553031D02*
X6093991Y-6543508D01*
X6093991Y-6543508D02*
X6113039Y-6533984D01*
X6265420Y-6733984D02*
X6265420Y-6600650D01*
X6265420Y-6619698D02*
X6274944Y-6610174D01*
X6274944Y-6610174D02*
X6293991Y-6600650D01*
X6293991Y-6600650D02*
X6322563Y-6600650D01*
X6322563Y-6600650D02*
X6341610Y-6610174D01*
X6341610Y-6610174D02*
X6351134Y-6629222D01*
X6351134Y-6629222D02*
X6351134Y-6733984D01*
X6351134Y-6629222D02*
X6360658Y-6610174D01*
X6360658Y-6610174D02*
X6379706Y-6600650D01*
X6379706Y-6600650D02*
X6408277Y-6600650D01*
X6408277Y-6600650D02*
X6427325Y-6610174D01*
X6427325Y-6610174D02*
X6436849Y-6629222D01*
X6436849Y-6629222D02*
X6436849Y-6733984D01*
X6532087Y-6733984D02*
X6532087Y-6600650D01*
X6532087Y-6619698D02*
X6541610Y-6610174D01*
X6541610Y-6610174D02*
X6560658Y-6600650D01*
X6560658Y-6600650D02*
X6589230Y-6600650D01*
X6589230Y-6600650D02*
X6608277Y-6610174D01*
X6608277Y-6610174D02*
X6617801Y-6629222D01*
X6617801Y-6629222D02*
X6617801Y-6733984D01*
X6617801Y-6629222D02*
X6627325Y-6610174D01*
X6627325Y-6610174D02*
X6646372Y-6600650D01*
X6646372Y-6600650D02*
X6674944Y-6600650D01*
X6674944Y-6600650D02*
X6693991Y-6610174D01*
X6693991Y-6610174D02*
X6703515Y-6629222D01*
X6703515Y-6629222D02*
X6703515Y-6733984D01*
X7093991Y-6524460D02*
X6922563Y-6781603D01*
X7351134Y-6533984D02*
X7370182Y-6533984D01*
X7370182Y-6533984D02*
X7389230Y-6543508D01*
X7389230Y-6543508D02*
X7398753Y-6553031D01*
X7398753Y-6553031D02*
X7408277Y-6572079D01*
X7408277Y-6572079D02*
X7417801Y-6610174D01*
X7417801Y-6610174D02*
X7417801Y-6657793D01*
X7417801Y-6657793D02*
X7408277Y-6695888D01*
X7408277Y-6695888D02*
X7398753Y-6714936D01*
X7398753Y-6714936D02*
X7389230Y-6724460D01*
X7389230Y-6724460D02*
X7370182Y-6733984D01*
X7370182Y-6733984D02*
X7351134Y-6733984D01*
X7351134Y-6733984D02*
X7332087Y-6724460D01*
X7332087Y-6724460D02*
X7322563Y-6714936D01*
X7322563Y-6714936D02*
X7313039Y-6695888D01*
X7313039Y-6695888D02*
X7303515Y-6657793D01*
X7303515Y-6657793D02*
X7303515Y-6610174D01*
X7303515Y-6610174D02*
X7313039Y-6572079D01*
X7313039Y-6572079D02*
X7322563Y-6553031D01*
X7322563Y-6553031D02*
X7332087Y-6543508D01*
X7332087Y-6543508D02*
X7351134Y-6533984D01*
X7503515Y-6714936D02*
X7513039Y-6724460D01*
X7513039Y-6724460D02*
X7503515Y-6733984D01*
X7503515Y-6733984D02*
X7493992Y-6724460D01*
X7493992Y-6724460D02*
X7503515Y-6714936D01*
X7503515Y-6714936D02*
X7503515Y-6733984D01*
X7636849Y-6533984D02*
X7655896Y-6533984D01*
X7655896Y-6533984D02*
X7674944Y-6543508D01*
X7674944Y-6543508D02*
X7684468Y-6553031D01*
X7684468Y-6553031D02*
X7693992Y-6572079D01*
X7693992Y-6572079D02*
X7703515Y-6610174D01*
X7703515Y-6610174D02*
X7703515Y-6657793D01*
X7703515Y-6657793D02*
X7693992Y-6695888D01*
X7693992Y-6695888D02*
X7684468Y-6714936D01*
X7684468Y-6714936D02*
X7674944Y-6724460D01*
X7674944Y-6724460D02*
X7655896Y-6733984D01*
X7655896Y-6733984D02*
X7636849Y-6733984D01*
X7636849Y-6733984D02*
X7617801Y-6724460D01*
X7617801Y-6724460D02*
X7608277Y-6714936D01*
X7608277Y-6714936D02*
X7598753Y-6695888D01*
X7598753Y-6695888D02*
X7589230Y-6657793D01*
X7589230Y-6657793D02*
X7589230Y-6610174D01*
X7589230Y-6610174D02*
X7598753Y-6572079D01*
X7598753Y-6572079D02*
X7608277Y-6553031D01*
X7608277Y-6553031D02*
X7617801Y-6543508D01*
X7617801Y-6543508D02*
X7636849Y-6533984D01*
X7893992Y-6733984D02*
X7779706Y-6733984D01*
X7836849Y-6733984D02*
X7836849Y-6533984D01*
X7836849Y-6533984D02*
X7817801Y-6562555D01*
X7817801Y-6562555D02*
X7798753Y-6581603D01*
X7798753Y-6581603D02*
X7779706Y-6591127D01*
X8084468Y-6733984D02*
X7970182Y-6733984D01*
X8027325Y-6733984D02*
X8027325Y-6533984D01*
X8027325Y-6533984D02*
X8008277Y-6562555D01*
X8008277Y-6562555D02*
X7989230Y-6581603D01*
X7989230Y-6581603D02*
X7970182Y-6591127D01*
X8198753Y-6619698D02*
X8179706Y-6610174D01*
X8179706Y-6610174D02*
X8170182Y-6600650D01*
X8170182Y-6600650D02*
X8160658Y-6581603D01*
X8160658Y-6581603D02*
X8160658Y-6572079D01*
X8160658Y-6572079D02*
X8170182Y-6553031D01*
X8170182Y-6553031D02*
X8179706Y-6543508D01*
X8179706Y-6543508D02*
X8198753Y-6533984D01*
X8198753Y-6533984D02*
X8236849Y-6533984D01*
X8236849Y-6533984D02*
X8255896Y-6543508D01*
X8255896Y-6543508D02*
X8265420Y-6553031D01*
X8265420Y-6553031D02*
X8274944Y-6572079D01*
X8274944Y-6572079D02*
X8274944Y-6581603D01*
X8274944Y-6581603D02*
X8265420Y-6600650D01*
X8265420Y-6600650D02*
X8255896Y-6610174D01*
X8255896Y-6610174D02*
X8236849Y-6619698D01*
X8236849Y-6619698D02*
X8198753Y-6619698D01*
X8198753Y-6619698D02*
X8179706Y-6629222D01*
X8179706Y-6629222D02*
X8170182Y-6638746D01*
X8170182Y-6638746D02*
X8160658Y-6657793D01*
X8160658Y-6657793D02*
X8160658Y-6695888D01*
X8160658Y-6695888D02*
X8170182Y-6714936D01*
X8170182Y-6714936D02*
X8179706Y-6724460D01*
X8179706Y-6724460D02*
X8198753Y-6733984D01*
X8198753Y-6733984D02*
X8236849Y-6733984D01*
X8236849Y-6733984D02*
X8255896Y-6724460D01*
X8255896Y-6724460D02*
X8265420Y-6714936D01*
X8265420Y-6714936D02*
X8274944Y-6695888D01*
X8274944Y-6695888D02*
X8274944Y-6657793D01*
X8274944Y-6657793D02*
X8265420Y-6638746D01*
X8265420Y-6638746D02*
X8255896Y-6629222D01*
X8255896Y-6629222D02*
X8236849Y-6619698D01*
X8351134Y-6533984D02*
X8351134Y-6572079D01*
X8427325Y-6533984D02*
X8427325Y-6572079D01*
X8722563Y-6810174D02*
X8713039Y-6800650D01*
X8713039Y-6800650D02*
X8693992Y-6772079D01*
X8693992Y-6772079D02*
X8684468Y-6753031D01*
X8684468Y-6753031D02*
X8674944Y-6724460D01*
X8674944Y-6724460D02*
X8665420Y-6676841D01*
X8665420Y-6676841D02*
X8665420Y-6638746D01*
X8665420Y-6638746D02*
X8674944Y-6591127D01*
X8674944Y-6591127D02*
X8684468Y-6562555D01*
X8684468Y-6562555D02*
X8693992Y-6543508D01*
X8693992Y-6543508D02*
X8713039Y-6514936D01*
X8713039Y-6514936D02*
X8722563Y-6505412D01*
X8903516Y-6733984D02*
X8789230Y-6733984D01*
X8846373Y-6733984D02*
X8846373Y-6533984D01*
X8846373Y-6533984D02*
X8827325Y-6562555D01*
X8827325Y-6562555D02*
X8808277Y-6581603D01*
X8808277Y-6581603D02*
X8789230Y-6591127D01*
X9084468Y-6533984D02*
X8989230Y-6533984D01*
X8989230Y-6533984D02*
X8979706Y-6629222D01*
X8979706Y-6629222D02*
X8989230Y-6619698D01*
X8989230Y-6619698D02*
X9008277Y-6610174D01*
X9008277Y-6610174D02*
X9055897Y-6610174D01*
X9055897Y-6610174D02*
X9074944Y-6619698D01*
X9074944Y-6619698D02*
X9084468Y-6629222D01*
X9084468Y-6629222D02*
X9093992Y-6648269D01*
X9093992Y-6648269D02*
X9093992Y-6695888D01*
X9093992Y-6695888D02*
X9084468Y-6714936D01*
X9084468Y-6714936D02*
X9074944Y-6724460D01*
X9074944Y-6724460D02*
X9055897Y-6733984D01*
X9055897Y-6733984D02*
X9008277Y-6733984D01*
X9008277Y-6733984D02*
X8989230Y-6724460D01*
X8989230Y-6724460D02*
X8979706Y-6714936D01*
X9332087Y-6733984D02*
X9332087Y-6533984D01*
X9417801Y-6733984D02*
X9417801Y-6629222D01*
X9417801Y-6629222D02*
X9408278Y-6610174D01*
X9408278Y-6610174D02*
X9389230Y-6600650D01*
X9389230Y-6600650D02*
X9360658Y-6600650D01*
X9360658Y-6600650D02*
X9341611Y-6610174D01*
X9341611Y-6610174D02*
X9332087Y-6619698D01*
X9541611Y-6733984D02*
X9522563Y-6724460D01*
X9522563Y-6724460D02*
X9513039Y-6714936D01*
X9513039Y-6714936D02*
X9503516Y-6695888D01*
X9503516Y-6695888D02*
X9503516Y-6638746D01*
X9503516Y-6638746D02*
X9513039Y-6619698D01*
X9513039Y-6619698D02*
X9522563Y-6610174D01*
X9522563Y-6610174D02*
X9541611Y-6600650D01*
X9541611Y-6600650D02*
X9570182Y-6600650D01*
X9570182Y-6600650D02*
X9589230Y-6610174D01*
X9589230Y-6610174D02*
X9598754Y-6619698D01*
X9598754Y-6619698D02*
X9608278Y-6638746D01*
X9608278Y-6638746D02*
X9608278Y-6695888D01*
X9608278Y-6695888D02*
X9598754Y-6714936D01*
X9598754Y-6714936D02*
X9589230Y-6724460D01*
X9589230Y-6724460D02*
X9570182Y-6733984D01*
X9570182Y-6733984D02*
X9541611Y-6733984D01*
X9722563Y-6733984D02*
X9703516Y-6724460D01*
X9703516Y-6724460D02*
X9693992Y-6705412D01*
X9693992Y-6705412D02*
X9693992Y-6533984D01*
X9874944Y-6724460D02*
X9855897Y-6733984D01*
X9855897Y-6733984D02*
X9817801Y-6733984D01*
X9817801Y-6733984D02*
X9798754Y-6724460D01*
X9798754Y-6724460D02*
X9789230Y-6705412D01*
X9789230Y-6705412D02*
X9789230Y-6629222D01*
X9789230Y-6629222D02*
X9798754Y-6610174D01*
X9798754Y-6610174D02*
X9817801Y-6600650D01*
X9817801Y-6600650D02*
X9855897Y-6600650D01*
X9855897Y-6600650D02*
X9874944Y-6610174D01*
X9874944Y-6610174D02*
X9884468Y-6629222D01*
X9884468Y-6629222D02*
X9884468Y-6648269D01*
X9884468Y-6648269D02*
X9789230Y-6667317D01*
X9960659Y-6724460D02*
X9979706Y-6733984D01*
X9979706Y-6733984D02*
X10017801Y-6733984D01*
X10017801Y-6733984D02*
X10036849Y-6724460D01*
X10036849Y-6724460D02*
X10046373Y-6705412D01*
X10046373Y-6705412D02*
X10046373Y-6695888D01*
X10046373Y-6695888D02*
X10036849Y-6676841D01*
X10036849Y-6676841D02*
X10017801Y-6667317D01*
X10017801Y-6667317D02*
X9989230Y-6667317D01*
X9989230Y-6667317D02*
X9970182Y-6657793D01*
X9970182Y-6657793D02*
X9960659Y-6638746D01*
X9960659Y-6638746D02*
X9960659Y-6629222D01*
X9960659Y-6629222D02*
X9970182Y-6610174D01*
X9970182Y-6610174D02*
X9989230Y-6600650D01*
X9989230Y-6600650D02*
X10017801Y-6600650D01*
X10017801Y-6600650D02*
X10036849Y-6610174D01*
X10113040Y-6810174D02*
X10122563Y-6800650D01*
X10122563Y-6800650D02*
X10141611Y-6772079D01*
X10141611Y-6772079D02*
X10151135Y-6753031D01*
X10151135Y-6753031D02*
X10160659Y-6724460D01*
X10160659Y-6724460D02*
X10170182Y-6676841D01*
X10170182Y-6676841D02*
X10170182Y-6638746D01*
X10170182Y-6638746D02*
X10160659Y-6591127D01*
X10160659Y-6591127D02*
X10151135Y-6562555D01*
X10151135Y-6562555D02*
X10141611Y-6543508D01*
X10141611Y-6543508D02*
X10122563Y-6514936D01*
X10122563Y-6514936D02*
X10113040Y-6505412D01*
D12*
X5147500Y-6906500D02*
G75*
G02*
X5097500Y-6906500I-25000J0D01*
G01*
X5097500Y-6906500D02*
G75*
G02*
X5147500Y-6906500I25000J0D01*
G01*
D11*
X5446372Y-6797984D02*
X5465420Y-6797984D01*
X5465420Y-6797984D02*
X5484468Y-6807508D01*
X5484468Y-6807508D02*
X5493991Y-6817031D01*
X5493991Y-6817031D02*
X5503515Y-6836079D01*
X5503515Y-6836079D02*
X5513039Y-6874174D01*
X5513039Y-6874174D02*
X5513039Y-6921793D01*
X5513039Y-6921793D02*
X5503515Y-6959888D01*
X5503515Y-6959888D02*
X5493991Y-6978936D01*
X5493991Y-6978936D02*
X5484468Y-6988460D01*
X5484468Y-6988460D02*
X5465420Y-6997984D01*
X5465420Y-6997984D02*
X5446372Y-6997984D01*
X5446372Y-6997984D02*
X5427325Y-6988460D01*
X5427325Y-6988460D02*
X5417801Y-6978936D01*
X5417801Y-6978936D02*
X5408277Y-6959888D01*
X5408277Y-6959888D02*
X5398753Y-6921793D01*
X5398753Y-6921793D02*
X5398753Y-6874174D01*
X5398753Y-6874174D02*
X5408277Y-6836079D01*
X5408277Y-6836079D02*
X5417801Y-6817031D01*
X5417801Y-6817031D02*
X5427325Y-6807508D01*
X5427325Y-6807508D02*
X5446372Y-6797984D01*
X5598753Y-6978936D02*
X5608277Y-6988460D01*
X5608277Y-6988460D02*
X5598753Y-6997984D01*
X5598753Y-6997984D02*
X5589230Y-6988460D01*
X5589230Y-6988460D02*
X5598753Y-6978936D01*
X5598753Y-6978936D02*
X5598753Y-6997984D01*
X5789229Y-6797984D02*
X5693991Y-6797984D01*
X5693991Y-6797984D02*
X5684468Y-6893222D01*
X5684468Y-6893222D02*
X5693991Y-6883698D01*
X5693991Y-6883698D02*
X5713039Y-6874174D01*
X5713039Y-6874174D02*
X5760658Y-6874174D01*
X5760658Y-6874174D02*
X5779706Y-6883698D01*
X5779706Y-6883698D02*
X5789229Y-6893222D01*
X5789229Y-6893222D02*
X5798753Y-6912269D01*
X5798753Y-6912269D02*
X5798753Y-6959888D01*
X5798753Y-6959888D02*
X5789229Y-6978936D01*
X5789229Y-6978936D02*
X5779706Y-6988460D01*
X5779706Y-6988460D02*
X5760658Y-6997984D01*
X5760658Y-6997984D02*
X5713039Y-6997984D01*
X5713039Y-6997984D02*
X5693991Y-6988460D01*
X5693991Y-6988460D02*
X5684468Y-6978936D01*
X5922563Y-6797984D02*
X5941610Y-6797984D01*
X5941610Y-6797984D02*
X5960658Y-6807508D01*
X5960658Y-6807508D02*
X5970182Y-6817031D01*
X5970182Y-6817031D02*
X5979706Y-6836079D01*
X5979706Y-6836079D02*
X5989229Y-6874174D01*
X5989229Y-6874174D02*
X5989229Y-6921793D01*
X5989229Y-6921793D02*
X5979706Y-6959888D01*
X5979706Y-6959888D02*
X5970182Y-6978936D01*
X5970182Y-6978936D02*
X5960658Y-6988460D01*
X5960658Y-6988460D02*
X5941610Y-6997984D01*
X5941610Y-6997984D02*
X5922563Y-6997984D01*
X5922563Y-6997984D02*
X5903515Y-6988460D01*
X5903515Y-6988460D02*
X5893991Y-6978936D01*
X5893991Y-6978936D02*
X5884468Y-6959888D01*
X5884468Y-6959888D02*
X5874944Y-6921793D01*
X5874944Y-6921793D02*
X5874944Y-6874174D01*
X5874944Y-6874174D02*
X5884468Y-6836079D01*
X5884468Y-6836079D02*
X5893991Y-6817031D01*
X5893991Y-6817031D02*
X5903515Y-6807508D01*
X5903515Y-6807508D02*
X5922563Y-6797984D01*
X6113039Y-6797984D02*
X6132087Y-6797984D01*
X6132087Y-6797984D02*
X6151134Y-6807508D01*
X6151134Y-6807508D02*
X6160658Y-6817031D01*
X6160658Y-6817031D02*
X6170182Y-6836079D01*
X6170182Y-6836079D02*
X6179706Y-6874174D01*
X6179706Y-6874174D02*
X6179706Y-6921793D01*
X6179706Y-6921793D02*
X6170182Y-6959888D01*
X6170182Y-6959888D02*
X6160658Y-6978936D01*
X6160658Y-6978936D02*
X6151134Y-6988460D01*
X6151134Y-6988460D02*
X6132087Y-6997984D01*
X6132087Y-6997984D02*
X6113039Y-6997984D01*
X6113039Y-6997984D02*
X6093991Y-6988460D01*
X6093991Y-6988460D02*
X6084468Y-6978936D01*
X6084468Y-6978936D02*
X6074944Y-6959888D01*
X6074944Y-6959888D02*
X6065420Y-6921793D01*
X6065420Y-6921793D02*
X6065420Y-6874174D01*
X6065420Y-6874174D02*
X6074944Y-6836079D01*
X6074944Y-6836079D02*
X6084468Y-6817031D01*
X6084468Y-6817031D02*
X6093991Y-6807508D01*
X6093991Y-6807508D02*
X6113039Y-6797984D01*
X6265420Y-6997984D02*
X6265420Y-6864650D01*
X6265420Y-6883698D02*
X6274944Y-6874174D01*
X6274944Y-6874174D02*
X6293991Y-6864650D01*
X6293991Y-6864650D02*
X6322563Y-6864650D01*
X6322563Y-6864650D02*
X6341610Y-6874174D01*
X6341610Y-6874174D02*
X6351134Y-6893222D01*
X6351134Y-6893222D02*
X6351134Y-6997984D01*
X6351134Y-6893222D02*
X6360658Y-6874174D01*
X6360658Y-6874174D02*
X6379706Y-6864650D01*
X6379706Y-6864650D02*
X6408277Y-6864650D01*
X6408277Y-6864650D02*
X6427325Y-6874174D01*
X6427325Y-6874174D02*
X6436849Y-6893222D01*
X6436849Y-6893222D02*
X6436849Y-6997984D01*
X6532087Y-6997984D02*
X6532087Y-6864650D01*
X6532087Y-6883698D02*
X6541610Y-6874174D01*
X6541610Y-6874174D02*
X6560658Y-6864650D01*
X6560658Y-6864650D02*
X6589230Y-6864650D01*
X6589230Y-6864650D02*
X6608277Y-6874174D01*
X6608277Y-6874174D02*
X6617801Y-6893222D01*
X6617801Y-6893222D02*
X6617801Y-6997984D01*
X6617801Y-6893222D02*
X6627325Y-6874174D01*
X6627325Y-6874174D02*
X6646372Y-6864650D01*
X6646372Y-6864650D02*
X6674944Y-6864650D01*
X6674944Y-6864650D02*
X6693991Y-6874174D01*
X6693991Y-6874174D02*
X6703515Y-6893222D01*
X6703515Y-6893222D02*
X6703515Y-6997984D01*
X7093991Y-6788460D02*
X6922563Y-7045603D01*
X7351134Y-6797984D02*
X7370182Y-6797984D01*
X7370182Y-6797984D02*
X7389230Y-6807508D01*
X7389230Y-6807508D02*
X7398753Y-6817031D01*
X7398753Y-6817031D02*
X7408277Y-6836079D01*
X7408277Y-6836079D02*
X7417801Y-6874174D01*
X7417801Y-6874174D02*
X7417801Y-6921793D01*
X7417801Y-6921793D02*
X7408277Y-6959888D01*
X7408277Y-6959888D02*
X7398753Y-6978936D01*
X7398753Y-6978936D02*
X7389230Y-6988460D01*
X7389230Y-6988460D02*
X7370182Y-6997984D01*
X7370182Y-6997984D02*
X7351134Y-6997984D01*
X7351134Y-6997984D02*
X7332087Y-6988460D01*
X7332087Y-6988460D02*
X7322563Y-6978936D01*
X7322563Y-6978936D02*
X7313039Y-6959888D01*
X7313039Y-6959888D02*
X7303515Y-6921793D01*
X7303515Y-6921793D02*
X7303515Y-6874174D01*
X7303515Y-6874174D02*
X7313039Y-6836079D01*
X7313039Y-6836079D02*
X7322563Y-6817031D01*
X7322563Y-6817031D02*
X7332087Y-6807508D01*
X7332087Y-6807508D02*
X7351134Y-6797984D01*
X7503515Y-6978936D02*
X7513039Y-6988460D01*
X7513039Y-6988460D02*
X7503515Y-6997984D01*
X7503515Y-6997984D02*
X7493992Y-6988460D01*
X7493992Y-6988460D02*
X7503515Y-6978936D01*
X7503515Y-6978936D02*
X7503515Y-6997984D01*
X7636849Y-6797984D02*
X7655896Y-6797984D01*
X7655896Y-6797984D02*
X7674944Y-6807508D01*
X7674944Y-6807508D02*
X7684468Y-6817031D01*
X7684468Y-6817031D02*
X7693992Y-6836079D01*
X7693992Y-6836079D02*
X7703515Y-6874174D01*
X7703515Y-6874174D02*
X7703515Y-6921793D01*
X7703515Y-6921793D02*
X7693992Y-6959888D01*
X7693992Y-6959888D02*
X7684468Y-6978936D01*
X7684468Y-6978936D02*
X7674944Y-6988460D01*
X7674944Y-6988460D02*
X7655896Y-6997984D01*
X7655896Y-6997984D02*
X7636849Y-6997984D01*
X7636849Y-6997984D02*
X7617801Y-6988460D01*
X7617801Y-6988460D02*
X7608277Y-6978936D01*
X7608277Y-6978936D02*
X7598753Y-6959888D01*
X7598753Y-6959888D02*
X7589230Y-6921793D01*
X7589230Y-6921793D02*
X7589230Y-6874174D01*
X7589230Y-6874174D02*
X7598753Y-6836079D01*
X7598753Y-6836079D02*
X7608277Y-6817031D01*
X7608277Y-6817031D02*
X7617801Y-6807508D01*
X7617801Y-6807508D02*
X7636849Y-6797984D01*
X7893992Y-6997984D02*
X7779706Y-6997984D01*
X7836849Y-6997984D02*
X7836849Y-6797984D01*
X7836849Y-6797984D02*
X7817801Y-6826555D01*
X7817801Y-6826555D02*
X7798753Y-6845603D01*
X7798753Y-6845603D02*
X7779706Y-6855127D01*
X7989230Y-6997984D02*
X8027325Y-6997984D01*
X8027325Y-6997984D02*
X8046373Y-6988460D01*
X8046373Y-6988460D02*
X8055896Y-6978936D01*
X8055896Y-6978936D02*
X8074944Y-6950365D01*
X8074944Y-6950365D02*
X8084468Y-6912269D01*
X8084468Y-6912269D02*
X8084468Y-6836079D01*
X8084468Y-6836079D02*
X8074944Y-6817031D01*
X8074944Y-6817031D02*
X8065420Y-6807508D01*
X8065420Y-6807508D02*
X8046373Y-6797984D01*
X8046373Y-6797984D02*
X8008277Y-6797984D01*
X8008277Y-6797984D02*
X7989230Y-6807508D01*
X7989230Y-6807508D02*
X7979706Y-6817031D01*
X7979706Y-6817031D02*
X7970182Y-6836079D01*
X7970182Y-6836079D02*
X7970182Y-6883698D01*
X7970182Y-6883698D02*
X7979706Y-6902746D01*
X7979706Y-6902746D02*
X7989230Y-6912269D01*
X7989230Y-6912269D02*
X8008277Y-6921793D01*
X8008277Y-6921793D02*
X8046373Y-6921793D01*
X8046373Y-6921793D02*
X8065420Y-6912269D01*
X8065420Y-6912269D02*
X8074944Y-6902746D01*
X8074944Y-6902746D02*
X8084468Y-6883698D01*
X8151134Y-6797984D02*
X8284468Y-6797984D01*
X8284468Y-6797984D02*
X8198753Y-6997984D01*
X8351134Y-6797984D02*
X8351134Y-6836079D01*
X8427325Y-6797984D02*
X8427325Y-6836079D01*
X8722563Y-7074174D02*
X8713039Y-7064650D01*
X8713039Y-7064650D02*
X8693992Y-7036079D01*
X8693992Y-7036079D02*
X8684468Y-7017031D01*
X8684468Y-7017031D02*
X8674944Y-6988460D01*
X8674944Y-6988460D02*
X8665420Y-6940841D01*
X8665420Y-6940841D02*
X8665420Y-6902746D01*
X8665420Y-6902746D02*
X8674944Y-6855127D01*
X8674944Y-6855127D02*
X8684468Y-6826555D01*
X8684468Y-6826555D02*
X8693992Y-6807508D01*
X8693992Y-6807508D02*
X8713039Y-6778936D01*
X8713039Y-6778936D02*
X8722563Y-6769412D01*
X8779706Y-6797984D02*
X8903516Y-6797984D01*
X8903516Y-6797984D02*
X8836849Y-6874174D01*
X8836849Y-6874174D02*
X8865420Y-6874174D01*
X8865420Y-6874174D02*
X8884468Y-6883698D01*
X8884468Y-6883698D02*
X8893992Y-6893222D01*
X8893992Y-6893222D02*
X8903516Y-6912269D01*
X8903516Y-6912269D02*
X8903516Y-6959888D01*
X8903516Y-6959888D02*
X8893992Y-6978936D01*
X8893992Y-6978936D02*
X8884468Y-6988460D01*
X8884468Y-6988460D02*
X8865420Y-6997984D01*
X8865420Y-6997984D02*
X8808277Y-6997984D01*
X8808277Y-6997984D02*
X8789230Y-6988460D01*
X8789230Y-6988460D02*
X8779706Y-6978936D01*
X9141611Y-6997984D02*
X9141611Y-6797984D01*
X9227325Y-6997984D02*
X9227325Y-6893222D01*
X9227325Y-6893222D02*
X9217801Y-6874174D01*
X9217801Y-6874174D02*
X9198754Y-6864650D01*
X9198754Y-6864650D02*
X9170182Y-6864650D01*
X9170182Y-6864650D02*
X9151135Y-6874174D01*
X9151135Y-6874174D02*
X9141611Y-6883698D01*
X9351135Y-6997984D02*
X9332087Y-6988460D01*
X9332087Y-6988460D02*
X9322563Y-6978936D01*
X9322563Y-6978936D02*
X9313039Y-6959888D01*
X9313039Y-6959888D02*
X9313039Y-6902746D01*
X9313039Y-6902746D02*
X9322563Y-6883698D01*
X9322563Y-6883698D02*
X9332087Y-6874174D01*
X9332087Y-6874174D02*
X9351135Y-6864650D01*
X9351135Y-6864650D02*
X9379706Y-6864650D01*
X9379706Y-6864650D02*
X9398754Y-6874174D01*
X9398754Y-6874174D02*
X9408278Y-6883698D01*
X9408278Y-6883698D02*
X9417801Y-6902746D01*
X9417801Y-6902746D02*
X9417801Y-6959888D01*
X9417801Y-6959888D02*
X9408278Y-6978936D01*
X9408278Y-6978936D02*
X9398754Y-6988460D01*
X9398754Y-6988460D02*
X9379706Y-6997984D01*
X9379706Y-6997984D02*
X9351135Y-6997984D01*
X9532087Y-6997984D02*
X9513039Y-6988460D01*
X9513039Y-6988460D02*
X9503516Y-6969412D01*
X9503516Y-6969412D02*
X9503516Y-6797984D01*
X9684468Y-6988460D02*
X9665420Y-6997984D01*
X9665420Y-6997984D02*
X9627325Y-6997984D01*
X9627325Y-6997984D02*
X9608278Y-6988460D01*
X9608278Y-6988460D02*
X9598754Y-6969412D01*
X9598754Y-6969412D02*
X9598754Y-6893222D01*
X9598754Y-6893222D02*
X9608278Y-6874174D01*
X9608278Y-6874174D02*
X9627325Y-6864650D01*
X9627325Y-6864650D02*
X9665420Y-6864650D01*
X9665420Y-6864650D02*
X9684468Y-6874174D01*
X9684468Y-6874174D02*
X9693992Y-6893222D01*
X9693992Y-6893222D02*
X9693992Y-6912269D01*
X9693992Y-6912269D02*
X9598754Y-6931317D01*
X9770182Y-6988460D02*
X9789230Y-6997984D01*
X9789230Y-6997984D02*
X9827325Y-6997984D01*
X9827325Y-6997984D02*
X9846373Y-6988460D01*
X9846373Y-6988460D02*
X9855897Y-6969412D01*
X9855897Y-6969412D02*
X9855897Y-6959888D01*
X9855897Y-6959888D02*
X9846373Y-6940841D01*
X9846373Y-6940841D02*
X9827325Y-6931317D01*
X9827325Y-6931317D02*
X9798754Y-6931317D01*
X9798754Y-6931317D02*
X9779706Y-6921793D01*
X9779706Y-6921793D02*
X9770182Y-6902746D01*
X9770182Y-6902746D02*
X9770182Y-6893222D01*
X9770182Y-6893222D02*
X9779706Y-6874174D01*
X9779706Y-6874174D02*
X9798754Y-6864650D01*
X9798754Y-6864650D02*
X9827325Y-6864650D01*
X9827325Y-6864650D02*
X9846373Y-6874174D01*
X9922563Y-7074174D02*
X9932087Y-7064650D01*
X9932087Y-7064650D02*
X9951135Y-7036079D01*
X9951135Y-7036079D02*
X9960659Y-7017031D01*
X9960659Y-7017031D02*
X9970182Y-6988460D01*
X9970182Y-6988460D02*
X9979706Y-6940841D01*
X9979706Y-6940841D02*
X9979706Y-6902746D01*
X9979706Y-6902746D02*
X9970182Y-6855127D01*
X9970182Y-6855127D02*
X9960659Y-6826555D01*
X9960659Y-6826555D02*
X9951135Y-6807508D01*
X9951135Y-6807508D02*
X9932087Y-6778936D01*
X9932087Y-6778936D02*
X9922563Y-6769412D01*
D12*
X5117500Y-7140500D02*
X5117500Y-7200500D01*
X5087500Y-7170500D02*
X5147500Y-7170500D01*
D11*
X5446372Y-7061984D02*
X5465420Y-7061984D01*
X5465420Y-7061984D02*
X5484468Y-7071508D01*
X5484468Y-7071508D02*
X5493991Y-7081031D01*
X5493991Y-7081031D02*
X5503515Y-7100079D01*
X5503515Y-7100079D02*
X5513039Y-7138174D01*
X5513039Y-7138174D02*
X5513039Y-7185793D01*
X5513039Y-7185793D02*
X5503515Y-7223888D01*
X5503515Y-7223888D02*
X5493991Y-7242936D01*
X5493991Y-7242936D02*
X5484468Y-7252460D01*
X5484468Y-7252460D02*
X5465420Y-7261984D01*
X5465420Y-7261984D02*
X5446372Y-7261984D01*
X5446372Y-7261984D02*
X5427325Y-7252460D01*
X5427325Y-7252460D02*
X5417801Y-7242936D01*
X5417801Y-7242936D02*
X5408277Y-7223888D01*
X5408277Y-7223888D02*
X5398753Y-7185793D01*
X5398753Y-7185793D02*
X5398753Y-7138174D01*
X5398753Y-7138174D02*
X5408277Y-7100079D01*
X5408277Y-7100079D02*
X5417801Y-7081031D01*
X5417801Y-7081031D02*
X5427325Y-7071508D01*
X5427325Y-7071508D02*
X5446372Y-7061984D01*
X5598753Y-7242936D02*
X5608277Y-7252460D01*
X5608277Y-7252460D02*
X5598753Y-7261984D01*
X5598753Y-7261984D02*
X5589230Y-7252460D01*
X5589230Y-7252460D02*
X5598753Y-7242936D01*
X5598753Y-7242936D02*
X5598753Y-7261984D01*
X5779706Y-7061984D02*
X5741610Y-7061984D01*
X5741610Y-7061984D02*
X5722563Y-7071508D01*
X5722563Y-7071508D02*
X5713039Y-7081031D01*
X5713039Y-7081031D02*
X5693991Y-7109603D01*
X5693991Y-7109603D02*
X5684468Y-7147698D01*
X5684468Y-7147698D02*
X5684468Y-7223888D01*
X5684468Y-7223888D02*
X5693991Y-7242936D01*
X5693991Y-7242936D02*
X5703515Y-7252460D01*
X5703515Y-7252460D02*
X5722563Y-7261984D01*
X5722563Y-7261984D02*
X5760658Y-7261984D01*
X5760658Y-7261984D02*
X5779706Y-7252460D01*
X5779706Y-7252460D02*
X5789229Y-7242936D01*
X5789229Y-7242936D02*
X5798753Y-7223888D01*
X5798753Y-7223888D02*
X5798753Y-7176269D01*
X5798753Y-7176269D02*
X5789229Y-7157222D01*
X5789229Y-7157222D02*
X5779706Y-7147698D01*
X5779706Y-7147698D02*
X5760658Y-7138174D01*
X5760658Y-7138174D02*
X5722563Y-7138174D01*
X5722563Y-7138174D02*
X5703515Y-7147698D01*
X5703515Y-7147698D02*
X5693991Y-7157222D01*
X5693991Y-7157222D02*
X5684468Y-7176269D01*
X5922563Y-7061984D02*
X5941610Y-7061984D01*
X5941610Y-7061984D02*
X5960658Y-7071508D01*
X5960658Y-7071508D02*
X5970182Y-7081031D01*
X5970182Y-7081031D02*
X5979706Y-7100079D01*
X5979706Y-7100079D02*
X5989229Y-7138174D01*
X5989229Y-7138174D02*
X5989229Y-7185793D01*
X5989229Y-7185793D02*
X5979706Y-7223888D01*
X5979706Y-7223888D02*
X5970182Y-7242936D01*
X5970182Y-7242936D02*
X5960658Y-7252460D01*
X5960658Y-7252460D02*
X5941610Y-7261984D01*
X5941610Y-7261984D02*
X5922563Y-7261984D01*
X5922563Y-7261984D02*
X5903515Y-7252460D01*
X5903515Y-7252460D02*
X5893991Y-7242936D01*
X5893991Y-7242936D02*
X5884468Y-7223888D01*
X5884468Y-7223888D02*
X5874944Y-7185793D01*
X5874944Y-7185793D02*
X5874944Y-7138174D01*
X5874944Y-7138174D02*
X5884468Y-7100079D01*
X5884468Y-7100079D02*
X5893991Y-7081031D01*
X5893991Y-7081031D02*
X5903515Y-7071508D01*
X5903515Y-7071508D02*
X5922563Y-7061984D01*
X6113039Y-7061984D02*
X6132087Y-7061984D01*
X6132087Y-7061984D02*
X6151134Y-7071508D01*
X6151134Y-7071508D02*
X6160658Y-7081031D01*
X6160658Y-7081031D02*
X6170182Y-7100079D01*
X6170182Y-7100079D02*
X6179706Y-7138174D01*
X6179706Y-7138174D02*
X6179706Y-7185793D01*
X6179706Y-7185793D02*
X6170182Y-7223888D01*
X6170182Y-7223888D02*
X6160658Y-7242936D01*
X6160658Y-7242936D02*
X6151134Y-7252460D01*
X6151134Y-7252460D02*
X6132087Y-7261984D01*
X6132087Y-7261984D02*
X6113039Y-7261984D01*
X6113039Y-7261984D02*
X6093991Y-7252460D01*
X6093991Y-7252460D02*
X6084468Y-7242936D01*
X6084468Y-7242936D02*
X6074944Y-7223888D01*
X6074944Y-7223888D02*
X6065420Y-7185793D01*
X6065420Y-7185793D02*
X6065420Y-7138174D01*
X6065420Y-7138174D02*
X6074944Y-7100079D01*
X6074944Y-7100079D02*
X6084468Y-7081031D01*
X6084468Y-7081031D02*
X6093991Y-7071508D01*
X6093991Y-7071508D02*
X6113039Y-7061984D01*
X6265420Y-7261984D02*
X6265420Y-7128650D01*
X6265420Y-7147698D02*
X6274944Y-7138174D01*
X6274944Y-7138174D02*
X6293991Y-7128650D01*
X6293991Y-7128650D02*
X6322563Y-7128650D01*
X6322563Y-7128650D02*
X6341610Y-7138174D01*
X6341610Y-7138174D02*
X6351134Y-7157222D01*
X6351134Y-7157222D02*
X6351134Y-7261984D01*
X6351134Y-7157222D02*
X6360658Y-7138174D01*
X6360658Y-7138174D02*
X6379706Y-7128650D01*
X6379706Y-7128650D02*
X6408277Y-7128650D01*
X6408277Y-7128650D02*
X6427325Y-7138174D01*
X6427325Y-7138174D02*
X6436849Y-7157222D01*
X6436849Y-7157222D02*
X6436849Y-7261984D01*
X6532087Y-7261984D02*
X6532087Y-7128650D01*
X6532087Y-7147698D02*
X6541610Y-7138174D01*
X6541610Y-7138174D02*
X6560658Y-7128650D01*
X6560658Y-7128650D02*
X6589230Y-7128650D01*
X6589230Y-7128650D02*
X6608277Y-7138174D01*
X6608277Y-7138174D02*
X6617801Y-7157222D01*
X6617801Y-7157222D02*
X6617801Y-7261984D01*
X6617801Y-7157222D02*
X6627325Y-7138174D01*
X6627325Y-7138174D02*
X6646372Y-7128650D01*
X6646372Y-7128650D02*
X6674944Y-7128650D01*
X6674944Y-7128650D02*
X6693991Y-7138174D01*
X6693991Y-7138174D02*
X6703515Y-7157222D01*
X6703515Y-7157222D02*
X6703515Y-7261984D01*
X7093991Y-7052460D02*
X6922563Y-7309603D01*
X7351134Y-7061984D02*
X7370182Y-7061984D01*
X7370182Y-7061984D02*
X7389230Y-7071508D01*
X7389230Y-7071508D02*
X7398753Y-7081031D01*
X7398753Y-7081031D02*
X7408277Y-7100079D01*
X7408277Y-7100079D02*
X7417801Y-7138174D01*
X7417801Y-7138174D02*
X7417801Y-7185793D01*
X7417801Y-7185793D02*
X7408277Y-7223888D01*
X7408277Y-7223888D02*
X7398753Y-7242936D01*
X7398753Y-7242936D02*
X7389230Y-7252460D01*
X7389230Y-7252460D02*
X7370182Y-7261984D01*
X7370182Y-7261984D02*
X7351134Y-7261984D01*
X7351134Y-7261984D02*
X7332087Y-7252460D01*
X7332087Y-7252460D02*
X7322563Y-7242936D01*
X7322563Y-7242936D02*
X7313039Y-7223888D01*
X7313039Y-7223888D02*
X7303515Y-7185793D01*
X7303515Y-7185793D02*
X7303515Y-7138174D01*
X7303515Y-7138174D02*
X7313039Y-7100079D01*
X7313039Y-7100079D02*
X7322563Y-7081031D01*
X7322563Y-7081031D02*
X7332087Y-7071508D01*
X7332087Y-7071508D02*
X7351134Y-7061984D01*
X7503515Y-7242936D02*
X7513039Y-7252460D01*
X7513039Y-7252460D02*
X7503515Y-7261984D01*
X7503515Y-7261984D02*
X7493992Y-7252460D01*
X7493992Y-7252460D02*
X7503515Y-7242936D01*
X7503515Y-7242936D02*
X7503515Y-7261984D01*
X7636849Y-7061984D02*
X7655896Y-7061984D01*
X7655896Y-7061984D02*
X7674944Y-7071508D01*
X7674944Y-7071508D02*
X7684468Y-7081031D01*
X7684468Y-7081031D02*
X7693992Y-7100079D01*
X7693992Y-7100079D02*
X7703515Y-7138174D01*
X7703515Y-7138174D02*
X7703515Y-7185793D01*
X7703515Y-7185793D02*
X7693992Y-7223888D01*
X7693992Y-7223888D02*
X7684468Y-7242936D01*
X7684468Y-7242936D02*
X7674944Y-7252460D01*
X7674944Y-7252460D02*
X7655896Y-7261984D01*
X7655896Y-7261984D02*
X7636849Y-7261984D01*
X7636849Y-7261984D02*
X7617801Y-7252460D01*
X7617801Y-7252460D02*
X7608277Y-7242936D01*
X7608277Y-7242936D02*
X7598753Y-7223888D01*
X7598753Y-7223888D02*
X7589230Y-7185793D01*
X7589230Y-7185793D02*
X7589230Y-7138174D01*
X7589230Y-7138174D02*
X7598753Y-7100079D01*
X7598753Y-7100079D02*
X7608277Y-7081031D01*
X7608277Y-7081031D02*
X7617801Y-7071508D01*
X7617801Y-7071508D02*
X7636849Y-7061984D01*
X7779706Y-7081031D02*
X7789230Y-7071508D01*
X7789230Y-7071508D02*
X7808277Y-7061984D01*
X7808277Y-7061984D02*
X7855896Y-7061984D01*
X7855896Y-7061984D02*
X7874944Y-7071508D01*
X7874944Y-7071508D02*
X7884468Y-7081031D01*
X7884468Y-7081031D02*
X7893992Y-7100079D01*
X7893992Y-7100079D02*
X7893992Y-7119127D01*
X7893992Y-7119127D02*
X7884468Y-7147698D01*
X7884468Y-7147698D02*
X7770182Y-7261984D01*
X7770182Y-7261984D02*
X7893992Y-7261984D01*
X7960658Y-7061984D02*
X8084468Y-7061984D01*
X8084468Y-7061984D02*
X8017801Y-7138174D01*
X8017801Y-7138174D02*
X8046373Y-7138174D01*
X8046373Y-7138174D02*
X8065420Y-7147698D01*
X8065420Y-7147698D02*
X8074944Y-7157222D01*
X8074944Y-7157222D02*
X8084468Y-7176269D01*
X8084468Y-7176269D02*
X8084468Y-7223888D01*
X8084468Y-7223888D02*
X8074944Y-7242936D01*
X8074944Y-7242936D02*
X8065420Y-7252460D01*
X8065420Y-7252460D02*
X8046373Y-7261984D01*
X8046373Y-7261984D02*
X7989230Y-7261984D01*
X7989230Y-7261984D02*
X7970182Y-7252460D01*
X7970182Y-7252460D02*
X7960658Y-7242936D01*
X8255896Y-7061984D02*
X8217801Y-7061984D01*
X8217801Y-7061984D02*
X8198753Y-7071508D01*
X8198753Y-7071508D02*
X8189230Y-7081031D01*
X8189230Y-7081031D02*
X8170182Y-7109603D01*
X8170182Y-7109603D02*
X8160658Y-7147698D01*
X8160658Y-7147698D02*
X8160658Y-7223888D01*
X8160658Y-7223888D02*
X8170182Y-7242936D01*
X8170182Y-7242936D02*
X8179706Y-7252460D01*
X8179706Y-7252460D02*
X8198753Y-7261984D01*
X8198753Y-7261984D02*
X8236849Y-7261984D01*
X8236849Y-7261984D02*
X8255896Y-7252460D01*
X8255896Y-7252460D02*
X8265420Y-7242936D01*
X8265420Y-7242936D02*
X8274944Y-7223888D01*
X8274944Y-7223888D02*
X8274944Y-7176269D01*
X8274944Y-7176269D02*
X8265420Y-7157222D01*
X8265420Y-7157222D02*
X8255896Y-7147698D01*
X8255896Y-7147698D02*
X8236849Y-7138174D01*
X8236849Y-7138174D02*
X8198753Y-7138174D01*
X8198753Y-7138174D02*
X8179706Y-7147698D01*
X8179706Y-7147698D02*
X8170182Y-7157222D01*
X8170182Y-7157222D02*
X8160658Y-7176269D01*
X8351134Y-7061984D02*
X8351134Y-7100079D01*
X8427325Y-7061984D02*
X8427325Y-7100079D01*
X8722563Y-7338174D02*
X8713039Y-7328650D01*
X8713039Y-7328650D02*
X8693992Y-7300079D01*
X8693992Y-7300079D02*
X8684468Y-7281031D01*
X8684468Y-7281031D02*
X8674944Y-7252460D01*
X8674944Y-7252460D02*
X8665420Y-7204841D01*
X8665420Y-7204841D02*
X8665420Y-7166746D01*
X8665420Y-7166746D02*
X8674944Y-7119127D01*
X8674944Y-7119127D02*
X8684468Y-7090555D01*
X8684468Y-7090555D02*
X8693992Y-7071508D01*
X8693992Y-7071508D02*
X8713039Y-7042936D01*
X8713039Y-7042936D02*
X8722563Y-7033412D01*
X8836849Y-7061984D02*
X8855897Y-7061984D01*
X8855897Y-7061984D02*
X8874944Y-7071508D01*
X8874944Y-7071508D02*
X8884468Y-7081031D01*
X8884468Y-7081031D02*
X8893992Y-7100079D01*
X8893992Y-7100079D02*
X8903516Y-7138174D01*
X8903516Y-7138174D02*
X8903516Y-7185793D01*
X8903516Y-7185793D02*
X8893992Y-7223888D01*
X8893992Y-7223888D02*
X8884468Y-7242936D01*
X8884468Y-7242936D02*
X8874944Y-7252460D01*
X8874944Y-7252460D02*
X8855897Y-7261984D01*
X8855897Y-7261984D02*
X8836849Y-7261984D01*
X8836849Y-7261984D02*
X8817801Y-7252460D01*
X8817801Y-7252460D02*
X8808277Y-7242936D01*
X8808277Y-7242936D02*
X8798754Y-7223888D01*
X8798754Y-7223888D02*
X8789230Y-7185793D01*
X8789230Y-7185793D02*
X8789230Y-7138174D01*
X8789230Y-7138174D02*
X8798754Y-7100079D01*
X8798754Y-7100079D02*
X8808277Y-7081031D01*
X8808277Y-7081031D02*
X8817801Y-7071508D01*
X8817801Y-7071508D02*
X8836849Y-7061984D01*
X9141611Y-7261984D02*
X9141611Y-7061984D01*
X9227325Y-7261984D02*
X9227325Y-7157222D01*
X9227325Y-7157222D02*
X9217801Y-7138174D01*
X9217801Y-7138174D02*
X9198754Y-7128650D01*
X9198754Y-7128650D02*
X9170182Y-7128650D01*
X9170182Y-7128650D02*
X9151135Y-7138174D01*
X9151135Y-7138174D02*
X9141611Y-7147698D01*
X9351135Y-7261984D02*
X9332087Y-7252460D01*
X9332087Y-7252460D02*
X9322563Y-7242936D01*
X9322563Y-7242936D02*
X9313039Y-7223888D01*
X9313039Y-7223888D02*
X9313039Y-7166746D01*
X9313039Y-7166746D02*
X9322563Y-7147698D01*
X9322563Y-7147698D02*
X9332087Y-7138174D01*
X9332087Y-7138174D02*
X9351135Y-7128650D01*
X9351135Y-7128650D02*
X9379706Y-7128650D01*
X9379706Y-7128650D02*
X9398754Y-7138174D01*
X9398754Y-7138174D02*
X9408278Y-7147698D01*
X9408278Y-7147698D02*
X9417801Y-7166746D01*
X9417801Y-7166746D02*
X9417801Y-7223888D01*
X9417801Y-7223888D02*
X9408278Y-7242936D01*
X9408278Y-7242936D02*
X9398754Y-7252460D01*
X9398754Y-7252460D02*
X9379706Y-7261984D01*
X9379706Y-7261984D02*
X9351135Y-7261984D01*
X9532087Y-7261984D02*
X9513039Y-7252460D01*
X9513039Y-7252460D02*
X9503516Y-7233412D01*
X9503516Y-7233412D02*
X9503516Y-7061984D01*
X9684468Y-7252460D02*
X9665420Y-7261984D01*
X9665420Y-7261984D02*
X9627325Y-7261984D01*
X9627325Y-7261984D02*
X9608278Y-7252460D01*
X9608278Y-7252460D02*
X9598754Y-7233412D01*
X9598754Y-7233412D02*
X9598754Y-7157222D01*
X9598754Y-7157222D02*
X9608278Y-7138174D01*
X9608278Y-7138174D02*
X9627325Y-7128650D01*
X9627325Y-7128650D02*
X9665420Y-7128650D01*
X9665420Y-7128650D02*
X9684468Y-7138174D01*
X9684468Y-7138174D02*
X9693992Y-7157222D01*
X9693992Y-7157222D02*
X9693992Y-7176269D01*
X9693992Y-7176269D02*
X9598754Y-7195317D01*
X9770182Y-7252460D02*
X9789230Y-7261984D01*
X9789230Y-7261984D02*
X9827325Y-7261984D01*
X9827325Y-7261984D02*
X9846373Y-7252460D01*
X9846373Y-7252460D02*
X9855897Y-7233412D01*
X9855897Y-7233412D02*
X9855897Y-7223888D01*
X9855897Y-7223888D02*
X9846373Y-7204841D01*
X9846373Y-7204841D02*
X9827325Y-7195317D01*
X9827325Y-7195317D02*
X9798754Y-7195317D01*
X9798754Y-7195317D02*
X9779706Y-7185793D01*
X9779706Y-7185793D02*
X9770182Y-7166746D01*
X9770182Y-7166746D02*
X9770182Y-7157222D01*
X9770182Y-7157222D02*
X9779706Y-7138174D01*
X9779706Y-7138174D02*
X9798754Y-7128650D01*
X9798754Y-7128650D02*
X9827325Y-7128650D01*
X9827325Y-7128650D02*
X9846373Y-7138174D01*
X10093992Y-7185793D02*
X10246373Y-7185793D01*
X10170182Y-7261984D02*
X10170182Y-7109603D01*
X10579706Y-7128650D02*
X10579706Y-7261984D01*
X10532087Y-7052460D02*
X10484468Y-7195317D01*
X10484468Y-7195317D02*
X10608278Y-7195317D01*
X10827325Y-7252460D02*
X10846373Y-7261984D01*
X10846373Y-7261984D02*
X10884468Y-7261984D01*
X10884468Y-7261984D02*
X10903516Y-7252460D01*
X10903516Y-7252460D02*
X10913040Y-7233412D01*
X10913040Y-7233412D02*
X10913040Y-7223888D01*
X10913040Y-7223888D02*
X10903516Y-7204841D01*
X10903516Y-7204841D02*
X10884468Y-7195317D01*
X10884468Y-7195317D02*
X10855897Y-7195317D01*
X10855897Y-7195317D02*
X10836849Y-7185793D01*
X10836849Y-7185793D02*
X10827325Y-7166746D01*
X10827325Y-7166746D02*
X10827325Y-7157222D01*
X10827325Y-7157222D02*
X10836849Y-7138174D01*
X10836849Y-7138174D02*
X10855897Y-7128650D01*
X10855897Y-7128650D02*
X10884468Y-7128650D01*
X10884468Y-7128650D02*
X10903516Y-7138174D01*
X11027325Y-7261984D02*
X11008278Y-7252460D01*
X11008278Y-7252460D02*
X10998754Y-7233412D01*
X10998754Y-7233412D02*
X10998754Y-7061984D01*
X11132087Y-7261984D02*
X11113040Y-7252460D01*
X11113040Y-7252460D02*
X11103516Y-7242936D01*
X11103516Y-7242936D02*
X11093992Y-7223888D01*
X11093992Y-7223888D02*
X11093992Y-7166746D01*
X11093992Y-7166746D02*
X11103516Y-7147698D01*
X11103516Y-7147698D02*
X11113040Y-7138174D01*
X11113040Y-7138174D02*
X11132087Y-7128650D01*
X11132087Y-7128650D02*
X11160659Y-7128650D01*
X11160659Y-7128650D02*
X11179706Y-7138174D01*
X11179706Y-7138174D02*
X11189230Y-7147698D01*
X11189230Y-7147698D02*
X11198754Y-7166746D01*
X11198754Y-7166746D02*
X11198754Y-7223888D01*
X11198754Y-7223888D02*
X11189230Y-7242936D01*
X11189230Y-7242936D02*
X11179706Y-7252460D01*
X11179706Y-7252460D02*
X11160659Y-7261984D01*
X11160659Y-7261984D02*
X11132087Y-7261984D01*
X11255897Y-7128650D02*
X11332087Y-7128650D01*
X11284468Y-7061984D02*
X11284468Y-7233412D01*
X11284468Y-7233412D02*
X11293992Y-7252460D01*
X11293992Y-7252460D02*
X11313040Y-7261984D01*
X11313040Y-7261984D02*
X11332087Y-7261984D01*
X11389230Y-7252460D02*
X11408278Y-7261984D01*
X11408278Y-7261984D02*
X11446373Y-7261984D01*
X11446373Y-7261984D02*
X11465421Y-7252460D01*
X11465421Y-7252460D02*
X11474944Y-7233412D01*
X11474944Y-7233412D02*
X11474944Y-7223888D01*
X11474944Y-7223888D02*
X11465421Y-7204841D01*
X11465421Y-7204841D02*
X11446373Y-7195317D01*
X11446373Y-7195317D02*
X11417801Y-7195317D01*
X11417801Y-7195317D02*
X11398754Y-7185793D01*
X11398754Y-7185793D02*
X11389230Y-7166746D01*
X11389230Y-7166746D02*
X11389230Y-7157222D01*
X11389230Y-7157222D02*
X11398754Y-7138174D01*
X11398754Y-7138174D02*
X11417801Y-7128650D01*
X11417801Y-7128650D02*
X11446373Y-7128650D01*
X11446373Y-7128650D02*
X11465421Y-7138174D01*
X11541611Y-7338174D02*
X11551135Y-7328650D01*
X11551135Y-7328650D02*
X11570182Y-7300079D01*
X11570182Y-7300079D02*
X11579706Y-7281031D01*
X11579706Y-7281031D02*
X11589230Y-7252460D01*
X11589230Y-7252460D02*
X11598754Y-7204841D01*
X11598754Y-7204841D02*
X11598754Y-7166746D01*
X11598754Y-7166746D02*
X11589230Y-7119127D01*
X11589230Y-7119127D02*
X11579706Y-7090555D01*
X11579706Y-7090555D02*
X11570182Y-7071508D01*
X11570182Y-7071508D02*
X11551135Y-7042936D01*
X11551135Y-7042936D02*
X11541611Y-7033412D01*
M02*
