%TF.GenerationSoftware,KiCad,Pcbnew,9.0.6*%
%TF.CreationDate,2025-12-27T03:33:34+09:00*%
%TF.ProjectId,muon,6d756f6e-2e6b-4696-9361-645f70636258,rev?*%
%TF.SameCoordinates,Original*%
%TF.FileFunction,Soldermask,Top*%
%TF.FilePolarity,Negative*%
%FSLAX46Y46*%
G04 Gerber Fmt 4.6, Leading zero omitted, Abs format (unit mm)*
G04 Created by KiCad (PCBNEW 9.0.6) date 2025-12-27 03:33:34*
%MOMM*%
%LPD*%
G01*
G04 APERTURE LIST*
G04 Aperture macros list*
%AMRoundRect*
0 Rectangle with rounded corners*
0 $1 Rounding radius*
0 $2 $3 $4 $5 $6 $7 $8 $9 X,Y pos of 4 corners*
0 Add a 4 corners polygon primitive as box body*
4,1,4,$2,$3,$4,$5,$6,$7,$8,$9,$2,$3,0*
0 Add four circle primitives for the rounded corners*
1,1,$1+$1,$2,$3*
1,1,$1+$1,$4,$5*
1,1,$1+$1,$6,$7*
1,1,$1+$1,$8,$9*
0 Add four rect primitives between the rounded corners*
20,1,$1+$1,$2,$3,$4,$5,0*
20,1,$1+$1,$4,$5,$6,$7,0*
20,1,$1+$1,$6,$7,$8,$9,0*
20,1,$1+$1,$8,$9,$2,$3,0*%
G04 Aperture macros list end*
%ADD10C,3.125000*%
%ADD11RoundRect,0.150000X-0.150000X-0.200000X0.150000X-0.200000X0.150000X0.200000X-0.150000X0.200000X0*%
%ADD12RoundRect,0.200000X-0.200000X-0.275000X0.200000X-0.275000X0.200000X0.275000X-0.200000X0.275000X0*%
%ADD13C,3.200000*%
%ADD14RoundRect,0.243750X0.243750X0.456250X-0.243750X0.456250X-0.243750X-0.456250X0.243750X-0.456250X0*%
%ADD15RoundRect,0.075000X-0.200000X0.075000X-0.200000X-0.075000X0.200000X-0.075000X0.200000X0.075000X0*%
%ADD16C,0.600000*%
%ADD17RoundRect,0.050000X0.250000X0.675000X-0.250000X0.675000X-0.250000X-0.675000X0.250000X-0.675000X0*%
%ADD18RoundRect,0.050000X0.100000X0.675000X-0.100000X0.675000X-0.100000X-0.675000X0.100000X-0.675000X0*%
%ADD19O,1.000000X2.100000*%
%ADD20O,1.000000X1.800000*%
%ADD21RoundRect,0.150000X-0.150000X-0.625000X0.150000X-0.625000X0.150000X0.625000X-0.150000X0.625000X0*%
%ADD22RoundRect,0.250000X-0.350000X-0.650000X0.350000X-0.650000X0.350000X0.650000X-0.350000X0.650000X0*%
G04 APERTURE END LIST*
D10*
X83562500Y-55000000D02*
G75*
G02*
X80437500Y-55000000I-1562500J0D01*
G01*
X80437500Y-55000000D02*
G75*
G02*
X83562500Y-55000000I1562500J0D01*
G01*
D11*
%TO.C,D1*%
X60600000Y-52600000D03*
X59200000Y-52600000D03*
%TD*%
D12*
%TO.C,R2*%
X65875000Y-52700000D03*
X67525000Y-52700000D03*
%TD*%
%TO.C,R1*%
X65875000Y-54500000D03*
X67525000Y-54500000D03*
%TD*%
D13*
%TO.C,MH1*%
X82000000Y-55000000D03*
%TD*%
%TO.C,MH2*%
X54500000Y-55000000D03*
%TD*%
D14*
%TO.C,F1*%
X64137500Y-52600000D03*
X62262500Y-52600000D03*
%TD*%
D15*
%TO.C,U1*%
X66315000Y-56100000D03*
X66315000Y-56600000D03*
X66315000Y-57100000D03*
X66315000Y-57600000D03*
X66315000Y-58100000D03*
X67085000Y-58100000D03*
X67085000Y-57600000D03*
X67085000Y-57100000D03*
X67085000Y-56600000D03*
X67085000Y-56100000D03*
%TD*%
D16*
%TO.C,J1*%
X76390000Y-54880000D03*
X70610000Y-54880000D03*
D17*
X76725000Y-56100000D03*
X75950000Y-56100000D03*
D18*
X74750000Y-56100000D03*
X73750000Y-56100000D03*
X73250000Y-56100000D03*
X72250000Y-56100000D03*
D17*
X71050000Y-56100000D03*
X70275000Y-56100000D03*
D18*
X71750000Y-56100000D03*
X72750000Y-56100000D03*
X74250000Y-56100000D03*
X75250000Y-56100000D03*
D19*
X77820000Y-55380000D03*
D20*
X77820000Y-51200000D03*
D19*
X69180000Y-55380000D03*
D20*
X69180000Y-51200000D03*
%TD*%
D21*
%TO.C,J2*%
X59900000Y-54900000D03*
X60900000Y-54900000D03*
X61900000Y-54900000D03*
X62900000Y-54900000D03*
D22*
X58600000Y-58775000D03*
X64200000Y-58775000D03*
%TD*%
M02*
